<svg width="36" height="24" viewBox="0 0 36 24" fill="none" xmlns="http://www.w3.org/2000/svg">
<path d="M30.3531 5.35469C28.7328 3.73071 26.807 2.44355 24.6869 1.56743C22.5667 0.691309 20.2941 0.243562 18 0.250008H17.9375C8.32344 0.28282 0.5 8.21876 0.5 17.9266V21.5C0.5 22.163 0.763392 22.7989 1.23223 23.2678C1.70107 23.7366 2.33696 24 3 24H33C33.663 24 34.2989 23.7366 34.7678 23.2678C35.2366 22.7989 35.5 22.163 35.5 21.5V17.75C35.5064 15.4459 35.0547 13.1635 34.1711 11.0356C33.2875 8.90763 31.9897 6.97657 30.3531 5.35469ZM33 21.5H16.7047L25.2609 9.73438C25.4561 9.46626 25.5368 9.13159 25.4852 8.80399C25.4337 8.47639 25.2541 8.18269 24.9859 7.98751C24.7178 7.79232 24.3831 7.71165 24.0555 7.76322C23.7279 7.81479 23.4342 7.99439 23.2391 8.26251L13.6125 21.5H3V17.9266C3 17.4453 3.02344 16.9703 3.06719 16.5H6.75C7.08152 16.5 7.39946 16.3683 7.63388 16.1339C7.8683 15.8995 8 15.5815 8 15.25C8 14.9185 7.8683 14.6005 7.63388 14.3661C7.39946 14.1317 7.08152 14 6.75 14H3.51094C5.12344 7.92813 10.3859 3.33751 16.75 2.80313V6.50001C16.75 6.83153 16.8817 7.14947 17.1161 7.38389C17.3505 7.61831 17.6685 7.75001 18 7.75001C18.3315 7.75001 18.6495 7.61831 18.8839 7.38389C19.1183 7.14947 19.25 6.83153 19.25 6.50001V2.80157C22.351 3.06254 25.2945 4.28016 27.6736 6.28619C30.0527 8.29223 31.7501 10.9876 32.5312 14H29.25C28.9185 14 28.6005 14.1317 28.3661 14.3661C28.1317 14.6005 28 14.9185 28 15.25C28 15.5815 28.1317 15.8995 28.3661 16.1339C28.6005 16.3683 28.9185 16.5 29.25 16.5H32.9484C32.9812 16.9141 33 17.3297 33 17.75V21.5Z" fill="black"/>
</svg>
