<svg width="48" height="48" viewBox="0 0 48 48" fill="none" xmlns="http://www.w3.org/2000/svg">
<path d="M43.0003 17.34C43.0003 24.16 37.4803 29.68 30.6603 29.68H29.6803C29.2203 23.62 24.3803 18.7799 18.3203 18.3199V17.34C18.3203 10.52 23.8403 5 30.6603 5C37.4803 5 43.0003 10.52 43.0003 17.34Z" fill="#1B74E4"/>
<path d="M46 31.94C46 39.68 39.74 45.94 32 45.94L34.1 42.44" stroke="#222222" stroke-width="2" stroke-linecap="round" stroke-linejoin="round"/>
<path d="M2 15.9399C2 8.19994 8.26 1.93994 16 1.93994L13.9 5.43994" stroke="#222222" stroke-width="2" stroke-linecap="round" stroke-linejoin="round"/>
<path d="M13.2402 26.1398H18.8602C20.1002 26.1398 21.1202 27.26 21.1202 28.4C21.1202 29.64 20.1202 30.66 18.8602 30.66H13.2402V26.1398Z" stroke="#222222" stroke-width="2" stroke-miterlimit="10" stroke-linecap="round" stroke-linejoin="round"/>
<path d="M13.2402 30.66H19.6802C21.1002 30.66 22.2602 31.66 22.2602 32.92C22.2602 34.16 21.1002 35.18 19.6802 35.18H13.2402V30.66Z" stroke="#222222" stroke-width="2" stroke-miterlimit="10" stroke-linecap="round" stroke-linejoin="round"/>
<path d="M16.8398 35.16V37.4" stroke="#222222" stroke-width="2" stroke-miterlimit="10" stroke-linecap="round" stroke-linejoin="round"/>
<path d="M16.8398 23.9V26.1398" stroke="#222222" stroke-width="2" stroke-miterlimit="10" stroke-linecap="round" stroke-linejoin="round"/>
<path d="M29.6995 30.66C29.6995 37.48 24.1795 42.9998 17.3595 42.9998C10.5395 42.9998 5.01953 37.48 5.01953 30.66C5.01953 23.84 10.5395 18.3198 17.3595 18.3198C17.6795 18.3198 17.9795 18.3399 18.3195 18.3599C24.3795 18.8199 29.2195 23.6598 29.6795 29.7198C29.6795 30.0198 29.6995 30.32 29.6995 30.66Z" stroke="#222222" stroke-width="2" stroke-miterlimit="10" stroke-linecap="round" stroke-linejoin="round"/>
</svg>
