<svg width="48" height="48" viewBox="0 0 48 48" fill="none" xmlns="http://www.w3.org/2000/svg">
<path d="M39.0003 34C37.9836 34.0006 36.9918 34.3149 36.1603 34.9L33.1203 31.78C34.9583 29.6121 35.9671 26.8622 35.9671 24.02C35.9671 21.1779 34.9583 18.428 33.1203 16.26L36.2203 13.18C37.1461 13.7993 38.2521 14.0917 39.3629 14.0109C40.4737 13.9301 41.5258 13.4808 42.3522 12.7341C43.1786 11.9875 43.7321 10.9863 43.9248 9.88932C44.1176 8.79236 43.9385 7.66246 43.4161 6.67881C42.8937 5.69517 42.0578 4.91412 41.0411 4.45952C40.0243 4.00493 38.8849 3.90283 37.8035 4.16942C36.7221 4.436 35.7607 5.05601 35.0717 5.93111C34.3828 6.8062 34.0057 7.88628 34.0003 9.00003C34.0061 9.98835 34.2979 10.9539 34.8403 11.78L31.7403 14.84C29.5753 13.0126 26.8335 12.0102 24.0003 12.0102C21.1672 12.0102 18.4254 13.0126 16.2603 14.84L13.1403 11.8C13.8446 10.7681 14.1405 9.51145 13.9707 8.27372C13.8009 7.03599 13.1774 5.90545 12.2212 5.10139C11.265 4.29733 10.0443 3.87706 8.79579 3.9221C7.54728 3.96715 6.35999 4.47429 5.46423 5.34517C4.56847 6.21605 4.02809 7.38858 3.9479 8.63533C3.86771 9.88208 4.25343 11.1142 5.03024 12.0926C5.80706 13.0711 6.91959 13.7262 8.15204 13.9308C9.3845 14.1354 10.649 13.875 11.7003 13.2L14.8403 16.26C13.0024 18.428 11.9936 21.1779 11.9936 24.02C11.9936 26.8622 13.0024 29.6121 14.8403 31.78L11.8603 34.92C11.0275 34.3202 10.0267 33.9983 9.00034 34C8.01143 34 7.04473 34.2933 6.22249 34.8427C5.40024 35.3921 4.75938 36.173 4.38094 37.0866C4.0025 38.0002 3.90349 39.0056 4.09641 39.9755C4.28934 40.9454 4.76554 41.8363 5.46481 42.5356C6.16407 43.2348 7.05498 43.711 8.02489 43.904C8.99479 44.0969 10.0001 43.9979 10.9138 43.6194C11.8274 43.241 12.6083 42.6001 13.1577 41.7779C13.7071 40.9556 14.0003 39.9889 14.0003 39C14.0001 38.0724 13.7366 37.1638 13.2403 36.38L16.3003 33.18C16.7052 33.522 17.1328 33.8361 17.5803 34.12C19.4869 35.3338 21.7002 35.9786 23.9603 35.9786C26.2205 35.9786 28.4338 35.3338 30.3403 34.12C30.7878 33.8361 31.2155 33.522 31.6203 33.18L34.7003 36.36C34.2225 37.1563 33.9798 38.0716 34.0003 39C34.0003 39.9889 34.2936 40.9556 34.843 41.7779C35.3924 42.6001 36.1733 43.241 37.0869 43.6194C38.0005 43.9979 39.0059 44.0969 39.9758 43.904C40.9457 43.711 41.8366 43.2348 42.5359 42.5356C43.2351 41.8363 43.7113 40.9454 43.9043 39.9755C44.0972 39.0056 43.9982 38.0002 43.6197 37.0866C43.2413 36.173 42.6004 35.3921 41.7782 34.8427C40.9559 34.2933 39.9892 34 39.0003 34ZM39.0003 6.00003C39.4945 5.98671 39.9843 6.09573 40.4262 6.31739C40.8681 6.53905 41.2484 6.86648 41.5332 7.27056C41.818 7.67464 41.9986 8.14284 42.0588 8.63353C42.119 9.12422 42.057 9.62218 41.8784 10.0831C41.6997 10.5441 41.4099 10.9538 41.0347 11.2757C40.6595 11.5976 40.2106 11.8218 39.7278 11.9284C39.2451 12.035 38.7435 12.0206 38.2677 11.8865C37.7918 11.7525 37.3565 11.5029 37.0003 11.16C36.4627 10.63 36.1479 9.91453 36.1203 9.16003C36.0988 8.76272 36.1566 8.36509 36.2902 7.99031C36.4238 7.61553 36.6306 7.27107 36.8987 6.97699C37.1667 6.68291 37.4905 6.44508 37.8513 6.27736C38.2122 6.10963 38.6027 6.01536 39.0003 6.00003ZM6.00034 9.00003C6.00034 8.20438 6.31641 7.44132 6.87902 6.87871C7.44163 6.3161 8.20469 6.00003 9.00034 6.00003C9.79599 6.00003 10.5591 6.3161 11.1217 6.87871C11.6843 7.44132 12.0003 8.20438 12.0003 9.00003C12.0023 9.39897 11.9236 9.79419 11.7689 10.1619C11.6142 10.5297 11.3868 10.8624 11.1003 11.14C10.5388 11.6888 9.78552 11.9973 9.00034 12C8.20469 12 7.44163 11.684 6.87902 11.1213C6.31641 10.5587 6.00034 9.79568 6.00034 9.00003ZM24.0003 14C25.9879 14.008 27.9281 14.6082 29.573 15.7238C31.218 16.8395 32.4932 18.42 33.2358 20.2637C33.9784 22.1074 34.1548 24.1305 33.7424 26.0749C33.3299 28.0192 32.3475 29.7966 30.9203 31.18C30.7469 29.6177 30.0406 28.1627 28.9203 27.06C28.407 26.5549 27.8204 26.1301 27.1803 25.8C27.7446 25.3409 28.1992 24.7613 28.5106 24.1038C28.822 23.4464 28.9825 22.7275 28.9803 22C28.984 21.1576 28.7748 20.328 28.3721 19.588C27.9694 18.8481 27.3863 18.2219 26.6769 17.7676C25.9675 17.3133 25.1548 17.0456 24.3142 16.9894C23.4737 16.9331 22.6326 17.0901 21.869 17.4459C21.1054 17.8016 20.444 18.3445 19.9463 19.0242C19.4486 19.7038 19.1307 20.4982 19.0221 21.3336C18.9135 22.169 19.0177 23.0183 19.3251 23.8026C19.6325 24.5869 20.1331 25.2809 20.7803 25.82C19.7696 26.3444 18.9034 27.1095 18.2581 28.0477C17.6128 28.9859 17.2084 30.0685 17.0803 31.2C15.6462 29.8178 14.6576 28.0387 14.2411 26.0909C13.8246 24.1432 13.9993 22.1154 14.7428 20.2675C15.4862 18.4196 16.7645 16.8359 18.4139 15.7192C20.0633 14.6026 22.0085 14.004 24.0003 14ZM21.0003 22C21.0003 21.4067 21.1763 20.8267 21.5059 20.3333C21.8356 19.84 22.3041 19.4555 22.8523 19.2284C23.4005 19.0013 24.0037 18.9419 24.5856 19.0577C25.1676 19.1734 25.7021 19.4591 26.1217 19.8787C26.5412 20.2983 26.8269 20.8328 26.9427 21.4148C27.0584 21.9967 26.999 22.5999 26.772 23.1481C26.5449 23.6963 26.1604 24.1648 25.667 24.4944C25.1737 24.8241 24.5937 25 24.0003 25C23.2047 25 22.4416 24.684 21.879 24.1213C21.3164 23.5587 21.0003 22.7957 21.0003 22ZM9.00034 42C8.20469 42 7.44163 41.684 6.87902 41.1213C6.31641 40.5587 6.00034 39.7957 6.00034 39C6.00034 38.2044 6.31641 37.4413 6.87902 36.8787C7.44163 36.3161 8.20469 36 9.00034 36C9.40592 35.9981 9.80744 36.0807 10.1793 36.2425C10.5512 36.4044 10.8853 36.6419 11.1603 36.94C11.6629 37.4833 11.9353 38.2001 11.9203 38.94C11.9365 39.7323 11.6384 40.4988 11.0913 41.0722C10.5443 41.6455 9.79254 41.9791 9.00034 42ZM19.0003 32.6V32C19.0003 30.6739 19.5271 29.4022 20.4648 28.4645C21.4025 27.5268 22.6743 27 24.0003 27C25.3264 27 26.5982 27.5268 27.5359 28.4645C28.4736 29.4022 29.0003 30.6739 29.0003 32V32.6C27.4936 33.5167 25.764 34.0015 24.0003 34.0015C22.2367 34.0015 20.507 33.5167 19.0003 32.6ZM39.0003 42C38.4209 42.0061 37.8523 41.843 37.3641 41.5309C36.8759 41.2188 36.4893 40.7711 36.2516 40.2426C36.0139 39.7142 35.9355 39.1279 36.0258 38.5555C36.1162 37.9832 36.3714 37.4496 36.7603 37.02V36.92C37.0477 36.6174 37.3959 36.379 37.782 36.2205C38.168 36.0619 38.5832 35.9868 39.0003 36C39.796 36 40.559 36.3161 41.1217 36.8787C41.6843 37.4413 42.0003 38.2044 42.0003 39C42.0003 39.7957 41.6843 40.5587 41.1217 41.1213C40.559 41.684 39.796 42 39.0003 42Z" fill="#222222"/>
</svg>
