<svg width="40" height="44" viewBox="0 0 40 44" fill="none" xmlns="http://www.w3.org/2000/svg">
<path d="M10.1497 26.9983C9.50077 25.5317 9.16582 23.9455 9.16634 22.3417C9.16634 16.1667 14.0163 11.165 19.9997 11.165C25.983 11.165 30.833 16.1683 30.833 22.3417C30.8335 23.9455 30.4986 25.5317 29.8497 26.9983M19.9997 5.33167V6.99833M36.6663 21.9983H34.9997M4.99967 21.9983H3.33301M31.783 10.2133L30.6047 11.3917M9.39467 11.3933L8.21634 10.215M24.1947 34.1767C25.878 33.6317 26.5547 32.09 26.7447 30.54C26.8013 30.0767 26.4197 29.6917 25.953 29.6917H14.128C14.014 29.6898 13.901 29.7123 13.7963 29.7574C13.6917 29.8025 13.5978 29.8694 13.5209 29.9535C13.444 30.0377 13.3859 30.1372 13.3503 30.2454C13.3148 30.3537 13.3026 30.4683 13.3147 30.5817C13.5013 32.1283 13.9713 33.2583 15.7547 34.175M24.1947 34.1767L15.7547 34.175M24.1947 34.1767C23.993 37.4183 23.0563 38.7017 20.0113 38.665C16.7547 38.725 16.0047 37.1367 15.7547 34.175" stroke="black" stroke-width="2.5" stroke-linecap="round" stroke-linejoin="round"/>
</svg>
