<svg width="48" height="48" viewBox="0 0 48 48" fill="none" xmlns="http://www.w3.org/2000/svg">
<path d="M24 26C27.3137 26 30 23.3137 30 20C30 16.6863 27.3137 14 24 14C20.6863 14 18 16.6863 18 20C18 23.3137 20.6863 26 24 26Z" stroke="#222222" stroke-width="1.5" stroke-linecap="round" stroke-linejoin="round"/>
<path d="M11.58 27.14L6 35.12L12.06 36.92L15.82 42L21.58 33.78" stroke="#222222" stroke-width="1.5" stroke-linecap="round" stroke-linejoin="round"/>
<path d="M36.4199 27.14L41.9999 35.12L35.9399 36.92L32.1799 42L26.4199 33.78" stroke="#222222" stroke-width="1.5" stroke-linecap="round" stroke-linejoin="round"/>
<path d="M24 34C31.732 34 38 27.732 38 20C38 12.268 31.732 6 24 6C16.268 6 10 12.268 10 20C10 27.732 16.268 34 24 34Z" stroke="#222222" stroke-width="1.5" stroke-linecap="round" stroke-linejoin="round"/>
</svg>
