<svg width="48" height="48" viewBox="0 0 48 48" fill="none" xmlns="http://www.w3.org/2000/svg">
<path d="M21.8065 28.5L18.0293 22.8318C17.8664 22.5892 17.6463 22.3903 17.3884 22.2528C17.1304 22.1153 16.8427 22.0434 16.5504 22.0434C16.2581 22.0434 15.9703 22.1153 15.7124 22.2528C15.4545 22.3903 15.2344 22.5892 15.0715 22.8318L11.2943 28.5C8.54647 32.625 11.3346 38.2396 16.2865 38.4206C16.3737 38.4206 16.4618 38.4253 16.5499 38.4253C16.638 38.4253 16.7271 38.4253 16.8143 38.4206C21.7662 38.2415 24.5534 32.625 21.8065 28.5Z" fill="#1B74E4"/>
<path d="M38.5948 27.1481C38.5165 25.0778 37.8638 23.0701 36.7095 21.3497L30.0748 11.3934C29.7922 10.9699 29.4095 10.6227 28.9606 10.3826C28.5117 10.1425 28.0105 10.0168 27.5014 10.0168C26.9923 10.0168 26.491 10.1425 26.0421 10.3826C25.5932 10.6227 25.2105 10.9699 24.9279 11.3934L18.4873 21.059C18.829 21.3 19.1233 21.6019 19.3554 21.9497L19.6367 22.3762L19.6948 22.2825L26.3295 12.3262C26.458 12.1338 26.6319 11.9761 26.8359 11.867C27.0399 11.7579 27.2677 11.7008 27.499 11.7008C27.7304 11.7008 27.9581 11.7579 28.1621 11.867C28.3662 11.9761 28.5401 12.1338 28.6686 12.3262L35.3023 22.2825C37.2561 25.214 37.4492 28.8375 35.8198 31.9753C34.2261 35.054 31.2148 36.944 27.7751 37.0303C27.5876 37.035 27.4057 37.035 27.222 37.0303C25.8891 36.9999 24.5784 36.6837 23.3782 36.1031C23.0912 36.5992 22.7517 37.0631 22.3657 37.4869C23.8579 38.26 25.5072 38.6814 27.1873 38.7187C27.2932 38.7187 27.3992 38.7187 27.5061 38.7187C27.6129 38.7187 27.7189 38.7187 27.8248 38.7187C31.8879 38.6156 35.4401 36.3853 37.3254 32.7544C38.2227 31.0255 38.6598 29.0948 38.5948 27.1481Z" fill="black"/>
<path d="M12.6905 15.5146C13.944 16.065 14.5871 16.7081 15.1374 17.9615C15.1787 18.0567 15.247 18.1377 15.3338 18.1947C15.4205 18.2516 15.5221 18.2819 15.6258 18.2819C15.7296 18.2819 15.8311 18.2516 15.9179 18.1947C16.0047 18.1377 16.0729 18.0567 16.1143 17.9615C16.6646 16.7081 17.3077 16.065 18.5611 15.5146C18.6563 15.4733 18.7374 15.4051 18.7943 15.3183C18.8512 15.2315 18.8815 15.13 18.8815 15.0262C18.8815 14.9224 18.8512 14.8209 18.7943 14.7341C18.7374 14.6474 18.6563 14.5791 18.5611 14.5378C17.3077 13.9875 16.6646 13.3443 16.1143 12.0918C16.0729 11.9966 16.0047 11.9156 15.9179 11.8587C15.8311 11.8017 15.7296 11.7714 15.6258 11.7714C15.5221 11.7714 15.4205 11.8017 15.3338 11.8587C15.247 11.9156 15.1787 11.9966 15.1374 12.0918C14.5871 13.3443 13.944 13.9875 12.6905 14.5378C12.5953 14.5791 12.5143 14.6474 12.4574 14.7341C12.4004 14.8209 12.3701 14.9224 12.3701 15.0262C12.3701 15.13 12.4004 15.2315 12.4574 15.3183C12.5143 15.4051 12.5953 15.4733 12.6905 15.5146Z" fill="#1B74E4"/>
<path d="M32.7936 29.0231C32.7926 30.0069 32.4014 30.9501 31.7057 31.6458C31.0101 32.3414 30.0668 32.7327 29.083 32.7337V34.3274C30.4894 34.326 31.8377 33.7666 32.8321 32.7722C33.8266 31.7777 34.3859 30.4294 34.3874 29.0231H32.7936Z" fill="black"/>
</svg>
