<svg width="48" height="48" viewBox="0 0 48 48" fill="none" xmlns="http://www.w3.org/2000/svg">
<g clip-path="url(#clip0_753_5565)">
<path d="M35.7244 29.2911C35.9815 29.0077 36.613 28.2499 37.2785 27.4511C37.8909 26.7161 38.5291 25.9503 39.0181 25.4301C38.5604 25.6 37.3128 26.1536 36.0049 27.9726C35.82 28.2293 35.6362 28.4254 35.4531 28.6206C35.3427 28.7384 35.2325 28.8559 35.1639 28.9375C35.0457 29.0778 34.9114 29.1975 34.7704 29.3061L34.7715 29.3075C34.6425 29.4066 34.5281 29.4831 34.4161 29.5575L34.4165 29.5582L34.3923 29.5745C34.1546 29.7349 33.8885 29.9144 33.5114 29.9449H33.4996C31.8739 30.0524 30.782 30.3223 30.0791 30.5794C29.4385 30.8136 29.1657 31.0201 29.1048 31.0674H29.1018C29.0728 31.0898 29.0582 31.1011 29.0518 31.1062L29.052 31.1066C29.0574 31.1026 29.0641 31.0976 29.0521 31.1066C28.648 31.412 26.4386 33.0818 25.8208 35.7934L25.8218 35.7936C25.7887 35.963 25.7426 36.2859 25.7357 36.588C25.7317 36.7619 25.739 36.9224 25.7679 37.0191L25.7942 37.1422C25.8249 37.3894 25.8275 37.4075 25.8303 37.4286C25.8711 37.7283 25.9121 38.0288 25.9239 38.3541V38.3804L25.9266 39.7105L30.4564 39.7054V38.1875C30.4564 36.8381 31.6201 35.8884 31.9265 35.6384L31.9267 35.6387L31.9538 35.6166L32.0563 35.5463C32.072 35.5373 37.5241 32.4007 38.158 31.6515L38.1563 31.6501C38.4669 31.2802 39.2175 29.7808 39.9071 28.2617C40.5786 26.7821 41.1745 25.3395 41.2233 24.9774V23.7892H41.2254C41.1742 22.2668 40.9823 20.3827 40.9818 20.3772L40.9789 20.3625C40.96 20.1318 40.9344 19.8554 40.9028 19.6096C40.7851 19.9707 40.7219 20.4861 40.6574 21.0809C40.6383 21.2577 40.617 21.4665 40.5912 21.7187C40.5115 22.4984 40.3975 23.6134 40.3558 23.7582L38.9203 23.348C38.9211 23.3452 39.0281 22.2983 39.1029 21.5664C39.1347 21.2552 39.1618 20.9907 39.1691 20.9227C39.2439 20.2321 39.3202 19.6265 39.4901 19.1191C39.7084 18.4666 40.0639 17.9992 40.6873 17.7792L40.6932 17.7762C40.9167 17.6994 41.1251 17.6776 41.346 17.7246C41.5765 17.7736 41.771 17.8874 41.9524 18.0794L41.9523 18.0796C42.1555 18.2959 42.2775 18.7147 42.3504 19.1766C42.4099 19.5536 42.4487 19.9478 42.473 20.2453L42.4716 20.2454C42.4897 20.4265 42.6708 22.2542 42.7204 23.7657L42.7233 23.7892V24.9862L42.7204 25.0242C42.6935 25.5221 42.0242 27.2202 41.2723 28.8769C40.5365 30.4981 39.7027 32.1371 39.3047 32.6111H39.3018C38.5477 33.5073 33.4595 36.4605 32.859 36.8074C32.6537 36.9751 31.9564 37.5555 31.9564 38.1875V40.4517V41.1979L31.2064 41.1987L25.181 41.2055L24.4354 41.2063L24.4339 40.4584L24.4298 38.4068H24.4297C24.4209 38.1637 24.3843 37.8954 24.3479 37.6278C24.3309 37.5025 24.32 37.4272 24.3129 37.3759C24.2523 37.1336 24.235 36.8444 24.2415 36.5587C24.2511 36.139 24.3095 35.7197 24.3511 35.5065L24.3569 35.486C25.0889 32.2244 27.6774 30.2683 28.1498 29.9113C28.2151 29.862 28.1065 29.9465 28.186 29.8853L28.1849 29.8839C28.2794 29.8104 28.7001 29.491 29.5693 29.1731C30.3745 28.8787 31.6055 28.5708 33.3943 28.4516L33.3942 28.4508C33.4117 28.4493 33.4706 28.3889 33.5544 28.3323L33.5787 28.316L33.5845 28.3131C33.6836 28.2471 33.7846 28.1799 33.8575 28.1239H33.8604C33.9227 28.076 33.9788 28.027 34.0213 27.9765C34.1565 27.8158 34.2598 27.7056 34.3633 27.5952C34.5177 27.4306 34.6727 27.2652 34.7921 27.0996C36.4999 24.7243 38.2178 24.1246 38.6344 23.9791L38.6533 23.9727C38.9363 23.8574 39.4295 23.836 39.8251 23.953C40.0356 24.0151 40.2395 24.1146 40.406 24.2575C40.6322 24.4517 40.7848 24.7068 40.8117 25.0319C40.8355 25.3193 40.7521 25.6332 40.5127 25.965L40.0439 26.2638C39.845 26.3013 39.3036 27.3541 38.427 28.4062C37.7219 29.2524 37.0529 30.0554 36.8319 30.2989L35.7245 29.2911L35.7244 29.2911ZM39.3119 25.1306L39.3297 25.1135L39.3035 25.0946C39.3063 25.1011 39.3093 25.116 39.3119 25.1306ZM29.0518 31.1062C29.0443 31.1122 29.0477 31.1097 29.052 31.1066L29.0518 31.1062Z" fill="#222222"/>
<path d="M11.1717 30.2989C10.9506 30.0553 10.2815 29.2522 9.57626 28.4058C8.69976 27.3538 8.1588 26.3013 7.95963 26.2638L7.49086 25.965C7.25155 25.6332 7.16811 25.3193 7.19186 25.0319C7.2188 24.7068 7.37133 24.4517 7.59757 24.2575C7.76408 24.1146 7.96801 24.0151 8.17845 23.953C8.5742 23.836 9.06744 23.8574 9.35037 23.9727C9.35433 23.974 9.36001 23.9759 9.36911 23.9791C9.78579 24.1245 11.5036 24.7242 13.2115 27.0996C13.3309 27.2652 13.486 27.4306 13.6403 27.5953C13.7437 27.7056 13.847 27.8158 13.9823 27.9765C14.0247 28.027 14.0809 28.076 14.1432 28.1239H14.1461C14.219 28.1799 14.32 28.2471 14.4191 28.3131L14.4249 28.316L14.4491 28.3323C14.5329 28.3888 14.592 28.4494 14.6094 28.4508L14.6093 28.4516C16.3981 28.5708 17.6291 28.8787 18.4342 29.1731C19.3035 29.491 19.7242 29.8104 19.8187 29.8839L19.8176 29.8853C19.8866 29.9385 19.7864 29.8604 19.8538 29.9113C20.3262 30.2683 22.9147 32.2244 23.6466 35.486L23.6525 35.5065C23.6941 35.7197 23.7524 36.139 23.7621 36.5587C23.7686 36.8444 23.7513 37.1336 23.6907 37.3759C23.6835 37.4272 23.6727 37.5025 23.6557 37.6278C23.6192 37.8954 23.5827 38.1637 23.5738 38.4068H23.5738L23.5696 40.4584L23.5681 41.2063L22.8225 41.2055L16.7972 41.1987L16.0472 41.1979V40.4517V38.1875C16.0472 37.5555 15.3499 36.9751 15.1445 36.8074C14.5441 36.4605 9.45593 33.5073 8.70176 32.6111H8.69885C8.30083 32.1371 7.4671 30.4981 6.73129 28.8769C5.97933 27.2202 5.31003 25.5221 5.28321 25.0242L5.28027 24.9862V23.7892L5.28321 23.7657C5.3327 22.2542 5.51383 20.4265 5.53202 20.2454L5.53055 20.2453C5.55485 19.9478 5.59375 19.5535 5.65321 19.1766C5.72604 18.7147 5.84809 18.2958 6.0513 18.0796L6.05114 18.0794C6.23254 17.8874 6.42695 17.7736 6.65754 17.7246C6.87844 17.6776 7.08689 17.6994 7.31037 17.7762L7.31624 17.7792C7.93969 17.9993 8.2951 18.4666 8.51352 19.1191C8.68332 19.6266 8.75961 20.2322 8.83443 20.9227C8.84227 20.9952 8.86909 21.2574 8.9009 21.5688C8.9755 22.2988 9.08205 23.3406 9.08332 23.3451L7.64778 23.7611C7.60651 23.6182 7.49249 22.5027 7.4126 21.7212C7.38663 21.4671 7.36484 21.254 7.34613 21.0809C7.28169 20.4861 7.21843 19.9707 7.10076 19.6097C7.06917 19.8555 7.04357 20.1318 7.02471 20.3625L7.02178 20.3772C7.02125 20.3827 6.82936 22.2668 6.77818 23.7892H6.78031V24.9774C6.82908 25.3396 7.42494 26.7821 8.09651 28.2617C8.78602 29.7808 9.53667 31.2802 9.84727 31.6501L9.8456 31.6515C10.4794 32.4007 15.9316 35.5373 15.9473 35.5463L16.0498 35.6166L16.0769 35.6387L16.0771 35.6384C16.3835 35.8884 17.5472 36.8381 17.5472 38.1875V39.7054L22.077 39.7105L22.0797 38.3804V38.3541C22.0915 38.0288 22.1325 37.7283 22.1733 37.4286C22.1761 37.4075 22.1786 37.3894 22.2093 37.1422L22.2357 37.0191C22.2646 36.9224 22.2719 36.7619 22.2679 36.588C22.261 36.2859 22.2149 35.963 22.1818 35.7936L22.1828 35.7934C21.5649 33.0818 19.3556 31.412 18.9515 31.1066C18.9195 31.0825 18.9967 31.1406 18.9018 31.0674H18.8988C18.8379 31.0201 18.5651 30.8136 17.9245 30.5794C17.2215 30.3223 16.1297 30.0524 14.5039 29.9449H14.4922C14.115 29.9144 13.849 29.7349 13.6112 29.5745L13.5871 29.5582L13.5875 29.5575C13.4755 29.483 13.3611 29.4067 13.2321 29.3075L13.2332 29.3061C13.0922 29.1975 12.9578 29.0778 12.8397 28.9375C12.7712 28.856 12.661 28.7385 12.5505 28.6207C12.3675 28.4254 12.1836 28.2294 11.9986 27.9726C10.6909 26.1538 9.4434 25.6002 8.98557 25.4301C9.47447 25.9502 10.1125 26.7159 10.7247 27.4507C11.3904 28.2496 12.022 29.0077 12.2792 29.2911L11.1717 30.2989H11.1717ZM8.67388 25.1135L8.69163 25.1305C8.6942 25.116 8.69724 25.1012 8.70004 25.0947L8.67388 25.1135Z" fill="#222222"/>
<path d="M18.4754 10.3199C19.7333 10.3199 20.8722 10.8298 21.6966 11.6543C22.521 12.4786 23.0309 13.6175 23.0309 14.8754C23.0309 16.1333 22.521 17.2722 21.6966 18.0966C20.8722 18.921 19.7333 19.4309 18.4754 19.4309C17.2175 19.4309 16.0786 18.921 15.2542 18.0966C14.4298 17.2722 13.9199 16.1333 13.9199 14.8754C13.9199 13.6175 14.4298 12.4787 15.2542 11.6543C16.0786 10.8299 17.2175 10.3199 18.4754 10.3199ZM20.9435 12.4073C20.3119 11.7757 19.4393 11.3851 18.4754 11.3851C17.5115 11.3851 16.6389 11.7757 16.0073 12.4073C15.3757 13.0389 14.985 13.9115 14.985 14.8754C14.985 15.8393 15.3757 16.7119 16.0073 17.3435C16.6389 17.9751 17.5115 18.3658 18.4754 18.3658C19.4393 18.3658 20.3119 17.9751 20.9435 17.3435C21.5751 16.712 21.9658 15.8393 21.9658 14.8754C21.9658 13.9115 21.5751 13.0389 20.9435 12.4073Z" fill="#222222"/>
<path d="M27.5955 6.20996C28.8534 6.20996 29.9923 6.71986 30.8167 7.54429C31.6411 8.36867 32.151 9.50756 32.151 10.7655C32.151 12.0233 31.6411 13.1622 30.8167 13.9867C29.9923 14.811 28.8534 15.321 27.5955 15.321C26.3377 15.321 25.1988 14.811 24.3743 13.9867C23.55 13.1623 23.04 12.0233 23.04 10.7655C23.04 9.50757 23.55 8.36868 24.3743 7.54429C25.1987 6.71986 26.3377 6.20996 27.5955 6.20996ZM30.0636 8.29736C29.432 7.66576 28.5594 7.27511 27.5955 7.27511C26.6317 7.27511 25.759 7.66576 25.1274 8.29736C24.4959 8.92893 24.1052 9.80155 24.1052 10.7655C24.1052 11.7293 24.4959 12.602 25.1274 13.2336C25.759 13.8651 26.6317 14.2558 27.5955 14.2558C28.5594 14.2558 29.4321 13.8651 30.0636 13.2336C30.6952 12.602 31.0859 11.7293 31.0859 10.7655C31.0859 9.80155 30.6952 8.92895 30.0636 8.29736Z" fill="#222222"/>
<path d="M23.5099 16.17C25.4952 16.17 27.2926 16.9748 28.5936 18.2759C29.8947 19.5769 30.6995 21.3744 30.6995 23.3596C30.6995 25.3449 29.8947 27.1423 28.5936 28.4434C27.2926 29.7445 25.4952 30.5492 23.5099 30.5492C21.5246 30.5492 19.7272 29.7445 18.4261 28.4434C17.1251 27.1423 16.3203 25.3449 16.3203 23.3596C16.3203 22.0678 16.6612 20.8555 17.2577 19.8078C17.6301 19.8995 18.0186 19.9503 18.4183 19.955C17.766 20.9286 17.3855 22.0997 17.3855 23.3596C17.3855 25.0509 18.071 26.5821 19.1792 27.6903C20.2875 28.7986 21.8186 29.4841 23.5099 29.4841C25.2012 29.4841 26.7323 28.7986 27.8406 27.6903C28.9488 26.5821 29.6343 25.0509 29.6343 23.3596C29.6343 21.6684 28.9488 20.1372 27.8406 19.029C26.7323 17.9207 25.2012 17.2352 23.5099 17.2352C23.3284 17.2352 23.1488 17.2431 22.9714 17.2586C23.1534 16.9174 23.2977 16.553 23.3987 16.171C23.4357 16.1704 23.4727 16.17 23.5099 16.17Z" fill="#222222"/>
<path d="M22.1063 22.3843C22.1078 22.6326 22.1429 22.8517 22.2101 23.0401C22.2787 23.2285 22.3678 23.3951 22.4803 23.5397C22.5913 23.6843 22.714 23.8157 22.8483 23.934C22.9812 24.0509 23.1156 24.1633 23.2485 24.2714C23.3829 24.3795 23.5056 24.4905 23.6166 24.6059C23.7291 24.7198 23.8182 24.8469 23.8868 24.9842C23.954 25.1229 23.9891 25.2821 23.9905 25.4603C23.9905 25.6049 23.9701 25.7218 23.9292 25.8094C23.8883 25.8971 23.8313 25.9599 23.7568 25.9993C23.6823 26.0373 23.5932 26.0577 23.491 26.0562C23.3887 26.0577 23.2997 26.0387 23.2252 25.9993C23.1507 25.9599 23.0937 25.8971 23.0528 25.8094C23.0119 25.7218 22.9915 25.6064 22.9915 25.4603V24.9783H22.0801V25.399C22.0801 25.8167 22.1677 26.1556 22.3415 26.4127C22.5168 26.6697 22.7768 26.8348 23.1229 26.9063V27.3533H23.9116V26.9063C24.2549 26.8348 24.5134 26.6697 24.6901 26.4127C24.8654 26.1556 24.9545 25.8167 24.9545 25.399C24.953 25.1507 24.918 24.9316 24.8508 24.7432C24.7822 24.5548 24.6931 24.3883 24.5806 24.2437C24.4696 24.0991 24.3469 23.9676 24.2125 23.8493C24.0796 23.7325 23.9452 23.6185 23.8123 23.5119C23.6779 23.4038 23.5553 23.2928 23.4443 23.1774C23.3318 23.0635 23.2427 22.9364 23.1755 22.7991C23.1069 22.6604 23.0718 22.5012 23.0704 22.323C23.0718 22.1054 23.1127 21.9505 23.196 21.8556C23.2792 21.7621 23.3975 21.7154 23.5524 21.7183C23.7072 21.7154 23.8255 21.7621 23.9087 21.8556C23.992 21.9505 24.0329 22.1054 24.0344 22.323V22.5771H24.9458V22.3843C24.9458 21.9666 24.8581 21.6292 24.6858 21.3751C24.512 21.1209 24.2534 20.9573 23.9116 20.8858V20.4301H23.1229V20.8858C22.7855 20.9617 22.5314 21.1268 22.362 21.3824C22.1911 21.6365 22.1063 21.971 22.1063 22.3843Z" fill="#222222"/>
<path d="M27.5961 12.8464H28.1629V11.6511L28.8789 9.23999H28.3379L27.9053 10.8835L27.4724 9.23999H26.8799L27.5961 11.6511V12.8464Z" fill="#222222"/>
<path d="M29.0631 11.49H26.6396V11.8124H29.0631V11.49Z" fill="#222222"/>
<path d="M29.0631 12.03H26.6396V12.3524H29.0631V12.03Z" fill="#222222"/>
<path d="M19.2673 15.6341C19.1732 15.683 18.9622 15.7508 18.7573 15.7508C18.5326 15.7508 18.3218 15.683 18.1787 15.5221C18.1112 15.4458 18.0619 15.3429 18.0305 15.2083H19.1557V14.8897H17.9678V14.8181C17.9678 14.7688 17.9678 14.7239 17.9717 14.6787H19.1557V14.3609H18.0394C18.0717 14.2444 18.1159 14.1412 18.1837 14.0696C18.3218 13.9039 18.5201 13.8273 18.7298 13.8273C18.9272 13.8273 19.1155 13.8864 19.232 13.9353L19.3575 13.4244C19.1958 13.3528 18.9545 13.29 18.6849 13.29C18.259 13.29 17.9003 13.4597 17.6502 13.752C17.5068 13.9128 17.3941 14.1196 17.34 14.3609H17.04V14.6787H17.2911C17.2911 14.7239 17.2861 14.7688 17.2861 14.8141V14.8897H17.04V15.2083H17.3313C17.3724 15.4458 17.4619 15.6389 17.5824 15.791C17.8335 16.1225 18.2327 16.302 18.6761 16.302C18.9633 16.302 19.2232 16.2166 19.3753 16.1322L19.2673 15.6341Z" fill="#222222"/>
</g>
<defs>
<clipPath id="clip0_753_5565">
<rect width="48" height="48" fill="white"/>
</clipPath>
</defs>
</svg>
