<svg width="48" height="48" viewBox="0 0 48 48" fill="none" xmlns="http://www.w3.org/2000/svg">
<path d="M13 35V29V35ZM23 35V17V35ZM33 35V27V35ZM43 11C43 12.5913 42.3679 14.1174 41.2426 15.2426C40.1174 16.3679 38.5913 17 37 17C35.4087 17 33.8826 16.3679 32.7574 15.2426C31.6321 14.1174 31 12.5913 31 11C31 9.4087 31.6321 7.88258 32.7574 6.75736C33.8826 5.63214 35.4087 5 37 5C38.5913 5 40.1174 5.63214 41.2426 6.75736C42.3679 7.88258 43 9.4087 43 11Z" fill="#1B74E4"/>
<path d="M13 35V29M23 35V17M33 35V27M43 11C43 12.5913 42.3679 14.1174 41.2426 15.2426C40.1174 16.3679 38.5913 17 37 17C35.4087 17 33.8826 16.3679 32.7574 15.2426C31.6321 14.1174 31 12.5913 31 11C31 9.4087 31.6321 7.88258 32.7574 6.75736C33.8826 5.63214 35.4087 5 37 5C38.5913 5 40.1174 5.63214 41.2426 6.75736C42.3679 7.88258 43 9.4087 43 11Z" stroke="#1B74E4" stroke-width="2" stroke-linecap="round" stroke-linejoin="round"/>
<path d="M42.992 22C42.992 22 43 22.68 43 24C43 32.956 43 37.436 40.218 40.218C37.436 43 32.958 43 24 43C15.044 43 10.564 43 7.782 40.218C5 37.436 5 32.958 5 24C5 15.044 5 10.566 7.782 7.782C10.564 5 15.042 5 24 5H26" stroke="black" stroke-width="2" stroke-linecap="round" stroke-linejoin="round"/>
</svg>
