<svg width="393" height="456" viewBox="0 0 393 456" fill="none" xmlns="http://www.w3.org/2000/svg">
<path d="M12.1059 164.882C-38.8393 66.9621 80.2152 -32.4223 197.515 10.1058L216.909 17.1373C252.722 30.1214 293.382 30.1213 329.194 17.1373L348.588 10.1058C465.888 -32.4223 584.943 66.9622 533.998 164.882L525.574 181.072C510.021 210.968 510.021 244.91 525.575 274.806L533.998 290.995C584.943 388.916 465.888 488.3 348.588 445.772L329.194 438.74C293.382 425.756 252.722 425.756 216.909 438.74L197.515 445.772C80.2151 488.3 -38.8392 388.915 12.1059 290.995L20.5291 274.806C36.0829 244.91 36.0829 210.968 20.529 181.072L12.1059 164.882Z" fill="#FFD8E4" fill-opacity="0.3"/>
</svg>
