<svg width="174" height="161" viewBox="0 0 174 161" fill="none" xmlns="http://www.w3.org/2000/svg">
<path d="M17.3227 103.732C18.4567 102.511 19.6432 101.34 20.8788 100.222C20.9673 100.141 21.071 100.079 21.1839 100.038C21.2968 99.998 21.4166 99.9807 21.5363 99.9874C21.6559 99.994 21.7731 100.025 21.8808 100.077C21.9886 100.13 22.0847 100.203 22.1637 100.294C22.2442 100.383 22.3062 100.487 22.346 100.6C22.3858 100.713 22.4026 100.834 22.3956 100.953C22.3885 101.073 22.3577 101.191 22.3049 101.299C22.2521 101.406 22.1783 101.503 22.0879 101.582C20.3146 103.178 18.6483 104.889 17.0997 106.705C17.023 106.797 16.9288 106.872 16.8225 106.927C16.7163 106.982 16.6002 107.015 16.4811 107.025C16.3619 107.034 16.2421 107.02 16.1286 106.982C16.0151 106.944 15.9102 106.885 15.8201 106.806C15.4488 106.46 15.3958 105.914 15.7249 105.524C16.2483 104.919 16.781 104.322 17.3227 103.732ZM11.4262 111.324C11.5713 111.168 11.7669 111.067 11.9787 111.04C12.1905 111.013 12.405 111.062 12.5845 111.178C13.0045 111.436 13.1257 112.014 12.8497 112.418C11.5573 114.428 10.3895 116.515 9.35313 118.668C9.30427 118.781 9.23316 118.882 9.14408 118.967C9.055 119.051 8.94979 119.117 8.83478 119.159C8.71977 119.202 8.59733 119.221 8.47484 119.215C8.35234 119.209 8.23232 119.178 8.122 119.125C8.01167 119.071 7.91331 118.996 7.83285 118.903C7.75239 118.81 7.69148 118.702 7.65379 118.585C7.61609 118.468 7.6024 118.345 7.61352 118.223C7.62465 118.1 7.66036 117.982 7.71852 117.874C8.83785 115.603 10.0286 113.434 11.3277 111.431L11.4424 111.307L11.4262 111.324ZM26.5415 95.7913L26.6735 95.6493C28.6993 94.2524 30.816 92.9928 33.0095 91.8787C33.2236 91.7735 33.4703 91.7564 33.6967 91.8312C33.9232 91.906 34.1113 92.0666 34.2209 92.2787C34.3249 92.4938 34.3411 92.741 34.2659 92.9678C34.1906 93.1946 34.03 93.383 33.8182 93.493C31.6917 94.5702 29.6419 95.7931 27.6835 97.1529C27.2657 97.4261 26.6984 97.3275 26.4267 96.9101C26.3118 96.7379 26.2589 96.5317 26.2766 96.3254C26.2943 96.1191 26.3816 95.925 26.5241 95.775L26.5415 95.7913ZM5.06958 124.383C5.18953 124.252 5.34586 124.161 5.51826 124.121C5.69066 124.081 5.87115 124.093 6.03628 124.157C6.50501 124.328 6.76157 124.832 6.58945 125.302C5.80356 127.555 5.14613 129.851 4.62034 132.178C4.50126 132.663 4.03253 132.989 3.54972 132.87C3.06691 132.752 2.75948 132.266 2.86232 131.8C3.37976 129.433 4.0834 127.042 4.89313 124.715C4.93712 124.598 5.00328 124.491 5.08799 124.399L5.06958 124.383ZM39.469 89.2172C39.5632 89.1085 39.6846 89.027 39.8208 88.9809C41.826 88.2861 43.8669 87.6994 45.9349 87.2235C46.2575 87.1596 46.5974 87.0783 46.92 87.0143C47.0358 86.9888 47.1556 86.9866 47.2723 87.008C47.389 87.0293 47.5003 87.0738 47.5996 87.1387C47.699 87.2036 47.7845 87.2876 47.851 87.386C47.9176 87.4843 47.9639 87.5949 47.9873 87.7114C48.0124 87.8277 48.0141 87.9478 47.9925 88.0647C47.9709 88.1817 47.9263 88.2932 47.8614 88.3928C47.7964 88.4924 47.7124 88.5782 47.6142 88.6451C47.516 88.7119 47.4055 88.7587 47.2891 88.7825C46.9665 88.8465 46.6612 88.9267 46.3387 88.9906C44.336 89.4438 42.3539 90.0151 40.4097 90.6895C40.1815 90.7644 39.9333 90.7485 39.7164 90.6452C39.4996 90.5419 39.3308 90.359 39.2449 90.1344C39.1909 89.9787 39.1801 89.8113 39.2137 89.65C39.2472 89.4886 39.3238 89.3394 39.4354 89.2183L39.469 89.2172ZM97.8874 26.3745C99.0251 25.1494 100.199 23.9569 101.357 22.8164C101.528 22.6477 101.759 22.5533 101.999 22.5537C102.239 22.5541 102.469 22.6493 102.64 22.8186C102.808 22.9906 102.902 23.2221 102.9 23.4628C102.899 23.7036 102.803 23.9341 102.633 24.1044C100.916 25.7814 99.2587 27.5189 97.6644 29.3135C97.5846 29.4 97.4886 29.4698 97.3818 29.519C97.275 29.5682 97.1595 29.5959 97.0421 29.6003C96.9246 29.6047 96.8074 29.5859 96.6972 29.5449C96.5871 29.5038 96.486 29.4414 96.4 29.3612C96.3109 29.2817 96.2385 29.1851 96.1871 29.0773C96.1357 28.9694 96.1063 28.8523 96.1005 28.7329C96.0948 28.6135 96.1128 28.4942 96.1537 28.3819C96.1945 28.2695 96.2573 28.1665 96.3383 28.0787C96.8666 27.5106 97.3927 26.9079 97.9372 26.3225L97.8874 26.3745ZM91.6748 33.7042C91.9876 33.3681 92.5332 33.3117 92.8861 33.6066C92.9818 33.679 93.0621 33.7699 93.1223 33.8738C93.1825 33.9777 93.2214 34.0926 93.2366 34.2118C93.2518 34.331 93.2431 34.452 93.211 34.5677C93.1789 34.6835 93.124 34.7916 93.0496 34.8859C91.5767 36.7919 90.1552 38.7371 88.7866 40.7195C88.6481 40.9189 88.4367 41.0556 88.1982 41.1001C87.9597 41.1445 87.7134 41.0931 87.5125 40.9569C87.3133 40.8178 87.177 40.6056 87.1334 40.3664C87.0898 40.1271 87.1424 39.8804 87.2797 39.6798C88.6643 37.6684 90.102 35.6943 91.5914 33.7595L91.6401 33.7053L91.6748 33.7042ZM106.75 18.0019L106.832 17.913C108.724 16.3609 110.683 14.8916 112.702 13.5093C113.12 13.2361 113.688 13.3348 113.959 13.7522C114.092 13.9525 114.14 14.1973 114.094 14.4334C114.048 14.6695 113.91 14.8778 113.712 15.013C111.726 16.3572 109.806 17.7968 107.959 19.3267C107.868 19.4028 107.763 19.46 107.649 19.495C107.536 19.5301 107.417 19.5422 107.299 19.5307C107.18 19.5192 107.066 19.4843 106.961 19.4281C106.857 19.3718 106.764 19.2954 106.689 19.2031C106.554 19.0331 106.484 18.8201 106.492 18.6029C106.501 18.3857 106.586 18.1786 106.734 18.0192L106.75 18.0019ZM83.4162 45.6869C83.5579 45.5317 83.7491 45.4306 83.957 45.4009C84.165 45.3713 84.3767 45.4148 84.5561 45.5243C84.6578 45.5876 84.746 45.6705 84.8154 45.7683C84.8849 45.866 84.9342 45.9766 84.9606 46.0936C84.987 46.2106 84.9899 46.3317 84.9691 46.4499C84.9484 46.568 84.9044 46.6809 84.8397 46.7818C83.964 48.1847 83.1726 49.4997 82.4419 50.6759C81.9728 51.4439 81.5094 52.2155 81.052 52.9905C80.9267 53.1939 80.7266 53.3397 80.4949 53.3965C80.2632 53.4533 80.0184 53.4165 79.8136 53.2941C79.6107 53.1687 79.4654 52.9683 79.4093 52.7363C79.3531 52.5042 79.3906 52.2594 79.5137 52.0549C79.9824 51.2668 80.4685 50.4938 80.9047 49.7404C81.6344 48.5652 82.4268 47.2502 83.3188 45.8278L83.4335 45.7031L83.4162 45.6869ZM118.768 9.85154C118.768 9.85154 118.899 9.70952 119.001 9.67158C121.152 8.49301 123.358 7.41956 125.613 6.45502C125.836 6.36456 126.086 6.36466 126.31 6.45529C126.533 6.54592 126.713 6.71998 126.81 6.9407C127.014 7.39603 126.776 7.93591 126.321 8.1419C124.12 9.08167 121.964 10.1243 119.86 11.2663C119.651 11.3804 119.406 11.408 119.177 11.3432C118.947 11.2784 118.753 11.1262 118.634 10.9194C118.54 10.7503 118.502 10.5555 118.526 10.3634C118.551 10.1714 118.635 9.99207 118.768 9.85154ZM76.0323 58.2192C76.1663 58.0699 76.3471 57.9708 76.5449 57.9383C76.7427 57.9058 76.9456 57.9418 77.1202 58.0403C77.5565 58.281 77.7459 58.8209 77.5045 59.2589C76.3761 61.3695 75.3547 63.5358 74.4442 65.7495C74.3498 65.9688 74.1738 66.1426 73.9535 66.2341C73.7332 66.3256 73.486 66.3275 73.2643 66.2395C73.0454 66.1452 72.872 65.9689 72.7812 65.7483C72.6904 65.5277 72.6893 65.2803 72.7782 65.0589C73.7189 62.7942 74.7669 60.5758 75.9186 58.4111C75.9684 58.358 76.0161 58.2702 76.0659 58.217L76.0323 58.2192ZM1.95083 138.568C2.04779 138.466 2.1665 138.388 2.29809 138.338C2.42968 138.288 2.57075 138.269 2.71076 138.282C2.83083 138.292 2.94775 138.325 3.05457 138.381C3.16139 138.437 3.25594 138.513 3.33259 138.606C3.40924 138.699 3.46643 138.807 3.50075 138.923C3.53508 139.038 3.54584 139.159 3.5324 139.279C3.30499 141.65 3.2388 144.034 3.3343 146.414C3.34056 146.534 3.32271 146.654 3.28181 146.766C3.2409 146.879 3.17778 146.983 3.09619 147.07C3.0146 147.158 2.9162 147.229 2.80685 147.278C2.6975 147.327 2.57941 147.354 2.45962 147.356C2.34037 147.363 2.22102 147.345 2.10872 147.304C1.99642 147.264 1.89347 147.201 1.80604 147.119C1.71862 147.038 1.64851 146.939 1.59991 146.83C1.55132 146.721 1.52524 146.603 1.52323 146.483C1.43645 144.022 1.51131 141.558 1.74732 139.107C1.76907 138.907 1.85227 138.718 1.98547 138.567L1.95083 138.568ZM53.6684 86.2782C53.7434 86.1948 53.8341 86.1271 53.9354 86.0791C54.0367 86.0311 54.1465 86.0037 54.2584 85.9985C56.7093 85.8029 59.17 85.7609 61.6261 85.8727C62.124 85.9053 62.4975 86.3194 62.4975 86.8159C62.4805 87.0548 62.3733 87.2782 62.1978 87.4409C62.0223 87.6036 61.7916 87.6933 61.5525 87.6919C59.17 87.5912 56.7837 87.6361 54.4067 87.8263C54.1675 87.8431 53.9314 87.7645 53.7497 87.6078C53.5681 87.451 53.4556 87.2288 53.4368 86.9894C53.4257 86.8624 53.4422 86.7346 53.4852 86.6146C53.5282 86.4946 53.5966 86.3854 53.6857 86.2945L53.6684 86.2782ZM132.121 4.20332C132.234 4.08964 132.372 4.00262 132.523 3.94855C134.839 3.24057 137.188 2.64221 139.56 2.15543L139.645 2.13483C139.761 2.1116 139.88 2.11173 139.996 2.13519C140.112 2.15864 140.222 2.20497 140.32 2.27147C140.418 2.33797 140.501 2.4233 140.566 2.5225C140.63 2.6217 140.675 2.73278 140.696 2.84926C140.718 2.96567 140.717 3.08538 140.694 3.20149C140.67 3.31761 140.623 3.42784 140.556 3.52587C140.49 3.62389 140.405 3.70777 140.305 3.77268C140.206 3.83759 140.096 3.88225 139.979 3.9041L139.911 3.90627C137.601 4.37244 135.278 4.95786 133.043 5.65819C132.815 5.73027 132.568 5.70863 132.355 5.59805C132.143 5.48746 131.983 5.29697 131.911 5.06844C131.866 4.9173 131.86 4.75713 131.893 4.60296C131.927 4.4488 131.999 4.30568 132.103 4.18706L132.121 4.20332ZM70.5439 71.6546C70.7745 71.4053 71.1122 71.2904 71.4413 71.3977C71.9068 71.5343 72.1991 72.0373 72.0616 72.5056C71.4067 74.8007 70.9101 77.1381 70.5753 79.5014C70.5597 79.6194 70.521 79.7331 70.4613 79.8361C70.4017 79.939 70.3223 80.0291 70.2277 80.1012C70.1331 80.1732 70.0252 80.2258 69.9102 80.2559C69.7952 80.286 69.6754 80.293 69.5577 80.2765C69.4402 80.2614 69.3268 80.223 69.2243 80.1635C69.1217 80.104 69.032 80.0247 68.9604 79.9301C68.8887 79.8356 68.8366 79.7277 68.807 79.6128C68.7774 79.4979 68.771 79.3782 68.788 79.2607C69.1412 76.8234 69.6521 74.4115 70.3176 72.0405C70.3528 71.9011 70.425 71.7737 70.5266 71.672L70.5439 71.6546ZM2.4856 153.043C2.61912 152.89 2.8046 152.791 3.00629 152.767C3.49992 152.696 3.97299 153.004 4.05851 153.515C4.34572 155.141 4.69236 156.757 5.09773 158.358C5.12961 158.474 5.13818 158.595 5.12294 158.714C5.1077 158.834 5.06896 158.949 5.00896 159.053C4.94895 159.158 4.86888 159.249 4.77337 159.322C4.67787 159.395 4.56882 159.449 4.45254 159.48C4.3371 159.512 4.21641 159.521 4.0975 159.506C3.97859 159.491 3.86385 159.452 3.75996 159.392C3.65608 159.333 3.56513 159.253 3.49242 159.157C3.41971 159.062 3.36669 158.953 3.33646 158.837C2.8914 157.185 2.53081 155.511 2.2561 153.823C2.23035 153.684 2.23772 153.541 2.2776 153.405C2.31748 153.27 2.38875 153.146 2.4856 153.043ZM146.323 1.33259C146.472 1.16904 146.675 1.06411 146.894 1.03662C149.33 0.804015 151.774 0.682471 154.221 0.672363C154.46 0.674075 154.689 0.77033 154.859 0.940223C155.028 1.11012 155.123 1.33993 155.124 1.57977C155.121 1.82038 155.025 2.05047 154.855 2.22042C154.685 2.39037 154.455 2.48655 154.214 2.48825C151.825 2.49619 149.438 2.61557 147.06 2.84601C146.548 2.90021 146.125 2.5392 146.073 2.0275C146.061 1.89933 146.076 1.77009 146.116 1.64778C146.156 1.52546 146.22 1.41266 146.305 1.31633L146.323 1.33259ZM68.473 85.9887C68.56 85.8965 68.6644 85.8226 68.7802 85.7712C68.896 85.7198 69.0208 85.6921 69.1474 85.6895C69.3871 85.691 69.6165 85.7871 69.7858 85.957C69.9551 86.1269 70.0505 86.3569 70.0513 86.5969C70.0535 86.6652 70.0384 86.7173 70.0405 86.7866C72.0897 87.1704 74.1249 87.642 76.094 88.2177C76.579 88.3705 76.8518 88.8573 76.6981 89.343C76.5433 89.8287 76.0572 90.104 75.5722 89.9512C73.7522 89.4283 71.9105 88.9837 70.0524 88.6188C70.112 90.3306 70.2224 92.0565 70.3837 93.7293C70.4081 93.9692 70.3375 94.2092 70.1871 94.3975C70.0367 94.5859 69.8185 94.7076 69.5794 94.7365C69.3405 94.7624 69.1012 94.6927 68.9134 94.5426C68.7256 94.3926 68.6047 94.1742 68.577 93.9353C68.3951 92.0594 68.273 90.1783 68.2111 88.2946L68.2089 88.2263C67.9448 88.0139 67.7975 87.7114 67.8701 87.3482C67.9171 87.1235 68.0365 86.9205 68.21 86.7704C68.2067 86.7021 68.2219 86.65 68.2208 86.5817C68.2177 86.4697 68.2368 86.3581 68.2771 86.2535C68.3175 86.1489 68.3782 86.0534 68.4557 85.9725L68.473 85.9887ZM160.742 1.28055C160.839 1.17866 160.958 1.10008 161.089 1.0507C161.221 1.00132 161.362 0.982426 161.502 0.995429C163.904 1.21225 166.345 1.56459 168.756 2.021C168.874 2.04253 168.987 2.08745 169.087 2.15312C169.188 2.2188 169.274 2.30391 169.341 2.40347C169.409 2.50302 169.455 2.61502 169.479 2.7329C169.502 2.85078 169.502 2.97216 169.478 3.08993C169.455 3.20796 169.41 3.32038 169.344 3.42077C169.278 3.52115 169.193 3.60754 169.093 3.67499C168.994 3.74244 168.882 3.78963 168.765 3.81387C168.647 3.83812 168.526 3.83894 168.408 3.81629C166.064 3.37673 163.7 3.04357 161.325 2.81782C160.829 2.7853 160.47 2.31913 160.504 1.82044C160.526 1.62013 160.609 1.4315 160.742 1.28055ZM69.9463 100.377C70.0688 100.24 70.2347 100.149 70.4162 100.119C70.6494 100.07 70.8927 100.113 71.0948 100.239C71.297 100.366 71.4421 100.566 71.4998 100.798C72.0454 103.193 72.7057 105.497 73.5165 107.643C73.5592 107.754 73.5795 107.872 73.5762 107.991C73.5729 108.111 73.546 108.228 73.4972 108.336C73.4484 108.445 73.3785 108.543 73.2917 108.624C73.2049 108.705 73.1029 108.769 72.9915 108.81C72.881 108.854 72.7631 108.874 72.6446 108.871C72.5261 108.869 72.4093 108.842 72.301 108.794C72.1927 108.745 72.0952 108.676 72.0139 108.589C71.9327 108.503 71.8694 108.401 71.8278 108.29C70.9752 105.978 70.2762 103.612 69.7353 101.208C69.6562 100.902 69.7656 100.607 69.9637 100.393L69.9463 100.377ZM81.9353 90.9084C82.0632 90.7733 82.2295 90.6806 82.4116 90.643C82.5938 90.6054 82.7831 90.6246 82.954 90.6981C83.8048 91.0602 84.6568 91.4559 85.4752 91.8527C86.85 92.5379 88.1923 93.2577 89.5022 94.0133C89.7086 94.1393 89.8575 94.3415 89.9166 94.5763C89.9757 94.8111 89.9404 95.0598 89.8182 95.2687C89.6925 95.4759 89.4909 95.6255 89.2564 95.6857C89.022 95.7459 88.7733 95.7118 88.5636 95.5907C87.2848 94.8451 85.9826 94.1404 84.6589 93.4778C83.8535 93.0786 83.0362 92.7041 82.2081 92.3546C82.0975 92.3082 81.9973 92.2401 81.9135 92.1542C81.8296 92.0683 81.7639 91.9664 81.72 91.8546C81.6762 91.7428 81.6553 91.6233 81.6584 91.5033C81.6615 91.3832 81.6887 91.265 81.7383 91.1556C81.7865 91.0603 81.8469 90.9718 81.918 90.8922L81.9353 90.9084ZM174.982 3.94313C175.212 3.69379 175.55 3.57887 175.879 3.68619C178.234 4.33962 180.56 5.09157 182.851 5.94007C183.076 6.02304 183.259 6.19191 183.359 6.4096C183.46 6.62729 183.47 6.87601 183.387 7.10115C183.304 7.32676 183.136 7.51036 182.918 7.6119C182.7 7.71345 182.452 7.7247 182.226 7.6432C179.986 6.80988 177.712 6.07309 175.409 5.43487C175.18 5.36407 174.986 5.20831 174.868 4.99938C174.749 4.79046 174.715 4.54411 174.771 4.31064C174.807 4.17133 174.88 4.04429 174.982 3.94313ZM75.0494 113.907C75.0494 113.907 75.1652 113.782 75.2659 113.744C75.3691 113.683 75.4833 113.644 75.6019 113.627C75.7205 113.611 75.8412 113.618 75.957 113.649C76.0727 113.68 76.1813 113.733 76.2763 113.806C76.3714 113.879 76.4511 113.97 76.5108 114.074C77.7459 116.186 79.1305 118.103 80.6579 119.759C80.7379 119.846 80.7998 119.948 80.8402 120.059C80.8805 120.17 80.8985 120.288 80.8931 120.406C80.8877 120.524 80.8589 120.64 80.8085 120.747C80.7581 120.854 80.6871 120.95 80.5995 121.029C80.5129 121.11 80.4113 121.172 80.3005 121.213C80.1897 121.253 80.072 121.272 79.9541 121.266C79.8363 121.261 79.7206 121.233 79.6138 121.183C79.507 121.132 79.4111 121.062 79.3318 120.974C77.6599 119.137 76.1907 117.125 74.9498 114.972C74.8531 114.803 74.8124 114.606 74.8334 114.412C74.8544 114.218 74.936 114.035 75.0667 113.889L75.0494 113.907ZM94.3529 98.2663C94.6658 97.9281 95.2114 97.8739 95.5643 98.1687C96.6013 98.9688 97.5702 99.8058 98.472 100.645C99.3495 101.454 100.184 102.309 100.973 103.206C101.053 103.295 101.115 103.399 101.155 103.512C101.195 103.625 101.212 103.745 101.205 103.865C101.198 103.985 101.167 104.102 101.115 104.21C101.062 104.318 100.988 104.414 100.898 104.493C100.809 104.575 100.706 104.637 100.593 104.677C100.48 104.718 100.36 104.735 100.24 104.729C100.12 104.722 100.003 104.692 99.8952 104.639C99.7873 104.587 99.691 104.513 99.6119 104.423C98.85 103.579 98.0514 102.768 97.2184 101.995C96.3228 101.158 95.3879 100.365 94.4168 99.6171C94.2272 99.4682 94.1037 99.2506 94.0729 99.0112C94.0422 98.7719 94.1066 98.53 94.2523 98.3379L94.3021 98.2847L94.3529 98.2663ZM188.567 8.97775C188.697 8.8349 188.87 8.73739 189.059 8.69938C189.249 8.66136 189.445 8.68482 189.62 8.76634C191.831 9.80408 194.004 10.9214 196.134 12.1163C196.57 12.3569 196.709 12.9174 196.467 13.3543C196.226 13.7923 195.666 13.9332 195.231 13.6926C193.154 12.5058 191.027 11.4091 188.856 10.4055C188.404 10.1833 188.197 9.65966 188.421 9.20541C188.47 9.11868 188.517 9.03087 188.583 8.95932L188.567 8.97775ZM84.8397 124.449C84.9848 124.292 85.1803 124.191 85.3921 124.164C85.6039 124.137 85.8184 124.186 85.998 124.301C88.0278 125.596 90.2166 126.575 92.3221 127.111C92.5552 127.171 92.755 127.321 92.8777 127.529C93.0005 127.736 93.0362 127.983 92.9771 128.217C92.9158 128.45 92.7655 128.65 92.5586 128.773C92.3516 128.897 92.1046 128.934 91.8707 128.876C89.5758 128.295 87.1942 127.237 85.0075 125.83C84.5886 125.572 84.4662 124.994 84.725 124.573C84.7574 124.538 84.7888 124.502 84.8397 124.449ZM103.813 109.163C103.813 109.163 103.961 109.003 104.063 108.965C104.277 108.86 104.524 108.843 104.75 108.918C104.976 108.992 105.165 109.153 105.275 109.364C106.004 110.779 106.577 112.268 106.985 113.806C107.222 114.722 107.374 115.659 107.424 116.633C107.459 117.129 107.063 117.555 106.551 117.574C106.056 117.61 105.632 117.216 105.613 116.702C105.569 115.873 105.438 115.051 105.22 114.249C104.847 112.833 104.318 111.462 103.642 110.163C103.476 109.81 103.531 109.397 103.777 109.13L103.813 109.163ZM98.6105 127.403C98.7101 127.297 98.8606 127.205 99.0121 127.148C99.8941 126.87 100.733 126.469 101.503 125.957C102.546 125.224 103.422 124.28 104.076 123.186C104.201 122.982 104.401 122.837 104.633 122.78C104.865 122.723 105.11 122.759 105.315 122.881C105.517 123.007 105.662 123.208 105.718 123.44C105.774 123.672 105.737 123.917 105.613 124.121C104.821 125.437 103.765 126.573 102.513 127.46C101.594 128.092 100.584 128.581 99.5187 128.911C99.4056 128.948 99.2861 128.961 99.1677 128.95C99.0493 128.939 98.9344 128.904 98.8299 128.847C98.7255 128.79 98.6337 128.712 98.5603 128.618C98.4868 128.524 98.4332 128.417 98.4027 128.302C98.3569 128.151 98.3505 127.99 98.384 127.836C98.4176 127.682 98.4899 127.539 98.5943 127.42L98.6105 127.403Z" fill="white" stroke="white" stroke-miterlimit="10"/>
</svg>
