<svg width="24" height="25" viewBox="0 0 24 25" fill="none" xmlns="http://www.w3.org/2000/svg">
<g clip-path="url(#clip0_3674_11668)">
<path d="M12 16.5C11.2089 16.5 10.4355 16.2654 9.77772 15.8259C9.11992 15.3864 8.60723 14.7616 8.30448 14.0307C8.00173 13.2998 7.92252 12.4956 8.07686 11.7196C8.2312 10.9437 8.61216 10.231 9.17157 9.67158C9.73098 9.11217 10.4437 8.7312 11.2196 8.57686C11.9956 8.42252 12.7998 8.50173 13.5307 8.80448C14.2616 9.10723 14.8864 9.61993 15.3259 10.2777C15.7654 10.9355 16 11.7089 16 12.5C16 13.5609 15.5786 14.5783 14.8284 15.3284C14.0783 16.0786 13.0609 16.5 12 16.5ZM12 10.5C11.6044 10.5 11.2178 10.6173 10.8889 10.8371C10.56 11.0568 10.3036 11.3692 10.1522 11.7346C10.0009 12.1001 9.96126 12.5022 10.0384 12.8902C10.1156 13.2781 10.3061 13.6345 10.5858 13.9142C10.8655 14.1939 11.2219 14.3844 11.6098 14.4616C11.9978 14.5387 12.3999 14.4991 12.7654 14.3478C13.1308 14.1964 13.4432 13.94 13.6629 13.6111C13.8827 13.2822 14 12.8956 14 12.5C14 11.9696 13.7893 11.4609 13.4142 11.0858C13.0391 10.7107 12.5304 10.5 12 10.5ZM18 23.5C18 21.9087 17.3679 20.3826 16.2426 19.2574C15.1174 18.1321 13.5913 17.5 12 17.5C10.4087 17.5 8.88258 18.1321 7.75736 19.2574C6.63214 20.3826 6 21.9087 6 23.5C6 23.7652 6.10536 24.0196 6.29289 24.2071C6.48043 24.3946 6.73478 24.5 7 24.5C7.26522 24.5 7.51957 24.3946 7.70711 24.2071C7.89464 24.0196 8 23.7652 8 23.5C8 22.4391 8.42143 21.4217 9.17157 20.6716C9.92172 19.9214 10.9391 19.5 12 19.5C13.0609 19.5 14.0783 19.9214 14.8284 20.6716C15.5786 21.4217 16 22.4391 16 23.5C16 23.7652 16.1054 24.0196 16.2929 24.2071C16.4804 24.3946 16.7348 24.5 17 24.5C17.2652 24.5 17.5196 24.3946 17.7071 24.2071C17.8946 24.0196 18 23.7652 18 23.5ZM18 8.5C17.2089 8.5 16.4355 8.26541 15.7777 7.82588C15.1199 7.38636 14.6072 6.76164 14.3045 6.03074C14.0017 5.29983 13.9225 4.49557 14.0769 3.71964C14.2312 2.94372 14.6122 2.23098 15.1716 1.67157C15.731 1.11216 16.4437 0.731202 17.2196 0.576861C17.9956 0.42252 18.7998 0.501733 19.5307 0.804484C20.2616 1.10723 20.8864 1.61992 21.3259 2.27772C21.7654 2.93552 22 3.70888 22 4.5C22 5.56087 21.5786 6.57828 20.8284 7.32843C20.0783 8.07858 19.0609 8.5 18 8.5ZM18 2.5C17.6044 2.5 17.2178 2.6173 16.8889 2.83706C16.56 3.05683 16.3036 3.36918 16.1522 3.73464C16.0009 4.10009 15.9613 4.50222 16.0384 4.89018C16.1156 5.27815 16.3061 5.63451 16.5858 5.91422C16.8655 6.19392 17.2219 6.3844 17.6098 6.46157C17.9978 6.53874 18.3999 6.49914 18.7654 6.34776C19.1308 6.19639 19.4432 5.94004 19.6629 5.61114C19.8827 5.28224 20 4.89557 20 4.5C20 3.96957 19.7893 3.46086 19.4142 3.08579C19.0391 2.71072 18.5304 2.5 18 2.5ZM24 15.5C23.9984 13.9092 23.3658 12.384 22.2409 11.2591C21.116 10.1342 19.5908 9.50159 18 9.5C17.7348 9.5 17.4804 9.60536 17.2929 9.7929C17.1054 9.98043 17 10.2348 17 10.5C17 10.7652 17.1054 11.0196 17.2929 11.2071C17.4804 11.3946 17.7348 11.5 18 11.5C19.0609 11.5 20.0783 11.9214 20.8284 12.6716C21.5786 13.4217 22 14.4391 22 15.5C22 15.7652 22.1054 16.0196 22.2929 16.2071C22.4804 16.3946 22.7348 16.5 23 16.5C23.2652 16.5 23.5196 16.3946 23.7071 16.2071C23.8946 16.0196 24 15.7652 24 15.5ZM6 8.5C5.20887 8.5 4.43552 8.26541 3.77772 7.82588C3.11992 7.38636 2.60723 6.76164 2.30448 6.03074C2.00173 5.29983 1.92252 4.49557 2.07686 3.71964C2.2312 2.94372 2.61216 2.23098 3.17157 1.67157C3.73098 1.11216 4.44371 0.731202 5.21964 0.576861C5.99556 0.42252 6.79983 0.501733 7.53073 0.804484C8.26164 1.10723 8.88635 1.61992 9.32588 2.27772C9.7654 2.93552 10 3.70888 10 4.5C10 5.56087 9.57857 6.57828 8.82843 7.32843C8.07828 8.07858 7.06087 8.5 6 8.5ZM6 2.5C5.60444 2.5 5.21776 2.6173 4.88886 2.83706C4.55996 3.05683 4.30362 3.36918 4.15224 3.73464C4.00087 4.10009 3.96126 4.50222 4.03843 4.89018C4.1156 5.27815 4.30608 5.63451 4.58579 5.91422C4.86549 6.19392 5.22186 6.3844 5.60982 6.46157C5.99778 6.53874 6.39991 6.49914 6.76537 6.34776C7.13082 6.19639 7.44318 5.94004 7.66294 5.61114C7.8827 5.28224 8 4.89557 8 4.5C8 3.96957 7.78929 3.46086 7.41421 3.08579C7.03914 2.71072 6.53043 2.5 6 2.5ZM2 15.5C2 14.4391 2.42143 13.4217 3.17157 12.6716C3.92172 11.9214 4.93913 11.5 6 11.5C6.26522 11.5 6.51957 11.3946 6.70711 11.2071C6.89464 11.0196 7 10.7652 7 10.5C7 10.2348 6.89464 9.98043 6.70711 9.7929C6.51957 9.60536 6.26522 9.5 6 9.5C4.40919 9.50159 2.88399 10.1342 1.75911 11.2591C0.63424 12.384 0.00158843 13.9092 0 15.5C0 15.7652 0.105357 16.0196 0.292893 16.2071C0.48043 16.3946 0.734784 16.5 1 16.5C1.26522 16.5 1.51957 16.3946 1.70711 16.2071C1.89464 16.0196 2 15.7652 2 15.5Z" fill="#191A4E"/>
</g>
<defs>
<clipPath id="clip0_3674_11668">
<rect width="24" height="24" fill="white" transform="translate(0 0.5)"/>
</clipPath>
</defs>
</svg>
