<svg width="24" height="25" viewBox="0 0 24 25" fill="none" xmlns="http://www.w3.org/2000/svg">
<path d="M15.067 16.498C21.656 16.474 24 12.988 24 10C23.9986 9.20097 23.7242 8.42641 23.2222 7.80475C22.7202 7.18309 22.0208 6.75166 21.24 6.58201C21.551 5.7 21.786 4.851 21.942 4.093C22.0307 3.6607 22.0217 3.21402 21.9157 2.78564C21.8096 2.35725 21.6092 1.95798 21.329 1.617C21.0449 1.26739 20.6863 0.985655 20.2794 0.792399C19.8724 0.599143 19.4275 0.499245 18.977 0.500004H5.023C4.107 0.500004 3.25 0.907004 2.671 1.617C2.3907 1.95791 2.19017 2.35718 2.08411 2.78559C1.97805 3.214 1.96912 3.6607 2.058 4.093C2.214 4.852 2.449 5.7 2.76 6.58201C1.97918 6.75166 1.27981 7.18309 0.777819 7.80475C0.275832 8.42641 0.00139192 9.20097 0 10C0 12.988 2.344 16.473 8.933 16.498C8.963 16.709 9 16.919 9 17.137V20.5C9 22.326 7.464 22.492 7 22.5H5V24.5H19V22.5H17.008C16.536 22.492 15 22.326 15 20.5V17.137C15 16.919 15.037 16.709 15.067 16.498ZM20.5 8.50001C21.327 8.50001 22 9.17301 22 10C22 12.048 20.369 14.225 15.876 14.475C16.056 14.242 16.258 14.03 16.485 13.849C18.203 12.476 19.509 10.498 20.444 8.50001H20.5ZM2 10C2 9.17301 2.673 8.50001 3.5 8.50001H3.557C4.492 10.498 5.797 12.476 7.515 13.849C7.742 14.03 7.945 14.242 8.124 14.475C3.631 14.225 2 12.048 2 10ZM13 17.137V20.5C13 21.306 13.191 21.959 13.487 22.5H10.514C10.809 21.959 11.001 21.306 11.001 20.5V17.137C11.001 15.191 10.187 13.423 8.765 12.286C6.302 10.317 4.606 6.55101 4.019 3.69C3.99016 3.5484 3.99343 3.40214 4.02856 3.26196C4.06369 3.12179 4.12979 2.99127 4.222 2.88C4.42 2.638 4.712 2.499 5.025 2.499H18.978C19.29 2.499 19.582 2.638 19.78 2.88C19.89 3.016 20.064 3.301 19.984 3.69C19.397 6.54901 17.702 10.316 15.238 12.286C13.817 13.422 13.002 15.189 13.002 17.137H13ZM12.524 4.5L13.176 6.50501H15.285L15.585 7.42301L13.879 8.66301L14.531 10.669L13.75 11.236L12.045 10L10.335 11.237L9.554 10.67L10.206 8.66401L8.5 7.42401L8.8 6.50601H10.907L11.559 4.506L12.524 4.5Z" fill="#191A4E"/>
</svg>
