<svg width="21" height="20" viewBox="0 0 21 20" fill="none" xmlns="http://www.w3.org/2000/svg">
<g clip-path="url(#clip0_638_15514)">
<path d="M20.5 0H0.5V20H20.5V0Z" fill="white" fill-opacity="0.01"/>
<path d="M18.7924 15H2.20801C2.62611 10.7889 6.17906 7.5 10.5002 7.5C14.8213 7.5 18.3743 10.7889 18.7924 15Z" stroke="#191A4E" stroke-width="2" stroke-linejoin="round"/>
<path d="M6.33317 8.33464L4.6665 5.41797" stroke="#191A4E" stroke-width="2" stroke-linecap="round" stroke-linejoin="round"/>
<path d="M14.25 8.33464L15.9167 5.41797" stroke="#191A4E" stroke-width="2" stroke-linecap="round" stroke-linejoin="round"/>
<path d="M7.25 13.5C7.94036 13.5 8.5 12.9404 8.5 12.25C8.5 11.5596 7.94036 11 7.25 11C6.55964 11 6 11.5596 6 12.25C6 12.9404 6.55964 13.5 7.25 13.5Z" fill="#191A4E"/>
<path d="M13.75 13.5C14.4404 13.5 15 12.9404 15 12.25C15 11.5596 14.4404 11 13.75 11C13.0596 11 12.5 11.5596 12.5 12.25C12.5 12.9404 13.0596 13.5 13.75 13.5Z" fill="#191A4E"/>
</g>
<defs>
<clipPath id="clip0_638_15514">
<rect width="20" height="20" fill="white" transform="translate(0.5)"/>
</clipPath>
</defs>
</svg>
