<svg width="90" height="90" viewBox="0 0 90 90" fill="none" xmlns="http://www.w3.org/2000/svg">
<path d="M0.0449219 47.4864C0.0449219 46.47 0.215078 45.5217 0.555391 44.6414C0.895703 43.7612 1.37207 42.9943 1.98467 42.3409C2.59727 41.6875 3.3301 41.1748 4.18316 40.8028C5.03623 40.4307 5.97086 40.2445 6.98723 40.2445C7.75873 40.2445 8.45975 40.3581 9.09045 40.5848C9.72115 40.8118 10.3315 41.1839 10.9212 41.7011V40.5168H14.3788V54.4561H10.9212V53.2717C10.3315 53.789 9.72115 54.1611 9.09045 54.3879C8.45975 54.6148 7.75873 54.7282 6.98723 54.7282C5.97086 54.7282 5.03606 54.5422 4.18316 54.1701C3.3301 53.7981 2.59727 53.2854 1.98467 52.632C1.37207 51.9785 0.895703 51.2117 0.555391 50.3314C0.215078 49.4513 0.0449219 48.5029 0.0449219 47.4864ZM7.43652 51.4748C7.70881 51.4748 7.99463 51.4455 8.29416 51.3864C8.59352 51.3274 8.89533 51.2275 9.19943 51.0869C9.50336 50.9463 9.80061 50.758 10.091 50.5219C10.3814 50.286 10.6581 49.9956 10.9212 49.6508V45.322C10.6581 44.9773 10.3814 44.6892 10.091 44.4577C9.80043 44.2263 9.50336 44.0379 9.19926 43.8927C8.89516 43.7475 8.59352 43.6454 8.29398 43.5865C7.99463 43.5274 7.70863 43.4981 7.43652 43.4979C6.90109 43.4979 6.39959 43.5977 5.93236 43.7974C5.46479 43.9971 5.05873 44.2763 4.71402 44.6347C4.36914 44.9931 4.09914 45.4151 3.90402 45.9007C3.70891 46.3862 3.61135 46.9147 3.61135 47.4864C3.61135 48.0582 3.70891 48.5868 3.90402 49.0723C4.09914 49.5578 4.36914 49.9798 4.71402 50.3382C5.05891 50.6968 5.46496 50.9758 5.93219 51.1755C6.39977 51.375 6.90109 51.4748 7.43652 51.4748ZM23.022 43.6856C21.3837 43.6976 19.9604 44.8393 19.9604 46.5336V54.4561H16.5028V46.6289C16.5221 43.365 19.3487 40.2885 22.9724 40.2445H23.0691C26.6928 40.2885 29.5194 43.365 29.5387 46.6289V54.4561H26.0811V46.5336C26.0811 44.8393 24.658 43.6976 23.0195 43.6856M31.1754 47.4864C31.1754 46.47 31.3456 45.5217 31.6859 44.6414C32.0262 43.7612 32.5028 42.9943 33.1152 42.3409C33.7278 41.6875 34.4606 41.1748 35.3137 40.8028C36.1667 40.4307 37.1014 40.2445 38.1179 40.2445C38.8892 40.2445 39.5925 40.3581 40.2278 40.5848C40.8631 40.8118 41.4711 41.1793 42.0519 41.6875V36.3378H45.5095V54.4561H42.0519V53.2854C41.4711 53.8025 40.8631 54.1724 40.2278 54.3948C39.5925 54.6171 38.8892 54.7282 38.1179 54.7282C37.1014 54.7282 36.1667 54.5422 35.3137 54.1701C34.4606 53.7981 33.7278 53.2854 33.1152 52.632C32.5028 51.9786 32.0262 51.2117 31.6861 50.3314C31.3456 49.4513 31.1754 48.5029 31.1754 47.4864ZM38.567 51.4748C38.8393 51.4748 39.1251 51.4455 39.4247 51.3864C39.724 51.3274 40.0258 51.2275 40.3299 51.0869C40.6339 50.9463 40.9311 50.758 41.2215 50.5219C41.5119 50.286 41.7886 49.9956 42.0519 49.6508V45.322C41.7886 44.9773 41.5119 44.6892 41.2215 44.4577C40.9311 44.2263 40.6339 44.0379 40.3299 43.8927C40.0258 43.7475 39.724 43.6454 39.4247 43.5865C39.1251 43.5274 38.8393 43.4981 38.567 43.4979C38.0316 43.4979 37.5303 43.5977 37.0629 43.7974C36.5955 43.9971 36.1892 44.2763 35.8447 44.6347C35.4997 44.9931 35.2297 45.4151 35.0345 45.9007C34.8394 46.3862 34.7419 46.9147 34.742 47.4864C34.742 48.0582 34.8394 48.5868 35.0345 49.0723C35.2297 49.5578 35.4997 49.9798 35.8445 50.3382C36.1894 50.6968 36.5955 50.9758 37.0629 51.1755C37.5303 51.375 38.0316 51.4748 38.567 51.4748ZM61.7011 51.4748C62.2184 51.4748 62.7062 51.3773 63.1645 51.1822C63.6156 50.992 64.0232 50.7118 64.3624 50.3586C64.7027 50.0048 64.9704 49.585 65.1656 49.0995C65.3607 48.614 65.4582 48.0765 65.4582 47.4864C65.4582 46.9056 65.3584 46.3724 65.1587 45.8869C64.959 45.4014 64.6867 44.9817 64.342 44.6278C64.0003 44.276 63.5934 43.994 63.1441 43.7974C62.6904 43.5977 62.2093 43.4981 61.7011 43.4979C61.1839 43.4979 60.6961 43.5977 60.2377 43.7974C59.7872 43.9918 59.38 44.2741 59.0399 44.6278C58.6996 44.9817 58.4296 45.4014 58.2299 45.8869C58.0302 46.3724 57.9304 46.9056 57.9304 47.4865C57.9304 48.0763 58.028 48.614 58.2231 49.0995C58.4182 49.585 58.6859 50.0048 59.0264 50.3586C59.3655 50.7117 59.7731 50.992 60.2242 51.1822C60.6824 51.3773 61.1748 51.4748 61.7011 51.4748ZM61.7011 54.7282C60.6938 54.7282 59.7455 54.5468 58.8561 54.1838C57.9666 53.8208 57.1886 53.3149 56.5217 52.6659C55.8546 52.0171 55.3281 51.2502 54.9425 50.3655C54.5568 49.4806 54.3641 48.521 54.3641 47.4864C54.3641 46.4791 54.5568 45.5352 54.9425 44.6551C55.3283 43.7748 55.8523 43.008 56.5148 42.3546C57.1772 41.7011 57.9554 41.1862 58.8492 40.8095C59.7432 40.433 60.6938 40.2445 61.7011 40.2445C62.7083 40.2445 63.6568 40.433 64.5461 40.8095C65.4356 41.1862 66.2114 41.7011 66.8738 42.3546C67.5365 43.008 68.0603 43.7749 68.4462 44.6551C68.8318 45.5354 69.0245 46.4791 69.0245 47.4864C69.0245 48.521 68.8318 49.4806 68.4462 50.3655C68.0605 51.2502 67.534 52.0171 66.8671 52.6659C66.2 53.3149 65.4241 53.8208 64.5392 54.1838C63.6545 54.5468 62.7085 54.7282 61.7011 54.7282ZM72.3026 39.4254C72.0224 39.4254 71.7577 39.3707 71.5081 39.2612C71.2632 39.1549 71.0406 39.0034 70.8517 38.8147C70.663 38.6258 70.5116 38.4031 70.4052 38.1582C70.2956 37.9077 70.2396 37.6371 70.2411 37.3637C70.2411 37.0836 70.2957 36.8166 70.4052 36.5628C70.5104 36.3153 70.6619 36.0903 70.8517 35.8998C71.0406 35.7111 71.2634 35.5596 71.5083 35.4533C71.7587 35.3436 72.0294 35.2877 72.3028 35.2891C72.5828 35.2891 72.8498 35.3438 73.1037 35.4533C73.3511 35.5584 73.5762 35.71 73.7667 35.8998C73.9565 36.0903 74.108 36.3153 74.2132 36.5628C74.3227 36.8166 74.3774 37.0836 74.3774 37.3638C74.3774 37.6439 74.3227 37.9088 74.2132 38.1584C74.1068 38.4032 73.9554 38.6259 73.7667 38.8147C73.5762 39.0045 73.3511 39.1561 73.1037 39.2612C72.8508 39.3705 72.5781 39.4264 72.3026 39.4254ZM70.5736 40.5168H74.0313V54.4561H70.5736V40.5168ZM75.621 47.4864C75.621 46.47 75.7912 45.5217 76.1315 44.6414C76.4718 43.7612 76.9482 42.9943 77.5608 42.3409C78.1734 41.6875 78.9062 41.1748 79.7593 40.8028C80.6122 40.4307 81.547 40.2445 82.5633 40.2445C83.3347 40.2445 84.0381 40.3581 84.6732 40.5848C85.3085 40.8118 85.9165 41.1793 86.4973 41.6875V36.3378H89.9549V54.4561H86.4973V53.2854C85.9165 53.8025 85.3085 54.1724 84.6732 54.3948C84.038 54.6171 83.3347 54.7282 82.5633 54.7282C81.547 54.7282 80.6122 54.5422 79.7593 54.1701C78.9062 53.7981 78.1734 53.2854 77.5608 52.632C76.9482 51.9786 76.4718 51.2117 76.1315 50.3314C75.7912 49.4513 75.621 48.5029 75.621 47.4864ZM83.0126 51.4748C83.2847 51.4748 83.5707 51.4455 83.8701 51.3864C84.1696 51.3274 84.4713 51.2275 84.7754 51.0869C85.0795 50.9463 85.3765 50.758 85.6669 50.5219C85.9573 50.286 86.2342 49.9956 86.4973 49.6508V45.322C86.2342 44.9773 85.9573 44.6892 85.6669 44.4577C85.3765 44.2263 85.0795 44.0379 84.7754 43.8927C84.4713 43.7475 84.1696 43.6454 83.8701 43.5865C83.5707 43.5274 83.2847 43.4981 83.0126 43.4979C82.4772 43.4979 81.9757 43.5977 81.5085 43.7974C81.0409 43.9971 80.6348 44.2763 80.2901 44.6347C79.9452 44.9931 79.6752 45.4151 79.4801 45.9007C79.285 46.3862 79.1874 46.9147 79.1874 47.4864C79.1874 48.0582 79.285 48.5868 79.4801 49.0723C79.6752 49.5578 79.9452 49.9798 80.2901 50.3382C80.635 50.6968 81.0411 50.9758 81.5083 51.1755C81.9759 51.375 82.4772 51.4748 83.0126 51.4748ZM54.0346 43.6438C51.7174 43.6438 50.6956 44.8393 50.6956 46.5336V54.4561H47.238V46.6289C47.2573 43.365 49.1427 40.1563 54.0346 40.1563" fill="#222222"/>
</svg>
