<svg width="18" height="18" viewBox="0 0 18 18" fill="none" xmlns="http://www.w3.org/2000/svg">
<g clip-path="url(#clip0_4578_1686)">
<path d="M17.1826 7.03125C17.5952 7.03125 17.9297 6.71646 17.9297 6.32812V4.21876C17.9297 3.95241 17.7698 3.70898 17.5167 3.58984L10.046 0.0742148C9.94228 0.025418 9.82786 0 9.71191 0H7.4707C7.34378 0 7.2189 0.0304453 7.10789 0.0884883L0.384256 3.60411C0.147098 3.72811 0 3.96341 0 4.21876V6.32812C0 6.71646 0.334464 7.03125 0.74707 7.03125H1.49413V13.9021C0.624626 14.1925 0 14.974 0 15.8906V17.2968C0 17.6852 0.334464 18 0.74707 18H17.1826C17.5952 18 17.9297 17.6852 17.9297 17.2968V15.8906C17.9297 14.974 17.3051 14.1925 16.4356 13.9021V7.03125H17.1826ZM1.49413 4.63247L7.66431 1.40624H9.53557L16.4356 4.65332V5.625H1.49413V4.63247ZM7.4707 13.7812V7.03125H10.459V13.7812H7.4707ZM5.97656 7.03125V13.7812H2.98828V7.03125H5.97656ZM16.4356 16.5938H1.49413V15.8906C1.49413 15.5029 1.82927 15.1876 2.24121 15.1876H15.6885C16.1004 15.1876 16.4356 15.5029 16.4356 15.8906V16.5938ZM14.9414 13.7812H11.9531V7.03125H14.9414V13.7812Z" fill="#191A4E"/>
<path d="M8.96484 4.21876C9.37743 4.21876 9.71191 3.90395 9.71191 3.51562C9.71191 3.1273 9.37743 2.8125 8.96484 2.8125C8.55225 2.8125 8.21777 3.1273 8.21777 3.51562C8.21777 3.90395 8.55225 4.21876 8.96484 4.21876Z" fill="#191A4E"/>
</g>
<defs>
<clipPath id="clip0_4578_1686">
<rect width="18" height="18" fill="white"/>
</clipPath>
</defs>
</svg>
