<svg width="24" height="25" viewBox="0 0 24 25" fill="none" xmlns="http://www.w3.org/2000/svg">
<path d="M20 7.68945H4C2.89543 7.68945 2 8.58488 2 9.68945V19.6895C2 20.794 2.89543 21.6895 4 21.6895H20C21.1046 21.6895 22 20.794 22 19.6895V9.68945C22 8.58488 21.1046 7.68945 20 7.68945Z" stroke="#222222" stroke-width="1.5" stroke-linecap="round" stroke-linejoin="round"/>
<path d="M16 21.6895V5.68945C16 5.15902 15.7893 4.65031 15.4142 4.27524C15.0391 3.90017 14.5304 3.68945 14 3.68945H10C9.46957 3.68945 8.96086 3.90017 8.58579 4.27524C8.21071 4.65031 8 5.15902 8 5.68945V21.6895" stroke="#222222" stroke-width="1.5" stroke-linecap="round" stroke-linejoin="round"/>
</svg>
