<svg width="80" height="80" viewBox="0 0 80 80" fill="none" xmlns="http://www.w3.org/2000/svg">
<g clip-path="url(#clip0_1000_4838)">
<mask id="mask0_1000_4838" style="mask-type:luminance" maskUnits="userSpaceOnUse" x="0" y="0" width="80" height="80">
<circle cx="40" cy="40" r="40" fill="white"/>
</mask>
<g mask="url(#mask0_1000_4838)">
<rect width="80" height="80" fill="#BAF293"/>
<path fill-rule="evenodd" clip-rule="evenodd" d="M40.7743 16.2322C40.3313 15.8445 39.6697 15.8445 39.2266 16.2322L32.8879 21.7786C32.6965 21.946 32.456 22.0469 32.2024 22.066L23.7856 22.7012C23.2063 22.7449 22.7459 23.2054 22.7022 23.7847L22.067 32.2014C22.0478 32.455 21.947 32.6955 21.7795 32.8869L16.2332 39.2256C15.8455 39.6687 15.8455 40.3303 16.2332 40.7734L21.7795 47.1121C21.947 47.3034 22.0478 47.5439 22.067 47.7975L22.7022 56.2143C22.7459 56.7936 23.2063 57.254 23.7856 57.2977L32.2024 57.933C32.456 57.9521 32.6965 58.053 32.8879 58.2204L39.2266 63.7668C39.6697 64.1545 40.3313 64.1545 40.7743 63.7668L47.113 58.2204C47.3044 58.053 47.5449 57.9521 47.7985 57.933L56.2153 57.2977C56.7946 57.254 57.255 56.7936 57.2987 56.2143L57.9339 47.7975C57.9531 47.5439 58.0539 47.3034 58.2214 47.1121L63.7677 40.7734C64.1554 40.3303 64.1554 39.6687 63.7677 39.2256L58.2214 32.8869C58.0539 32.6955 57.9531 32.455 57.9339 32.2014L57.2987 23.7847C57.255 23.2054 56.7946 22.7449 56.2153 22.7012L47.7985 22.066C47.5449 22.0469 47.3044 21.946 47.113 21.7786L40.7743 16.2322ZM31.1123 31.1817C30.7525 30.8399 30.176 30.8399 29.8162 31.1817C29.4564 31.5234 29.4564 32.1296 29.8162 32.4713L32.5937 35.0507C29.4799 37.228 27.409 40.6766 27.409 44.631C27.409 44.6611 27.4087 44.6984 27.4085 44.7386C27.4079 44.8285 27.4073 44.9324 27.409 44.9994H52.592C52.5937 44.9324 52.593 44.8285 52.5925 44.7386C52.5922 44.6984 52.592 44.6611 52.592 44.631C52.592 40.6766 50.521 37.228 47.4072 35.0507L50.1848 32.4713C50.5446 32.1296 50.5446 31.5234 50.1848 31.1817C49.825 30.8399 49.2484 30.8399 48.8886 31.1817L45.9259 34.1295C44.1768 33.2553 42.1142 32.8398 40.0005 32.8398C37.8867 32.8398 35.8242 33.2553 34.0751 34.1295L31.1123 31.1817ZM36.2971 39.8408C36.2971 40.4852 35.6793 40.9462 35.0009 40.9462C34.3225 40.9462 33.8899 40.4852 33.8899 39.8408C33.8899 39.1964 34.3225 38.5512 35.0009 38.5512C35.6793 38.5512 36.2971 39.1964 36.2971 39.8408ZM45 40.9462C45.6785 40.9462 46.1111 40.4852 46.1111 39.8408C46.1111 39.1964 45.6785 38.5512 45 38.5512C44.3216 38.5512 43.7039 39.1964 43.7039 39.8408C43.7039 40.4852 44.3216 40.9462 45 40.9462Z" fill="#3F4946"/>
</g>
</g>
<defs>
<clipPath id="clip0_1000_4838">
<rect width="80" height="80" fill="white"/>
</clipPath>
</defs>
</svg>
