<svg width="86" height="86" viewBox="0 0 86 86" fill="none" xmlns="http://www.w3.org/2000/svg">
<path fill-rule="evenodd" clip-rule="evenodd" d="M45.2412 0.961068C43.9582 -0.161501 42.0426 -0.161502 40.7597 0.961067L30.5207 9.92017C29.9666 10.405 29.2702 10.697 28.536 10.7524L14.9173 11.7803C13.24 11.9069 11.9069 13.24 11.7803 14.9173L10.7524 28.536C10.697 29.2702 10.405 29.9666 9.92017 30.5207L0.961068 40.7597C-0.161501 42.0426 -0.161502 43.9582 0.961067 45.2412L9.92017 55.4801C10.405 56.0342 10.697 56.7306 10.7524 57.4648L11.7803 71.0835C11.9069 72.7608 13.24 74.094 14.9173 74.2206L28.536 75.2484C29.2702 75.3038 29.9666 75.5958 30.5207 76.0807L40.7597 85.0398C42.0426 86.1623 43.9582 86.1623 45.2412 85.0398L55.4801 76.0807C56.0342 75.5958 56.7306 75.3038 57.4648 75.2484L71.0835 74.2206C72.7608 74.094 74.094 72.7608 74.2206 71.0835L75.2484 57.4648C75.3038 56.7306 75.5958 56.0342 76.0807 55.4801L85.0398 45.2412C86.1623 43.9582 86.1623 42.0426 85.0398 40.7597L76.0807 30.5207C75.5958 29.9666 75.3038 29.2702 75.2484 28.536L74.2206 14.9173C74.094 13.24 72.7608 11.9069 71.0835 11.7803L57.4648 10.7524C56.7306 10.697 56.0342 10.405 55.4801 9.92017L45.2412 0.961068ZM27.0015 27.1288C26.3538 26.5136 25.316 26.5136 24.6683 27.1288C24.0207 27.7439 24.0207 28.835 24.6683 29.4502L29.6679 34.0929C24.063 38.0122 20.3354 44.2196 20.3354 51.3375C20.3354 51.3917 20.335 51.4589 20.3345 51.5312C20.3335 51.6931 20.3323 51.8801 20.3354 52.0007H65.6648C65.6678 51.8801 65.6667 51.6931 65.6657 51.5312C65.6652 51.4589 65.6648 51.3917 65.6648 51.3375C65.6648 44.2196 61.9371 38.0122 56.3323 34.0929L61.3318 29.4502C61.9795 28.835 61.9795 27.7439 61.3318 27.1288C60.6842 26.5136 59.6464 26.5136 58.9987 27.1288L53.6658 32.4348C50.5174 30.8613 46.8048 30.1134 43.0001 30.1134C39.1954 30.1134 35.4827 30.8613 32.3343 32.4348L27.0015 27.1288ZM36.334 42.7152C36.334 43.8752 35.2221 44.705 34.0009 44.705C32.7797 44.705 32.001 43.8752 32.001 42.7152C32.001 41.5552 32.7797 40.3938 34.0009 40.3938C35.2221 40.3938 36.334 41.5552 36.334 42.7152ZM51.9993 44.705C53.2205 44.705 53.9991 43.8752 53.9991 42.7152C53.9991 41.5552 53.2205 40.3938 51.9993 40.3938C50.7781 40.3938 49.6662 41.5552 49.6662 42.7152C49.6662 43.8752 50.7781 44.705 51.9993 44.705Z" fill="#424940"/>
</svg>
