<svg width="48" height="48" viewBox="0 0 48 48" fill="none" xmlns="http://www.w3.org/2000/svg">
<path fill-rule="evenodd" clip-rule="evenodd" d="M26.2403 1.51576C24.9574 0.393187 23.0417 0.393185 21.7588 1.51575L17.4458 5.28967C16.8917 5.7745 16.1953 6.06654 15.4611 6.12195L9.69422 6.55718C8.01691 6.68377 6.68377 8.01692 6.55718 9.69423L6.12195 15.4611C6.06654 16.1953 5.7745 16.8917 5.28967 17.4458L1.51575 21.7588C0.393185 23.0417 0.393187 24.9574 1.51576 26.2403L5.28967 30.5533C5.7745 31.1074 6.06654 31.8038 6.12194 32.538L6.55718 38.3049C6.68377 39.9822 8.01691 41.3153 9.69423 41.4419L15.4611 41.8771C16.1953 41.9326 16.8917 42.2246 17.4458 42.7094L21.7588 46.4833C23.0417 47.6059 24.9574 47.6059 26.2403 46.4833L30.5533 42.7094C31.1074 42.2246 31.8038 41.9326 32.538 41.8771L38.3049 41.4419C39.9822 41.3153 41.3153 39.9822 41.4419 38.3049L41.8771 32.538C41.9326 31.8038 42.2246 31.1074 42.7094 30.5533L46.4833 26.2403C47.6059 24.9574 47.6059 23.0417 46.4833 21.7588L42.7094 17.4458C42.2246 16.8917 41.9326 16.1953 41.8771 15.4611L41.4419 9.69423C41.3153 8.01691 39.9822 6.68377 38.3049 6.55718L32.538 6.12195C31.8038 6.06654 31.1074 5.7745 30.5533 5.28967L26.2403 1.51576ZM15.1115 15.1817C14.7517 14.84 14.1751 14.84 13.8153 15.1817C13.4555 15.5235 13.4555 16.1296 13.8153 16.4714L16.5928 19.0507C13.479 21.2281 11.4081 24.6766 11.4081 28.631C11.4081 28.6611 11.4079 28.6985 11.4076 28.7386C11.407 28.8286 11.4064 28.9325 11.4081 28.9995H36.5911C36.5928 28.9325 36.5921 28.8286 36.5916 28.7386C36.5913 28.6985 36.5911 28.6611 36.5911 28.631C36.5911 24.6766 34.5202 21.2281 31.4064 19.0507L34.1839 16.4714C34.5437 16.1296 34.5437 15.5235 34.1839 15.1817C33.8241 14.84 33.2475 14.84 32.8877 15.1817L29.925 18.1295C28.1759 17.2553 26.1133 16.8399 23.9996 16.8399C21.8859 16.8399 19.8233 17.2553 18.0742 18.1295L15.1115 15.1817ZM20.2962 23.8409C20.2962 24.4853 19.6785 24.9463 19 24.9463C18.3216 24.9463 17.889 24.4853 17.889 23.8409C17.889 23.1964 18.3216 22.5512 19 22.5512C19.6785 22.5512 20.2962 23.1964 20.2962 23.8409ZM28.9992 24.9463C29.6776 24.9463 30.1102 24.4853 30.1102 23.8409C30.1102 23.1964 29.6776 22.5512 28.9992 22.5512C28.3207 22.5512 27.703 23.1964 27.703 23.8409C27.703 24.4853 28.3207 24.9463 28.9992 24.9463Z" fill="url(#paint0_linear_2643_2679)"/>
<defs>
<linearGradient id="paint0_linear_2643_2679" x1="23.9995" y1="0.673828" x2="23.9995" y2="47.3253" gradientUnits="userSpaceOnUse">
<stop stop-color="#2AC9FA"/>
<stop offset="1" stop-color="#1F65EB"/>
</linearGradient>
</defs>
</svg>
