<svg width="16" height="17" viewBox="0 0 16 17" fill="none" xmlns="http://www.w3.org/2000/svg">
<path d="M14 8.5C14 11.8137 11.3137 14.5 8 14.5C4.68629 14.5 2 11.8137 2 8.5C2 5.18629 4.68629 2.5 8 2.5C11.3137 2.5 14 5.18629 14 8.5Z" fill="#191A4E"/>
<path fill-rule="evenodd" clip-rule="evenodd" d="M11.1381 6.69526C11.3984 6.95561 11.3984 7.37772 11.1381 7.63807L7.80474 10.9714C7.54439 11.2318 7.12228 11.2318 6.86193 10.9714L4.86193 8.97141C4.60158 8.71106 4.60158 8.28895 4.86193 8.0286C5.12228 7.76825 5.54439 7.76825 5.80474 8.0286L7.33333 9.55719L10.1953 6.69526C10.4556 6.43491 10.8777 6.43491 11.1381 6.69526Z" fill="white"/>
</svg>
