<svg width="29" height="29" viewBox="0 0 29 29" fill="none" xmlns="http://www.w3.org/2000/svg">
<mask id="mask0_638_21704" style="mask-type:luminance" maskUnits="userSpaceOnUse" x="0" y="0" width="29" height="29">
<path d="M28.3359 0.414062H0.335938V28.4111H28.3359V0.414062Z" fill="white"/>
</mask>
<g mask="url(#mask0_638_21704)">
<path d="M21.3169 20.2957C19.8596 21.573 17.9654 22.2858 15.9241 22.2858C11.2623 22.2858 7.90576 19.0185 7.90576 14.3305C7.90576 9.64228 11.2574 6.5137 15.9241 6.5137C17.9654 6.5137 19.8596 7.08298 21.3169 8.50373L22.3374 9.35544L26.7097 5.09295L25.6891 4.09793C22.9214 1.82569 19.5651 0.404938 15.9241 0.404938C7.61641 0.261408 1.49219 6.08796 1.49219 14.3305C1.49219 22.2858 7.75855 28.3994 15.9241 28.3994C19.7123 28.3994 23.211 27.1221 25.9836 24.7064L27.0041 23.7114L22.3425 19.1669L21.3169 20.2957Z" fill="#1C1C1C"/>
<path d="M14.5004 19.0987C17.1562 19.0987 19.3092 16.9997 19.3092 14.4107C19.3092 11.8216 17.1562 9.72266 14.5004 9.72266C11.8444 9.72266 9.69141 11.8216 9.69141 14.4107C9.69141 16.9997 11.8444 19.0987 14.5004 19.0987Z" fill="#FF3D2E"/>
</g>
</svg>
