<svg width="18" height="19" viewBox="0 0 18 19" fill="none" xmlns="http://www.w3.org/2000/svg">
<path d="M0 3.5C0 1.84315 1.34315 0.5 3 0.5H9.5C11.1569 0.5 12.5 1.84315 12.5 3.5V15.5C12.5 17.1569 11.1569 18.5 9.5 18.5H3C1.34315 18.5 0 17.1569 0 15.5V3.5Z" fill="#191A4E"/>
<path fill-rule="evenodd" clip-rule="evenodd" d="M2 7.75C2 7.33579 2.33579 7 2.75 7H7.25C7.66421 7 8 7.33579 8 7.75C8 8.16421 7.66421 8.5 7.25 8.5H2.75C2.33579 8.5 2 8.16421 2 7.75Z" fill="white"/>
<path fill-rule="evenodd" clip-rule="evenodd" d="M2 11.25C2 10.8358 2.33579 10.5 2.75 10.5H9.25C9.66421 10.5 10 10.8358 10 11.25C10 11.6642 9.66421 12 9.25 12H2.75C2.33579 12 2 11.6642 2 11.25Z" fill="white"/>
<path d="M14.5 2C14.5 1.44772 14.9477 1 15.5 1H17C17.5523 1 18 1.44772 18 2V15.6848C18 15.8899 17.9369 16.0902 17.8192 16.2582L16.7415 17.7978C16.5027 18.139 15.9973 18.139 15.7585 17.7978L14.6808 16.2582C14.5631 16.0902 14.5 15.8899 14.5 15.6848V2Z" fill="#8B7BCF"/>
</svg>
