<svg width="18" height="18" viewBox="0 0 18 18" fill="none" xmlns="http://www.w3.org/2000/svg">
<g clip-path="url(#clip0_4578_1676)">
<path d="M8.39739 12.6531L4.68485 14.4589L0.568359 4.60862L3.54141 0.858887L7.42899 1.01416L8.39739 12.6531Z" stroke="#191A4E" stroke-linecap="round" stroke-linejoin="round"/>
<path d="M3.27582 4.97255L3.20264 4.95703" stroke="#191A4E" stroke-linecap="round"/>
<path d="M5.38324 3.82363L5.31006 3.80811" stroke="#191A4E" stroke-linecap="round" stroke-linejoin="round"/>
<path d="M5.18701 10.2247C5.27102 10.3593 5.37825 10.4559 5.4966 10.5037C5.61495 10.5515 5.73965 10.5487 5.85699 10.4955C6.23319 10.2851 6.24028 9.54004 6.24028 9.54004" stroke="#191A4E" stroke-linecap="round" stroke-linejoin="round"/>
<path d="M13.9519 17.1378L10.1353 15.8493L10.2815 4.36738L14.1831 3.44287L17.4269 6.53201L13.9519 17.1378Z" stroke="#191A4E" stroke-linecap="round" stroke-linejoin="round"/>
<path d="M12.4418 6.73012L12.3857 6.66113" stroke="#191A4E" stroke-linecap="round" stroke-linejoin="round"/>
<path d="M14.6532 7.3561L14.5972 7.28711" stroke="#191A4E" stroke-linecap="round" stroke-linejoin="round"/>
<path d="M13.2453 13.5377C13.2279 13.3581 13.1761 13.1901 13.096 13.0546C13.0159 12.9191 12.9114 12.822 12.7951 12.7753C12.6626 12.7601 12.5298 12.797 12.4095 12.8822C12.2893 12.9675 12.1857 13.0983 12.1089 13.2618" stroke="#191A4E" stroke-linecap="round" stroke-linejoin="round"/>
</g>
<defs>
<clipPath id="clip0_4578_1676">
<rect width="18" height="18" fill="white"/>
</clipPath>
</defs>
</svg>
