<svg width="18" height="18" viewBox="0 0 18 18" fill="none" xmlns="http://www.w3.org/2000/svg">
<g clip-path="url(#clip0_4578_1689)">
<path d="M14.3788 11.3299H13.6457C13.9854 10.9174 14.1655 10.4411 14.1656 9.95507V5.13558C14.1656 4.44193 13.8023 3.77654 13.155 3.2852C12.5077 2.79385 11.6294 2.51659 10.7123 2.51416H7.49979C6.58277 2.51659 5.70445 2.79385 5.05716 3.2852C4.40987 3.77654 4.04651 4.44193 4.04652 5.13558V9.96027C4.04642 10.4463 4.22618 10.9227 4.56601 11.3352H3.69963C3.47444 11.3352 3.25856 11.4029 3.09933 11.5233C2.9401 11.6437 2.85059 11.8071 2.85059 11.9775V17.3619C2.85059 17.5322 2.9401 17.6955 3.09933 17.816C3.25856 17.9364 3.47444 18.0041 3.69963 18.0041H14.3771C14.6023 18.0041 14.8182 17.9364 14.9774 17.816C15.1367 17.6955 15.2262 17.5322 15.2262 17.3619V11.9775C15.2262 11.893 15.2042 11.8094 15.1615 11.7314C15.1187 11.6534 15.056 11.5826 14.977 11.5229C14.898 11.4632 14.804 11.4159 14.7008 11.3837C14.5975 11.3515 14.4871 11.335 14.3754 11.3352L14.3788 11.3299ZM7.49809 3.79863H10.7107C11.177 3.79933 11.6237 3.93993 11.9531 4.18959C12.2825 4.43925 12.4675 4.77757 12.4675 5.1303V9.95507C12.4675 10.3078 12.2825 10.6461 11.9531 10.8958C11.6237 11.1454 11.177 11.286 10.7107 11.2867H7.49809C7.03162 11.286 6.58447 11.1455 6.25478 10.8959C5.9251 10.6462 5.73956 10.3079 5.7391 9.95507V8.67444H9.17206C9.39724 8.67444 9.61312 8.60681 9.77235 8.48636C9.93158 8.36592 10.0211 8.20254 10.0211 8.0322C10.0211 7.86187 9.93158 7.69849 9.77235 7.57805C9.61312 7.4576 9.39724 7.38997 9.17206 7.38997H5.7391V6.28902H9.17206C9.39724 6.28902 9.61312 6.2213 9.77235 6.10086C9.93158 5.98041 10.0211 5.81703 10.0211 5.6467C10.0211 5.47636 9.93158 5.31307 9.77235 5.19262C9.61312 5.07218 9.39724 5.00446 9.17206 5.00446H5.74798C5.78934 4.67487 5.99129 4.36877 6.31485 4.14583C6.63842 3.92289 7.06042 3.79911 7.49809 3.79863ZM13.5298 16.7144H4.54867V12.6145H13.5298V16.7144Z" fill="#191A4E"/>
<path d="M0.935984 7.5249H0.828532C0.603348 7.5249 0.387045 7.59254 0.227816 7.71298C0.0685872 7.83343 -0.0205078 7.9968 -0.0205078 8.16714C-0.0205078 8.33747 0.0685872 8.50085 0.227816 8.6213C0.387045 8.74174 0.603348 8.80937 0.828532 8.80937H0.935984C1.16117 8.80937 1.37705 8.74174 1.53628 8.6213C1.69551 8.50085 1.78502 8.33747 1.78502 8.16714C1.78502 7.9968 1.69551 7.83343 1.53628 7.71298C1.37705 7.59254 1.16117 7.5249 0.935984 7.5249Z" fill="#191A4E"/>
<path d="M17.1718 3.66992H17.0644C16.8392 3.66992 16.6229 3.73756 16.4637 3.858C16.3044 3.97845 16.2153 4.14182 16.2153 4.31216C16.2153 4.48249 16.3044 4.64587 16.4637 4.76631C16.6229 4.88676 16.8392 4.95439 17.0644 4.95439H17.1718C17.397 4.95439 17.6129 4.88676 17.7721 4.76631C17.9313 4.64587 18.0209 4.48249 18.0209 4.31216C18.0209 4.14182 17.9313 3.97845 17.7721 3.858C17.6129 3.73756 17.397 3.66992 17.1718 3.66992Z" fill="#191A4E"/>
<path d="M4.94718 1.28447H5.05464C5.27982 1.28447 5.4957 1.21676 5.65493 1.09631C5.81416 0.975868 5.90368 0.812571 5.90368 0.642236C5.90368 0.471901 5.81416 0.308524 5.65493 0.188079C5.4957 0.0676338 5.27982 0 5.05464 0H4.94718C4.722 0 4.50612 0.0676338 4.34689 0.188079C4.18766 0.308524 4.09814 0.471901 4.09814 0.642236C4.09814 0.812571 4.18766 0.975868 4.34689 1.09631C4.50612 1.21676 4.722 1.28447 4.94718 1.28447Z" fill="#191A4E"/>
</g>
<defs>
<clipPath id="clip0_4578_1689">
<rect width="18" height="18" fill="white"/>
</clipPath>
</defs>
</svg>
