<svg width="24" height="25" viewBox="0 0 24 25" fill="none" xmlns="http://www.w3.org/2000/svg">
<path d="M21.9646 11.1802L17.7459 14.8205L19.0312 20.2646C19.1021 20.5601 19.0838 20.87 18.9787 21.1552C18.8736 21.4403 18.6863 21.6879 18.4405 21.8667C18.1947 22.0455 17.9015 22.1474 17.5978 22.1596C17.2941 22.1718 16.9936 22.0937 16.7343 21.9352L11.9999 19.0214L7.26275 21.9352C7.00347 22.0928 6.70335 22.1701 6.4002 22.1575C6.09704 22.1448 5.8044 22.0428 5.55913 21.8642C5.31386 21.6856 5.12692 21.4384 5.02185 21.1537C4.91679 20.8691 4.89829 20.5597 4.96869 20.2646L6.25869 14.8205L2.03994 11.1802C1.81053 10.9819 1.64462 10.7204 1.56293 10.4284C1.48123 10.1364 1.48737 9.82684 1.58058 9.53831C1.67379 9.24978 1.84994 8.9951 2.08703 8.80608C2.32412 8.61706 2.61164 8.50208 2.91369 8.47549L8.44494 8.02924L10.5787 2.86549C10.6942 2.58407 10.8908 2.34335 11.1434 2.17394C11.3961 2.00452 11.6934 1.91406 11.9976 1.91406C12.3018 1.91406 12.5991 2.00452 12.8518 2.17394C13.1044 2.34335 13.301 2.58407 13.4165 2.86549L15.5493 8.02924L21.0806 8.47549C21.3832 8.50109 21.6716 8.61543 21.9095 8.80419C22.1475 8.99294 22.3244 9.24773 22.4182 9.53661C22.512 9.82549 22.5185 10.1356 22.4368 10.4282C22.3551 10.7207 22.1889 10.9826 21.959 11.1811L21.9646 11.1802Z" fill="#E12F22"/>
</svg>
