<svg width="40" height="40" viewBox="0 0 40 40" fill="none" xmlns="http://www.w3.org/2000/svg">
<path fill-rule="evenodd" clip-rule="evenodd" d="M28.5689 3.95633C27.0284 3.74995 25.067 3.74997 22.622 3.75H17.0864C14.6414 3.74997 12.6801 3.74995 11.1396 3.95633C9.54431 4.17007 8.21426 4.62543 7.15934 5.67667C6.05896 6.77322 5.60844 8.16862 5.40537 9.85015L5.39544 9.9324L5.39942 10.258C5.04576 10.4892 4.71351 10.7573 4.40211 11.0687C3.15484 12.316 2.60131 13.8976 2.33861 15.8516C2.08332 17.7503 2.08334 20.1763 2.08337 23.2393V23.4273L2.08349 24.1487C2.08514 26.8562 2.10482 29.0762 2.33861 30.815C2.60131 32.769 3.15484 34.3507 4.40211 35.598C5.64939 36.8452 7.23097 37.3987 9.18501 37.6615C11.0837 37.9167 13.5098 37.9167 16.5727 37.9167H23.4274C26.4904 37.9167 28.9164 37.9167 30.815 37.6615C32.769 37.3987 34.3507 36.8452 35.598 35.598C36.8452 34.3507 37.3987 32.769 37.6615 30.815C37.9167 28.9163 37.9167 26.4903 37.9167 23.4273V23.2393C37.9167 20.1763 37.9167 17.7503 37.6615 15.8516C37.3987 13.8976 36.8452 12.316 35.598 11.0687C35.2032 10.674 34.775 10.3487 34.312 10.0802V9.9248L34.303 9.85015C34.1 8.16862 33.6495 6.77322 32.549 5.67667C31.4942 4.62543 30.1642 4.17007 28.5689 3.95633ZM4.58437 24.7332C4.58956 27.1917 4.62137 29.032 4.81631 30.482C5.04174 32.1587 5.46452 33.1248 6.16987 33.8302C6.87522 34.5355 7.84131 34.9583 9.51812 35.1837C11.2309 35.414 13.4887 35.4167 16.6667 35.4167H23.3334C26.5114 35.4167 28.7692 35.414 30.482 35.1837C31.7554 35.0125 32.619 34.7275 33.2697 34.2913L28.7912 30.2607C27.4919 29.0912 25.5567 28.9748 24.1264 29.98L23.6294 30.3292C21.8072 31.6098 19.328 31.3952 17.7532 29.8203L10.6036 22.6707C9.64196 21.709 8.09934 21.6577 7.07581 22.5532L4.58437 24.7332ZM30.4637 28.4025L34.7774 32.2848C34.9537 31.7912 35.0869 31.2022 35.1837 30.482C35.414 28.7692 35.4167 26.5113 35.4167 23.3333C35.4167 20.1553 35.414 17.8975 35.1837 16.1848C34.9584 14.5079 34.5355 13.5419 33.8302 12.8365C33.1249 12.1312 32.1587 11.7084 30.482 11.4829C28.7692 11.2527 26.5114 11.25 23.3334 11.25H16.6667C13.4887 11.25 11.2309 11.2527 9.51812 11.4829C7.84131 11.7084 6.87522 12.1312 6.16987 12.8365C5.46452 13.5419 5.04174 14.5079 4.81631 16.1848C4.63547 17.5298 4.59501 19.211 4.58597 21.41L5.42956 20.6718C7.44359 18.9095 10.4791 19.0107 12.3714 20.903L19.5209 28.0525C20.2369 28.7683 21.3637 28.866 22.192 28.2838L22.689 27.9345C25.0729 26.2592 28.298 26.4533 30.4637 28.4025ZM8.92401 7.44753C8.52408 7.84607 8.23739 8.36732 8.04662 9.20325C8.41111 9.12317 8.79046 9.05827 9.18501 9.00523C11.0837 8.74995 13.5097 8.74997 16.5727 8.75H23.4274C26.4904 8.74997 28.9164 8.74995 30.815 9.00523C31.1004 9.04357 31.3775 9.08812 31.647 9.14012C31.4564 8.3409 31.1742 7.83593 30.7844 7.44753C30.2717 6.93667 29.5565 6.611 28.2369 6.4342C26.8817 6.25263 25.0884 6.25 22.5302 6.25H17.1782C14.62 6.25 12.8267 6.25263 11.4715 6.4342C10.1519 6.611 9.43668 6.93667 8.92401 7.44753Z" fill="#222222"/>
<path fill-rule="evenodd" clip-rule="evenodd" d="M29.1666 13.75C27.0956 13.75 25.4166 15.4289 25.4166 17.5C25.4166 19.571 27.0956 21.25 29.1666 21.25C31.2376 21.25 32.9166 19.571 32.9166 17.5C32.9166 15.4289 31.2376 13.75 29.1666 13.75ZM29.1666 16.25C28.4763 16.25 27.9166 16.8097 27.9166 17.5C27.9166 18.1903 28.4763 18.75 29.1666 18.75C29.857 18.75 30.4166 18.1903 30.4166 17.5C30.4166 16.8097 29.857 16.25 29.1666 16.25Z" fill="#222222"/>
</svg>
