<svg width="54" height="56" viewBox="0 0 54 56" fill="none" xmlns="http://www.w3.org/2000/svg">
<path d="M26.9518 6.56579C27.304 6.56579 27.5911 6.27877 27.5911 5.92651V1.13837C27.5911 0.786108 27.304 0.499081 26.9518 0.499081C26.5995 0.499081 26.3125 0.786108 26.3125 1.13837V5.92651C26.3125 6.27877 26.5995 6.56579 26.9518 6.56579Z" fill="#010101"/>
<path d="M53.7999 40.7755C53.7999 39.934 53.4737 39.1425 52.8801 38.5511L50.984 36.6593C50.3903 36.0679 49.601 35.7417 48.7595 35.7417C48.2289 35.7417 47.7049 35.8743 47.2461 36.1266L46.9612 36.2831L42.8493 32.1756L43.3321 31.695C44.6128 30.4121 44.6128 28.329 43.3321 27.0504C42.8776 26.596 42.3079 26.2872 41.6838 26.1589L41.2229 26.0632L41.3533 25.6109C41.4403 25.3109 41.4838 24.9999 41.4838 24.6868C41.4838 23.8061 41.1424 22.982 40.5227 22.3645C40.0682 21.91 39.4985 21.6012 38.8723 21.473L38.4113 21.3773L38.5418 20.925C38.6287 20.6249 38.6722 20.314 38.6722 20.0009C38.6722 19.1202 38.3308 18.2961 37.7111 17.6785C37.2588 17.2263 36.6891 16.9197 36.0629 16.7892L35.6041 16.6935L35.7345 16.2434C36.0694 15.0866 35.7519 13.8428 34.9039 12.9926C34.1994 12.2903 33.223 11.9489 32.2272 12.0554L32.1641 12.0619L25.021 10.7094C24.0404 10.5246 22.8248 10.3941 22.116 11.0399C22.0746 11.0769 22.0312 11.1226 21.9898 11.1704L21.7941 11.3987L21.5115 11.2965C20.309 10.8595 18.9521 11.1574 18.0519 12.0576C17.4322 12.6751 17.093 13.5014 17.093 14.3821C17.093 14.6952 17.1365 15.0061 17.2235 15.3062L17.3539 15.7585L16.8929 15.8542C16.2689 15.9825 15.6992 16.2912 15.2469 16.7435C14.625 17.3611 14.2836 18.1852 14.2836 19.0658C14.2836 19.379 14.3271 19.6899 14.4141 19.9922L14.5445 20.4444L14.0835 20.5401C13.4595 20.6684 12.8898 20.9772 12.4353 21.4295C11.8156 22.0492 11.4742 22.8755 11.4742 23.754C11.4742 24.4237 11.6721 25.0651 12.0483 25.6109L12.3744 26.085L11.8308 26.2698C11.3524 26.4329 10.9284 26.696 10.5696 27.0548C9.28889 28.3333 9.28889 30.4186 10.5696 31.7037L11.0502 32.1843L6.95135 36.2744L6.6752 36.144C5.47708 35.5786 4.04194 35.8287 3.10693 36.7615L1.20863 38.6533C0.617183 39.2382 0.291016 40.0297 0.291016 40.8712C0.291016 41.7127 0.617183 42.5042 1.21081 43.0957L3.57878 45.4615C3.82015 45.7028 4.24199 45.7028 4.48118 45.4615C4.60077 45.3397 4.66818 45.181 4.66818 45.0092C4.66818 44.8374 4.60077 44.6787 4.48118 44.5569L2.1132 42.1911C1.76312 41.841 1.56959 41.3713 1.56959 40.8712C1.56959 40.3711 1.76312 39.9014 2.1132 39.5513L4.0115 37.6596C4.61817 37.0551 5.55536 36.9398 6.2925 37.3791L6.3773 37.4291L6.43166 37.5117C6.45558 37.5465 6.48167 37.5813 6.51212 37.6095C6.5643 37.6617 6.62519 37.7052 6.69477 37.7357L6.76435 37.7683L6.81871 37.8226L17.7562 48.7427L17.7888 48.8145C17.8214 48.8862 17.8649 48.9471 17.9171 48.9993C17.9671 49.0493 18.028 49.0928 18.0976 49.1254L18.178 49.1646L18.2367 49.232C18.5368 49.5712 18.7021 50.0104 18.7021 50.4671C18.7021 50.9672 18.5086 51.4369 18.1585 51.787L16.2623 53.6809C15.5339 54.4072 14.3467 54.4072 13.6182 53.6809L11.2502 51.3129C11.1306 51.1933 10.9697 51.1259 10.798 51.1259C10.6262 51.1259 10.4674 51.1912 10.3457 51.3129C10.0956 51.563 10.0956 51.9674 10.3457 52.2153L12.7158 54.5855C13.3073 55.1747 14.0966 55.5009 14.9381 55.5009C15.7796 55.5009 16.5689 55.1747 17.1626 54.5855L19.0587 52.6915C19.6501 52.1001 19.9785 51.3108 19.9785 50.4671C19.9785 49.8713 19.8132 49.295 19.5001 48.7971L19.3153 48.5035L23.5837 44.2416C24.1926 43.6132 25.5146 43.7045 26.9128 43.8002C27.7717 43.8589 28.7393 43.9285 29.6613 43.8219L29.8701 43.798L34.6538 48.5753L34.4973 48.8623C34.245 49.3211 34.1124 49.843 34.1124 50.3714C34.1124 51.2129 34.4386 52.0022 35.0322 52.5937L36.9283 54.4876C37.5198 55.0791 38.3113 55.4052 39.1528 55.4052C39.9943 55.4052 40.7836 55.0791 41.3772 54.4876L52.8822 42.9978C53.4759 42.4064 53.802 41.6171 53.802 40.7734L53.7999 40.7755ZM22.8901 11.9532L23.2162 11.8749C23.5359 11.7967 24.0643 11.8271 24.7862 11.9641L30.2506 12.9991L26.6627 16.5848L26.3844 16.4522C26.0604 16.2956 25.3972 15.9216 24.6014 15.1605C23.6424 14.2429 22.9901 13.2253 22.8944 12.5012L22.8901 12.4881L22.8857 12.4164C22.8814 12.3751 22.8814 12.3272 22.8814 12.2903L22.8879 11.9554L22.8901 11.9532ZM18.9543 12.9578C19.6349 12.2772 20.7091 12.175 21.5093 12.7164L21.6485 12.8121L21.6876 12.9774C22.0116 14.3364 23.2162 15.6019 23.7185 16.0825C24.0817 16.4304 25.3624 17.585 26.6127 17.8895L26.7715 17.9286L26.865 18.0634C27.0998 18.4005 27.2237 18.7984 27.2237 19.2115C27.2237 19.7508 27.015 20.2553 26.6366 20.6336C26.2605 21.012 25.7538 21.2185 25.2146 21.2185C24.6753 21.2185 24.1686 21.0098 23.7903 20.6314L18.95 15.7998C18.5716 15.4236 18.365 14.9192 18.365 14.3799C18.365 13.8406 18.5738 13.3362 18.95 12.96L18.9543 12.9578ZM16.1493 17.6416C16.5276 17.2632 17.0321 17.0566 17.5692 17.0566C18.1063 17.0566 18.6151 17.2654 18.9935 17.6438L22.8922 21.5338C23.675 22.3188 23.6772 23.593 22.8944 24.3758C22.5139 24.7542 22.0094 24.9629 21.468 24.9629C20.9265 24.9629 20.4221 24.7564 20.0437 24.378L16.1471 20.4836C15.7687 20.1052 15.56 19.5986 15.56 19.0615C15.56 18.5244 15.7687 18.0199 16.1493 17.6438V17.6416ZM13.3399 22.3253C13.7182 21.9492 14.2227 21.7404 14.762 21.7404C15.3012 21.7404 15.7992 21.9448 16.1754 22.3166L19.1435 25.2826C19.5218 25.6588 19.7306 26.1632 19.7306 26.7025C19.7306 27.2418 19.5218 27.7462 19.1435 28.1224C18.7673 28.4986 18.2607 28.7073 17.7214 28.7073C17.1821 28.7073 16.6755 28.5008 16.2971 28.1224L13.3399 25.1695C12.9615 24.7912 12.7528 24.2867 12.7528 23.7474C12.7528 23.2082 12.9615 22.7037 13.3399 22.3253ZM11.4699 27.9506C11.8482 27.5723 12.3549 27.3635 12.8941 27.3635C13.4334 27.3635 13.94 27.5723 14.3184 27.9506L15.3947 29.027C15.7731 29.4032 15.9818 29.9076 15.9818 30.4469C15.9818 30.9862 15.7731 31.4906 15.3926 31.869C15.0164 32.2474 14.5119 32.4539 13.9705 32.4539C13.429 32.4539 12.9246 32.2452 12.5462 31.8646L11.472 30.7948C10.6892 30.0098 10.6871 28.7356 11.472 27.9528L11.4699 27.9506ZM31.3008 43.4218L31.7553 43.1305C31.9858 42.9826 32.1989 42.8108 32.3881 42.6217L33.3426 41.6671C33.4644 41.5475 33.5296 41.3866 33.5296 41.2148C33.5296 41.0452 33.4644 40.8843 33.3426 40.7625C33.1013 40.5211 32.6816 40.5211 32.4403 40.7625L31.4857 41.7171C30.4376 42.7652 28.6937 42.6434 27.0063 42.526C25.3776 42.4129 23.6946 42.2955 22.6791 43.337L18.4129 47.5968L7.91029 37.1094L11.9591 33.0671L12.2505 33.2454C12.7637 33.5607 13.3573 33.726 13.9661 33.726C14.8468 33.726 15.6731 33.3846 16.2906 32.767C16.9125 32.1473 17.2539 31.3232 17.2539 30.4426V30.0294L17.4974 30.0011V29.9816H17.6714L17.8801 29.9577V29.9772C18.6999 29.9359 19.4588 29.601 20.0372 29.0248C20.6591 28.4051 21.0005 27.581 21.0005 26.7003V26.2915L21.4245 26.2372H21.468C22.3421 26.2372 23.1706 25.898 23.7925 25.2782C24.4165 24.6542 24.7557 23.8192 24.7514 22.932V22.4884L25.2385 22.4928C26.1104 22.4862 26.9258 22.147 27.539 21.5338C28.1588 20.9141 28.5001 20.09 28.5001 19.2094C28.5001 18.6005 28.3349 18.0069 28.0218 17.4959L27.8435 17.2045L31.153 13.8972C31.4357 13.6167 31.7901 13.4275 32.1815 13.3492C32.2359 13.3427 32.2554 13.3383 32.2772 13.334C32.9295 13.2427 33.5536 13.4471 34.0015 13.895C34.7843 14.68 34.7865 15.9542 34.0037 16.7392L31.9836 18.7527C31.864 18.8723 31.7966 19.0332 31.7966 19.205C31.7966 19.3768 31.8618 19.5355 31.9836 19.6573C32.2315 19.9052 32.6381 19.9074 32.886 19.6573L33.9667 18.5788C34.7517 17.8003 36.0259 17.8025 36.8087 18.5853C37.1871 18.9615 37.3958 19.4659 37.3958 20.0052C37.3958 20.5445 37.1871 21.0489 36.8065 21.4273L34.7908 23.4408C34.6691 23.5604 34.6038 23.7213 34.6017 23.8931C34.6017 24.0627 34.6669 24.2236 34.7887 24.3454C35.0365 24.5955 35.441 24.5955 35.6911 24.3454L36.7718 23.2691C37.1479 22.8907 37.6524 22.6841 38.1938 22.6841C38.7353 22.6841 39.2398 22.8929 39.6181 23.2734C39.9965 23.6496 40.203 24.1541 40.203 24.6911C40.203 25.2282 39.9943 25.7349 39.6138 26.1132L37.7416 27.9854C37.622 28.1072 37.5546 28.2659 37.5546 28.4377C37.5546 28.6073 37.622 28.7682 37.7416 28.89C37.9699 29.1183 38.4178 29.1183 38.644 28.89L39.579 27.955C39.9551 27.5788 40.4596 27.3701 40.9989 27.3701C41.5381 27.3701 42.0448 27.5788 42.4231 27.9572C43.2059 28.7378 43.2059 30.012 42.4231 30.797L40.0073 33.2106C39.7573 33.4585 39.7573 33.8651 40.0073 34.113C40.1204 34.2261 40.2813 34.2848 40.4596 34.2913C40.6336 34.2913 40.7967 34.2261 40.9097 34.113L41.9426 33.0823L46.0306 37.166L35.5301 47.6555L31.2987 43.4284L31.3008 43.4218ZM51.9777 42.0933L40.4727 53.5831C40.1226 53.9331 39.6529 54.1267 39.1506 54.1267C38.6483 54.1267 38.1808 53.9331 37.8285 53.5831L35.9324 51.6891C35.5823 51.339 35.3888 50.8693 35.3888 50.3692C35.3888 49.8691 35.5823 49.4016 35.9324 49.0493L47.4374 37.5595C47.7897 37.2094 48.2572 37.0159 48.7595 37.0159C49.2618 37.0159 49.7293 37.2094 50.0816 37.5617L51.9777 39.4513C52.3299 39.8014 52.5213 40.2711 52.5213 40.7712C52.5213 41.2735 52.3278 41.741 51.9777 42.0911V42.0933Z" fill="#010101"/>
<path d="M16.1824 8.72031C16.1824 8.54853 16.115 8.38979 15.9954 8.2702L12.0835 4.36706C11.9639 4.24747 11.803 4.18006 11.6334 4.18006C11.4616 4.18006 11.3029 4.24747 11.1811 4.36706C11.0615 4.48666 10.9941 4.64757 10.9941 4.81935C10.9941 4.99113 11.0615 5.14986 11.1811 5.26946L15.093 9.1726C15.3343 9.41178 15.7562 9.41178 15.9954 9.1726C16.115 9.053 16.1824 8.89209 16.1824 8.72031Z" fill="#010101"/>
<path d="M42.4698 5.5199C42.5894 5.4003 42.6568 5.23939 42.6568 5.06761C42.6568 4.89583 42.5915 4.73709 42.4698 4.61532C42.3502 4.49573 42.1893 4.42832 42.0175 4.42832C41.8457 4.42832 41.687 4.49573 41.5652 4.61532L37.6577 8.51846C37.5359 8.63806 37.4707 8.79896 37.4707 8.97075C37.4707 9.14253 37.5359 9.30126 37.6577 9.42303C37.8947 9.66005 38.3231 9.66005 38.5601 9.42303L42.4676 5.5199H42.4698Z" fill="#010101"/>
<path d="M36.2764 38.4776C36.3764 38.4776 36.4743 38.4537 36.5656 38.4081C36.7178 38.3319 36.8309 38.1993 36.8853 38.0384C36.9396 37.8775 36.9266 37.7035 36.8483 37.5513C36.7722 37.3991 36.6395 37.286 36.4786 37.2317C36.4134 37.2099 36.346 37.1991 36.2786 37.1991C36.1786 37.1991 36.0829 37.223 35.9916 37.2686C35.8372 37.3469 35.7241 37.4774 35.6697 37.6405C35.6154 37.8014 35.6284 37.9753 35.7067 38.1275C35.8154 38.3428 36.0351 38.4776 36.2786 38.4776H36.2764Z" fill="#010101"/>
</svg>
