<svg width="18" height="18" viewBox="0 0 18 18" fill="none" xmlns="http://www.w3.org/2000/svg">
<g clip-path="url(#clip0_4578_1702)">
<path d="M15.5735 0.569253C14.8336 0.179405 14.0034 -0.0160296 13.1635 0.00187196C12.3236 0.0197735 11.5028 0.250398 10.7808 0.671403C10.7624 1.12175 10.5669 1.54764 10.2352 1.85989C9.9035 2.17214 9.46133 2.34656 9.00136 2.34656C8.5414 2.34656 8.09932 2.17214 7.76762 1.85989C7.43593 1.54764 7.24039 1.12175 7.22197 0.671403C6.50011 0.250267 5.67922 0.0195179 4.8393 0.00161573C3.99938 -0.0162864 3.16904 0.179271 2.42918 0.569253C1.59895 1.08768 0.932172 1.82212 0.503434 2.6905C0.0746969 3.55888 -0.0991256 4.52704 0.00136155 5.48667C0.00136155 12.7144 8.22447 17.6834 8.57007 17.8905C8.74191 17.9929 8.94799 18.0252 9.14379 17.9801C9.3396 17.9351 9.5095 17.8165 9.61693 17.6499C9.66911 17.5675 9.70402 17.4757 9.71969 17.38C9.73537 17.2842 9.73144 17.1863 9.70819 17.092C9.68493 16.9978 9.64282 16.909 9.58424 16.8309C9.52566 16.7527 9.45186 16.6867 9.36702 16.6367C9.28848 16.5891 1.52229 11.8873 1.51943 5.48803C1.44154 4.79111 1.55497 4.08642 1.84796 3.44681C2.14095 2.8072 2.60294 2.25589 3.18612 1.84972C3.69397 1.589 4.26199 1.46131 4.83503 1.47921C5.40807 1.49711 5.96662 1.65998 6.45648 1.95187C6.99413 2.24317 7.44092 2.67208 7.74906 3.19289C8.05719 3.71369 8.21506 4.30677 8.20589 4.90869C8.20645 5.00609 8.22661 5.1024 8.26516 5.19217C8.30372 5.28194 8.35992 5.36344 8.4306 5.43192C8.50129 5.5004 8.58506 5.55453 8.67711 5.59129C8.76916 5.62806 8.86771 5.64668 8.96711 5.64613H8.9957C9.0057 5.64613 9.01426 5.64613 9.02568 5.64613C9.12508 5.64668 9.22363 5.62806 9.31568 5.59129C9.40773 5.55453 9.49142 5.5004 9.5621 5.43192C9.63278 5.36344 9.68907 5.28194 9.72763 5.19217C9.76618 5.1024 9.78625 5.00609 9.78681 4.90869C9.77764 4.30677 9.9356 3.71369 10.2437 3.19289C10.5519 2.67208 10.9987 2.24317 11.5363 1.95187C12.0262 1.65998 12.5847 1.49711 13.1578 1.47921C13.7308 1.46131 14.2988 1.589 14.8067 1.84972C15.39 2.25579 15.852 2.80709 16.145 3.44673C16.438 4.08636 16.5513 4.7911 16.4733 5.48803C16.4733 8.97245 14.1555 11.9404 12.2104 13.817C12.1397 13.885 12.0835 13.9661 12.0452 14.0556C12.0069 14.1451 11.9871 14.2413 11.9871 14.3383C11.9871 14.4354 12.0069 14.5315 12.0452 14.621C12.0835 14.7105 12.1397 14.7916 12.2104 14.8596C12.3541 14.9983 12.5477 15.076 12.7495 15.076C12.9512 15.076 13.1449 14.9983 13.2886 14.8596C15.4308 12.7857 18.0014 9.47763 18.0014 5.48385C18.101 4.52471 17.9268 3.55725 17.4981 2.68948C17.0694 1.8217 16.4031 1.08769 15.5735 0.569253Z" fill="#191A4E"/>
</g>
<defs>
<clipPath id="clip0_4578_1702">
<rect width="18" height="18" fill="white"/>
</clipPath>
</defs>
</svg>
