<svg width="21" height="16" viewBox="0 0 21 16" fill="none" xmlns="http://www.w3.org/2000/svg">
<g clip-path="url(#clip0_18575_54330)">
<rect x="0.357178" y="0.928711" width="19.8" height="14.4" rx="2" fill="white"/>
<path fill-rule="evenodd" clip-rule="evenodd" d="M10.2573 10.5285C11.5584 10.5285 12.6144 9.45332 12.6144 8.12852C12.6144 6.80372 11.5584 5.72852 10.2573 5.72852C8.95615 5.72852 7.90015 6.80372 7.90015 8.12852C7.90015 9.45332 8.95615 10.5285 10.2573 10.5285ZM10.2573 9.56852C11.038 9.56852 11.6716 8.9234 11.6716 8.12852C11.6716 7.33364 11.038 6.68852 10.2573 6.68852C9.4766 6.68852 8.843 7.33364 8.843 8.12852C8.843 8.9234 9.4766 9.56852 10.2573 9.56852Z" fill="#1A47B8"/>
<path fill-rule="evenodd" clip-rule="evenodd" d="M0.357178 10.8291H20.1572V15.3291H0.357178V10.8291Z" fill="#249F58"/>
<path fill-rule="evenodd" clip-rule="evenodd" d="M0.357178 0.928711H20.1572V5.42871H0.357178V0.928711Z" fill="#FF6C2D"/>
</g>
<defs>
<clipPath id="clip0_18575_54330">
<rect x="0.357178" y="0.928711" width="19.8" height="14.4" rx="2" fill="white"/>
</clipPath>
</defs>
</svg>
