<svg width="16" height="16" viewBox="0 0 16 16" fill="none" xmlns="http://www.w3.org/2000/svg">
<path fill-rule="evenodd" clip-rule="evenodd" d="M5.18045 0.592046C3.96038 0.647134 2.90289 0.94563 2.04899 1.79651C1.19211 2.65185 0.897526 3.71426 0.842339 4.92247C0.808034 5.67657 0.607435 11.3737 1.18913 12.8677C1.5814 13.8757 2.35399 14.6507 3.37047 15.0445C3.84477 15.2291 4.38621 15.3541 5.18045 15.3905C11.8215 15.6913 14.2832 15.5276 15.3213 12.8677C15.5055 12.3943 15.6323 11.8529 15.6674 11.0601C15.9709 4.39751 15.6181 2.95335 14.4607 1.79651C13.5427 0.880117 12.4628 0.256311 5.18045 0.592046ZM5.24158 14.0506C4.51447 14.0178 4.11996 13.8966 3.85671 13.7946C3.19447 13.537 2.69705 13.0413 2.44125 12.3825C1.99827 11.2473 2.14519 5.85536 2.18472 4.98289C2.2235 4.12829 2.39651 3.34724 2.99909 2.74426C3.74485 1.99983 4.70837 1.63499 11.2688 1.93127C12.125 1.96998 12.9073 2.14276 13.5114 2.74426C14.2571 3.48868 14.627 4.46028 14.3257 11.0001C14.2929 11.7259 14.1714 12.1197 14.0692 12.3825C13.3943 14.1133 11.8416 14.3536 5.24158 14.0506ZM11.3412 4.0172C11.3412 4.51001 11.7417 4.91075 12.2361 4.91075C12.7306 4.91075 13.1318 4.51001 13.1318 4.0172C13.1318 3.52439 12.7306 3.12401 12.2361 3.12401C11.7417 3.12401 11.3412 3.52439 11.3412 4.0172ZM4.42573 7.99093C4.42573 10.1021 6.14024 11.8138 8.25522 11.8138C10.3702 11.8138 12.0847 10.1021 12.0847 7.99093C12.0847 5.87974 10.3702 4.16917 8.25522 4.16917C6.14024 4.16917 4.42573 5.87974 4.42573 7.99093ZM5.76959 7.99093C5.76959 6.62119 6.88228 5.50986 8.25522 5.50986C9.62817 5.50986 10.7409 6.62119 10.7409 7.99093C10.7409 9.36142 9.62817 10.4731 8.25522 10.4731C6.88228 10.4731 5.76959 9.36142 5.76959 7.99093Z" fill="white"/>
</svg>
