<svg width="16" height="18" viewBox="0 0 16 18" fill="none" xmlns="http://www.w3.org/2000/svg">
<g clip-path="url(#clip0_4580_1819)">
<path d="M12.8832 1.98882C11.4582 0.706324 9.56721 0 7.55859 0C5.54998 0 3.65899 0.706324 2.23397 1.98882C0.793371 3.28539 0 5.0137 0 6.85547C0 7.33584 0.589957 7.56612 0.915293 7.21266C1.44032 6.64229 2.13493 6.32812 2.87111 6.32812C3.60728 6.32812 4.30182 6.64225 4.82685 7.21259C5.03571 7.43952 5.39392 7.43952 5.60282 7.21259C6.00029 6.78076 6.49494 6.49582 7.03125 6.38286V9.55427C6.46706 10.2228 5.62507 10.6172 4.74609 10.6172H4.39453C4.1033 10.6172 3.86719 10.8533 3.86719 11.1445V12.6039C3.86719 14.9155 5.23206 17.0157 7.34442 17.9545C7.41255 17.9848 7.48561 18 7.55859 18C7.63158 18 7.7046 17.9848 7.77277 17.9545C9.88513 17.0157 11.25 14.9155 11.25 12.6039V11.1445C11.25 10.8533 11.0139 10.6172 10.7227 10.6172H10.3711C9.49212 10.6172 8.65013 10.2228 8.08594 9.55434V6.38293C8.62225 6.49589 9.11689 6.78083 9.51437 7.21266C9.72327 7.43959 10.0814 7.43959 10.2903 7.21266C10.8154 6.64225 11.5099 6.32812 12.2461 6.32812C12.9823 6.32812 13.6768 6.64225 14.2019 7.21262C14.5272 7.56604 15.1172 7.33591 15.1172 6.85554C15.1172 5.01377 14.3238 3.28539 12.8832 1.98882ZM10.1953 11.668V12.6039C10.1953 14.4198 9.16791 16.0766 7.55859 16.8892C5.94928 16.0766 4.92188 14.4198 4.92188 12.6039V11.668C5.91015 11.6243 6.85227 11.2142 7.55859 10.5324C8.26492 11.2141 9.20704 11.6243 10.1953 11.668ZM12.246 5.27344C11.3861 5.27344 10.5707 5.57402 9.90236 6.12914C9.234 5.57402 8.41855 5.27344 7.55859 5.27344C6.69864 5.27344 5.88319 5.57402 5.21483 6.12914C4.54651 5.57402 3.73106 5.27344 2.87114 5.27344C2.87107 5.27344 2.87121 5.27344 2.87114 5.27344C2.27728 5.27344 1.70455 5.41677 1.18698 5.68835C1.7942 3.0472 4.42037 1.05469 7.55859 1.05469C10.6968 1.05469 13.323 3.04717 13.9302 5.68832C13.4126 5.41677 12.8399 5.27344 12.246 5.27344Z" fill="#191A4E"/>
<path d="M6.87679 13.2326C6.67085 13.0266 6.33697 13.0266 6.13102 13.2326C5.92508 13.4385 5.92508 13.7724 6.13102 13.9784L6.83415 14.6815C7.04009 14.8874 7.37397 14.8874 7.57992 14.6815L8.98617 13.2752C9.19211 13.0693 9.19211 12.7354 8.98617 12.5295C8.78022 12.3235 8.44634 12.3235 8.2404 12.5295L7.20705 13.5628L6.87679 13.2326Z" fill="#191A4E"/>
</g>
<defs>
<clipPath id="clip0_4580_1819">
<rect width="16" height="18" fill="white"/>
</clipPath>
</defs>
</svg>
