<svg width="14" height="14" viewBox="0 0 14 14" fill="none" xmlns="http://www.w3.org/2000/svg">
<path fill-rule="evenodd" clip-rule="evenodd" d="M13.4247 13.25H10.9265V8.87561C10.9265 7.67561 10.3975 7.0061 9.44881 7.0061C8.41642 7.0061 7.80373 7.70374 7.80373 8.87561V13.25H5.3055V5.125H7.80373V6.0387C7.80373 6.0387 8.58754 4.66235 10.3538 4.66235C12.1207 4.66235 13.4247 5.74132 13.4247 7.97382V13.25ZM2.45876 3.82556C1.61624 3.82556 0.933594 3.13685 0.933594 2.28748C0.933594 1.43873 1.61624 0.75 2.45876 0.75C3.30067 0.75 3.9833 1.43873 3.9833 2.28748C3.98393 3.13685 3.30067 3.82556 2.45876 3.82556ZM0.933594 13.25H4.05638V5.125H0.933594V13.25Z" fill="white"/>
</svg>
