<svg width="24" height="24" viewBox="0 0 24 24" fill="none" xmlns="http://www.w3.org/2000/svg">
<path d="M19 10C19 13.866 12 17.5 12 17.5C12 17.5 5 13.866 5 10C5 6.13401 8.13401 3 12 3C15.866 3 19 6.13401 19 10Z" fill="#191A4E"/>
<path d="M15 20C15 20.5523 13.6569 21 12 21C10.3431 21 9 20.5523 9 20C9 19.4477 10.3431 19 12 19C13.6569 19 15 19.4477 15 20Z" fill="#8B7BCF"/>
<path d="M14 10C14 11.1046 13.1046 12 12 12C10.8954 12 10 11.1046 10 10C10 8.89543 10.8954 8 12 8C13.1046 8 14 8.89543 14 10Z" fill="white"/>
</svg>
