<svg width="18" height="18" viewBox="0 0 18 18" fill="none" xmlns="http://www.w3.org/2000/svg">
<g clip-path="url(#clip0_4578_1706)">
<path d="M17.9427 10.5373C17.8671 10.3588 17.7298 10.2195 17.5603 10.1492C17.3908 10.079 17.2026 10.0835 17.0361 10.1617L12.2027 12.4052C12.1201 12.4419 12.0451 12.4961 11.9822 12.5646C11.9193 12.6331 11.8695 12.7145 11.836 12.804C11.8025 12.8936 11.7859 12.9894 11.7872 13.086C11.7884 13.1825 11.8076 13.2778 11.8433 13.3663C11.8982 13.4974 11.9868 13.6086 12.0989 13.6863C12.2109 13.764 12.3412 13.8049 12.4743 13.8041C12.569 13.8042 12.6627 13.7835 12.7497 13.7432L17.5834 11.4997C17.6659 11.4629 17.7409 11.4087 17.8039 11.3402C17.8668 11.2717 17.9163 11.1903 17.9498 11.1008C17.9832 11.0113 17.9998 10.9154 17.9986 10.8189C17.9973 10.7223 17.9785 10.6258 17.9427 10.5373Z" fill="#191A4E"/>
<path d="M6.76288 11.5595C6.86373 11.5597 6.96343 11.5363 7.05512 11.4909C7.13646 11.4514 7.20979 11.3947 7.27061 11.3242C7.33143 11.2537 7.37856 11.1708 7.40934 11.0803C7.44013 10.9898 7.4539 10.8936 7.44984 10.7973C7.44578 10.701 7.42394 10.6065 7.38566 10.5194L2.92827 0.415788C2.87156 0.289108 2.78284 0.182337 2.67243 0.107845C2.56202 0.0333531 2.43444 -0.00583821 2.30432 -0.00521216H0.675448C0.584434 -0.00936006 0.493575 0.0064636 0.408355 0.0412758C0.323135 0.0760879 0.245321 0.129154 0.179565 0.197342C0.113809 0.265531 0.0615154 0.347377 0.0257707 0.438004C-0.00997395 0.528631 -0.0283203 0.626151 -0.0283203 0.72468C-0.0283203 0.823209 -0.00997395 0.920728 0.0257707 1.01136C0.0615154 1.10198 0.113809 1.18383 0.179565 1.25202C0.245321 1.32021 0.323135 1.37335 0.408355 1.40816C0.493575 1.44297 0.584434 1.4588 0.675448 1.45465H1.86589L6.13777 11.1334C6.19399 11.2611 6.28264 11.369 6.39331 11.4444C6.50397 11.5199 6.63207 11.5598 6.76288 11.5595Z" fill="#191A4E"/>
<path d="M8.55486 12.1837C8.02547 12.1949 7.51084 12.3749 7.07569 12.7012C6.64053 13.0275 6.30421 13.4856 6.10877 14.0178C5.91333 14.5501 5.86758 15.1329 5.9772 15.6932C6.08682 16.2535 6.34695 16.7663 6.72497 17.1673C7.103 17.5683 7.58205 17.8397 8.1021 17.9473C8.62215 18.055 9.16001 17.9942 9.64823 17.7725C10.1364 17.5508 10.5533 17.1782 10.8464 16.7012C11.1396 16.2243 11.296 15.6644 11.2961 15.0917C11.2882 14.3132 10.9953 13.5699 10.4814 13.0248C9.96748 12.4796 9.27464 12.1771 8.55486 12.1837ZM8.55486 16.5399C8.29117 16.5345 8.03476 16.4451 7.8179 16.2828C7.60105 16.1204 7.4334 15.8924 7.33591 15.6274C7.23841 15.3623 7.21551 15.072 7.26998 14.7929C7.32444 14.5138 7.45382 14.2583 7.64203 14.0585C7.83025 13.8587 8.06881 13.7234 8.32782 13.6697C8.58684 13.616 8.85477 13.6463 9.09796 13.7566C9.34116 13.867 9.54882 14.0525 9.69486 14.29C9.8409 14.5276 9.91878 14.8065 9.91883 15.0917C9.91504 15.479 9.76948 15.8489 9.51402 16.1204C9.25857 16.3918 8.91295 16.5426 8.55486 16.5399Z" fill="#191A4E"/>
<path d="M9.2082 11.2239C9.26556 11.3483 9.35391 11.453 9.46331 11.526C9.57271 11.599 9.69892 11.6375 9.82747 11.6371C9.92005 11.6366 10.0116 11.6164 10.0969 11.5775L15.5985 9.08274C15.6826 9.04524 15.7588 8.98988 15.8228 8.92003C15.8868 8.85018 15.9372 8.76721 15.971 8.67597C16.0043 8.58551 16.0203 8.48868 16.0178 8.39135C16.0154 8.29402 15.9946 8.19824 15.9567 8.10989L13.77 3.00239C13.6924 2.82597 13.5544 2.68919 13.3852 2.621C13.216 2.55281 13.0287 2.55859 12.8633 2.63713L7.27657 5.24851C7.19235 5.28734 7.11614 5.34419 7.05275 5.41565C6.98936 5.4871 6.93997 5.57167 6.90758 5.6643C6.87563 5.75618 6.86153 5.85419 6.86606 5.95224C6.8706 6.05028 6.89378 6.14627 6.93404 6.23425L9.2082 11.2239ZM12.801 4.26278L14.4156 8.03218L10.1652 9.95968L8.4885 6.27828L12.801 4.26278Z" fill="#191A4E"/>
</g>
<defs>
<clipPath id="clip0_4578_1706">
<rect width="18" height="18" fill="white"/>
</clipPath>
</defs>
</svg>
