<svg width="18" height="18" viewBox="0 0 18 18" fill="none" xmlns="http://www.w3.org/2000/svg">
<g clip-path="url(#clip0_4578_1704)">
<path fill-rule="evenodd" clip-rule="evenodd" d="M7.07167 4.5H11.5717V6.42857H12.8574V5.05155C13.0641 5.10527 13.277 5.14286 13.5002 5.14286C13.7235 5.14286 13.9364 5.10527 14.1431 5.05155V6.42857H15.4288V4.2543C15.8239 3.80209 16.0717 3.21782 16.0717 2.57143C16.0717 1.15325 14.9181 0 13.5002 0C12.8539 0 12.2696 0.247742 11.8174 0.642857H7.07167C6.23471 0.642857 5.52778 1.18189 5.26156 1.92857H3.85739V1.28571C3.85739 1.04213 3.7199 0.819894 3.50206 0.710658L2.21634 0.0678013C2.03554 -0.0226004 1.82209 -0.0226004 1.64129 0.0678013L0.355572 0.710658C0.03791 0.869489 -0.0907871 1.25558 0.0680439 1.57324C0.226561 1.8909 0.61171 2.0196 0.930628 1.86077L1.92881 1.36168L2.57167 1.68311V3.45975L1.92881 3.78118L0.930628 3.28209C0.61171 3.12388 0.226561 3.25258 0.0680439 3.56961C-0.0907871 3.88728 0.0379099 4.27337 0.355572 4.4322L1.64129 5.07506C1.73169 5.12026 1.83025 5.14286 1.92881 5.14286C2.02738 5.14286 2.12594 5.12026 2.21634 5.07506L3.50206 4.4322C3.7199 4.32296 3.85739 4.10073 3.85739 3.85714V3.21429H5.2616C5.52782 3.96096 6.23471 4.5 7.07167 4.5ZM11.0201 3.21429H8.88179C8.95383 3.01222 9.00024 2.79794 9.00024 2.57143C9.00024 2.34491 8.95383 2.13064 8.88179 1.92857H11.0201C10.9664 2.13527 10.9288 2.34813 10.9288 2.57143C10.9288 2.79473 10.9664 3.00759 11.0201 3.21429ZM13.5002 1.28571C14.2093 1.28571 14.786 1.86265 14.786 2.57143C14.786 3.2802 14.2093 3.85714 13.5002 3.85714C12.7912 3.85714 12.2145 3.2802 12.2145 2.57143C12.2145 1.86265 12.7912 1.28571 13.5002 1.28571ZM7.07167 1.92857C7.42606 1.92857 7.71453 2.21673 7.71453 2.57143C7.71453 2.92613 7.42606 3.21429 7.07167 3.21429C6.71728 3.21429 6.42881 2.92613 6.42881 2.57143C6.42881 2.21673 6.71728 1.92857 7.07167 1.92857ZM16.0714 7.07143H6.42857C5.3651 7.07143 4.5 7.93652 4.5 9V14.1429C4.5 15.2063 5.3651 16.0714 6.42857 16.0714H10.6071V16.7143H9.64286C9.28784 16.7143 9 17.0018 9 17.3571C9 17.7125 9.28784 18 9.64286 18H12.8571C13.2122 18 13.5 17.7125 13.5 17.3571C13.5 17.0018 13.2122 16.7143 12.8571 16.7143H11.8929V16.0714H16.0714C17.1349 16.0714 18 15.2063 18 14.1429V9C18 7.93652 17.1349 7.07143 16.0714 7.07143ZM16.7143 14.1429C16.7143 14.4976 16.4258 14.7857 16.0714 14.7857H6.42857C6.07418 14.7857 5.78571 14.4976 5.78571 14.1429V9C5.78571 8.6453 6.07418 8.35714 6.42857 8.35714H16.0714C16.4258 8.35714 16.7143 8.6453 16.7143 9V14.1429ZM8.54548 9.83119C8.7966 9.58008 9.2034 9.58008 9.45452 9.83119C9.70564 10.0823 9.70564 10.4891 9.45452 10.7402L8.62333 11.5714L9.45452 12.4026C9.70564 12.6537 9.70564 13.0605 9.45452 13.3117C9.32896 13.4372 9.16448 13.5 9 13.5C8.83552 13.5 8.67104 13.4372 8.54548 13.3117L7.25977 12.0259C7.00865 11.7748 7.00865 11.368 7.25977 11.1169L8.54548 9.83119ZM13.9545 9.83119C13.7034 9.58008 13.2966 9.58008 13.0455 9.83119C12.7944 10.0823 12.7944 10.4891 13.0455 10.7402L13.8767 11.5714L13.0455 12.4026C12.7944 12.6537 12.7944 13.0605 13.0455 13.3117C13.171 13.4372 13.3355 13.5 13.5 13.5C13.6645 13.5 13.829 13.4372 13.9545 13.3117L15.2402 12.0259C15.4914 11.7748 15.4914 11.368 15.2402 11.1169L13.9545 9.83119ZM10.9479 10.1297C11.0342 9.78444 11.3839 9.57664 11.7276 9.66202C12.0719 9.74802 12.2813 10.0971 12.1953 10.4411L11.5524 13.0125C11.4793 13.3051 11.2172 13.4997 10.9294 13.4997C10.8776 13.4997 10.8251 13.4934 10.7727 13.4802C10.4284 13.3942 10.219 13.0452 10.305 12.7011L10.9479 10.1297Z" fill="#191A4E"/>
</g>
<defs>
<clipPath id="clip0_4578_1704">
<rect width="18" height="18" fill="white"/>
</clipPath>
</defs>
</svg>
