<svg width="18" height="18" viewBox="0 0 18 18" fill="none" xmlns="http://www.w3.org/2000/svg">
<g clip-path="url(#clip0_4578_1744)">
<path d="M6.62808 18.0012C7.24301 18.0012 7.74151 17.4466 7.74151 16.7625C7.74151 16.0785 7.24301 15.5239 6.62808 15.5239C6.01315 15.5239 5.51465 16.0785 5.51465 16.7625C5.51465 17.4466 6.01315 18.0012 6.62808 18.0012Z" fill="#191A4E"/>
<path d="M13.1154 18.0012C13.7303 18.0012 14.2288 17.4466 14.2288 16.7625C14.2288 16.0785 13.7303 15.5239 13.1154 15.5239C12.5005 15.5239 12.002 16.0785 12.002 16.7625C12.002 17.4466 12.5005 18.0012 13.1154 18.0012Z" fill="#191A4E"/>
<path d="M18 2.42561H4.66201L4.09886 -0.00585938H0.650587C0.209587 -0.00585938 0 0.496167 0 0.986751C0 1.47734 0.244292 1.9336 0.685292 1.9336H2.7733L5.65715 14.3441H14.8809C15.3231 14.3441 15.6947 14.191 15.6793 13.2714C15.6797 13.0238 15.5928 12.786 15.4372 12.6089C15.2817 12.4319 15.0699 12.3298 14.8474 12.3245H6.9763L6.78086 11.2146H15.6742L18 2.42561ZM6.28844 9.43396L5.229 4.6926H15.6793L14.4797 9.43396H6.28844Z" fill="#191A4E"/>
</g>
<defs>
<clipPath id="clip0_4578_1744">
<rect width="18" height="18" fill="white"/>
</clipPath>
</defs>
</svg>
