<svg width="18" height="18" viewBox="0 0 18 18" fill="none" xmlns="http://www.w3.org/2000/svg">
<g clip-path="url(#clip0_4578_1712)">
<path d="M0 0V14.3577L8.96267 18L18.0072 14.3591V0.00563291L8.97272 3.64368L0 0ZM16.1279 2.7391V13.1319L9.89582 15.6441V5.24994L16.1279 2.7391ZM1.86057 2.7391L8.0252 5.24289V15.6343L1.86057 13.1291V2.7391Z" fill="#191A4E"/>
<path d="M6.72434 8.14692C6.63816 8.14695 6.55266 8.13216 6.47168 8.10323L2.7706 6.80272C2.67406 6.77348 2.58456 6.72537 2.50749 6.66125C2.43042 6.59713 2.36738 6.51834 2.32219 6.42966C2.27699 6.34097 2.25056 6.24422 2.24451 6.14524C2.23846 6.04626 2.25289 5.9471 2.28696 5.85375C2.32103 5.76039 2.37403 5.67478 2.44274 5.60207C2.51144 5.52937 2.59444 5.47108 2.68673 5.43072C2.77901 5.39036 2.87867 5.36879 2.9797 5.36727C3.08072 5.36576 3.18101 5.38433 3.27451 5.4219L6.97558 6.72242C7.14166 6.78032 7.28153 6.89403 7.37039 7.04341C7.45926 7.19279 7.49141 7.3682 7.46115 7.53861C7.43089 7.70902 7.34018 7.86344 7.20507 7.97452C7.06996 8.08559 6.89916 8.14615 6.72292 8.1455L6.72434 8.14692Z" fill="#191A4E"/>
<path d="M6.72434 10.5434C6.63817 10.5434 6.55268 10.5286 6.47168 10.4997L2.7706 9.1992C2.67406 9.16997 2.58456 9.12186 2.50749 9.05774C2.43042 8.99362 2.36738 8.91483 2.32219 8.82614C2.27699 8.73746 2.25056 8.64071 2.24451 8.54172C2.23846 8.44274 2.25289 8.34358 2.28696 8.25023C2.32103 8.15688 2.37403 8.07126 2.44274 7.99856C2.51144 7.92585 2.59444 7.86756 2.68673 7.8272C2.77901 7.78685 2.87867 7.76527 2.9797 7.76376C3.08072 7.76224 3.18101 7.78082 3.27451 7.81839L6.97558 9.1189C7.14001 9.17822 7.278 9.2923 7.36551 9.44125C7.45301 9.5902 7.48448 9.76455 7.4544 9.93393C7.42433 10.1033 7.33463 10.257 7.20095 10.3681C7.06727 10.4792 6.8981 10.5408 6.72292 10.542L6.72434 10.5434Z" fill="#191A4E"/>
<path d="M6.72434 12.9418C6.63809 12.9413 6.55259 12.926 6.47168 12.8967L2.7706 11.5962C2.67406 11.5669 2.58456 11.5188 2.50749 11.4547C2.43042 11.3906 2.36738 11.3118 2.32219 11.2231C2.27699 11.1344 2.25056 11.0377 2.24451 10.9387C2.23846 10.8397 2.25289 10.7406 2.28696 10.6472C2.32103 10.5538 2.37403 10.4682 2.44274 10.3955C2.51144 10.3228 2.59444 10.2645 2.68673 10.2242C2.77901 10.1838 2.87867 10.1622 2.9797 10.1607C3.08072 10.1592 3.18101 10.1778 3.27451 10.2154L6.97558 11.5159C7.142 11.5738 7.28216 11.6877 7.37125 11.8373C7.46034 11.987 7.49261 12.1627 7.46236 12.3335C7.4321 12.5042 7.34126 12.659 7.20592 12.7703C7.07059 12.8816 6.90093 12.9424 6.72434 12.9418Z" fill="#191A4E"/>
<path d="M11.2781 8.14697C11.1019 8.14761 10.9311 8.08705 10.796 7.97598C10.6609 7.86491 10.5702 7.71049 10.5399 7.54008C10.5096 7.36967 10.5418 7.19425 10.6307 7.04487C10.7195 6.89549 10.8594 6.78178 11.0255 6.72388L14.7265 5.42337C14.82 5.3858 14.9203 5.36722 15.0213 5.36874C15.1224 5.37025 15.222 5.39183 15.3143 5.43218C15.4066 5.47254 15.4896 5.53083 15.5583 5.60354C15.627 5.67624 15.68 5.76186 15.7141 5.85521C15.7482 5.94856 15.7626 6.04772 15.7565 6.1467C15.7505 6.24569 15.7241 6.34244 15.6789 6.43112C15.6337 6.51981 15.5706 6.5986 15.4936 6.66272C15.4165 6.72684 15.327 6.77497 15.2304 6.80421L11.5322 8.1047C11.4507 8.13328 11.3647 8.14759 11.2781 8.14697Z" fill="#191A4E"/>
<path d="M11.2782 10.5449C11.1031 10.5437 10.9339 10.4821 10.8002 10.371C10.6665 10.2599 10.5768 10.1062 10.5467 9.93686C10.5167 9.76748 10.5481 9.59313 10.6356 9.44418C10.7231 9.29523 10.8611 9.18115 11.0256 9.12183L14.7266 7.82132C14.8201 7.78375 14.9204 7.76517 15.0215 7.76669C15.1225 7.7682 15.2221 7.78978 15.3144 7.83013C15.4067 7.87049 15.4897 7.92878 15.5584 8.00149C15.6271 8.07419 15.6801 8.15981 15.7142 8.25316C15.7483 8.34651 15.7627 8.44567 15.7566 8.54465C15.7506 8.64364 15.7242 8.74039 15.679 8.82907C15.6338 8.91776 15.5707 8.99655 15.4937 9.06067C15.4166 9.12479 15.3271 9.1729 15.2305 9.20213L11.5266 10.5026C11.4469 10.5305 11.3629 10.5448 11.2782 10.5449Z" fill="#191A4E"/>
<path d="M11.2782 12.9418C11.1024 12.9415 10.9322 12.8803 10.7977 12.7691C10.6632 12.6579 10.573 12.5037 10.5428 12.3337C10.5127 12.1636 10.5445 11.9885 10.6328 11.8393C10.7211 11.69 10.8602 11.576 11.0256 11.5173L14.7266 10.2168C14.8201 10.1793 14.9204 10.1607 15.0214 10.1622C15.1225 10.1637 15.2221 10.1853 15.3144 10.2256C15.4067 10.266 15.4897 10.3243 15.5584 10.397C15.6271 10.4697 15.6801 10.5553 15.7142 10.6487C15.7483 10.742 15.7627 10.8412 15.7566 10.9402C15.7506 11.0391 15.7242 11.1359 15.679 11.2246C15.6338 11.3133 15.5707 11.3921 15.4937 11.4562C15.4166 11.5203 15.3271 11.5684 15.2305 11.5977L11.5295 12.8982C11.4489 12.9268 11.3639 12.9416 11.2782 12.9418Z" fill="#191A4E"/>
</g>
<defs>
<clipPath id="clip0_4578_1712">
<rect width="18" height="18" fill="white"/>
</clipPath>
</defs>
</svg>
