<svg width="44" height="44" viewBox="0 0 44 44" fill="none" xmlns="http://www.w3.org/2000/svg">
<path d="M9.16797 11.0001C9.32775 8.39776 9.76617 6.74061 10.9692 5.54615C12.862 3.66675 15.9084 3.66675 22.0013 3.66675C28.0942 3.66675 31.1406 3.66675 33.0334 5.54615C34.2364 6.74061 34.6749 8.39776 34.8346 11.0001M34.8346 33.0001C34.6749 35.6024 34.2364 37.2595 33.0334 38.454C31.1406 40.3334 28.0942 40.3334 22.0013 40.3334C15.9084 40.3334 12.862 40.3334 10.9692 38.454C9.76617 37.2596 9.32775 35.6024 9.16797 33.0001" stroke="white" stroke-width="3" stroke-linecap="round"/>
<path d="M20.168 34.8335H23.8346" stroke="white" stroke-width="3" stroke-linecap="round" stroke-linejoin="round"/>
<path d="M32.0846 16.5L34.8955 19.4073C36.0771 20.6295 36.668 21.2406 36.668 22C36.668 22.7594 36.0771 23.3705 34.8955 24.5927L32.0846 27.5" stroke="white" stroke-width="3" stroke-linecap="round" stroke-linejoin="round"/>
<path d="M11.9173 16.5L9.1065 19.4073C7.92482 20.6295 7.33398 21.2406 7.33398 22C7.33398 22.7594 7.92482 23.3705 9.10649 24.5927L11.9173 27.5" stroke="white" stroke-width="3" stroke-linecap="round" stroke-linejoin="round"/>
</svg>
