<svg width="18" height="18" viewBox="0 0 18 18" fill="none" xmlns="http://www.w3.org/2000/svg">
<g clip-path="url(#clip0_4578_1754)">
<path d="M2.34057 10.2546C2.32116 10.0053 2.34327 9.75277 2.40504 9.51917C2.4668 9.28556 2.56634 9.07807 2.69481 8.91488C3.49291 7.95334 5.42927 6.76268 9.42411 9.55595C9.54925 9.63718 9.6507 9.7821 9.71012 9.96461C9.76954 10.1471 9.78306 10.3551 9.74815 10.5511C9.73877 10.6039 9.72101 10.6527 9.69641 10.6934C9.67181 10.7341 9.64103 10.7655 9.60663 10.7851C9.44355 10.8956 8.75346 11.1505 6.74578 9.82356L6.54058 9.68574C6.45601 9.62882 6.36461 9.59755 6.27178 9.5938C6.17894 9.59005 6.08654 9.61391 6 9.66393C5.91346 9.71395 5.83457 9.78914 5.76791 9.88509C5.70124 9.98103 5.64816 10.0957 5.61182 10.2225C5.53502 10.4803 5.52884 10.7723 5.59455 11.0367C5.66026 11.3011 5.79269 11.5172 5.96388 11.6393C6.0384 11.6905 6.11185 11.7402 6.17989 11.7883C8.04177 13.0239 9.31179 13.3316 10.1693 12.7498C10.3831 12.6087 10.5743 12.4018 10.7303 12.143C10.8863 11.8842 11.0036 11.5792 11.0743 11.2482C11.2254 10.553 11.1999 9.79979 11.0025 9.13056C10.8052 8.46133 10.4497 7.92235 10.003 7.61524C5.5632 4.50467 3.10087 5.69214 1.81785 7.23221C1.50053 7.62118 1.25372 8.12161 1.09982 8.68805C0.945924 9.2545 0.889836 9.86899 0.936613 10.4758L1.28973 15.6296L0.624498 15.7354C0.443068 15.7679 0.276658 15.9014 0.158863 16.1087C0.0410673 16.3161 -0.019383 16.5819 -0.0103456 16.8528C-0.00130808 17.1236 0.0765535 17.3793 0.207575 17.5684C0.338596 17.7574 0.513043 17.8658 0.695754 17.8716C0.720214 17.8736 0.744724 17.8736 0.769185 17.8716L2.1332 17.6552C2.22563 17.6401 2.3151 17.5978 2.39634 17.5306C2.47757 17.4635 2.54891 17.3729 2.60622 17.2643C2.72379 17.0418 2.7784 16.7602 2.75848 16.479L2.34057 10.2546Z" fill="#191A4E"/>
<path d="M17.8024 9.31219L17.7851 9.22239C17.7361 8.91858 17.6438 8.63388 17.5143 8.38756C17.3848 8.14124 17.2212 7.93904 17.0345 7.79452C16.7965 7.6454 16.5394 7.57527 16.2812 7.58912C16.023 7.60296 15.77 7.70041 15.5399 7.87463C13.6769 9.02047 12.6466 9.69194 12.6369 9.69835C12.4645 9.81575 12.3296 10.028 12.2607 10.2902C12.1917 10.5525 12.1942 10.8442 12.2675 11.1038C12.3022 11.2317 12.3539 11.3479 12.4194 11.4458C12.4849 11.5436 12.5629 11.6211 12.6488 11.6735C12.7348 11.7259 12.8269 11.7523 12.9198 11.751C13.0127 11.7498 13.1045 11.721 13.1898 11.6663C13.1995 11.6663 14.218 10.9949 16.0658 9.85867C16.1746 9.78359 16.2917 9.73851 16.4114 9.72564C16.4226 9.7607 16.4316 9.79716 16.4384 9.8346L16.4557 9.92596C16.5237 10.2315 16.5739 10.5451 16.6058 10.8634L16.5615 10.8923L8.25648 15.7689L4.88913 13.3731C4.80521 13.3143 4.71422 13.281 4.6215 13.2752C4.52879 13.2694 4.43622 13.2911 4.34927 13.3392C4.26231 13.3873 4.18274 13.4607 4.1152 13.5551C4.04766 13.6495 3.99352 13.7631 3.95601 13.889C3.87697 14.1452 3.8682 14.4369 3.93149 14.7025C3.99477 14.968 4.12519 15.1867 4.29515 15.3121L7.93355 17.9002C8.01888 17.9611 8.11177 17.9951 8.20638 18.0001C8.30099 18.0051 8.39529 17.9808 8.4833 17.9291L17.0659 12.8907C18.3565 12.1327 17.9957 10.2978 17.8024 9.31219Z" fill="#191A4E"/>
<path d="M10.3215 5.56088L11.584 5.83818L11.6919 6.66509C11.7195 6.87576 11.7897 7.06898 11.8931 7.219C11.9965 7.36902 12.1283 7.46869 12.2708 7.50481C12.413 7.53859 12.5588 7.50562 12.6878 7.41052C12.8167 7.31542 12.9224 7.16295 12.9901 6.97437L13.2741 6.20996L14.1543 6.40383C14.2993 6.43445 14.4471 6.3966 14.5768 6.29565C14.7065 6.19469 14.8114 6.03572 14.8768 5.84131C14.9444 5.64467 14.9701 5.4223 14.9509 5.20347C14.9316 4.98465 14.8681 4.7797 14.7688 4.61542L14.2083 3.69716L14.7051 2.35898C14.7789 2.16026 14.8092 1.93238 14.7918 1.70696C14.7744 1.48154 14.7101 1.26969 14.6079 1.10091C14.5078 0.935325 14.3741 0.822683 14.227 0.77989C14.0799 0.737098 13.9273 0.766565 13.7925 0.863814L12.8821 1.52405L12.1585 0.339733C12.0558 0.169653 11.9177 0.0554667 11.7662 0.0153858C11.6147 -0.024695 11.4586 0.0116362 11.3226 0.118578C11.1853 0.229358 11.0757 0.402821 11.01 0.613217C10.9442 0.823614 10.9258 1.05978 10.9576 1.28685L11.1606 2.77243L10.1163 3.53048C9.97952 3.63228 9.86789 3.79543 9.79731 3.99685C9.72672 4.19828 9.70077 4.42761 9.72315 4.6522C9.74294 4.87948 9.81205 5.09111 9.91998 5.25502C10.0279 5.41893 10.1688 5.52625 10.3215 5.56088Z" fill="#191A4E"/>
</g>
<defs>
<clipPath id="clip0_4578_1754">
<rect width="18" height="18" fill="white"/>
</clipPath>
</defs>
</svg>
