<svg width="28" height="28" viewBox="0 0 28 28" fill="none" xmlns="http://www.w3.org/2000/svg">
<path d="M7.67958 8.44413C11.1878 9.06263 13.2788 10.3564 14 11.0991C14.7212 10.3564 16.8121 9.06263 20.3204 8.44413C22.0977 8.1308 22.9864 7.97414 23.7432 8.57461C24.5 9.1751 24.5 10.1502 24.5 12.1004V19.1089C24.5 20.8922 24.5 21.7837 24.0143 22.3403C23.5285 22.897 22.4591 23.0855 20.3204 23.4626C18.4138 23.7987 16.9259 24.3342 15.8488 24.8724C14.7892 25.4019 14.2593 25.6666 14 25.6666C13.7406 25.6666 13.2108 25.4019 12.1512 24.8724C11.0741 24.3342 9.58615 23.7987 7.67958 23.4626C5.54084 23.0855 4.47146 22.897 3.98573 22.3403C3.5 21.7837 3.5 20.8922 3.5 19.1089V12.1004C3.5 10.1502 3.5 9.1751 4.25682 8.57461C5.01364 7.97414 5.90229 8.1308 7.67958 8.44413Z" stroke="#191A4E" stroke-width="1.5" stroke-linecap="round" stroke-linejoin="round"/>
<path d="M14 10.5V25.6667" stroke="#191A4E" stroke-width="1.5" stroke-linejoin="round"/>
<path d="M9.91602 3.56837C11.0959 2.78601 12.4931 2.33337 13.9907 2.33337C15.4956 2.33337 16.8991 2.79044 18.0827 3.57985M15.8919 6.41671C15.3318 6.07866 14.6827 5.88539 13.9907 5.88539C13.3061 5.88539 12.6635 6.07457 12.1075 6.40595" stroke="#191A4E" stroke-width="1.5" stroke-linecap="round"/>
</svg>
