<svg width="58" height="59" viewBox="0 0 58 59" fill="none" xmlns="http://www.w3.org/2000/svg">
<rect x="5" y="5.20801" width="48" height="48" rx="24" stroke="white" stroke-opacity="0.4" stroke-width="10"/>
<rect x="8" y="8.20801" width="42" height="42" rx="21" fill="black"/>
<path d="M29 8.20801C24.8466 8.20801 20.7865 9.43964 17.333 11.7471C13.8796 14.0547 11.188 17.3344 9.59854 21.1717C8.0091 25.0089 7.59323 29.2313 8.40352 33.3049C9.21381 37.3785 11.2139 41.1203 14.1508 44.0573C17.0877 46.9942 20.8295 48.9942 24.9031 49.8045C28.9767 50.6148 33.1991 50.1989 37.0364 48.6095C40.8736 47.02 44.1534 44.3284 46.4609 40.875C48.7684 37.4216 50 33.3614 50 29.208C50 23.6385 47.7875 18.297 43.8493 14.3588C39.911 10.4205 34.5696 8.20801 29 8.20801ZM40.1705 30.5505L22.1705 39.5505C21.9418 39.6648 21.6876 39.7187 21.4321 39.7072C21.1767 39.6956 20.9284 39.6189 20.711 39.4844C20.4935 39.3499 20.314 39.162 20.1896 38.9386C20.0651 38.7152 19.9999 38.4637 20 38.208V20.208C20.0001 19.9524 20.0656 19.7011 20.1901 19.4779C20.3147 19.2547 20.4942 19.0671 20.7116 18.9327C20.929 18.7984 21.1772 18.7218 21.4325 18.7103C21.6878 18.6988 21.9419 18.7528 22.1705 18.867L40.1705 27.867C40.4193 27.9917 40.6285 28.1832 40.7748 28.42C40.921 28.6568 40.9984 28.9297 40.9984 29.208C40.9984 29.4863 40.921 29.7592 40.7748 29.996C40.6285 30.2328 40.4193 30.4243 40.1705 30.549" fill="white"/>
</svg>
