<svg width="22" height="22" viewBox="0 0 22 22" fill="none" xmlns="http://www.w3.org/2000/svg">
<g clip-path="url(#clip0_753_4955)">
<path d="M11.4583 2.01672C9.59089 2.01672 7.76544 2.57047 6.21276 3.60793C4.66009 4.64539 3.44993 6.11998 2.73531 7.84522C2.02069 9.57046 1.83372 11.4689 2.19802 13.3004C2.56233 15.1319 3.46157 16.8142 4.78201 18.1347C6.10245 19.4551 7.78479 20.3543 9.61629 20.7186C11.4478 21.0829 13.3462 20.896 15.0714 20.1814C16.7967 19.4667 18.2713 18.2566 19.3087 16.7039C20.3462 15.1512 20.8999 13.3258 20.8999 11.4584C20.9001 10.2185 20.6559 8.99065 20.1815 7.84508C19.707 6.69951 19.0116 5.65862 18.1348 4.78186C17.258 3.90509 16.2172 3.20963 15.0716 2.73518C13.926 2.26074 12.6982 2.0166 11.4583 2.01672ZM11.4583 19.9834C9.77219 19.9834 8.12396 19.4834 6.72204 18.5467C5.32011 17.6099 4.22744 16.2785 3.5822 14.7208C2.93696 13.163 2.76814 11.4489 3.09708 9.79525C3.42602 8.14156 4.23794 6.62255 5.43019 5.4303C6.62243 4.23806 8.14144 3.42613 9.79513 3.0972C11.4488 2.76826 13.1629 2.93708 14.7206 3.58232C16.2784 4.22755 17.6098 5.32022 18.5466 6.72215C19.4833 8.12408 19.9833 9.7723 19.9833 11.4584C19.9808 13.7186 19.0819 15.8856 17.4837 17.4838C15.8855 19.082 13.7185 19.981 11.4583 19.9834ZM11.9166 11.0001H16.4999V11.9167H11.9166V16.5001H10.9999V11.9167H6.4166V11.0001H10.9999V6.41672H11.9166V11.0001Z" fill="#191A4E" fill-opacity="0.5"/>
</g>
<defs>
<clipPath id="clip0_753_4955">
<rect width="22" height="22" fill="white"/>
</clipPath>
</defs>
</svg>
