<svg width="20" height="20" viewBox="0 0 20 20" fill="none" xmlns="http://www.w3.org/2000/svg">
<path d="M0.0585938 9.98167C0.0585938 11.4828 1.52445 12.8842 3.83539 13.6741C3.37391 15.9973 3.75273 17.8699 5.01789 18.5995C6.31828 19.3495 8.25562 18.8303 10.0945 17.2229C11.8869 18.7654 13.6984 19.3725 14.9624 18.6407C16.2616 17.8886 16.6567 15.8891 16.1825 13.4933C18.5895 12.6975 19.9359 11.5026 19.9359 9.98167C19.9359 8.51535 18.4674 7.24683 16.1876 6.46199C16.6981 3.96722 16.2655 2.14011 14.948 1.38035C13.6777 0.647846 11.8452 1.28628 10.0264 2.8691C8.13422 1.1891 6.31977 0.676206 5.00359 1.43808C3.73453 2.17269 3.37242 4.07933 3.83539 6.4455C1.60242 7.22402 0.0585938 8.52128 0.0585938 9.98167Z" fill="white"/>
<path d="M15.7046 7.23903C15.5168 7.17457 15.3273 7.11487 15.1364 7.05996C15.168 6.93132 15.1973 6.80211 15.2242 6.67238C15.6543 4.58426 15.3731 2.90207 14.4126 2.34832C13.4918 1.81723 11.9857 2.37098 10.4646 3.69465C10.3147 3.82538 10.1681 3.95988 10.025 4.09801C9.92922 4.00616 9.8317 3.91609 9.73254 3.82785C8.1384 2.41238 6.54051 1.81598 5.58105 2.37137C4.66105 2.90395 4.38855 4.48543 4.77582 6.46434C4.81435 6.66031 4.85785 6.85527 4.90629 7.04903C4.6802 7.11324 4.46184 7.18168 4.25293 7.25449C2.38402 7.90606 1.19043 8.92731 1.19043 9.98653C1.19043 11.0806 2.47168 12.1779 4.4184 12.8432C4.57625 12.8969 4.73541 12.9467 4.89574 12.9925C4.84366 13.2012 4.79741 13.4114 4.75707 13.6227C4.38785 15.5672 4.67621 17.1112 5.59379 17.6405C6.54152 18.187 8.13215 17.6253 9.68105 16.2714C9.80348 16.1643 9.92637 16.0508 10.0494 15.9318C10.2044 16.0814 10.3635 16.2266 10.5266 16.3672C12.0269 17.6582 13.5086 18.1796 14.4254 17.6489C15.3723 17.1007 15.68 15.4421 15.2804 13.424C15.25 13.2699 15.2144 13.1125 15.1746 12.9522C15.2863 12.9192 15.3959 12.8851 15.5029 12.8497C17.5266 12.1792 18.8432 11.0952 18.8432 9.98653C18.8432 8.92348 17.6112 7.89535 15.7046 7.23903Z" fill="#191A4E"/>
<path d="M15.2508 12.088C15.1698 12.1148 15.087 12.1408 15.0028 12.1662C14.7822 11.4766 14.4883 10.7456 14.1313 9.99159C14.472 9.25551 14.7542 8.53447 14.9684 7.84985C15.1317 7.89786 15.2904 7.94814 15.4437 8.00098L15.4437 8.00098C16.2568 8.28082 16.9089 8.6269 17.3566 8.98074C17.8073 9.33689 18.04 9.69196 18.04 9.98808C18.04 10.3048 17.7877 10.6839 17.3028 11.0611C16.8209 11.4359 16.1205 11.7997 15.2508 12.088ZM15.2508 12.088L15.2665 12.1354M15.2508 12.088C15.2508 12.088 15.2508 12.088 15.2508 12.088L15.2665 12.1354M15.2665 12.1354C15.17 12.1674 15.0709 12.1982 14.97 12.2282M15.2665 12.1354C17.0137 11.5564 18.09 10.6705 18.09 9.98808C18.09 9.34745 17.0936 8.51597 15.46 7.9537L14.97 12.2282M14.97 12.2282C14.7466 11.5209 14.445 10.7688 14.0761 9.99183C14.4282 9.23324 14.718 8.49081 14.9352 7.78808L14.97 12.2282ZM5.49883 13.7649L5.54794 13.7743C5.58227 13.5946 5.62117 13.4158 5.66461 13.2381C6.37109 13.3917 7.14948 13.5029 7.97939 13.5711C8.45423 14.2378 8.95086 14.8522 9.45188 15.3934C9.35418 15.4869 9.25443 15.5783 9.15272 15.6674C8.47403 16.2607 7.79615 16.6803 7.20093 16.8921H7.20088L7.1928 16.895C6.65344 17.0855 6.23862 17.0851 5.99638 16.9454C5.73831 16.7966 5.54467 16.4262 5.45729 15.8722C5.37042 15.3214 5.39085 14.6017 5.54795 13.7742L5.49883 13.7649ZM5.49883 13.7649C5.53637 13.5684 5.57936 13.3729 5.62773 13.1788L7.20945 16.9421C6.66594 17.1341 6.23305 17.1396 5.97141 16.9887C5.41453 16.6676 5.18312 15.4278 5.49883 13.7649ZM2.63674 10.9995C3.11781 11.4114 3.82249 11.791 4.67929 12.0839C4.67929 12.0839 4.67929 12.0839 4.6793 12.0839L4.66312 12.1312C4.80725 12.1802 4.95255 12.2257 5.09891 12.2676L2.63674 10.9995ZM2.63674 10.9995C2.20227 10.6273 1.99531 10.2678 1.99531 9.98808C1.99531 9.69022 2.21942 9.33744 2.65571 8.98496C3.08944 8.63455 3.72308 8.2927 4.51843 8.01539C4.70276 7.95141 4.88878 7.89242 5.07629 7.83848C5.29401 8.5385 5.57631 9.26854 5.91498 10.0065C5.57181 10.7556 5.28543 11.4974 5.06561 12.2059L2.63674 10.9995ZM5.45534 4.16501C5.37345 4.7298 5.40065 5.46757 5.56579 6.31145C5.59835 6.47692 5.6347 6.64156 5.67483 6.80535C6.38784 6.64618 7.16033 6.52671 7.96617 6.45113C8.43685 5.78841 8.92889 5.17864 9.42718 4.64002L5.45534 4.16501ZM5.45534 4.16501C5.53777 3.59652 5.72845 3.2172 5.98474 3.06885C6.25886 2.91018 6.71337 2.93861 7.28269 3.16929C7.84842 3.39852 8.51421 3.82235 9.19938 4.4307L5.45534 4.16501ZM12.6939 7.38172C12.8592 7.64343 13.0195 7.90832 13.1746 8.17622C13.1746 8.17623 13.1746 8.17623 13.1746 8.17623L13.1313 8.20128L12.6939 7.38172ZM12.6939 7.38172C13.1981 7.44834 13.6824 7.53386 14.1402 7.63658C14.001 8.07653 13.8314 8.53451 13.6341 9.00358L12.6939 7.38172ZM14.0118 3.04647C14.2862 3.20471 14.4885 3.61266 14.573 4.2211M14.0118 3.04647L14.573 4.2211M14.0118 3.04647L14.0368 3.00316L14.573 4.2211M14.0118 3.04647C13.7553 2.89852 13.3314 2.92275 12.7977 3.13523C12.2675 3.34632 11.6419 3.73832 10.9933 4.30283C10.8679 4.41227 10.7449 4.52454 10.6246 4.63954C11.115 5.17165 11.603 5.78252 12.0744 6.45219C12.8825 6.52892 13.6555 6.65049 14.3701 6.81293C14.3941 6.71287 14.4165 6.61243 14.4374 6.51166C14.6223 5.6142 14.657 4.82571 14.573 4.2211M11.0519 15.7592L11.0193 15.7971L11.0519 15.7592C10.9171 15.6433 10.7814 15.52 10.6452 15.3901C11.1288 14.8573 11.6116 14.242 12.0829 13.5613C12.911 13.4869 13.6949 13.3672 14.4091 13.2048C14.4401 13.3329 14.4681 13.4586 14.4924 13.5818C14.6683 14.47 14.6927 15.2701 14.5772 15.8928C14.4728 16.4552 14.2653 16.8144 14.0233 16.9545C13.7655 17.1037 13.3479 17.0865 12.8242 16.8856C12.3036 16.6858 11.6903 16.3086 11.0519 15.7592ZM6.85762 8.18146L6.85762 8.18147C6.70188 8.45161 6.55182 8.72497 6.40753 9.00139C6.21366 8.53403 6.04572 8.07437 5.90566 7.62886C6.36033 7.52887 6.84195 7.44559 7.34255 7.38019C7.1753 7.64384 7.01362 7.91099 6.85762 8.18146ZM6.86071 11.8314L6.90398 11.8064L6.86071 11.8314C7.02101 12.1082 7.18724 12.3816 7.35928 12.6513C6.84163 12.5906 6.35149 12.5113 5.89535 12.414C6.03795 11.9596 6.20994 11.4891 6.40846 11.0107C6.55342 11.2874 6.7042 11.561 6.86071 11.8314ZM12.4378 11.3994L12.4378 11.3995C12.175 11.856 11.8976 12.3039 11.6062 12.7427C11.0913 12.7789 10.5595 12.7975 10.0177 12.7975C9.47803 12.7975 8.95291 12.781 8.4469 12.7487C8.14796 12.311 7.86544 11.8623 7.59991 11.4035L7.59991 11.4035C7.33561 10.9471 7.08847 10.481 6.85902 10.0062C7.0788 9.55003 7.31475 9.10185 7.56641 8.66249L7.59769 8.6082C7.86102 8.15136 8.14134 7.70452 8.43807 7.26864C8.95422 7.23022 9.48314 7.21011 10.0177 7.21011C10.5547 7.21011 11.0843 7.23036 11.6002 7.26908C11.894 7.70428 12.1726 8.14957 12.4354 8.60412L12.4354 8.60418C12.6997 9.05992 12.9494 9.524 13.184 9.99573C12.9518 10.4722 12.7028 10.9404 12.4378 11.3994ZM12.4787 8.57909C12.7476 9.04285 13.0014 9.51524 13.2397 9.9955C13.0039 10.4807 12.7508 10.9573 12.4811 11.4244L12.4787 8.57909ZM9.08313 6.37565C9.39263 5.9724 9.7085 5.59569 10.026 5.25054C10.3388 5.59211 10.6519 5.96931 10.961 6.3761C10.3353 6.34953 9.7088 6.34938 9.08313 6.37565ZM10.9808 13.6323C10.6705 14.0492 10.3579 14.4329 10.0466 14.7786C9.72469 14.4286 9.40365 14.0455 9.08889 13.6355C9.39349 13.6462 9.70332 13.6516 10.0177 13.6516C10.3424 13.6516 10.6639 13.6451 10.9808 13.6323ZM13.1777 11.8261C13.3382 11.5478 13.4931 11.2663 13.6423 10.9817C13.8513 11.4654 14.0298 11.9341 14.1748 12.382C13.7106 12.4859 13.2131 12.5713 12.6907 12.637C12.8578 12.3696 13.0202 12.0993 13.1777 11.8261Z" fill="white" stroke="#191A4E" stroke-width="0.1"/>
<path d="M10.0177 8.41016C10.8884 8.41016 11.5941 9.11594 11.5941 9.98648C11.5941 10.8571 10.8884 11.5629 10.0177 11.5629C9.14719 11.5629 8.44141 10.8571 8.44141 9.98648C8.44141 9.11594 9.14719 8.41016 10.0177 8.41016Z" fill="#191A4E"/>
</svg>
