<svg width="18" height="18" viewBox="0 0 18 18" fill="none" xmlns="http://www.w3.org/2000/svg">
<g clip-path="url(#clip0_4578_1773)">
<path d="M14.6784 17.3974H15.774C15.8403 17.3981 15.9061 17.3881 15.9676 17.368C16.0291 17.348 16.0851 17.3182 16.1322 17.2806C16.1794 17.2429 16.2169 17.198 16.2424 17.1485C16.268 17.0991 16.2812 17.046 16.2812 16.9924V7.08674L16.5488 7.29051C16.6326 7.35444 16.7317 7.40387 16.8399 7.43577C16.9481 7.46767 17.0633 7.48138 17.1783 7.47605C17.2933 7.47072 17.4058 7.44646 17.5088 7.40476C17.6118 7.36307 17.7033 7.30481 17.7775 7.23356C17.9306 7.08621 18.0088 6.89734 17.9963 6.70514C17.9838 6.51294 17.8816 6.33175 17.7102 6.19819L9.86377 0.268228C9.64062 0.0966536 9.34447 0.000976563 9.03655 0.000976563C8.72863 0.000976562 8.43248 0.0966536 8.20933 0.268228L0.292483 6.19819C0.120437 6.33125 0.0172906 6.51218 0.00392429 6.70439C-0.00944201 6.8966 0.0679369 7.08574 0.22045 7.23356C0.294337 7.30508 0.385521 7.36365 0.488374 7.40568C0.591227 7.44772 0.703605 7.47233 0.818632 7.47802C0.933659 7.48371 1.04893 7.47034 1.15735 7.43876C1.26577 7.40717 1.36504 7.35802 1.44915 7.29432L1.55558 7.21457V17.1974V17.3556L1.56656 17.629C1.56655 17.7287 1.61494 17.8243 1.70131 17.8953C1.78769 17.9664 1.9051 18.0071 2.02827 18.0088H15.81C15.8726 18.0088 15.9346 17.9987 15.9923 17.979C16.05 17.9594 16.1022 17.9306 16.146 17.8944C16.1897 17.8582 16.2241 17.8153 16.2471 17.7682C16.27 17.7211 16.2811 17.6708 16.2796 17.6202V16.3848C16.2796 16.2774 16.2268 16.1744 16.1329 16.0984C16.039 16.0225 15.9116 15.9798 15.7787 15.9798H14.7864C14.5093 15.9798 14.5375 16.1608 14.5375 16.3848H3.54343V5.97669L9.04515 2.03266L14.3403 5.83999V17.0012C14.3403 17.2139 14.4044 17.3949 14.6784 17.3974Z" fill="#191A4E"/>
<path d="M8.6333 9.51991H10.3128C10.4996 9.51991 10.6786 9.45994 10.8107 9.35312C10.9428 9.2463 11.017 9.10138 11.017 8.95032C11.017 8.79926 10.9428 8.65441 10.8107 8.54759C10.6786 8.44077 10.4996 8.3808 10.3128 8.3808H10.0294V7.56561C10.0294 7.41455 9.95516 7.2697 9.82307 7.16289C9.69098 7.05607 9.51196 6.99609 9.32515 6.99609C9.13835 6.99609 8.95913 7.05607 8.82704 7.16289C8.69495 7.2697 8.62069 7.41455 8.62069 7.56561V8.38713C7.70347 8.38713 7.01325 8.81872 7.01325 9.38704V10.5262C7.01325 11.0958 7.70814 11.5261 8.63005 11.5261H9.39547C9.46689 11.5255 9.53806 11.5332 9.60678 11.5489V12.2691C9.53805 12.2848 9.46688 12.2924 9.39547 12.2919H7.71599C7.52919 12.2919 7.35016 12.3519 7.21807 12.4587C7.08598 12.5656 7.01172 12.7104 7.01172 12.8615C7.01172 13.0125 7.08598 13.1574 7.21807 13.2642C7.35016 13.371 7.52919 13.4311 7.71599 13.4311H8.62069V14.3449C8.62069 14.496 8.69495 14.6408 8.82704 14.7476C8.95913 14.8544 9.13835 14.9145 9.32515 14.9145C9.51196 14.9145 9.69098 14.8544 9.82307 14.7476C9.95516 14.6408 10.0294 14.496 10.0294 14.3449V13.3564C10.2962 13.3099 10.5368 13.1943 10.7148 13.027C10.8928 12.8598 10.9984 12.6501 11.0155 12.4298V11.3907C11.0155 10.8211 10.3206 10.3907 9.39871 10.3907H8.6333C8.5619 10.3912 8.49075 10.3836 8.42198 10.368V9.54649C8.49049 9.52953 8.56166 9.52058 8.6333 9.51991Z" fill="#191A4E"/>
</g>
<defs>
<clipPath id="clip0_4578_1773">
<rect width="18" height="18" fill="white"/>
</clipPath>
</defs>
</svg>
