<svg width="18" height="18" viewBox="0 0 18 18" fill="none" xmlns="http://www.w3.org/2000/svg">
<g clip-path="url(#clip0_4578_1750)">
<path d="M10.389 7.76029H10.4684C10.9176 7.75089 11.3471 7.5805 11.6726 7.28245L15.0321 4.31912C15.0928 4.266 15.1416 4.20172 15.1761 4.13014C15.2106 4.05855 15.23 3.98103 15.2329 3.90218C15.2358 3.82333 15.2224 3.74471 15.1933 3.67093C15.1642 3.59716 15.1201 3.52978 15.0635 3.47263C14.9485 3.35586 14.7903 3.28722 14.6232 3.28155C14.4561 3.27589 14.2933 3.33364 14.17 3.44234L10.7983 6.41619C10.783 6.42722 10.7692 6.44004 10.7572 6.45436C10.5779 6.60707 10.1276 6.66768 9.41334 6.18454L12.6825 3.11844C12.7413 3.06326 12.7879 2.99736 12.8198 2.92456C12.8517 2.85176 12.8681 2.77359 12.8681 2.69459C12.8681 2.6156 12.8517 2.53735 12.8198 2.46455C12.7879 2.39175 12.7413 2.32585 12.6825 2.27066C12.5631 2.15833 12.4027 2.09542 12.2357 2.09542C12.0687 2.09542 11.9084 2.15833 11.789 2.27066L8.4911 5.3644C8.25936 5.10942 8.13277 4.78156 8.1353 4.44286C8.1962 4.0586 8.40717 3.7111 8.72512 3.47126C8.74683 3.45645 8.7673 3.44019 8.78659 3.42257L11.4235 1.04106C11.4833 0.987218 11.5315 0.922457 11.565 0.850549C11.5985 0.778641 11.6169 0.701066 11.619 0.622273C11.621 0.543481 11.6066 0.465091 11.5769 0.391667C11.5471 0.318243 11.5024 0.251286 11.4454 0.194648C11.3287 0.0796413 11.1699 0.0131306 11.0029 0.0094396C10.8359 0.00574864 10.674 0.0651517 10.5519 0.174881L7.93953 2.53526C7.64517 2.75383 7.39954 3.027 7.2169 3.3386C7.03427 3.65021 6.91838 3.9939 6.87631 4.34933C6.86134 4.69067 6.91708 5.03149 7.04017 5.35195C7.16327 5.67241 7.35133 5.96616 7.59342 6.21612L0.18345 13.1684C0.124904 13.2235 0.0783973 13.2893 0.0466431 13.362C0.014889 13.4347 -0.00146484 13.5127 -0.00146484 13.5916C-0.00146484 13.6704 0.014889 13.7485 0.0466431 13.8211C0.0783973 13.8938 0.124904 13.9597 0.18345 14.0149C0.302857 14.1272 0.46328 14.1901 0.630287 14.1901C0.797293 14.1901 0.957716 14.1272 1.07712 14.0149L8.51031 7.03762C9.03682 7.47092 9.69713 7.7249 10.389 7.76029Z" fill="#191A4E"/>
<path d="M17.8332 5.17201C17.7185 5.05499 17.5607 4.98589 17.3937 4.97949C17.2266 4.97309 17.0637 5.02991 16.9397 5.13778L9.77741 11.3989C9.16798 11.0181 8.44882 10.8328 7.72313 10.8694C6.99744 10.9061 6.30247 11.1628 5.73784 11.6029C4.929 12.3185 4.3085 13.2088 3.92745 14.2004C3.65658 14.6762 3.52229 15.2129 3.53841 15.7552C3.55452 16.2975 3.72048 16.8259 4.01915 17.2861C4.26221 17.5322 4.55909 17.7233 4.88827 17.8455C5.21745 17.9678 5.5707 18.0182 5.92259 17.9931C6.33751 17.9889 6.75066 17.94 7.15419 17.847C8.20899 17.6196 9.20214 17.1808 10.0689 16.5594C10.7225 16.0493 11.1497 15.3188 11.2636 14.5165C11.3775 13.7141 11.1695 12.9002 10.6819 12.2401L17.7976 6.01987C17.859 5.96708 17.9089 5.90292 17.9441 5.83129C17.9793 5.75965 17.9993 5.68194 18.0027 5.60277C18.0062 5.5236 17.993 5.44461 17.9641 5.3704C17.9352 5.29618 17.8911 5.22827 17.8345 5.17073L17.8332 5.17201ZM9.26426 15.634C8.54751 16.1351 7.73232 16.4908 6.86821 16.6793C5.95686 16.8807 5.25761 16.8214 4.99351 16.5213C4.7294 16.2211 4.76493 15.4839 5.10977 14.6256C5.41568 13.8306 5.90562 13.113 6.54248 12.5271C6.92489 12.2258 7.40418 12.0615 7.89853 12.0624C7.96512 12.0624 8.03273 12.0655 8.10115 12.0716C8.66181 12.1191 9.17999 12.3785 9.54205 12.793C9.71984 12.9963 9.85376 13.2317 9.93593 13.4854C10.0181 13.7391 10.0469 14.0059 10.0206 14.2704C9.99438 14.5349 9.91366 14.7917 9.78309 15.0258C9.65252 15.2599 9.47465 15.4667 9.26008 15.634H9.26426Z" fill="#191A4E"/>
</g>
<defs>
<clipPath id="clip0_4578_1750">
<rect width="18" height="18" fill="white"/>
</clipPath>
</defs>
</svg>
