<svg width="18" height="18" viewBox="0 0 18 18" fill="none" xmlns="http://www.w3.org/2000/svg">
<path fill-rule="evenodd" clip-rule="evenodd" d="M12.2695 0.527344V3.30469C10.0898 3.30469 7.91016 3.30469 5.73047 3.30469V0.527344L6.54785 0.808629L7.36523 0.527344L8.18262 0.808629L9 0.527344L9.81738 0.808629L10.6348 0.527344L11.4521 0.808629L12.2695 0.527344Z" stroke="#191A4E" stroke-miterlimit="22.9256" stroke-linecap="round" stroke-linejoin="round"/>
<path d="M11.7422 14.625V16.6289C11.7422 17.093 11.3625 17.4727 10.8984 17.4727H7.10156C6.6375 17.4727 6.25781 17.093 6.25781 16.6289V14.6953" stroke="#191A4E" stroke-miterlimit="22.9256" stroke-linecap="round" stroke-linejoin="round"/>
<path d="M9.63281 14.6953V17.1562" stroke="#191A4E" stroke-miterlimit="22.9256" stroke-linecap="round" stroke-linejoin="round"/>
<path fill-rule="evenodd" clip-rule="evenodd" d="M5.23828 3.30469H12.7617C13.3426 3.30469 13.8164 3.77856 13.8164 4.35938V8.27859C13.8164 8.50584 13.7544 8.70117 13.6234 8.8868L13.3945 9.21104V13.5352C13.3945 14.116 12.9207 14.5898 12.3398 14.5898H5.66016C5.07934 14.5898 4.60547 14.116 4.60547 13.5352V9.21101L4.3766 8.88676C4.24554 8.70107 4.18359 8.50588 4.18359 8.27856V4.35938C4.18359 3.77845 4.65739 3.30469 5.23828 3.30469Z" stroke="#191A4E" stroke-miterlimit="22.9256" stroke-linecap="round" stroke-linejoin="round"/>
<path d="M11.2852 5.41406H6.71484V8.26172H11.2852V5.41406Z" stroke="#191A4E" stroke-miterlimit="22.9256" stroke-linecap="round" stroke-linejoin="round"/>
<path d="M6.71484 10.3711H6.89062" stroke="#191A4E" stroke-miterlimit="22.9256" stroke-linecap="round" stroke-linejoin="round"/>
<path d="M8.91211 10.3711H9.08789" stroke="#191A4E" stroke-miterlimit="22.9256" stroke-linecap="round" stroke-linejoin="round"/>
<path d="M11.1094 10.3711H11.2852" stroke="#191A4E" stroke-miterlimit="22.9256" stroke-linecap="round" stroke-linejoin="round"/>
<path d="M6.71484 12.4805H6.89062" stroke="#191A4E" stroke-miterlimit="22.9256" stroke-linecap="round" stroke-linejoin="round"/>
<path d="M8.91211 12.4805H9.08789" stroke="#191A4E" stroke-miterlimit="22.9256" stroke-linecap="round" stroke-linejoin="round"/>
<path d="M11.1094 12.4805H11.2852" stroke="#191A4E" stroke-miterlimit="22.9256" stroke-linecap="round" stroke-linejoin="round"/>
</svg>
