<svg width="20" height="21" viewBox="0 0 20 21" fill="none" xmlns="http://www.w3.org/2000/svg">
<g clip-path="url(#clip0_638_21475)">
<path fill-rule="evenodd" clip-rule="evenodd" d="M13.0893 9.73715C13.2455 9.89343 13.3333 10.1054 13.3333 10.3263C13.3333 10.5473 13.2455 10.7592 13.0893 10.9155L8.37512 15.6297C8.29825 15.7092 8.2063 15.7727 8.10463 15.8164C8.00296 15.8601 7.89361 15.8831 7.78296 15.884C7.67231 15.885 7.56258 15.8639 7.46016 15.822C7.35775 15.7801 7.2647 15.7182 7.18646 15.64C7.10822 15.5617 7.04634 15.4687 7.00444 15.3663C6.96254 15.2639 6.94145 15.1541 6.94241 15.0435C6.94338 14.9328 6.96636 14.8235 7.01004 14.7218C7.05371 14.6201 7.1172 14.5282 7.19679 14.4513L11.3218 10.3263L7.19679 6.20132C7.04499 6.04415 6.961 5.83365 6.96289 5.61515C6.96479 5.39666 7.05243 5.18765 7.20694 5.03314C7.36145 4.87863 7.57046 4.79099 7.78896 4.78909C8.00745 4.7872 8.21795 4.87119 8.37512 5.02299L13.0893 9.73715Z" fill="white"/>
</g>
<defs>
<clipPath id="clip0_638_21475">
<rect width="20" height="20" fill="white" transform="translate(0 0.328125)"/>
</clipPath>
</defs>
</svg>
