<svg width="18" height="18" viewBox="0 0 18 18" fill="none" xmlns="http://www.w3.org/2000/svg">
<g clip-path="url(#clip0_4578_1765)">
<path d="M5.81009 11.1635C5.81087 11.084 5.79341 11.0051 5.75894 10.9314C5.72448 10.8577 5.67364 10.7906 5.60917 10.7339C5.5447 10.6772 5.46808 10.632 5.38342 10.601C5.29876 10.5699 5.20761 10.5536 5.11565 10.5529H1.38852V4.40716H11.9865V5.32689C11.9822 5.40797 11.9971 5.48899 12.03 5.56501C12.0629 5.64104 12.1131 5.71047 12.178 5.76918C12.2428 5.82789 12.3207 5.87463 12.407 5.90656C12.4933 5.93849 12.5864 5.95496 12.6802 5.95496C12.7741 5.95496 12.8668 5.93849 12.9531 5.90656C13.0394 5.87463 13.1173 5.82789 13.1822 5.76918C13.247 5.71047 13.2976 5.64104 13.3305 5.56501C13.3634 5.48899 13.3779 5.40797 13.3736 5.32689V0.610545C13.3744 0.531043 13.3573 0.452212 13.3228 0.378501C13.2883 0.304791 13.2371 0.237657 13.1727 0.180961C13.1082 0.124264 13.0316 0.0790539 12.9469 0.0480035C12.8622 0.0169531 12.7715 0.000676598 12.6795 0H0.694457C0.602497 0.000676598 0.511352 0.0169531 0.426693 0.0480035C0.342034 0.0790539 0.265408 0.124264 0.200939 0.180961C0.13647 0.237657 0.0856308 0.304791 0.0511673 0.378501C0.0167038 0.452212 -0.000763725 0.531043 2.56078e-05 0.610545V11.1635C-0.000763725 11.243 0.0167038 11.3218 0.0511673 11.3955C0.0856308 11.4693 0.13647 11.5364 0.200939 11.5931C0.265408 11.6498 0.342034 11.6949 0.426693 11.726C0.511352 11.757 0.602497 11.7734 0.694457 11.774H5.11565C5.20761 11.7734 5.29876 11.757 5.38342 11.726C5.46808 11.6949 5.5447 11.6498 5.60917 11.5931C5.67364 11.5364 5.72448 11.4693 5.75894 11.3955C5.79341 11.3218 5.81087 11.243 5.81009 11.1635ZM11.9865 1.22109V3.18607H1.38852V1.22109H11.9865Z" fill="#191A4E"/>
<path d="M2.50007 2.79775H2.58847C2.77577 2.79775 2.95539 2.73342 3.08783 2.61892C3.22027 2.50442 3.29459 2.34914 3.29459 2.1872C3.29459 2.02527 3.22027 1.86999 3.08783 1.75549C2.95539 1.64099 2.77577 1.57666 2.58847 1.57666H2.50007C2.31276 1.57666 2.13315 1.64099 2.0007 1.75549C1.86826 1.86999 1.79395 2.02527 1.79395 2.1872C1.79395 2.34914 1.86826 2.50442 2.0007 2.61892C2.13315 2.73342 2.31276 2.79775 2.50007 2.79775Z" fill="#191A4E"/>
<path d="M4.28376 2.79775H4.37216C4.55946 2.79775 4.73908 2.73342 4.87152 2.61892C5.00397 2.50442 5.07828 2.34914 5.07828 2.1872C5.07828 2.02527 5.00397 1.86999 4.87152 1.75549C4.73908 1.64099 4.55946 1.57666 4.37216 1.57666H4.28376C4.09645 1.57666 3.91684 1.64099 3.7844 1.75549C3.65195 1.86999 3.57764 2.02527 3.57764 2.1872C3.57764 2.34914 3.65195 2.50442 3.7844 2.61892C3.91684 2.73342 4.09645 2.79775 4.28376 2.79775Z" fill="#191A4E"/>
<path d="M6.06745 2.79775H6.15585C6.24859 2.79775 6.34049 2.78201 6.42617 2.75132C6.51186 2.72064 6.58963 2.67562 6.65521 2.61892C6.72079 2.56222 6.77278 2.4949 6.80827 2.42083C6.84376 2.34675 6.86197 2.26739 6.86197 2.1872C6.86197 2.10702 6.84376 2.02766 6.80827 1.95358C6.77278 1.87951 6.72079 1.81219 6.65521 1.75549C6.58963 1.69879 6.51186 1.65377 6.42617 1.62308C6.34049 1.5924 6.24859 1.57666 6.15585 1.57666H6.06745C5.88014 1.57666 5.70053 1.64099 5.56809 1.75549C5.43564 1.86999 5.36133 2.02527 5.36133 2.1872C5.36133 2.34914 5.43564 2.50442 5.56809 2.61892C5.70053 2.73342 5.88014 2.79775 6.06745 2.79775Z" fill="#191A4E"/>
<path d="M10.6352 9.98758C10.2357 9.98142 9.84315 10.0783 9.50752 10.2657C9.17188 10.453 8.90846 10.7225 8.75062 11.0399C8.59278 11.3572 8.54775 11.708 8.6213 12.0475C8.69485 12.387 8.8838 12.6999 9.16377 12.9464C9.44374 13.1928 9.80222 13.3616 10.1935 13.4313C10.5849 13.501 10.9912 13.4684 11.361 13.3376C11.7309 13.2069 12.0471 12.984 12.2699 12.6973C12.4927 12.4105 12.6118 12.0729 12.6118 11.7275C12.6119 11.2714 12.4051 10.8334 12.0354 10.508C11.6657 10.1826 11.1627 9.99572 10.6352 9.98758ZM10.6352 12.8529C10.3768 12.8567 10.1231 12.794 9.90606 12.6727C9.68905 12.5514 9.5189 12.377 9.41692 12.1717C9.31495 11.9665 9.28597 11.7396 9.33363 11.5201C9.3813 11.3005 9.50319 11.0981 9.68432 10.9388C9.86545 10.7795 10.0975 10.6703 10.3506 10.6253C10.6037 10.5803 10.8665 10.6014 11.1057 10.686C11.3449 10.7706 11.5494 10.9148 11.6935 11.1003C11.8375 11.2857 11.9144 11.5041 11.9145 11.7275C11.9145 12.0226 11.7808 12.3059 11.5415 12.5165C11.3022 12.727 10.9765 12.8478 10.6352 12.8529Z" fill="#191A4E"/>
<path d="M17.292 11.1168H14.7485C14.6398 10.546 14.3774 10.0054 13.9824 9.53856L15.9591 8.02124C16.0981 7.91361 16.1828 7.76327 16.1954 7.60231C16.208 7.44136 16.1473 7.28252 16.0263 7.1597C15.9673 7.09925 15.8949 7.0497 15.8133 7.01388C15.7318 6.97805 15.643 6.95674 15.5518 6.95119C15.4605 6.94564 15.3687 6.9559 15.2822 6.98151C15.1956 7.00711 15.1158 7.04753 15.0477 7.10025L12.9801 8.68745C12.485 8.39096 11.9206 8.19221 11.3267 8.10532V5.89077C11.3311 5.80969 11.3161 5.72867 11.2833 5.65264C11.2504 5.57662 11.2001 5.5071 11.1353 5.44839C11.0705 5.38968 10.9926 5.34302 10.9063 5.31109C10.82 5.27916 10.7269 5.2627 10.633 5.2627C10.5391 5.2627 10.4465 5.27916 10.3602 5.31109C10.2738 5.34302 10.1956 5.38968 10.1307 5.44839C10.0659 5.5071 10.0157 5.57662 9.9828 5.65264C9.94992 5.72867 9.93534 5.80969 9.9397 5.89077V8.10011C9.35901 8.18544 8.80634 8.37784 8.31924 8.66415L6.77951 7.31887C6.71566 7.26223 6.6395 7.2172 6.55521 7.18647C6.47093 7.15573 6.38003 7.13989 6.28855 7.13989C6.19707 7.13989 6.10653 7.15573 6.02224 7.18647C5.93796 7.2172 5.8618 7.26223 5.79795 7.31887C5.66744 7.43438 5.59448 7.58943 5.59448 7.7509C5.59448 7.91238 5.66744 8.06742 5.79795 8.18293L7.30627 9.50106C6.78942 10.0983 6.49296 10.8166 6.45585 11.5618C6.41875 12.307 6.64248 13.0445 7.09805 13.678L5.10827 15.1333C4.96664 15.2383 4.87819 15.3871 4.86169 15.5478C4.8452 15.7086 4.90185 15.8685 5.01987 15.9935C5.07734 16.055 5.14859 16.1059 5.22918 16.1433C5.30978 16.1807 5.39822 16.2037 5.48927 16.211C5.58033 16.2184 5.67202 16.2099 5.75923 16.1861C5.84644 16.1623 5.92738 16.1236 5.99704 16.0724L8.02298 14.59C8.57469 14.9802 9.23415 15.2401 9.93677 15.3441V17.4035C9.93242 17.4846 9.94699 17.5656 9.97988 17.6416C10.0128 17.7176 10.063 17.7871 10.1278 17.8458C10.1927 17.9045 10.2706 17.9512 10.3569 17.9832C10.4432 18.0151 10.5362 18.0315 10.6301 18.0315C10.724 18.0315 10.817 18.0151 10.9034 17.9832C10.9897 17.9512 11.0676 17.9045 11.1324 17.8458C11.1972 17.7871 11.2475 17.7176 11.2803 17.6416C11.3132 17.5656 11.3278 17.4846 11.3234 17.4035V15.3545C11.8769 15.2727 12.4052 15.0936 12.8752 14.828L14.5585 16.0789C14.6277 16.1305 14.7083 16.1696 14.7952 16.1939C14.8822 16.2182 14.9738 16.2274 15.0648 16.2206C15.1559 16.2139 15.2444 16.1914 15.3253 16.1546C15.4061 16.1178 15.4777 16.0674 15.5357 16.0064C15.6544 15.882 15.7122 15.7226 15.6968 15.5619C15.6814 15.4012 15.5939 15.252 15.4531 15.1462L13.9123 14.0014C14.3445 13.5172 14.6307 12.9478 14.7456 12.3443H17.2891C17.4764 12.3443 17.656 12.28 17.7885 12.1655C17.9209 12.051 17.9956 11.8957 17.9956 11.7338C17.9956 11.5718 17.9209 11.4166 17.7885 11.3021C17.656 11.1876 17.4764 11.1232 17.2891 11.1232L17.292 11.1168ZM10.6338 14.1838C10.0694 14.1928 9.51468 14.0563 9.04033 13.7918C8.56598 13.5272 8.1936 13.1466 7.97038 12.6983C7.74715 12.2501 7.68329 11.7546 7.787 11.2749C7.89071 10.7952 8.15724 10.353 8.55266 10.0048C8.94808 9.65651 9.45443 9.41787 10.0073 9.31931C10.5601 9.22075 11.1344 9.2667 11.657 9.45132C12.1795 9.63594 12.6266 9.95086 12.9413 10.356C13.2561 10.7611 13.4242 11.238 13.4243 11.726C13.4244 12.3701 13.1323 12.9884 12.6104 13.4481C12.0885 13.9077 11.3786 14.1719 10.6338 14.1838Z" fill="#191A4E"/>
</g>
<defs>
<clipPath id="clip0_4578_1765">
<rect width="18" height="18" fill="white"/>
</clipPath>
</defs>
</svg>
