<svg width="18" height="18" viewBox="0 0 18 18" fill="none" xmlns="http://www.w3.org/2000/svg">
<g clip-path="url(#clip0_4578_1778)">
<path d="M8.99995 0C7.21992 0 5.47996 0.527808 3.99991 1.51674C2.51987 2.50567 1.36637 3.91133 0.685181 5.55586C0.00399228 7.2004 -0.174363 9.00994 0.172904 10.7558C0.520171 12.5016 1.37737 14.1053 2.63604 15.364C3.89471 16.6227 5.49835 17.4798 7.24418 17.827C8.99 18.1743 10.7996 17.9961 12.4442 17.3149C14.0887 16.6337 15.4943 15.4802 16.4832 14.0001C17.4721 12.5201 17.9999 10.78 17.9999 9C17.9999 6.61305 17.0518 4.32384 15.364 2.63601C13.6762 0.948185 11.3869 0 8.99995 0ZM15.9505 11.0571L13.4447 11.6331L11.9148 10.0491L12.496 7.68855L14.0709 6.8284L16.4418 7.9676C16.5865 8.99767 16.5138 10.0466 16.2283 11.0468C16.1363 11.0332 16.0425 11.0372 15.9519 11.0584L15.9505 11.0571ZM8.39837 3.29268L8.28003 5.49254L6.15606 6.67412L4.45381 6.10581L3.7003 3.68097C4.46869 2.91458 5.39368 2.32342 6.41188 1.94788L8.39837 3.29268ZM7.83901 16.4237C6.41549 16.2005 5.08663 15.5715 4.01153 14.6121L4.68907 12.1988H7.44946L9.14151 14.184L7.83901 16.4237ZM9.51944 16.4944L10.6933 14.4784C10.7705 14.3452 10.8047 14.1914 10.7909 14.038C10.7771 13.8847 10.716 13.7393 10.6162 13.6221L8.35976 10.9749C8.28961 10.8937 8.20269 10.8287 8.10503 10.7843C8.00738 10.7399 7.90123 10.7172 7.79396 10.7177H4.1272C3.96502 10.7178 3.80728 10.7708 3.67801 10.8688C3.54875 10.9667 3.45502 11.1042 3.41105 11.2603L2.83882 13.2968C2.005 12.1037 1.53677 10.6937 1.49111 9.2388C1.44544 7.78394 1.82438 6.34727 2.58173 5.10425L3.14486 6.9184C3.17981 7.03105 3.24113 7.13381 3.32363 7.2181C3.40612 7.30238 3.50745 7.36579 3.61932 7.40314L5.99409 8.19643C6.09212 8.22923 6.19579 8.24126 6.29872 8.23174C6.40166 8.22222 6.50155 8.19132 6.5919 8.1411L9.36124 6.59831C9.47191 6.53773 9.56545 6.45003 9.63292 6.34343C9.70039 6.23683 9.73963 6.11483 9.74702 5.98888L9.91024 2.95838C9.91722 2.83031 9.89097 2.70266 9.83397 2.58775C9.77697 2.47285 9.69125 2.37467 9.58505 2.30273L8.42787 1.51713C8.61945 1.5017 8.81365 1.49273 9.0078 1.49273C10.4825 1.49432 11.9242 1.92922 13.1537 2.74344C14.3833 3.55767 15.3464 4.71534 15.9235 6.07246L14.3807 5.33057C14.2744 5.27921 14.1573 5.25397 14.0392 5.25688C13.9212 5.25979 13.8056 5.29076 13.7019 5.34728L11.5047 6.54817C11.4139 6.59767 11.3344 6.66551 11.2713 6.74741C11.2082 6.82931 11.1629 6.92348 11.1382 7.02387L10.3809 10.1006C10.351 10.2228 10.3525 10.3504 10.3853 10.4719C10.4181 10.5933 10.4812 10.7044 10.5686 10.7949L12.6758 12.9806C12.7451 13.0524 12.8283 13.1096 12.9202 13.1487C13.0121 13.1878 13.1108 13.208 13.2107 13.2082C13.267 13.2082 13.3231 13.2018 13.3778 13.1889L15.5637 12.6861C14.9531 13.772 14.0822 14.6891 13.0294 15.3552C11.9767 16.0213 10.775 16.4154 9.53231 16.5022L9.51944 16.4944Z" fill="#191A4E"/>
</g>
<defs>
<clipPath id="clip0_4578_1778">
<rect width="18" height="18" fill="white"/>
</clipPath>
</defs>
</svg>
