<svg width="18" height="18" viewBox="0 0 18 18" fill="none" xmlns="http://www.w3.org/2000/svg">
<g clip-path="url(#clip0_4578_1789)">
<path fill-rule="evenodd" clip-rule="evenodd" d="M15.9401 3.99806C15.9401 5.09409 15.3691 6.16608 14.3319 7.01656C14.0561 7.2426 14.1076 7.57494 14.4468 7.75869C14.5935 7.8382 14.77 7.87693 14.9456 7.87693C15.1754 7.87693 15.4037 7.81032 15.56 7.68206C16.8259 6.64412 17.5229 5.33579 17.5229 3.99806C17.5229 2.5984 16.7678 1.24392 15.3967 0.184017C15.1112 -0.0366708 14.6114 -0.0612528 14.2804 0.129086C13.9496 0.319287 13.9127 0.652447 14.198 0.873135C15.3215 1.74161 15.9401 2.85136 15.9401 3.99806ZM2.57788 7.87693C2.7534 7.87693 2.92993 7.8382 3.0766 7.75869C3.41587 7.57494 3.46716 7.2426 3.19155 7.01656C2.15436 6.16608 1.58335 5.09409 1.58335 3.99806C1.58335 2.85136 2.20195 1.74161 3.32544 0.873136C3.61074 0.652586 3.57387 0.319425 3.24283 0.129087C2.91201 -0.0611145 2.41227 -0.0365326 2.12676 0.184018C0.755661 1.24393 0.000488281 2.59854 0.000488281 3.9982C0.000488281 5.33579 0.697571 6.64412 1.96341 7.68219C2.11975 7.81046 2.34778 7.87693 2.57788 7.87693ZM4.26828 6.25038C4.4238 6.38826 4.6611 6.46091 4.90129 6.46091C5.06691 6.46091 5.23398 6.4263 5.37631 6.35489C5.72568 6.1798 5.79592 5.84897 5.53329 5.6162C5.01046 5.15257 4.72249 4.57799 4.72249 3.99805C4.72249 3.37773 5.04735 2.7717 5.6371 2.29187C5.91396 2.06651 5.86452 1.73404 5.52648 1.54933C5.18845 1.36476 4.68973 1.39772 4.41267 1.62308C3.59179 2.29104 3.13963 3.13452 3.13963 3.99805C3.13963 4.80541 3.54049 5.60521 4.26828 6.25038ZM11.9902 5.6162C12.5132 5.15271 12.801 4.57799 12.801 3.99805C12.801 3.37773 12.4763 2.77183 11.8866 2.29173C11.6095 2.06637 11.6591 1.73404 11.997 1.54933C12.3352 1.36476 12.8337 1.39772 13.1108 1.62308C13.9319 2.29104 14.3838 3.13452 14.3838 3.99805C14.3838 4.80527 13.983 5.60521 13.2552 6.25038C13.0996 6.38826 12.8623 6.46091 12.6222 6.46091C12.4565 6.46091 12.2895 6.4263 12.1471 6.35489C11.7978 6.1798 11.7275 5.84911 11.9902 5.6162ZM13.9801 16.9459H16.2017C16.6388 16.9459 16.9931 17.1821 16.9931 17.4735C16.9931 17.7648 16.6388 18.001 16.2017 18.001H1.32379C0.886668 18.001 0.532359 17.7648 0.532359 17.4735C0.532359 17.1821 0.886668 16.9459 1.32379 16.9459H3.54111L7.58497 5.45499C6.80796 5.17511 6.27877 4.62717 6.27877 3.99806C6.27877 3.08578 7.39216 2.34352 8.76058 2.34352C10.129 2.34352 11.2424 3.08578 11.2424 3.99806C11.2424 4.62703 10.7132 5.17511 9.93619 5.45499L13.9801 16.9459ZM7.83444 11.499L10.8607 12.7019L10.1228 10.6051L7.83444 11.499ZM9.65974 3.99806C9.65974 3.66765 9.25641 3.39876 8.76058 3.39876C8.26495 3.39876 7.86162 3.66765 7.86162 3.99806C7.86162 4.32861 8.26495 4.5975 8.76058 4.5975C9.25641 4.5975 9.65974 4.32861 9.65974 3.99806ZM9.7444 9.52996L8.76058 6.73435L7.46323 10.4211L9.7444 9.52996ZM10.501 13.7873L6.79663 12.315L5.59816 15.7208L10.501 13.7873ZM11.5312 14.607L5.60022 16.9459H12.3541L11.5312 14.607Z" fill="#191A4E"/>
</g>
<defs>
<clipPath id="clip0_4578_1789">
<rect width="18" height="18" fill="white"/>
</clipPath>
</defs>
</svg>
