<svg width="18" height="18" viewBox="0 0 18 18" fill="none" xmlns="http://www.w3.org/2000/svg">
<g clip-path="url(#clip0_4578_1785)">
<path d="M17.9544 2.36878C17.771 1.84218 17.4885 1.36676 17.1264 0.975481C16.7643 0.584199 16.3313 0.286303 15.8571 0.102453C15.292 -0.0203829 14.709 0.0107956 14.1567 0.193361C13.6044 0.375925 13.0986 0.704689 12.6815 1.1522C9.76496 3.72982 3.73837 9.20277 3.67722 9.25573C3.60286 9.32187 3.54129 9.40444 3.496 9.49829C3.4507 9.59213 3.42262 9.69528 3.41372 9.80167C3.40481 9.90806 3.41535 10.0154 3.44427 10.1172C3.47319 10.219 3.52002 10.3131 3.5821 10.3937C3.71065 10.559 3.89071 10.662 4.08481 10.6815C4.2789 10.7009 4.472 10.6352 4.62431 10.4981C4.68404 10.4435 10.7035 4.97842 13.6144 2.40561C13.8579 2.14005 14.1487 1.93603 14.4674 1.80707C14.7861 1.67812 15.1256 1.62718 15.4631 1.65768C15.8231 1.79484 16.1299 2.06891 16.3307 2.43295L11.841 6.39086C11.738 6.48061 11.659 6.60052 11.6122 6.73755L8.13806 16.9131C8.10502 17.0135 8.09025 17.1203 8.09432 17.2272C8.09839 17.3342 8.12147 17.4391 8.16202 17.5359C8.20257 17.6327 8.25974 17.7193 8.3304 17.7907C8.40106 17.8621 8.48374 17.9168 8.57342 17.9516C8.6564 17.9855 8.74381 18.0029 8.83207 18.003C8.98125 18.0043 9.12729 17.9548 9.2511 17.8608C9.37492 17.7669 9.47081 17.6329 9.52607 17.4765L12.9291 7.50791L17.7326 3.27561C17.8507 3.17114 17.936 3.02662 17.9759 2.86339C18.0159 2.70016 18.0083 2.52683 17.9544 2.36878Z" fill="#191A4E"/>
<path d="M9.77501 9.24462C9.64848 9.07739 9.46996 8.97159 9.27613 8.94917C9.0823 8.92676 8.88814 8.98944 8.73419 9.12423L3.51408 13.7258L1.41784 8.44369C1.33565 8.24455 1.18824 8.08938 1.00644 8.0109C0.824634 7.93242 0.622624 7.93683 0.443666 8.02324C0.355965 8.06359 0.276299 8.12332 0.209324 8.19889C0.142348 8.27446 0.0895554 8.36431 0.0537898 8.46329C0.0180242 8.56226 -2.3557e-05 8.66831 0.00101932 8.77519C0.00206219 8.88208 0.0220036 8.98767 0.0596918 9.08573L2.54407 15.3452C2.59055 15.4609 2.66011 15.5629 2.74717 15.6433C2.83422 15.7238 2.93647 15.7805 3.04608 15.8091C3.15681 15.8382 3.27184 15.8389 3.38284 15.8111C3.49384 15.7834 3.59788 15.7278 3.68732 15.6485L9.6601 10.381C9.7355 10.316 9.7982 10.2344 9.8448 10.1412C9.8914 10.0479 9.92065 9.945 9.9309 9.83856C9.94114 9.73212 9.93229 9.62442 9.90451 9.52205C9.87674 9.41968 9.83075 9.32477 9.76946 9.24305L9.77501 9.24462Z" fill="#191A4E"/>
</g>
<defs>
<clipPath id="clip0_4578_1785">
<rect width="18" height="18" fill="white"/>
</clipPath>
</defs>
</svg>
