<svg width="28" height="28" viewBox="0 0 28 28" fill="none" xmlns="http://www.w3.org/2000/svg">
<path d="M19.8333 23.3333C21.122 23.3333 22.1667 22.2886 22.1667 21C22.1667 19.7113 21.122 18.6666 19.8333 18.6666C18.5447 18.6666 17.5 19.7113 17.5 21C17.5 22.2886 18.5447 23.3333 19.8333 23.3333Z" stroke="#191A4E" stroke-width="1.5"/>
<path d="M8.16634 23.3333C9.45501 23.3333 10.4997 22.2886 10.4997 21C10.4997 19.7113 9.45501 18.6666 8.16634 18.6666C6.87768 18.6666 5.83301 19.7113 5.83301 21C5.83301 22.2886 6.87768 23.3333 8.16634 23.3333Z" stroke="#191A4E" stroke-width="1.5"/>
<path d="M5.83301 20.9678C4.5535 20.9041 3.75529 20.7137 3.18728 20.1457C2.61926 19.5777 2.42893 18.7794 2.36515 17.5M10.4997 21H17.4997M22.1663 20.9678C23.4458 20.9041 24.2441 20.7137 24.8121 20.1457C25.6663 19.2914 25.6663 17.9165 25.6663 15.1666V12.8333H20.183C19.3144 12.8333 18.8801 12.8333 18.5287 12.7191C17.8183 12.4883 17.2613 11.9313 17.0306 11.221C16.9163 10.8695 16.9163 10.4352 16.9163 9.56662C16.9163 8.26373 16.9163 7.61228 16.7451 7.08507C16.3988 6.01954 15.5635 5.18414 14.498 4.83793C13.9707 4.66663 13.3193 4.66663 12.0163 4.66663H2.33301" stroke="#191A4E" stroke-width="1.5" stroke-linecap="round" stroke-linejoin="round"/>
<path d="M2.33301 9.33337H9.33301" stroke="#191A4E" stroke-width="1.5" stroke-linecap="round" stroke-linejoin="round"/>
<path d="M2.33301 12.8334H6.99968" stroke="#191A4E" stroke-width="1.5" stroke-linecap="round" stroke-linejoin="round"/>
<path d="M16.917 7H19.0417C20.7397 7 21.5886 7 22.2795 7.41266C22.9704 7.82532 23.3729 8.5728 24.1779 10.0678L25.667 12.8333" stroke="#191A4E" stroke-width="1.5" stroke-linecap="round" stroke-linejoin="round"/>
</svg>
