<svg width="32" height="32" viewBox="0 0 32 32" fill="none" xmlns="http://www.w3.org/2000/svg">
<g clip-path="url(#clip0_753_5286)">
<path fill-rule="evenodd" clip-rule="evenodd" d="M12.5291 22.1342C12.6513 22.1342 12.7684 22.1827 12.8548 22.2691C12.9412 22.3555 12.9898 22.4727 12.9898 22.5949C12.9898 22.7171 12.9412 22.8343 12.8548 22.9207C12.7684 23.0071 12.6513 23.0556 12.5291 23.0556H7.44601C6.66646 23.0556 5.91883 23.3653 5.36761 23.9165C4.81638 24.4677 4.50671 25.2154 4.50671 25.9949C4.50671 26.7745 4.81638 27.5221 5.36761 28.0733C5.91883 28.6245 6.66646 28.9342 7.44601 28.9342H13.2077L11.8511 27.5789C11.7698 27.4916 11.7255 27.3761 11.7277 27.2568C11.7298 27.1375 11.7781 27.0236 11.8625 26.9392C11.9469 26.8548 12.0608 26.8065 12.1801 26.8044C12.2994 26.8022 12.4149 26.8465 12.5022 26.9278L14.6454 29.0709C14.7316 29.1573 14.7801 29.2744 14.7801 29.3965C14.7801 29.5186 14.7316 29.6357 14.6454 29.7221L12.5022 31.8652C12.4149 31.9465 12.2994 31.9908 12.1801 31.9887C12.0608 31.9865 11.9469 31.9382 11.8625 31.8538C11.7781 31.7694 11.7298 31.6556 11.7277 31.5362C11.7255 31.4169 11.7698 31.3014 11.8511 31.2141L13.2083 29.8569H7.44601C6.42192 29.8569 5.43977 29.4501 4.71563 28.7259C3.99148 28.0018 3.58467 27.0196 3.58467 25.9956C3.58467 24.9715 3.99148 23.9893 4.71563 23.2652C5.43977 22.541 6.42192 22.1342 7.44601 22.1342H12.5291ZM18.6409 2.65114C18.5187 2.65114 18.4015 2.6026 18.3151 2.51621C18.2287 2.42981 18.1802 2.31263 18.1802 2.19044C18.1802 2.06825 18.2287 1.95107 18.3151 1.86467C18.4015 1.77828 18.5187 1.72974 18.6409 1.72974H23.722C24.7461 1.72974 25.7283 2.13656 26.4524 2.8607C27.1766 3.58484 27.5834 4.56699 27.5834 5.59108C27.5834 6.61517 27.1766 7.59732 26.4524 8.32146C25.7283 9.0456 24.7461 9.45242 23.722 9.45242H21.5438L22.901 10.809C22.9823 10.8963 23.0265 11.0118 23.0244 11.1311C23.0223 11.2505 22.9739 11.3643 22.8896 11.4487C22.8052 11.5331 22.6913 11.5814 22.572 11.5835C22.4527 11.5857 22.3372 11.5414 22.2498 11.4601L20.1067 9.31696C20.0204 9.23058 19.972 9.11348 19.972 8.9914C19.972 8.86931 20.0204 8.75222 20.1067 8.66584L22.2498 6.52271C22.3372 6.44138 22.4527 6.39712 22.572 6.39925C22.6913 6.40138 22.8052 6.44972 22.8896 6.53411C22.9739 6.6185 23.0223 6.73234 23.0244 6.85167C23.0265 6.97099 22.9823 7.08648 22.901 7.17383L21.5438 8.53101H23.7208C24.5003 8.53101 25.2479 8.22134 25.7992 7.67011C26.3504 7.11889 26.6601 6.37127 26.6601 5.59172C26.6601 4.81217 26.3504 4.06455 25.7992 3.51332C25.2479 2.9621 24.5003 2.65242 23.7208 2.65242H18.639L18.6409 2.65114ZM22.2256 16.2537C22.1034 16.2537 21.9862 16.2052 21.8998 16.1188C21.8134 16.0324 21.7649 15.9152 21.7649 15.793C21.7649 15.6708 21.8134 15.5536 21.8998 15.4672C21.9862 15.3808 22.1034 15.3323 22.2256 15.3323H27.3067C28.3308 15.3323 29.3129 15.7391 30.0371 16.4633C30.7612 17.1874 31.1681 18.1695 31.1681 19.1936C31.1681 20.2177 30.7612 21.1999 30.0371 21.924C29.3129 22.6482 28.3308 23.055 27.3067 23.055H25.1284L26.4856 24.4122C26.5669 24.4995 26.6112 24.615 26.6091 24.7343C26.607 24.8536 26.5586 24.9675 26.4742 25.0519C26.3898 25.1363 26.276 25.1846 26.1567 25.1867C26.0373 25.1889 25.9218 25.1446 25.8345 25.0633L23.6914 22.9202C23.6051 22.8338 23.5566 22.7167 23.5566 22.5946C23.5566 22.4725 23.6051 22.3554 23.6914 22.269L25.8345 20.1259C25.9218 20.0446 26.0373 20.0003 26.1567 20.0024C26.276 20.0046 26.3898 20.0529 26.4742 20.1373C26.5586 20.2217 26.607 20.3355 26.6091 20.4549C26.6112 20.5742 26.5669 20.6897 26.4856 20.777L25.1284 22.1342H27.3054C28.085 22.1342 28.8326 21.8245 29.3838 21.2733C29.9351 20.7221 30.2447 19.9745 30.2447 19.1949C30.2447 18.4154 29.9351 17.6677 29.3838 17.1165C28.8326 16.5653 28.085 16.2556 27.3054 16.2556L22.2256 16.2537ZM8.94249 8.53101C9.06468 8.53101 9.18186 8.57955 9.26826 8.66595C9.35466 8.75235 9.4032 8.86953 9.4032 8.99172C9.4032 9.1139 9.35466 9.23109 9.26826 9.31748C9.18186 9.40388 9.06468 9.45242 8.94249 9.45242H3.86134C3.08179 9.45242 2.33417 9.76209 1.78295 10.3133C1.23172 10.8645 0.922045 11.6122 0.922045 12.3917C0.922045 13.1713 1.23172 13.9189 1.78295 14.4701C2.33417 15.0213 3.08179 15.331 3.86134 15.331H9.623L8.26581 13.9738C8.18449 13.8865 8.14023 13.771 8.14236 13.6517C8.14448 13.5323 8.19283 13.4185 8.27722 13.3341C8.36161 13.2497 8.47545 13.2014 8.59478 13.1992C8.7141 13.1971 8.82959 13.2414 8.91693 13.3227L11.0594 15.4678C11.1457 15.5541 11.1942 15.6712 11.1942 15.7933C11.1942 15.9154 11.1457 16.0325 11.0594 16.1189L8.91629 18.262C8.82866 18.3416 8.71373 18.3844 8.59536 18.3816C8.47699 18.3787 8.36427 18.3304 8.28059 18.2466C8.19691 18.1628 8.14869 18.0501 8.14594 17.9317C8.14319 17.8133 8.18611 17.6984 8.26581 17.6109L9.623 16.2537H3.86134C2.83725 16.2537 1.8551 15.8469 1.13096 15.1227C0.406819 14.3986 0 13.4164 0 12.3924C0 11.3683 0.406819 10.3861 1.13096 9.66198C1.8551 8.93783 2.83725 8.53101 3.86134 8.53101H8.94249Z" fill="black"/>
<path fill-rule="evenodd" clip-rule="evenodd" d="M9.32224 0H16.4679C16.5551 0.000168875 16.6387 0.0348931 16.7004 0.0965697C16.7621 0.158246 16.7968 0.241849 16.797 0.329073V4.05176C16.7968 4.13898 16.7621 4.22258 16.7004 4.28426C16.6387 4.34594 16.5551 4.38066 16.4679 4.38083H9.32224C9.23501 4.38066 9.1514 4.34594 9.08973 4.28426C9.02805 4.22258 8.99333 4.13898 8.99316 4.05176V0.329073C8.99333 0.241849 9.02805 0.158246 9.08973 0.0965697C9.1514 0.0348931 9.23501 0.000168875 9.32224 0Z" fill="black"/>
<path fill-rule="evenodd" clip-rule="evenodd" d="M11.1147 6.80127H18.2604C18.3476 6.80144 18.4312 6.83616 18.4929 6.89784C18.5546 6.95952 18.5893 7.04312 18.5895 7.13034V10.853C18.5893 10.9402 18.5546 11.0239 18.4929 11.0855C18.4312 11.1472 18.3476 11.1819 18.2604 11.1821H11.1147C11.0275 11.1819 10.9439 11.1472 10.8822 11.0855C10.8205 11.0239 10.7858 10.9402 10.7856 10.853V7.13034C10.7858 7.04312 10.8205 6.95952 10.8822 6.89784C10.9439 6.83616 11.0275 6.80144 11.1147 6.80127Z" fill="black"/>
<path fill-rule="evenodd" clip-rule="evenodd" d="M12.9067 13.6032H20.0524C20.1396 13.6034 20.2232 13.6381 20.2849 13.6998C20.3466 13.7615 20.3813 13.8451 20.3815 13.9323V17.655C20.3813 17.7422 20.3466 17.8258 20.2849 17.8875C20.2232 17.9491 20.1396 17.9839 20.0524 17.984H12.9067C12.8195 17.9839 12.7359 17.9491 12.6742 17.8875C12.6125 17.8258 12.5778 17.7422 12.5776 17.655V13.9323C12.5778 13.8451 12.6125 13.7615 12.6742 13.6998C12.7359 13.6381 12.8195 13.6034 12.9067 13.6032Z" fill="black"/>
<path fill-rule="evenodd" clip-rule="evenodd" d="M14.6992 20.4045H21.8449C21.9321 20.4046 22.0157 20.4394 22.0774 20.5011C22.1391 20.5627 22.1738 20.6463 22.1739 20.7336V24.4562C22.1738 24.5435 22.1391 24.6271 22.0774 24.6887C22.0157 24.7504 21.9321 24.7852 21.8449 24.7853H14.6992C14.612 24.7852 14.5284 24.7504 14.4667 24.6887C14.405 24.6271 14.3703 24.5435 14.3701 24.4562V20.7336C14.3703 20.6463 14.405 20.5627 14.4667 20.5011C14.5284 20.4394 14.612 20.4046 14.6992 20.4045Z" fill="black"/>
<path fill-rule="evenodd" clip-rule="evenodd" d="M16.4917 27.2057H23.6399C23.7271 27.2059 23.8107 27.2407 23.8724 27.3023C23.9341 27.364 23.9688 27.4476 23.969 27.5348V31.2575C23.9688 31.3447 23.9341 31.4284 23.8724 31.49C23.8107 31.5517 23.7271 31.5864 23.6399 31.5866H16.4917C16.4044 31.5864 16.3208 31.5517 16.2592 31.49C16.1975 31.4284 16.1628 31.3447 16.1626 31.2575V27.5335C16.1631 27.4465 16.198 27.3633 16.2596 27.3019C16.3213 27.2405 16.4047 27.2059 16.4917 27.2057Z" fill="black"/>
<path fill-rule="evenodd" clip-rule="evenodd" d="M12.7908 9.45241C12.6686 9.45241 12.5514 9.40387 12.465 9.31747C12.3786 9.23107 12.3301 9.11389 12.3301 8.9917C12.3301 8.86952 12.3786 8.75233 12.465 8.66594C12.5514 8.57954 12.6686 8.53101 12.7908 8.53101H16.585C16.7072 8.53101 16.8244 8.57954 16.9108 8.66594C16.9972 8.75233 17.0457 8.86952 17.0457 8.9917C17.0457 9.11389 16.9972 9.23107 16.9108 9.31747C16.8244 9.40387 16.7072 9.45241 16.585 9.45241H12.7908Z" fill="black"/>
<path fill-rule="evenodd" clip-rule="evenodd" d="M14.5828 16.2537C14.4606 16.2537 14.3434 16.2051 14.257 16.1187C14.1706 16.0323 14.1221 15.9152 14.1221 15.793C14.1221 15.6708 14.1706 15.5536 14.257 15.4672C14.3434 15.3808 14.4606 15.3323 14.5828 15.3323H18.377C18.4992 15.3323 18.6164 15.3808 18.7028 15.4672C18.7892 15.5536 18.8377 15.6708 18.8377 15.793C18.8377 15.9152 18.7892 16.0323 18.7028 16.1187C18.6164 16.2051 18.4992 16.2537 18.377 16.2537H14.5828Z" fill="black"/>
<path fill-rule="evenodd" clip-rule="evenodd" d="M16.3752 23.0556C16.2531 23.0556 16.1359 23.007 16.0495 22.9206C15.9631 22.8342 15.9146 22.717 15.9146 22.5949C15.9146 22.4727 15.9631 22.3555 16.0495 22.2691C16.1359 22.1827 16.2531 22.1342 16.3752 22.1342H20.1695C20.2917 22.1342 20.4089 22.1827 20.4953 22.2691C20.5817 22.3555 20.6302 22.4727 20.6302 22.5949C20.6302 22.717 20.5817 22.8342 20.4953 22.9206C20.4089 23.007 20.2917 23.0556 20.1695 23.0556H16.3752Z" fill="black"/>
<path fill-rule="evenodd" clip-rule="evenodd" d="M18.1677 29.8569C18.0455 29.8569 17.9284 29.8084 17.842 29.722C17.7556 29.6356 17.707 29.5184 17.707 29.3962C17.707 29.274 17.7556 29.1568 17.842 29.0704C17.9284 28.984 18.0455 28.9355 18.1677 28.9355H21.962C22.0842 28.9355 22.2014 28.984 22.2877 29.0704C22.3741 29.1568 22.4227 29.274 22.4227 29.3962C22.4227 29.5184 22.3741 29.6356 22.2877 29.722C22.2014 29.8084 22.0842 29.8569 21.962 29.8569H18.1677Z" fill="black"/>
<path fill-rule="evenodd" clip-rule="evenodd" d="M10.9983 2.65114C10.8761 2.65114 10.7589 2.6026 10.6725 2.5162C10.5861 2.42981 10.5376 2.31263 10.5376 2.19044C10.5376 2.06825 10.5861 1.95107 10.6725 1.86467C10.7589 1.77828 10.8761 1.72974 10.9983 1.72974H14.7926C14.9147 1.72974 15.0319 1.77828 15.1183 1.86467C15.2047 1.95107 15.2533 2.06825 15.2533 2.19044C15.2533 2.31263 15.2047 2.42981 15.1183 2.5162C15.0319 2.6026 14.9147 2.65114 14.7926 2.65114H10.9983Z" fill="black"/>
</g>
<defs>
<clipPath id="clip0_753_5286">
<rect width="31.1668" height="32" fill="white"/>
</clipPath>
</defs>
</svg>
