<svg width="44" height="44" viewBox="0 0 44 44" fill="none" xmlns="http://www.w3.org/2000/svg">
<path d="M36.666 18.5681C36.666 11.5435 36.666 8.03126 34.5181 5.849C32.3702 3.66675 28.9133 3.66675 21.9993 3.66675H18.3327C11.4187 3.66675 7.96178 3.66675 5.8139 5.849C3.66602 8.03126 3.66602 11.5435 3.66602 18.5681C3.66602 25.5927 3.66602 29.105 5.8139 31.2872C6.67484 32.162 7.7461 32.6861 9.16602 33.0001" stroke="white" stroke-width="2.5" stroke-linecap="round"/>
<path d="M40.3327 32.0835C40.3327 28.6462 40.3327 26.9276 39.4573 25.7228C39.1746 25.3337 38.8325 24.9915 38.4434 24.7088C37.2386 23.8335 35.5199 23.8335 32.0827 23.8335H22.916C19.4788 23.8335 17.7601 23.8335 16.5553 24.7088C16.1662 24.9915 15.8241 25.3337 15.5414 25.7228C14.666 26.9276 14.666 28.6462 14.666 32.0835C14.666 35.5207 14.666 37.2394 15.5414 38.4442C15.8241 38.8333 16.1662 39.1755 16.5553 39.4582C17.7601 40.3335 19.4788 40.3335 22.916 40.3335H32.0827C35.5199 40.3335 37.2386 40.3335 38.4434 39.4582C38.8325 39.1755 39.1746 38.8333 39.4573 38.4442C40.3327 37.2394 40.3327 35.5207 40.3327 32.0835Z" stroke="white" stroke-width="2.5"/>
<path d="M30.25 29.3335L31.9365 30.7871C32.6455 31.3982 33 31.7038 33 32.0835C33 32.4632 32.6455 32.7687 31.9365 33.3799L30.25 34.8335" stroke="white" stroke-width="2.5" stroke-linecap="round" stroke-linejoin="round"/>
<path d="M24.75 29.3335L23.0635 30.7871C22.3545 31.3982 22 31.7038 22 32.0835C22 32.4632 22.3545 32.7687 23.0635 33.3799L24.75 34.8335" stroke="white" stroke-width="2.5" stroke-linecap="round" stroke-linejoin="round"/>
<path d="M4.58203 11H35.7487" stroke="white" stroke-width="2.5" stroke-linecap="round" stroke-linejoin="round"/>
</svg>
