<svg width="18" height="18" viewBox="0 0 18 18" fill="none" xmlns="http://www.w3.org/2000/svg">
<g clip-path="url(#clip0_4578_1780)">
<path d="M17.2476 4.13644C16.7866 4.12259 16.33 4.2305 15.9233 4.44944C15.563 4.65685 15.2799 4.97705 15.1172 5.36127C14.8773 6.06167 14.7747 6.80222 14.815 7.54191C14.8345 8.26378 14.7628 8.98522 14.6016 9.68893C14.1651 9.63525 13.7224 9.66954 13.2992 9.78981C12.3991 10.0214 11.5507 10.4221 10.7985 10.9707C10.3768 11.2302 10.0224 11.5866 9.76427 12.0106C9.50613 12.4347 9.35163 12.9142 9.31348 13.41V17.995H13.9163V17.2345C13.9163 16.161 14.3226 15.8558 15.0632 15.3022C16.6639 14.0955 17.9959 12.7154 17.9959 7.96873V4.13644H17.2476ZM10.8306 16.4844V13.41C10.8306 12.9948 11.2472 12.4736 11.944 12.0144C12.5158 11.6418 13.1481 11.373 13.8122 11.2203C13.5172 11.7712 13.05 12.209 12.4828 12.4658L12.2256 12.5952L13.0356 13.776L13.2208 13.6958C13.8308 13.4227 14.3769 13.0235 14.8235 12.5242C15.2701 12.0248 15.6071 11.4364 15.8128 10.7974C15.8346 10.7379 15.8565 10.681 15.8758 10.6318C16.2216 9.64841 16.3766 8.60736 16.3322 7.5652C16.3019 7.03578 16.358 6.50496 16.498 5.99374V7.97778C16.498 12.3442 15.2625 13.2807 14.1709 14.0955C13.7376 14.3524 13.3631 14.6983 13.0715 15.1105C12.78 15.5228 12.5781 15.9922 12.4789 16.4882L10.8306 16.4844Z" fill="#191A4E"/>
<path d="M7.20386 10.9758C6.4508 10.4271 5.60148 10.0265 4.70057 9.79497C4.27826 9.67474 3.83636 9.64044 3.40071 9.69409C3.23851 8.98881 3.16678 8.26552 3.18729 7.5419C3.22977 6.8037 3.12844 6.06425 2.889 5.36514C2.70226 4.96439 2.39697 4.63149 2.01491 4.412C1.63286 4.19252 1.19271 4.09717 0.754714 4.13901H0V7.9726C0 12.7141 1.32943 14.0993 2.93271 15.3061C3.67329 15.8635 4.07957 16.1726 4.07957 17.2384V18.0054H8.685V13.4152C8.64747 12.9197 8.49365 12.4403 8.23618 12.0162C7.9787 11.5922 7.62491 11.2356 7.20386 10.9758ZM5.78957 12.6016L5.53243 12.4723C4.96595 12.2143 4.49901 11.7768 4.203 11.2267C4.86829 11.3795 5.50186 11.6483 6.075 12.0209C6.77057 12.4774 7.18586 12.9974 7.18586 13.4164V16.4818H5.53243C5.43365 15.9853 5.23161 15.5154 4.93956 15.103C4.64751 14.6907 4.27206 14.3451 3.83786 14.089C2.74629 13.2677 1.51071 12.3378 1.51071 7.97131V5.99631C1.65078 6.50753 1.7068 7.03836 1.67657 7.56777C1.63591 8.60942 1.7912 9.64942 2.13429 10.6331C2.15357 10.6822 2.17543 10.7404 2.19986 10.7986C2.40373 11.4386 2.74016 12.0278 3.18694 12.5274C3.63373 13.027 4.18072 13.4257 4.79186 13.6971L4.97829 13.7773L5.78957 12.6016Z" fill="#191A4E"/>
<path d="M11.569 0C11.0872 0.0218597 10.615 0.143534 10.1821 0.357406C9.74911 0.571279 9.3647 0.872746 9.05289 1.24294C8.73534 0.869674 8.34444 0.566551 7.90478 0.352643C7.46512 0.138735 6.98621 0.0186701 6.49818 0C5.54629 0.0841543 4.66486 0.539418 4.04217 1.26854C3.41947 1.99766 3.10488 2.94283 3.16561 3.90213C3.16561 5.81893 4.97975 7.3684 7.2799 9.33434C8.1799 10.0987 8.47432 10.36 8.68775 10.5501L9.04775 10.8631L9.4579 10.5074C9.67132 10.3199 9.92589 10.0948 10.8195 9.33305C13.1273 7.37228 14.9415 5.82281 14.9415 3.90084C14.9908 2.93792 14.6668 1.99329 14.0378 1.26575C13.4088 0.538202 12.5238 0.0844606 11.569 0ZM6.52132 1.51714C6.92397 1.57855 7.30665 1.73426 7.63851 1.97172C7.97037 2.20918 8.24214 2.52175 8.43189 2.88424L9.05161 3.78961L9.67518 2.88424C9.86383 2.52319 10.134 2.21167 10.464 1.97469C10.7941 1.73771 11.1747 1.58189 11.5755 1.51972C12.126 1.60928 12.6228 1.9042 12.9669 2.34572C13.3109 2.78724 13.477 3.34295 13.432 3.90213C13.432 5.11662 11.8506 6.46174 9.84746 8.17029C9.59032 8.39276 9.32289 8.61651 9.05289 8.84803C8.78675 8.61651 8.51932 8.39146 8.2609 8.17029C6.25775 6.46303 4.67632 5.11662 4.67632 3.90213C4.62297 3.34485 4.78296 2.78808 5.12365 2.34538C5.46434 1.90267 5.96007 1.60738 6.50975 1.51972V1.27269L6.52132 1.51714Z" fill="#191A4E"/>
</g>
<defs>
<clipPath id="clip0_4578_1780">
<rect width="18" height="18" fill="white"/>
</clipPath>
</defs>
</svg>
