<svg width="48" height="49" viewBox="0 0 48 49" fill="none" xmlns="http://www.w3.org/2000/svg">
<path d="M16.9292 31.5704C13.0239 27.6652 13.0239 21.3336 16.9292 17.4283M11.2721 37.2274C4.24264 30.198 4.24264 18.8009 11.2721 11.7715M31.0712 31.5704C34.9764 27.6652 34.9764 21.3336 31.0712 17.4283M36.7282 37.2274C43.7578 30.198 43.7578 18.8009 36.7282 11.7715M26.0002 24.4996C26.0002 25.604 25.1048 26.4996 24.0002 26.4996C22.8956 26.4996 22.0002 25.604 22.0002 24.4996C22.0002 23.395 22.8956 22.4996 24.0002 22.4996C25.1048 22.4996 26.0002 23.395 26.0002 24.4996Z" stroke="white" stroke-width="3" stroke-linecap="round" stroke-linejoin="round"/>
</svg>
