<svg width="140" height="130" viewBox="0 0 140 130" fill="none" xmlns="http://www.w3.org/2000/svg">
<rect width="140" height="130" rx="12" fill="white"/>
<path d="M77.1854 41.7537L70.8849 47.62L65.0364 35.8184L68.0577 29.0326C68.8213 27.6791 70.0701 27.6612 70.8338 29.0326L77.1854 41.7537Z" fill="#FFA000"/>
<path d="M70.8876 47.6174L47.3201 69.5377L65.0392 35.8184L70.8876 47.6174Z" fill="#F57F17"/>
<path d="M84.0939 32.7822C85.2228 31.707 86.3848 32.0696 86.6784 33.5969L92.8053 69.2419L72.4838 81.442C71.7713 81.8404 69.8814 81.9962 69.8814 81.9962C69.8814 81.9962 68.1625 81.7868 67.5037 81.4241L47.3201 69.5381L84.0939 32.7822Z" fill="#FFCA28"/>
<path d="M65.0391 35.8188L47.3201 69.5381L55.2168 20.2527C55.513 18.7254 56.3788 18.5697 57.1603 19.9232L65.0391 35.8188Z" fill="#FFA000"/>
<path d="M39.3231 106V94.64H46.0591V96.352H41.2431V99.616H45.5631V101.328H41.2431V106H39.3231ZM49.8209 95.296C49.8209 95.4987 49.7675 95.6853 49.6609 95.856C49.5649 96.0267 49.4315 96.1653 49.2609 96.272C49.0902 96.368 48.9035 96.416 48.7009 96.416C48.4982 96.416 48.3115 96.368 48.1409 96.272C47.9702 96.1653 47.8315 96.0267 47.7249 95.856C47.6289 95.6853 47.5809 95.4987 47.5809 95.296C47.5809 95.0933 47.6289 94.9067 47.7249 94.736C47.8315 94.5653 47.9702 94.432 48.1409 94.336C48.3115 94.2293 48.4982 94.176 48.7009 94.176C48.9035 94.176 49.0902 94.2293 49.2609 94.336C49.4315 94.432 49.5649 94.5653 49.6609 94.736C49.7675 94.9067 49.8209 95.0933 49.8209 95.296ZM47.7889 106V97.632H49.6289V106H47.7889ZM51.617 106V97.632H53.297L53.377 99.008C53.5903 98.5387 53.8837 98.176 54.257 97.92C54.641 97.6533 55.089 97.52 55.601 97.52C55.761 97.52 55.9157 97.5307 56.065 97.552C56.2143 97.5733 56.3477 97.6107 56.465 97.664L56.257 99.456C56.1397 99.4133 56.017 99.3867 55.889 99.376C55.761 99.3547 55.633 99.344 55.505 99.344C54.865 99.344 54.3637 99.5573 54.001 99.984C53.6383 100.411 53.457 101.003 53.457 101.76V106H51.617ZM61.4581 106.24C60.8395 106.24 60.2688 106.133 59.7461 105.92C59.2341 105.696 58.7861 105.387 58.4021 104.992C58.0181 104.597 57.7195 104.133 57.5061 103.6C57.3035 103.056 57.2021 102.459 57.2021 101.808C57.2021 101.179 57.3035 100.597 57.5061 100.064C57.7195 99.5307 58.0075 99.0667 58.3701 98.672C58.7435 98.2667 59.1808 97.952 59.6821 97.728C60.1835 97.504 60.7275 97.392 61.3141 97.392C61.9008 97.392 62.4341 97.4987 62.9141 97.712C63.4048 97.9147 63.8261 98.208 64.1781 98.592C64.5408 98.976 64.8181 99.4347 65.0101 99.968C65.2021 100.491 65.2981 101.072 65.2981 101.712V102.256H59.1061C59.1595 102.747 59.2875 103.173 59.4901 103.536C59.7035 103.888 59.9755 104.16 60.3061 104.352C60.6368 104.544 61.0208 104.64 61.4581 104.64C62.3328 104.64 63.0155 104.251 63.5061 103.472L65.1221 104.096C64.9301 104.533 64.6475 104.917 64.2741 105.248C63.9115 105.568 63.4848 105.813 62.9941 105.984C62.5141 106.155 62.0021 106.24 61.4581 106.24ZM61.3141 98.88C60.9408 98.88 60.6048 98.9653 60.3061 99.136C60.0181 99.3067 59.7728 99.5467 59.5701 99.856C59.3675 100.165 59.2288 100.528 59.1541 100.944H63.3781C63.3141 100.528 63.1915 100.165 63.0101 99.856C62.8288 99.5467 62.5888 99.3067 62.2901 99.136C62.0021 98.9653 61.6768 98.88 61.3141 98.88ZM66.867 106V94.096H68.707V98.848C69.0057 98.3893 69.395 98.032 69.875 97.776C70.355 97.52 70.883 97.392 71.459 97.392C72.0137 97.392 72.5257 97.504 72.995 97.728C73.475 97.952 73.891 98.2613 74.243 98.656C74.595 99.0507 74.867 99.5147 75.059 100.048C75.2617 100.581 75.363 101.157 75.363 101.776C75.363 102.405 75.2617 102.992 75.059 103.536C74.8563 104.08 74.5737 104.555 74.211 104.96C73.8483 105.365 73.4217 105.68 72.931 105.904C72.451 106.128 71.9283 106.24 71.363 106.24C70.7763 106.24 70.243 106.112 69.763 105.856C69.2937 105.6 68.915 105.237 68.627 104.768L68.547 106H66.867ZM71.075 104.576C71.5337 104.576 71.9443 104.459 72.307 104.224C72.6697 103.979 72.9523 103.648 73.155 103.232C73.3683 102.816 73.475 102.341 73.475 101.808C73.475 101.275 73.3683 100.805 73.155 100.4C72.9523 99.984 72.6697 99.6587 72.307 99.424C71.9443 99.1787 71.5337 99.056 71.075 99.056C70.6163 99.056 70.2057 99.1787 69.843 99.424C69.4803 99.6587 69.1923 99.984 68.979 100.4C68.7763 100.805 68.675 101.275 68.675 101.808C68.675 102.341 68.7763 102.816 68.979 103.232C69.1923 103.648 69.4803 103.979 69.843 104.224C70.2057 104.459 70.6163 104.576 71.075 104.576ZM79.5364 106.24C79.1097 106.24 78.715 106.176 78.3524 106.048C78.0004 105.92 77.691 105.739 77.4244 105.504C77.1577 105.269 76.9497 104.992 76.8004 104.672C76.651 104.352 76.5764 104 76.5764 103.616C76.5764 103.083 76.715 102.619 76.9924 102.224C77.2804 101.819 77.6804 101.504 78.1924 101.28C78.7044 101.056 79.3017 100.944 79.9844 100.944C80.3577 100.944 80.715 100.981 81.0564 101.056C81.3977 101.12 81.723 101.216 82.0324 101.344V100.816C82.0324 100.443 81.963 100.117 81.8244 99.84C81.6857 99.552 81.4884 99.328 81.2324 99.168C80.9764 99.008 80.667 98.928 80.3044 98.928C79.9204 98.928 79.5737 99.0293 79.2644 99.232C78.955 99.4347 78.7257 99.7173 78.5764 100.08L76.8804 99.696C77.0084 99.2267 77.2377 98.8213 77.5684 98.48C77.9097 98.1387 78.315 97.872 78.7844 97.68C79.2644 97.488 79.7817 97.392 80.3364 97.392C80.859 97.392 81.3337 97.4773 81.7604 97.648C82.1977 97.8187 82.571 98.0587 82.8804 98.368C83.1897 98.6773 83.4297 99.0453 83.6004 99.472C83.771 99.8987 83.8564 100.373 83.8564 100.896V106H82.1764L82.1124 104.896C81.8884 105.301 81.5524 105.627 81.1044 105.872C80.6564 106.117 80.1337 106.24 79.5364 106.24ZM78.4324 103.536C78.4324 103.771 78.4964 103.984 78.6244 104.176C78.7524 104.357 78.9284 104.501 79.1524 104.608C79.387 104.715 79.659 104.768 79.9684 104.768C80.363 104.768 80.715 104.683 81.0244 104.512C81.3337 104.341 81.579 104.112 81.7604 103.824C81.9417 103.525 82.0324 103.189 82.0324 102.816V102.624C81.755 102.507 81.467 102.416 81.1684 102.352C80.8804 102.277 80.5817 102.24 80.2724 102.24C79.7177 102.24 79.2697 102.357 78.9284 102.592C78.5977 102.827 78.4324 103.141 78.4324 103.536ZM88.6998 106.24C88.1558 106.24 87.6491 106.149 87.1798 105.968C86.7211 105.787 86.3264 105.531 85.9958 105.2C85.6758 104.859 85.4464 104.459 85.3078 104L86.9718 103.568C87.1104 103.931 87.3344 104.213 87.6438 104.416C87.9531 104.619 88.3104 104.72 88.7158 104.72C89.1318 104.72 89.4731 104.624 89.7398 104.432C90.0064 104.229 90.1398 103.973 90.1398 103.664C90.1398 103.397 90.0331 103.173 89.8198 102.992C89.6064 102.811 89.2598 102.677 88.7798 102.592L88.2518 102.496C87.3558 102.336 86.6784 102.048 86.2198 101.632C85.7718 101.216 85.5478 100.683 85.5478 100.032C85.5478 99.5093 85.6811 99.0507 85.9478 98.656C86.2144 98.2613 86.5824 97.952 87.0518 97.728C87.5211 97.504 88.0598 97.392 88.6678 97.392C89.1904 97.392 89.6704 97.4827 90.1078 97.664C90.5451 97.8453 90.9131 98.1013 91.2118 98.432C91.5104 98.7627 91.7238 99.152 91.8518 99.6L90.2038 100C90.0758 99.6587 89.8731 99.392 89.5958 99.2C89.3291 98.9973 89.0144 98.896 88.6518 98.896C88.2784 98.896 87.9691 98.992 87.7238 99.184C87.4784 99.3653 87.3558 99.6 87.3558 99.888C87.3558 100.133 87.4624 100.336 87.6758 100.496C87.8998 100.656 88.2731 100.784 88.7958 100.88L89.3238 100.976C90.1771 101.125 90.8331 101.419 91.2918 101.856C91.7504 102.293 91.9798 102.837 91.9798 103.488C91.9798 103.883 91.8998 104.251 91.7398 104.592C91.5798 104.923 91.3504 105.216 91.0518 105.472C90.7638 105.717 90.4171 105.904 90.0118 106.032C89.6171 106.171 89.1798 106.24 88.6998 106.24ZM97.38 106.24C96.7613 106.24 96.1907 106.133 95.668 105.92C95.156 105.696 94.708 105.387 94.324 104.992C93.94 104.597 93.6413 104.133 93.428 103.6C93.2253 103.056 93.124 102.459 93.124 101.808C93.124 101.179 93.2253 100.597 93.428 100.064C93.6413 99.5307 93.9293 99.0667 94.292 98.672C94.6653 98.2667 95.1027 97.952 95.604 97.728C96.1053 97.504 96.6493 97.392 97.236 97.392C97.8227 97.392 98.356 97.4987 98.836 97.712C99.3267 97.9147 99.748 98.208 100.1 98.592C100.463 98.976 100.74 99.4347 100.932 99.968C101.124 100.491 101.22 101.072 101.22 101.712V102.256H95.028C95.0813 102.747 95.2093 103.173 95.412 103.536C95.6253 103.888 95.8973 104.16 96.228 104.352C96.5587 104.544 96.9427 104.64 97.38 104.64C98.2547 104.64 98.9373 104.251 99.428 103.472L101.044 104.096C100.852 104.533 100.569 104.917 100.196 105.248C99.8333 105.568 99.4067 105.813 98.916 105.984C98.436 106.155 97.924 106.24 97.38 106.24ZM97.236 98.88C96.8627 98.88 96.5267 98.9653 96.228 99.136C95.94 99.3067 95.6947 99.5467 95.492 99.856C95.2893 100.165 95.1507 100.528 95.076 100.944H99.3C99.236 100.528 99.1133 100.165 98.932 99.856C98.7507 99.5467 98.5107 99.3067 98.212 99.136C97.924 98.9653 97.5987 98.88 97.236 98.88Z" fill="black" fill-opacity="0.7"/>
</svg>
