<svg width="140" height="130" viewBox="0 0 140 130" fill="none" xmlns="http://www.w3.org/2000/svg">
<rect width="140" height="130" rx="12" fill="white"/>
<g clip-path="url(#clip0_1101_3986)">
<path d="M55.2393 59.7369L46 50.4975L76 20.5H94.4763L55.2393 59.7369ZM94.4763 48.1817H76L69.079 55.1027L78.3183 64.3421" fill="#42A5F5" fill-opacity="0.8"/>
<path d="M69.0791 73.5787L76.0001 80.4994H94.4764L78.3184 64.3418" fill="#0D47A1"/>
<path d="M59.8616 64.3473L69.0864 55.1201L78.3112 64.3449L69.0864 73.5721L59.8616 64.3473Z" fill="#42A5F5"/>
<path d="M69.0862 73.5715L78.3109 64.3467L79.5987 65.6344L70.3738 74.8592L69.0862 73.5715Z" fill="url(#paint0_linear_1101_3986)"/>
<path d="M69.0791 73.5792L82.7878 68.8431L78.3184 64.3398" fill="url(#paint1_linear_1101_3986)"/>
</g>
<path d="M45.7372 104.5V93.14H52.4732V94.852H47.6572V98.116H51.9772V99.828H47.6572V104.5H45.7372ZM54.2029 104.5V92.596H56.0429V104.5H54.2029ZM61.7111 104.74C60.9644 104.74 60.3137 104.58 59.7591 104.26C59.2151 103.94 58.7884 103.487 58.4791 102.9C58.1804 102.303 58.0311 101.604 58.0311 100.804V96.132H59.8711V100.836C59.8711 101.529 60.0364 102.079 60.3671 102.484C60.6977 102.879 61.1511 103.076 61.7271 103.076C62.3031 103.076 62.7564 102.879 63.0871 102.484C63.4177 102.079 63.5831 101.529 63.5831 100.836V96.132H65.4231V100.804C65.4231 101.593 65.2684 102.287 64.9591 102.884C64.6604 103.471 64.2337 103.929 63.6791 104.26C63.1244 104.58 62.4684 104.74 61.7111 104.74ZM70.8621 104.74C70.0194 104.74 69.3581 104.5 68.8781 104.02C68.3981 103.529 68.1581 102.831 68.1581 101.924V97.62H66.6861V96.132H68.1581V93.3H69.9981V96.132H72.4301V97.62H69.9981V101.732C69.9981 102.18 70.0887 102.527 70.2701 102.772C70.4621 103.007 70.7394 103.124 71.1021 103.124C71.2941 103.124 71.5021 103.097 71.7261 103.044C71.9501 102.98 72.1581 102.895 72.3501 102.788L72.7661 104.18C72.5207 104.351 72.2327 104.484 71.9021 104.58C71.5821 104.687 71.2354 104.74 70.8621 104.74ZM77.6746 104.74C76.8319 104.74 76.1706 104.5 75.6906 104.02C75.2106 103.529 74.9706 102.831 74.9706 101.924V97.62H73.4986V96.132H74.9706V93.3H76.8106V96.132H79.2426V97.62H76.8106V101.732C76.8106 102.18 76.9012 102.527 77.0826 102.772C77.2746 103.007 77.5519 103.124 77.9146 103.124C78.1066 103.124 78.3146 103.097 78.5386 103.044C78.7626 102.98 78.9706 102.895 79.1626 102.788L79.5786 104.18C79.3332 104.351 79.0452 104.484 78.7146 104.58C78.3946 104.687 78.0479 104.74 77.6746 104.74ZM84.7628 104.74C84.1441 104.74 83.5735 104.633 83.0508 104.42C82.5388 104.196 82.0908 103.887 81.7068 103.492C81.3228 103.097 81.0241 102.633 80.8108 102.1C80.6081 101.556 80.5068 100.959 80.5068 100.308C80.5068 99.6787 80.6081 99.0973 80.8108 98.564C81.0241 98.0307 81.3121 97.5667 81.6748 97.172C82.0481 96.7667 82.4855 96.452 82.9868 96.228C83.4881 96.004 84.0321 95.892 84.6188 95.892C85.2055 95.892 85.7388 95.9987 86.2188 96.212C86.7095 96.4147 87.1308 96.708 87.4828 97.092C87.8455 97.476 88.1228 97.9347 88.3148 98.468C88.5068 98.9907 88.6028 99.572 88.6028 100.212V100.756H82.4108C82.4641 101.247 82.5921 101.673 82.7948 102.036C83.0081 102.388 83.2801 102.66 83.6108 102.852C83.9415 103.044 84.3255 103.14 84.7628 103.14C85.6375 103.14 86.3201 102.751 86.8108 101.972L88.4268 102.596C88.2348 103.033 87.9521 103.417 87.5788 103.748C87.2161 104.068 86.7895 104.313 86.2988 104.484C85.8188 104.655 85.3068 104.74 84.7628 104.74ZM84.6188 97.38C84.2455 97.38 83.9095 97.4653 83.6108 97.636C83.3228 97.8067 83.0775 98.0467 82.8748 98.356C82.6721 98.6653 82.5335 99.028 82.4588 99.444H86.6828C86.6188 99.028 86.4961 98.6653 86.3148 98.356C86.1335 98.0467 85.8935 97.8067 85.5948 97.636C85.3068 97.4653 84.9815 97.38 84.6188 97.38ZM90.1717 104.5V96.132H91.8517L91.9317 97.508C92.145 97.0387 92.4384 96.676 92.8117 96.42C93.1957 96.1533 93.6437 96.02 94.1557 96.02C94.3157 96.02 94.4704 96.0307 94.6197 96.052C94.769 96.0733 94.9024 96.1107 95.0197 96.164L94.8117 97.956C94.6944 97.9133 94.5717 97.8867 94.4437 97.876C94.3157 97.8547 94.1877 97.844 94.0597 97.844C93.4197 97.844 92.9184 98.0573 92.5557 98.484C92.193 98.9107 92.0117 99.5027 92.0117 100.26V104.5H90.1717Z" fill="black" fill-opacity="0.7"/>
<defs>
<linearGradient id="paint0_linear_1101_3986" x1="73.7003" y1="68.9574" x2="74.9881" y2="70.2452" gradientUnits="userSpaceOnUse">
<stop offset="0.2" stop-opacity="0.15"/>
<stop offset="0.85" stop-color="#616161" stop-opacity="0.01"/>
</linearGradient>
<linearGradient id="paint1_linear_1101_3986" x1="69.0823" y1="68.9598" x2="82.7908" y2="68.9598" gradientUnits="userSpaceOnUse">
<stop offset="0.2" stop-opacity="0.55"/>
<stop offset="0.85" stop-color="#616161" stop-opacity="0.01"/>
</linearGradient>
<clipPath id="clip0_1101_3986">
<rect width="60" height="60" fill="white" transform="translate(40 20.5)"/>
</clipPath>
</defs>
</svg>
