<svg width="119" height="118" viewBox="0 0 119 118" fill="none" xmlns="http://www.w3.org/2000/svg">
<rect x="0.686768" width="117.626" height="118" rx="12" fill="white"/>
<path d="M50.3136 78.135C50.3136 78.135 47.6386 79.6906 52.2173 80.2169C57.7643 80.8496 60.5991 80.759 66.712 79.602C66.712 79.602 68.3192 80.6097 70.5634 81.4826C56.8604 87.3555 39.5503 81.1423 50.3136 78.135ZM48.6391 70.4711C48.6391 70.4711 45.6389 72.692 50.2209 73.1659C56.1463 73.7771 60.8257 73.8272 68.923 72.268C68.923 72.268 70.043 73.4034 71.804 74.0244C55.2359 78.8691 36.7822 74.4064 48.6391 70.4711Z" fill="#5382A1"/>
<path d="M62.7554 57.4708C66.132 61.3581 61.8683 64.8563 61.8683 64.8563C61.8683 64.8563 70.4416 60.4305 66.5043 54.8881C62.827 49.7199 60.0067 47.1516 75.2736 38.2975C75.2736 38.2975 51.3098 44.2825 62.7554 57.4706" fill="#E76F00"/>
<path d="M80.879 83.8037C80.879 83.8037 82.8585 85.4347 78.6988 86.6965C70.7893 89.0928 45.778 89.8163 38.8299 86.792C36.3323 85.7056 41.0161 84.1977 42.4894 83.8812C44.0259 83.548 44.904 83.6102 44.904 83.6102C42.1264 81.6534 26.9505 87.4523 37.1955 89.1128C65.1348 93.6438 88.1261 87.0727 80.879 83.8037ZM51.5998 62.5305C51.5998 62.5305 38.8777 65.5524 47.0948 66.6495C50.5641 67.114 57.4804 67.009 63.9228 66.4691C69.1879 66.0252 74.4747 65.0808 74.4747 65.0808C74.4747 65.0808 72.6182 65.8759 71.2751 66.793C58.3558 70.1908 33.398 68.6102 40.583 65.1345C46.6594 62.1973 51.6 62.5305 51.6 62.5305H51.5998ZM74.4222 75.2873C87.5555 68.4628 81.4832 61.9047 77.2449 62.7883C76.2059 63.0044 75.7428 63.1916 75.7428 63.1916C75.7428 63.1916 76.1285 62.5877 76.865 62.3262C85.2497 59.3783 91.6982 71.0204 74.1583 75.6313C74.1583 75.6315 74.3616 75.4499 74.4222 75.2873Z" fill="#5382A1"/>
<path d="M66.5043 24.0002C66.5043 24.0002 73.7777 31.2762 59.6058 42.4641C48.2416 51.4389 57.0144 56.556 59.6012 62.4026C52.9676 56.4176 48.0994 51.1489 51.3655 46.2454C56.1589 39.047 69.4388 35.5571 66.5043 24" fill="#E76F00"/>
<path d="M52.8904 93.7799C65.4966 94.5869 84.8547 93.3322 85.3132 87.3673C85.3132 87.3673 84.4319 89.6287 74.8949 91.4244C64.1353 93.4491 50.8649 93.2128 42.994 91.9151C42.9942 91.9151 44.6053 93.2487 52.8906 93.7799" fill="#5382A1"/>
</svg>
