<svg width="140" height="130" viewBox="0 0 140 130" fill="none" xmlns="http://www.w3.org/2000/svg">
<rect width="140" height="130" rx="12" fill="white"/>
<g clip-path="url(#clip0_3550_4877)">
<path d="M70.0917 19.1719L71.7729 22.3295C72.1508 22.9122 72.5603 23.428 73.0426 23.9083C74.4566 25.3047 75.7747 26.7951 76.9877 28.3692C79.8363 32.1095 81.7576 36.2633 83.1298 40.7556C83.9527 43.4999 84.3996 46.3149 84.433 49.1616C84.5708 57.6718 81.6533 64.9793 75.7711 71.0525C74.8143 72.0155 73.7807 72.8991 72.6804 73.6943C72.0977 73.6943 71.8221 73.2474 71.582 72.836C71.1445 72.0731 70.8535 71.2352 70.7236 70.3654C70.5169 69.3358 70.381 68.3062 70.448 67.2432V66.7629C70.4008 66.6605 69.8869 19.414 70.0917 19.1719Z" fill="#599636"/>
<path d="M70.0916 19.0677C70.0226 18.9299 69.9538 19.0343 69.8849 19.1012C69.9183 19.7902 69.6782 20.4044 69.3022 20.9911C68.8888 21.5738 68.3415 22.0206 67.7923 22.501C64.7409 25.1428 62.3392 28.334 60.4158 31.903C57.8567 36.7064 56.5377 41.8543 56.1637 47.2739C55.9924 49.2287 56.7818 56.1267 57.398 58.117C59.0792 63.4007 62.099 67.8281 66.0107 71.6708C66.9713 72.5961 67.999 73.4544 69.062 74.2792C69.371 74.2792 69.4046 74.0036 69.4754 73.7989C69.6109 73.3608 69.7142 72.9134 69.7844 72.4602L70.4735 67.3143L70.0916 19.0677Z" fill="#6CAC48"/>
<path d="M71.7728 75.7851C71.8417 74.9976 72.2197 74.3441 72.6311 73.6924C72.2177 73.5212 71.9106 73.1806 71.6705 72.8007C71.4633 72.4409 71.2919 72.0618 71.1586 71.6687C70.6783 70.2277 70.5759 68.7158 70.4381 67.2433V66.3516C70.2668 66.4893 70.2314 67.6548 70.2314 67.828C70.1312 69.3843 69.9247 70.932 69.6133 72.4601C69.5109 73.0782 69.442 73.6944 69.062 74.2436C69.062 74.3126 69.062 74.3814 69.0955 74.4838C69.7136 76.3028 69.883 78.1552 69.9873 80.0431V80.7321C69.9873 81.555 69.9538 81.3818 70.6369 81.6573C70.9125 81.7597 71.2196 81.7952 71.4953 82.0002C71.702 82.0002 71.7354 81.8286 71.7354 81.6908L71.633 80.5589V77.4013C71.5996 76.8501 71.702 76.3028 71.7708 75.787L71.7728 75.7851Z" fill="#C2BFBF"/>
</g>
<path d="M33.9169 106V94.64H35.8049L39.5809 101.6L43.3729 94.64H45.1809V106H43.2449V98.16L40.2689 103.632H38.8289L35.8529 98.16V106H33.9169ZM51.1769 106.24C50.5689 106.24 50.0035 106.133 49.4809 105.92C48.9689 105.696 48.5209 105.387 48.1369 104.992C47.7529 104.587 47.4542 104.117 47.2409 103.584C47.0275 103.04 46.9209 102.448 46.9209 101.808C46.9209 101.179 47.0275 100.597 47.2409 100.064C47.4542 99.52 47.7529 99.0507 48.1369 98.656C48.5315 98.2507 48.9902 97.9413 49.5129 97.728C50.0462 97.504 50.6222 97.392 51.2409 97.392C51.8489 97.392 52.4089 97.504 52.9209 97.728C53.4435 97.9413 53.8969 98.2507 54.2809 98.656C54.6649 99.0507 54.9635 99.5147 55.1769 100.048C55.3902 100.581 55.4969 101.168 55.4969 101.808C55.4969 102.448 55.3902 103.04 55.1769 103.584C54.9635 104.117 54.6595 104.587 54.2649 104.992C53.8809 105.387 53.4222 105.696 52.8889 105.92C52.3662 106.133 51.7955 106.24 51.1769 106.24ZM51.2089 104.576C51.6675 104.576 52.0782 104.459 52.4409 104.224C52.8035 103.979 53.0862 103.648 53.2889 103.232C53.5022 102.816 53.6089 102.341 53.6089 101.808C53.6089 101.275 53.5022 100.805 53.2889 100.4C53.0862 99.984 52.8035 99.6587 52.4409 99.424C52.0782 99.1787 51.6675 99.056 51.2089 99.056C50.7502 99.056 50.3395 99.1787 49.9769 99.424C49.6142 99.6587 49.3262 99.984 49.1129 100.4C48.9102 100.805 48.8089 101.275 48.8089 101.808C48.8089 102.341 48.9102 102.816 49.1129 103.232C49.3262 103.648 49.6142 103.979 49.9769 104.224C50.3395 104.459 50.7502 104.576 51.2089 104.576ZM57.117 106V97.632H58.797L58.861 98.784C59.1063 98.3573 59.4477 98.0213 59.885 97.776C60.333 97.52 60.845 97.392 61.421 97.392C62.0503 97.392 62.5943 97.5413 63.053 97.84C63.5223 98.1387 63.885 98.56 64.141 99.104C64.397 99.648 64.525 100.288 64.525 101.024V106H62.685V101.232C62.685 100.549 62.5303 100.016 62.221 99.632C61.9223 99.248 61.501 99.056 60.957 99.056C60.573 99.056 60.2263 99.1467 59.917 99.328C59.6183 99.5093 59.3837 99.7547 59.213 100.064C59.0423 100.373 58.957 100.731 58.957 101.136V106H57.117ZM69.9956 105.84C69.4516 105.84 68.945 105.733 68.4756 105.52C68.0063 105.307 67.5956 105.013 67.2436 104.64C66.8916 104.256 66.6196 103.813 66.4276 103.312C66.2356 102.8 66.1396 102.245 66.1396 101.648C66.1396 101.051 66.2356 100.496 66.4276 99.984C66.6303 99.4613 66.913 99.008 67.2756 98.624C67.6383 98.24 68.0596 97.9413 68.5396 97.728C69.0196 97.504 69.537 97.392 70.0916 97.392C70.6676 97.392 71.1903 97.52 71.6596 97.776C72.1396 98.0213 72.5236 98.368 72.8116 98.816L72.8756 97.632H74.5556V105.12C74.5556 105.76 74.4543 106.341 74.2516 106.864C74.049 107.397 73.761 107.851 73.3876 108.224C73.0143 108.608 72.5663 108.901 72.0436 109.104C71.5316 109.307 70.9556 109.408 70.3156 109.408C69.4623 109.408 68.7156 109.216 68.0756 108.832C67.4356 108.448 66.9343 107.915 66.5716 107.232L68.3156 106.624C68.5503 107.008 68.8436 107.296 69.1956 107.488C69.5476 107.691 69.9423 107.792 70.3796 107.792C70.849 107.792 71.2596 107.685 71.6116 107.472C71.9636 107.269 72.2356 106.976 72.4276 106.592C72.6196 106.219 72.7156 105.776 72.7156 105.264V104.464C72.417 104.891 72.033 105.227 71.5636 105.472C71.0943 105.717 70.5716 105.84 69.9956 105.84ZM70.3796 104.176C70.8276 104.176 71.2276 104.064 71.5796 103.84C71.9423 103.616 72.225 103.312 72.4276 102.928C72.641 102.544 72.7476 102.107 72.7476 101.616C72.7476 101.125 72.641 100.688 72.4276 100.304C72.225 99.92 71.9423 99.616 71.5796 99.392C71.2276 99.168 70.8276 99.056 70.3796 99.056C69.9316 99.056 69.5316 99.168 69.1796 99.392C68.8276 99.616 68.545 99.92 68.3316 100.304C68.129 100.688 68.0276 101.125 68.0276 101.616C68.0276 102.107 68.129 102.544 68.3316 102.928C68.545 103.312 68.8276 103.616 69.1796 103.84C69.5316 104.064 69.9316 104.176 70.3796 104.176ZM80.4269 106.24C79.8189 106.24 79.2535 106.133 78.7309 105.92C78.2189 105.696 77.7709 105.387 77.3869 104.992C77.0029 104.587 76.7042 104.117 76.4909 103.584C76.2775 103.04 76.1709 102.448 76.1709 101.808C76.1709 101.179 76.2775 100.597 76.4909 100.064C76.7042 99.52 77.0029 99.0507 77.3869 98.656C77.7815 98.2507 78.2402 97.9413 78.7629 97.728C79.2962 97.504 79.8722 97.392 80.4909 97.392C81.0989 97.392 81.6589 97.504 82.1709 97.728C82.6935 97.9413 83.1469 98.2507 83.5309 98.656C83.9149 99.0507 84.2135 99.5147 84.4269 100.048C84.6402 100.581 84.7469 101.168 84.7469 101.808C84.7469 102.448 84.6402 103.04 84.4269 103.584C84.2135 104.117 83.9095 104.587 83.5149 104.992C83.1309 105.387 82.6722 105.696 82.1389 105.92C81.6162 106.133 81.0455 106.24 80.4269 106.24ZM80.4589 104.576C80.9175 104.576 81.3282 104.459 81.6909 104.224C82.0535 103.979 82.3362 103.648 82.5389 103.232C82.7522 102.816 82.8589 102.341 82.8589 101.808C82.8589 101.275 82.7522 100.805 82.5389 100.4C82.3362 99.984 82.0535 99.6587 81.6909 99.424C81.3282 99.1787 80.9175 99.056 80.4589 99.056C80.0002 99.056 79.5895 99.1787 79.2269 99.424C78.8642 99.6587 78.5762 99.984 78.3629 100.4C78.1602 100.805 78.0589 101.275 78.0589 101.808C78.0589 102.341 78.1602 102.816 78.3629 103.232C78.5762 103.648 78.8642 103.979 79.2269 104.224C79.5895 104.459 80.0002 104.576 80.4589 104.576ZM86.495 106V94.64H90.639C91.535 94.64 92.351 94.7787 93.087 95.056C93.8337 95.3227 94.4683 95.7067 94.991 96.208C95.5243 96.6987 95.935 97.2907 96.223 97.984C96.511 98.6773 96.655 99.4507 96.655 100.304C96.655 101.157 96.511 101.936 96.223 102.64C95.935 103.333 95.5243 103.931 94.991 104.432C94.4577 104.933 93.823 105.323 93.087 105.6C92.351 105.867 91.535 106 90.639 106H86.495ZM88.447 104.256H90.543C91.3857 104.256 92.111 104.096 92.719 103.776C93.327 103.456 93.7963 103.003 94.127 102.416C94.4683 101.819 94.639 101.12 94.639 100.32C94.639 99.52 94.4683 98.8267 94.127 98.24C93.7963 97.6427 93.3217 97.184 92.703 96.864C92.095 96.544 91.375 96.384 90.543 96.384H88.447V104.256ZM98.5106 106V94.64H102.447C103.193 94.64 103.833 94.7627 104.367 95.008C104.911 95.2427 105.332 95.5787 105.631 96.016C105.929 96.4533 106.079 96.9707 106.079 97.568C106.079 98.112 105.951 98.592 105.695 99.008C105.449 99.424 105.092 99.7493 104.623 99.984C105.231 100.197 105.705 100.555 106.047 101.056C106.388 101.547 106.559 102.123 106.559 102.784C106.559 103.435 106.393 104 106.063 104.48C105.732 104.96 105.263 105.333 104.655 105.6C104.057 105.867 103.348 106 102.527 106H98.5106ZM100.399 96.304V99.312H102.271C102.868 99.312 103.327 99.184 103.647 98.928C103.967 98.672 104.127 98.2987 104.127 97.808C104.127 97.3387 103.961 96.9707 103.631 96.704C103.311 96.4373 102.857 96.304 102.271 96.304H100.399ZM100.399 104.336H102.447C103.129 104.336 103.657 104.187 104.031 103.888C104.404 103.579 104.591 103.157 104.591 102.624C104.591 102.069 104.404 101.643 104.031 101.344C103.657 101.045 103.129 100.896 102.447 100.896H100.399V104.336Z" fill="black" fill-opacity="0.7"/>
<defs>
<clipPath id="clip0_3550_4877">
<rect width="63" height="63" fill="white" transform="translate(38.5 19)"/>
</clipPath>
</defs>
</svg>
