<svg width="140" height="130" viewBox="0 0 140 130" fill="none" xmlns="http://www.w3.org/2000/svg">
<rect width="140" height="130" rx="12" fill="white"/>
<g clip-path="url(#clip0_3550_4861)">
<path d="M96.5295 67.5518C93.1018 67.465 90.4452 67.813 88.2171 68.7698C87.5743 69.0305 86.5458 69.0308 86.4601 69.8572C86.8029 70.2052 86.8458 70.7707 87.1458 71.2489C87.6605 72.1186 88.5597 73.2932 89.3739 73.9024C90.2735 74.5981 91.1737 75.2938 92.116 75.9028C93.7872 76.9468 95.6728 77.5555 97.3009 78.5995C98.2439 79.208 99.1859 79.9914 100.129 80.6437C100.6 80.9912 100.9 81.5572 101.5 81.7744V81.6442C101.2 81.2524 101.114 80.6872 100.814 80.2522C100.386 79.8172 99.9573 79.4257 99.5288 78.9907C98.2863 77.2948 96.7438 75.8158 95.0728 74.5981C93.7017 73.6411 90.7021 72.3364 90.1453 70.7269C90.1453 70.7269 90.1021 70.6837 90.0595 70.6402C91.0021 70.5532 92.116 70.2052 93.0161 69.9442C94.4729 69.5525 95.8011 69.6397 97.3009 69.2482C97.9863 69.0742 98.6719 68.8568 99.3574 68.6392V68.248C98.5865 67.465 98.0294 66.4213 97.2152 65.6818C95.03 63.7676 92.6302 61.8976 90.1453 60.332C88.8168 59.4619 87.1027 58.8965 85.6888 58.1573C85.1751 57.896 84.3178 57.7657 84.018 57.3308C83.2464 56.3741 82.8179 55.1128 82.2611 53.9818C81.0188 51.5894 79.8187 48.9365 78.7474 46.414C77.9765 44.7176 77.5051 43.0212 76.5623 41.4557C72.149 34.0616 67.35 29.5817 59.9803 25.1886C58.3947 24.2754 56.5094 23.8839 54.4956 23.4056C53.4248 23.3619 52.3532 23.2751 51.2821 23.2314C50.5965 22.9269 49.9108 22.1007 49.3109 21.7092C46.869 20.1432 40.5699 16.751 38.7703 21.2309C37.6133 24.0579 40.4844 26.8413 41.4696 28.277C42.1986 29.2772 43.1408 30.4079 43.6551 31.5389C43.955 32.2779 44.0405 33.0614 44.3405 33.8441C45.0264 35.7573 45.6686 37.889 46.5688 39.6725C47.0402 40.5857 47.5542 41.5424 48.1541 42.3689C48.497 42.8471 49.0967 43.0649 49.2254 43.8476C48.6257 44.7176 48.5826 46.0225 48.2395 47.1098C46.6971 52.0247 47.2973 58.1137 49.4823 61.7236C50.1677 62.8106 51.7961 65.2036 53.9814 64.2898C55.9097 63.5071 55.4812 61.0279 56.0378 58.8532C56.1668 58.3308 56.0812 57.9833 56.338 57.6353V57.7225C56.938 58.94 57.5377 60.1147 58.0948 61.3324C59.4232 63.4634 61.7367 65.6818 63.6648 67.1608C64.6936 67.9433 65.5075 69.2917 66.7931 69.7702V69.6395H66.7072C66.4501 69.248 66.0644 69.0742 65.7218 68.7695C64.9507 67.987 64.0934 67.03 63.4937 66.16C61.6944 63.7241 60.1086 61.0277 58.6947 58.244C58.0093 56.896 57.4091 55.4171 56.8523 54.0688C56.5949 53.5464 56.5949 52.7639 56.1666 52.5032C55.5238 53.4599 54.5813 54.2864 54.11 55.4606C53.2962 57.3308 53.2102 59.636 52.9103 62.0279C52.7389 62.0719 52.8243 62.0279 52.7386 62.1154C51.3678 61.7669 50.8964 60.332 50.382 59.114C49.0964 56.0261 48.8821 51.0677 49.9966 47.5013C50.2965 46.5878 51.5821 43.7174 51.0679 42.8474C50.8108 42.0209 49.9535 41.5424 49.4823 40.8902C48.9255 40.0637 48.3253 39.0202 47.9399 38.1065C46.9114 35.6708 46.3972 32.9742 45.2832 30.5385C44.769 29.4075 43.8696 28.2335 43.1408 27.1895C42.3269 26.0153 41.427 25.1886 40.7842 23.7969C40.5701 23.3186 40.2699 22.5356 40.6127 22.0137C40.6985 21.6657 40.8696 21.5354 41.2127 21.4484C41.7698 20.9697 43.3553 21.5787 43.9119 21.8397C45.4975 22.4916 46.8257 23.1011 48.1541 24.0144C48.7538 24.4493 49.3966 25.2758 50.1677 25.4933H51.0676C52.4389 25.7976 53.9811 25.5803 55.2667 25.9716C57.5379 26.7108 59.5944 27.7983 61.437 28.9727C67.0503 32.5826 71.6774 37.715 74.8056 43.8476C75.3198 44.8476 75.5339 45.7616 76.0053 46.8051C76.9054 48.9365 78.0193 51.1112 78.9188 53.1989C79.8187 55.2428 80.6755 57.3308 81.9611 59.0272C82.6038 59.9402 85.1746 60.419 86.3316 60.8975C87.1886 61.2887 88.5171 61.6369 89.2881 62.1151C90.7449 63.0281 92.2016 64.0726 93.573 65.0726C94.2586 65.5946 96.4008 66.6821 96.5295 67.5518Z" fill="#00546B"/>
<path d="M52.8241 29.7549C52.0958 29.7549 51.5819 29.8424 51.0676 29.9726V30.0596H51.1533C51.4964 30.7556 52.0958 31.2341 52.5241 31.8428C52.8672 32.5385 53.1669 33.2348 53.51 33.9308C53.5526 33.887 53.5954 33.8438 53.5954 33.8438C54.1956 33.4085 54.4953 32.7128 54.4953 31.6688C54.2382 31.3646 54.1954 31.0601 53.9811 30.7556C53.7243 30.3204 53.1669 30.1031 52.8241 29.7549Z" fill="#00546B"/>
</g>
<path d="M48.4091 106V94.64H50.2971L54.0731 101.6L57.8651 94.64H59.6731V106H57.7371V98.16L54.7611 103.632H53.3211L50.3451 98.16V106H48.4091ZM62.9011 109.328C62.6344 109.328 62.3837 109.301 62.1491 109.248C61.9251 109.195 61.7064 109.109 61.4931 108.992L61.8931 107.536C62.0104 107.589 62.1437 107.632 62.2931 107.664C62.4424 107.707 62.5864 107.728 62.7251 107.728C63.0451 107.728 63.3224 107.637 63.5571 107.456C63.8024 107.275 64.0051 106.981 64.1651 106.576L64.4211 105.92L61.0131 97.632H63.0291L65.2851 103.888L67.3331 97.632H69.2851L65.7331 107.008C65.4237 107.808 65.0344 108.395 64.5651 108.768C64.1064 109.141 63.5517 109.328 62.9011 109.328ZM73.9718 106.24C73.3318 106.24 72.7345 106.128 72.1798 105.904C71.6358 105.669 71.1718 105.344 70.7878 104.928C70.4038 104.512 70.1318 104.016 69.9718 103.44L71.8118 102.992C71.9825 103.483 72.2545 103.861 72.6278 104.128C73.0011 104.395 73.4545 104.528 73.9878 104.528C74.3718 104.528 74.7131 104.453 75.0118 104.304C75.3105 104.155 75.5451 103.952 75.7158 103.696C75.8971 103.44 75.9878 103.147 75.9878 102.816C75.9878 102.411 75.8385 102.075 75.5398 101.808C75.2518 101.531 74.7931 101.323 74.1638 101.184L73.5718 101.056C72.4411 100.811 71.6038 100.405 71.0598 99.84C70.5265 99.2747 70.2598 98.5867 70.2598 97.776C70.2598 97.2853 70.3558 96.8373 70.5478 96.432C70.7398 96.016 71.0065 95.6587 71.3478 95.36C71.6891 95.0507 72.0891 94.816 72.5478 94.656C73.0065 94.4853 73.5025 94.4 74.0358 94.4C74.6438 94.4 75.2038 94.512 75.7158 94.736C76.2278 94.96 76.6651 95.28 77.0278 95.696C77.3905 96.1013 77.6465 96.5867 77.7958 97.152L75.9718 97.6C75.8011 97.12 75.5451 96.752 75.2038 96.496C74.8625 96.24 74.4571 96.112 73.9878 96.112C73.6465 96.112 73.3425 96.1813 73.0758 96.32C72.8198 96.448 72.6118 96.6293 72.4518 96.864C72.3025 97.088 72.2278 97.344 72.2278 97.632C72.2278 98.048 72.3825 98.3787 72.6918 98.624C73.0011 98.8693 73.4758 99.0667 74.1158 99.216L74.7078 99.344C76.8838 99.8347 77.9718 100.939 77.9718 102.656C77.9718 103.179 77.8705 103.664 77.6678 104.112C77.4758 104.549 77.1985 104.928 76.8358 105.248C76.4731 105.557 76.0465 105.803 75.5558 105.984C75.0758 106.155 74.5478 106.24 73.9718 106.24ZM83.3014 106.24C82.7468 106.24 82.2294 106.128 81.7494 105.904C81.2801 105.68 80.8694 105.371 80.5174 104.976C80.1654 104.581 79.8881 104.117 79.6854 103.584C79.4934 103.051 79.3974 102.475 79.3974 101.856C79.3974 101.227 79.4988 100.64 79.7014 100.096C79.9041 99.552 80.1868 99.0773 80.5494 98.672C80.9121 98.2667 81.3334 97.952 81.8134 97.728C82.3041 97.504 82.8321 97.392 83.3974 97.392C83.9841 97.392 84.5121 97.52 84.9814 97.776C85.4614 98.032 85.8454 98.3947 86.1334 98.864L86.2134 97.632H87.8934V109.168H86.0534V104.784C85.7548 105.243 85.3654 105.6 84.8854 105.856C84.4054 106.112 83.8774 106.24 83.3014 106.24ZM83.6854 104.576C84.1441 104.576 84.5548 104.459 84.9174 104.224C85.2801 103.979 85.5628 103.648 85.7654 103.232C85.9788 102.816 86.0854 102.347 86.0854 101.824C86.0854 101.291 85.9788 100.816 85.7654 100.4C85.5628 99.984 85.2801 99.6587 84.9174 99.424C84.5548 99.1787 84.1441 99.056 83.6854 99.056C83.2268 99.056 82.8161 99.1787 82.4534 99.424C82.0908 99.6587 81.8028 99.984 81.5894 100.4C81.3868 100.816 81.2854 101.291 81.2854 101.824C81.2854 102.347 81.3868 102.816 81.5894 103.232C81.8028 103.648 82.0908 103.979 82.4534 104.224C82.8161 104.459 83.2268 104.576 83.6854 104.576ZM89.8748 106V94.096H91.7148V106H89.8748Z" fill="black" fill-opacity="0.7"/>
<defs>
<clipPath id="clip0_3550_4861">
<rect width="63" height="63" fill="white" transform="translate(38.5 19)"/>
</clipPath>
</defs>
</svg>
