<svg width="140" height="130" viewBox="0 0 140 130" fill="none" xmlns="http://www.w3.org/2000/svg">
<rect width="140" height="130" rx="12" fill="white"/>
<path d="M69.9414 79.7568C54.3716 79.7568 41.1713 66.6065 41.0488 50.9395C41.0221 47.1599 41.7457 43.4126 43.1778 39.9147C44.6099 36.4168 46.7219 33.2379 49.3915 30.5622C52.0787 27.8107 55.2857 25.6204 58.8264 24.1183C62.367 22.6163 66.1707 21.8326 70.0167 21.8125C73.7936 21.8093 77.5338 22.5534 81.0219 24.0019C84.51 25.4504 87.677 27.5747 90.3406 30.2524C93.0484 32.8923 95.2071 36.042 96.6922 39.5199C98.1772 42.9978 98.9594 46.7353 98.9936 50.5168C99.0655 66.5312 86.1912 79.5971 70.1763 79.7601H69.9414V79.7568ZM70.0319 23.3289C66.3867 23.3505 62.782 24.0958 59.4271 25.5215C56.0722 26.9471 53.0337 29.0248 50.4881 31.634C47.9563 34.1655 45.9521 37.1744 44.5917 40.4862C43.2313 43.798 42.5417 47.3469 42.5628 50.9271C42.6753 65.7764 55.1894 78.2275 69.9318 78.2275H70.1291C85.3138 78.0893 97.5334 65.7101 97.4767 50.5259C97.4429 46.9437 96.7005 43.4036 95.2923 40.1096C93.8841 36.8156 91.8379 33.8329 89.2717 31.3333C86.7543 28.792 83.7573 26.7759 80.4547 25.4019C77.152 24.0279 73.609 23.3233 70.0319 23.3289Z" fill="#0B5A9D"/>
<path d="M47.5491 59.2599V42.3333H51.6666V43.8502H49.4825V57.7744H51.667V59.2913L47.5491 59.2599ZM61.5233 50.6288C61.5233 53.716 59.649 55.474 57.1103 55.474C54.5717 55.474 52.8799 53.4935 52.8799 50.789C52.8799 47.9587 54.6537 45.9657 57.2485 45.9657C59.8434 45.9657 61.5233 48.0435 61.5233 50.6288ZM54.6537 50.767C54.6537 52.6409 55.5939 54.1268 57.208 54.1268C58.8221 54.1268 59.7495 52.6099 59.7495 50.6979C59.7495 48.9618 58.8936 47.3224 57.2076 47.3224C55.5215 47.3224 54.6379 48.9084 54.6379 50.8047L54.6537 50.767ZM62.9492 46.2854C63.7546 46.1472 64.5728 46.0786 65.3906 46.0815C66.3097 45.9921 67.2334 46.1961 68.0293 46.6643C68.3279 46.8394 68.5741 47.0914 68.7423 47.3939C68.9104 47.6965 68.9943 48.0387 68.9853 48.3847C68.9747 48.8344 68.8224 49.2693 68.55 49.6273C68.2775 49.9853 67.899 50.2481 67.4684 50.3782C68.5497 50.5974 69.327 51.5505 69.327 52.6538C69.3327 53.0163 69.2557 53.3754 69.1021 53.7039C68.9484 54.0323 68.7221 54.3215 68.4401 54.5495C67.7882 55.1262 66.704 55.4054 65.027 55.4054C64.3377 55.4085 63.649 55.3676 62.9649 55.2829L62.9492 46.2854ZM64.6167 49.9178H65.4721C66.6316 49.9178 67.2835 49.3721 67.2835 48.592C67.2835 47.8114 66.6316 47.332 65.5631 47.332C65.2429 47.3221 64.9226 47.3452 64.6071 47.4011L64.6167 49.9178ZM64.6167 54.1487C64.9112 54.1797 65.209 54.1926 65.5031 54.1859C66.5815 54.1859 67.5342 53.7756 67.5342 52.6695C67.5342 51.5634 66.6097 51.1526 65.4502 51.1526H64.6162L64.6167 54.1487ZM72.6401 46.163H74.3161V52.1457C74.3161 54.6877 73.088 55.537 71.2828 55.537C70.8006 55.5339 70.322 55.4523 69.866 55.2953L70.07 53.9448C70.405 54.0515 70.7562 54.1044 71.1103 54.1111C72.0663 54.1111 72.6272 53.6722 72.6272 52.08L72.6401 46.163ZM79.0865 51.1459V52.3059H75.5981V51.1459H79.0865ZM87.2315 55.0885C86.4761 55.3897 85.6679 55.5274 84.8591 55.4993C81.9383 55.4993 80.1645 53.6722 80.1645 50.8733C80.0297 48.3223 81.9883 46.1444 84.5394 46.0095C84.7181 46 84.9001 46 85.0784 46.0124C85.8579 45.98 86.6349 46.1203 87.3539 46.4232L86.9808 47.758C86.41 47.5162 85.7955 47.3946 85.1756 47.4006C83.3017 47.4006 81.954 48.5763 81.954 50.7918C81.954 52.8101 83.1449 54.1139 85.1632 54.1139C85.789 54.1235 86.4103 54.0073 86.9903 53.7722L87.2315 55.0885ZM92.4937 42.2861V59.2565H88.3757V57.7401H90.5598V43.803H88.3757V42.2861H92.4937Z" fill="#0B5A9D"/>
<path d="M32.1597 105.32C31.4984 105.32 30.8744 105.224 30.2877 105.032C29.7117 104.84 29.1837 104.568 28.7037 104.216C28.2344 103.853 27.829 103.427 27.4877 102.936C27.1464 102.445 26.8797 101.896 26.6877 101.288C26.5064 100.68 26.4157 100.029 26.4157 99.336C26.4157 98.6427 26.5064 97.992 26.6877 97.384C26.8797 96.776 27.1464 96.2267 27.4877 95.736C27.829 95.2347 28.2397 94.8027 28.7197 94.44C29.1997 94.0773 29.7277 93.8 30.3037 93.608C30.8904 93.416 31.5144 93.32 32.1757 93.32C32.837 93.32 33.4557 93.416 34.0317 93.608C34.6184 93.8 35.1464 94.0773 35.6157 94.44C36.0957 94.792 36.5064 95.2133 36.8477 95.704C37.189 96.1947 37.4504 96.744 37.6317 97.352C37.813 97.96 37.9037 98.6107 37.9037 99.304C37.9037 99.9973 37.8077 100.648 37.6157 101.256C37.4344 101.864 37.173 102.419 36.8317 102.92C36.4904 103.411 36.0797 103.837 35.5997 104.2C35.1304 104.563 34.6024 104.84 34.0157 105.032C33.4397 105.224 32.821 105.32 32.1597 105.32ZM32.1597 103.528C32.7037 103.528 33.1997 103.427 33.6477 103.224C34.1064 103.011 34.501 102.717 34.8317 102.344C35.1624 101.971 35.4184 101.528 35.5997 101.016C35.7917 100.493 35.8877 99.928 35.8877 99.32C35.8877 98.712 35.7917 98.152 35.5997 97.64C35.4184 97.1173 35.1624 96.6693 34.8317 96.296C34.501 95.9227 34.1064 95.6347 33.6477 95.432C33.1997 95.2187 32.7037 95.112 32.1597 95.112C31.6157 95.112 31.1144 95.2187 30.6557 95.432C30.2077 95.6347 29.8184 95.9227 29.4877 96.296C29.157 96.6693 28.8957 97.1173 28.7037 97.64C28.5224 98.152 28.4317 98.712 28.4317 99.32C28.4317 99.928 28.5224 100.493 28.7037 101.016C28.8957 101.528 29.157 101.971 29.4877 102.344C29.8184 102.717 30.2077 103.011 30.6557 103.224C31.1144 103.427 31.6157 103.528 32.1597 103.528ZM39.6248 105V93.096H41.4648V97.848C41.7635 97.3893 42.1528 97.032 42.6328 96.776C43.1128 96.52 43.6408 96.392 44.2168 96.392C44.7715 96.392 45.2835 96.504 45.7528 96.728C46.2328 96.952 46.6488 97.2613 47.0008 97.656C47.3528 98.0507 47.6248 98.5147 47.8168 99.048C48.0195 99.5813 48.1208 100.157 48.1208 100.776C48.1208 101.405 48.0195 101.992 47.8168 102.536C47.6141 103.08 47.3315 103.555 46.9688 103.96C46.6061 104.365 46.1795 104.68 45.6888 104.904C45.2088 105.128 44.6861 105.24 44.1208 105.24C43.5341 105.24 43.0008 105.112 42.5208 104.856C42.0515 104.6 41.6728 104.237 41.3848 103.768L41.3048 105H39.6248ZM43.8328 103.576C44.2915 103.576 44.7021 103.459 45.0648 103.224C45.4275 102.979 45.7101 102.648 45.9128 102.232C46.1261 101.816 46.2328 101.341 46.2328 100.808C46.2328 100.275 46.1261 99.8053 45.9128 99.4C45.7101 98.984 45.4275 98.6587 45.0648 98.424C44.7021 98.1787 44.2915 98.056 43.8328 98.056C43.3741 98.056 42.9635 98.1787 42.6008 98.424C42.2381 98.6587 41.9501 98.984 41.7368 99.4C41.5341 99.8053 41.4328 100.275 41.4328 100.808C41.4328 101.341 41.5341 101.816 41.7368 102.232C41.9501 102.648 42.2381 102.979 42.6008 103.224C42.9635 103.459 43.3741 103.576 43.8328 103.576ZM51.8462 94.296C51.8462 94.4987 51.7929 94.6853 51.6862 94.856C51.5902 95.0267 51.4569 95.1653 51.2862 95.272C51.1262 95.368 50.9395 95.416 50.7262 95.416C50.5129 95.416 50.3209 95.368 50.1502 95.272C49.9902 95.1653 49.8569 95.0267 49.7502 94.856C49.6542 94.6853 49.6062 94.4987 49.6062 94.296C49.6062 94.0933 49.6542 93.9067 49.7502 93.736C49.8569 93.5653 49.9902 93.432 50.1502 93.336C50.3209 93.2293 50.5129 93.176 50.7262 93.176C50.9395 93.176 51.1262 93.2293 51.2862 93.336C51.4569 93.432 51.5902 93.5653 51.6862 93.736C51.7929 93.9067 51.8462 94.0933 51.8462 94.296ZM49.0302 108.328C48.7529 108.328 48.4915 108.291 48.2462 108.216C48.0009 108.152 47.7715 108.056 47.5582 107.928L47.9902 106.504C48.2355 106.643 48.4915 106.712 48.7582 106.712C49.0889 106.712 49.3449 106.6 49.5262 106.376C49.7182 106.152 49.8142 105.837 49.8142 105.432V96.632H51.6542V105.544C51.6542 106.099 51.5422 106.584 51.3182 107C51.1049 107.416 50.8009 107.741 50.4062 107.976C50.0115 108.211 49.5529 108.328 49.0302 108.328ZM57.5284 105.24C56.9098 105.24 56.3391 105.133 55.8164 104.92C55.3044 104.696 54.8564 104.387 54.4724 103.992C54.0884 103.597 53.7898 103.133 53.5764 102.6C53.3738 102.056 53.2724 101.459 53.2724 100.808C53.2724 100.179 53.3738 99.5973 53.5764 99.064C53.7898 98.5307 54.0778 98.0667 54.4404 97.672C54.8138 97.2667 55.2511 96.952 55.7524 96.728C56.2538 96.504 56.7978 96.392 57.3844 96.392C57.9711 96.392 58.5044 96.4987 58.9844 96.712C59.4751 96.9147 59.8964 97.208 60.2484 97.592C60.6111 97.976 60.8884 98.4347 61.0804 98.968C61.2724 99.4907 61.3684 100.072 61.3684 100.712V101.256H55.1764C55.2298 101.747 55.3578 102.173 55.5604 102.536C55.7738 102.888 56.0458 103.16 56.3764 103.352C56.7071 103.544 57.0911 103.64 57.5284 103.64C58.4031 103.64 59.0858 103.251 59.5764 102.472L61.1924 103.096C61.0004 103.533 60.7178 103.917 60.3444 104.248C59.9818 104.568 59.5551 104.813 59.0644 104.984C58.5844 105.155 58.0724 105.24 57.5284 105.24ZM57.3844 97.88C57.0111 97.88 56.6751 97.9653 56.3764 98.136C56.0884 98.3067 55.8431 98.5467 55.6404 98.856C55.4378 99.1653 55.2991 99.528 55.2244 99.944H59.4484C59.3844 99.528 59.2618 99.1653 59.0804 98.856C58.8991 98.5467 58.6591 98.3067 58.3604 98.136C58.0724 97.9653 57.7471 97.88 57.3844 97.88ZM66.7914 105.24C66.1941 105.24 65.6448 105.133 65.1434 104.92C64.6421 104.696 64.2048 104.392 63.8314 104.008C63.4581 103.613 63.1648 103.149 62.9514 102.616C62.7488 102.083 62.6474 101.501 62.6474 100.872C62.6474 100.243 62.7541 99.656 62.9674 99.112C63.1808 98.568 63.4741 98.0933 63.8474 97.688C64.2208 97.2827 64.6581 96.968 65.1594 96.744C65.6714 96.5093 66.2261 96.392 66.8234 96.392C67.3994 96.392 67.9274 96.4987 68.4074 96.712C68.8874 96.9147 69.2981 97.208 69.6394 97.592C69.9914 97.9653 70.2421 98.408 70.3914 98.92L68.6474 99.336C68.4661 98.9307 68.2101 98.616 67.8794 98.392C67.5594 98.168 67.1968 98.056 66.7914 98.056C66.3648 98.056 65.9808 98.1787 65.6394 98.424C65.2981 98.6693 65.0261 99.0053 64.8234 99.432C64.6314 99.848 64.5354 100.323 64.5354 100.856C64.5354 101.379 64.6314 101.848 64.8234 102.264C65.0154 102.669 65.2768 102.989 65.6074 103.224C65.9488 103.459 66.3434 103.576 66.7914 103.576C67.2181 103.576 67.6074 103.469 67.9594 103.256C68.3114 103.032 68.5728 102.717 68.7434 102.312L70.4714 102.712C70.3221 103.224 70.0661 103.672 69.7034 104.056C69.3408 104.429 68.9088 104.723 68.4074 104.936C67.9061 105.139 67.3674 105.24 66.7914 105.24ZM75.3777 105.24C74.535 105.24 73.8737 105 73.3937 104.52C72.9137 104.029 72.6737 103.331 72.6737 102.424V98.12H71.2017V96.632H72.6737V93.8H74.5137V96.632H76.9457V98.12H74.5137V102.232C74.5137 102.68 74.6044 103.027 74.7857 103.272C74.9777 103.507 75.255 103.624 75.6177 103.624C75.8097 103.624 76.0177 103.597 76.2417 103.544C76.4657 103.48 76.6737 103.395 76.8657 103.288L77.2817 104.68C77.0364 104.851 76.7484 104.984 76.4177 105.08C76.0977 105.187 75.751 105.24 75.3777 105.24ZM80.7662 94.296C80.7662 94.4987 80.7129 94.6853 80.6062 94.856C80.5102 95.0267 80.3769 95.1653 80.2062 95.272C80.0355 95.368 79.8489 95.416 79.6462 95.416C79.4435 95.416 79.2569 95.368 79.0862 95.272C78.9155 95.1653 78.7769 95.0267 78.6702 94.856C78.5742 94.6853 78.5262 94.4987 78.5262 94.296C78.5262 94.0933 78.5742 93.9067 78.6702 93.736C78.7769 93.5653 78.9155 93.432 79.0862 93.336C79.2569 93.2293 79.4435 93.176 79.6462 93.176C79.8489 93.176 80.0355 93.2293 80.2062 93.336C80.3769 93.432 80.5102 93.5653 80.6062 93.736C80.7129 93.9067 80.7662 94.0933 80.7662 94.296ZM78.7342 105V96.632H80.5742V105H78.7342ZM84.9943 105L81.7943 96.632H83.8103L85.9543 103.08L88.1143 96.632H90.0663L86.8663 105H84.9943ZM94.9191 105.24C94.3004 105.24 93.7297 105.133 93.2071 104.92C92.6951 104.696 92.2471 104.387 91.8631 103.992C91.4791 103.597 91.1804 103.133 90.9671 102.6C90.7644 102.056 90.6631 101.459 90.6631 100.808C90.6631 100.179 90.7644 99.5973 90.9671 99.064C91.1804 98.5307 91.4684 98.0667 91.8311 97.672C92.2044 97.2667 92.6417 96.952 93.1431 96.728C93.6444 96.504 94.1884 96.392 94.7751 96.392C95.3617 96.392 95.8951 96.4987 96.3751 96.712C96.8657 96.9147 97.2871 97.208 97.6391 97.592C98.0017 97.976 98.2791 98.4347 98.4711 98.968C98.6631 99.4907 98.7591 100.072 98.7591 100.712V101.256H92.5671C92.6204 101.747 92.7484 102.173 92.9511 102.536C93.1644 102.888 93.4364 103.16 93.7671 103.352C94.0977 103.544 94.4817 103.64 94.9191 103.64C95.7937 103.64 96.4764 103.251 96.9671 102.472L98.5831 103.096C98.3911 103.533 98.1084 103.917 97.7351 104.248C97.3724 104.568 96.9457 104.813 96.4551 104.984C95.9751 105.155 95.4631 105.24 94.9191 105.24ZM94.7751 97.88C94.4017 97.88 94.0657 97.9653 93.7671 98.136C93.4791 98.3067 93.2337 98.5467 93.0311 98.856C92.8284 99.1653 92.6897 99.528 92.6151 99.944H96.8391C96.7751 99.528 96.6524 99.1653 96.4711 98.856C96.2897 98.5467 96.0497 98.3067 95.7511 98.136C95.4631 97.9653 95.1377 97.88 94.7751 97.88ZM100.134 101.416V99.784H104.614V101.416H100.134ZM110.12 105.24C109.522 105.24 108.973 105.133 108.472 104.92C107.97 104.696 107.533 104.392 107.16 104.008C106.786 103.613 106.493 103.149 106.28 102.616C106.077 102.083 105.976 101.501 105.976 100.872C105.976 100.243 106.082 99.656 106.296 99.112C106.509 98.568 106.802 98.0933 107.176 97.688C107.549 97.2827 107.986 96.968 108.488 96.744C109 96.5093 109.554 96.392 110.152 96.392C110.728 96.392 111.256 96.4987 111.736 96.712C112.216 96.9147 112.626 97.208 112.968 97.592C113.32 97.9653 113.57 98.408 113.72 98.92L111.976 99.336C111.794 98.9307 111.538 98.616 111.208 98.392C110.888 98.168 110.525 98.056 110.12 98.056C109.693 98.056 109.309 98.1787 108.968 98.424C108.626 98.6693 108.354 99.0053 108.152 99.432C107.96 99.848 107.864 100.323 107.864 100.856C107.864 101.379 107.96 101.848 108.152 102.264C108.344 102.669 108.605 102.989 108.936 103.224C109.277 103.459 109.672 103.576 110.12 103.576C110.546 103.576 110.936 103.469 111.288 103.256C111.64 103.032 111.901 102.717 112.072 102.312L113.8 102.712C113.65 103.224 113.394 103.672 113.032 104.056C112.669 104.429 112.237 104.723 111.736 104.936C111.234 105.139 110.696 105.24 110.12 105.24Z" fill="black" fill-opacity="0.7"/>
</svg>
