<svg width="140" height="130" viewBox="0 0 140 130" fill="none" xmlns="http://www.w3.org/2000/svg">
<rect width="140" height="130" rx="12" fill="white"/>
<path d="M70 56.1998C73.1481 56.1998 75.7001 53.6478 75.7001 50.4998C75.7001 47.3518 73.1481 44.7998 70 44.7998C66.852 44.7998 64.3 47.3518 64.3 50.4998C64.3 53.6478 66.852 56.1998 70 56.1998Z" fill="#61DAFB"/>
<path d="M91.65 41.0998C90.55 40.6998 89.4 40.2998 88.2 39.9498C88.5 38.7498 88.75 37.5498 88.95 36.3998C90 29.7998 88.85 25.1498 85.65 23.3498C84.7 22.7998 83.65 22.5498 82.45 22.5498C78.95 22.5498 74.5 25.1498 70 29.4998C65.5 25.1498 61.0499 22.5498 57.5499 22.5498C56.3499 22.5498 55.3 22.7998 54.35 23.3498C51.15 25.1998 50 29.8498 51.05 36.3998C51.25 37.5498 51.5 38.7498 51.8 39.9498C50.6 40.2998 49.45 40.6498 48.35 41.0998C42.1 43.4998 38.7 46.7998 38.7 50.4998C38.7 54.1998 42.15 57.4998 48.35 59.8998C49.45 60.2998 50.6 60.6998 51.8 61.0498C51.5 62.2498 51.25 63.4498 51.05 64.5998C50 71.1998 51.15 75.8498 54.35 77.6498C55.3 78.1998 56.3499 78.4498 57.5499 78.4498C61.0999 78.4498 65.5499 75.8498 70 71.4998C74.5 75.8498 78.95 78.4498 82.45 78.4498C83.65 78.4498 84.7 78.1998 85.65 77.6498C88.85 75.7998 90 71.1498 88.95 64.5998C88.75 63.4498 88.5 62.2498 88.2 61.0498C89.4 60.6998 90.55 60.3498 91.65 59.8998C97.9 57.4998 101.3 54.1998 101.3 50.4998C101.3 46.7998 97.9 43.4998 91.65 41.0998ZM84.25 25.8498C86.2999 27.0498 87 30.7498 86.15 35.9998C86 37.0498 85.75 38.1498 85.45 39.2998C82.85 38.6998 80.1 38.2998 77.2 38.0498C75.5 35.6498 73.75 33.4998 72 31.5498C75.7 27.8998 79.45 25.3998 82.5 25.3998C83.15 25.3998 83.75 25.5498 84.25 25.8498ZM78.65 55.4998C77.75 57.0998 76.6999 58.6998 75.5999 60.2998C73.75 60.4498 71.9 60.4998 70 60.4998C68.0499 60.4998 66.1999 60.4498 64.4 60.2998C63.2999 58.6998 62.2999 57.0998 61.4 55.4998C60.4499 53.8498 59.5499 52.1498 58.75 50.4998C59.5499 48.8498 60.4499 47.1498 61.4 45.4998C62.2999 43.8998 63.35 42.2998 64.45 40.6998C66.3 40.5498 68.15 40.4998 70.0499 40.4998C72 40.4998 73.85 40.5498 75.65 40.6998C76.75 42.2998 77.75 43.8998 78.65 45.4998C79.6 47.1498 80.5 48.8498 81.2999 50.4998C80.45 52.1498 79.6 53.7998 78.65 55.4998ZM82.7999 53.8498C83.5499 55.5998 84.15 57.2998 84.7 58.9998C83 59.3998 81.2 59.6998 79.2999 59.9498C79.8999 58.9998 80.5499 57.9998 81.0999 56.9498C81.6999 55.8998 82.25 54.8498 82.7999 53.8498ZM70 67.3998C68.7999 66.0998 67.65 64.6998 66.5499 63.2498C67.6999 63.2998 68.85 63.3498 70 63.3498C71.15 63.3498 72.2999 63.2998 73.45 63.2498C72.35 64.6998 71.2 66.0998 70 67.3998ZM60.7 59.8998C58.8 59.6498 57 59.3498 55.2999 58.9498C55.8499 57.2998 56.45 55.5498 57.2 53.7998C57.75 54.7998 58.2999 55.8498 58.9 56.8498C59.5 57.9498 60.1 58.8998 60.7 59.8998ZM57.2 47.1498C56.45 45.3998 55.8499 43.6998 55.2999 41.9998C57 41.5998 58.8 41.2998 60.7 41.0498C60.1 41.9998 59.4499 42.9998 58.9 44.0498C58.2999 45.0998 57.75 46.1498 57.2 47.1498ZM70 33.5998C71.2 34.8998 72.35 36.2998 73.45 37.7498C72.2999 37.6998 71.15 37.6498 70 37.6498C68.85 37.6498 67.6999 37.6998 66.5499 37.7498C67.65 36.2998 68.7999 34.8998 70 33.5998ZM81.0999 44.0998L79.2999 41.0998C81.2 41.3498 83 41.6498 84.7 42.0498C84.15 43.6998 83.5499 45.4498 82.7999 47.1998C82.25 46.1498 81.6999 45.0998 81.0999 44.0998ZM53.85 35.9998C53 30.7498 53.7 27.0498 55.75 25.8498C56.25 25.5498 56.85 25.3998 57.5 25.3998C60.5 25.3998 64.25 27.8498 68 31.5498C66.25 33.4498 64.5 35.6498 62.7999 38.0498C59.9 38.2998 57.15 38.7498 54.55 39.2998C54.25 38.1498 54.05 37.0498 53.85 35.9998ZM41.5 50.4998C41.5 48.1498 44.35 45.6498 49.35 43.7998C50.35 43.3998 51.45 43.0498 52.55 42.7498C53.35 45.2498 54.3499 47.8998 55.5499 50.5498C54.3499 53.1998 53.3 55.7998 52.55 58.2998C45.65 56.2998 41.5 53.2998 41.5 50.4998ZM55.75 75.1498C53.7 73.9498 53 70.2498 53.85 64.9998C54 63.9498 54.25 62.8498 54.55 61.6998C57.15 62.2998 59.9 62.6998 62.7999 62.9498C64.5 65.3498 66.25 67.4998 68 69.4498C64.2999 73.0998 60.5499 75.5998 57.5 75.5998C56.85 75.5998 56.25 75.4498 55.75 75.1498ZM86.15 64.9998C87 70.2498 86.2999 73.9498 84.25 75.1498C83.75 75.4498 83.15 75.5998 82.5 75.5998C79.5 75.5998 75.75 73.1498 72 69.4498C73.75 67.5498 75.5 65.3498 77.2 62.9498C80.1 62.6998 82.85 62.2498 85.45 61.6998C85.75 62.8498 85.95 63.9498 86.15 64.9998ZM90.65 57.1998C89.65 57.5998 88.5499 57.9498 87.45 58.2498C86.65 55.7498 85.65 53.0998 84.45 50.4498C85.65 47.7998 86.7 45.1998 87.45 42.6998C94.35 44.6998 98.5 47.6998 98.5 50.4998C98.5 52.8498 95.6 55.3498 90.65 57.1998Z" fill="#61DAFB"/>
<path d="M23.3622 106.5V95.14H26.7862C27.6929 95.14 28.4715 95.284 29.1222 95.572C29.7835 95.86 30.2902 96.2707 30.6422 96.804C30.9942 97.3373 31.1702 97.972 31.1702 98.708C31.1702 99.1667 31.0849 99.5987 30.9142 100.004C30.7542 100.399 30.5195 100.756 30.2102 101.076C29.9115 101.396 29.5489 101.657 29.1222 101.86L31.7622 106.5H29.6022L27.4102 102.372C27.2929 102.383 27.1595 102.393 27.0102 102.404C26.8715 102.404 26.7275 102.404 26.5782 102.404C26.2049 102.404 25.7729 102.367 25.2822 102.292V106.5H23.3622ZM25.2822 96.836V100.596C25.5062 100.639 25.7355 100.671 25.9702 100.692C26.2155 100.703 26.4555 100.708 26.6902 100.708C27.4795 100.708 28.0929 100.537 28.5302 100.196C28.9675 99.8547 29.1862 99.38 29.1862 98.772C29.1862 98.164 28.9729 97.6893 28.5462 97.348C28.1195 97.0067 27.5222 96.836 26.7542 96.836H25.2822ZM36.8253 106.74C36.2066 106.74 35.636 106.633 35.1133 106.42C34.6013 106.196 34.1533 105.887 33.7693 105.492C33.3853 105.097 33.0866 104.633 32.8733 104.1C32.6706 103.556 32.5693 102.959 32.5693 102.308C32.5693 101.679 32.6706 101.097 32.8733 100.564C33.0866 100.031 33.3746 99.5667 33.7373 99.172C34.1106 98.7667 34.548 98.452 35.0493 98.228C35.5506 98.004 36.0946 97.892 36.6813 97.892C37.268 97.892 37.8013 97.9987 38.2813 98.212C38.772 98.4147 39.1933 98.708 39.5453 99.092C39.908 99.476 40.1853 99.9347 40.3773 100.468C40.5693 100.991 40.6653 101.572 40.6653 102.212V102.756H34.4733C34.5266 103.247 34.6546 103.673 34.8573 104.036C35.0706 104.388 35.3426 104.66 35.6733 104.852C36.004 105.044 36.388 105.14 36.8253 105.14C37.7 105.14 38.3826 104.751 38.8733 103.972L40.4893 104.596C40.2973 105.033 40.0146 105.417 39.6413 105.748C39.2786 106.068 38.852 106.313 38.3613 106.484C37.8813 106.655 37.3693 106.74 36.8253 106.74ZM36.6813 99.38C36.308 99.38 35.972 99.4653 35.6733 99.636C35.3853 99.8067 35.14 100.047 34.9373 100.356C34.7346 100.665 34.596 101.028 34.5213 101.444H38.7453C38.6813 101.028 38.5586 100.665 38.3773 100.356C38.196 100.047 37.956 99.8067 37.6573 99.636C37.3693 99.4653 37.044 99.38 36.6813 99.38ZM44.7942 106.74C44.3675 106.74 43.9729 106.676 43.6102 106.548C43.2582 106.42 42.9489 106.239 42.6822 106.004C42.4155 105.769 42.2075 105.492 42.0582 105.172C41.9089 104.852 41.8342 104.5 41.8342 104.116C41.8342 103.583 41.9729 103.119 42.2502 102.724C42.5382 102.319 42.9382 102.004 43.4502 101.78C43.9622 101.556 44.5595 101.444 45.2422 101.444C45.6155 101.444 45.9729 101.481 46.3142 101.556C46.6555 101.62 46.9809 101.716 47.2902 101.844V101.316C47.2902 100.943 47.2209 100.617 47.0822 100.34C46.9435 100.052 46.7462 99.828 46.4902 99.668C46.2342 99.508 45.9249 99.428 45.5622 99.428C45.1782 99.428 44.8315 99.5293 44.5222 99.732C44.2129 99.9347 43.9835 100.217 43.8342 100.58L42.1382 100.196C42.2662 99.7267 42.4955 99.3213 42.8262 98.98C43.1675 98.6387 43.5729 98.372 44.0422 98.18C44.5222 97.988 45.0395 97.892 45.5942 97.892C46.1169 97.892 46.5915 97.9773 47.0182 98.148C47.4555 98.3187 47.8289 98.5587 48.1382 98.868C48.4475 99.1773 48.6875 99.5453 48.8582 99.972C49.0289 100.399 49.1142 100.873 49.1142 101.396V106.5H47.4342L47.3702 105.396C47.1462 105.801 46.8102 106.127 46.3622 106.372C45.9142 106.617 45.3915 106.74 44.7942 106.74ZM43.6902 104.036C43.6902 104.271 43.7542 104.484 43.8822 104.676C44.0102 104.857 44.1862 105.001 44.4102 105.108C44.6449 105.215 44.9169 105.268 45.2262 105.268C45.6209 105.268 45.9729 105.183 46.2822 105.012C46.5915 104.841 46.8369 104.612 47.0182 104.324C47.1995 104.025 47.2902 103.689 47.2902 103.316V103.124C47.0129 103.007 46.7249 102.916 46.4262 102.852C46.1382 102.777 45.8395 102.74 45.5302 102.74C44.9755 102.74 44.5275 102.857 44.1862 103.092C43.8555 103.327 43.6902 103.641 43.6902 104.036ZM54.8696 106.74C54.2722 106.74 53.7229 106.633 53.2216 106.42C52.7202 106.196 52.2829 105.892 51.9096 105.508C51.5362 105.113 51.2429 104.649 51.0296 104.116C50.8269 103.583 50.7256 103.001 50.7256 102.372C50.7256 101.743 50.8322 101.156 51.0456 100.612C51.2589 100.068 51.5522 99.5933 51.9256 99.188C52.2989 98.7827 52.7362 98.468 53.2376 98.244C53.7496 98.0093 54.3042 97.892 54.9016 97.892C55.4776 97.892 56.0056 97.9987 56.4856 98.212C56.9656 98.4147 57.3762 98.708 57.7176 99.092C58.0696 99.4653 58.3202 99.908 58.4696 100.42L56.7256 100.836C56.5442 100.431 56.2882 100.116 55.9576 99.892C55.6376 99.668 55.2749 99.556 54.8696 99.556C54.4429 99.556 54.0589 99.6787 53.7176 99.924C53.3762 100.169 53.1042 100.505 52.9016 100.932C52.7096 101.348 52.6136 101.823 52.6136 102.356C52.6136 102.879 52.7096 103.348 52.9016 103.764C53.0936 104.169 53.3549 104.489 53.6856 104.724C54.0269 104.959 54.4216 105.076 54.8696 105.076C55.2962 105.076 55.6856 104.969 56.0376 104.756C56.3896 104.532 56.6509 104.217 56.8216 103.812L58.5496 104.212C58.4002 104.724 58.1442 105.172 57.7816 105.556C57.4189 105.929 56.9869 106.223 56.4856 106.436C55.9842 106.639 55.4456 106.74 54.8696 106.74ZM63.4558 106.74C62.6131 106.74 61.9518 106.5 61.4718 106.02C60.9918 105.529 60.7518 104.831 60.7518 103.924V99.62H59.2798V98.132H60.7518V95.3H62.5918V98.132H65.0238V99.62H62.5918V103.732C62.5918 104.18 62.6825 104.527 62.8638 104.772C63.0558 105.007 63.3331 105.124 63.6958 105.124C63.8878 105.124 64.0958 105.097 64.3198 105.044C64.5438 104.98 64.7518 104.895 64.9438 104.788L65.3598 106.18C65.1145 106.351 64.8265 106.484 64.4958 106.58C64.1758 106.687 63.8291 106.74 63.4558 106.74ZM70.3466 106.5V95.14H72.0746L77.7386 103.268V95.14H79.6426V106.5H77.9146L72.2506 98.34V106.5H70.3466ZM84.3098 106.74C83.8831 106.74 83.4885 106.676 83.1258 106.548C82.7738 106.42 82.4645 106.239 82.1978 106.004C81.9311 105.769 81.7231 105.492 81.5738 105.172C81.4245 104.852 81.3498 104.5 81.3498 104.116C81.3498 103.583 81.4885 103.119 81.7658 102.724C82.0538 102.319 82.4538 102.004 82.9658 101.78C83.4778 101.556 84.0751 101.444 84.7578 101.444C85.1311 101.444 85.4885 101.481 85.8298 101.556C86.1711 101.62 86.4965 101.716 86.8058 101.844V101.316C86.8058 100.943 86.7365 100.617 86.5978 100.34C86.4591 100.052 86.2618 99.828 86.0058 99.668C85.7498 99.508 85.4405 99.428 85.0778 99.428C84.6938 99.428 84.3471 99.5293 84.0378 99.732C83.7285 99.9347 83.4991 100.217 83.3498 100.58L81.6538 100.196C81.7818 99.7267 82.0111 99.3213 82.3418 98.98C82.6831 98.6387 83.0885 98.372 83.5578 98.18C84.0378 97.988 84.5551 97.892 85.1098 97.892C85.6325 97.892 86.1071 97.9773 86.5338 98.148C86.9711 98.3187 87.3445 98.5587 87.6538 98.868C87.9631 99.1773 88.2031 99.5453 88.3738 99.972C88.5445 100.399 88.6298 100.873 88.6298 101.396V106.5H86.9498L86.8858 105.396C86.6618 105.801 86.3258 106.127 85.8778 106.372C85.4298 106.617 84.9071 106.74 84.3098 106.74ZM83.2058 104.036C83.2058 104.271 83.2698 104.484 83.3978 104.676C83.5258 104.857 83.7018 105.001 83.9258 105.108C84.1605 105.215 84.4325 105.268 84.7418 105.268C85.1365 105.268 85.4885 105.183 85.7978 105.012C86.1071 104.841 86.3525 104.612 86.5338 104.324C86.7151 104.025 86.8058 103.689 86.8058 103.316V103.124C86.5285 103.007 86.2405 102.916 85.9418 102.852C85.6538 102.777 85.3551 102.74 85.0458 102.74C84.4911 102.74 84.0431 102.857 83.7018 103.092C83.3711 103.327 83.2058 103.641 83.2058 104.036ZM93.7996 106.74C92.9569 106.74 92.2956 106.5 91.8156 106.02C91.3356 105.529 91.0956 104.831 91.0956 103.924V99.62H89.6236V98.132H91.0956V95.3H92.9356V98.132H95.3676V99.62H92.9356V103.732C92.9356 104.18 93.0262 104.527 93.2076 104.772C93.3996 105.007 93.6769 105.124 94.0396 105.124C94.2316 105.124 94.4396 105.097 94.6636 105.044C94.8876 104.98 95.0956 104.895 95.2876 104.788L95.7036 106.18C95.4582 106.351 95.1702 106.484 94.8396 106.58C94.5196 106.687 94.1729 106.74 93.7996 106.74ZM99.1881 95.796C99.1881 95.9987 99.1347 96.1853 99.0281 96.356C98.9321 96.5267 98.7987 96.6653 98.6281 96.772C98.4574 96.868 98.2707 96.916 98.0681 96.916C97.8654 96.916 97.6787 96.868 97.5081 96.772C97.3374 96.6653 97.1987 96.5267 97.0921 96.356C96.9961 96.1853 96.9481 95.9987 96.9481 95.796C96.9481 95.5933 96.9961 95.4067 97.0921 95.236C97.1987 95.0653 97.3374 94.932 97.5081 94.836C97.6787 94.7293 97.8654 94.676 98.0681 94.676C98.2707 94.676 98.4574 94.7293 98.6281 94.836C98.7987 94.932 98.9321 95.0653 99.0281 95.236C99.1347 95.4067 99.1881 95.5933 99.1881 95.796ZM97.1561 106.5V98.132H98.9961V106.5H97.1561ZM103.416 106.5L100.216 98.132H102.232L104.376 104.58L106.536 98.132H108.488L105.288 106.5H103.416ZM113.341 106.74C112.722 106.74 112.152 106.633 111.629 106.42C111.117 106.196 110.669 105.887 110.285 105.492C109.901 105.097 109.602 104.633 109.389 104.1C109.186 103.556 109.085 102.959 109.085 102.308C109.085 101.679 109.186 101.097 109.389 100.564C109.602 100.031 109.89 99.5667 110.253 99.172C110.626 98.7667 111.064 98.452 111.565 98.228C112.066 98.004 112.61 97.892 113.197 97.892C113.784 97.892 114.317 97.9987 114.797 98.212C115.288 98.4147 115.709 98.708 116.061 99.092C116.424 99.476 116.701 99.9347 116.893 100.468C117.085 100.991 117.181 101.572 117.181 102.212V102.756H110.989C111.042 103.247 111.17 103.673 111.373 104.036C111.586 104.388 111.858 104.66 112.189 104.852C112.52 105.044 112.904 105.14 113.341 105.14C114.216 105.14 114.898 104.751 115.389 103.972L117.005 104.596C116.813 105.033 116.53 105.417 116.157 105.748C115.794 106.068 115.368 106.313 114.877 106.484C114.397 106.655 113.885 106.74 113.341 106.74ZM113.197 99.38C112.824 99.38 112.488 99.4653 112.189 99.636C111.901 99.8067 111.656 100.047 111.453 100.356C111.25 100.665 111.112 101.028 111.037 101.444H115.261C115.197 101.028 115.074 100.665 114.893 100.356C114.712 100.047 114.472 99.8067 114.173 99.636C113.885 99.4653 113.56 99.38 113.197 99.38Z" fill="black" fill-opacity="0.7"/>
</svg>
