<svg width="140" height="130" viewBox="0 0 140 130" fill="none" xmlns="http://www.w3.org/2000/svg">
<rect width="140" height="130" rx="12" fill="white"/>
<g clip-path="url(#clip0_1101_2234)">
<path d="M52.4973 19H87.3797C89.0771 19 90.7253 19.2707 92.3243 19.8367C94.6367 20.6734 96.7277 22.15 98.302 24.0695C99.901 25.989 100.959 28.3515 101.328 30.8125C101.475 31.723 101.5 32.6336 101.5 33.5441V67.5789C101.5 68.6617 101.451 69.7691 101.229 70.8273C100.737 73.2637 99.5813 75.5523 97.9085 77.3981C96.2603 79.2438 94.0955 80.6219 91.7585 81.3602C90.3317 81.8031 88.8558 81.9997 87.3552 81.9997C86.6909 81.9997 52.3989 81.9997 51.8823 81.9754C49.3731 81.8523 46.8886 81.0403 44.7976 79.6375C42.7558 78.2594 41.083 76.3398 40.0006 74.125C39.0658 72.2301 38.5984 70.1137 38.5984 67.9973V33.0028C38.5492 30.9109 38.992 28.8438 39.9022 26.9734C40.96 24.7586 42.6082 22.8145 44.65 21.4363C46.7409 20.009 49.2009 19.1723 51.7101 19.0492C51.9561 19 52.2267 19 52.4973 19Z" fill="url(#paint0_linear_1101_2234)"/>
<path d="M91.6355 70.5321C91.414 70.1875 91.1681 69.843 90.8974 69.523C90.2825 68.7847 89.5691 68.1449 88.7819 67.6035C87.7979 66.939 86.6417 66.5207 85.4609 66.4715C84.6245 66.4222 83.7881 66.5699 83.0009 66.8653C82.2137 67.1359 81.4511 67.5297 80.7131 67.9234C79.8522 68.3664 78.9912 68.8094 78.0809 69.1785C76.9986 69.6215 75.867 69.966 74.7108 70.2121C73.2594 70.4828 71.7835 70.5813 70.3321 70.5566C67.6999 70.5074 65.0677 70.1137 62.5586 69.3754C60.3446 68.7109 58.229 67.8004 56.2364 66.6438C54.4898 65.6348 52.8663 64.4781 51.341 63.1738C50.0865 62.091 48.9303 60.9344 47.8479 59.7039C47.1099 58.8426 46.3965 57.9321 45.7323 56.9969C45.4618 56.6277 45.2157 56.234 44.9944 55.8403L38.5 48.8265V32.9535C38.5 25.2508 44.7237 19 52.4234 19H64.8463L74.0466 28.3515C94.8088 42.4773 88.0931 58.0551 88.0931 58.0551C88.0931 58.0551 93.997 64.6996 91.6355 70.5321Z" fill="url(#paint1_linear_1101_2234)"/>
<path d="M74.0958 28.3516C94.8579 42.4774 88.1422 58.0551 88.1422 58.0551C88.1422 58.0551 94.0462 64.7242 91.66 70.5566C91.66 70.5566 89.2246 66.4715 85.1411 66.4715C81.2051 66.4715 78.8927 70.5566 70.9716 70.5566C53.3337 70.5566 44.9944 55.8157 44.9944 55.8157C60.8858 66.2747 71.7342 58.8672 71.7342 58.8672C64.5757 54.7082 49.3485 34.8239 49.3485 34.8239C62.6077 46.1196 68.3395 49.0973 68.3395 49.0973C64.9201 46.2672 55.3263 32.4367 55.3263 32.4367C63.0014 40.2133 78.2532 51.066 78.2532 51.066C82.5827 39.0566 74.0958 28.3516 74.0958 28.3516Z" fill="white"/>
</g>
<path d="M54.8078 106.24C54.1678 106.24 53.5704 106.128 53.0158 105.904C52.4718 105.669 52.0078 105.344 51.6238 104.928C51.2398 104.512 50.9678 104.016 50.8078 103.44L52.6478 102.992C52.8184 103.483 53.0904 103.861 53.4638 104.128C53.8371 104.395 54.2904 104.528 54.8238 104.528C55.2078 104.528 55.5491 104.453 55.8478 104.304C56.1464 104.155 56.3811 103.952 56.5518 103.696C56.7331 103.44 56.8238 103.147 56.8238 102.816C56.8238 102.411 56.6744 102.075 56.3758 101.808C56.0878 101.531 55.6291 101.323 54.9998 101.184L54.4078 101.056C53.2771 100.811 52.4398 100.405 51.8958 99.84C51.3624 99.2747 51.0958 98.5867 51.0958 97.776C51.0958 97.2853 51.1918 96.8373 51.3838 96.432C51.5758 96.016 51.8424 95.6587 52.1838 95.36C52.5251 95.0507 52.9251 94.816 53.3838 94.656C53.8424 94.4853 54.3384 94.4 54.8718 94.4C55.4798 94.4 56.0398 94.512 56.5518 94.736C57.0638 94.96 57.5011 95.28 57.8638 95.696C58.2264 96.1013 58.4824 96.5867 58.6318 97.152L56.8078 97.6C56.6371 97.12 56.3811 96.752 56.0398 96.496C55.6984 96.24 55.2931 96.112 54.8238 96.112C54.4824 96.112 54.1784 96.1813 53.9118 96.32C53.6558 96.448 53.4478 96.6293 53.2878 96.864C53.1384 97.088 53.0638 97.344 53.0638 97.632C53.0638 98.048 53.2184 98.3787 53.5278 98.624C53.8371 98.8693 54.3118 99.0667 54.9518 99.216L55.5438 99.344C57.7198 99.8347 58.8078 100.939 58.8078 102.656C58.8078 103.179 58.7064 103.664 58.5038 104.112C58.3118 104.549 58.0344 104.928 57.6718 105.248C57.3091 105.557 56.8824 105.803 56.3918 105.984C55.9118 106.155 55.3838 106.24 54.8078 106.24ZM62.3205 106L59.5365 97.632H61.4565L63.2325 103.744L65.1045 97.632H66.7525L68.6085 103.744L70.4165 97.632H72.2725L69.4725 106H67.7445L65.9045 99.92L64.0485 106H62.3205ZM75.524 95.296C75.524 95.4987 75.4707 95.6853 75.364 95.856C75.268 96.0267 75.1347 96.1653 74.964 96.272C74.7933 96.368 74.6067 96.416 74.404 96.416C74.2013 96.416 74.0147 96.368 73.844 96.272C73.6733 96.1653 73.5347 96.0267 73.428 95.856C73.332 95.6853 73.284 95.4987 73.284 95.296C73.284 95.0933 73.332 94.9067 73.428 94.736C73.5347 94.5653 73.6733 94.432 73.844 94.336C74.0147 94.2293 74.2013 94.176 74.404 94.176C74.6067 94.176 74.7933 94.2293 74.964 94.336C75.1347 94.432 75.268 94.5653 75.364 94.736C75.4707 94.9067 75.524 95.0933 75.524 95.296ZM73.492 106V97.632H75.332V106H73.492ZM78.0721 106V99.12H76.6001V97.632H78.0721V97.04C78.0721 96.4213 78.2001 95.8827 78.4561 95.424C78.7121 94.9547 79.0641 94.592 79.5121 94.336C79.9601 94.0693 80.4721 93.936 81.0481 93.936C81.3788 93.936 81.6775 93.9787 81.9441 94.064C82.2215 94.1387 82.4668 94.2347 82.6801 94.352L82.2641 95.76C82.1255 95.6853 81.9655 95.6267 81.7841 95.584C81.6135 95.5307 81.4428 95.504 81.2721 95.504C80.8135 95.504 80.4721 95.648 80.2481 95.936C80.0241 96.2133 79.9121 96.6133 79.9121 97.136V97.632H82.3121V99.12H79.9121V106H78.0721ZM87.2918 106.24C86.4491 106.24 85.7878 106 85.3078 105.52C84.8278 105.029 84.5878 104.331 84.5878 103.424V99.12H83.1158V97.632H84.5878V94.8H86.4278V97.632H88.8598V99.12H86.4278V103.232C86.4278 103.68 86.5184 104.027 86.6998 104.272C86.8918 104.507 87.1691 104.624 87.5318 104.624C87.7238 104.624 87.9318 104.597 88.1558 104.544C88.3798 104.48 88.5878 104.395 88.7798 104.288L89.1958 105.68C88.9504 105.851 88.6624 105.984 88.3318 106.08C88.0118 106.187 87.6651 106.24 87.2918 106.24Z" fill="black" fill-opacity="0.7"/>
<defs>
<linearGradient id="paint0_linear_1101_2234" x1="75.9632" y1="16.7519" x2="64.0561" y2="84.2538" gradientUnits="userSpaceOnUse">
<stop stop-color="#FAAE42"/>
<stop offset="1" stop-color="#EF3E31"/>
</linearGradient>
<linearGradient id="paint1_linear_1101_2234" x1="70.6302" y1="20.0178" x2="61.9155" y2="69.4217" gradientUnits="userSpaceOnUse">
<stop stop-color="#E39F3A"/>
<stop offset="1" stop-color="#D33929"/>
</linearGradient>
<clipPath id="clip0_1101_2234">
<rect width="63" height="63" fill="white" transform="translate(38.5 19)"/>
</clipPath>
</defs>
</svg>
