<svg width="40" height="40" viewBox="0 0 40 40" fill="none" xmlns="http://www.w3.org/2000/svg">
<path fill-rule="evenodd" clip-rule="evenodd" d="M28.5688 3.95633C27.0283 3.74995 25.0669 3.74997 22.6219 3.75H17.0863C14.6413 3.74997 12.6799 3.74995 11.1394 3.95633C9.54419 4.17007 8.21414 4.62543 7.15922 5.67667C6.05884 6.77322 5.60832 8.16862 5.40525 9.85015L5.39532 9.9324L5.3993 10.258C5.04564 10.4892 4.71339 10.7573 4.40199 11.0687C3.15472 12.316 2.60119 13.8976 2.33849 15.8516C2.0832 17.7503 2.08322 20.1763 2.08325 23.2393V23.4273L2.08337 24.1487C2.08502 26.8562 2.1047 29.0762 2.33849 30.815C2.60119 32.769 3.15472 34.3507 4.40199 35.598C5.64927 36.8452 7.23085 37.3987 9.18489 37.6615C11.0836 37.9167 13.5096 37.9167 16.5726 37.9167H23.4273C26.4903 37.9167 28.9163 37.9167 30.8149 37.6615C32.7689 37.3987 34.3506 36.8452 35.5979 35.598C36.8451 34.3507 37.3986 32.769 37.6614 30.815C37.9166 28.9163 37.9166 26.4903 37.9166 23.4273V23.2393C37.9166 20.1763 37.9166 17.7503 37.6614 15.8516C37.3986 13.8976 36.8451 12.316 35.5979 11.0687C35.2031 10.674 34.7749 10.3487 34.3119 10.0802V9.9248L34.3029 9.85015C34.0999 8.16862 33.6494 6.77322 32.5489 5.67667C31.4941 4.62543 30.1641 4.17007 28.5688 3.95633ZM4.58425 24.7332C4.58944 27.1917 4.62125 29.032 4.81619 30.482C5.04162 32.1587 5.4644 33.1248 6.16975 33.8302C6.8751 34.5355 7.84119 34.9583 9.518 35.1837C11.2308 35.414 13.4886 35.4167 16.6666 35.4167H23.3333C26.5113 35.4167 28.7691 35.414 30.4819 35.1837C31.7553 35.0125 32.6189 34.7275 33.2696 34.2913L28.7911 30.2607C27.4918 29.0912 25.5566 28.9748 24.1263 29.98L23.6293 30.3292C21.8071 31.6098 19.3279 31.3952 17.7531 29.8203L10.6035 22.6707C9.64184 21.709 8.09922 21.6577 7.07569 22.5532L4.58425 24.7332ZM30.4636 28.4025L34.7773 32.2848C34.9536 31.7912 35.0868 31.2022 35.1836 30.482C35.4139 28.7692 35.4166 26.5113 35.4166 23.3333C35.4166 20.1553 35.4139 17.8975 35.1836 16.1848C34.9583 14.5079 34.5354 13.5419 33.8301 12.8365C33.1248 12.1312 32.1586 11.7084 30.4819 11.4829C28.7691 11.2527 26.5113 11.25 23.3333 11.25H16.6666C13.4886 11.25 11.2308 11.2527 9.518 11.4829C7.84119 11.7084 6.8751 12.1312 6.16975 12.8365C5.4644 13.5419 5.04162 14.5079 4.81619 16.1848C4.63535 17.5298 4.59489 19.211 4.58585 21.41L5.42944 20.6718C7.44347 18.9095 10.4789 19.0107 12.3713 20.903L19.5208 28.0525C20.2368 28.7683 21.3636 28.866 22.1919 28.2838L22.6889 27.9345C25.0728 26.2592 28.2979 26.4533 30.4636 28.4025ZM8.92389 7.44753C8.52395 7.84607 8.23727 8.36732 8.0465 9.20325C8.41099 9.12317 8.79034 9.05827 9.18489 9.00523C11.0836 8.74995 13.5096 8.74997 16.5726 8.75H23.4273C26.4903 8.74997 28.9163 8.74995 30.8149 9.00523C31.1003 9.04357 31.3774 9.08812 31.6469 9.14012C31.4562 8.3409 31.1741 7.83593 30.7843 7.44753C30.2716 6.93667 29.5564 6.611 28.2368 6.4342C26.8816 6.25263 25.0883 6.25 22.5301 6.25H17.1781C14.6199 6.25 12.8265 6.25263 11.4714 6.4342C10.1518 6.611 9.43655 6.93667 8.92389 7.44753Z" fill="#222222"/>
<path fill-rule="evenodd" clip-rule="evenodd" d="M29.1667 13.75C27.0957 13.75 25.4167 15.4289 25.4167 17.5C25.4167 19.571 27.0957 21.25 29.1667 21.25C31.2377 21.25 32.9167 19.571 32.9167 17.5C32.9167 15.4289 31.2377 13.75 29.1667 13.75ZM29.1667 16.25C28.4764 16.25 27.9167 16.8097 27.9167 17.5C27.9167 18.1903 28.4764 18.75 29.1667 18.75C29.8571 18.75 30.4167 18.1903 30.4167 17.5C30.4167 16.8097 29.8571 16.25 29.1667 16.25Z" fill="#222222"/>
</svg>
