<svg width="48" height="48" viewBox="0 0 48 48" fill="none" xmlns="http://www.w3.org/2000/svg">
<path d="M6 17.4188C6 14.4717 6 12.9981 6.78528 12.1387C7.06408 11.8336 7.40294 11.5893 7.78058 11.4213C8.84426 10.9481 10.2422 11.4141 13.038 12.346C15.1725 13.0575 16.2398 13.4133 17.3182 13.3765C17.7143 13.3629 18.108 13.3102 18.4937 13.219C19.5438 12.9708 20.4798 12.3468 22.352 11.0987L25.1166 9.25555C27.5148 7.65685 28.7138 6.85751 30.0902 6.67319C31.4666 6.48887 32.8336 6.94457 35.5678 7.85597L37.8974 8.63247C39.8774 9.29249 40.8674 9.62251 41.4338 10.4082C42 11.1938 42 12.2374 42 14.3246V30.5814C42 33.5284 42 35.002 41.2148 35.8614C40.936 36.1666 40.597 36.4108 40.2194 36.5788C39.1558 37.052 37.7578 36.586 34.962 35.654C32.8274 34.9426 31.7602 34.5868 30.6818 34.6236C30.2858 34.6372 29.892 34.6898 29.5064 34.781C28.4562 35.0292 27.5202 35.6532 25.648 36.9014L22.8834 38.7444C20.4852 40.3432 19.2862 41.1426 17.9099 41.3268C16.5335 41.5112 15.1664 41.0554 12.4322 40.144L10.1026 39.3676C8.12258 38.7076 7.13254 38.3776 6.56628 37.5918C6 36.8062 6 35.7626 6 33.6754V17.4188Z" stroke="#222222" stroke-width="2.5"/>
<path d="M18 13.2773V41" stroke="#222222" stroke-width="2.5"/>
<path d="M30 6V34" stroke="#222222" stroke-width="2.5"/>
</svg>
