<svg width="672" height="148" viewBox="0 0 672 148" fill="none" xmlns="http://www.w3.org/2000/svg">
<path opacity="0.2" d="M52.8 148C44.2667 148 36.4 146.533 29.2 143.6C22.1333 140.533 16.0667 136.267 11 130.8C6.06667 125.2 2.66667 118.533 0.8 110.8L28.6 104.8C30.3333 110.267 33.3333 114.533 37.6 117.6C42 120.667 47.2 122.2 53.2 122.2C57.4667 122.2 61.2 121.467 64.4 120C67.7333 118.4 70.2667 116.267 72 113.6C73.8667 110.933 74.8 107.867 74.8 104.4C74.8 100 73.1333 96.4667 69.8 93.8C66.4667 91 61.0667 88.7333 53.6 87L47.2 85.6C32.5333 82.4 21.7333 77.2667 14.8 70.2C7.86667 63 4.4 54.2667 4.4 44C4.4 37.6 5.66667 31.7333 8.2 26.4C10.7333 21.0667 14.2 16.4667 18.6 12.6C23.1333 8.59999 28.4 5.53333 34.4 3.4C40.4 1.13333 46.8667 -4.76837e-06 53.8 -4.76837e-06C61.6667 -4.76837e-06 69 1.46666 75.8 4.4C82.6 7.33333 88.3333 11.5333 93 17C97.6667 22.4667 100.8 28.9333 102.4 36.4L75 42.4C73.4 37.0667 70.6 33 66.6 30.2C62.7333 27.2667 58.2 25.8 53 25.8C49.4 25.8 46.1333 26.5333 43.2 28C40.4 29.3333 38.1333 31.2667 36.4 33.8C34.8 36.2 34 38.9333 34 42C34 46.6667 35.8 50.2667 39.4 52.8C43 55.2 48.3333 57.2 55.4 58.8L61.8 60.2C76.3333 63.4 87.0667 68.4667 94 75.4C101.067 82.3333 104.6 91.2 104.6 102C104.6 108.8 103.267 115 100.6 120.6C98.0667 126.2 94.4667 131.067 89.8 135.2C85.1333 139.333 79.6667 142.533 73.4 144.8C67.1333 146.933 60.2667 148 52.8 148ZM131.648 145V2.99999H161.448V66L214.048 2.99999H248.848L192.048 69.2L256.048 145H217.448L161.448 76.2V145H131.648ZM278.906 145V2.99999H308.706V145H278.906ZM342.766 145V2.99999H372.566V118.6H430.566V145H342.766ZM459.555 145V2.99999H489.355V118.6H547.355V145H459.555ZM620.144 148C611.61 148 603.744 146.533 596.544 143.6C589.477 140.533 583.41 136.267 578.344 130.8C573.41 125.2 570.01 118.533 568.144 110.8L595.944 104.8C597.677 110.267 600.677 114.533 604.944 117.6C609.344 120.667 614.544 122.2 620.544 122.2C624.81 122.2 628.544 121.467 631.744 120C635.077 118.4 637.61 116.267 639.344 113.6C641.21 110.933 642.144 107.867 642.144 104.4C642.144 100 640.477 96.4667 637.144 93.8C633.81 91 628.41 88.7333 620.944 87L614.544 85.6C599.877 82.4 589.077 77.2667 582.144 70.2C575.21 63 571.744 54.2667 571.744 44C571.744 37.6 573.01 31.7333 575.544 26.4C578.077 21.0667 581.544 16.4667 585.944 12.6C590.477 8.59999 595.744 5.53333 601.744 3.4C607.744 1.13333 614.21 -4.76837e-06 621.144 -4.76837e-06C629.01 -4.76837e-06 636.344 1.46666 643.144 4.4C649.944 7.33333 655.677 11.5333 660.344 17C665.01 22.4667 668.144 28.9333 669.744 36.4L642.344 42.4C640.744 37.0667 637.944 33 633.944 30.2C630.077 27.2667 625.544 25.8 620.344 25.8C616.744 25.8 613.477 26.5333 610.544 28C607.744 29.3333 605.477 31.2667 603.744 33.8C602.144 36.2 601.344 38.9333 601.344 42C601.344 46.6667 603.144 50.2667 606.744 52.8C610.344 55.2 615.677 57.2 622.744 58.8L629.144 60.2C643.677 63.4 654.41 68.4667 661.344 75.4C668.41 82.3333 671.944 91.2 671.944 102C671.944 108.8 670.61 115 667.944 120.6C665.41 126.2 661.81 131.067 657.144 135.2C652.477 139.333 647.01 142.533 640.744 144.8C634.477 146.933 627.61 148 620.144 148Z" fill="white" fill-opacity="0.4"/>
</svg>
