<svg width="1222" height="150" viewBox="0 0 1222 150" fill="none" xmlns="http://www.w3.org/2000/svg">
<path opacity="0.2" d="M52.8 149C44.2667 149 36.4 147.533 29.2 144.6C22.1333 141.533 16.0667 137.267 11 131.8C6.06667 126.2 2.66667 119.533 0.8 111.8L28.6 105.8C30.3333 111.267 33.3333 115.533 37.6 118.6C42 121.667 47.2 123.2 53.2 123.2C57.4667 123.2 61.2 122.467 64.4 121C67.7333 119.4 70.2667 117.267 72 114.6C73.8667 111.933 74.8 108.867 74.8 105.4C74.8 101 73.1333 97.4667 69.8 94.8C66.4667 92 61.0667 89.7333 53.6 88L47.2 86.6C32.5333 83.4 21.7333 78.2667 14.8 71.2C7.86667 64 4.4 55.2667 4.4 45C4.4 38.6 5.66667 32.7333 8.2 27.4C10.7333 22.0667 14.2 17.4667 18.6 13.6C23.1333 9.59999 28.4 6.53333 34.4 4.4C40.4 2.13333 46.8667 0.999995 53.8 0.999995C61.6667 0.999995 69 2.46666 75.8 5.4C82.6 8.33333 88.3333 12.5333 93 18C97.6667 23.4667 100.8 29.9333 102.4 37.4L75 43.4C73.4 38.0667 70.6 34 66.6 31.2C62.7333 28.2667 58.2 26.8 53 26.8C49.4 26.8 46.1333 27.5333 43.2 29C40.4 30.3333 38.1333 32.2667 36.4 34.8C34.8 37.2 34 39.9333 34 43C34 47.6667 35.8 51.2667 39.4 53.8C43 56.2 48.3333 58.2 55.4 59.8L61.8 61.2C76.3333 64.4 87.0667 69.4667 94 76.4C101.067 83.3333 104.6 92.2 104.6 103C104.6 109.8 103.267 116 100.6 121.6C98.0667 127.2 94.4667 132.067 89.8 136.2C85.1333 140.333 79.6667 143.533 73.4 145.8C67.1333 147.933 60.2667 149 52.8 149ZM164.505 146V30.4H124.505V3.99999H234.305V30.4H194.305V146H164.505ZM263.477 146V3.99999H309.077C320.677 3.99999 330.677 5.86666 339.077 9.59999C347.61 13.2 354.143 18.4667 358.677 25.4C363.21 32.2 365.477 40.2667 365.477 49.6C365.477 55.0667 364.477 60.3333 362.477 65.4C360.477 70.3333 357.677 74.8667 354.077 79C350.477 83 346.143 86.3333 341.077 89L373.277 146H340.477L315.077 96.8C312.543 96.9333 309.81 97 306.877 97C302.61 97 297.943 96.6 292.877 95.8V146H263.477ZM292.877 29.2V71C295.41 71.4 297.943 71.7333 300.477 72C303.01 72.1333 305.677 72.2 308.477 72.2C317.01 72.2 323.61 70.3333 328.277 66.6C332.943 62.7333 335.277 57.4 335.277 50.6C335.277 43.8 332.943 38.5333 328.277 34.8C323.61 31.0667 317.01 29.2 308.477 29.2H292.877ZM397.648 146V3.99999H486.648V29.4H426.448V60.4H480.248V85.8H426.448V120.6H488.648V146H397.648ZM520.492 146V3.99999H546.292L612.092 98V3.99999H640.892V146H615.092L549.292 52V146H520.492ZM743.577 150C735.177 150 727.243 148.8 719.777 146.4C712.443 144 705.71 140.6 699.577 136.2C693.577 131.667 688.377 126.333 683.977 120.2C679.71 114.067 676.377 107.267 673.977 99.8C671.577 92.2 670.377 84.0667 670.377 75.4C670.377 66.7333 671.577 58.6 673.977 51C676.377 43.4 679.777 36.4667 684.177 30.2C688.577 23.9333 693.843 18.6 699.977 14.2C706.11 9.66666 712.843 6.2 720.177 3.79999C727.643 1.26666 735.577 -3.8147e-06 743.977 -3.8147e-06C753.443 -3.8147e-06 762.243 1.53333 770.377 4.6C778.51 7.66666 785.643 12.0667 791.777 17.8C798.043 23.5333 802.91 30.4667 806.377 38.6L777.577 47.4C773.977 41 769.31 36.0667 763.577 32.6C757.977 29.1333 751.443 27.4 743.977 27.4C737.843 27.4 732.177 28.6 726.977 31C721.777 33.2667 717.243 36.6 713.377 41C709.51 45.2667 706.51 50.2667 704.377 56C702.243 61.7333 701.177 68 701.177 74.8C701.177 81.7333 702.243 88.1333 704.377 94C706.51 99.8667 709.51 104.933 713.377 109.2C717.377 113.467 722.043 116.8 727.377 119.2C732.71 121.467 738.577 122.6 744.977 122.6C751.777 122.6 757.843 121.333 763.177 118.8C768.51 116.267 772.843 112.733 776.177 108.2C779.51 103.667 781.577 98.3333 782.377 92.2H746.977V67.6H812.977V82.6C812.977 92.4667 811.243 101.533 807.777 109.8C804.443 118.067 799.71 125.2 793.577 131.2C787.443 137.2 780.11 141.867 771.577 145.2C763.043 148.4 753.71 150 743.577 150ZM870.325 146V30.4H830.325V3.99999H940.125V30.4H900.125V146H870.325ZM969.297 146V3.99999H999.097V59.4H1061.9V3.99999H1091.7V146H1061.9V85.8H999.097V146H969.297ZM1169.53 149C1161 149 1153.13 147.533 1145.93 144.6C1138.87 141.533 1132.8 137.267 1127.73 131.8C1122.8 126.2 1119.4 119.533 1117.53 111.8L1145.33 105.8C1147.07 111.267 1150.07 115.533 1154.33 118.6C1158.73 121.667 1163.93 123.2 1169.93 123.2C1174.2 123.2 1177.93 122.467 1181.13 121C1184.47 119.4 1187 117.267 1188.73 114.6C1190.6 111.933 1191.53 108.867 1191.53 105.4C1191.53 101 1189.87 97.4667 1186.53 94.8C1183.2 92 1177.8 89.7333 1170.33 88L1163.93 86.6C1149.27 83.4 1138.47 78.2667 1131.53 71.2C1124.6 64 1121.13 55.2667 1121.13 45C1121.13 38.6 1122.4 32.7333 1124.93 27.4C1127.47 22.0667 1130.93 17.4667 1135.33 13.6C1139.87 9.59999 1145.13 6.53333 1151.13 4.4C1157.13 2.13333 1163.6 0.999995 1170.53 0.999995C1178.4 0.999995 1185.73 2.46666 1192.53 5.4C1199.33 8.33333 1205.07 12.5333 1209.73 18C1214.4 23.4667 1217.53 29.9333 1219.13 37.4L1191.73 43.4C1190.13 38.0667 1187.33 34 1183.33 31.2C1179.47 28.2667 1174.93 26.8 1169.73 26.8C1166.13 26.8 1162.87 27.5333 1159.93 29C1157.13 30.3333 1154.87 32.2667 1153.13 34.8C1151.53 37.2 1150.73 39.9333 1150.73 43C1150.73 47.6667 1152.53 51.2667 1156.13 53.8C1159.73 56.2 1165.07 58.2 1172.13 59.8L1178.53 61.2C1193.07 64.4 1203.8 69.4667 1210.73 76.4C1217.8 83.3333 1221.33 92.2 1221.33 103C1221.33 109.8 1220 116 1217.33 121.6C1214.8 127.2 1211.2 132.067 1206.53 136.2C1201.87 140.333 1196.4 143.533 1190.13 145.8C1183.87 147.933 1177 149 1169.53 149Z" fill="white" fill-opacity="0.4"/>
</svg>
