<svg width="64" height="64" viewBox="0 0 64 64" fill="none" xmlns="http://www.w3.org/2000/svg">
<path d="M4 24.2667C4 17.1727 4 13.6257 5.38058 10.9161C6.59498 8.53273 8.53273 6.59498 10.9161 5.38058C13.6257 4 17.1727 4 24.2667 4H39.7333C46.8273 4 50.3743 4 53.0839 5.38058C55.4673 6.59498 57.405 8.53273 58.6194 10.9161C60 13.6257 60 17.1727 60 24.2667V39.7333C60 46.8273 60 50.3743 58.6194 53.0839C57.405 55.4673 55.4673 57.405 53.0839 58.6194C50.3743 60 46.8273 60 39.7333 60H24.2667C17.1727 60 13.6257 60 10.9161 58.6194C8.53273 57.405 6.59498 55.4673 5.38058 53.0839C4 50.3743 4 46.8273 4 39.7333V24.2667Z" fill="#330000"/>
<path d="M31.1373 39.1925H22.4594L20.6938 44.8179C20.6448 45.0269 20.4523 45.1749 20.243 45.1647H15.8477C15.597 45.1647 15.5094 45.0234 15.5847 44.7409L23.098 22.5476C23.1732 22.3165 23.2483 22.0532 23.3235 21.7577C23.4217 21.2437 23.4721 20.7212 23.4737 20.1973C23.4522 20.0426 23.5882 19.9059 23.7367 19.9276H29.7097C29.8847 19.9276 29.9849 19.9918 30.0103 20.1203L38.538 44.7794C38.6131 45.0364 38.5379 45.1649 38.3125 45.1647H33.4288C33.2575 45.1841 33.094 45.0667 33.0532 44.895L31.1373 39.1925ZM23.8118 34.3378H29.7473C28.7721 31.0054 27.6716 27.7169 26.7796 24.3585C25.8172 27.7225 24.7672 31.073 23.8118 34.3378Z" fill="#FF9A00"/>
<path d="M43.609 24.0116C43.2258 24.0274 42.8437 23.9601 42.4877 23.814C42.1316 23.6679 41.8097 23.4464 41.5428 23.164C41.2767 22.8693 41.07 22.5236 40.9346 22.1467C40.7992 21.7698 40.7378 21.3691 40.7538 20.9678C40.7402 20.5704 40.8084 20.1746 40.9541 19.8061C41.0997 19.4376 41.3195 19.1048 41.5991 18.8294C41.876 18.5568 42.2028 18.3432 42.5607 18.201C42.9186 18.0588 43.3004 17.9909 43.6841 18.001C44.5857 18.001 45.2932 18.2771 45.8066 18.8294C46.0658 19.1164 46.2672 19.453 46.3993 19.8199C46.5315 20.1868 46.5917 20.5769 46.5767 20.9678C46.5924 21.3707 46.529 21.7727 46.3903 22.15C46.2515 22.5273 46.0402 22.8721 45.769 23.164C45.4856 23.4506 45.1473 23.6739 44.7755 23.8197C44.4038 23.9656 44.0066 24.031 43.609 24.0116ZM41.0168 44.7792V26.3619C41.0168 26.1308 41.1166 26.0152 41.3174 26.0152H45.9381C46.1383 26.0152 46.2385 26.1307 46.2387 26.3619V44.7792C46.2387 45.0363 46.1385 45.1647 45.9381 45.1646H41.355C41.1296 45.1646 41.0169 45.0361 41.0168 44.7792Z" fill="#FF9A00"/>
</svg>
