<svg width="50" height="50" viewBox="0 0 50 50" fill="none" xmlns="http://www.w3.org/2000/svg">
<path d="M35.3535 25.5205V34.8955C35.3535 42.708 32.2285 45.833 24.416 45.833H15.041C7.22852 45.833 4.10352 42.708 4.10352 34.8955V25.5205C4.10352 17.708 7.22852 14.583 15.041 14.583H24.416C32.2285 14.583 35.3535 17.708 35.3535 25.5205Z" stroke="white" stroke-width="3.125" stroke-linecap="round" stroke-linejoin="round"/>
<path d="M45.7707 15.6253C45.7707 21.6045 41.2082 26.5003 35.354 27.0212V25.5212C35.354 17.7087 32.229 14.5837 24.4165 14.5837H22.9165C23.4373 8.72949 28.3332 4.16699 34.3123 4.16699C40.1248 4.16699 44.9165 8.47949 45.6457 14.1045C45.729 14.5837 45.7707 15.1045 45.7707 15.6253Z" stroke="white" stroke-width="3.125" stroke-linecap="round" stroke-linejoin="round"/>
</svg>
