<svg width="60" height="60" viewBox="0 0 60 60" fill="none" xmlns="http://www.w3.org/2000/svg">
<g clip-path="url(#clip0_3016_1585)">
<path d="M16.2655 31.4975C18.658 26.03 24.0505 22.5 30.0005 22.5C35.9506 22.5 41.343 26.0325 43.7355 31.4975C44.2905 32.7625 43.713 34.2375 42.448 34.79C42.1205 34.9325 41.7805 35 41.4481 35C40.4831 35 39.5655 34.44 39.1555 33.5C37.558 29.855 33.9655 27.4975 30.0005 27.4975C26.0355 27.4975 22.443 29.8525 20.8455 33.5C20.2905 34.7625 18.8155 35.3375 17.553 34.7875C16.288 34.235 15.7105 32.76 16.2655 31.495V31.4975ZM20.0005 10C20.0005 4.485 24.4855 0 30.0005 0C35.5155 0 40.0005 4.485 40.0005 10C40.0005 15.515 35.5155 20 30.0005 20C24.4855 20 20.0005 15.515 20.0005 10ZM25.0005 10C25.0005 12.7575 27.243 15 30.0005 15C32.758 15 35.0005 12.7575 35.0005 10C35.0005 7.2425 32.758 5 30.0005 5C27.243 5 25.0005 7.2425 25.0005 10ZM59.9005 39.6475C59.6605 38.99 59.0355 38.5525 58.3355 38.5525H53.333L51.563 33.585C51.3205 32.9325 50.698 32.5 50.0005 32.5C49.303 32.5 48.6805 32.9325 48.438 33.585L46.668 38.5525H41.6656C40.9655 38.5525 40.3431 38.9875 40.1006 39.645C39.8581 40.3 40.053 41.0375 40.5855 41.49L44.548 44.715L42.9805 49.7425C42.768 50.4175 43.0055 51.1525 43.5705 51.5775C43.8655 51.8 44.218 51.91 44.5705 51.91C44.893 51.91 45.2155 51.8175 45.498 51.6275L50.0105 48.6075L54.6005 51.5975C55.1931 51.9825 55.9655 51.9525 56.528 51.52C57.0905 51.0875 57.3155 50.3475 57.093 49.675L55.463 44.7075L59.4055 41.495C59.9405 41.045 60.1405 40.305 59.9005 39.6475ZM38.3355 46.0525H33.333L31.563 41.085C31.3205 40.4325 30.698 40 30.0005 40C29.303 40 28.6805 40.4325 28.438 41.085L26.668 46.0525H21.6656C20.9655 46.0525 20.343 46.4875 20.1005 47.145C19.858 47.8 20.053 48.5375 20.5855 48.99L24.548 52.215L22.9805 57.2425C22.768 57.9175 23.0056 58.6525 23.5705 59.0775C23.8655 59.3 24.218 59.41 24.5705 59.41C24.893 59.41 25.2155 59.3175 25.498 59.1275L30.0105 56.1075L34.6005 59.0975C35.1931 59.4825 35.9655 59.4525 36.528 59.02C37.0905 58.5875 37.3155 57.8475 37.093 57.175L35.4631 52.2075L39.4055 48.995C39.9405 48.545 40.138 47.805 39.898 47.1475C39.658 46.49 39.0355 46.0525 38.3355 46.0525ZM18.3355 38.5525H13.333L11.563 33.585C11.3205 32.9325 10.698 32.5 10.0005 32.5C9.30305 32.5 8.68055 32.9325 8.43805 33.585L6.66805 38.5525H1.66805C0.968047 38.5525 0.345547 38.9875 0.103047 39.645C-0.139453 40.3 0.0555475 41.0375 0.588047 41.49L4.55055 44.715L2.98305 49.7425C2.77055 50.4175 3.00805 51.1525 3.57305 51.5775C3.86805 51.8 4.22055 51.91 4.57305 51.91C4.89555 51.91 5.21805 51.8175 5.50055 51.6275L10.013 48.6075L14.603 51.5975C15.1955 51.9825 15.968 51.9525 16.5305 51.52C17.093 51.0875 17.318 50.3475 17.0955 49.675L15.4655 44.7075L19.408 41.495C19.943 41.045 20.1405 40.305 19.9005 39.6475C19.6605 38.99 19.0355 38.5525 18.3355 38.5525Z" fill="white"/>
</g>
<defs>
<clipPath id="clip0_3016_1585">
<rect width="60" height="60" fill="white"/>
</clipPath>
</defs>
</svg>
