<svg width="44" height="45" viewBox="0 0 44 45" fill="none" xmlns="http://www.w3.org/2000/svg">
<path d="M24.5 34.75H7C5.34315 34.75 4 33.4069 4 31.75V11.75C4 10.0932 5.34314 8.75 7 8.75H35C36.6569 8.75 38 10.0932 38 11.75V13.75" stroke="#2E2E2E" stroke-width="2"/>
<path d="M11 13.25C11 12.4216 10.3284 11.75 9.5 11.75C8.67157 11.75 8 12.4216 8 13.25C8 14.0784 8.67157 14.75 9.5 14.75C10.3284 14.75 11 14.0784 11 13.25Z" fill="#2E2E2E"/>
<path d="M15 13.25C15 12.4216 14.3284 11.75 13.5 11.75C12.6716 11.75 12 12.4216 12 13.25C12 14.0784 12.6716 14.75 13.5 14.75C14.3284 14.75 15 14.0784 15 13.25Z" fill="#2E2E2E"/>
<path d="M5 16.75H25" stroke="#2E2E2E" stroke-width="2"/>
<path d="M36 12.75H28C26.3431 12.75 25 14.0931 25 15.75V33.75C25 35.4069 26.3431 36.75 28 36.75H36C37.6569 36.75 39 35.4069 39 33.75V15.75C39 14.0931 37.6569 12.75 36 12.75Z" stroke="#2E2E2E" stroke-width="2"/>
<path d="M33.5 15H30.5C30.3619 15 30.25 15.1119 30.25 15.25C30.25 15.3881 30.3619 15.5 30.5 15.5H33.5C33.6381 15.5 33.75 15.3881 33.75 15.25C33.75 15.1119 33.6381 15 33.5 15Z" stroke="#2E2E2E" stroke-width="0.5"/>
<path d="M38 29.75H26C25.4477 29.75 25 30.1977 25 30.75C25 31.3023 25.4477 31.75 26 31.75H38C38.5523 31.75 39 31.3023 39 30.75C39 30.1977 38.5523 29.75 38 29.75Z" fill="#2E2E2E"/>
<path d="M33 33.75C33 33.1977 32.5523 32.75 32 32.75C31.4477 32.75 31 33.1977 31 33.75C31 34.3023 31.4477 34.75 32 34.75C32.5523 34.75 33 34.3023 33 33.75Z" fill="#2E2E2E"/>
</svg>
