<svg width="61" height="61" viewBox="0 0 61 61" fill="none" xmlns="http://www.w3.org/2000/svg">
<path d="M30.9258 54.4922C44.3877 54.4922 55.3008 43.5791 55.3008 30.1172C55.3008 16.6552 44.3877 5.74219 30.9258 5.74219C17.4638 5.74219 6.55078 16.6552 6.55078 30.1172C6.55078 43.5791 17.4638 54.4922 30.9258 54.4922Z" stroke="white" stroke-width="3.75" stroke-linecap="round" stroke-linejoin="round"/>
<path d="M19.6758 37.6172C21.7468 37.6172 23.4258 35.9383 23.4258 33.8672C23.4258 31.7961 21.7468 30.1172 19.6758 30.1172C17.6047 30.1172 15.9258 31.7961 15.9258 33.8672C15.9258 35.9383 17.6047 37.6172 19.6758 37.6172Z" fill="white"/>
<path d="M42.1758 37.6172C44.2468 37.6172 45.9258 35.9383 45.9258 33.8672C45.9258 31.7961 44.2468 30.1172 42.1758 30.1172C40.1047 30.1172 38.4258 31.7961 38.4258 33.8672C38.4258 35.9383 40.1047 37.6172 42.1758 37.6172Z" fill="white"/>
<path d="M26.2383 43.2422C26.2383 43.2422 28.1133 45.1172 30.9258 45.1172C33.7383 45.1172 35.6133 43.2422 35.6133 43.2422" stroke="white" stroke-width="3.75" stroke-linecap="round" stroke-linejoin="round"/>
</svg>
