<svg width="61" height="61" viewBox="0 0 61 61" fill="none" xmlns="http://www.w3.org/2000/svg">
<path d="M26.3906 52.875H10.1406C10.1406 44.0588 16.6599 36.7652 25.1406 35.5522M41.3846 40.9048C39.6351 38.957 36.7179 38.433 34.5259 40.2167C32.3341 42.0002 32.0254 44.9825 33.7469 47.092C34.7186 48.283 37.0276 50.3707 38.8541 51.9632C39.7204 52.7185 40.1534 53.0962 40.6774 53.2507C41.1241 53.3825 41.6451 53.3825 42.0919 53.2507C42.6159 53.0962 43.0489 52.7185 43.9151 51.9632C45.7416 50.3707 48.0506 48.283 49.0224 47.092C50.7439 44.9825 50.4729 41.9815 48.2434 40.2167C46.0136 38.4517 43.1341 38.957 41.3846 40.9048ZM37.6406 17.875C37.6406 23.3979 33.1634 27.875 27.6406 27.875C22.1178 27.875 17.6406 23.3979 17.6406 17.875C17.6406 12.3521 22.1178 7.875 27.6406 7.875C33.1634 7.875 37.6406 12.3521 37.6406 17.875Z" stroke="white" stroke-width="2.5" stroke-linecap="round" stroke-linejoin="round"/>
</svg>
