<svg width="48" height="49" viewBox="0 0 48 49" fill="none" xmlns="http://www.w3.org/2000/svg">
<path d="M35 3.25H14C12.3431 3.25 11 4.59315 11 6.25V42.25C11 43.9069 12.3431 45.25 14 45.25H35C36.6569 45.25 38 43.9069 38 42.25V6.25C38 4.59315 36.6569 3.25 35 3.25Z" stroke="#2E2E2E" stroke-width="2"/>
<path d="M27 6.75H22C21.7239 6.75 21.5 6.97386 21.5 7.25C21.5 7.52614 21.7239 7.75 22 7.75H27C27.2761 7.75 27.5 7.52614 27.5 7.25C27.5 6.97386 27.2761 6.75 27 6.75Z" stroke="#2E2E2E"/>
<path d="M33 27.75H16C15.7239 27.75 15.5 27.9739 15.5 28.25C15.5 28.5261 15.7239 28.75 16 28.75H33C33.2761 28.75 33.5 28.5261 33.5 28.25C33.5 27.9739 33.2761 27.75 33 27.75Z" stroke="#2E2E2E"/>
<path d="M27 31.75H16C15.7239 31.75 15.5 31.9739 15.5 32.25C15.5 32.5261 15.7239 32.75 16 32.75H27C27.2761 32.75 27.5 32.5261 27.5 32.25C27.5 31.9739 27.2761 31.75 27 31.75Z" stroke="#2E2E2E"/>
<path d="M37 36.75H12C11.7239 36.75 11.5 36.9739 11.5 37.25C11.5 37.5261 11.7239 37.75 12 37.75H37C37.2761 37.75 37.5 37.5261 37.5 37.25C37.5 36.9739 37.2761 36.75 37 36.75Z" stroke="#2E2E2E"/>
<path d="M32 12.25H17C16.4477 12.25 16 12.6977 16 13.25V23.25C16 23.8023 16.4477 24.25 17 24.25H32C32.5523 24.25 33 23.8023 33 23.25V13.25C33 12.6977 32.5523 12.25 32 12.25Z" stroke="#2E2E2E" stroke-width="2"/>
<path d="M33 12.25L16 23.25" stroke="#2E2E2E" stroke-width="2"/>
<path d="M16 12.25L33 23.25" stroke="#2E2E2E" stroke-width="2"/>
<path d="M26 41.25C26 40.6977 25.5523 40.25 25 40.25C24.4477 40.25 24 40.6977 24 41.25C24 41.8023 24.4477 42.25 25 42.25C25.5523 42.25 26 41.8023 26 41.25Z" stroke="#2E2E2E" stroke-width="2"/>
</svg>
