<svg width="50" height="50" viewBox="0 0 50 50" fill="none" xmlns="http://www.w3.org/2000/svg">
<path d="M45.4365 8.20857C42.2282 16.2086 34.1865 27.0836 27.4574 32.4794L23.3532 35.7711C22.8324 36.1461 22.3115 36.4794 21.7282 36.7086C21.7282 36.3336 21.7074 35.9169 21.6449 35.5211C21.4157 33.7711 20.624 32.1461 19.2282 30.7502C17.8115 29.3336 16.0824 28.5002 14.3115 28.2711C13.8949 28.2502 13.4782 28.2086 13.0615 28.2502C13.2907 27.6044 13.6449 27.0002 14.0824 26.5002L17.3324 22.3961C22.7074 15.6669 33.624 7.58357 41.6032 4.39607C42.8324 3.93773 44.0199 4.27107 44.7699 5.0419C45.5615 5.81273 45.9365 7.00023 45.4365 8.20857Z" stroke="white" stroke-width="3.125" stroke-linecap="round" stroke-linejoin="round"/>
<path d="M21.7298 36.7082C21.7298 38.9998 20.8548 41.1873 19.209 42.854C17.9382 44.1248 16.209 44.9998 14.1465 45.2707L9.02149 45.8332C6.22982 46.1457 3.83398 43.7707 4.16732 40.9373L4.72982 35.8123C5.22982 31.2498 9.04232 28.3332 13.084 28.2498C13.5007 28.229 13.9382 28.2498 14.334 28.2707C16.1048 28.4998 17.834 29.3123 19.2507 30.7498C20.6465 32.1457 21.4382 33.7707 21.6673 35.5207C21.6882 35.9165 21.7298 36.3123 21.7298 36.7082Z" stroke="white" stroke-width="3.125" stroke-linecap="round" stroke-linejoin="round"/>
<path d="M29.6662 30.1462C29.6662 24.7087 25.2495 20.292 19.812 20.292" stroke="white" stroke-width="3.125" stroke-linecap="round" stroke-linejoin="round"/>
</svg>
