<svg width="24" height="25" viewBox="0 0 24 25" fill="none" xmlns="http://www.w3.org/2000/svg">
<path d="M20 7.19019H4C2.89543 7.19019 2 8.08562 2 9.19019V19.1902C2 20.2948 2.89543 21.1902 4 21.1902H20C21.1046 21.1902 22 20.2948 22 19.1902V9.19019C22 8.08562 21.1046 7.19019 20 7.19019Z" stroke="#222222" stroke-width="1.5" stroke-linecap="round" stroke-linejoin="round"/>
<path d="M16 21.1902V5.19019C16 4.65975 15.7893 4.15104 15.4142 3.77597C15.0391 3.4009 14.5304 3.19019 14 3.19019H10C9.46957 3.19019 8.96086 3.4009 8.58579 3.77597C8.21071 4.15104 8 4.65975 8 5.19019V21.1902" stroke="#222222" stroke-width="1.5" stroke-linecap="round" stroke-linejoin="round"/>
</svg>
