<svg width="58" height="59" viewBox="0 0 58 59" fill="none" xmlns="http://www.w3.org/2000/svg">
<rect x="5" y="5.69043" width="48" height="48" rx="24" stroke="white" stroke-opacity="0.4" stroke-width="10"/>
<rect x="8" y="8.69043" width="42" height="42" rx="21" fill="black"/>
<path d="M29 8.69043C24.8466 8.69043 20.7865 9.92206 17.333 12.2296C13.8796 14.5371 11.188 17.8168 9.59854 21.6541C8.0091 25.4913 7.59323 29.7137 8.40352 33.7873C9.21381 37.8609 11.2139 41.6028 14.1508 44.5397C17.0877 47.4766 20.8295 49.4766 24.9031 50.2869C28.9767 51.0972 33.1991 50.6813 37.0364 49.0919C40.8736 47.5025 44.1534 44.8108 46.4609 41.3574C48.7684 37.904 50 33.8438 50 29.6904C50 24.1209 47.7875 18.7795 43.8493 14.8412C39.911 10.9029 34.5696 8.69043 29 8.69043ZM40.1705 31.0329L22.1705 40.0329C21.9418 40.1472 21.6876 40.2012 21.4321 40.1896C21.1767 40.178 20.9284 40.1013 20.711 39.9668C20.4935 39.8323 20.314 39.6444 20.1896 39.421C20.0651 39.1976 19.9999 38.9461 20 38.6904V20.6904C20.0001 20.4348 20.0656 20.1835 20.1901 19.9603C20.3147 19.7371 20.4942 19.5495 20.7116 19.4151C20.929 19.2808 21.1772 19.2042 21.4325 19.1927C21.6878 19.1813 21.9419 19.2352 22.1705 19.3494L40.1705 28.3494C40.4193 28.4741 40.6285 28.6656 40.7748 28.9024C40.921 29.1393 40.9984 29.4121 40.9984 29.6904C40.9984 29.9688 40.921 30.2416 40.7748 30.4784C40.6285 30.7152 40.4193 30.9067 40.1705 31.0314" fill="white"/>
</svg>
