<svg width="60" height="59" viewBox="0 0 60 59" fill="none" xmlns="http://www.w3.org/2000/svg">
<path d="M1.26242 21.456C8.50548 17.1732 12.7478 9.29319 11.9417 1.68408C10.4721 9.02303 15.3568 16.9647 23.1794 19.9591C18.7097 21.373 15.6052 25.0737 14.1765 29.0445C12.7485 32.9941 12.7697 37.2152 12.7902 41.3733C13.6387 33.7847 8.31984 25.9884 1.2829 21.4766L1.26172 21.4553L1.26242 21.456Z" stroke="#191A4E" stroke-width="0.25" stroke-miterlimit="10"/>
<path d="M12.7689 42.3914H12.7075C12.1689 42.3708 11.7553 41.9134 11.7553 41.3731V38.2121C11.0515 31.7254 6.00163 25.7167 0.703278 22.3287C0.557504 22.2363 0.438623 22.1069 0.358671 21.9534C0.278719 21.8 0.240535 21.6281 0.247984 21.4551C0.247984 21.1013 0.434337 20.7688 0.744926 20.6028C6.14634 17.4006 9.83034 12.0166 10.7826 6.38158C10.5688 4.75505 10.6248 3.10416 10.9485 1.49604C10.9958 1.25896 11.1263 1.04683 11.3162 0.898224C11.5062 0.749621 11.7428 0.674412 11.9833 0.686275C12.4795 0.706838 12.8939 1.10179 12.9348 1.57971C13.0971 3.15106 13.0625 4.73665 12.8317 6.29933C13.6597 11.7046 17.7779 16.8192 23.511 19.023C23.9042 19.1691 24.1732 19.564 24.1527 20.0001C24.1518 20.2116 24.0828 20.417 23.9559 20.5858C23.829 20.7545 23.6512 20.8774 23.4489 20.9361C19.7028 22.121 16.5779 25.2813 15.1082 29.3975C14.0939 32.204 13.8454 35.1772 13.7833 38.1504C13.8868 39.2567 13.8868 40.3703 13.7833 41.4766C13.7553 41.7219 13.6388 41.9484 13.4557 42.1132C13.2727 42.278 13.0359 42.3696 12.7901 42.3708L12.7689 42.3914ZM3.10469 21.497C6.83034 24.2 10.3075 28.0673 12.2529 32.4536C12.4551 31.1775 12.7809 29.9243 13.2256 28.7118C14.612 24.8445 17.3028 21.6849 20.6353 19.9377C16.5157 17.7552 13.4113 14.2828 11.8174 10.312C10.2447 14.6778 7.18116 18.6699 3.10398 21.4764V21.4977L3.10469 21.497Z" fill="#191A4E" stroke="#191A4E" stroke-width="0.25" stroke-miterlimit="10"/>
<path d="M39.2002 41.5392C45.6576 38.6909 49.6105 32.4744 48.7621 26.5281C49.9621 32.3921 52.0113 39.1901 58.7376 41.5392C55.2604 42.3916 52.6741 44.8655 51.287 47.5898C49.8795 50.3127 49.5068 53.2858 49.1341 56.2384C50.0447 49.7723 44.9538 43.0567 39.2002 41.5605V41.5392Z" stroke="#191A4E" stroke-width="0.25" stroke-miterlimit="10"/>
<path d="M49.1347 57.2366H48.9886C48.7233 57.1987 48.4835 57.0576 48.3209 56.8436C48.1583 56.6296 48.086 56.36 48.1197 56.0929C48.1197 55.9887 48.1408 55.8639 48.1613 55.7596C48.8234 49.7098 43.9182 43.8259 38.9305 42.5162C38.5161 42.4127 38.2062 42.0383 38.1851 41.6228C38.1441 41.186 38.3919 40.791 38.7851 40.6038C44.8493 37.9221 48.5545 32.1835 47.747 26.674C47.7078 26.4124 47.7728 26.1459 47.9277 25.932C48.0826 25.7181 48.3151 25.574 48.575 25.531C48.7027 25.5062 48.8341 25.507 48.9615 25.5333C49.089 25.5596 49.21 25.6109 49.3177 25.6843C49.4254 25.7577 49.5175 25.8517 49.589 25.9609C49.6604 26.0701 49.7097 26.1925 49.734 26.3209C50.9968 32.475 52.9832 38.4624 59.0474 40.5833C59.4618 40.7286 59.7512 41.1441 59.7307 41.5809C59.7229 41.7997 59.6437 42.0098 59.5053 42.179C59.3669 42.3481 59.177 42.4668 58.9648 42.5169C56.0877 43.2231 53.6044 45.2398 52.1764 48.047C50.9135 50.521 50.5204 53.2857 50.1688 55.9887C50.1688 56.1135 50.1477 56.2383 50.1272 56.3631C50.0946 56.6045 49.976 56.826 49.7935 56.9865C49.6109 57.1469 49.3766 57.2356 49.134 57.2359L49.1347 57.2366ZM41.6827 41.393C44.9114 42.9728 47.8712 46.0502 49.3204 49.7509C49.5886 48.8575 49.9415 47.9839 50.3961 47.1103C51.6794 44.5945 53.687 42.6197 56.0877 41.4349C52.5491 39.397 50.5408 35.9877 49.2371 32.2665C48.0582 35.9041 45.3879 39.1892 41.6827 41.393Z" fill="#191A4E" stroke="#191A4E" stroke-width="0.25" stroke-miterlimit="10"/>
</svg>
