<svg width="48" height="49" viewBox="0 0 48 49" fill="none" xmlns="http://www.w3.org/2000/svg">
<path d="M42.9382 7.88836C42.2534 7.22101 41.348 6.86773 40.3926 6.89179C38.5048 6.94046 36.969 8.54063 36.969 10.4591V19.3579C35.7321 18.9227 34.2986 19.1986 33.3113 20.1861L24.5413 28.956C24.3447 29.1526 24.1647 29.3613 24.0002 29.5796C23.8356 29.3613 23.6555 29.1526 23.459 28.956L14.6891 20.186C13.7018 19.1986 12.2683 18.9227 11.0313 19.3578V10.4063C11.0313 9.45002 10.6541 8.55579 9.96919 7.88836C9.28442 7.22101 8.37957 6.86757 7.42362 6.89179C5.53587 6.94046 4 8.54063 4 10.4591V23.6014C4 24.8002 4.33907 25.9692 4.98048 26.9819L11.4401 37.1805C12.0332 38.1169 12.3467 39.1977 12.3467 40.306V43.5179C12.3467 44.1651 12.8714 44.6898 13.5186 44.6898H34.4819C35.1291 44.6898 35.6538 44.1651 35.6538 43.5179V40.306C35.6538 39.1976 35.9672 38.1169 36.5603 37.1806L43.0199 26.982C43.6613 25.9692 44.0003 24.8002 44.0003 23.6014V10.4063C44.0003 9.45009 43.6231 8.55587 42.9382 7.88836ZM13.4202 35.9265L6.96049 25.7277C6.55697 25.0908 6.34377 24.3554 6.34377 23.6014V10.4591C6.34377 9.80025 6.85526 9.25103 7.48401 9.23486C7.80323 9.22712 8.10527 9.34455 8.33347 9.56689C8.56176 9.78939 8.68754 10.0875 8.68754 10.4063V22.7111C8.68754 22.7436 8.6898 22.7756 8.69238 22.8075C8.72504 23.6621 9.06621 24.5069 9.71723 25.158L13.9917 29.4324C14.4493 29.8901 15.1913 29.8901 15.649 29.4324C16.1067 28.9748 16.1067 28.2328 15.649 27.7752L11.3745 23.5007C10.9176 23.0437 10.9176 22.3003 11.3745 21.8434C11.8315 21.3865 12.5749 21.3865 13.0319 21.8434L21.8016 30.6132C22.4637 31.2753 22.8283 32.1591 22.8283 33.1018V42.3461H14.6904V40.306C14.6904 38.7529 14.2512 37.2385 13.4202 35.9265ZM41.6566 23.6014C41.6566 24.3554 41.4433 25.0908 41.0397 25.7277L34.5802 35.9265C33.7491 37.2384 33.3099 38.7529 33.3099 40.306V42.3461H25.172V33.1018C25.172 32.1591 25.5367 31.2753 26.1986 30.6132L34.9685 21.8433C35.4256 21.3864 36.1689 21.3864 36.6258 21.8433C37.0805 22.2798 37.0805 23.0643 36.6255 23.5009L32.3513 27.7779C31.8939 28.2357 31.8941 28.9777 32.3519 29.4352C32.8095 29.8926 33.5515 29.8925 34.0092 29.4346L38.2831 25.158C38.9293 24.5118 39.2919 23.6582 39.311 22.7474C39.3114 22.7352 39.3128 22.7233 39.3128 22.7111V10.4591C39.3128 9.80025 39.8243 9.25103 40.453 9.23486C40.7706 9.22619 41.0742 9.34455 41.3025 9.56689C41.5308 9.78947 41.6566 10.0876 41.6566 10.4064V23.6014Z" fill="white" stroke="white" stroke-width="0.5"/>
<path d="M15.8338 15.0206C15.8839 15.075 16.0564 15.245 19.3399 18.4467C21.0524 20.1166 22.992 22.008 23.1482 22.1655C23.3689 22.395 23.6738 22.5253 23.993 22.5253C24.3166 22.5253 24.6257 22.3915 24.8471 22.156C25.0141 21.984 26.8073 20.2384 28.3903 18.6975C31.1619 15.9995 32.0425 15.1404 32.1527 15.0207C32.1781 14.9933 32.2019 14.9649 32.2241 14.9356C36.0122 10.1272 32.5623 4.72863 27.6727 4.70542C26.3457 4.72589 25.087 5.18152 23.9811 6.03356C21.1334 3.87854 18.0002 4.57784 16.146 6.29239C13.6446 8.57748 13.5206 12.3939 15.7995 14.9817C15.8107 14.9949 15.8221 15.0078 15.8338 15.0206ZM17.7373 8.01318C18.9306 6.9095 21.0698 6.35575 23.1703 8.42717C23.3931 8.64678 23.6956 8.76795 24.0071 8.76452C24.3199 8.76077 24.6182 8.63217 24.8356 8.40733C26.1364 7.062 28.3851 6.36286 30.2487 8.00623C31.4665 9.08022 32.2331 11.1476 30.4089 13.4528C30.1145 13.7483 28.2589 15.5547 26.7554 17.0182C25.4286 18.3098 24.5514 19.1641 23.9918 19.7107C23.1937 18.9294 18.165 14.0303 17.5622 13.436C16.3699 11.9926 15.9199 9.6939 17.7373 8.01318Z" fill="white" stroke="white" stroke-width="0.5"/>
</svg>
