<svg width="20" height="20" viewBox="0 0 20 20" fill="none" xmlns="http://www.w3.org/2000/svg">
<g clip-path="url(#clip0_753_8222)">
<path fill-rule="evenodd" clip-rule="evenodd" d="M10.0003 3.33195C6.31843 3.33195 3.33366 6.31672 3.33366 9.99862C3.33366 13.6805 6.31843 16.6653 10.0003 16.6653C13.6822 16.6653 16.667 13.6805 16.667 9.99862C16.667 6.31672 13.6822 3.33195 10.0003 3.33195ZM1.66699 9.99862C1.66699 5.39624 5.39795 1.66528 10.0003 1.66528C14.6027 1.66528 18.3337 5.39624 18.3337 9.99862C18.3337 14.601 14.6027 18.332 10.0003 18.332C5.39795 18.332 1.66699 14.601 1.66699 9.99862Z" fill="#56CDAD"/>
<path fill-rule="evenodd" clip-rule="evenodd" d="M13.0896 7.74261C13.415 8.06805 13.415 8.59569 13.0896 8.92112L9.75625 12.2545C9.43081 12.5799 8.90317 12.5799 8.57774 12.2545L6.91107 10.5878C6.58563 10.2624 6.58563 9.73472 6.91107 9.40928C7.23651 9.08384 7.76414 9.08384 8.08958 9.40928L9.16699 10.4867L11.9111 7.74261C12.2365 7.41718 12.7641 7.41718 13.0896 7.74261Z" fill="#56CDAD"/>
</g>
<defs>
<clipPath id="clip0_753_8222">
<rect width="20" height="20" fill="white" transform="translate(0 -0.00146484)"/>
</clipPath>
</defs>
</svg>
