<svg width="60" height="60" viewBox="0 0 60 60" fill="none" xmlns="http://www.w3.org/2000/svg">
<mask id="mask0_753_3053" style="mask-type:luminance" maskUnits="userSpaceOnUse" x="0" y="0" width="59" height="59">
<path d="M0 11.9766L47.009 0.000226727L58.9854 47.0093L11.9763 58.9856L0 11.9766Z" fill="white"/>
</mask>
<g mask="url(#mask0_753_3053)">
<path d="M34.9007 50.7727L8.70364 28.8995C4.39002 25.2817 3.77087 18.8144 7.38619 14.4574C10.976 10.108 17.4164 9.52974 21.7556 13.1425L26.3092 16.9442L28.4896 11.4255C30.5704 6.17867 36.5028 3.60378 41.7356 5.70633C46.9696 7.80888 49.5394 13.7514 47.4573 18.9995L34.9275 50.7663L34.9007 50.7727Z" stroke="#191A4E" stroke-width="0.75" stroke-miterlimit="10"/>
<path d="M35.2196 52.0276C35.0154 52.0795 34.8017 52.0819 34.5963 52.0346C34.3909 51.9873 34.1998 51.8917 34.0388 51.7556L7.84176 29.8825C2.99964 25.8267 2.309 18.5322 6.37368 13.6518C7.33414 12.4901 8.51453 11.5294 9.84713 10.8248C11.1797 10.1203 12.6383 9.68582 14.1392 9.54628C17.2324 9.24884 20.2209 10.1782 22.6222 12.1837L25.7613 14.7931L27.2677 11.0016C28.3975 8.12288 30.6035 5.86969 33.4554 4.62501C34.8401 4.02955 36.3287 3.71334 37.8359 3.6945C39.3431 3.67566 40.8392 3.95456 42.2384 4.51522C48.1171 6.8616 51.0213 13.5663 48.6903 19.4769L36.1592 51.2425C36.0829 51.4387 35.9608 51.614 35.8032 51.7536C35.6456 51.8933 35.4569 51.9933 35.2528 52.0454L35.2196 52.0276ZM12.9979 12.3727C11.1872 12.8342 9.56936 13.8576 8.37666 15.2961C5.2324 19.0965 5.75325 24.7429 9.53836 27.9242L34.326 48.6293L46.1856 18.5871C47.992 14.0093 45.7413 8.77522 41.1609 6.9433C40.0854 6.50602 38.9334 6.28832 37.7725 6.30301C36.6116 6.3177 35.4654 6.56448 34.4013 7.02884C33.3239 7.48956 32.3485 8.15937 31.5316 8.99949C30.7147 9.83961 30.0725 10.8334 29.6422 11.9233L27.463 17.4408C27.1618 18.2271 26.0141 18.5195 25.3745 17.9731L20.8209 14.1701C18.9877 12.6471 16.6592 11.9042 14.3026 12.1493C13.8443 12.1893 13.3903 12.2688 12.9456 12.3867L12.9967 12.3739L12.9979 12.3727Z" fill="#191A4E" stroke="#191A4E" stroke-width="0.75" stroke-miterlimit="10"/>
</g>
</svg>
