<svg width="48" height="49" viewBox="0 0 48 49" fill="none" xmlns="http://www.w3.org/2000/svg">
<g clip-path="url(#clip0_753_3192)">
<path d="M4 40.6901C4.45434 41.3231 5.05594 41.836 5.75285 42.1844C6.44975 42.5329 7.22101 42.7065 8 42.6901C8.77899 42.7065 9.55025 42.5329 10.2472 42.1844C10.9441 41.836 11.5457 41.3231 12 40.6901C12.4543 40.0572 13.0559 39.5443 13.7528 39.1958C14.4498 38.8474 15.221 38.6738 16 38.6901C16.779 38.6738 17.5502 38.8474 18.2472 39.1958C18.9441 39.5443 19.5457 40.0572 20 40.6901C20.4543 41.3231 21.0559 41.836 21.7528 42.1844C22.4498 42.5329 23.221 42.7065 24 42.6901C24.779 42.7065 25.5502 42.5329 26.2472 42.1844C26.9441 41.836 27.5457 41.3231 28 40.6901C28.4543 40.0572 29.0559 39.5443 29.7528 39.1958C30.4498 38.8474 31.221 38.6738 32 38.6901C32.779 38.6738 33.5502 38.8474 34.2472 39.1958C34.9441 39.5443 35.5457 40.0572 36 40.6901C36.4543 41.3231 37.0559 41.836 37.7528 42.1844C38.4498 42.5329 39.221 42.7065 40 42.6901C40.779 42.7065 41.5502 42.5329 42.2472 42.1844C42.9441 41.836 43.5457 41.3231 44 40.6901" stroke="white" stroke-width="3" stroke-linecap="round" stroke-linejoin="round"/>
<path d="M4 32.6901C4.45434 33.3231 5.05594 33.836 5.75285 34.1844C6.44975 34.5329 7.22101 34.7065 8 34.6901C8.77899 34.7065 9.55025 34.5329 10.2472 34.1844C10.9441 33.836 11.5457 33.3231 12 32.6901C12.4543 32.0572 13.0559 31.5443 13.7528 31.1958C14.4498 30.8474 15.221 30.6738 16 30.6901C16.779 30.6738 17.5502 30.8474 18.2472 31.1958C18.9441 31.5443 19.5457 32.0572 20 32.6901C20.4543 33.3231 21.0559 33.836 21.7528 34.1844C22.4498 34.5329 23.221 34.7065 24 34.6901C24.779 34.7065 25.5502 34.5329 26.2472 34.1844C26.9441 33.836 27.5457 33.3231 28 32.6901C28.4543 32.0572 29.0559 31.5443 29.7528 31.1958C30.4498 30.8474 31.221 30.6738 32 30.6901C32.779 30.6738 33.5502 30.8474 34.2472 31.1958C34.9441 31.5443 35.5457 32.0572 36 32.6901C36.4543 33.3231 37.0559 33.836 37.7528 34.1844C38.4498 34.5329 39.221 34.7065 40 34.6901C40.779 34.7065 41.5502 34.5329 42.2472 34.1844C42.9441 33.836 43.5457 33.3231 44 32.6901" stroke="white" stroke-width="3" stroke-linecap="round" stroke-linejoin="round"/>
<path d="M30 24.6902V9.69019C30 8.89454 30.3161 8.13147 30.8787 7.56887C31.4413 7.00626 32.2044 6.69019 33 6.69019C33.7956 6.69019 34.5587 7.00626 35.1213 7.56887C35.6839 8.13147 36 8.89454 36 9.69019" stroke="white" stroke-width="3" stroke-linecap="round" stroke-linejoin="round"/>
<path d="M18 24.6902V9.69019C18 8.89454 17.6839 8.13147 17.1213 7.56887C16.5587 7.00626 15.7956 6.69019 15 6.69019C14.2044 6.69019 13.4413 7.00626 12.8787 7.56887C12.3161 8.13147 12 8.89454 12 9.69019" stroke="white" stroke-width="3" stroke-linecap="round" stroke-linejoin="round"/>
<path d="M30 10.6902H18" stroke="white" stroke-width="3" stroke-linecap="round" stroke-linejoin="round"/>
<path d="M18 20.6902H30" stroke="white" stroke-width="3" stroke-linecap="round" stroke-linejoin="round"/>
</g>
<defs>
<clipPath id="clip0_753_3192">
<rect width="48" height="48" fill="white" transform="translate(0 0.690186)"/>
</clipPath>
</defs>
</svg>
