<svg width="48" height="49" viewBox="0 0 48 49" fill="none" xmlns="http://www.w3.org/2000/svg">
<g clip-path="url(#clip0_753_3197)">
<path d="M30 20.6902L39.106 16.1382C39.4108 15.9858 39.7496 15.9139 40.09 15.9293C40.4304 15.9446 40.7613 16.0467 41.0512 16.2258C41.3411 16.4049 41.5805 16.6551 41.7465 16.9527C41.9126 17.2503 41.9998 17.5854 42 17.9262V31.4542C41.9998 31.795 41.9126 32.13 41.7465 32.4276C41.5805 32.7252 41.3411 32.9755 41.0512 33.1546C40.7613 33.3337 40.4304 33.4358 40.09 33.4511C39.7496 33.4664 39.4108 33.3945 39.106 33.2422L30 28.6902V20.6902Z" stroke="white" stroke-width="3" stroke-linecap="round" stroke-linejoin="round"/>
<path d="M26 12.6902H10C7.79086 12.6902 6 14.481 6 16.6902V32.6902C6 34.8993 7.79086 36.6902 10 36.6902H26C28.2091 36.6902 30 34.8993 30 32.6902V16.6902C30 14.481 28.2091 12.6902 26 12.6902Z" stroke="white" stroke-width="3" stroke-linecap="round" stroke-linejoin="round"/>
</g>
<defs>
<clipPath id="clip0_753_3197">
<rect width="48" height="48" fill="white" transform="translate(0 0.690186)"/>
</clipPath>
</defs>
</svg>
