<svg width="52" height="53" viewBox="0 0 52 53" fill="none" xmlns="http://www.w3.org/2000/svg">
<rect y="0.5" width="52" height="52" rx="8" fill="white"/>
<path d="M30.666 24.166L33.1736 24.9183C34.7757 25.3989 35.5767 25.6393 36.038 26.2592C36.4993 26.8792 36.4993 27.7156 36.4993 29.3881V38.166" stroke="#191A4E" stroke-width="1.5" stroke-linejoin="round"/>
<path d="M21.334 23H24.834M21.334 27.6667H24.834" stroke="#191A4E" stroke-width="1.5" stroke-linecap="round" stroke-linejoin="round"/>
<path d="M25.9993 38.1673V34.6673C25.9993 33.5674 25.9993 33.0174 25.6576 32.6757C25.3159 32.334 24.7659 32.334 23.666 32.334H22.4993C21.3994 32.334 20.8494 32.334 20.5077 32.6757C20.166 33.0174 20.166 33.5674 20.166 34.6673V38.1673" stroke="#191A4E" stroke-width="1.5" stroke-linejoin="round"/>
<path d="M14.334 38.166H37.6673" stroke="#191A4E" stroke-width="1.5" stroke-linecap="round"/>
<path d="M15.5 38.1673V20.3374C15.5 17.4082 15.5 15.9436 16.423 15.2169C17.3461 14.4903 18.7053 14.8848 21.4238 15.6739L27.2571 17.3671C28.8975 17.8433 29.7178 18.0813 30.1922 18.7302C30.6667 19.3792 30.6667 20.263 30.6667 22.0307V38.1673" stroke="#191A4E" stroke-width="1.5" stroke-linecap="round" stroke-linejoin="round"/>
</svg>
