<svg width="52" height="53" viewBox="0 0 52 53" fill="none" xmlns="http://www.w3.org/2000/svg">
<rect y="0.5" width="52" height="52" rx="8" fill="white"/>
<path d="M14.334 22.4979C14.334 21.1024 14.8968 20.2471 16.0614 19.599L20.8555 16.931C23.3676 15.533 24.6236 14.834 26.0006 14.834C27.3777 14.834 28.6337 15.533 31.1458 16.931L35.9399 19.599C37.1045 20.2471 37.6673 21.1024 37.6673 22.4979C37.6673 22.8763 37.6673 23.0655 37.626 23.2211C37.4089 24.0383 36.6683 24.1673 35.9531 24.1673H16.0481C15.333 24.1673 14.5924 24.0383 14.3753 23.2211C14.334 23.0655 14.334 22.8763 14.334 22.4979Z" stroke="#191A4E" stroke-width="1.5"/>
<path d="M25.9961 20.666H26.0081" stroke="#191A4E" stroke-width="2" stroke-linecap="round" stroke-linejoin="round"/>
<path d="M16.666 24.166V34.0827M21.3327 24.166V34.0827" stroke="#191A4E" stroke-width="1.5"/>
<path d="M30.666 24.166V34.0827M35.3327 24.166V34.0827" stroke="#191A4E" stroke-width="1.5"/>
<path d="M34.1673 34.084H17.834C15.901 34.084 14.334 35.6509 14.334 37.584C14.334 37.9061 14.5952 38.1673 14.9173 38.1673H37.084C37.4061 38.1673 37.6673 37.9061 37.6673 37.584C37.6673 35.6509 36.1004 34.084 34.1673 34.084Z" stroke="#191A4E" stroke-width="1.5"/>
</svg>
