<svg width="52" height="53" viewBox="0 0 52 53" fill="none" xmlns="http://www.w3.org/2000/svg">
<rect y="0.5" width="52" height="52" rx="8" fill="#fff"/>
<path d="M35.5594 27.6652C37.4924 31.0133 36.3454 35.2944 32.9973 37.2274C29.6492 39.1605 25.3681 38.0133 23.4351 34.6652M35.5594 27.6652C33.6264 24.3172 29.3454 23.1701 25.9973 25.1031C22.6492 27.0361 21.5021 31.3172 23.4351 34.6652M35.5594 27.6652L23.4351 34.6652" stroke="#191A4E" stroke-width="1.5"/>
<path d="M23.7166 18.9664L29.6491 15.4609C31.8333 14.1703 34.6263 14.9362 35.8874 17.1717C36.9005 18.9677 36.6167 21.1657 35.3333 22.6299M23.7166 18.9664L17.7842 22.4718C15.5999 23.7624 14.8515 26.6209 16.1126 28.8564C16.8708 30.2005 18.1828 31.0133 19.5833 31.1673M23.7166 18.9664L25.4167 21.834" stroke="#191A4E" stroke-width="1.5" stroke-linecap="round" stroke-linejoin="round"/>
</svg>