<svg width="52" height="53" viewBox="0 0 52 53" fill="none" xmlns="http://www.w3.org/2000/svg">
<rect x="0.5" y="1" width="51" height="51" rx="7.5" stroke="white"/>
<path d="M22.5 28.2493V22.9993C22.5 21.8994 22.5 21.3494 22.1583 21.0077C21.8166 20.666 21.2666 20.666 20.1667 20.666H17.8333C16.7334 20.666 16.1834 20.666 15.8417 21.0077C15.5 21.3494 15.5 21.8994 15.5 22.9993V33.4993C15.5 35.6992 15.5 36.7991 16.1834 37.4826C16.8668 38.166 17.9668 38.166 20.1667 38.166H22.5M22.5 28.2493L26.3695 26.3145C27.6536 25.6725 28.2958 25.3515 28.7932 25.5648C28.8995 25.6105 28.9983 25.6716 29.0867 25.7463C29.5 26.0958 29.5 26.8136 29.5 28.2493L33.1232 26.4377C34.6366 25.681 35.3934 25.3027 35.9466 25.6446C36.5 25.9866 36.5 26.8327 36.5 28.5248V33.4993C36.5 35.6992 36.5 36.7991 35.8166 37.4826C35.1331 38.166 34.0332 38.166 31.8333 38.166H22.5M22.5 28.2493V38.166" stroke="currentColor" stroke-width="1.5" stroke-linecap="round" stroke-linejoin="round"/>
<path d="M15.5 24.166H22.5" stroke="currentColor" stroke-width="1.5" stroke-linecap="round" stroke-linejoin="round"/>
<path d="M27.1667 14.834H21.3333C20.2334 14.834 19.6834 14.834 19.3417 15.1757C19 15.5174 19 16.0674 19 17.1673" stroke="currentColor" stroke-width="1.5" stroke-linecap="round" stroke-linejoin="round"/>
<path d="M30.666 14.834H31.8327" stroke="currentColor" stroke-width="1.5" stroke-linecap="round" stroke-linejoin="round"/>
<path d="M24.834 18.334H31.834" stroke="currentColor" stroke-width="1.5" stroke-linecap="round" stroke-linejoin="round"/>
</svg>
