<svg width="52" height="53" viewBox="0 0 52 53" fill="none" xmlns="http://www.w3.org/2000/svg">
<rect y="0.5" width="52" height="52" rx="8" fill="white"/>
<path d="M15.4609 24.7461V30.5815C15.4609 33.8825 15.4609 35.533 16.4861 36.5585C17.5112 37.5841 19.1611 37.5841 22.4609 37.5841H29.4609C32.7607 37.5841 34.4106 37.5841 35.4358 36.5585C36.4609 35.533 36.4609 33.8825 36.4609 30.5815V24.7461" stroke="currentColor" stroke-width="1.5" stroke-linecap="round"/>
<path d="M29.4609 32.3262C28.6628 33.0346 27.3922 33.4928 25.9609 33.4928C24.5297 33.4928 23.259 33.0346 22.4609 32.3262" stroke="currentColor" stroke-width="1.5" stroke-linecap="round"/>
<path d="M23.7884 22.3223C23.4594 23.5104 22.263 25.5599 19.9897 25.857C17.9825 26.1192 16.4602 25.2431 16.0713 24.8767C15.6426 24.5797 14.6655 23.6292 14.4262 23.0352C14.1869 22.4411 14.4661 21.154 14.6655 20.6292L15.4626 18.3211C15.6572 17.7414 16.1128 16.3702 16.5798 15.9064C17.0469 15.4426 17.9924 15.4224 18.3816 15.4224H26.5547C28.6584 15.4521 33.2584 15.4037 34.1677 15.4224C35.077 15.4412 35.6234 16.2034 35.7829 16.5302C37.1396 19.8164 37.6673 21.6985 37.6673 22.5005C37.4902 23.3561 36.7573 24.9692 34.1677 25.6788C31.4762 26.4161 29.9503 24.9818 29.4716 24.4312M22.6817 24.4312C23.0606 24.8966 24.2491 25.8333 25.9719 25.857C27.6949 25.8808 29.1825 24.6787 29.7109 24.0748C29.8604 23.8966 30.1835 23.3678 30.5186 22.3223" stroke="currentColor" stroke-width="1.5" stroke-linecap="round" stroke-linejoin="round"/>
</svg>
