<svg xmlns="http://www.w3.org/2000/svg" width="70" height="70" viewBox="0 0 70 70">
    <g data-name="Group 26478">
        <path data-name="Rectangle 6838" style="fill:none" d="M0 0h70v70H0z"/>
        <g transform="translate(2.439 2.439)">
            <path data-name="Path 24173" d="M1 19.674V4.3A3.3 3.3 0 0 1 4.3 1h15.582A5.491 5.491 0 0 1 23.4 2.272l3.536 2.947a5.492 5.492 0 0 0 3.517 1.273h30.962a3.3 3.3 0 0 1 3.3 3.3v9.886z" style="fill:#e58b0a"/>
            <path data-name="Path 24174" d="M6 16.591V13.3A3.3 3.3 0 0 1 9.3 10h46.13a3.3 3.3 0 0 1 3.3 3.3v3.3z" transform="translate(.492 .886)" style="fill:#fff"/>
            <rect data-name="Rectangle 6840" width="65" height="41" rx="3" transform="translate(.561 16.561)" style="fill:#ffb90b"/>
            <ellipse data-name="Ellipse 1092" cx="19.5" cy="20" rx="19.5" ry="20" transform="translate(13.561 25.561)" style="fill:#3d4a75"/>
            <g data-name="Group 26522">
                <path data-name="Path 24175" d="M29.716 47.351a1.1 1.1 0 0 0 1.553 0l4.394-4.394a1.1 1.1 0 1 0-1.554-1.557l-2.519 2.519V30.1a1.1 1.1 0 0 0-2.2 0v13.822L26.875 41.4a1.1 1.1 0 1 0-1.553 1.553z" transform="translate(2.362 2.757)" style="fill:#fff"/>
                <path data-name="Path 24176" d="M40.87 45a1.1 1.1 0 0 0-1.1 1.1v2.2a1.1 1.1 0 0 1-1.1 1.1H23.3a1.1 1.1 0 0 1-1.1-1.1v-2.2a1.1 1.1 0 1 0-2.2 0v2.2a3.3 3.3 0 0 0 3.3 3.3h15.374a3.3 3.3 0 0 0 3.3-3.3v-2.2A1.1 1.1 0 0 0 40.87 45z" transform="translate(1.87 4.332)" style="fill:#fff"/>
            </g>
        </g>
    </g>
</svg>
