<svg xmlns="http://www.w3.org/2000/svg" width="70" height="70" viewBox="0 0 70 70">
    <g data-name="Group 26478">
        <path data-name="Rectangle 6838" style="fill:none" d="M0 0h70v70H0z"/>
        <g transform="translate(2.186 -20.907)">
            <g data-name="Group 26485">
                <path data-name="Path 24085" d="M110.279 32.151a5.128 5.128 0 0 1 4.444 5.641l-3.931 34.785a5.042 5.042 0 0 1-5.56 4.465l-.166-.021h-.256V45.142a5.128 5.128 0 0 0-5.128-5.128H56.947l.94-8.547a5.214 5.214 0 0 1 5.726-4.53z" transform="translate(-47.631)" style="fill:#00acea"/>
                <path data-name="Path 24086" d="M57.178 248.908v3.077a5.128 5.128 0 0 1-5.128 5.128H5.128A5.128 5.128 0 0 1 0 251.985v-7.179l14.1-10.256a5.812 5.812 0 0 1 7.436.342l9.4 8.2a6.068 6.068 0 0 0 7.008.6l19.23-11.282z" transform="translate(0 -171.887)" style="fill:#00ceb4"/>
                <path data-name="Path 24087" d="M57.178 112.153v15.384l-19.23 11.282a6.068 6.068 0 0 1-7.008-.6l-9.4-8.2a5.812 5.812 0 0 0-7.436-.342L0 139.93v-27.777a5.128 5.128 0 0 1 5.128-5.128H52.05a5.128 5.128 0 0 1 5.128 5.128z" transform="translate(0 -67.011)" style="fill:#00efd1"/>
            </g>
            <circle data-name="Ellipse 1088" cx="5.47" cy="5.47" r="5.47" transform="translate(28.717 48.56)" style="fill:#d4e1f4"/>
        </g>
    </g>
</svg>
