<svg width="20" height="21" viewBox="0 0 20 21" fill="none" xmlns="http://www.w3.org/2000/svg">
<path d="M18.2338 2.29167L17.2338 2.625C15.52 3.22046 13.6898 3.40319 11.8921 3.15834C10.0031 2.86518 8.06954 3.12569 6.32544 3.90834C5.40084 4.30204 4.58941 4.92077 3.96501 5.70818C3.34061 6.49559 2.92308 7.42668 2.75044 8.41667C2.57483 9.36872 2.5928 10.3464 2.80326 11.2913C3.01373 12.2363 3.41239 13.1292 3.97544 13.9167C3.92544 14.0917 3.87544 14.2667 3.83378 14.4417C3.49531 15.8809 3.32749 17.3549 3.33378 18.8333H5.00044C5.07964 17.6233 5.24393 16.4203 5.49211 15.2333C6.64831 15.8577 7.9449 16.1761 9.25878 16.1583C10.4842 16.1575 11.697 15.911 12.8254 15.4333C19.1671 12.725 18.3338 3.71667 18.3338 3.34167L18.2338 2.29167ZM12.1754 13.9C10.0004 14.825 7.40044 14.6667 5.94211 13.525C6.18865 12.7009 6.52688 11.907 6.95044 11.1583C7.27995 10.6196 7.66845 10.1193 8.10878 9.66667C8.55886 9.20933 9.06578 8.81163 9.61711 8.48334C10.7563 7.80213 12.0198 7.35454 13.3338 7.16667V6.33334C11.8218 6.28004 10.319 6.5886 8.95044 7.23334C7.55127 7.917 6.36444 8.96843 5.51711 10.275C5.20292 10.7741 4.92444 11.2949 4.68378 11.8333C4.29755 10.8453 4.18806 9.77063 4.36711 8.725C4.48442 7.99295 4.78619 7.30282 5.24399 6.71964C5.70178 6.13647 6.30052 5.67946 6.98378 5.39167C7.97986 4.92518 9.06722 4.68607 10.1671 4.69167C10.6838 4.69167 11.1921 4.74167 11.7254 4.78334C13.3957 4.99884 15.0916 4.89992 16.7254 4.49167C16.6671 6.79167 16.2504 12.1667 12.1754 13.9Z" fill="#191A4E"/>
</svg>
