<svg width="224" height="171" viewBox="0 0 224 171" fill="none" xmlns="http://www.w3.org/2000/svg">
<circle cx="85" cy="85.5" r="85" fill="#191A4E"/>
<path d="M63.524 97.12C62.2427 97.12 61.0337 96.934 59.897 96.562C58.781 96.19 57.7683 95.663 56.859 94.981C55.9497 94.2783 55.1643 93.4517 54.503 92.501C53.8417 91.5503 53.325 90.4963 52.953 89.339C52.6017 88.161 52.426 86.9003 52.426 85.557C52.426 84.2137 52.6017 82.953 52.953 81.775C53.325 80.597 53.8417 79.5223 54.503 78.551C55.185 77.5797 55.9807 76.753 56.89 76.071C57.82 75.3683 58.843 74.831 59.959 74.459C61.0957 74.0663 62.3047 73.87 63.586 73.87C64.9707 73.87 66.2623 74.0973 67.461 74.552C68.6803 75.0067 69.755 75.6577 70.685 76.505C71.615 77.3523 72.3487 78.3547 72.886 79.512L69.29 80.721C68.6907 79.6463 67.895 78.8197 66.903 78.241C65.9317 77.6417 64.826 77.342 63.586 77.342C62.5527 77.342 61.5917 77.5487 60.703 77.962C59.835 78.3753 59.0703 78.954 58.409 79.698C57.7477 80.4213 57.231 81.279 56.859 82.271C56.5077 83.263 56.332 84.3377 56.332 85.495C56.332 86.673 56.5077 87.7683 56.859 88.781C57.231 89.773 57.7477 90.6307 58.409 91.354C59.0703 92.0773 59.8453 92.6457 60.734 93.059C61.6433 93.4517 62.625 93.648 63.679 93.648C64.8983 93.648 65.973 93.4103 66.903 92.935C67.8537 92.439 68.608 91.757 69.166 90.889C69.724 90.021 70.0443 89.0083 70.127 87.851H64.113V84.689H74.002V86.766C74.002 88.2953 73.7437 89.6903 73.227 90.951C72.731 92.2117 72.0077 93.307 71.057 94.237C70.127 95.1463 69.0213 95.8593 67.74 96.376C66.4793 96.872 65.074 97.12 63.524 97.12ZM84.9462 96.965C83.7475 96.965 82.6419 96.7583 81.6292 96.345C80.6372 95.911 79.7692 95.3117 79.0252 94.547C78.2812 93.7823 77.7025 92.8833 77.2892 91.85C76.8965 90.796 76.7002 89.6387 76.7002 88.378C76.7002 87.1587 76.8965 86.0323 77.2892 84.999C77.7025 83.9657 78.2605 83.0667 78.9632 82.302C79.6865 81.5167 80.5339 80.907 81.5052 80.473C82.4765 80.039 83.5305 79.822 84.6672 79.822C85.8039 79.822 86.8372 80.0287 87.7672 80.442C88.7179 80.8347 89.5342 81.403 90.2162 82.147C90.9189 82.891 91.4562 83.7797 91.8282 84.813C92.2002 85.8257 92.3862 86.952 92.3862 88.192V89.246H80.3892C80.4925 90.1967 80.7405 91.0233 81.1332 91.726C81.5465 92.408 82.0735 92.935 82.7142 93.307C83.3549 93.679 84.0989 93.865 84.9462 93.865C86.6409 93.865 87.9635 93.1107 88.9142 91.602L92.0452 92.811C91.6732 93.6583 91.1255 94.4023 90.4022 95.043C89.6995 95.663 88.8729 96.1383 87.9222 96.469C86.9922 96.7997 86.0002 96.965 84.9462 96.965ZM84.6672 82.705C83.9439 82.705 83.2929 82.8703 82.7142 83.201C82.1562 83.5317 81.6809 83.9967 81.2882 84.596C80.8955 85.1953 80.6269 85.898 80.4822 86.704H88.6662C88.5422 85.898 88.3045 85.1953 87.9532 84.596C87.6019 83.9967 87.1369 83.5317 86.5582 83.201C86.0002 82.8703 85.3699 82.705 84.6672 82.705ZM102.001 96.965C100.368 96.965 99.0868 96.5 98.1568 95.57C97.2268 94.6193 96.7618 93.2657 96.7618 91.509V83.17H93.9098V80.287H96.7618V74.8H100.327V80.287H105.039V83.17H100.327V91.137C100.327 92.005 100.502 92.6767 100.854 93.152C101.226 93.6067 101.763 93.834 102.466 93.834C102.838 93.834 103.241 93.7823 103.675 93.679C104.109 93.555 104.512 93.3897 104.884 93.183L105.69 95.88C105.214 96.2107 104.656 96.469 104.016 96.655C103.396 96.8617 102.724 96.965 102.001 96.965ZM121.831 96.965C120.591 96.965 119.433 96.748 118.359 96.314C117.305 95.8593 116.406 95.229 115.662 94.423C114.918 93.617 114.391 92.656 114.081 91.54L117.646 90.672C117.976 91.6227 118.503 92.3563 119.227 92.873C119.95 93.3897 120.828 93.648 121.862 93.648C122.606 93.648 123.267 93.5033 123.846 93.214C124.424 92.9247 124.879 92.532 125.21 92.036C125.561 91.54 125.737 90.9717 125.737 90.331C125.737 89.5457 125.447 88.8947 124.869 88.378C124.311 87.8407 123.422 87.4377 122.203 87.169L121.056 86.921C118.865 86.4457 117.243 85.6603 116.189 84.565C115.155 83.4697 114.639 82.1367 114.639 80.566C114.639 79.6153 114.825 78.7473 115.197 77.962C115.569 77.156 116.085 76.4637 116.747 75.885C117.408 75.2857 118.183 74.831 119.072 74.521C119.96 74.1903 120.921 74.025 121.955 74.025C123.133 74.025 124.218 74.242 125.21 74.676C126.202 75.11 127.049 75.73 127.752 76.536C128.454 77.3213 128.95 78.2617 129.24 79.357L125.706 80.225C125.375 79.295 124.879 78.582 124.218 78.086C123.556 77.59 122.771 77.342 121.862 77.342C121.2 77.342 120.611 77.4763 120.095 77.745C119.599 77.993 119.196 78.3443 118.886 78.799C118.596 79.233 118.452 79.729 118.452 80.287C118.452 81.093 118.751 81.7337 119.351 82.209C119.95 82.6843 120.87 83.0667 122.11 83.356L123.257 83.604C127.473 84.5547 129.581 86.6937 129.581 90.021C129.581 91.0337 129.384 91.974 128.992 92.842C128.62 93.6893 128.082 94.423 127.38 95.043C126.677 95.6423 125.85 96.1177 124.9 96.469C123.97 96.7997 122.947 96.965 121.831 96.965ZM139.177 96.965C137.544 96.965 136.263 96.5 135.333 95.57C134.403 94.6193 133.938 93.2657 133.938 91.509V83.17H131.086V80.287H133.938V74.8H137.503V80.287H142.215V83.17H137.503V91.137C137.503 92.005 137.678 92.6767 138.03 93.152C138.402 93.6067 138.939 93.834 139.642 93.834C140.014 93.834 140.417 93.7823 140.851 93.679C141.285 93.555 141.688 93.3897 142.06 93.183L142.866 95.88C142.39 96.2107 141.832 96.469 141.192 96.655C140.572 96.8617 139.9 96.965 139.177 96.965ZM150.458 96.965C149.632 96.965 148.867 96.841 148.164 96.593C147.482 96.345 146.883 95.9937 146.366 95.539C145.85 95.0843 145.447 94.547 145.157 93.927C144.868 93.307 144.723 92.625 144.723 91.881C144.723 90.8477 144.992 89.9487 145.529 89.184C146.087 88.3987 146.862 87.789 147.854 87.355C148.846 86.921 150.004 86.704 151.326 86.704C152.05 86.704 152.742 86.7763 153.403 86.921C154.065 87.045 154.695 87.231 155.294 87.479V86.456C155.294 85.7327 155.16 85.1023 154.891 84.565C154.623 84.007 154.24 83.573 153.744 83.263C153.248 82.953 152.649 82.798 151.946 82.798C151.202 82.798 150.531 82.9943 149.931 83.387C149.332 83.7797 148.888 84.3273 148.598 85.03L145.312 84.286C145.56 83.3767 146.005 82.5913 146.645 81.93C147.307 81.2687 148.092 80.752 149.001 80.38C149.931 80.008 150.934 79.822 152.008 79.822C153.021 79.822 153.941 79.9873 154.767 80.318C155.615 80.6487 156.338 81.1137 156.937 81.713C157.537 82.3123 158.002 83.0253 158.332 83.852C158.663 84.6787 158.828 85.5983 158.828 86.611V96.5H155.573L155.449 94.361C155.015 95.1463 154.364 95.7767 153.496 96.252C152.628 96.7273 151.616 96.965 150.458 96.965ZM148.319 91.726C148.319 92.1807 148.443 92.594 148.691 92.966C148.939 93.3173 149.28 93.5963 149.714 93.803C150.169 94.0097 150.696 94.113 151.295 94.113C152.06 94.113 152.742 93.9477 153.341 93.617C153.941 93.2863 154.416 92.842 154.767 92.284C155.119 91.7053 155.294 91.0543 155.294 90.331V89.959C154.757 89.7317 154.199 89.556 153.62 89.432C153.062 89.2873 152.484 89.215 151.884 89.215C150.81 89.215 149.942 89.4423 149.28 89.897C148.64 90.3517 148.319 90.9613 148.319 91.726ZM162.663 96.5V80.287H165.918L166.073 82.953C166.487 82.0437 167.055 81.341 167.778 80.845C168.522 80.3283 169.39 80.07 170.382 80.07C170.692 80.07 170.992 80.0907 171.281 80.132C171.571 80.1733 171.829 80.2457 172.056 80.349L171.653 83.821C171.426 83.7383 171.188 83.6867 170.94 83.666C170.692 83.6247 170.444 83.604 170.196 83.604C168.956 83.604 167.985 84.0173 167.282 84.844C166.58 85.6707 166.228 86.8177 166.228 88.285V96.5H162.663ZM181.862 96.965C180.229 96.965 178.948 96.5 178.018 95.57C177.088 94.6193 176.623 93.2657 176.623 91.509V83.17H173.771V80.287H176.623V74.8H180.188V80.287H184.9V83.17H180.188V91.137C180.188 92.005 180.364 92.6767 180.715 93.152C181.087 93.6067 181.624 93.834 182.327 93.834C182.699 93.834 183.102 93.7823 183.536 93.679C183.97 93.555 184.373 93.3897 184.745 93.183L185.551 95.88C185.076 96.2107 184.518 96.469 183.877 96.655C183.257 96.8617 182.585 96.965 181.862 96.965ZM195.596 96.965C194.397 96.965 193.291 96.7583 192.279 96.345C191.287 95.911 190.419 95.3117 189.675 94.547C188.931 93.7823 188.352 92.8833 187.939 91.85C187.546 90.796 187.35 89.6387 187.35 88.378C187.35 87.1587 187.546 86.0323 187.939 84.999C188.352 83.9657 188.91 83.0667 189.613 82.302C190.336 81.5167 191.183 80.907 192.155 80.473C193.126 80.039 194.18 79.822 195.317 79.822C196.453 79.822 197.487 80.0287 198.417 80.442C199.367 80.8347 200.184 81.403 200.866 82.147C201.568 82.891 202.106 83.7797 202.478 84.813C202.85 85.8257 203.036 86.952 203.036 88.192V89.246H191.039C191.142 90.1967 191.39 91.0233 191.783 91.726C192.196 92.408 192.723 92.935 193.364 93.307C194.004 93.679 194.748 93.865 195.596 93.865C197.29 93.865 198.613 93.1107 199.564 91.602L202.695 92.811C202.323 93.6583 201.775 94.4023 201.052 95.043C200.349 95.663 199.522 96.1383 198.572 96.469C197.642 96.7997 196.65 96.965 195.596 96.965ZM195.317 82.705C194.593 82.705 193.942 82.8703 193.364 83.201C192.806 83.5317 192.33 83.9967 191.938 84.596C191.545 85.1953 191.276 85.898 191.132 86.704H199.316C199.192 85.898 198.954 85.1953 198.603 84.596C198.251 83.9967 197.786 83.5317 197.208 83.201C196.65 82.8703 196.019 82.705 195.317 82.705ZM213.078 96.965C212.003 96.965 211.001 96.748 210.071 96.314C209.161 95.88 208.366 95.2807 207.684 94.516C207.002 93.7513 206.464 92.8523 206.072 91.819C205.7 90.7857 205.514 89.6697 205.514 88.471C205.514 87.2517 205.71 86.115 206.103 85.061C206.495 84.007 207.043 83.0873 207.746 82.302C208.448 81.5167 209.265 80.907 210.195 80.473C211.145 80.039 212.168 79.822 213.264 79.822C214.338 79.822 215.32 80.0493 216.209 80.504C217.097 80.9587 217.831 81.5993 218.41 82.426V73.436H221.975V96.5H218.72L218.565 93.896C217.986 94.8467 217.221 95.601 216.271 96.159C215.32 96.6963 214.256 96.965 213.078 96.965ZM213.822 93.741C214.71 93.741 215.506 93.5137 216.209 93.059C216.911 92.5837 217.459 91.943 217.852 91.137C218.265 90.331 218.472 89.4217 218.472 88.409C218.472 87.3757 218.265 86.456 217.852 85.65C217.459 84.844 216.911 84.2137 216.209 83.759C215.506 83.2837 214.71 83.046 213.822 83.046C212.933 83.046 212.137 83.2837 211.435 83.759C210.732 84.2137 210.174 84.844 209.761 85.65C209.368 86.456 209.172 87.3757 209.172 88.409C209.172 89.4217 209.368 90.331 209.761 91.137C210.174 91.943 210.732 92.5837 211.435 93.059C212.137 93.5137 212.933 93.741 213.822 93.741Z" fill="white"/>
<path d="M45.5194 65.3642C45.5194 65.3642 45.4206 65.4547 45.3533 65.5023C44.948 65.7898 44.4981 65.7594 44.3396 65.4198C41.9312 60.2763 38.4916 55.987 34.1424 52.6293C33.8719 52.4207 33.8952 51.9217 34.2327 51.5487C34.552 51.1781 35.0509 51.0301 35.3424 51.2549C39.8157 54.7088 43.3285 59.1214 45.8099 64.3876C45.9427 64.6741 45.8128 65.0738 45.5221 65.3824L45.5194 65.3642Z" fill="white"/>
<path d="M51.0564 58.2553C51.0564 58.2553 50.971 58.3057 50.9343 58.3109C50.4772 58.4914 50.0146 58.3674 49.9077 58.0017L46.9412 47.6762C46.8343 47.3101 47.1252 46.8678 47.5823 46.6874C48.0398 46.5069 48.5024 46.6308 48.6093 46.997L51.5758 57.3225C51.6775 57.6509 51.4354 58.048 51.0564 58.2553Z" fill="white"/>
<path d="M39.0627 70.0918C39.0627 70.0918 39.0364 70.1715 39.0053 70.2144C38.7925 70.6835 38.3949 70.8933 38.0933 70.7271L29.6673 65.4222C29.3814 65.2346 29.3082 64.7115 29.5025 64.2447C29.7154 63.7756 30.1129 63.5655 30.4145 63.7316L38.8615 69.0532C39.1268 69.2245 39.2082 69.6703 39.0627 70.0918Z" fill="white"/>
</svg>
