<svg width="21" height="21" viewBox="0 0 21 21" fill="none" xmlns="http://www.w3.org/2000/svg">
<path d="M17.4992 12.6875V5.6875C17.4992 4.03725 17.4992 3.213 16.9864 2.70025C16.4737 2.1875 15.6494 2.1875 13.9992 2.1875H6.99916C5.34891 2.1875 4.52466 2.1875 4.01191 2.70025C3.49916 3.213 3.49916 4.03725 3.49916 5.6875V12.6875M3.05991 13.5756L3.51666 12.6875H17.4572L17.9384 13.5756C19.201 15.9049 19.516 17.0695 19.0357 17.941C18.5553 18.8125 17.2839 18.8125 14.7394 18.8125H6.25891C3.71353 18.8125 2.44128 18.8125 1.96178 17.941C1.48141 17.0695 1.79641 15.9049 3.05991 13.5756Z" stroke="#191A4E" stroke-width="1.5" stroke-linecap="round" stroke-linejoin="round"/>
<path d="M13.5625 6.125L14.3675 6.81887C14.7061 7.11025 14.875 7.25637 14.875 7.4375C14.875 7.61862 14.7061 7.76475 14.3675 8.05612L13.5625 8.75M7.4375 6.125L6.6325 6.81887C6.29387 7.11025 6.125 7.25637 6.125 7.4375C6.125 7.61862 6.29387 7.76475 6.6325 8.05612L7.4375 8.75M11.375 5.25L9.625 9.625" stroke="#191A4E" stroke-width="1.5" stroke-linecap="round" stroke-linejoin="round"/>
</svg>
