<svg width="121" height="120" viewBox="0 0 121 120" fill="none" xmlns="http://www.w3.org/2000/svg">
<rect x="0.31311" width="120" height="120" rx="12" fill="white"/>
<g clip-path="url(#clip0_753_4901)">
<path d="M45.3953 54.2895C45.3953 55.1415 45.4874 55.8322 45.6486 56.3388C45.8328 56.8454 46.0631 57.398 46.3855 57.9967C46.5006 58.1809 46.5467 58.3651 46.5467 58.5263C46.5467 58.7566 46.4085 58.9868 46.1092 59.2171L44.6585 60.1842C44.4513 60.3224 44.244 60.3915 44.0598 60.3915C43.8296 60.3915 43.5993 60.2763 43.369 60.0691C43.0467 59.7237 42.7703 59.3553 42.5401 58.9868C42.3098 58.5954 42.0796 58.1579 41.8263 57.6283C40.0302 59.7467 37.7736 60.8059 35.0565 60.8059C33.1223 60.8059 31.5796 60.2533 30.4513 59.148C29.323 58.0428 28.7473 56.5691 28.7473 54.727C28.7473 52.7697 29.4381 51.1809 30.8427 49.9836C32.2473 48.7862 34.1124 48.1875 36.4842 48.1875C37.2671 48.1875 38.073 48.2566 38.9249 48.3717C39.7769 48.4868 40.6519 48.6711 41.573 48.8783V47.1974C41.573 45.4474 41.2046 44.227 40.4907 43.5132C39.7539 42.7993 38.5105 42.454 36.7374 42.454C35.9315 42.454 35.1026 42.5461 34.2506 42.7533C33.3986 42.9605 32.5697 43.2138 31.7638 43.5362C31.3953 43.6974 31.119 43.7895 30.9578 43.8355C30.7967 43.8816 30.6815 43.9046 30.5894 43.9046C30.2671 43.9046 30.1059 43.6743 30.1059 43.1908V42.0625C30.1059 41.6941 30.1519 41.4178 30.2671 41.2566C30.3822 41.0954 30.5894 40.9342 30.9118 40.773C31.7177 40.3586 32.6848 40.0132 33.8131 39.7368C34.9414 39.4375 36.1388 39.2993 37.4052 39.2993C40.1453 39.2993 42.1486 39.9211 43.4381 41.1645C44.7046 42.4079 45.3493 44.2961 45.3493 46.829V54.2895H45.3953ZM36.0467 57.7895C36.8065 57.7895 37.5894 57.6513 38.4184 57.375C39.2473 57.0987 39.9842 56.5921 40.6059 55.9013C40.9743 55.4638 41.2506 54.9803 41.3888 54.4276C41.5269 53.875 41.619 53.2072 41.619 52.4243V51.4572C40.9513 51.2961 40.2374 51.1579 39.5006 51.0658C38.7638 50.9737 38.0499 50.9276 37.3361 50.9276C35.7934 50.9276 34.6651 51.227 33.9052 51.8487C33.1453 52.4704 32.7769 53.3454 32.7769 54.4967C32.7769 55.579 33.0532 56.3849 33.6289 56.9375C34.1815 57.5132 34.9874 57.7895 36.0467 57.7895ZM54.5368 60.2763C54.1223 60.2763 53.846 60.2072 53.6618 60.0461C53.4776 59.9079 53.3164 59.5855 53.1782 59.148L47.7671 41.3487C47.6289 40.8882 47.5598 40.5888 47.5598 40.4276C47.5598 40.0592 47.744 39.852 48.1124 39.852H50.369C50.8065 39.852 51.1059 39.9211 51.2671 40.0822C51.4513 40.2204 51.5894 40.5428 51.7276 40.9803L55.596 56.2237L59.1881 40.9803C59.3032 40.5197 59.4414 40.2204 59.6256 40.0822C59.8098 39.9441 60.1322 39.852 60.5467 39.852H62.3888C62.8263 39.852 63.1256 39.9211 63.3098 40.0822C63.494 40.2204 63.6552 40.5428 63.7473 40.9803L67.3855 56.4079L71.369 40.9803C71.5072 40.5197 71.6684 40.2204 71.8295 40.0822C72.0138 39.9441 72.3131 39.852 72.7276 39.852H74.869C75.2374 39.852 75.4447 40.0362 75.4447 40.4276C75.4447 40.5428 75.4217 40.6579 75.3986 40.7961C75.3756 40.9342 75.3296 41.1184 75.2374 41.3717L69.6881 59.1711C69.5499 59.6316 69.3888 59.9309 69.2046 60.0691C69.0203 60.2072 68.721 60.2993 68.3296 60.2993H66.3493C65.9118 60.2993 65.6124 60.2303 65.4282 60.0691C65.244 59.9079 65.0828 59.6086 64.9907 59.148L61.4217 44.2961L57.8756 59.125C57.7605 59.5855 57.6223 59.8849 57.4381 60.0461C57.2539 60.2072 56.9315 60.2763 56.5171 60.2763H54.5368ZM84.1256 60.898C82.9282 60.898 81.7309 60.7599 80.5795 60.4836C79.4282 60.2072 78.5302 59.9079 77.9315 59.5625C77.5631 59.3553 77.3098 59.125 77.2177 58.9178C77.1256 58.7105 77.0796 58.4803 77.0796 58.273V57.0987C77.0796 56.6151 77.2638 56.3849 77.6092 56.3849C77.7473 56.3849 77.8855 56.4079 78.0236 56.454C78.1618 56.5 78.369 56.5921 78.5993 56.6842C79.3822 57.0296 80.2342 57.3059 81.1322 57.4901C82.0532 57.6743 82.9513 57.7665 83.8723 57.7665C85.323 57.7665 86.4513 57.5132 87.2342 57.0066C88.0171 56.5 88.4315 55.7632 88.4315 54.8191C88.4315 54.1743 88.2243 53.6447 87.8098 53.2072C87.3953 52.7697 86.6124 52.3783 85.4842 52.0099L82.1453 50.9737C80.4644 50.4441 79.221 49.6612 78.4611 48.625C77.7013 47.6118 77.3098 46.4836 77.3098 45.2862C77.3098 44.3191 77.517 43.4671 77.9315 42.7303C78.346 41.9934 78.8986 41.3487 79.5894 40.8421C80.2802 40.3125 81.0631 39.9211 81.9842 39.6447C82.9052 39.3684 83.8723 39.2533 84.8855 39.2533C85.392 39.2533 85.9217 39.2763 86.4282 39.3454C86.9578 39.4145 87.4414 39.5066 87.9249 39.5987C88.3855 39.7138 88.823 39.829 89.2374 39.9671C89.6519 40.1053 89.9743 40.2434 90.2046 40.3816C90.5269 40.5658 90.7572 40.75 90.8953 40.9572C91.0335 41.1415 91.1026 41.3947 91.1026 41.7171V42.7993C91.1026 43.2829 90.9184 43.5362 90.573 43.5362C90.3888 43.5362 90.0894 43.4441 89.698 43.2599C88.3855 42.6612 86.9118 42.3618 85.2769 42.3618C83.9644 42.3618 82.9282 42.5691 82.2144 43.0066C81.5006 43.4441 81.1322 44.1118 81.1322 45.0559C81.1322 45.7007 81.3624 46.2533 81.823 46.6908C82.2835 47.1283 83.1355 47.5658 84.3559 47.9572L87.6256 48.9934C89.2835 49.523 90.4809 50.2599 91.1947 51.204C91.9085 52.148 92.2539 53.2303 92.2539 54.4276C92.2539 55.4178 92.0467 56.3158 91.6552 57.0987C91.2407 57.8816 90.6881 58.5724 89.9743 59.125C89.2605 59.7007 88.4085 60.1151 87.4184 60.4145C86.3822 60.7368 85.2999 60.898 84.1256 60.898Z" fill="#252F3E"/>
<path fill-rule="evenodd" clip-rule="evenodd" d="M88.4775 72.0888C80.9019 77.6842 69.8953 80.6546 60.4315 80.6546C47.1683 80.6546 35.2177 75.75 26.1914 67.5987C25.4775 66.954 26.1223 66.079 26.9743 66.5856C36.7374 72.25 48.7802 75.681 61.2374 75.681C69.642 75.681 78.8756 73.931 87.3723 70.3388C88.6387 69.7632 89.721 71.1678 88.4775 72.0888Z" fill="#FF9900"/>
<path fill-rule="evenodd" clip-rule="evenodd" d="M91.6321 68.4967C90.665 67.2533 85.2308 67.898 82.767 68.1974C82.0302 68.2895 81.915 67.6448 82.5828 67.1612C86.9117 64.1217 94.0269 64.9967 94.8558 66.0099C95.6848 67.0461 94.6256 74.1612 90.5729 77.5691C89.9512 78.0987 89.3525 77.8224 89.6288 77.1316C90.5499 74.852 92.5992 69.7171 91.6321 68.4967Z" fill="#FF9900"/>
</g>
<defs>
<clipPath id="clip0_753_4901">
<rect width="70" height="41.9079" fill="white" transform="translate(25.5006 39)"/>
</clipPath>
</defs>
</svg>
