<svg width="21" height="21" viewBox="0 0 21 21" fill="none" xmlns="http://www.w3.org/2000/svg">
<path d="M14.1327 12.1667C14.1993 11.6167 14.2493 11.0667 14.2493 10.5C14.2493 9.93334 14.1993 9.38334 14.1327 8.83334H16.9493C17.0827 9.36667 17.166 9.925 17.166 10.5C17.166 11.075 17.0827 11.6333 16.9493 12.1667M12.6577 16.8C13.1577 15.875 13.541 14.875 13.8077 13.8333H16.266C15.4587 15.2236 14.1778 16.2767 12.6577 16.8ZM12.4493 12.1667H8.54935C8.46601 11.6167 8.41601 11.0667 8.41601 10.5C8.41601 9.93334 8.46601 9.375 8.54935 8.83334H12.4493C12.5243 9.375 12.5827 9.93334 12.5827 10.5C12.5827 11.0667 12.5243 11.6167 12.4493 12.1667ZM10.4993 17.1333C9.80768 16.1333 9.24935 15.025 8.90768 13.8333H12.091C11.7493 15.025 11.191 16.1333 10.4993 17.1333ZM7.16601 7.16667H4.73268C5.53155 5.77253 6.81156 4.71771 8.33268 4.2C7.83268 5.125 7.45768 6.125 7.16601 7.16667ZM4.73268 13.8333H7.16601C7.45768 14.875 7.83268 15.875 8.33268 16.8C6.81457 16.2769 5.53626 15.2235 4.73268 13.8333ZM4.04935 12.1667C3.91602 11.6333 3.83268 11.075 3.83268 10.5C3.83268 9.925 3.91602 9.36667 4.04935 8.83334H6.86601C6.79935 9.38334 6.74935 9.93334 6.74935 10.5C6.74935 11.0667 6.79935 11.6167 6.86601 12.1667M10.4993 3.85834C11.191 4.85834 11.7493 5.975 12.091 7.16667H8.90768C9.24935 5.975 9.80768 4.85834 10.4993 3.85834ZM16.266 7.16667H13.8077C13.5465 6.13468 13.1603 5.13843 12.6577 4.2C14.191 4.725 15.466 5.78334 16.266 7.16667ZM10.4993 2.16667C5.89101 2.16667 2.16602 5.91667 2.16602 10.5C2.16602 12.7101 3.04399 14.8298 4.60679 16.3926C5.38061 17.1664 6.29927 17.7802 7.31032 18.199C8.32137 18.6178 9.405 18.8333 10.4993 18.8333C12.7095 18.8333 14.8291 17.9554 16.3919 16.3926C17.9547 14.8298 18.8327 12.7101 18.8327 10.5C18.8327 9.40565 18.6171 8.32202 18.1983 7.31098C17.7796 6.29993 17.1657 5.38127 16.3919 4.60745C15.6181 3.83363 14.6994 3.2198 13.6884 2.80101C12.6773 2.38222 11.5937 2.16667 10.4993 2.16667Z" fill="#191A4E"/>
</svg>
