<svg width="20" height="21" viewBox="0 0 20 21" fill="none" xmlns="http://www.w3.org/2000/svg">
<path d="M6.66667 8.83333L10 10.5M6.66667 8.83333V12.1667L10 13.8333M6.66667 8.83333L10 7.16667L13.3333 8.83333M10 10.5L13.3333 8.83333M10 10.5V13.8333M10 13.8333L13.3333 12.1667V8.83333M7.83333 18C5.96667 18 5.03333 18 4.32 17.6367C3.69282 17.3171 3.18291 16.8072 2.86333 16.18C2.5 15.4667 2.5 14.5333 2.5 12.6667M17.5 12.6667C17.5 14.5333 17.5 15.4667 17.1367 16.18C16.8171 16.8072 16.3072 17.3171 15.68 17.6367C14.9667 18 14.0333 18 12.1667 18M12.1667 3C14.0333 3 14.9667 3 15.68 3.36333C16.3072 3.68291 16.8171 4.19282 17.1367 4.82C17.5 5.53333 17.5 6.46667 17.5 8.33333M7.83333 3C5.96667 3 5.03333 3 4.32 3.36333C3.69282 3.68291 3.18291 4.19282 2.86333 4.82C2.5 5.53333 2.5 6.46667 2.5 8.33333" stroke="#191A4E" stroke-width="1.5" stroke-linecap="round" stroke-linejoin="round"/>
</svg>
