<svg width="20" height="21" viewBox="0 0 20 21" fill="none" xmlns="http://www.w3.org/2000/svg">
<path d="M7.22323 7.72249C6.48648 7.72249 5.77991 7.42982 5.25895 6.90886C4.73799 6.3879 4.44531 5.68132 4.44531 4.94457C4.44531 4.20782 4.73799 3.50125 5.25895 2.98029C5.77991 2.45933 6.48648 2.16666 7.22323 2.16666H10.0007V7.72249M7.22323 7.72249H10.0007M7.22323 7.72249C6.48659 7.72249 5.78012 8.01512 5.25924 8.536C4.73836 9.05688 4.44573 9.76335 4.44573 10.5C4.44573 11.2366 4.73836 11.9431 5.25924 12.464C5.78012 12.9849 6.48659 13.2775 7.22323 13.2775H10.0007V7.72249" stroke="#191A4E" stroke-width="1.5"/>
<path d="M15.5561 10.5C15.5561 11.2367 15.2635 11.9433 14.7425 12.4643C14.2216 12.9852 13.515 13.2779 12.7782 13.2779C12.0415 13.2779 11.3349 12.9852 10.8139 12.4643C10.293 11.9433 10.0003 11.2367 10.0003 10.5C10.0003 9.76324 10.293 9.05667 10.8139 8.53571C11.3349 8.01475 12.0415 7.72208 12.7782 7.72208C13.515 7.72208 14.2216 8.01475 14.7425 8.53571C15.2635 9.05667 15.5561 9.76324 15.5561 10.5ZM7.22281 13.2783H10.0003V16.0558C10.0001 16.6051 9.83711 17.142 9.53182 17.5987C9.22652 18.0553 8.79268 18.4112 8.28514 18.6213C7.7776 18.8314 7.21917 18.8863 6.68044 18.779C6.14171 18.6718 5.64689 18.4072 5.25853 18.0187C4.87017 17.6302 4.60572 17.1353 4.49862 16.5965C4.39152 16.0578 4.44657 15.4994 4.65682 14.9919C4.86706 14.4844 5.22306 14.0507 5.6798 13.7455C6.13654 13.4404 6.67351 13.2783 7.22281 13.2783Z" stroke="#191A4E" stroke-width="1.5"/>
<path d="M10 2.16666H12.7775C13.5142 2.16666 14.2208 2.45933 14.7418 2.98029C15.2627 3.50125 15.5554 4.20782 15.5554 4.94457C15.5554 5.68132 15.2627 6.3879 14.7418 6.90886C14.2208 7.42982 13.5142 7.72249 12.7775 7.72249H10V2.16666Z" stroke="#191A4E" stroke-width="1.5"/>
</svg>
