<svg width="121" height="120" viewBox="0 0 121 120" fill="none" xmlns="http://www.w3.org/2000/svg">
<rect x="0.31311" width="120" height="120" rx="12" fill="white"/>
<path d="M54.7784 23.3504C58.3112 21.2812 62.6861 21.2812 66.2189 23.3504C68.1083 24.4571 70.2782 24.9919 72.4655 24.8901C76.5553 24.6997 80.4291 26.7328 82.5956 30.2067C83.7543 32.0647 85.4271 33.5467 87.4112 34.473C91.121 36.205 93.6062 39.8054 93.9102 43.8883C94.0727 46.072 94.8652 48.1616 96.1915 49.9038C98.6715 53.1615 99.1988 57.5045 97.5705 61.2609C96.6997 63.27 96.4303 65.4885 96.7951 67.6476C97.477 71.6846 95.9257 75.7752 92.7382 78.3447C91.0334 79.7189 89.7639 81.5581 89.0835 83.6394C87.8113 87.5309 84.5366 90.432 80.5202 91.2258C78.372 91.6504 76.3932 92.689 74.8235 94.2157C71.8885 97.0702 67.6408 98.1172 63.7154 96.9536C61.6161 96.3312 59.3812 96.3312 57.2819 96.9536C53.3565 98.1172 49.1088 97.0702 46.1738 94.2157C44.6041 92.689 42.6253 91.6504 40.4772 91.2258C36.4607 90.432 33.186 87.5309 31.9138 83.6394C31.2334 81.5581 29.9639 79.7189 28.2591 78.3447C25.0716 75.7752 23.5203 71.6846 24.2023 67.6476C24.567 65.4885 24.2976 63.27 23.4268 61.2609C21.7985 57.5045 22.3258 53.1615 24.8058 49.9038C26.1321 48.1616 26.9246 46.072 27.0872 43.8883C27.3911 39.8054 29.8763 36.205 33.5861 34.473C35.5702 33.5467 37.243 32.0647 38.4017 30.2067C40.5683 26.7328 44.442 24.6997 48.5318 24.8901C50.7191 24.9919 52.889 24.4571 54.7784 23.3504Z" fill="white"/>
<path d="M88.827 63.1718C89.205 63.1966 89.4914 63.5231 89.4667 63.9011C89.4419 64.2791 89.1154 64.5655 88.7374 64.5408L84.5363 64.2658C84.5239 64.265 84.5116 64.2639 84.4994 64.2624C84.1509 67.9863 82.0851 71.4688 78.7102 73.5063L68.0349 51.864C71.8005 50.389 75.9344 50.9327 79.1371 53.054L81.4003 49.6661C81.6107 49.3511 82.0367 49.2664 82.3517 49.4768C82.6667 49.6872 82.7514 50.1132 82.541 50.4282L80.2374 53.8765C81.4818 54.9223 82.5347 56.2372 83.2999 57.7884C84.1117 59.4342 84.5153 61.1751 84.5496 62.8961C84.5747 62.895 84.6002 62.8952 84.6259 62.8969L88.827 63.1718Z" fill="#3DDC84"/>
<path d="M74.128 56.1944C74.336 56.6161 74.8465 56.7894 75.2683 56.5813C75.69 56.3733 75.8633 55.8628 75.6552 55.441C75.4472 55.0193 74.9367 54.846 74.5149 55.054C74.0932 55.2621 73.9199 55.7726 74.128 56.1944Z" fill="white"/>
<path d="M79.0038 66.0793C79.2118 66.501 79.7224 66.6743 80.1441 66.4662C80.5659 66.2582 80.7391 65.7477 80.5311 65.3259C80.3231 64.9042 79.8125 64.7309 79.3908 64.9389C78.969 65.147 78.7958 65.6575 79.0038 66.0793Z" fill="white"/>
<rect x="58.2744" y="31.0338" width="4.24403" height="8.48806" rx="2.12202" fill="#4285F4"/>
<path d="M60.4514 49.3044L46.1788 78.7789C41.1921 83.2351 40.3433 82.8107 40.6616 76.3386L55.5612 45.7702L60.3825 48.1217L65.3123 45.7173L80.2068 76.0376C80.6482 82.7107 79.7912 83.1183 74.887 78.8828L60.4514 49.3044Z" fill="#4285F4"/>
<path d="M42.4758 53.869C42.1198 53.3538 41.4051 53.2181 40.9059 53.5963L37.3596 56.2828C36.9168 56.6183 36.806 57.2399 37.1236 57.6958C42.3375 65.1808 51.0071 70.0791 60.8207 70.0791C63.9562 70.0791 66.9749 69.5791 69.8014 68.6544C70.4693 68.4359 70.7124 67.62 70.3867 66.9974C69.6348 65.5601 69.0746 63.7856 68.5862 62.2386C68.5665 62.1761 68.4985 62.1428 68.4369 62.1652C66.0606 63.0295 63.4957 63.5009 60.8207 63.5009C53.2129 63.5009 46.4957 59.688 42.4758 53.869Z" fill="#4285F4"/>
<path fill-rule="evenodd" clip-rule="evenodd" d="M60.5003 49.7078C63.9576 49.7078 66.7603 46.9051 66.7603 43.4479C66.7603 39.9906 63.9576 37.1879 60.5003 37.1879C57.043 37.1879 54.2404 39.9906 54.2404 43.4479C54.2404 46.9051 57.043 49.7078 60.5003 49.7078ZM60.5003 46.9492C62.434 46.9492 64.0016 45.3816 64.0016 43.4479C64.0016 41.5141 62.434 39.9465 60.5003 39.9465C58.5666 39.9465 56.999 41.5141 56.999 43.4479C56.999 45.3816 58.5666 46.9492 60.5003 46.9492Z" fill="black"/>
</svg>
