<svg width="20" height="21" viewBox="0 0 20 21" fill="none" xmlns="http://www.w3.org/2000/svg">
<path d="M9.58333 18H6.66667C6.22464 18 5.80072 17.8244 5.48816 17.5118C5.17559 17.1993 5 16.7754 5 16.3333V4.66667C5 4.22464 5.17559 3.80072 5.48816 3.48816C5.80072 3.17559 6.22464 3 6.66667 3H13.3333C13.7754 3 14.1993 3.17559 14.5118 3.48816C14.8244 3.80072 15 4.22464 15 4.66667V11.3333M16.6667 18L18.3333 16.3333L16.6667 14.6667M14.1667 14.6667L12.5 16.3333L14.1667 18M9.16667 3.83333H10.8333M10 14.6667V14.675" stroke="#191A4E" stroke-width="1.5" stroke-linecap="round" stroke-linejoin="round"/>
</svg>
