<svg width="146" height="46" viewBox="0 0 146 46" fill="none" xmlns="http://www.w3.org/2000/svg">
<g clip-path="url(#clip0_753_7256)">
<path d="M38.133 5.93259C35.49 7.17359 32.8 8.63258 30.077 10.2506C21.9403 15.0671 14.559 21.0584 8.172 28.0306C8.09391 27.5062 8.05514 26.9767 8.056 26.4466V0.486572H0V26.4466C0 26.7336 0.00799609 27.0186 0.0209961 27.3016C0.0269961 27.4276 0.0369829 27.5536 0.0449829 27.6796C0.0519829 27.7726 0.0549883 27.8666 0.0629883 27.9596C0.0629883 28.0256 0.0749866 28.0926 0.0799866 28.1596L0.0969849 28.3596V28.3966C0.1189 28.6111 0.144907 28.8251 0.174988 29.0386C0.174988 29.0686 0.182981 29.0986 0.186981 29.1276L0.203003 29.2456C0.203003 29.2626 0.202991 29.2786 0.209991 29.2956C0.228991 29.4216 0.248003 29.5456 0.272003 29.6686C0.296003 29.7916 0.313982 29.9116 0.337982 30.0326C0.337982 30.0576 0.345983 30.0836 0.350983 30.1086V30.1196L0.423981 30.4686C0.450981 30.5946 0.481993 30.7196 0.511993 30.8446L0.556 31.0336C0.612 31.2616 0.672007 31.4876 0.738007 31.7116C0.738007 31.7286 0.747984 31.7446 0.751984 31.7616L0.796997 31.9136C0.812997 31.9656 0.824996 32.0136 0.839996 32.0606C0.847996 32.0876 0.856004 32.1166 0.867004 32.1436L0.96698 32.4606C0.98898 32.5286 1.01299 32.5976 1.03699 32.6606L1.05798 32.7216C1.10198 32.8526 1.15099 32.9816 1.19699 33.1086C1.24299 33.2356 1.297 33.3856 1.358 33.5226C1.83351 34.7138 2.42997 35.8531 3.138 36.9226C4.82462 39.4807 7.10028 41.5969 9.77399 43.0936L9.793 42.9776C10.2382 40.2922 11.2489 37.732 12.758 35.4666C12.758 35.4666 16.013 30.1666 24.784 22.6516C26.3627 21.2982 28.1253 19.8792 30.072 18.3946C32.6428 16.3545 35.3329 14.4695 38.128 12.7496C53.297 3.79357 59.005 2.91556 69.907 1.04956C59.0661 -0.454583 48.022 1.2427 38.133 5.93259Z" fill="#1B74E4"/>
<path d="M48.582 0.501587L36.597 0.486572H28.541V8.06058C31.5374 6.07047 34.7657 4.45384 38.1541 3.24658C41.5611 2.08739 45.0458 1.17011 48.582 0.501587Z" fill="#FF7F15"/>
<path d="M28.5411 22.4726V26.4476C28.5374 29.3665 27.3762 32.1648 25.3122 34.2288C23.2483 36.2927 20.45 37.4539 17.5311 37.4576C17.3944 37.4576 17.2574 37.4549 17.1201 37.4496C17.0994 37.4508 17.0787 37.4508 17.0581 37.4496C16.9336 37.4451 16.8093 37.4381 16.6851 37.4286L16.6181 37.4236C16.5031 37.4126 16.3871 37.4026 16.2741 37.3886C16.0854 37.3674 15.8974 37.3414 15.7101 37.3106C15.5947 37.2919 15.4794 37.2706 15.3641 37.2466C15.2338 37.2208 15.1041 37.1921 14.9751 37.1606L14.9101 37.1446C14.7841 37.1138 14.6587 37.0805 14.5341 37.0446C14.5298 37.0458 14.5253 37.0458 14.5211 37.0446C14.3906 37.0071 14.2608 36.9668 14.1321 36.9236L14.0651 37.0236C14.0563 37.033 14.0492 37.0438 14.0441 37.0556C14.0358 37.0656 14.0285 37.0763 14.0221 37.0876L13.9901 37.1336C13.9871 37.1417 13.9827 37.1491 13.9771 37.1556L13.9481 37.2036L13.9161 37.2546C12.6569 39.1387 11.8154 41.2704 11.4481 43.5066L11.2891 44.4596C11.4101 44.5026 11.5281 44.5426 11.6491 44.5806C11.6507 44.5824 11.6527 44.5838 11.655 44.5847C11.6572 44.5856 11.6597 44.5859 11.6621 44.5856L11.9621 44.6856L12.1231 44.7336C12.2141 44.7606 12.3081 44.7876 12.4001 44.8116C12.7653 44.9152 13.1334 45.0079 13.5041 45.0896L13.5661 45.1056L13.9041 45.1726C13.9234 45.1778 13.9432 45.1815 13.9631 45.1836C14.0791 45.2046 14.1941 45.2266 14.3091 45.2456C14.3188 45.2488 14.3289 45.2505 14.3391 45.2506C14.4631 45.2716 14.5891 45.2906 14.7121 45.3096C15.1201 45.3716 15.5341 45.4196 15.9501 45.4516C16.0681 45.4626 16.1891 45.4736 16.3101 45.4786C16.4311 45.4836 16.5781 45.4946 16.7101 45.4996C16.8421 45.5046 16.9811 45.5106 17.1181 45.5126C17.2551 45.5146 17.3891 45.5176 17.5261 45.5176C22.5811 45.5121 27.4275 43.5016 31.002 39.9272C34.5765 36.3529 36.5873 31.5066 36.5931 26.4516V16.6206C34.5143 18.0094 32.4771 19.4593 30.4841 20.9686C29.8247 21.4673 29.1771 21.9686 28.5411 22.4726Z" fill="#FF7F15"/>
<path d="M49.6126 45.1515V22.6035H42.0566V16.6155H63.8406V22.6035H56.2827V45.1505L49.6126 45.1515Z" fill="#231F20"/>
<path d="M76.3783 25.0955C76.4475 25.0869 76.5177 25.1009 76.5783 25.1355V31.8875C76.2023 31.8608 75.72 31.8475 75.1313 31.8475C74.5205 31.8077 73.908 31.8962 73.3335 32.1073C72.7589 32.3185 72.235 32.6476 71.7953 33.0735C70.9941 33.9551 70.5751 35.1185 70.6303 36.3085V45.1505H64.3203V25.4975H70.6303V28.1505H70.6703C71.2945 27.2086 72.1428 26.4364 73.139 25.9032C74.1353 25.37 75.2483 25.0925 76.3783 25.0955Z" fill="#231F20"/>
<path d="M92.2528 25.4974H98.5627V45.1504H92.6147V43.0204H92.5338C91.8899 43.8444 91.0569 44.5011 90.1054 44.9348C89.154 45.3686 88.112 45.5667 87.0677 45.5124C85.8154 45.554 84.5689 45.3242 83.4138 44.8387C82.2587 44.3531 81.2223 43.6233 80.3758 42.6994C78.5928 40.6755 77.6636 38.0391 77.7838 35.3445C77.6753 32.649 78.5946 30.0129 80.3558 27.9695C81.1502 27.0467 82.1384 26.3106 83.2501 25.8138C84.3618 25.317 85.5693 25.0717 86.7867 25.0954C87.8209 25.0725 88.8467 25.2849 89.7867 25.7166C90.7267 26.1483 91.5563 26.788 92.2127 27.5874H92.2528V25.4974ZM88.3528 40.0064C88.9133 40.0161 89.4694 39.9044 89.9828 39.679C90.4961 39.4536 90.9546 39.1197 91.3268 38.7004C92.1491 37.7807 92.5816 36.5772 92.5328 35.3445C92.5749 34.1223 92.1509 32.9298 91.3468 32.0085C90.9824 31.5835 90.5287 31.2443 90.018 31.015C89.5074 30.7858 88.9525 30.6722 88.3928 30.6824C87.826 30.6699 87.2631 30.7802 86.7429 31.0056C86.2227 31.2311 85.7573 31.5663 85.3788 31.9884C84.5564 32.9082 84.124 34.1117 84.1728 35.3445C84.1161 36.5774 84.5332 37.7853 85.3387 38.7204C85.7169 39.1419 86.1829 39.4754 86.7037 39.6975C87.2246 39.9197 87.7868 40.0251 88.3528 40.0064Z" fill="#231F20"/>
<path d="M116.206 15.5706H122.476V45.1506H116.528V43.0206H116.448C115.771 43.8478 114.909 44.5044 113.931 44.9372C112.954 45.3701 111.888 45.5672 110.821 45.5126C109.575 45.5515 108.335 45.3202 107.187 44.8347C106.038 44.3491 105.009 43.6207 104.169 42.6996C102.386 40.6755 101.457 38.0392 101.577 35.3446C101.475 32.6562 102.394 30.0287 104.149 27.9896C104.933 27.0646 105.914 26.3252 107.019 25.8248C108.124 25.3243 109.326 25.0753 110.539 25.0956C111.598 25.0609 112.651 25.2672 113.619 25.6989C114.587 26.1306 115.444 26.7764 116.126 27.5876H116.206V15.5706ZM109.112 38.7006C109.492 39.1264 109.96 39.464 110.485 39.6896C111.009 39.9152 111.576 40.0234 112.147 40.0066C112.721 40.0212 113.292 39.9142 113.821 39.6926C114.351 39.4709 114.828 39.1397 115.221 38.7206C115.637 38.266 115.959 37.7338 116.17 37.1546C116.38 36.5753 116.474 35.9603 116.447 35.3446C116.489 34.1189 116.057 32.9242 115.241 32.0086C114.853 31.5757 114.375 31.2327 113.84 31.0037C113.306 30.7747 112.728 30.6651 112.147 30.6826C111.58 30.67 111.017 30.7802 110.496 31.0056C109.976 31.2311 109.51 31.5664 109.132 31.9886C108.355 32.9337 107.929 34.118 107.926 35.341C107.922 36.564 108.341 37.7508 109.112 38.7006Z" fill="#231F20"/>
<path d="M145.466 35.1434C145.473 35.7635 145.42 36.3827 145.306 36.9924H131.962C132.14 38.0061 132.71 38.9089 133.549 39.5044C134.439 40.1198 135.503 40.4351 136.584 40.4045C137.503 40.3954 138.407 40.1772 139.229 39.7663C140.051 39.3555 140.768 38.7629 141.326 38.0334L144.662 41.7715C143.707 42.9517 142.479 43.8826 141.085 44.4844C139.451 45.1949 137.682 45.5445 135.9 45.5094C134.553 45.5532 133.211 45.3249 131.954 44.8381C130.697 44.3513 129.552 43.6161 128.585 42.6764C127.619 41.714 126.863 40.5617 126.365 39.2923C125.867 38.0229 125.638 36.664 125.691 35.3014C125.643 33.9525 125.868 32.6079 126.351 31.3476C126.835 30.0874 127.567 28.9374 128.504 27.9664C129.433 27.0183 130.548 26.2733 131.78 25.7786C133.011 25.2839 134.332 25.0502 135.658 25.0924C136.965 25.0477 138.266 25.2747 139.48 25.7589C140.694 26.2431 141.794 26.974 142.711 27.9054C143.633 28.8652 144.352 30.0007 144.825 31.2442C145.298 32.4877 145.516 33.8138 145.466 35.1434ZM135.74 30.1194C134.845 30.0962 133.97 30.3879 133.268 30.9435C132.558 31.5396 132.093 32.3766 131.962 33.2944L139.317 33.2544C139.152 32.3792 138.716 31.5778 138.071 30.9634C137.432 30.3921 136.597 30.0897 135.74 30.1194Z" fill="#231F20"/>
</g>
<defs>
<clipPath id="clip0_753_7256">
<rect width="145.465" height="45.027" fill="white" transform="translate(0 0.486572)"/>
</clipPath>
</defs>
</svg>
