<svg width="49" height="49" viewBox="0 0 49 49" fill="none" xmlns="http://www.w3.org/2000/svg">
<g clip-path="url(#clip0_753_8946)">
<path d="M24.318 0.626953C22.6657 0.626953 21.318 1.97461 21.318 3.62695V4.3418C21.318 5.74805 20.193 7.04883 18.8571 7.48242C18.7867 7.50586 18.7282 7.51758 18.6696 7.54102C17.3336 7.98633 15.6578 7.59961 14.8258 6.46289L14.4039 5.87695C13.9352 5.23242 13.2321 4.79883 12.4469 4.68164C11.6617 4.55274 10.8649 4.74024 10.2203 5.20899C8.87269 6.18164 8.568 8.06836 9.55237 9.4043L9.97425 10.002C10.8063 11.1387 10.6539 12.8613 9.82191 13.9863C9.78675 14.0332 9.75159 14.0918 9.71644 14.1387C8.89612 15.2754 7.30237 15.9434 5.96644 15.5098L5.27503 15.2871C3.70472 14.7715 2.0055 15.6387 1.50159 17.209C0.985967 18.791 1.84144 20.4785 3.42347 20.9941L4.09144 21.2168C5.42737 21.6504 6.30628 23.127 6.34144 24.5215V24.7324C6.38831 26.127 5.42737 27.6152 4.10316 28.0488L3.42347 28.2715C1.84144 28.7754 0.985967 30.4746 1.50159 32.0449C2.0055 33.627 3.70472 34.4824 5.27503 33.9785L5.96644 33.7441C7.30237 33.3105 8.89612 33.9785 9.71644 35.1152C9.75159 35.1738 9.79847 35.2207 9.83362 35.2676C10.6657 36.3926 10.8063 38.127 9.98597 39.252L9.55237 39.8613C8.57972 41.1973 8.87269 43.0723 10.2203 44.0449C11.5563 45.0176 13.4313 44.7246 14.4039 43.3887L14.8375 42.791C15.6578 41.666 17.3453 41.2676 18.6696 41.7129C18.7282 41.7363 18.7985 41.748 18.8571 41.7715C20.193 42.1934 21.318 43.5059 21.318 44.9121V45.627C21.318 47.2793 22.6657 48.627 24.318 48.627C25.9821 48.627 27.318 47.2793 27.318 45.627V44.9121C27.318 43.5059 28.4547 42.1934 29.7907 41.7715C29.8493 41.748 29.9078 41.7246 29.9782 41.7129C31.3024 41.2676 32.9899 41.6543 33.8102 42.791L34.2438 43.3887C35.2164 44.7246 37.0914 45.0176 38.4274 44.0449C39.7633 43.0723 40.068 41.1973 39.0953 39.8613L38.6618 39.252C37.8297 38.127 37.9821 36.3926 38.8141 35.2676C38.8493 35.2207 38.8844 35.1738 38.9196 35.1152C39.7399 33.9785 41.3336 33.3105 42.6696 33.7441L43.3727 33.9785C44.943 34.4824 46.6422 33.627 47.1461 32.0449C47.6618 30.4746 46.7946 28.7754 45.2243 28.2715L44.5328 28.0488C43.1969 27.6152 42.3297 26.127 42.3063 24.7324C42.2946 24.6621 42.2946 24.5918 42.2946 24.5215C42.2477 23.127 43.1969 21.6504 44.5328 21.2168L45.2243 20.9941C46.7946 20.4785 47.6618 18.791 47.1461 17.209C46.6305 15.6387 44.943 14.7715 43.3727 15.2871L42.6813 15.5098C41.3453 15.9434 39.7516 15.2754 38.9313 14.1387C38.8844 14.0918 38.8493 14.0332 38.8141 13.9863C37.9821 12.8613 37.8414 11.1387 38.6618 10.002L39.0953 9.4043C40.068 8.06836 39.775 6.18164 38.4274 5.20899C37.7828 4.74024 36.986 4.55274 36.2008 4.68164C35.4157 4.79883 34.7008 5.23242 34.2438 5.87695L33.8102 6.46289C32.9899 7.59961 31.3024 7.98633 29.9782 7.55274C29.9078 7.5293 29.8492 7.50586 29.7789 7.48242C28.4547 7.06055 27.318 5.74805 27.318 4.3418V3.62695C27.318 1.97461 25.9703 0.626953 24.318 0.626953ZM24.318 12.627C26.9313 12.627 29.3453 13.4473 31.3141 14.8535C31.3258 14.877 31.3492 14.9004 31.3727 14.9238C31.4078 14.9355 31.4313 14.9473 31.4664 14.9707C33.4469 16.4238 34.9469 18.498 35.7321 20.9004V20.9238C35.7321 20.9238 35.7438 20.9355 35.7438 20.9473C36.6227 23.502 36.2125 25.916 35.7438 28.3184C35.7438 28.3184 35.7321 28.3301 35.7321 28.3418V28.3535C34.9586 30.7559 33.4586 32.8184 31.4899 34.2832C31.443 34.2949 31.4078 34.3184 31.3727 34.3418C31.3492 34.3652 31.3258 34.377 31.3141 34.4004C29.3453 35.8066 26.9313 36.627 24.318 36.627C21.7516 36.627 19.3844 35.8301 17.4508 34.4824C17.3922 34.4355 17.3219 34.3887 17.2633 34.3418C17.2282 34.3184 17.193 34.2949 17.1578 34.2832C15.2125 32.8301 13.7125 30.8027 12.9391 28.4473C12.9274 28.4121 12.9157 28.377 12.9039 28.3418C12.8922 28.3184 12.8805 28.3066 12.8688 28.2832C12.025 25.7402 12.4235 23.3496 12.8688 20.9707C12.8805 20.959 12.8922 20.9355 12.9039 20.9238C12.9157 20.877 12.9274 20.8418 12.9391 20.8066C13.7242 18.4395 15.2242 16.4121 17.1813 14.9707C17.2047 14.9473 17.2399 14.9355 17.2633 14.9238C17.3219 14.877 17.3922 14.8184 17.4508 14.7715C19.3844 13.4238 21.7516 12.627 24.318 12.627Z" fill="url(#paint0_linear_753_8946)"/>
</g>
<defs>
<linearGradient id="paint0_linear_753_8946" x1="24.3233" y1="0.626953" x2="24.3233" y2="40.3819" gradientUnits="userSpaceOnUse">
<stop stop-color="white"/>
<stop offset="1" stop-color="#CEBDD4"/>
</linearGradient>
<clipPath id="clip0_753_8946">
<rect width="48" height="48" fill="white" transform="translate(0.318359 0.626953)"/>
</clipPath>
</defs>
</svg>
