<svg width="30" height="30" viewBox="0 0 30 30" fill="none" xmlns="http://www.w3.org/2000/svg">
<path d="M7.6125 18.7488C7.12582 17.6488 6.87461 16.4591 6.875 15.2563C6.875 10.625 10.5125 6.87378 15 6.87378C19.4875 6.87378 23.125 10.6263 23.125 15.2563C23.1254 16.4591 22.8742 17.6488 22.3875 18.7488M15 2.49878V3.74878M27.5 14.9988H26.25M3.75 14.9988H2.5M23.8375 6.16003L22.9537 7.04378M7.04625 7.04503L6.1625 6.16128M18.1462 24.1325C19.4087 23.7238 19.9162 22.5675 20.0587 21.405C20.1012 21.0575 19.815 20.7688 19.465 20.7688H10.5962C10.5108 20.7674 10.426 20.7842 10.3475 20.8181C10.269 20.8519 10.1986 20.9021 10.1409 20.9652C10.0833 21.0283 10.0397 21.1029 10.013 21.1841C9.98633 21.2653 9.97721 21.3513 9.98625 21.4363C10.1262 22.5963 10.4787 23.4438 11.8162 24.1313M18.1462 24.1325L11.8162 24.1313M18.1462 24.1325C17.995 26.5638 17.2925 27.5263 15.0087 27.4988C12.5662 27.5438 12.0037 26.3525 11.8162 24.1313" stroke="black" stroke-width="2" stroke-linecap="round" stroke-linejoin="round"/>
</svg>
