<svg width="40" height="41" viewBox="0 0 40 41" fill="none" xmlns="http://www.w3.org/2000/svg">
<path d="M7.11334 31.9078C7.48814 34.6917 9.79388 36.8725 12.5998 37.0015C14.9608 37.11 17.3592 37.1667 20.0003 37.1667C22.6415 37.1667 25.0398 37.11 27.4008 37.0015C30.2068 36.8725 32.5125 34.6917 32.8873 31.9078C33.132 30.0912 33.3337 28.2293 33.3337 26.3333C33.3337 24.4373 33.132 22.5755 32.8873 20.7588C32.5125 17.975 30.2068 15.7941 27.4008 15.6651C25.0398 15.5566 22.6415 15.5 20.0003 15.5C17.3592 15.5 14.9608 15.5566 12.5998 15.6651C9.79388 15.7941 7.48814 17.975 7.11334 20.7588C6.86873 22.5755 6.66699 24.4373 6.66699 26.3333C6.66699 28.2293 6.86873 30.0912 7.11334 31.9078Z" stroke="#191A4E" stroke-width="1.5"/>
<path d="M12.5 15.5V11.3333C12.5 7.19118 15.8579 3.83331 20 3.83331C24.1422 3.83331 27.5 7.19118 27.5 11.3333V15.5" stroke="#191A4E" stroke-width="1.5" stroke-linecap="round" stroke-linejoin="round"/>
<path d="M19.9932 26.3333H20.0082" stroke="#191A4E" stroke-width="2" stroke-linecap="round" stroke-linejoin="round"/>
</svg>
