<svg width="30" height="30" viewBox="0 0 30 30" fill="none" xmlns="http://www.w3.org/2000/svg">
<path d="M24.2648 8.51601C23.0496 7.29802 21.6053 6.33265 20.0152 5.67556C18.425 5.01847 16.7205 4.68266 15 4.68749H14.9531C7.74258 4.7121 1.875 10.6641 1.875 17.9449V20.625C1.875 21.1223 2.07254 21.5992 2.42417 21.9508C2.77581 22.3024 3.25272 22.5 3.75 22.5H26.25C26.7473 22.5 27.2242 22.3024 27.5758 21.9508C27.9275 21.5992 28.125 21.1223 28.125 20.625V17.8125C28.1298 16.0844 27.791 14.3726 27.1283 12.7767C26.4657 11.1807 25.4923 9.73241 24.2648 8.51601ZM26.25 20.625H14.0285L20.4457 11.8008C20.5921 11.5997 20.6526 11.3487 20.6139 11.103C20.5752 10.8573 20.4405 10.637 20.2395 10.4906C20.0384 10.3442 19.7874 10.2837 19.5417 10.3224C19.296 10.3611 19.0757 10.4958 18.9293 10.6969L11.7094 20.625H3.75V17.9449C3.75 17.584 3.76758 17.2277 3.80039 16.875H6.5625C6.81114 16.875 7.0496 16.7762 7.22541 16.6004C7.40123 16.4246 7.5 16.1861 7.5 15.9375C7.5 15.6889 7.40123 15.4504 7.22541 15.2746C7.0496 15.0988 6.81114 15 6.5625 15H4.1332C5.34258 10.4461 9.28945 7.00312 14.0625 6.60233V9.37499C14.0625 9.62363 14.1613 9.86209 14.3371 10.0379C14.5129 10.2137 14.7514 10.3125 15 10.3125C15.2486 10.3125 15.4871 10.2137 15.6629 10.0379C15.8387 9.86209 15.9375 9.62363 15.9375 9.37499V6.60116C18.2633 6.79689 20.4708 7.71011 22.2552 9.21463C24.0396 10.7192 25.3126 12.7407 25.8984 15H23.4375C23.1889 15 22.9504 15.0988 22.7746 15.2746C22.5988 15.4504 22.5 15.6889 22.5 15.9375C22.5 16.1861 22.5988 16.4246 22.7746 16.6004C22.9504 16.7762 23.1889 16.875 23.4375 16.875H26.2113C26.2359 17.1855 26.25 17.4973 26.25 17.8125V20.625Z" fill="black"/>
</svg>
