<svg width="31" height="30" viewBox="0 0 31 30" fill="none" xmlns="http://www.w3.org/2000/svg">
<path d="M28.167 15C28.167 8.09644 22.5705 2.5 15.667 2.5C8.76343 2.5 3.16699 8.09644 3.16699 15C3.16699 21.9035 8.76343 27.5 15.667 27.5C16.7191 27.5 18.167 27.6454 18.167 26.25C18.167 25.4888 17.771 24.9015 17.3777 24.318C16.8022 23.4644 16.2324 22.6191 16.917 21.25C17.7504 19.5834 19.1392 19.5834 21.2689 19.5834C22.3337 19.5834 23.5837 19.5834 25.042 19.375C27.6682 18.9999 28.167 17.3855 28.167 15Z" stroke="white" stroke-width="2"/>
<path d="M9.41699 18.7527L9.42857 18.7495" stroke="white" stroke-width="2" stroke-linecap="round" stroke-linejoin="round"/>
<path d="M12.542 12.5C13.5775 12.5 14.417 11.6605 14.417 10.625C14.417 9.58947 13.5775 8.75 12.542 8.75C11.5065 8.75 10.667 9.58947 10.667 10.625C10.667 11.6605 11.5065 12.5 12.542 12.5Z" stroke="white" stroke-width="2"/>
<path d="M21.292 13.75C22.3275 13.75 23.167 12.9105 23.167 11.875C23.167 10.8395 22.3275 10 21.292 10C20.2565 10 19.417 10.8395 19.417 11.875C19.417 12.9105 20.2565 13.75 21.292 13.75Z" stroke="white" stroke-width="2"/>
</svg>
