<svg width="30" height="34" viewBox="0 0 30 34" fill="none" xmlns="http://www.w3.org/2000/svg">
<g clip-path="url(#clip0_753_9020)">
<path d="M27.0996 12.0781C27.5391 12.3223 27.9395 12.6201 28.3008 12.9717C28.6621 13.3232 28.9648 13.7139 29.209 14.1436C29.4531 14.5732 29.6484 15.0273 29.7949 15.5059C29.9414 15.9844 30.0098 16.4824 30 17H28.125C28.125 16.4922 28.0273 16.0088 27.832 15.5498C27.6367 15.0908 27.3682 14.6953 27.0264 14.3633C26.6846 14.0312 26.2842 13.7627 25.8252 13.5576C25.3662 13.3525 24.8828 13.25 24.375 13.25C23.8574 13.25 23.374 13.3477 22.9248 13.543C22.4756 13.7383 22.0801 14.0068 21.7383 14.3486C21.3965 14.6904 21.1279 15.0908 20.9326 15.5498C20.7373 16.0088 20.6348 16.4922 20.625 17C20.625 17.8887 20.4248 18.7334 20.0244 19.5342C19.624 20.335 19.0625 20.999 18.3398 21.5264C18.9746 21.8486 19.5459 22.2441 20.0537 22.7129C20.5615 23.1816 21.001 23.709 21.3721 24.2949C21.7432 24.8809 22.0215 25.5059 22.207 26.1699C22.3926 26.834 22.4902 27.5273 22.5 28.25H20.625C20.625 27.4785 20.4785 26.751 20.1855 26.0674C19.8926 25.3838 19.4873 24.7881 18.9697 24.2803C18.4521 23.7725 17.8564 23.3721 17.1826 23.0791C16.5088 22.7861 15.7812 22.6348 15 22.625C14.2285 22.625 13.501 22.7715 12.8174 23.0645C12.1338 23.3574 11.5381 23.7627 11.0303 24.2803C10.5225 24.7979 10.1221 25.3936 9.8291 26.0674C9.53613 26.7412 9.38477 27.4688 9.375 28.25H7.5C7.5 27.5371 7.59766 26.8486 7.79297 26.1846C7.98828 25.5205 8.2666 24.8955 8.62793 24.3096C8.98926 23.7236 9.42383 23.1963 9.93164 22.7275C10.4395 22.2588 11.0156 21.8584 11.6602 21.5264C10.9473 20.999 10.3906 20.335 9.99023 19.5342C9.58984 18.7334 9.38477 17.8887 9.375 17C9.375 16.4922 9.27734 16.0088 9.08203 15.5498C8.88672 15.0908 8.61816 14.6953 8.27637 14.3633C7.93457 14.0312 7.53418 13.7627 7.0752 13.5576C6.61621 13.3525 6.13281 13.25 5.625 13.25C5.10742 13.25 4.62402 13.3477 4.1748 13.543C3.72559 13.7383 3.33008 14.0068 2.98828 14.3486C2.64648 14.6904 2.37793 15.0908 2.18262 15.5498C1.9873 16.0088 1.88477 16.4922 1.875 17H0C0 16.4922 0.0683594 15.999 0.205078 15.5205C0.341797 15.042 0.532227 14.5879 0.776367 14.1582C1.02051 13.7285 1.32812 13.3379 1.69922 12.9863C2.07031 12.6348 2.4707 12.332 2.90039 12.0781C2.57812 11.7363 2.3291 11.3408 2.15332 10.8916C1.97754 10.4424 1.88477 9.97852 1.875 9.5C1.875 8.99219 1.97266 8.50879 2.16797 8.0498C2.36328 7.59082 2.63184 7.19531 2.97363 6.86328C3.31543 6.53125 3.71094 6.2627 4.16016 6.05762C4.60938 5.85254 5.09766 5.75 5.625 5.75C6.13281 5.75 6.61621 5.84766 7.0752 6.04297C7.53418 6.23828 7.92969 6.50684 8.26172 6.84863C8.59375 7.19043 8.8623 7.59082 9.06738 8.0498C9.27246 8.50879 9.375 8.99219 9.375 9.5C9.375 9.97852 9.28711 10.4424 9.11133 10.8916C8.93555 11.3408 8.68164 11.7363 8.34961 12.0781C9.15039 12.5176 9.80469 13.123 10.3125 13.8945C10.8398 13.1133 11.5137 12.498 12.334 12.0488C13.1543 11.5996 14.043 11.375 15 11.375C15.9473 11.375 16.8311 11.5996 17.6514 12.0488C18.4717 12.498 19.1504 13.1133 19.6875 13.8945C20.1953 13.123 20.8496 12.5176 21.6504 12.0781C21.3281 11.7363 21.0791 11.3408 20.9033 10.8916C20.7275 10.4424 20.6348 9.97852 20.625 9.5C20.625 8.99219 20.7227 8.50879 20.918 8.0498C21.1133 7.59082 21.3818 7.19531 21.7236 6.86328C22.0654 6.53125 22.4609 6.2627 22.9102 6.05762C23.3594 5.85254 23.8477 5.75 24.375 5.75C24.8828 5.75 25.3662 5.84766 25.8252 6.04297C26.2842 6.23828 26.6797 6.50684 27.0117 6.84863C27.3438 7.19043 27.6123 7.59082 27.8174 8.0498C28.0225 8.50879 28.125 8.99219 28.125 9.5C28.125 9.97852 28.0371 10.4424 27.8613 10.8916C27.6855 11.3408 27.4316 11.7363 27.0996 12.0781ZM3.75 9.5C3.75 9.76367 3.79883 10.0078 3.89648 10.2324C3.99414 10.457 4.12598 10.6523 4.29199 10.8184C4.45801 10.9844 4.6582 11.1211 4.89258 11.2285C5.12695 11.3359 5.37109 11.3848 5.625 11.375C5.88867 11.375 6.13281 11.3262 6.35742 11.2285C6.58203 11.1309 6.77734 10.999 6.94336 10.833C7.10938 10.667 7.24609 10.4668 7.35352 10.2324C7.46094 9.99805 7.50977 9.75391 7.5 9.5C7.5 9.23633 7.45117 8.99219 7.35352 8.76758C7.25586 8.54297 7.12402 8.34766 6.95801 8.18164C6.79199 8.01562 6.5918 7.87891 6.35742 7.77148C6.12305 7.66406 5.87891 7.61523 5.625 7.625C5.36133 7.625 5.11719 7.67383 4.89258 7.77148C4.66797 7.86914 4.47266 8.00098 4.30664 8.16699C4.14062 8.33301 4.00391 8.5332 3.89648 8.76758C3.78906 9.00195 3.74023 9.24609 3.75 9.5ZM15 20.75C15.5078 20.75 15.9912 20.6523 16.4502 20.457C16.9092 20.2617 17.3047 19.9932 17.6367 19.6514C17.9688 19.3096 18.2373 18.9141 18.4424 18.4648C18.6475 18.0156 18.75 17.5273 18.75 17C18.75 16.4922 18.6523 16.0088 18.457 15.5498C18.2617 15.0908 17.9932 14.6953 17.6514 14.3633C17.3096 14.0312 16.9092 13.7627 16.4502 13.5576C15.9912 13.3525 15.5078 13.25 15 13.25C14.4824 13.25 13.999 13.3477 13.5498 13.543C13.1006 13.7383 12.7051 14.0068 12.3633 14.3486C12.0215 14.6904 11.7529 15.0908 11.5576 15.5498C11.3623 16.0088 11.2598 16.4922 11.25 17C11.25 17.5176 11.3477 18.001 11.543 18.4502C11.7383 18.8994 12.0068 19.2949 12.3486 19.6367C12.6904 19.9785 13.0859 20.2471 13.5352 20.4424C13.9844 20.6377 14.4727 20.7402 15 20.75ZM22.5 9.5C22.5 9.76367 22.5488 10.0078 22.6465 10.2324C22.7441 10.457 22.876 10.6523 23.042 10.8184C23.208 10.9844 23.4082 11.1211 23.6426 11.2285C23.877 11.3359 24.1211 11.3848 24.375 11.375C24.6387 11.375 24.8828 11.3262 25.1074 11.2285C25.332 11.1309 25.5273 10.999 25.6934 10.833C25.8594 10.667 25.9961 10.4668 26.1035 10.2324C26.2109 9.99805 26.2598 9.75391 26.25 9.5C26.25 9.23633 26.2012 8.99219 26.1035 8.76758C26.0059 8.54297 25.874 8.34766 25.708 8.18164C25.542 8.01562 25.3418 7.87891 25.1074 7.77148C24.873 7.66406 24.6289 7.61523 24.375 7.625C24.1113 7.625 23.8672 7.67383 23.6426 7.77148C23.418 7.86914 23.2227 8.00098 23.0566 8.16699C22.8906 8.33301 22.7539 8.5332 22.6465 8.76758C22.5391 9.00195 22.4902 9.24609 22.5 9.5Z" fill="black"/>
</g>
<defs>
<clipPath id="clip0_753_9020">
<rect width="30" height="30" fill="white" transform="translate(0 2)"/>
</clipPath>
</defs>
</svg>
