<svg width="31" height="30" viewBox="0 0 31 30" fill="none" xmlns="http://www.w3.org/2000/svg">
<path d="M10.667 16.25L8.60525 18.8272C8.44282 19.0302 8.3616 19.1317 8.30385 19.2448C8.25261 19.3451 8.21516 19.4518 8.19251 19.5622C8.16699 19.6865 8.16699 19.8165 8.16699 20.0766V26.25L13.167 20M20.667 16.25L22.7287 18.8272C22.8912 19.0302 22.9724 19.1317 23.0301 19.2448C23.0814 19.3451 23.1188 19.4518 23.1415 19.5622C23.167 19.6865 23.167 19.8165 23.167 20.0766V26.25L18.167 20M15.667 16.25V25M10.667 10H20.667M15.667 3.75L11.1722 8.80667C10.9853 9.01691 10.8919 9.12203 10.8252 9.2415C10.7662 9.34746 10.7228 9.46146 10.6966 9.57991C10.667 9.71346 10.667 9.85411 10.667 10.1354V15C10.667 16.7502 10.667 17.6252 11.0076 18.2937C11.3072 18.8817 11.7853 19.3598 12.3733 19.6594C13.0417 20 13.9168 20 15.667 20C17.4172 20 18.2922 20 18.9607 19.6594C19.5487 19.3598 20.0268 18.8817 20.3264 18.2937C20.667 17.6252 20.667 16.7502 20.667 15V10.1354C20.667 9.85411 20.667 9.71346 20.6374 9.57991C20.6112 9.46146 20.5678 9.34746 20.5087 9.2415C20.4421 9.12203 20.3487 9.01691 20.1618 8.80667L15.667 3.75Z" stroke="white" stroke-width="2" stroke-linecap="round" stroke-linejoin="round"/>
</svg>
