<svg width="120" height="120" viewBox="0 0 120 120" fill="none" xmlns="http://www.w3.org/2000/svg">
<rect width="120" height="120" rx="12" fill="white"/>
<path d="M50.3936 59.6945C49.3279 59.6945 48.4613 60.0099 47.7969 60.6406C47.1326 61.2718 46.7956 62.0992 46.7956 63.113C46.7956 63.6384 46.8793 64.1174 47.0442 64.5563C47.2091 64.9962 47.4657 65.4036 47.8107 65.7718C48.1558 66.1403 48.8464 66.6409 49.8757 67.2773C51.1386 68.0484 51.9652 68.6741 52.3619 69.1627C52.7588 69.6509 52.9558 70.1625 52.9558 70.6958C52.9558 71.41 52.7207 71.98 52.2375 72.4085C51.7536 72.8372 51.1063 73.0508 50.3038 73.0508C49.4574 73.0508 48.7201 72.7524 48.087 72.1599C47.4538 71.5666 47.1342 70.7817 47.127 69.798H46.7334V73.3685H47.127C47.2472 73.0304 47.4135 72.8574 47.6312 72.8574C47.7359 72.8574 47.9812 72.9297 48.3632 73.0646C49.2928 73.3954 50.0561 73.555 50.6561 73.555C51.69 73.555 52.5726 73.1928 53.308 72.4569C54.0422 71.7213 54.413 70.834 54.413 69.798C54.413 68.9948 54.1682 68.2801 53.6878 67.6572C53.2074 67.0335 52.2732 66.308 50.877 65.4748C49.6757 64.753 48.8958 64.1652 48.5359 63.7069C48.1754 63.2493 47.9903 62.7431 47.9903 62.1876C47.9903 61.5867 48.211 61.1041 48.6464 60.7442C49.0817 60.384 49.6522 60.2055 50.366 60.2055C51.1693 60.2055 51.8389 60.4439 52.3688 60.9237C52.898 61.4044 53.2041 62.0705 53.2942 62.9265H53.6878V59.8326H53.3218C53.277 59.9903 53.2356 60.0911 53.1975 60.1364C53.1605 60.1815 53.0892 60.2055 52.9834 60.2055C52.8561 60.2055 52.629 60.1519 52.3066 60.0467C51.616 59.8141 50.9793 59.6945 50.3936 59.6945ZM63.2596 59.6945C61.961 59.6945 60.782 60.0005 59.7168 60.613C58.65 61.2243 57.8055 62.0732 57.1823 63.1544C56.5594 64.2355 56.25 65.3838 56.25 66.6074C56.25 68.2514 56.7881 69.716 57.8729 70.9997C58.9583 72.2826 60.2588 73.082 61.7679 73.3892C62.113 73.569 62.6066 74.0331 63.2527 74.7842C63.9809 75.6319 64.5969 76.2434 65.1036 76.6074C65.6096 76.9717 66.1561 77.2387 66.7334 77.4155C67.3113 77.5914 67.9362 77.6779 68.6119 77.6779C69.4301 77.6779 70.1627 77.5357 70.808 77.2428L70.663 76.8837C70.2884 77.0188 69.8889 77.084 69.4682 77.084C68.8972 77.084 68.3201 76.8957 67.7417 76.5177C67.1641 76.1387 66.4417 75.4157 65.5801 74.3492C65.1751 73.8381 64.8956 73.5157 64.7375 73.3892C66.3886 73.0668 67.7464 72.2666 68.8052 70.9859C69.8638 69.7058 70.3936 68.2448 70.3936 66.6074C70.3936 64.6633 69.7019 63.0293 68.3287 61.6972C66.9544 60.365 65.2643 59.6945 63.2596 59.6945ZM71.2914 59.6945L71.3121 60.1157C72.1768 60.1157 72.661 60.3704 72.7693 60.8823C72.8096 61.0655 72.8281 61.4036 72.8315 61.8906L72.8246 71.2069C72.8174 71.9027 72.7182 72.3469 72.5276 72.5398C72.3367 72.7312 72.0141 72.8511 71.5469 72.8989L71.5262 73.3201H80.145L80.366 71.2069H79.9724C79.8599 71.7826 79.6022 72.195 79.192 72.4293C78.7807 72.6653 78.0533 72.7815 77.0028 72.7815H76.1878C75.2425 72.7815 74.6956 72.4397 74.5511 71.7525C74.5213 71.6165 74.511 71.4707 74.5097 71.3105L74.5442 61.8906C74.544 61.1959 74.6318 60.7304 74.8135 60.5025C74.9972 60.2754 75.3284 60.1483 75.808 60.1157L75.7873 59.6945H71.2914ZM63.3978 60.2055C64.8624 60.2055 66.0583 60.7824 66.982 61.9458C67.9055 63.1097 68.3632 64.7049 68.3632 66.7248C68.3632 68.6389 67.8989 70.1715 66.9682 71.3243C66.0375 72.4767 64.7989 73.0508 63.2596 73.0508C61.7809 73.0508 60.5817 72.4588 59.6616 71.269C58.7422 70.0793 58.2873 68.5346 58.2873 66.6351C58.2873 64.6831 58.7478 63.1206 59.6754 61.9527C60.6025 60.7861 61.8439 60.2055 63.3978 60.2055ZM83.2182 62.2083C83.008 62.2083 82.8478 62.2793 82.7279 62.4224C82.6052 62.5649 82.5677 62.7376 82.6105 62.9472C82.6519 63.1506 82.7666 63.3289 82.9489 63.479C83.1301 63.629 83.3257 63.7069 83.5359 63.7069C83.7392 63.7069 83.8942 63.629 84.0055 63.479C84.1168 63.3289 84.1508 63.1506 84.1091 62.9472C84.0663 62.7376 83.9555 62.5649 83.7845 62.4224C83.6116 62.2793 83.4215 62.2083 83.2182 62.2083ZM88.9019 63.6378C88.5447 65.0119 87.7704 65.7555 86.5815 65.8754L86.5953 66.269H87.9834L87.9558 70.9237C87.958 71.7195 87.9823 72.2494 88.0387 72.519C88.1754 73.1647 88.5969 73.4928 89.3025 73.4928C90.3232 73.4928 91.3939 72.871 92.5138 71.6282L92.1754 71.3381C91.3668 72.1566 90.6519 72.5674 90.0276 72.5674C89.6439 72.5674 89.4061 72.3467 89.3163 71.9113C89.2917 71.8056 89.2817 71.682 89.2817 71.5384L89.2956 66.269H91.4157L91.395 65.6406H89.3025V63.6378H88.9019ZM97.0994 65.392C95.9135 65.392 94.9489 65.9677 94.1989 67.1116C93.4527 68.2574 93.2218 69.527 93.5152 70.9237C93.6878 71.7419 94.0317 72.376 94.558 72.8229C95.0834 73.2697 95.75 73.4928 96.5469 73.4928C97.2889 73.4928 98.3221 73.3049 98.7569 72.9265C99.1928 72.5483 99.5944 71.9356 99.9654 71.0964L99.6685 70.7856C99.0768 71.8743 97.8826 72.4224 96.982 72.4224C95.7439 72.4224 94.9856 71.7431 94.703 70.392C94.6663 70.2195 94.6389 70.0342 94.6201 69.8395C96.0931 69.6063 97.2094 69.1933 97.9627 68.5964C98.7155 67.9991 99.4712 67.366 99.3301 66.6972C99.2461 66.2998 99.0398 65.9873 98.7224 65.7511C98.4008 65.515 97.566 65.392 97.0994 65.392ZM84.1367 65.4403L81.5815 66.0273V66.4831L82.4654 66.3726C82.8936 66.3726 83.1456 66.5665 83.2251 66.9527C83.2519 67.082 83.2688 67.2635 83.2735 67.4914L83.2458 71.6696C83.2386 72.2478 83.1746 72.5839 83.0456 72.6848C82.9154 72.7859 82.5723 72.8367 82.0166 72.8367L82.0027 73.2304H86.0566L86.0497 72.8367C85.4865 72.8367 85.1213 72.7923 84.9585 72.7055C84.7986 72.6193 84.6884 72.4624 84.6409 72.2221C84.6041 72.0489 84.5881 71.7505 84.5856 71.3381L84.5994 65.4403H84.1367ZM96.4503 66.2138C96.6969 66.2138 96.9353 66.3091 97.1754 66.4969C97.4121 66.6842 97.5563 66.8923 97.6036 67.1185C97.8348 68.2293 96.85 68.9972 94.634 69.4251C94.5707 68.6151 94.711 67.8799 95.069 67.2152C95.4243 66.5511 95.887 66.2138 96.4503 66.2138Z" fill="#003B57"/>
<path d="M44.6699 43.7424H22.6797C21.2059 43.7424 20 44.9485 20 46.4223V70.6734C20 72.1471 21.2059 73.353 22.6797 73.353H37.163C36.9986 66.1465 39.4596 52.161 44.6699 43.7424Z" fill="#0F80CC"/>
<path d="M43.871 44.5243H22.6796C21.6332 44.5243 20.7816 45.3757 20.7816 46.4224V68.9042C25.5809 67.0622 32.7843 65.4728 37.7649 65.545C38.7658 60.3116 41.7073 50.0554 43.871 44.5243Z" fill="url(#paint0_linear_753_4415)"/>
<path d="M49.7992 42.9488C48.2931 41.6057 46.4697 42.1452 44.6699 43.7425C44.4028 43.9798 44.1362 44.243 43.871 44.5242C40.7923 47.7903 37.9346 53.84 37.0467 58.4601C37.3926 59.1615 37.6628 60.0566 37.8407 60.7403C37.8862 60.9157 37.9274 61.0803 37.9603 61.2204C38.0384 61.5518 38.0804 61.7668 38.0804 61.7668C38.0804 61.7668 38.0528 61.6623 37.9395 61.3339C37.918 61.2709 37.894 61.2021 37.8655 61.1212C37.8534 61.0878 37.8365 61.0472 37.818 61.0038C37.6172 60.5369 37.0616 59.5516 36.8172 59.1226C36.6081 59.7394 36.4233 60.3165 36.2686 60.8386C36.9744 62.13 37.4045 64.3431 37.4045 64.3431C37.4045 64.3431 37.3672 64.1996 37.1898 63.6991C37.0324 63.2563 36.2481 61.8822 36.0623 61.561C35.7445 62.7342 35.6183 63.5262 35.7321 63.719C35.9532 64.0927 36.1638 64.7375 36.3487 65.4505C36.7663 67.0568 37.0567 69.0123 37.0567 69.0123C37.0567 69.0123 37.0661 69.1419 37.0818 69.3413C37.0238 70.6903 37.0586 72.0889 37.163 73.353C37.3014 75.0264 37.5619 76.464 37.894 77.2334L38.1194 77.1105C37.6318 75.5947 37.4337 73.6082 37.5205 71.3173C37.6517 67.8156 38.4575 63.5928 39.9465 59.1914C42.4619 52.5472 45.952 47.2162 49.1462 44.6704C46.2349 47.2997 42.2945 55.8104 41.115 58.9621C39.7942 62.4914 38.8583 65.8033 38.2942 68.9764C39.2675 66.0016 42.4141 64.7229 42.4141 64.7229C42.4141 64.7229 43.9575 62.8195 45.7611 60.1002C44.6807 60.3466 42.9067 60.7684 42.3125 61.0182C41.436 61.3858 41.1998 61.5113 41.1998 61.5113C41.1998 61.5113 44.039 59.7822 46.4749 58.9994C49.8249 53.7231 53.4746 46.2276 49.7992 42.9488Z" fill="#003B57"/>
<defs>
<linearGradient id="paint0_linear_753_4415" x1="1352.16" y1="94.4164" x2="1352.16" y2="2346.93" gradientUnits="userSpaceOnUse">
<stop stop-color="#97D9F6"/>
<stop offset="0.920245" stop-color="#0F80CC"/>
<stop offset="1" stop-color="#0F80CC"/>
</linearGradient>
</defs>
</svg>
