<svg width="120" height="120" viewBox="0 0 120 120" fill="none" xmlns="http://www.w3.org/2000/svg">
<rect width="120" height="120" rx="12" fill="white"/>
<path d="M69.1928 26C102.149 48.4219 91.4887 73.1484 91.4887 73.1484C91.4887 73.1484 100.86 83.7344 97.0724 92.9922C97.0724 92.9922 93.2068 86.5078 86.7249 86.5078C80.4774 86.5078 76.807 92.9922 64.2338 92.9922C36.237 92.9922 23 69.5938 23 69.5938C48.2244 86.1953 65.4442 74.4375 65.4442 74.4375C54.0815 67.8359 29.9113 36.2734 29.9113 36.2734C50.9578 54.2031 60.0557 58.9297 60.0557 58.9297C54.6282 54.4375 39.3998 32.4844 39.3998 32.4844C51.5825 44.8281 75.7917 62.0547 75.7917 62.0547C82.664 42.9922 69.1928 26 69.1928 26Z" fill="#F14C34"/>
</svg>
