<svg width="120" height="120" viewBox="0 0 120 120" fill="none" xmlns="http://www.w3.org/2000/svg">
<rect width="120" height="120" rx="12" fill="white"/>
<g clip-path="url(#clip0_753_4436)">
<path d="M77.0694 54.1881L77.4431 52.943C78.6157 48.4377 80.0287 43.9983 81.6761 39.6441C81.9597 38.7524 82.5016 37.9649 83.2331 37.3813C83.9645 36.7978 84.8527 36.4444 85.7852 36.3658C87.1361 36.2195 88.5658 36.0957 89.4777 37.379C89.7353 37.7618 90.0675 38.0887 90.4544 38.3402C90.8413 38.5917 91.2749 38.7625 91.7293 38.8426C92.1912 38.9101 92.6442 39.0282 93.0802 39.1949C93.6814 39.4201 93.9099 39.1747 94.0765 38.614L95.6752 33.1788C96.2763 31.1253 96.2763 31.1456 94.2848 30.4397C93.9005 30.2684 93.4855 30.1763 93.0648 30.1692C92.644 30.162 92.2262 30.2399 91.8362 30.3981C91.1991 30.6999 90.4811 30.7863 89.7906 30.6441C89.1001 30.502 88.4746 30.139 88.0086 29.61C86.829 28.3969 85.3893 27.4677 83.7982 26.8924C79.1719 25.1625 74.1857 24.6206 69.2958 25.3163C66.8944 25.5938 64.592 26.4326 62.5749 27.7649C62.2974 27.983 62.0341 28.2188 61.7869 28.4707C64.4515 28.2069 67.1371 28.2348 69.7957 28.554C70.6763 28.6117 71.5357 28.8495 72.3207 29.2526C73.1058 29.6558 73.7997 30.2158 74.3596 30.8979C75.4513 32.4859 76.0397 34.3657 76.0483 36.2927C76.2007 38.9337 75.8571 41.5799 75.0351 44.0943L72.7317 52.227C72.6281 52.5794 72.5448 52.9025 73.0222 53.015L77.0682 54.1971L77.0694 54.1881ZM64.3086 94.9774C64.923 95.0354 65.5406 94.9084 66.0823 94.6127C66.6239 94.317 67.0648 93.8661 67.3482 93.318C67.7477 92.6233 68.0478 91.876 68.2398 91.098L74.1727 66.3679L76.5796 56.0986C76.7451 55.4231 76.5796 55.1642 75.9379 55.0201L73.3239 54.2939C71.7253 53.8166 72.0371 53.8774 71.5609 55.1945L59.7661 88.7429C59.5833 89.2009 59.4695 89.6834 59.4284 90.1748C59.3158 92.9961 61.2971 94.9673 64.303 94.9887L64.3086 94.9774ZM24.0597 45.2044L24.3073 47.0304L26.112 58.9749L27.8749 71.0208L29.701 83.1432L30.8425 90.821C30.9258 91.3614 31.1127 91.6091 31.7431 91.5055L43.0707 89.7043L59.237 87.1904C59.4441 87.1487 59.6107 86.8999 59.7999 86.7401C59.5747 86.6275 59.3023 86.3877 59.094 86.408L50.2769 87.7364L32.4265 90.5317C31.8039 90.6353 31.5968 90.4901 31.5258 89.89L30.417 82.1401L27.8277 64.9832L25.0132 46.2626C24.9096 45.5781 25.1258 45.2663 25.8238 45.1841L29.4128 44.6212L44.102 42.2345L68.8692 38.1682L74.4497 37.2136C74.6748 37.1719 74.8437 36.8398 75.0306 36.6507L74.2842 36.3602C74.2223 36.34 74.1378 36.3805 74.059 36.4019L67.1084 37.5637L24.6608 44.5401C24.143 44.6235 23.8728 44.7653 24.0597 45.2156V45.2044ZM83.1891 38.3168C83.0642 38.3198 82.9392 38.313 82.8153 38.2966C82.6928 38.813 82.6301 39.3419 82.6285 39.8727L83.4582 44.9139L85.7097 58.4413L89.4248 80.5989C89.5081 81.0346 89.4248 81.3453 88.8844 81.4286L76.9117 83.2918L71.2491 84.2262C71.0836 84.2465 70.9383 84.5167 70.7988 84.6765C71.0059 84.7801 71.1928 84.967 71.3797 84.967C71.9808 84.9253 72.5617 84.8206 73.1426 84.7418L90.4459 81.9611L83.1846 38.3089L83.1891 38.3168ZM67.4417 64.4575C67.5393 64.3904 67.6202 64.3016 67.6781 64.1981C67.7359 64.0947 67.7691 63.9793 67.7751 63.8609C67.781 63.7426 67.7597 63.6244 67.7126 63.5156C67.6655 63.4069 67.594 63.3104 67.5036 63.2338L63.6275 58.5651L52.7074 45.3912C52.3981 45.0195 52.1844 44.5777 52.0849 44.1045C52.0405 43.6623 52.1479 43.2181 52.3893 42.845C52.6307 42.4718 52.9918 42.1919 53.4133 42.051C53.8659 41.8745 54.3658 41.8607 54.8275 42.012C55.2891 42.1634 55.6839 42.4705 55.9441 42.8807L66.6705 55.7147L69.2846 58.8061C69.3795 58.7369 69.4578 58.6474 69.5136 58.5441C69.5695 58.4408 69.6016 58.3263 69.6075 58.209C69.6135 58.0917 69.5931 57.9745 69.548 57.8661C69.5028 57.7577 69.434 57.6607 69.3465 57.5823L65.055 52.4454L56.4034 42.1557C56.1571 41.8445 55.8489 41.5877 55.4983 41.4018C55.1477 41.2158 54.7622 41.1048 54.3664 41.0755C53.9706 41.0463 53.573 41.0996 53.1989 41.2321C52.8248 41.3646 52.4822 41.5733 52.193 41.845C51.8938 42.088 51.6501 42.3922 51.4783 42.7371C51.3064 43.0821 51.2103 43.4598 51.1964 43.845C51.1826 44.2301 51.2513 44.6137 51.3979 44.9702C51.5445 45.3266 51.7657 45.6475 52.0466 45.9114L65.4907 62.1361L67.4405 64.4597L67.4417 64.4575ZM53.1262 55.7102C52.9717 55.5818 52.805 55.4687 52.6286 55.3724L48.3338 53.7963C47.8778 53.6308 47.6583 53.7963 47.5041 54.1904L39.6619 73.4637C39.4547 73.9411 39.6 74.1696 40.0356 74.3351L44.0603 75.9945C44.7864 76.3266 45.0735 76.16 45.3471 75.4316L53.115 55.7011L53.1262 55.7102ZM66.7988 64.623L64.0182 61.0768C63.3123 59.9881 62.5243 59.4252 61.2183 59.9881C60.8919 60.073 60.5584 60.1284 60.222 60.1536L51.8912 61.5856C51.6736 61.59 51.4623 61.6597 51.2847 61.7855C51.107 61.9114 50.9713 62.0876 50.8949 62.2915L49.2175 66.8768C49.1625 67.0983 49.1279 67.3244 49.1139 67.5523L66.7887 64.6477L66.7988 64.623ZM43.476 62.7767L33.4993 64.3944L34.141 68.9178C34.2243 69.5595 34.4934 69.644 35.0754 69.5595L40.2203 68.8537C40.4503 68.8464 40.6732 68.7718 40.8613 68.6392C41.0494 68.5065 41.1945 68.3216 41.2785 68.1073L43.2081 63.6267C43.3117 63.379 43.3544 63.1763 43.4783 62.7756L43.476 62.7767Z" fill="#235EE1"/>
<path d="M79.9514 75.7233L73.7066 71.9215C73.79 72.3155 73.7483 72.7726 73.9543 73C74.35 73.4392 74.8208 73.8044 75.3447 74.0785C76.0505 74.4725 76.8082 74.754 77.523 75.0917C78.051 75.2807 78.5087 75.6263 78.835 76.0823C79.1613 76.5384 79.3406 77.0832 79.3491 77.6438C79.3749 77.8667 79.4381 78.0837 79.5359 78.2855L79.7431 78.182C79.8005 78.127 79.8498 78.064 79.8894 77.9951C80.4537 77.1206 80.817 76.132 80.9533 75.1002C81.0895 74.0685 80.9953 73.0194 80.6775 72.0284C80.4681 70.8776 80.0061 69.7876 79.3248 68.8368C78.6434 67.8861 77.7597 67.0982 76.7373 66.5301C76.1147 66.2194 75.724 66.4885 75.2647 66.8003C75.0186 66.938 74.8244 67.1527 74.712 67.4113C74.5995 67.67 74.575 67.9584 74.6422 68.2323C74.938 68.0748 75.2162 67.8861 75.4719 67.6694C75.9897 67.129 76.4682 67.2529 77.048 67.6278C79.3299 69.2264 80.7631 73.2499 79.9525 75.6996L79.9514 75.7233ZM38.2299 84.4177C38.3085 84.461 38.3915 84.4957 38.4776 84.5212L44.7031 76.7533L43.9973 76.3796L40.0345 74.781C39.412 74.5108 39.2239 74.6977 39.1834 75.3439L38.6352 80.59L38.2411 84.4177H38.2299ZM51.6109 48.6482C51.0822 48.6542 50.5671 48.8172 50.1312 49.1164C49.6952 49.4157 49.358 49.8377 49.1624 50.329L48.2043 52.611C47.9972 53.0466 48.058 53.3168 48.5567 53.4823L52.7074 55.0179C53.205 55.2048 53.4133 55.0381 53.5991 54.6013L54.5954 52.2372C54.8385 51.8015 54.9008 51.2877 54.7688 50.8066C54.6367 50.3254 54.321 49.9154 53.8895 49.6648C53.156 49.2689 52.3931 48.9301 51.6076 48.6516L51.6109 48.6482ZM75.9481 62.9636L81.1267 62.2375C81.273 62.2173 81.4588 61.8435 81.4374 61.6746L80.691 57.5655C80.6404 57.4389 80.5589 57.327 80.4538 57.2401C80.3488 57.1532 80.2237 57.094 80.0898 57.0679C79.2185 57.1298 78.3471 57.2548 77.4758 57.4057C77.0401 57.4676 76.7294 57.6758 76.9782 58.2973L79.3851 58.0068C79.572 57.9866 79.9255 58.1532 79.948 58.277L80.5492 61.4934L76.69 62.0112C76.2397 62.0732 75.8186 62.1767 75.9638 62.9659L75.9481 62.9636ZM77.0739 54.1825L73.0492 53.0207C72.5719 52.8744 72.6552 52.5851 72.7587 52.2327L75.0621 44.1C75.8829 41.5853 76.2265 38.9393 76.0753 36.2984C76.0616 34.3722 75.4736 32.4939 74.3866 30.9036C73.8259 30.2221 73.1312 29.6629 72.3456 29.2607C71.5599 28.8585 70.7001 28.6218 69.8193 28.5654C67.1606 28.2471 64.4752 28.2192 61.8105 28.4821C62.0807 28.2569 62.3081 27.9845 62.5986 27.7762C64.616 26.4446 66.9182 25.6059 69.3195 25.3276C74.2095 24.6414 79.1934 25.1831 83.8218 26.9037C85.417 27.471 86.8584 28.4013 88.0322 29.6214C88.4987 30.1497 89.1242 30.5122 89.8145 30.6544C90.5048 30.7965 91.2226 30.7105 91.8599 30.4094C92.25 30.2518 92.6677 30.1742 93.0884 30.1814C93.5091 30.1885 93.924 30.2803 94.3085 30.4511C96.3011 31.1569 96.3011 31.1355 95.6988 33.1901L94.1002 38.6254C93.9347 39.1883 93.7062 39.4134 93.1039 39.2063C92.6684 39.0379 92.2152 38.9197 91.7529 38.8539C91.2929 38.7913 90.8524 38.6275 90.4631 38.3745C90.0738 38.1215 89.7454 37.7854 89.5014 37.3904C88.567 36.125 87.1575 36.2286 85.8088 36.3772C84.8759 36.4541 83.9869 36.8069 83.2551 37.3907C82.5234 37.9745 81.9819 38.7629 81.6997 39.6555C80.0548 44.0086 78.6444 48.4468 77.4746 52.9509L77.0806 54.1747L77.0739 54.1825ZM64.3086 94.9775C61.3005 94.9572 59.3293 93.0074 59.434 90.1637C59.4742 89.6721 59.588 89.1894 59.7717 88.7317L71.5699 55.2261C72.0202 53.8977 71.7354 53.8572 73.3329 54.3255L75.947 55.0517C76.5887 55.198 76.7575 55.4682 76.5887 56.1301L74.1817 66.3995L68.2432 91.1296C68.0512 91.9076 67.7511 92.6549 67.3516 93.3496C67.062 93.8912 66.6192 94.3355 66.0787 94.627C65.5381 94.9185 64.9236 95.0443 64.312 94.9888L64.3086 94.9775ZM24.0597 45.2044C23.8728 44.7688 24.143 44.6235 24.6822 44.529L67.1298 37.5784L74.0804 36.4166C74.1637 36.3963 74.2459 36.3547 74.3056 36.3749L75.052 36.6654C74.8651 36.8523 74.6996 37.1832 74.4711 37.2283L68.8906 38.1829L56.9573 40.1193L44.1143 42.2358L29.4308 44.6202L25.8418 45.183C25.1573 45.2664 24.9412 45.5771 25.0312 46.2615L30.417 82.1346L31.5371 89.8732C31.6204 90.4744 31.8073 90.6196 32.4377 90.5149L50.2814 87.714L59.0985 86.3855C59.3056 86.3653 59.5758 86.5927 59.8044 86.7176C59.6175 86.8831 59.452 87.1342 59.2415 87.168L43.1045 89.6863L31.7769 91.4876C31.1352 91.5912 30.9472 91.3412 30.8763 90.8031L29.7347 83.1253L27.9087 71.0119L26.1457 58.966L24.0585 45.2157L24.0597 45.2044ZM83.1891 38.3169L90.4921 82.0108L86.4257 82.6862L73.1888 84.8027L71.4258 85.0279C71.2389 85.0481 71.0318 84.841 70.8449 84.7374C70.9913 84.5719 71.1354 84.3209 71.2952 84.2871L76.9579 83.3527L88.9081 81.4839C89.4485 81.4006 89.5093 81.0899 89.4485 80.6542L87.9849 72.0228L83.4818 44.968L82.6532 39.9245C82.6506 39.3935 82.7133 38.8641 82.8401 38.3484C82.9499 38.3309 83.0611 38.3241 83.1722 38.3282L83.1891 38.3169Z" fill="#235EE1"/>
<path d="M67.4417 64.4576L65.4918 62.134L52.0477 45.9092C51.7669 45.6453 51.5457 45.3244 51.399 44.968C51.2524 44.6116 51.1837 44.2279 51.1976 43.8428C51.2114 43.4577 51.3075 43.0799 51.4794 42.735C51.6513 42.3901 51.895 42.0859 52.1941 41.8429C52.481 41.5664 52.8229 41.3536 53.1977 41.2183C53.5724 41.083 53.9714 41.0282 54.3687 41.0575C54.766 41.0868 55.1527 41.1996 55.5035 41.3885C55.8543 41.5773 56.1613 41.838 56.4045 42.1536L69.351 57.5689C69.4416 57.6455 69.5133 57.7419 69.5605 57.8507C69.6077 57.9595 69.6292 58.0777 69.6232 58.1961C69.6172 58.3146 69.5839 58.43 69.526 58.5335C69.468 58.637 69.387 58.7257 69.2891 58.7927L66.675 55.7013L55.9486 42.8673C55.6921 42.4531 55.2975 42.1427 54.8345 41.9909C54.3715 41.8391 53.8698 41.8556 53.4178 42.0376C52.9935 42.1741 52.6294 42.4531 52.3873 42.8274C52.1452 43.2016 52.0399 43.6481 52.0894 44.0911C52.1712 44.5702 52.387 45.0163 52.7119 45.3778L67.5047 63.2215C67.5972 63.2968 67.6707 63.3929 67.7191 63.5019C67.7676 63.611 67.7897 63.7299 67.7837 63.849C67.7777 63.9682 67.7437 64.0842 67.6844 64.1878C67.6252 64.2914 67.5424 64.3796 67.4428 64.4452L67.4417 64.4576ZM53.1262 55.7103L52.8786 56.4161L45.3358 75.4824C45.0454 76.2085 44.7729 76.374 44.0491 76.0453L40.0244 74.3859C39.5741 74.199 39.4435 73.9918 39.6506 73.5145L47.4928 54.2411C47.6583 53.8246 47.8666 53.6602 48.3225 53.8471L52.6174 55.4232C52.7983 55.4916 52.9665 55.5897 53.115 55.7136L53.1262 55.7103ZM48.2291 54.6745L47.2328 57.1434L40.8012 72.8908C40.5535 73.5134 40.6886 73.7622 41.2515 73.9693L43.7012 74.9611C44.3237 75.2718 44.5725 75.148 44.827 74.5108L52.1108 56.0874L48.2313 54.6768L48.2291 54.6745ZM66.7989 64.6231L49.1432 67.531C49.1607 67.3035 49.1953 67.0777 49.2468 66.8555L50.9276 62.2702C51.0006 62.065 51.1348 61.8872 51.3123 61.761C51.4897 61.6347 51.7016 61.5661 51.9194 61.5643L60.2502 60.1323C60.5868 60.1091 60.9204 60.0536 61.2465 59.9668C62.5524 59.449 63.3213 60.0085 64.0474 61.0667C64.8152 62.2488 65.7699 63.3183 66.8056 64.6129L66.7989 64.6231ZM50.2836 66.511L65.2836 64.0343L62.8147 60.9429C62.715 60.8585 62.5993 60.795 62.4746 60.7563C62.3498 60.7177 62.2185 60.7045 62.0886 60.7177L59.9496 61.0498L52.5645 62.3366C52.2538 62.3985 51.7967 62.5843 51.6931 62.8342C51.1753 63.996 50.7587 65.1983 50.2825 66.5268L50.2836 66.511ZM43.476 62.7768L43.2058 63.5874L41.2763 68.068C41.1981 68.2862 41.0546 68.475 40.8652 68.6086C40.6758 68.7421 40.4498 68.814 40.218 68.8144L35.0732 69.5202C34.4923 69.6035 34.2221 69.5202 34.1388 68.8785L33.4971 64.3551L43.476 62.779V62.7768ZM42.1893 63.835L35.1385 64.9754C34.9133 65.0171 34.5373 65.392 34.5373 65.5766C34.6145 66.4771 34.7536 67.3712 34.9539 68.2526C35.01 68.3562 35.0906 68.4444 35.1888 68.5096C35.2869 68.5747 35.3995 68.6148 35.5168 68.6264L39.7272 68.0455C39.9974 68.0038 40.4026 67.8586 40.495 67.6514L42.1836 63.8238L42.1893 63.835ZM79.9514 75.7233C80.7619 73.2747 79.3288 69.25 77.0468 67.6942C76.9443 67.5867 76.8204 67.5018 76.6831 67.4451C76.5458 67.3885 76.3981 67.3612 76.2496 67.3651C76.101 67.3691 75.955 67.4041 75.8209 67.4679C75.6867 67.5318 75.5674 67.6231 75.4708 67.7359C75.2094 67.945 74.932 68.1332 74.6411 68.2988C74.5746 68.0248 74.5995 67.7367 74.7119 67.4782C74.8243 67.2197 75.018 67.005 75.2636 66.8668C75.4472 66.6691 75.6897 66.536 75.955 66.4873C76.2204 66.4386 76.4943 66.4769 76.7361 66.5966C77.7572 67.1664 78.6398 67.9548 79.321 68.9052C80.0021 69.8557 80.4649 70.9448 80.6764 72.0949C80.9932 73.086 81.0868 74.1349 80.9506 75.1665C80.8144 76.198 80.4516 77.1867 79.8883 78.0615C79.8432 78.1266 79.7944 78.189 79.742 78.2484C79.7003 78.2901 79.6587 78.2901 79.5348 78.352C79.4472 78.1463 79.3845 77.9309 79.3479 77.7103C79.3394 77.1496 79.1599 76.6049 78.8337 76.1489C78.5074 75.6929 78.0498 75.3473 77.5219 75.1581L75.3435 74.1449C74.8211 73.8688 74.3506 73.5038 73.9532 73.0664C73.7461 72.8413 73.7877 72.382 73.7055 71.9879L79.9514 75.7267V75.7233ZM38.2299 84.4177L38.6036 80.59L39.1665 75.3405C39.2285 74.6988 39.3917 74.5108 40.0176 74.7776L43.9804 76.3762C44.1875 76.4595 44.3744 76.5834 44.6862 76.75L38.4607 84.5179C38.3834 84.4884 38.3082 84.4538 38.2355 84.4143L38.2299 84.4177ZM39.2881 82.0108C39.35 82.031 39.4007 82.031 39.4536 82.0524L43.3938 77.0314L39.9715 75.6805L39.287 82.0074L39.2881 82.0108ZM51.6109 48.6482C52.4004 48.926 53.164 49.2726 53.8929 49.6839C54.3246 49.9343 54.6405 50.3444 54.7726 50.8256C54.9046 51.3069 54.8422 51.8207 54.5988 52.2564L53.6024 54.6205C53.437 55.0562 53.2084 55.2217 52.7108 55.037L48.5612 53.5015C48.0636 53.336 48.0208 53.0658 48.2088 52.6301L49.1635 50.3482C49.3528 49.852 49.6882 49.4249 50.1254 49.1234C50.5626 48.8219 51.081 48.6601 51.6121 48.6595L51.6109 48.6482ZM49.0802 52.7765L52.5453 54.0419C52.6579 54.0835 52.9619 53.8955 53.0429 53.7311L53.8535 51.8849C53.9247 51.7678 53.9721 51.6378 53.9929 51.5024C54.0138 51.3669 54.0077 51.2287 53.9749 51.0956C53.9422 50.9626 53.8835 50.8373 53.8022 50.727C53.7208 50.6167 53.6185 50.5235 53.5011 50.4529C52.9137 50.1041 52.2773 49.8453 51.6132 49.6851C51.2833 49.5962 50.9318 49.6369 50.631 49.799C50.3301 49.961 50.1027 50.232 49.9954 50.5564L49.0948 52.7765H49.0802ZM75.9481 62.9648C75.7826 62.1768 76.2183 62.0732 76.6742 62.0101L80.5334 61.4923L79.9322 58.2759C79.912 58.1633 79.5585 57.9855 79.3693 58.0057L76.9624 58.2962C76.7373 57.6545 77.0457 57.4665 77.46 57.4046L80.0741 57.0668C80.2094 57.089 80.3364 57.1468 80.442 57.2342C80.5477 57.3217 80.6282 57.4356 80.6752 57.5644L81.4216 61.6735C81.4419 61.839 81.2348 62.2139 81.1109 62.2364L75.9323 62.9625L75.9481 62.9648Z" fill="#235EE1"/>
<path d="M48.2291 54.697L52.1085 56.1076L44.827 74.531C44.5793 75.1727 44.3091 75.2988 43.7012 74.9813C42.9069 74.5976 42.0891 74.2649 41.2526 73.985C40.6717 73.7778 40.5467 73.5347 40.8023 72.9065L47.2339 57.159L48.2302 54.6902L48.2291 54.697ZM50.2836 66.512L51.674 62.8397C51.7775 62.5921 52.2369 62.4041 52.5453 62.3421L59.9305 61.0554L62.0694 60.7233C62.1994 60.711 62.3304 60.7246 62.455 60.7632C62.5796 60.8019 62.6954 60.8648 62.7956 60.9484L65.2622 64.0409L50.2836 66.512ZM42.1926 63.8349L40.504 67.6322C40.3089 67.8583 40.0336 67.9996 39.7362 68.0262L35.5258 68.6071C35.3389 68.6274 34.9854 68.4 34.9629 68.2334C34.7611 67.3523 34.6219 66.4581 34.5463 65.5574C34.5261 65.3705 34.8987 64.9945 35.1475 64.9562L42.2016 63.8361L42.1926 63.8349ZM39.2881 82.0084L39.994 75.6815L43.4164 77.0325L39.4761 82.0535C39.412 82.0497 39.3489 82.0357 39.2892 82.0118L39.2881 82.0084ZM49.0824 52.7764L49.983 50.5777C50.0931 50.2552 50.321 49.9862 50.621 49.8246C50.921 49.6631 51.271 49.6208 51.6008 49.7064C52.268 49.857 52.9058 50.1164 53.4887 50.4741C53.7247 50.6179 53.8942 50.8492 53.9603 51.1175C54.0263 51.3858 53.9834 51.6693 53.8411 51.9061L53.0305 53.7524C52.9472 53.8988 52.6568 54.1048 52.5329 54.0631L49.0678 52.7764H49.0824Z" fill="#235EE1"/>
</g>
<defs>
<clipPath id="clip0_753_4436">
<rect width="72.0523" height="70" fill="white" transform="translate(24 25)"/>
</clipPath>
</defs>
</svg>
