<svg width="1076" height="768" viewBox="0 0 1076 768" fill="none" xmlns="http://www.w3.org/2000/svg">
<g style="mix-blend-mode:overlay">
<path d="M52.6818 -85H1V-33.3684M52.6818 -85V-33.3684M52.6818 -85H104.364M52.6818 -33.3684H1M52.6818 -33.3684V18.2632M52.6818 -33.3684H104.364M1 -33.3684V18.2632M52.6818 18.2632H1M52.6818 18.2632V69.8947M52.6818 18.2632H104.364M1 18.2632V69.8947M52.6818 69.8947H1M52.6818 69.8947V121.526M52.6818 69.8947H104.364M1 69.8947V121.526M52.6818 121.526H1M52.6818 121.526V173.158M52.6818 121.526H104.364M1 121.526V173.158M52.6818 173.158H1M52.6818 173.158V224.789M52.6818 173.158H104.364M1 173.158V224.789M52.6818 224.789H1M52.6818 224.789V276.421M52.6818 224.789H104.364M1 224.789V276.421M52.6818 276.421H1M52.6818 276.421V328.053M52.6818 276.421H104.364M1 276.421V328.053M52.6818 328.053H1M52.6818 328.053V379.684M52.6818 328.053H104.364M1 328.053V379.684M52.6818 379.684H1M52.6818 379.684V431.316M52.6818 379.684H104.364M1 379.684V431.316M52.6818 431.316H1M52.6818 431.316V482.947M52.6818 431.316H104.364M1 431.316V482.947M52.6818 482.947H1M52.6818 482.947V534.579M52.6818 482.947H104.364M1 482.947V534.579M52.6818 534.579H1M52.6818 534.579V586.211M52.6818 534.579H104.364M1 534.579V586.211M52.6818 586.211H1M52.6818 586.211V637.842M52.6818 586.211H104.364M1 586.211V637.842M52.6818 637.842H1M52.6818 637.842V689.474M52.6818 637.842H104.364M1 637.842V689.474M52.6818 689.474H1M52.6818 689.474V741.105M52.6818 689.474H104.364M1 689.474V741.105M52.6818 741.105H1M52.6818 741.105V792.737M52.6818 741.105H104.364M1 741.105V792.737M52.6818 792.737H1M52.6818 792.737V844.368M52.6818 792.737H104.364M1 792.737V844.368M52.6818 844.368H1M52.6818 844.368V896M52.6818 844.368H104.364M1 844.368V896H52.6818M52.6818 896H104.364M104.364 -85V-33.3684M104.364 -85H156.045M104.364 -33.3684V18.2632M104.364 -33.3684H156.045M104.364 18.2632V69.8947M104.364 18.2632H156.045M104.364 69.8947V121.526M104.364 69.8947H156.045M104.364 121.526V173.158M104.364 121.526H156.045M104.364 173.158V224.789M104.364 173.158H156.045M104.364 224.789V276.421M104.364 224.789H156.045M104.364 276.421V328.053M104.364 276.421H156.045M104.364 328.053V379.684M104.364 328.053H156.045M104.364 379.684V431.316M104.364 379.684H156.045M104.364 431.316V482.947M104.364 431.316H156.045M104.364 482.947V534.579M104.364 482.947H156.045M104.364 534.579V586.211M104.364 534.579H156.045M104.364 586.211V637.842M104.364 586.211H156.045M104.364 637.842V689.474M104.364 637.842H156.045M104.364 689.474V741.105M104.364 689.474H156.045M104.364 741.105V792.737M104.364 741.105H156.045M104.364 792.737V844.368M104.364 792.737H156.045M104.364 844.368V896M104.364 844.368H156.045M104.364 896H156.045M156.045 -85V-33.3684M156.045 -85H207.727M156.045 -33.3684V18.2632M156.045 -33.3684H207.727M156.045 18.2632V69.8947M156.045 18.2632H207.727M156.045 69.8947V121.526M156.045 69.8947H207.727M156.045 121.526V173.158M156.045 121.526H207.727M156.045 173.158V224.789M156.045 173.158H207.727M156.045 224.789V276.421M156.045 224.789H207.727M156.045 276.421V328.053M156.045 276.421H207.727M156.045 328.053V379.684M156.045 328.053H207.727M156.045 379.684V431.316M156.045 379.684H207.727M156.045 431.316V482.947M156.045 431.316H207.727M156.045 482.947V534.579M156.045 482.947H207.727M156.045 534.579V586.211M156.045 534.579H207.727M156.045 586.211V637.842M156.045 586.211H207.727M156.045 637.842V689.474M156.045 637.842H207.727M156.045 689.474V741.105M156.045 689.474H207.727M156.045 741.105V792.737M156.045 741.105H207.727M156.045 792.737V844.368M156.045 792.737H207.727M156.045 844.368V896M156.045 844.368H207.727M156.045 896H207.727M207.727 -85V-33.3684M207.727 -85H259.409M207.727 -33.3684V18.2632M207.727 -33.3684H259.409M207.727 18.2632V69.8947M207.727 18.2632H259.409M207.727 69.8947V121.526M207.727 69.8947H259.409M207.727 121.526V173.158M207.727 121.526H259.409M207.727 173.158V224.789M207.727 173.158H259.409M207.727 224.789V276.421M207.727 224.789H259.409M207.727 276.421V328.053M207.727 276.421H259.409M207.727 328.053V379.684M207.727 328.053H259.409M207.727 379.684V431.316M207.727 379.684H259.409M207.727 431.316V482.947M207.727 431.316H259.409M207.727 482.947V534.579M207.727 482.947H259.409M207.727 534.579V586.211M207.727 534.579H259.409M207.727 586.211V637.842M207.727 586.211H259.409M207.727 637.842V689.474M207.727 637.842H259.409M207.727 689.474V741.105M207.727 689.474H259.409M207.727 741.105V792.737M207.727 741.105H259.409M207.727 792.737V844.368M207.727 792.737H259.409M207.727 844.368V896M207.727 844.368H259.409M207.727 896H259.409M259.409 -85V-33.3684M259.409 -85H311.091M259.409 -33.3684V18.2632M259.409 -33.3684H311.091M259.409 18.2632V69.8947M259.409 18.2632H311.091M259.409 69.8947V121.526M259.409 69.8947H311.091M259.409 121.526V173.158M259.409 121.526H311.091M259.409 173.158V224.789M259.409 173.158H311.091M259.409 224.789V276.421M259.409 224.789H311.091M259.409 276.421V328.053M259.409 276.421H311.091M259.409 328.053V379.684M259.409 328.053H311.091M259.409 379.684V431.316M259.409 379.684H311.091M259.409 431.316V482.947M259.409 431.316H311.091M259.409 482.947V534.579M259.409 482.947H311.091M259.409 534.579V586.211M259.409 534.579H311.091M259.409 586.211V637.842M259.409 586.211H311.091M259.409 637.842V689.474M259.409 637.842H311.091M259.409 689.474V741.105M259.409 689.474H311.091M259.409 741.105V792.737M259.409 741.105H311.091M259.409 792.737V844.368M259.409 792.737H311.091M259.409 844.368V896M259.409 844.368H311.091M259.409 896H311.091M311.091 -85V-33.3684M311.091 -85H362.773M311.091 -33.3684V18.2632M311.091 -33.3684H362.773M311.091 18.2632V69.8947M311.091 18.2632H362.773M311.091 69.8947V121.526M311.091 69.8947H362.773M311.091 121.526V173.158M311.091 121.526H362.773M311.091 173.158V224.789M311.091 173.158H362.773M311.091 224.789V276.421M311.091 224.789H362.773M311.091 276.421V328.053M311.091 276.421H362.773M311.091 328.053V379.684M311.091 328.053H362.773M311.091 379.684V431.316M311.091 379.684H362.773M311.091 431.316V482.947M311.091 431.316H362.773M311.091 482.947V534.579M311.091 482.947H362.773M311.091 534.579V586.211M311.091 534.579H362.773M311.091 586.211V637.842M311.091 586.211H362.773M311.091 637.842V689.474M311.091 637.842H362.773M311.091 689.474V741.105M311.091 689.474H362.773M311.091 741.105V792.737M311.091 741.105H362.773M311.091 792.737V844.368M311.091 792.737H362.773M311.091 844.368V896M311.091 844.368H362.773M311.091 896H362.773M362.773 -85V-33.3684M362.773 -85H414.455M362.773 -33.3684V18.2632M362.773 -33.3684H414.455M362.773 18.2632V69.8947M362.773 18.2632H414.455M362.773 69.8947V121.526M362.773 69.8947H414.455M362.773 121.526V173.158M362.773 121.526H414.455M362.773 173.158V224.789M362.773 173.158H414.455M362.773 224.789V276.421M362.773 224.789H414.455M362.773 276.421V328.053M362.773 276.421H414.455M362.773 328.053V379.684M362.773 328.053H414.455M362.773 379.684V431.316M362.773 379.684H414.455M362.773 431.316V482.947M362.773 431.316H414.455M362.773 482.947V534.579M362.773 482.947H414.455M362.773 534.579V586.211M362.773 534.579H414.455M362.773 586.211V637.842M362.773 586.211H414.455M362.773 637.842V689.474M362.773 637.842H414.455M362.773 689.474V741.105M362.773 689.474H414.455M362.773 741.105V792.737M362.773 741.105H414.455M362.773 792.737V844.368M362.773 792.737H414.455M362.773 844.368V896M362.773 844.368H414.455M362.773 896H414.455M414.455 -85V-33.3684M414.455 -85H466.136M414.455 -33.3684V18.2632M414.455 -33.3684H466.136M414.455 18.2632V69.8947M414.455 18.2632H466.136M414.455 69.8947V121.526M414.455 69.8947H466.136M414.455 121.526V173.158M414.455 121.526H466.136M414.455 173.158V224.789M414.455 173.158H466.136M414.455 224.789V276.421M414.455 224.789H466.136M414.455 276.421V328.053M414.455 276.421H466.136M414.455 328.053V379.684M414.455 328.053H466.136M414.455 379.684V431.316M414.455 379.684H466.136M414.455 431.316V482.947M414.455 431.316H466.136M414.455 482.947V534.579M414.455 482.947H466.136M414.455 534.579V586.211M414.455 534.579H466.136M414.455 586.211V637.842M414.455 586.211H466.136M414.455 637.842V689.474M414.455 637.842H466.136M414.455 689.474V741.105M414.455 689.474H466.136M414.455 741.105V792.737M414.455 741.105H466.136M414.455 792.737V844.368M414.455 792.737H466.136M414.455 844.368V896M414.455 844.368H466.136M414.455 896H466.136M466.136 -85V-33.3684M466.136 -85H517.818M466.136 -33.3684V18.2632M466.136 -33.3684H517.818M466.136 18.2632V69.8947M466.136 18.2632H517.818M466.136 69.8947V121.526M466.136 69.8947H517.818M466.136 121.526V173.158M466.136 121.526H517.818M466.136 173.158V224.789M466.136 173.158H517.818M466.136 224.789V276.421M466.136 224.789H517.818M466.136 276.421V328.053M466.136 276.421H517.818M466.136 328.053V379.684M466.136 328.053H517.818M466.136 379.684V431.316M466.136 379.684H517.818M466.136 431.316V482.947M466.136 431.316H517.818M466.136 482.947V534.579M466.136 482.947H517.818M466.136 534.579V586.211M466.136 534.579H517.818M466.136 586.211V637.842M466.136 586.211H517.818M466.136 637.842V689.474M466.136 637.842H517.818M466.136 689.474V741.105M466.136 689.474H517.818M466.136 741.105V792.737M466.136 741.105H517.818M466.136 792.737V844.368M466.136 792.737H517.818M466.136 844.368V896M466.136 844.368H517.818M466.136 896H517.818M517.818 -85V-33.3684M517.818 -85H569.5M517.818 -33.3684V18.2632M517.818 -33.3684H569.5M517.818 18.2632V69.8947M517.818 18.2632H569.5M517.818 69.8947V121.526M517.818 69.8947H569.5M517.818 121.526V173.158M517.818 121.526H569.5M517.818 173.158V224.789M517.818 173.158H569.5M517.818 224.789V276.421M517.818 224.789H569.5M517.818 276.421V328.053M517.818 276.421H569.5M517.818 328.053V379.684M517.818 328.053H569.5M517.818 379.684V431.316M517.818 379.684H569.5M517.818 431.316V482.947M517.818 431.316H569.5M517.818 482.947V534.579M517.818 482.947H569.5M517.818 534.579V586.211M517.818 534.579H569.5M517.818 586.211V637.842M517.818 586.211H569.5M517.818 637.842V689.474M517.818 637.842H569.5M517.818 689.474V741.105M517.818 689.474H569.5M517.818 741.105V792.737M517.818 741.105H569.5M517.818 792.737V844.368M517.818 792.737H569.5M517.818 844.368V896M517.818 844.368H569.5M517.818 896H569.5M569.5 -85V-33.3684M569.5 -85H621.182M569.5 -33.3684V18.2632M569.5 -33.3684H621.182M569.5 18.2632V69.8947M569.5 18.2632H621.182M569.5 69.8947V121.526M569.5 69.8947H621.182M569.5 121.526V173.158M569.5 121.526H621.182M569.5 173.158V224.789M569.5 173.158H621.182M569.5 224.789V276.421M569.5 224.789H621.182M569.5 276.421V328.053M569.5 276.421H621.182M569.5 328.053V379.684M569.5 328.053H621.182M569.5 379.684V431.316M569.5 379.684H621.182M569.5 431.316V482.947M569.5 431.316H621.182M569.5 482.947V534.579M569.5 482.947H621.182M569.5 534.579V586.211M569.5 534.579H621.182M569.5 586.211V637.842M569.5 586.211H621.182M569.5 637.842V689.474M569.5 637.842H621.182M569.5 689.474V741.105M569.5 689.474H621.182M569.5 741.105V792.737M569.5 741.105H621.182M569.5 792.737V844.368M569.5 792.737H621.182M569.5 844.368V896M569.5 844.368H621.182M569.5 896H621.182M621.182 -85V-33.3684M621.182 -85H672.864M621.182 -33.3684V18.2632M621.182 -33.3684H672.864M621.182 18.2632V69.8947M621.182 18.2632H672.864M621.182 69.8947V121.526M621.182 69.8947H672.864M621.182 121.526V173.158M621.182 121.526H672.864M621.182 173.158V224.789M621.182 173.158H672.864M621.182 224.789V276.421M621.182 224.789H672.864M621.182 276.421V328.053M621.182 276.421H672.864M621.182 328.053V379.684M621.182 328.053H672.864M621.182 379.684V431.316M621.182 379.684H672.864M621.182 431.316V482.947M621.182 431.316H672.864M621.182 482.947V534.579M621.182 482.947H672.864M621.182 534.579V586.211M621.182 534.579H672.864M621.182 586.211V637.842M621.182 586.211H672.864M621.182 637.842V689.474M621.182 637.842H672.864M621.182 689.474V741.105M621.182 689.474H672.864M621.182 741.105V792.737M621.182 741.105H672.864M621.182 792.737V844.368M621.182 792.737H672.864M621.182 844.368V896M621.182 844.368H672.864M621.182 896H672.864M672.864 -85V-33.3684M672.864 -85H724.545M672.864 -33.3684V18.2632M672.864 -33.3684H724.545M672.864 18.2632V69.8947M672.864 18.2632H724.545M672.864 69.8947V121.526M672.864 69.8947H724.545M672.864 121.526V173.158M672.864 121.526H724.545M672.864 173.158V224.789M672.864 173.158H724.545M672.864 224.789V276.421M672.864 224.789H724.545M672.864 276.421V328.053M672.864 276.421H724.545M672.864 328.053V379.684M672.864 328.053H724.545M672.864 379.684V431.316M672.864 379.684H724.545M672.864 431.316V482.947M672.864 431.316H724.545M672.864 482.947V534.579M672.864 482.947H724.545M672.864 534.579V586.211M672.864 534.579H724.545M672.864 586.211V637.842M672.864 586.211H724.545M672.864 637.842V689.474M672.864 637.842H724.545M672.864 689.474V741.105M672.864 689.474H724.545M672.864 741.105V792.737M672.864 741.105H724.545M672.864 792.737V844.368M672.864 792.737H724.545M672.864 844.368V896M672.864 844.368H724.545M672.864 896H724.545M724.545 -85V-33.3684M724.545 -85H776.227M724.545 -33.3684V18.2632M724.545 -33.3684H776.227M724.545 18.2632V69.8947M724.545 18.2632H776.227M724.545 69.8947V121.526M724.545 69.8947H776.227M724.545 121.526V173.158M724.545 121.526H776.227M724.545 173.158V224.789M724.545 173.158H776.227M724.545 224.789V276.421M724.545 224.789H776.227M724.545 276.421V328.053M724.545 276.421H776.227M724.545 328.053V379.684M724.545 328.053H776.227M724.545 379.684V431.316M724.545 379.684H776.227M724.545 431.316V482.947M724.545 431.316H776.227M724.545 482.947V534.579M724.545 482.947H776.227M724.545 534.579V586.211M724.545 534.579H776.227M724.545 586.211V637.842M724.545 586.211H776.227M724.545 637.842V689.474M724.545 637.842H776.227M724.545 689.474V741.105M724.545 689.474H776.227M724.545 741.105V792.737M724.545 741.105H776.227M724.545 792.737V844.368M724.545 792.737H776.227M724.545 844.368V896M724.545 844.368H776.227M724.545 896H776.227M776.227 -85V-33.3684M776.227 -85H827.909M776.227 -33.3684V18.2632M776.227 -33.3684H827.909M776.227 18.2632V69.8947M776.227 18.2632H827.909M776.227 69.8947V121.526M776.227 69.8947H827.909M776.227 121.526V173.158M776.227 121.526H827.909M776.227 173.158V224.789M776.227 173.158H827.909M776.227 224.789V276.421M776.227 224.789H827.909M776.227 276.421V328.053M776.227 276.421H827.909M776.227 328.053V379.684M776.227 328.053H827.909M776.227 379.684V431.316M776.227 379.684H827.909M776.227 431.316V482.947M776.227 431.316H827.909M776.227 482.947V534.579M776.227 482.947H827.909M776.227 534.579V586.211M776.227 534.579H827.909M776.227 586.211V637.842M776.227 586.211H827.909M776.227 637.842V689.474M776.227 637.842H827.909M776.227 689.474V741.105M776.227 689.474H827.909M776.227 741.105V792.737M776.227 741.105H827.909M776.227 792.737V844.368M776.227 792.737H827.909M776.227 844.368V896M776.227 844.368H827.909M776.227 896H827.909M827.909 -85V-33.3684M827.909 -85H879.591M827.909 -33.3684V18.2632M827.909 -33.3684H879.591M827.909 18.2632V69.8947M827.909 18.2632H879.591M827.909 69.8947V121.526M827.909 69.8947H879.591M827.909 121.526V173.158M827.909 121.526H879.591M827.909 173.158V224.789M827.909 173.158H879.591M827.909 224.789V276.421M827.909 224.789H879.591M827.909 276.421V328.053M827.909 276.421H879.591M827.909 328.053V379.684M827.909 328.053H879.591M827.909 379.684V431.316M827.909 379.684H879.591M827.909 431.316V482.947M827.909 431.316H879.591M827.909 482.947V534.579M827.909 482.947H879.591M827.909 534.579V586.211M827.909 534.579H879.591M827.909 586.211V637.842M827.909 586.211H879.591M827.909 637.842V689.474M827.909 637.842H879.591M827.909 689.474V741.105M827.909 689.474H879.591M827.909 741.105V792.737M827.909 741.105H879.591M827.909 792.737V844.368M827.909 792.737H879.591M827.909 844.368V896M827.909 844.368H879.591M827.909 896H879.591M879.591 -85V-33.3684M879.591 -85H931.273M879.591 -33.3684V18.2632M879.591 -33.3684H931.273M879.591 18.2632V69.8947M879.591 18.2632H931.273M879.591 69.8947V121.526M879.591 69.8947H931.273M879.591 121.526V173.158M879.591 121.526H931.273M879.591 173.158V224.789M879.591 173.158H931.273M879.591 224.789V276.421M879.591 224.789H931.273M879.591 276.421V328.053M879.591 276.421H931.273M879.591 328.053V379.684M879.591 328.053H931.273M879.591 379.684V431.316M879.591 379.684H931.273M879.591 431.316V482.947M879.591 431.316H931.273M879.591 482.947V534.579M879.591 482.947H931.273M879.591 534.579V586.211M879.591 534.579H931.273M879.591 586.211V637.842M879.591 586.211H931.273M879.591 637.842V689.474M879.591 637.842H931.273M879.591 689.474V741.105M879.591 689.474H931.273M879.591 741.105V792.737M879.591 741.105H931.273M879.591 792.737V844.368M879.591 792.737H931.273M879.591 844.368V896M879.591 844.368H931.273M879.591 896H931.273M931.273 -85V-33.3684M931.273 -85H982.955M931.273 -33.3684V18.2632M931.273 -33.3684H982.955M931.273 18.2632V69.8947M931.273 18.2632H982.955M931.273 69.8947V121.526M931.273 69.8947H982.955M931.273 121.526V173.158M931.273 121.526H982.955M931.273 173.158V224.789M931.273 173.158H982.955M931.273 224.789V276.421M931.273 224.789H982.955M931.273 276.421V328.053M931.273 276.421H982.955M931.273 328.053V379.684M931.273 328.053H982.955M931.273 379.684V431.316M931.273 379.684H982.955M931.273 431.316V482.947M931.273 431.316H982.955M931.273 482.947V534.579M931.273 482.947H982.955M931.273 534.579V586.211M931.273 534.579H982.955M931.273 586.211V637.842M931.273 586.211H982.955M931.273 637.842V689.474M931.273 637.842H982.955M931.273 689.474V741.105M931.273 689.474H982.955M931.273 741.105V792.737M931.273 741.105H982.955M931.273 792.737V844.368M931.273 792.737H982.955M931.273 844.368V896M931.273 844.368H982.955M931.273 896H982.955M982.955 -85V-33.3684M982.955 -85H1034.64M982.955 -33.3684V18.2632M982.955 -33.3684H1034.64M982.955 18.2632V69.8947M982.955 18.2632H1034.64M982.955 69.8947V121.526M982.955 69.8947H1034.64M982.955 121.526V173.158M982.955 121.526H1034.64M982.955 173.158V224.789M982.955 173.158H1034.64M982.955 224.789V276.421M982.955 224.789H1034.64M982.955 276.421V328.053M982.955 276.421H1034.64M982.955 328.053V379.684M982.955 328.053H1034.64M982.955 379.684V431.316M982.955 379.684H1034.64M982.955 431.316V482.947M982.955 431.316H1034.64M982.955 482.947V534.579M982.955 482.947H1034.64M982.955 534.579V586.211M982.955 534.579H1034.64M982.955 586.211V637.842M982.955 586.211H1034.64M982.955 637.842V689.474M982.955 637.842H1034.64M982.955 689.474V741.105M982.955 689.474H1034.64M982.955 741.105V792.737M982.955 741.105H1034.64M982.955 792.737V844.368M982.955 792.737H1034.64M982.955 844.368V896M982.955 844.368H1034.64M982.955 896H1034.64M1034.64 -85V-33.3684M1034.64 -85H1086.32M1034.64 -33.3684V18.2632M1034.64 -33.3684H1086.32M1034.64 18.2632V69.8947M1034.64 18.2632H1086.32M1034.64 69.8947V121.526M1034.64 69.8947H1086.32M1034.64 121.526V173.158M1034.64 121.526H1086.32M1034.64 173.158V224.789M1034.64 173.158H1086.32M1034.64 224.789V276.421M1034.64 224.789H1086.32M1034.64 276.421V328.053M1034.64 276.421H1086.32M1034.64 328.053V379.684M1034.64 328.053H1086.32M1034.64 379.684V431.316M1034.64 379.684H1086.32M1034.64 431.316V482.947M1034.64 431.316H1086.32M1034.64 482.947V534.579M1034.64 482.947H1086.32M1034.64 534.579V586.211M1034.64 534.579H1086.32M1034.64 586.211V637.842M1034.64 586.211H1086.32M1034.64 637.842V689.474M1034.64 637.842H1086.32M1034.64 689.474V741.105M1034.64 689.474H1086.32M1034.64 741.105V792.737M1034.64 741.105H1086.32M1034.64 792.737V844.368M1034.64 792.737H1086.32M1034.64 844.368V896M1034.64 844.368H1086.32M1034.64 896H1086.32M1086.32 -85V-33.3684M1086.32 -85H1138M1086.32 -33.3684V18.2632M1086.32 -33.3684H1138M1086.32 18.2632V69.8947M1086.32 18.2632H1138M1086.32 69.8947V121.526M1086.32 69.8947H1138M1086.32 121.526V173.158M1086.32 121.526H1138M1086.32 173.158V224.789M1086.32 173.158H1138M1086.32 224.789V276.421M1086.32 224.789H1138M1086.32 276.421V328.053M1086.32 276.421H1138M1086.32 328.053V379.684M1086.32 328.053H1138M1086.32 379.684V431.316M1086.32 379.684H1138M1086.32 431.316V482.947M1086.32 431.316H1138M1086.32 482.947V534.579M1086.32 482.947H1138M1086.32 534.579V586.211M1086.32 534.579H1138M1086.32 586.211V637.842M1086.32 586.211H1138M1086.32 637.842V689.474M1086.32 637.842H1138M1086.32 689.474V741.105M1086.32 689.474H1138M1086.32 741.105V792.737M1086.32 741.105H1138M1086.32 792.737V844.368M1086.32 792.737H1138M1086.32 844.368V896M1086.32 844.368H1138M1086.32 896H1138M1138 -85V-33.3684M1138 -85H1189.68M1138 -33.3684V18.2632M1138 -33.3684H1189.68M1138 18.2632V69.8947M1138 18.2632H1189.68M1138 69.8947V121.526M1138 69.8947H1189.68M1138 121.526V173.158M1138 121.526H1189.68M1138 173.158V224.789M1138 173.158H1189.68M1138 224.789V276.421M1138 224.789H1189.68M1138 276.421V328.053M1138 276.421H1189.68M1138 328.053V379.684M1138 328.053H1189.68M1138 379.684V431.316M1138 379.684H1189.68M1138 431.316V482.947M1138 431.316H1189.68M1138 482.947V534.579M1138 482.947H1189.68M1138 534.579V586.211M1138 534.579H1189.68M1138 586.211V637.842M1138 586.211H1189.68M1138 637.842V689.474M1138 637.842H1189.68M1138 689.474V741.105M1138 689.474H1189.68M1138 741.105V792.737M1138 741.105H1189.68M1138 792.737V844.368M1138 792.737H1189.68M1138 844.368V896M1138 844.368H1189.68M1138 896H1189.68M1189.68 -85V-33.3684M1189.68 -85H1241.36M1189.68 -33.3684V18.2632M1189.68 -33.3684H1241.36M1189.68 18.2632V69.8947M1189.68 18.2632H1241.36M1189.68 69.8947V121.526M1189.68 69.8947H1241.36M1189.68 121.526V173.158M1189.68 121.526H1241.36M1189.68 173.158V224.789M1189.68 173.158H1241.36M1189.68 224.789V276.421M1189.68 224.789H1241.36M1189.68 276.421V328.053M1189.68 276.421H1241.36M1189.68 328.053V379.684M1189.68 328.053H1241.36M1189.68 379.684V431.316M1189.68 379.684H1241.36M1189.68 431.316V482.947M1189.68 431.316H1241.36M1189.68 482.947V534.579M1189.68 482.947H1241.36M1189.68 534.579V586.211M1189.68 534.579H1241.36M1189.68 586.211V637.842M1189.68 586.211H1241.36M1189.68 637.842V689.474M1189.68 637.842H1241.36M1189.68 689.474V741.105M1189.68 689.474H1241.36M1189.68 741.105V792.737M1189.68 741.105H1241.36M1189.68 792.737V844.368M1189.68 792.737H1241.36M1189.68 844.368V896M1189.68 844.368H1241.36M1189.68 896H1241.36M1241.36 -85V-33.3684M1241.36 -85H1293.05M1241.36 -33.3684V18.2632M1241.36 -33.3684H1293.05M1241.36 18.2632V69.8947M1241.36 18.2632H1293.05M1241.36 69.8947V121.526M1241.36 69.8947H1293.05M1241.36 121.526V173.158M1241.36 121.526H1293.05M1241.36 173.158V224.789M1241.36 173.158H1293.05M1241.36 224.789V276.421M1241.36 224.789H1293.05M1241.36 276.421V328.053M1241.36 276.421H1293.05M1241.36 328.053V379.684M1241.36 328.053H1293.05M1241.36 379.684V431.316M1241.36 379.684H1293.05M1241.36 431.316V482.947M1241.36 431.316H1293.05M1241.36 482.947V534.579M1241.36 482.947H1293.05M1241.36 534.579V586.211M1241.36 534.579H1293.05M1241.36 586.211V637.842M1241.36 586.211H1293.05M1241.36 637.842V689.474M1241.36 637.842H1293.05M1241.36 689.474V741.105M1241.36 689.474H1293.05M1241.36 741.105V792.737M1241.36 741.105H1293.05M1241.36 792.737V844.368M1241.36 792.737H1293.05M1241.36 844.368V896M1241.36 844.368H1293.05M1241.36 896H1293.05M1293.05 -85V-33.3684M1293.05 -85H1344.73M1293.05 -33.3684V18.2632M1293.05 -33.3684H1344.73M1293.05 18.2632V69.8947M1293.05 18.2632H1344.73M1293.05 69.8947V121.526M1293.05 69.8947H1344.73M1293.05 121.526V173.158M1293.05 121.526H1344.73M1293.05 173.158V224.789M1293.05 173.158H1344.73M1293.05 224.789V276.421M1293.05 224.789H1344.73M1293.05 276.421V328.053M1293.05 276.421H1344.73M1293.05 328.053V379.684M1293.05 328.053H1344.73M1293.05 379.684V431.316M1293.05 379.684H1344.73M1293.05 431.316V482.947M1293.05 431.316H1344.73M1293.05 482.947V534.579M1293.05 482.947H1344.73M1293.05 534.579V586.211M1293.05 534.579H1344.73M1293.05 586.211V637.842M1293.05 586.211H1344.73M1293.05 637.842V689.474M1293.05 637.842H1344.73M1293.05 689.474V741.105M1293.05 689.474H1344.73M1293.05 741.105V792.737M1293.05 741.105H1344.73M1293.05 792.737V844.368M1293.05 792.737H1344.73M1293.05 844.368V896M1293.05 844.368H1344.73M1293.05 896H1344.73M1344.73 -85V-33.3684M1344.73 -85H1396.41M1344.73 -33.3684V18.2632M1344.73 -33.3684H1396.41M1344.73 18.2632V69.8947M1344.73 18.2632H1396.41M1344.73 69.8947V121.526M1344.73 69.8947H1396.41M1344.73 121.526V173.158M1344.73 121.526H1396.41M1344.73 173.158V224.789M1344.73 173.158H1396.41M1344.73 224.789V276.421M1344.73 224.789H1396.41M1344.73 276.421V328.053M1344.73 276.421H1396.41M1344.73 328.053V379.684M1344.73 328.053H1396.41M1344.73 379.684V431.316M1344.73 379.684H1396.41M1344.73 431.316V482.947M1344.73 431.316H1396.41M1344.73 482.947V534.579M1344.73 482.947H1396.41M1344.73 534.579V586.211M1344.73 534.579H1396.41M1344.73 586.211V637.842M1344.73 586.211H1396.41M1344.73 637.842V689.474M1344.73 637.842H1396.41M1344.73 689.474V741.105M1344.73 689.474H1396.41M1344.73 741.105V792.737M1344.73 741.105H1396.41M1344.73 792.737V844.368M1344.73 792.737H1396.41M1344.73 844.368V896M1344.73 844.368H1396.41M1344.73 896H1396.41M1396.41 -85V-33.3684M1396.41 -85H1448.09M1396.41 -33.3684V18.2632M1396.41 -33.3684H1448.09M1396.41 18.2632V69.8947M1396.41 18.2632H1448.09M1396.41 69.8947V121.526M1396.41 69.8947H1448.09M1396.41 121.526V173.158M1396.41 121.526H1448.09M1396.41 173.158V224.789M1396.41 173.158H1448.09M1396.41 224.789V276.421M1396.41 224.789H1448.09M1396.41 276.421V328.053M1396.41 276.421H1448.09M1396.41 328.053V379.684M1396.41 328.053H1448.09M1396.41 379.684V431.316M1396.41 379.684H1448.09M1396.41 431.316V482.947M1396.41 431.316H1448.09M1396.41 482.947V534.579M1396.41 482.947H1448.09M1396.41 534.579V586.211M1396.41 534.579H1448.09M1396.41 586.211V637.842M1396.41 586.211H1448.09M1396.41 637.842V689.474M1396.41 637.842H1448.09M1396.41 689.474V741.105M1396.41 689.474H1448.09M1396.41 741.105V792.737M1396.41 741.105H1448.09M1396.41 792.737V844.368M1396.41 792.737H1448.09M1396.41 844.368V896M1396.41 844.368H1448.09M1396.41 896H1448.09M1448.09 -85V-33.3684M1448.09 -85H1499.77M1448.09 -33.3684V18.2632M1448.09 -33.3684H1499.77M1448.09 18.2632V69.8947M1448.09 18.2632H1499.77M1448.09 69.8947V121.526M1448.09 69.8947H1499.77M1448.09 121.526V173.158M1448.09 121.526H1499.77M1448.09 173.158V224.789M1448.09 173.158H1499.77M1448.09 224.789V276.421M1448.09 224.789H1499.77M1448.09 276.421V328.053M1448.09 276.421H1499.77M1448.09 328.053V379.684M1448.09 328.053H1499.77M1448.09 379.684V431.316M1448.09 379.684H1499.77M1448.09 431.316V482.947M1448.09 431.316H1499.77M1448.09 482.947V534.579M1448.09 482.947H1499.77M1448.09 534.579V586.211M1448.09 534.579H1499.77M1448.09 586.211V637.842M1448.09 586.211H1499.77M1448.09 637.842V689.474M1448.09 637.842H1499.77M1448.09 689.474V741.105M1448.09 689.474H1499.77M1448.09 741.105V792.737M1448.09 741.105H1499.77M1448.09 792.737V844.368M1448.09 792.737H1499.77M1448.09 844.368V896M1448.09 844.368H1499.77M1448.09 896H1499.77M1499.77 -85V-33.3684M1499.77 -85H1551.45M1499.77 -33.3684V18.2632M1499.77 -33.3684H1551.45M1499.77 18.2632V69.8947M1499.77 18.2632H1551.45M1499.77 69.8947V121.526M1499.77 69.8947H1551.45M1499.77 121.526V173.158M1499.77 121.526H1551.45M1499.77 173.158V224.789M1499.77 173.158H1551.45M1499.77 224.789V276.421M1499.77 224.789H1551.45M1499.77 276.421V328.053M1499.77 276.421H1551.45M1499.77 328.053V379.684M1499.77 328.053H1551.45M1499.77 379.684V431.316M1499.77 379.684H1551.45M1499.77 431.316V482.947M1499.77 431.316H1551.45M1499.77 482.947V534.579M1499.77 482.947H1551.45M1499.77 534.579V586.211M1499.77 534.579H1551.45M1499.77 586.211V637.842M1499.77 586.211H1551.45M1499.77 637.842V689.474M1499.77 637.842H1551.45M1499.77 689.474V741.105M1499.77 689.474H1551.45M1499.77 741.105V792.737M1499.77 741.105H1551.45M1499.77 792.737V844.368M1499.77 792.737H1551.45M1499.77 844.368V896M1499.77 844.368H1551.45M1499.77 896H1551.45M1551.45 -85V-33.3684M1551.45 -85H1603.14M1551.45 -33.3684V18.2632M1551.45 -33.3684H1603.14M1551.45 18.2632V69.8947M1551.45 18.2632H1603.14M1551.45 69.8947V121.526M1551.45 69.8947H1603.14M1551.45 121.526V173.158M1551.45 121.526H1603.14M1551.45 173.158V224.789M1551.45 173.158H1603.14M1551.45 224.789V276.421M1551.45 224.789H1603.14M1551.45 276.421V328.053M1551.45 276.421H1603.14M1551.45 328.053V379.684M1551.45 328.053H1603.14M1551.45 379.684V431.316M1551.45 379.684H1603.14M1551.45 431.316V482.947M1551.45 431.316H1603.14M1551.45 482.947V534.579M1551.45 482.947H1603.14M1551.45 534.579V586.211M1551.45 534.579H1603.14M1551.45 586.211V637.842M1551.45 586.211H1603.14M1551.45 637.842V689.474M1551.45 637.842H1603.14M1551.45 689.474V741.105M1551.45 689.474H1603.14M1551.45 741.105V792.737M1551.45 741.105H1603.14M1551.45 792.737V844.368M1551.45 792.737H1603.14M1551.45 844.368V896M1551.45 844.368H1603.14M1551.45 896H1603.14M1603.14 -85V-33.3684M1603.14 -85H1654.82M1603.14 -33.3684V18.2632M1603.14 -33.3684H1654.82M1603.14 18.2632V69.8947M1603.14 18.2632H1654.82M1603.14 69.8947V121.526M1603.14 69.8947H1654.82M1603.14 121.526V173.158M1603.14 121.526H1654.82M1603.14 173.158V224.789M1603.14 173.158H1654.82M1603.14 224.789V276.421M1603.14 224.789H1654.82M1603.14 276.421V328.053M1603.14 276.421H1654.82M1603.14 328.053V379.684M1603.14 328.053H1654.82M1603.14 379.684V431.316M1603.14 379.684H1654.82M1603.14 431.316V482.947M1603.14 431.316H1654.82M1603.14 482.947V534.579M1603.14 482.947H1654.82M1603.14 534.579V586.211M1603.14 534.579H1654.82M1603.14 586.211V637.842M1603.14 586.211H1654.82M1603.14 637.842V689.474M1603.14 637.842H1654.82M1603.14 689.474V741.105M1603.14 689.474H1654.82M1603.14 741.105V792.737M1603.14 741.105H1654.82M1603.14 792.737V844.368M1603.14 792.737H1654.82M1603.14 844.368V896M1603.14 844.368H1654.82M1603.14 896H1654.82M1654.82 -85V-33.3684M1654.82 -85H1706.5M1654.82 -33.3684V18.2632M1654.82 -33.3684H1706.5M1654.82 18.2632V69.8947M1654.82 18.2632H1706.5M1654.82 69.8947V121.526M1654.82 69.8947H1706.5M1654.82 121.526V173.158M1654.82 121.526H1706.5M1654.82 173.158V224.789M1654.82 173.158H1706.5M1654.82 224.789V276.421M1654.82 224.789H1706.5M1654.82 276.421V328.053M1654.82 276.421H1706.5M1654.82 328.053V379.684M1654.82 328.053H1706.5M1654.82 379.684V431.316M1654.82 379.684H1706.5M1654.82 431.316V482.947M1654.82 431.316H1706.5M1654.82 482.947V534.579M1654.82 482.947H1706.5M1654.82 534.579V586.211M1654.82 534.579H1706.5M1654.82 586.211V637.842M1654.82 586.211H1706.5M1654.82 637.842V689.474M1654.82 637.842H1706.5M1654.82 689.474V741.105M1654.82 689.474H1706.5M1654.82 741.105V792.737M1654.82 741.105H1706.5M1654.82 792.737V844.368M1654.82 792.737H1706.5M1654.82 844.368V896M1654.82 844.368H1706.5M1654.82 896H1706.5M1706.5 -85V-33.3684M1706.5 -85H1758.18M1706.5 -33.3684V18.2632M1706.5 -33.3684H1758.18M1706.5 18.2632V69.8947M1706.5 18.2632H1758.18M1706.5 69.8947V121.526M1706.5 69.8947H1758.18M1706.5 121.526V173.158M1706.5 121.526H1758.18M1706.5 173.158V224.789M1706.5 173.158H1758.18M1706.5 224.789V276.421M1706.5 224.789H1758.18M1706.5 276.421V328.053M1706.5 276.421H1758.18M1706.5 328.053V379.684M1706.5 328.053H1758.18M1706.5 379.684V431.316M1706.5 379.684H1758.18M1706.5 431.316V482.947M1706.5 431.316H1758.18M1706.5 482.947V534.579M1706.5 482.947H1758.18M1706.5 534.579V586.211M1706.5 534.579H1758.18M1706.5 586.211V637.842M1706.5 586.211H1758.18M1706.5 637.842V689.474M1706.5 637.842H1758.18M1706.5 689.474V741.105M1706.5 689.474H1758.18M1706.5 741.105V792.737M1706.5 741.105H1758.18M1706.5 792.737V844.368M1706.5 792.737H1758.18M1706.5 844.368V896M1706.5 844.368H1758.18M1706.5 896H1758.18M1758.18 -85V-33.3684M1758.18 -85H1809.86M1758.18 -33.3684V18.2632M1758.18 -33.3684H1809.86M1758.18 18.2632V69.8947M1758.18 18.2632H1809.86M1758.18 69.8947V121.526M1758.18 69.8947H1809.86M1758.18 121.526V173.158M1758.18 121.526H1809.86M1758.18 173.158V224.789M1758.18 173.158H1809.86M1758.18 224.789V276.421M1758.18 224.789H1809.86M1758.18 276.421V328.053M1758.18 276.421H1809.86M1758.18 328.053V379.684M1758.18 328.053H1809.86M1758.18 379.684V431.316M1758.18 379.684H1809.86M1758.18 431.316V482.947M1758.18 431.316H1809.86M1758.18 482.947V534.579M1758.18 482.947H1809.86M1758.18 534.579V586.211M1758.18 534.579H1809.86M1758.18 586.211V637.842M1758.18 586.211H1809.86M1758.18 637.842V689.474M1758.18 637.842H1809.86M1758.18 689.474V741.105M1758.18 689.474H1809.86M1758.18 741.105V792.737M1758.18 741.105H1809.86M1758.18 792.737V844.368M1758.18 792.737H1809.86M1758.18 844.368V896M1758.18 844.368H1809.86M1758.18 896H1809.86M1809.86 -85V-33.3684M1809.86 -85H1861.55M1809.86 -33.3684V18.2632M1809.86 -33.3684H1861.55M1809.86 18.2632V69.8947M1809.86 18.2632H1861.55M1809.86 69.8947V121.526M1809.86 69.8947H1861.55M1809.86 121.526V173.158M1809.86 121.526H1861.55M1809.86 173.158V224.789M1809.86 173.158H1861.55M1809.86 224.789V276.421M1809.86 224.789H1861.55M1809.86 276.421V328.053M1809.86 276.421H1861.55M1809.86 328.053V379.684M1809.86 328.053H1861.55M1809.86 379.684V431.316M1809.86 379.684H1861.55M1809.86 431.316V482.947M1809.86 431.316H1861.55M1809.86 482.947V534.579M1809.86 482.947H1861.55M1809.86 534.579V586.211M1809.86 534.579H1861.55M1809.86 586.211V637.842M1809.86 586.211H1861.55M1809.86 637.842V689.474M1809.86 637.842H1861.55M1809.86 689.474V741.105M1809.86 689.474H1861.55M1809.86 741.105V792.737M1809.86 741.105H1861.55M1809.86 792.737V844.368M1809.86 792.737H1861.55M1809.86 844.368V896M1809.86 844.368H1861.55M1809.86 896H1861.55M1861.55 -85V-33.3684M1861.55 -85H1913.23M1861.55 -33.3684V18.2632M1861.55 -33.3684H1913.23M1861.55 18.2632V69.8947M1861.55 18.2632H1913.23M1861.55 69.8947V121.526M1861.55 69.8947H1913.23M1861.55 121.526V173.158M1861.55 121.526H1913.23M1861.55 173.158V224.789M1861.55 173.158H1913.23M1861.55 224.789V276.421M1861.55 224.789H1913.23M1861.55 276.421V328.053M1861.55 276.421H1913.23M1861.55 328.053V379.684M1861.55 328.053H1913.23M1861.55 379.684V431.316M1861.55 379.684H1913.23M1861.55 431.316V482.947M1861.55 431.316H1913.23M1861.55 482.947V534.579M1861.55 482.947H1913.23M1861.55 534.579V586.211M1861.55 534.579H1913.23M1861.55 586.211V637.842M1861.55 586.211H1913.23M1861.55 637.842V689.474M1861.55 637.842H1913.23M1861.55 689.474V741.105M1861.55 689.474H1913.23M1861.55 741.105V792.737M1861.55 741.105H1913.23M1861.55 792.737V844.368M1861.55 792.737H1913.23M1861.55 844.368V896M1861.55 844.368H1913.23M1861.55 896H1913.23M1913.23 -85V-33.3684M1913.23 -85H1964.91M1913.23 -33.3684V18.2632M1913.23 -33.3684H1964.91M1913.23 18.2632V69.8947M1913.23 18.2632H1964.91M1913.23 69.8947V121.526M1913.23 69.8947H1964.91M1913.23 121.526V173.158M1913.23 121.526H1964.91M1913.23 173.158V224.789M1913.23 173.158H1964.91M1913.23 224.789V276.421M1913.23 224.789H1964.91M1913.23 276.421V328.053M1913.23 276.421H1964.91M1913.23 328.053V379.684M1913.23 328.053H1964.91M1913.23 379.684V431.316M1913.23 379.684H1964.91M1913.23 431.316V482.947M1913.23 431.316H1964.91M1913.23 482.947V534.579M1913.23 482.947H1964.91M1913.23 534.579V586.211M1913.23 534.579H1964.91M1913.23 586.211V637.842M1913.23 586.211H1964.91M1913.23 637.842V689.474M1913.23 637.842H1964.91M1913.23 689.474V741.105M1913.23 689.474H1964.91M1913.23 741.105V792.737M1913.23 741.105H1964.91M1913.23 792.737V844.368M1913.23 792.737H1964.91M1913.23 844.368V896M1913.23 844.368H1964.91M1913.23 896H1964.91M1964.91 -85V-33.3684M1964.91 -85H2016.59M1964.91 -33.3684V18.2632M1964.91 -33.3684H2016.59M1964.91 18.2632V69.8947M1964.91 18.2632H2016.59M1964.91 69.8947V121.526M1964.91 69.8947H2016.59M1964.91 121.526V173.158M1964.91 121.526H2016.59M1964.91 173.158V224.789M1964.91 173.158H2016.59M1964.91 224.789V276.421M1964.91 224.789H2016.59M1964.91 276.421V328.053M1964.91 276.421H2016.59M1964.91 328.053V379.684M1964.91 328.053H2016.59M1964.91 379.684V431.316M1964.91 379.684H2016.59M1964.91 431.316V482.947M1964.91 431.316H2016.59M1964.91 482.947V534.579M1964.91 482.947H2016.59M1964.91 534.579V586.211M1964.91 534.579H2016.59M1964.91 586.211V637.842M1964.91 586.211H2016.59M1964.91 637.842V689.474M1964.91 637.842H2016.59M1964.91 689.474V741.105M1964.91 689.474H2016.59M1964.91 741.105V792.737M1964.91 741.105H2016.59M1964.91 792.737V844.368M1964.91 792.737H2016.59M1964.91 844.368V896M1964.91 844.368H2016.59M1964.91 896H2016.59M2016.59 -85V-33.3684M2016.59 -85H2068.27M2016.59 -33.3684V18.2632M2016.59 -33.3684H2068.27M2016.59 18.2632V69.8947M2016.59 18.2632H2068.27M2016.59 69.8947V121.526M2016.59 69.8947H2068.27M2016.59 121.526V173.158M2016.59 121.526H2068.27M2016.59 173.158V224.789M2016.59 173.158H2068.27M2016.59 224.789V276.421M2016.59 224.789H2068.27M2016.59 276.421V328.053M2016.59 276.421H2068.27M2016.59 328.053V379.684M2016.59 328.053H2068.27M2016.59 379.684V431.316M2016.59 379.684H2068.27M2016.59 431.316V482.947M2016.59 431.316H2068.27M2016.59 482.947V534.579M2016.59 482.947H2068.27M2016.59 534.579V586.211M2016.59 534.579H2068.27M2016.59 586.211V637.842M2016.59 586.211H2068.27M2016.59 637.842V689.474M2016.59 637.842H2068.27M2016.59 689.474V741.105M2016.59 689.474H2068.27M2016.59 741.105V792.737M2016.59 741.105H2068.27M2016.59 792.737V844.368M2016.59 792.737H2068.27M2016.59 844.368V896M2016.59 844.368H2068.27M2016.59 896H2068.27M2068.27 -85V-33.3684M2068.27 -85H2119.95M2068.27 -33.3684V18.2632M2068.27 -33.3684H2119.95M2068.27 18.2632V69.8947M2068.27 18.2632H2119.95M2068.27 69.8947V121.526M2068.27 69.8947H2119.95M2068.27 121.526V173.158M2068.27 121.526H2119.95M2068.27 173.158V224.789M2068.27 173.158H2119.95M2068.27 224.789V276.421M2068.27 224.789H2119.95M2068.27 276.421V328.053M2068.27 276.421H2119.95M2068.27 328.053V379.684M2068.27 328.053H2119.95M2068.27 379.684V431.316M2068.27 379.684H2119.95M2068.27 431.316V482.947M2068.27 431.316H2119.95M2068.27 482.947V534.579M2068.27 482.947H2119.95M2068.27 534.579V586.211M2068.27 534.579H2119.95M2068.27 586.211V637.842M2068.27 586.211H2119.95M2068.27 637.842V689.474M2068.27 637.842H2119.95M2068.27 689.474V741.105M2068.27 689.474H2119.95M2068.27 741.105V792.737M2068.27 741.105H2119.95M2068.27 792.737V844.368M2068.27 792.737H2119.95M2068.27 844.368V896M2068.27 844.368H2119.95M2068.27 896H2119.95M2119.95 -85V-33.3684M2119.95 -85H2171.64M2119.95 -33.3684V18.2632M2119.95 -33.3684H2171.64M2119.95 18.2632V69.8947M2119.95 18.2632H2171.64M2119.95 69.8947V121.526M2119.95 69.8947H2171.64M2119.95 121.526V173.158M2119.95 121.526H2171.64M2119.95 173.158V224.789M2119.95 173.158H2171.64M2119.95 224.789V276.421M2119.95 224.789H2171.64M2119.95 276.421V328.053M2119.95 276.421H2171.64M2119.95 328.053V379.684M2119.95 328.053H2171.64M2119.95 379.684V431.316M2119.95 379.684H2171.64M2119.95 431.316V482.947M2119.95 431.316H2171.64M2119.95 482.947V534.579M2119.95 482.947H2171.64M2119.95 534.579V586.211M2119.95 534.579H2171.64M2119.95 586.211V637.842M2119.95 586.211H2171.64M2119.95 637.842V689.474M2119.95 637.842H2171.64M2119.95 689.474V741.105M2119.95 689.474H2171.64M2119.95 741.105V792.737M2119.95 741.105H2171.64M2119.95 792.737V844.368M2119.95 792.737H2171.64M2119.95 844.368V896M2119.95 844.368H2171.64M2119.95 896H2171.64M2171.64 -85V-33.3684M2171.64 -85H2223.32M2171.64 -33.3684V18.2632M2171.64 -33.3684H2223.32M2171.64 18.2632V69.8947M2171.64 18.2632H2223.32M2171.64 69.8947V121.526M2171.64 69.8947H2223.32M2171.64 121.526V173.158M2171.64 121.526H2223.32M2171.64 173.158V224.789M2171.64 173.158H2223.32M2171.64 224.789V276.421M2171.64 224.789H2223.32M2171.64 276.421V328.053M2171.64 276.421H2223.32M2171.64 328.053V379.684M2171.64 328.053H2223.32M2171.64 379.684V431.316M2171.64 379.684H2223.32M2171.64 431.316V482.947M2171.64 431.316H2223.32M2171.64 482.947V534.579M2171.64 482.947H2223.32M2171.64 534.579V586.211M2171.64 534.579H2223.32M2171.64 586.211V637.842M2171.64 586.211H2223.32M2171.64 637.842V689.474M2171.64 637.842H2223.32M2171.64 689.474V741.105M2171.64 689.474H2223.32M2171.64 741.105V792.737M2171.64 741.105H2223.32M2171.64 792.737V844.368M2171.64 792.737H2223.32M2171.64 844.368V896M2171.64 844.368H2223.32M2171.64 896H2223.32M2223.32 -85V-33.3684M2223.32 -85H2275V-33.3684M2223.32 -33.3684V18.2632M2223.32 -33.3684H2275M2223.32 18.2632V69.8947M2223.32 18.2632H2275M2223.32 69.8947V121.526M2223.32 69.8947H2275M2223.32 121.526V173.158M2223.32 121.526H2275M2223.32 173.158V224.789M2223.32 173.158H2275M2223.32 224.789V276.421M2223.32 224.789H2275M2223.32 276.421V328.053M2223.32 276.421H2275M2223.32 328.053V379.684M2223.32 328.053H2275M2223.32 379.684V431.316M2223.32 379.684H2275M2223.32 431.316V482.947M2223.32 431.316H2275M2223.32 482.947V534.579M2223.32 482.947H2275M2223.32 534.579V586.211M2223.32 534.579H2275M2223.32 586.211V637.842M2223.32 586.211H2275M2223.32 637.842V689.474M2223.32 637.842H2275M2223.32 689.474V741.105M2223.32 689.474H2275M2223.32 741.105V792.737M2223.32 741.105H2275M2223.32 792.737V844.368M2223.32 792.737H2275M2223.32 844.368V896M2223.32 844.368H2275M2223.32 896H2275V844.368M2275 -33.3684V18.2632M2275 18.2632V69.8947M2275 69.8947V121.526M2275 121.526V173.158M2275 173.158V224.789M2275 224.789V276.421M2275 276.421V328.053M2275 328.053V379.684M2275 379.684V431.316M2275 431.316V482.947M2275 482.947V534.579M2275 534.579V586.211M2275 586.211V637.842M2275 637.842V689.474M2275 689.474V741.105M2275 741.105V792.737M2275 792.737V844.368" stroke="url(#paint0_radial_753_5101)" stroke-opacity="0.8" stroke-width="1.74474"/>
</g>
<defs>
<radialGradient id="paint0_radial_753_5101" cx="0" cy="0" r="1" gradientUnits="userSpaceOnUse" gradientTransform="translate(1138 405.5) rotate(90) scale(490.5 918.147)">
<stop stop-color="white"/>
<stop offset="1" stop-color="white" stop-opacity="0.2"/>
</radialGradient>
</defs>
</svg>
