<svg width="24" height="24" viewBox="0 0 24 24" fill="none" xmlns="http://www.w3.org/2000/svg">
<path d="M21.8105 3.94C20.2705 7.78 16.4105 13 13.1805 15.59L11.2105 17.17C10.9605 17.35 10.7105 17.51 10.4305 17.62C10.4305 17.44 10.4205 17.24 10.3905 17.05C10.2805 16.21 9.90051 15.43 9.23051 14.76C8.55051 14.08 7.72051 13.68 6.87051 13.57C6.67051 13.56 6.47051 13.54 6.27051 13.56C6.38051 13.25 6.55051 12.96 6.76051 12.72L8.32051 10.75C10.9005 7.52 16.1405 3.64 19.9705 2.11C20.5605 1.89 21.1305 2.05 21.4905 2.42C21.8705 2.79 22.0505 3.36 21.8105 3.94Z" stroke="white" stroke-width="2" stroke-linecap="round" stroke-linejoin="round"/>
<path d="M10.4298 17.62C10.4298 18.72 10.0098 19.77 9.21979 20.57C8.60979 21.18 7.77979 21.6 6.78979 21.73L4.32979 22C2.98979 22.15 1.83979 21.01 1.99979 19.65L2.26979 17.19C2.50979 15 4.33979 13.6 6.27979 13.56C6.47979 13.55 6.68979 13.56 6.87979 13.57C7.72979 13.68 8.55979 14.07 9.23979 14.76C9.90979 15.43 10.2898 16.21 10.3998 17.05C10.4098 17.24 10.4298 17.43 10.4298 17.62Z" stroke="white" stroke-width="2" stroke-linecap="round" stroke-linejoin="round"/>
<path d="M14.2403 14.47C14.2403 11.86 12.1203 9.73999 9.51025 9.73999" stroke="white" stroke-width="2" stroke-linecap="round" stroke-linejoin="round"/>
</svg>
