<svg width="50" height="50" viewBox="0 0 50 50" fill="none" xmlns="http://www.w3.org/2000/svg">
<path d="M45.4376 8.20834C42.2292 16.2083 34.1876 27.0833 27.4584 32.4792L23.3542 35.7708C22.8334 36.1458 22.3126 36.4792 21.7292 36.7083C21.7292 36.3333 21.7084 35.9167 21.6459 35.5208C21.4167 33.7708 20.6251 32.1458 19.2292 30.75C17.8126 29.3333 16.0834 28.5 14.3126 28.2708C13.8959 28.25 13.4792 28.2083 13.0626 28.25C13.2917 27.6042 13.6459 27 14.0834 26.5L17.3334 22.3958C22.7084 15.6667 33.6251 7.58334 41.6042 4.39584C42.8334 3.9375 44.0209 4.27084 44.7709 5.04167C45.5626 5.8125 45.9376 7 45.4376 8.20834Z" stroke="white" stroke-width="3.125" stroke-linecap="round" stroke-linejoin="round"/>
<path d="M21.7292 36.7083C21.7292 39 20.8542 41.1875 19.2084 42.8542C17.9375 44.125 16.2084 45 14.1459 45.2708L9.02087 45.8333C6.22921 46.1458 3.83337 43.7708 4.16671 40.9375L4.72921 35.8125C5.22921 31.25 9.04171 28.3333 13.0834 28.25C13.5 28.2292 13.9375 28.25 14.3334 28.2708C16.1042 28.5 17.8334 29.3125 19.25 30.75C20.6459 32.1458 21.4375 33.7708 21.6667 35.5208C21.6875 35.9167 21.7292 36.3125 21.7292 36.7083Z" stroke="white" stroke-width="3.125" stroke-linecap="round" stroke-linejoin="round"/>
<path d="M29.6667 30.1459C29.6667 24.7084 25.25 20.2917 19.8125 20.2917" stroke="white" stroke-width="3.125" stroke-linecap="round" stroke-linejoin="round"/>
</svg>
