<svg width="50" height="50" viewBox="0 0 50 50" fill="none" xmlns="http://www.w3.org/2000/svg">
<path d="M35.3541 25.5208V34.8958C35.3541 42.7083 32.2291 45.8333 24.4166 45.8333H15.0416C7.22913 45.8333 4.10413 42.7083 4.10413 34.8958V25.5208C4.10413 17.7083 7.22913 14.5833 15.0416 14.5833H24.4166C32.2291 14.5833 35.3541 17.7083 35.3541 25.5208Z" stroke="white" stroke-width="3.125" stroke-linecap="round" stroke-linejoin="round"/>
<path d="M45.7708 15.625C45.7708 21.6042 41.2083 26.5 35.3541 27.0208V25.5208C35.3541 17.7083 32.2291 14.5833 24.4166 14.5833H22.9166C23.4375 8.72917 28.3333 4.16667 34.3125 4.16667C40.125 4.16667 44.9166 8.47917 45.6458 14.1042C45.7291 14.5833 45.7708 15.1042 45.7708 15.625Z" stroke="white" stroke-width="3.125" stroke-linecap="round" stroke-linejoin="round"/>
</svg>
