<svg width="52" height="52" viewBox="0 0 52 52" fill="none" xmlns="http://www.w3.org/2000/svg">
<rect width="52" height="52" rx="8" fill="white"/>
<path d="M19.6796 20.4443C23.1878 21.0628 25.2788 22.3565 26 23.0992C26.7212 22.3565 28.8121 21.0628 32.3204 20.4443C34.0977 20.1309 34.9864 19.9743 35.7432 20.5747C36.5 21.1752 36.5 22.1503 36.5 24.1005V31.109C36.5 32.8923 36.5 33.7839 36.0143 34.3405C35.5285 34.8971 34.4591 35.0856 32.3204 35.4627C30.4138 35.7988 28.9259 36.3343 27.8488 36.8725C26.7892 37.402 26.2593 37.6668 26 37.6668C25.7406 37.6668 25.2108 37.402 24.1512 36.8725C23.0741 36.3343 21.5861 35.7988 19.6796 35.4627C17.5408 35.0856 16.4715 34.8971 15.9857 34.3405C15.5 33.7839 15.5 32.8923 15.5 31.109V24.1005C15.5 22.1503 15.5 21.1752 16.2568 20.5747C17.0136 19.9743 17.9023 20.1309 19.6796 20.4443Z" stroke="#191A4E" stroke-width="1.5" stroke-linecap="round" stroke-linejoin="round"/>
<path d="M26 22.5V37.6667" stroke="#191A4E" stroke-width="1.5" stroke-linejoin="round"/>
<path d="M21.917 15.5682C23.0969 14.7859 24.494 14.3333 25.9917 14.3333C27.4966 14.3333 28.9001 14.7903 30.0837 15.5797M27.8929 18.4166C27.3328 18.0785 26.6836 17.8853 25.9917 17.8853C25.3071 17.8853 24.6645 18.0744 24.1085 18.4058" stroke="#191A4E" stroke-width="1.5" stroke-linecap="round"/>
</svg>
