<svg width="40" height="41" viewBox="0 0 40 41" fill="none" xmlns="http://www.w3.org/2000/svg">
<path d="M19.9997 37.1666C29.2043 37.1666 36.6663 29.7046 36.6663 20.5C36.6663 11.2952 29.2043 3.83331 19.9997 3.83331C10.7949 3.83331 3.33301 11.2952 3.33301 20.5C3.33301 29.7046 10.7949 37.1666 19.9997 37.1666Z" stroke="#191A4E" stroke-width="1.5"/>
<path d="M20.0127 18.0137C18.632 18.0137 17.5127 19.133 17.5127 20.5137C17.5127 21.8943 18.632 23.0137 20.0127 23.0137C21.3934 23.0137 22.5127 21.8943 22.5127 20.5137C22.5127 19.133 21.3934 18.0137 20.0127 18.0137ZM20.0127 18.0137V12.165M25.0242 25.533L21.7765 22.2853" stroke="#191A4E" stroke-width="1.5" stroke-linecap="round" stroke-linejoin="round"/>
</svg>
