<svg width="31" height="30" viewBox="0 0 31 30" fill="none" xmlns="http://www.w3.org/2000/svg">
<path d="M20.333 12.5L21.8661 13.8215C22.5108 14.377 22.833 14.6549 22.833 15C22.833 15.3451 22.5108 15.623 21.8661 16.1785L20.333 17.5" stroke="white" stroke-width="2" stroke-linecap="round" stroke-linejoin="round"/>
<path d="M10.333 12.5L8.79983 13.8215C8.15528 14.377 7.83301 14.6549 7.83301 15C7.83301 15.3451 8.15528 15.623 8.79983 16.1785L10.333 17.5" stroke="white" stroke-width="2" stroke-linecap="round" stroke-linejoin="round"/>
<path d="M16.583 11.25L14.083 18.75" stroke="white" stroke-width="2" stroke-linecap="round" stroke-linejoin="round"/>
<path d="M3.45801 15C3.45801 9.40208 3.45801 6.60311 5.19706 4.86405C6.93612 3.125 9.73508 3.125 15.333 3.125C20.9309 3.125 23.7299 3.125 25.469 4.86405C27.208 6.60311 27.208 9.40208 27.208 15C27.208 20.5979 27.208 23.3969 25.469 25.136C23.7299 26.875 20.9309 26.875 15.333 26.875C9.73508 26.875 6.93612 26.875 5.19706 25.136C3.45801 23.3969 3.45801 20.5979 3.45801 15Z" stroke="white" stroke-width="2"/>
</svg>
