<svg width="52" height="52" viewBox="0 0 52 52" fill="none" xmlns="http://www.w3.org/2000/svg">
<g clip-path="url(#clip0_3656_7660)">
<path d="M45.8441 35.894C47.3614 34.7432 48.3438 32.9219 48.3438 30.875C48.3438 27.4029 45.519 24.5781 42.0469 24.5781C38.5748 24.5781 35.75 27.4029 35.75 30.875C35.75 32.9213 36.7317 34.742 38.2482 35.8929C36.9898 36.4123 35.8447 37.1877 34.8878 38.1801C33.8151 36.0591 32.0053 34.3719 29.7972 33.4571C31.3146 32.3063 32.2969 30.485 32.2969 28.4381C32.2969 24.966 29.4721 22.1412 26 22.1412C22.5279 22.1412 19.7031 24.966 19.7031 28.4381C19.7031 30.485 20.6854 32.3063 22.2028 33.4571C19.9947 34.3719 18.185 36.0591 17.1122 38.1801C16.1553 37.1876 15.0102 36.4123 13.7518 35.8929C15.2683 34.742 16.25 32.9213 16.25 30.875C16.25 27.4029 13.4252 24.5781 9.95312 24.5781C6.48101 24.5781 3.65625 27.4029 3.65625 30.875C3.65625 32.9219 4.63856 34.7432 6.15591 35.894C2.54607 37.3895 0 40.9497 0 45.0938V50.9844C0 51.5452 0.454695 52 1.01562 52H17.0625H34.9375H50.9844C51.5453 52 52 51.5452 52 50.9844V45.0938C52 40.9497 49.4539 37.3895 45.8441 35.894ZM5.6875 30.875C5.6875 28.5229 7.60104 26.6094 9.95312 26.6094C12.3052 26.6094 14.2188 28.5229 14.2188 30.875C14.2188 33.2271 12.3052 35.1406 9.95312 35.1406C7.60104 35.1406 5.6875 33.2271 5.6875 30.875ZM16.0469 42.6569V49.9688H2.03125V45.0938C2.03125 40.7255 5.58502 37.1719 9.95312 37.1719C12.4726 37.1719 14.8177 38.3605 16.312 40.372C16.1389 41.106 16.0469 41.8709 16.0469 42.6569ZM21.7344 28.4381C21.7344 26.086 23.6479 24.1725 26 24.1725C28.3521 24.1725 30.2656 26.086 30.2656 28.4381C30.2656 30.7902 28.3521 32.7037 26 32.7037C23.6479 32.7037 21.7344 30.7902 21.7344 28.4381ZM33.9219 49.9688H31.9076V46.7668C31.9076 46.206 31.4529 45.7512 30.892 45.7512C30.331 45.7512 29.8763 46.206 29.8763 46.7668V49.9688H18.0781V42.6569C18.0781 38.2887 21.6319 34.735 26 34.735C30.3681 34.735 33.9219 38.2887 33.9219 42.6569V49.9688ZM37.7812 30.875C37.7812 28.5229 39.6948 26.6094 42.0469 26.6094C44.399 26.6094 46.3125 28.5229 46.3125 30.875C46.3125 33.2271 44.399 35.1406 42.0469 35.1406C39.6948 35.1406 37.7812 33.2271 37.7812 30.875ZM49.9688 49.9688H35.9531V42.6569C35.9531 41.8709 35.8611 41.106 35.688 40.372C37.1823 38.3605 39.5274 37.1719 42.0469 37.1719C46.415 37.1719 49.9688 40.7255 49.9688 45.0938V49.9688Z" fill="#010101"/>
<path d="M36.0626 3.12823C35.666 2.73152 35.0229 2.73163 34.6262 3.12823L31.1412 6.61324C30.7446 7.00984 30.7446 7.65294 31.1412 8.04964C31.3396 8.24789 31.5995 8.34712 31.8595 8.34712C32.1194 8.34712 32.3794 8.24799 32.5776 8.04964L36.0626 4.56463C36.4592 4.16802 36.4592 3.52493 36.0626 3.12823Z" fill="#010101"/>
<path d="M20.8595 6.61324L17.3745 3.12823C16.9779 2.73163 16.3348 2.73163 15.9381 3.12823C15.5414 3.52483 15.5415 4.16792 15.9381 4.56463L19.4232 8.04964C19.6216 8.24799 19.8815 8.34712 20.1414 8.34712C20.4013 8.34712 20.6613 8.24799 20.8595 8.04964C21.2561 7.65304 21.2561 7.00995 20.8595 6.61324Z" fill="#010101"/>
<path d="M26 0C25.4391 0 24.9844 0.454695 24.9844 1.01562V3.1979C24.9844 3.75883 25.4391 4.21352 26 4.21352C26.5609 4.21352 27.0156 3.75883 27.0156 3.1979V1.01562C27.0156 0.454695 26.5609 0 26 0Z" fill="#010101"/>
<path d="M33.8914 11.472C33.7136 10.9249 33.2495 10.5338 32.6804 10.4511L28.9936 9.91534L27.3449 6.57455C27.0902 6.05871 26.5748 5.73828 25.9996 5.73828C25.4243 5.73828 24.9089 6.05871 24.6543 6.57455L23.0055 9.91534L19.3189 10.4511C18.7496 10.5338 18.2856 10.925 18.1078 11.472C17.93 12.019 18.0754 12.6083 18.4873 13.0099L21.1551 15.6103L20.5254 19.282C20.4281 19.849 20.6567 20.4112 21.122 20.7494C21.385 20.9405 21.6927 21.0376 22.0024 21.0376C22.2408 21.0376 22.4805 20.9801 22.7019 20.8637L25.9996 19.13L29.2971 20.8636C29.8062 21.1313 30.4116 21.0875 30.8771 20.7494C31.3425 20.4112 31.5711 19.849 31.4738 19.2821L30.844 15.6103L33.5118 13.0099C33.9238 12.6083 34.0691 12.019 33.8914 11.472ZM29.2262 14.3507C28.8727 14.6954 28.7114 15.1916 28.7948 15.6785L29.2899 18.565L26.6977 17.2023C26.4791 17.0873 26.2394 17.0299 25.9996 17.0299C25.7598 17.0299 25.52 17.0873 25.3014 17.2023L22.7092 18.565L23.2044 15.6784C23.2877 15.1917 23.1265 14.6954 22.7728 14.3507L20.6757 12.3065L23.5737 11.8854C24.0627 11.8144 24.485 11.5075 24.7034 11.0646L25.9996 8.43842L27.4084 11.293C27.5563 11.5926 27.8421 11.8003 28.1727 11.8486L31.3234 12.3064L29.2262 14.3507Z" fill="#010101"/>
<path d="M31.6106 42.0936C31.4207 41.9047 31.1597 41.797 30.8926 41.797C30.6245 41.797 30.3634 41.9047 30.1745 42.0936C29.9846 42.2835 29.877 42.5444 29.877 42.8127C29.877 43.0798 29.9846 43.3418 30.1745 43.5306C30.3634 43.7196 30.6245 43.8283 30.8926 43.8283C31.1597 43.8283 31.4207 43.7196 31.6106 43.5306C31.7995 43.3408 31.9082 43.0798 31.9082 42.8127C31.9082 42.5455 31.7995 42.2835 31.6106 42.0936Z" fill="#010101"/>
</g>
<defs>
<clipPath id="clip0_3656_7660">
<rect width="52" height="52" fill="white"/>
</clipPath>
</defs>
</svg>
