<svg width="52" height="52" viewBox="0 0 52 52" fill="none" xmlns="http://www.w3.org/2000/svg">
<g clip-path="url(#clip0_3656_7648)">
<path d="M32.8306 5.12893C32.6078 4.459 32.0453 3.96846 31.3633 3.8506L28.856 3.4164L27.6791 1.05213C27.3541 0.403865 26.711 -1.90735e-06 25.9995 -1.90735e-06C25.288 -1.90735e-06 24.6449 0.403865 24.3199 1.053L23.143 3.41727L20.6366 3.85146C19.9536 3.96933 19.3903 4.459 19.1684 5.1298C18.9388 5.81793 19.1034 6.56847 19.5965 7.09107L21.3992 8.99947L21.0162 11.6567C20.9104 12.3864 21.2138 13.1014 21.8066 13.5217C22.1272 13.7497 22.5025 13.8649 22.8786 13.8649C23.1707 13.8649 23.4645 13.7956 23.734 13.6543L25.9986 12.4748L28.2632 13.6543C28.882 13.9785 29.6213 13.9256 30.1916 13.5217C30.7852 13.1014 31.0877 12.3855 30.982 11.6567L30.5989 8.99947L32.4016 7.09107C32.8947 6.56847 33.0594 5.81793 32.8297 5.1298L32.8306 5.12893ZM31.1432 5.90027L29.0527 8.11373C28.8707 8.30613 28.7867 8.57047 28.8248 8.8322L29.2685 11.9037C29.2859 12.0267 29.2191 12.0874 29.1905 12.1082C29.1299 12.1489 29.0883 12.129 29.0649 12.1177L26.3999 10.7285C26.1494 10.5985 25.8496 10.5985 25.5991 10.7285L22.9341 12.1177C22.9107 12.1299 22.8682 12.1489 22.8084 12.1082C22.7798 12.0874 22.714 12.0259 22.7304 11.9037L23.1741 8.8322C23.2123 8.57047 23.1282 8.30613 22.9462 8.11373L20.8558 5.90027C20.777 5.8162 20.7995 5.71567 20.8125 5.67667C20.835 5.6082 20.8749 5.5692 20.9321 5.5588L23.8718 5.0492C24.1431 5.00153 24.3762 4.8282 24.5002 4.5812L25.873 1.8252C25.8842 1.80266 25.9189 1.73333 25.9995 1.73333C26.0801 1.73333 26.1156 1.8018 26.126 1.82433L27.4988 4.5812C27.6227 4.8282 27.855 5.00153 28.1272 5.0492L31.0677 5.5588C31.1232 5.5692 31.1631 5.6082 31.1865 5.67667C31.2004 5.71567 31.222 5.8162 31.1432 5.90027Z" fill="#010101"/>
<path d="M17.232 12.0623C17.0093 11.3923 16.4468 10.9018 15.7648 10.7839L13.2575 10.3497L12.0806 7.98546C11.7573 7.3372 11.1142 6.93333 10.4018 6.93333C9.68943 6.93333 9.04723 7.3372 8.72223 7.98633L7.54529 10.3506L5.03889 10.7848C4.35596 10.9027 3.79263 11.3923 3.57076 12.0631C3.34109 12.7513 3.50576 13.5018 3.99889 14.0244L5.80156 15.9328L5.41849 18.59C5.31276 19.3197 5.61609 20.0347 6.20889 20.4551C6.52956 20.683 6.90483 20.7983 7.28096 20.7983C7.57303 20.7983 7.86683 20.7289 8.13636 20.5877L10.401 19.4081L12.6656 20.5877C13.2852 20.9118 14.0245 20.8589 14.5939 20.4551C15.1876 20.0347 15.49 19.3189 15.3843 18.59L15.0012 15.9328L16.8039 14.0244C17.297 13.5018 17.4617 12.7504 17.232 12.0623ZM15.5446 12.8336L13.4542 15.0471C13.2722 15.2395 13.1882 15.5038 13.2263 15.7655L13.67 18.837C13.6874 18.9601 13.6206 19.0207 13.592 19.0415C13.5314 19.0823 13.4898 19.0632 13.4664 19.0511L10.8014 17.6618C10.5509 17.5318 10.251 17.5318 10.0006 17.6618L7.33556 19.0511C7.31216 19.0641 7.27056 19.0823 7.20989 19.0415C7.18129 19.0207 7.11543 18.9592 7.13189 18.837L7.57563 15.7655C7.61376 15.5038 7.52969 15.2395 7.34769 15.0471L5.25729 12.8336C5.17843 12.7495 5.20096 12.649 5.21396 12.61C5.23649 12.5415 5.27636 12.5025 5.33356 12.4921L8.27329 11.9825C8.54456 11.9349 8.77769 11.7615 8.90163 11.5145L10.2744 8.75853C10.2857 8.736 10.3204 8.66666 10.401 8.66666C10.4816 8.66666 10.5171 8.73513 10.5275 8.75766L11.9003 11.5145C12.0242 11.7615 12.2565 11.9349 12.5286 11.9825L15.4692 12.4921C15.5247 12.5025 15.5646 12.5415 15.588 12.61C15.6018 12.649 15.6235 12.7495 15.5446 12.8336Z" fill="#010101"/>
<path d="M48.4312 12.0623C48.2085 11.3923 47.646 10.9018 46.964 10.7839L44.4567 10.3497L43.2798 7.98546C42.9565 7.3372 42.3134 6.93333 41.601 6.93333C40.8886 6.93333 40.2464 7.3372 39.9214 7.98633L38.7445 10.3506L36.2381 10.7848C35.5552 10.9027 34.9918 11.3923 34.77 12.0631C34.5403 12.7513 34.705 13.5018 35.1981 14.0244L37.0008 15.9328L36.6177 18.59C36.512 19.3197 36.8153 20.0347 37.4081 20.4551C37.7288 20.683 38.104 20.7983 38.4802 20.7983C38.7722 20.7983 39.066 20.7289 39.3356 20.5877L41.6002 19.4081L43.8648 20.5877C44.4836 20.9118 45.2237 20.8589 45.7931 20.4551C46.3868 20.0347 46.6892 19.3189 46.5835 18.59L46.2004 15.9328L48.0031 14.0244C48.4962 13.5018 48.6609 12.7504 48.4312 12.0623ZM46.7438 12.8336L44.6534 15.0471C44.4714 15.2395 44.3874 15.5038 44.4255 15.7655L44.8692 18.837C44.8866 18.9601 44.8198 19.0207 44.7912 19.0415C44.7306 19.0823 44.689 19.0632 44.6656 19.0511L42.0006 17.6618C41.7501 17.5318 41.4502 17.5318 41.1998 17.6618L38.5348 19.0511C38.5122 19.0641 38.4689 19.0823 38.4091 19.0415C38.3805 19.0207 38.3146 18.9592 38.3311 18.837L38.7748 15.7655C38.813 15.5038 38.7289 15.2395 38.5469 15.0471L36.4565 12.8336C36.3776 12.7495 36.4002 12.649 36.4132 12.61C36.4357 12.5415 36.4756 12.5025 36.5328 12.4921L39.4725 11.9825C39.7438 11.9349 39.9769 11.7615 40.1008 11.5145L41.4736 8.75853C41.4849 8.736 41.5196 8.66666 41.6002 8.66666C41.6808 8.66666 41.7163 8.73513 41.7267 8.75766L43.0995 11.5145C43.2234 11.7615 43.4557 11.9349 43.7278 11.9825L46.6684 12.4921C46.7239 12.5025 46.7638 12.5415 46.7872 12.61C46.801 12.649 46.8227 12.7495 46.7438 12.8336Z" fill="#010101"/>
<path d="M26 20.8C11.6636 20.8 0 32.4636 0 46.8C0 47.7559 0.7774 48.5333 1.73333 48.5333H12.1333C13.0893 48.5333 13.8667 47.7559 13.8667 46.8C13.8667 40.1093 19.3093 34.6667 26 34.6667C30.1037 34.6667 33.8971 36.7432 36.1322 40.144C32.2669 41.5107 29.2699 42.614 27.0634 43.4807C26.7211 43.3931 26.3692 43.3333 26 43.3333C23.6106 43.3333 21.6667 45.2773 21.6667 47.6667C21.6667 50.0561 23.6106 52 26 52C27.7065 52 29.172 50.9999 29.8783 49.5621C32.1429 48.3288 35.0497 46.6544 37.9739 44.9384C38.0692 45.552 38.1333 46.1725 38.1333 46.8C38.1333 47.7559 38.9107 48.5333 39.8667 48.5333H50.2667C51.2226 48.5333 52 47.7559 52 46.8C52 32.4636 40.3364 20.8 26 20.8ZM35.1667 36.4078C32.8839 34.3919 29.9754 33.1569 26.8667 32.9628V22.555C32.9039 22.7682 38.3855 25.1949 42.5239 29.0507L35.1667 36.4078ZM12.1333 46.8H1.73333C1.73333 40.4205 4.21113 34.6121 8.25067 30.2761L15.6156 37.6411C13.4559 40.0868 12.1333 43.2883 12.1333 46.8ZM16.8411 36.4156L9.47613 29.0507C13.6145 25.1957 19.0953 22.7691 25.1333 22.555V32.9767C21.9631 33.1743 19.0831 34.4353 16.8411 36.4156ZM44.421 39.0962C40.2619 41.5853 34.5003 45.0103 30.3004 47.3495C30.2207 46.2687 29.7605 45.2937 29.0307 44.5779C32.5191 43.2475 37.5804 41.444 44.421 39.0962ZM25.9991 50.2667C24.5657 50.2667 23.3991 49.1001 23.3991 47.6667C23.3991 46.2332 24.5657 45.0667 25.9991 45.0667C27.4326 45.0667 28.5991 46.2332 28.5991 47.6667C28.5991 49.1001 27.4326 50.2667 25.9991 50.2667ZM39.8658 46.8C39.8658 45.8519 39.7653 44.9124 39.5755 43.9955C41.613 42.7925 43.5994 41.6078 45.3145 40.5825C46.0937 40.1102 46.3805 39.1733 45.9983 38.3543C45.6179 37.5405 44.7252 37.1575 43.8655 37.4539C41.6633 38.2096 39.6509 38.9081 37.8083 39.5547C37.3871 38.8691 36.9113 38.2295 36.3887 37.6367L43.7476 30.2779C47.7871 34.6138 50.2649 40.4222 50.2649 46.8017H39.8649L39.8658 46.8Z" fill="#010101"/>
</g>
<defs>
<clipPath id="clip0_3656_7648">
<rect width="52" height="52" fill="white"/>
</clipPath>
</defs>
</svg>
