<svg width="52" height="53" viewBox="0 0 52 53" fill="none" xmlns="http://www.w3.org/2000/svg">
<g clip-path="url(#clip0_3656_7689)">
<path d="M50.6441 19.787C49.3038 19.5163 47.9583 19.3746 46.611 19.3602C46.0835 17.115 44.4708 15.2458 42.3644 14.3659C43.259 13.4284 43.8092 12.1659 43.8092 10.7778C43.8092 7.89304 41.4373 5.54603 38.5219 5.54603C35.6064 5.54603 33.2345 7.89294 33.2345 10.7778C33.2345 12.1642 33.7834 13.4255 34.676 14.3626C32.9584 15.0735 31.5699 16.4354 30.8285 18.154C30.517 17.9655 30.1893 17.8003 29.8478 17.6598C30.7397 16.7228 31.288 15.4622 31.288 14.0765C31.288 11.1917 28.9161 8.84468 26.0006 8.84468C23.0852 8.84468 20.7133 11.1916 20.7133 14.0765C20.7133 15.4634 21.2625 16.7251 22.1559 17.6623C21.817 17.803 21.4898 17.9708 21.1761 18.1618C20.4355 16.4394 19.0454 15.0745 17.3252 14.3626C18.2179 13.4255 18.7666 12.1641 18.7666 10.7778C18.7666 7.89304 16.3947 5.54603 13.4793 5.54603C10.5638 5.54603 8.19184 7.89294 8.19184 10.7778C8.19184 12.1659 8.74201 13.4285 9.63667 14.3659C7.53027 15.2457 5.91755 17.1149 5.39004 19.3601C4.04261 19.3746 2.69711 19.5162 1.35699 19.787C1.00162 19.8588 0.746094 20.1711 0.746094 20.5337V39.6252C0.746094 40.0459 1.08704 40.3869 1.50781 40.3869H8.23795C8.56255 40.3869 8.85149 40.1813 8.95773 39.8745L9.26292 38.9931C11.8349 39.9581 13.8173 42.0206 14.9228 43.1717C15.0338 43.2873 15.1366 43.3942 15.2311 43.4911L23.1574 51.6131C23.6473 52.1151 24.3081 52.3941 25.0179 52.3984H25.035C25.7488 52.3984 26.4177 52.1222 26.9205 51.6197C27.2386 51.3015 27.4591 50.922 27.5816 50.519C28.0381 50.7762 28.5562 50.913 29.0963 50.913C29.922 50.913 30.6965 50.5932 31.2772 50.0124C31.7979 49.4917 32.0931 48.8294 32.1628 48.1484C32.4377 48.2269 32.7254 48.2675 33.0197 48.2675C33.8453 48.2675 34.6198 47.9477 35.2005 47.3669C35.7424 46.8251 36.0571 46.1145 36.0969 45.3511C37.0834 45.5592 38.1537 45.2808 38.9186 44.516C40.0468 43.3876 40.1147 41.6231 39.1197 40.3831C39.3899 40.3307 39.6591 40.2512 39.9238 40.1431C40.7148 39.8203 41.4449 39.4535 42.151 39.0987C42.3316 39.008 42.5076 38.9199 42.6825 38.8331L43.0431 39.8746C43.1494 40.1814 43.4383 40.387 43.7629 40.387H50.493C50.9138 40.387 51.2548 40.046 51.2548 39.6253V20.5337C51.255 20.1712 50.9994 19.8588 50.6441 19.787ZM38.5219 7.06947C40.5973 7.06947 42.2858 8.73296 42.2858 10.7778C42.2858 12.8227 40.5973 14.4862 38.5219 14.4862C36.4464 14.4862 34.758 12.8226 34.758 10.7778C34.758 8.73306 36.4464 7.06947 38.5219 7.06947ZM36.1975 15.4756C36.8995 15.817 37.6882 16.0096 38.5218 16.0096C39.3554 16.0096 40.1441 15.817 40.8461 15.4756C42.8506 15.9178 44.471 17.4554 45.0469 19.401C42.4757 19.5621 39.9027 20.1871 37.3521 21.2753C36.9841 21.4323 36.8003 21.8472 36.9312 22.2252L37.4177 23.6298C36.2558 23.6315 35.2091 23.4546 34.1948 23.1974C33.9542 21.6095 33.195 20.1891 32.0853 19.121C32.7306 17.2835 34.2896 15.8945 36.1975 15.4756ZM23.2344 23.8128L22.9902 24.0423C21.6 24.3561 20.3874 24.532 19.2475 24.5654V24.2754C19.2475 21.6134 21.0954 19.338 23.6757 18.774C24.3779 19.1157 25.1668 19.3084 26.0006 19.3084C26.8345 19.3084 27.6235 19.1157 28.3257 18.7739C30.3715 19.2215 31.971 20.7532 32.5343 22.7173C32.3716 22.6663 32.2087 22.615 32.045 22.5631C31.5192 22.3967 30.9756 22.2246 30.4167 22.0655C27.8198 21.3261 25.2018 21.9629 23.2344 23.8128ZM26.0006 10.3682C28.0761 10.3682 29.7645 12.0317 29.7645 14.0766C29.7645 16.1214 28.0761 17.7849 26.0006 17.7849C23.9252 17.7849 22.2367 16.1213 22.2367 14.0766C22.2367 12.0318 23.9253 10.3682 26.0006 10.3682ZM13.4795 7.06947C15.5549 7.06947 17.2434 8.73296 17.2434 10.7778C17.2434 12.8227 15.5549 14.4862 13.4795 14.4862C11.404 14.4862 9.71548 12.8226 9.71548 10.7778C9.71548 8.73306 11.4041 7.06947 13.4795 7.06947ZM11.1551 15.4756C11.8571 15.817 12.646 16.0096 13.4796 16.0096C14.3132 16.0096 15.1019 15.817 15.8039 15.4757C17.7152 15.8955 19.2766 17.2885 19.9196 19.1309C19.7491 19.2952 19.5854 19.4673 19.431 19.6489C18.3303 20.9423 17.7242 22.5854 17.7242 24.2754V24.5227C16.6638 24.4284 15.6255 24.1979 14.5147 23.8284L15.07 22.2251C15.2009 21.8471 15.017 21.4322 14.6491 21.2752C12.0985 20.187 9.52546 19.562 6.9543 19.4008C7.53027 17.4553 9.1507 15.9178 11.1551 15.4756ZM7.69581 38.8634H2.26973V21.1665C5.96021 20.5376 9.69649 20.9543 13.3946 22.4074L7.69581 38.8634ZM37.8414 43.4386C37.233 44.0471 36.2428 44.0471 35.6342 43.4386L30.792 38.4876C30.4981 38.1865 30.0158 38.1806 29.715 38.4745C29.4138 38.7683 29.408 39.2507 29.7019 39.5517L34.1171 44.0758C34.118 44.0768 34.1191 44.0775 34.12 44.0785C34.1213 44.0798 34.1223 44.0812 34.1235 44.0824C34.4165 44.3754 34.5779 44.7673 34.5779 45.186C34.5779 45.6047 34.4165 45.9965 34.1234 46.2896C33.8305 46.5826 33.4386 46.7439 33.0198 46.7439C32.6011 46.7439 32.2092 46.5828 31.9163 46.2899L26.8687 41.1333C26.5748 40.8322 26.0924 40.8263 25.7916 41.1202C25.4905 41.414 25.4847 41.8964 25.7785 42.1974L30.1937 46.7215C30.1948 46.7225 30.1959 46.7234 30.197 46.7244C30.1981 46.7256 30.1991 46.7269 30.2002 46.728L30.2033 46.731C30.8088 47.3399 30.8078 48.3277 30.2003 48.9352C29.9073 49.2282 29.5155 49.3895 29.0968 49.3895C28.678 49.3895 28.2862 49.2283 27.9931 48.9352L22.5123 43.3456C22.2183 43.0444 21.736 43.0385 21.4352 43.3325C21.1341 43.6263 21.1283 44.1086 21.4221 44.4096L25.8373 48.9337C25.8382 48.9347 25.8393 48.9355 25.8403 48.9365C25.8415 48.9377 25.8425 48.9391 25.8437 48.9403C26.2854 49.382 26.2854 50.1007 25.8438 50.5424C25.6291 50.7571 25.3422 50.875 25.0352 50.875C25.0327 50.875 25.0302 50.875 25.0279 50.875C24.7285 50.8732 24.4515 50.7574 24.2482 50.5491L16.3218 42.4271C16.2299 42.3329 16.1299 42.2288 16.022 42.1164C14.8234 40.8685 12.6732 38.6314 9.7621 37.553L14.0163 25.2685C15.6766 25.8217 17.2096 26.0929 18.8488 26.0929C19.528 26.0929 20.2267 26.0449 20.959 25.9525L19.1611 27.6429C18.3109 28.4424 17.8615 29.4818 17.8615 30.6489V38.3808C17.8615 38.8015 18.2025 39.1425 18.6232 39.1425C21.9357 39.1425 25.3621 37.0478 25.3621 33.5424C25.3621 32.3242 26.3235 31.4554 27.0577 30.8557L35.4483 39.2412C35.8525 39.6451 36.316 39.9516 36.8131 40.1562L37.8299 41.2193C38.4413 41.8587 38.4465 42.8336 37.8414 43.4386ZM41.4673 37.7373C40.7874 38.0788 40.0843 38.4321 39.3485 38.7324C38.3463 39.1414 37.2908 38.9288 36.525 38.1635L27.6454 29.2894C27.36 29.0042 26.9017 28.991 26.6002 29.2596C26.5184 29.3325 26.4066 29.4227 26.2771 29.5273C25.4248 30.2152 23.8384 31.4956 23.8384 33.5424C23.8384 34.9925 22.9861 35.9329 22.2711 36.4665C21.4769 37.0594 20.4545 37.4475 19.3846 37.5741V30.6489C19.3846 29.8917 19.6529 29.2714 20.2044 28.7529L24.2778 24.9227C25.8451 23.4492 27.9302 22.9418 29.9993 23.5308C30.5368 23.6839 31.0698 23.8525 31.5851 24.0157C33.4984 24.6213 35.4733 25.2445 37.9412 25.1419L42.1801 37.3823C41.9395 37.5002 41.7012 37.6198 41.4673 37.7373ZM49.7315 38.8634H44.3054L38.6067 22.4073C42.305 20.9543 46.0414 20.5376 49.7315 21.1665V38.8634ZM25.2389 5.42385V1.36328C25.2389 0.942609 25.5799 0.601562 26.0006 0.601562C26.4214 0.601562 26.7623 0.942609 26.7623 1.36328V5.42385C26.7623 5.84452 26.4214 6.18557 26.0006 6.18557C25.5799 6.18557 25.2389 5.84452 25.2389 5.42385ZM18.9844 3.44734C18.774 3.08304 18.8989 2.61717 19.2632 2.40684C19.6273 2.1964 20.0934 2.32132 20.3037 2.68563L22.3339 6.20223C22.5443 6.56653 22.4194 7.0324 22.0551 7.24273C21.9352 7.312 21.8042 7.34491 21.675 7.34491C21.4117 7.34491 21.1557 7.2083 21.0146 6.96395L18.9844 3.44734ZM29.6672 6.20223L31.6976 2.68563C31.9078 2.32122 32.3739 2.1964 32.7381 2.40684C33.1024 2.61717 33.2272 3.08304 33.0169 3.44734L30.9865 6.96395C30.8455 7.2083 30.5894 7.34491 30.3262 7.34491C30.197 7.34491 30.066 7.312 29.946 7.24273C29.5817 7.0324 29.4569 6.56653 29.6672 6.20223Z" fill="#010101"/>
</g>
<defs>
<clipPath id="clip0_3656_7689">
<rect width="52" height="52" fill="white" transform="translate(0 0.5)"/>
</clipPath>
</defs>
</svg>
