<svg width="52" height="53" viewBox="0 0 52 53" fill="none" xmlns="http://www.w3.org/2000/svg">
<g clip-path="url(#clip0_3656_7683)">
<path d="M10.6647 24.4394C10.7647 24.4394 10.8663 24.4196 10.9639 24.3779C18.0419 21.3525 28.0621 16.4858 35.6003 10.4817C37.9985 8.57144 39.5489 7.02143 40.4908 5.96454L40.63 7.49433C40.6661 7.88986 40.9982 8.18701 41.3878 8.18701C41.4112 8.18701 41.4342 8.18622 41.458 8.18384C41.8769 8.14575 42.1856 7.77521 42.1475 7.35626L41.8428 4.00946C41.844 3.75556 41.719 3.50681 41.4889 3.36121C41.4536 3.33899 41.4171 3.32074 41.3798 3.30487C41.3763 3.30328 41.3727 3.3017 41.3691 3.30011C41.3537 3.29376 41.3378 3.28821 41.3219 3.28305C41.3116 3.27948 41.3013 3.27591 41.2906 3.27313C41.2815 3.27036 41.2719 3.26798 41.2624 3.2656C41.245 3.26123 41.2271 3.25726 41.2092 3.25409C41.2073 3.25369 41.2049 3.2533 41.2029 3.2533C41.139 3.24259 41.0736 3.23901 41.0081 3.24536L37.5867 3.55679C37.1678 3.59488 36.8587 3.96542 36.8972 4.38437C36.9353 4.80332 37.3046 5.11197 37.7248 5.07388L39.3744 4.92392C38.4774 5.9332 36.9476 7.47092 34.5391 9.37918C27.142 15.2397 17.3103 20.0087 10.3648 22.9775C9.97798 23.1425 9.79866 23.5904 9.9637 23.9772C10.0875 24.266 10.3688 24.4394 10.6647 24.4394Z" fill="#010101"/>
<path d="M5.89102 42.0272H3.65625C3.23572 42.0272 2.89453 42.368 2.89453 42.7889C2.89453 43.2098 3.23572 43.5506 3.65625 43.5506H5.89102C6.31155 43.5506 6.65274 43.2098 6.65274 42.7889C6.65274 42.368 6.31155 42.0272 5.89102 42.0272Z" fill="#010101"/>
<path d="M51.4724 34.0303C50.5289 32.6441 48.6294 32.2772 47.2385 33.2115L44.388 35.1193V13.4389C44.388 12.8494 43.9083 12.3697 43.3188 12.3697H39.9494C39.3594 12.3697 38.8798 12.8494 38.8798 13.4389V18.8836C38.8798 19.3041 39.221 19.6453 39.6415 19.6453C40.0624 19.6453 40.4032 19.3041 40.4032 18.8836V13.8932H42.8645V36.1389L40.4032 37.7861V22.4276C40.4032 22.0071 40.0624 21.6659 39.6415 21.6659C39.221 21.6659 38.8798 22.0071 38.8798 22.4276V38.8057L37.7336 39.573L36.1003 39.4814V17.5236C36.1003 16.9341 35.6207 16.454 35.0307 16.454H31.6617C31.0718 16.454 30.5921 16.9341 30.5921 17.5236V34.8452L27.8127 34.525V22.3792C27.8127 21.7892 27.3326 21.3096 26.7431 21.3096H23.3737C22.7841 21.3096 22.3045 21.7896 22.3045 22.3792V33.7113C21.3384 33.4324 20.4089 33.0425 19.525 32.5454V27.91C19.525 27.3204 19.045 26.8408 18.4554 26.8408H15.0856C14.4961 26.8408 14.0164 27.3204 14.0164 27.91V30.5772C13.3233 30.4768 12.6223 30.424 11.9177 30.424H9.65201V30.0777C9.65201 29.1982 8.93671 28.4825 8.05676 28.4825H0.948578C0.42569 28.4825 0 28.9081 0 29.431V46.0885C0 46.6118 0.42569 47.0371 0.948578 47.0371H8.05676C8.93433 47.0371 9.64844 46.3249 9.65161 45.4482L20.839 49.6844C20.8596 49.6924 20.8806 49.6991 20.902 49.7051C21.3499 49.8316 21.7979 49.8951 22.2374 49.8951C22.4735 49.8951 22.7072 49.8768 22.9373 49.8403L37.8324 47.6932C37.836 47.6924 37.84 47.692 37.8435 47.6913C39.1218 47.4873 40.3271 46.9474 41.3296 46.1293C41.3324 46.1274 41.3351 46.125 41.3379 46.1226L50.9582 38.0523C50.9637 38.048 50.9693 38.0432 50.9745 38.0385C52.1206 37.0204 52.3344 35.2975 51.4724 34.0303ZM32.1156 17.9779H34.5769V36.4301C33.9449 35.7259 33.0903 35.2253 32.1156 35.0344V17.9779ZM23.8275 22.833H26.2888V34.3497L24.1104 34.0989C24.016 34.0855 23.9215 34.0708 23.8275 34.0553V22.833ZM15.5399 28.3642H18.0012V31.7455C17.2069 31.3841 16.3829 31.0957 15.5399 30.8807V28.3642ZM49.9699 36.8927L40.3624 44.9522C39.5701 45.5973 38.618 46.0238 37.6087 46.1861L22.7306 48.3304L22.7091 48.334C22.2692 48.4034 21.8109 48.3744 21.3464 48.2471L9.65201 43.8188V37.5398C9.65201 37.1188 9.31122 36.778 8.89029 36.778C8.46976 36.778 8.12857 37.1188 8.12857 37.5398V45.4418C8.12857 45.4815 8.09644 45.5136 8.05676 45.5136H1.52344V30.0059H8.05676C8.09644 30.0059 8.12857 30.038 8.12857 30.0777V33.9954C8.12857 34.4159 8.46976 34.7571 8.89029 34.7571C9.31122 34.7571 9.65201 34.4159 9.65201 33.9954V31.9475H11.9181C14.1874 31.9475 16.4222 32.539 18.3951 33.6562C18.3975 33.6578 18.3999 33.659 18.4023 33.6602C18.453 33.6891 18.5046 33.7169 18.555 33.7462C20.209 34.7139 22.0093 35.3403 23.9065 35.6089C23.9132 35.6097 23.9196 35.6105 23.9263 35.6113L31.6748 36.5035C33.0154 36.6971 34.0441 37.7722 34.1778 39.1207L34.2131 39.4738L20.5236 40.3185C20.5152 40.3181 20.5069 40.3177 20.4994 40.3169C20.0638 40.2772 19.6698 40.0709 19.3901 39.7361C19.1207 39.4131 18.6403 39.3695 18.3174 39.6389C17.9944 39.9086 17.9508 40.3887 18.2206 40.712C18.7605 41.3595 19.521 41.7578 20.3637 41.8344C20.399 41.8375 20.4347 41.8395 20.4641 41.8407C20.4867 41.8419 20.5093 41.8427 20.5319 41.8427C20.541 41.8427 20.5581 41.8423 20.5672 41.8419C20.5739 41.8415 20.5807 41.8415 20.5874 41.8407L35.0514 40.9481L37.9027 41.1083C38.0689 41.1179 38.2315 41.0726 38.3692 40.9806L40.0676 39.844L48.0875 34.4766C48.7861 34.0073 49.7394 34.1914 50.2127 34.8872C50.6436 35.5208 50.5389 36.3809 49.9699 36.8927Z" fill="#010101"/>
</g>
<defs>
<clipPath id="clip0_3656_7683">
<rect width="52" height="52" fill="white" transform="translate(0 0.5)"/>
</clipPath>
</defs>
</svg>
