<svg width="52" height="52" viewBox="0 0 52 52" fill="none" xmlns="http://www.w3.org/2000/svg">
<g clip-path="url(#clip0_3656_7516)">
<path d="M44.8348 11.0695C38.9177 21.138 23.2397 39.2882 3.73317 42.2153C3.5685 42.2413 3.40817 42.2522 3.24567 42.2522C1.664 42.2522 0.277333 41.0973 0.0368333 39.4853C-0.229667 37.7108 0.992333 36.0555 2.769 35.789C19.539 33.2735 33.5573 16.9953 38.8288 8.437L35.3232 6.89867C33.8823 6.266 33.9235 4.20767 35.3903 3.63567L44.1393 0.218833C45.4372 -0.288167 46.8975 0.353167 47.4045 1.651L50.817 10.4C51.389 11.8668 49.9027 13.2925 48.4618 12.6598L44.8348 11.0695ZM0 13C0 5.8305 5.8305 0 13 0C20.1695 0 26 5.8305 26 13C26 20.1695 20.1695 26 13 26C5.8305 26 0 20.1695 0 13ZM8.66667 8.66667C8.66667 11.0608 10.6058 13 13 13C15.3942 13 17.3333 11.0608 17.3333 8.66667C17.3333 6.2725 15.3942 4.33333 13 4.33333C10.6058 4.33333 8.66667 6.2725 8.66667 8.66667ZM6.57367 18.7633C8.16183 20.5313 10.439 21.6667 13 21.6667C15.561 21.6667 17.8382 20.5313 19.4263 18.7633C18.0873 16.6118 15.7213 15.1667 13 15.1667C10.2787 15.1667 7.91267 16.6118 6.57367 18.7633ZM48.75 19.5C46.9538 19.5 45.5 20.956 45.5 22.75V48.75C45.5 50.544 46.9538 52 48.75 52C50.5462 52 52 50.544 52 48.75V22.75C52 20.956 50.5462 19.5 48.75 19.5ZM37.9167 28.1667C36.1205 28.1667 34.6667 29.6227 34.6667 31.4167V48.75C34.6667 50.544 36.1205 52 37.9167 52C39.7128 52 41.1667 50.544 41.1667 48.75V31.4167C41.1667 29.6227 39.7128 28.1667 37.9167 28.1667ZM27.0833 36.8333C25.2872 36.8333 23.8333 38.2893 23.8333 40.0833V48.75C23.8333 50.544 25.2872 52 27.0833 52C28.8795 52 30.3333 50.544 30.3333 48.75V40.0833C30.3333 38.2893 28.8795 36.8333 27.0833 36.8333ZM16.25 43.3333C14.4538 43.3333 13 44.7893 13 46.5833V48.75C13 50.544 14.4538 52 16.25 52C18.0462 52 19.5 50.544 19.5 48.75V46.5833C19.5 44.7893 18.0462 43.3333 16.25 43.3333ZM2.16667 48.75C2.16667 50.544 3.62267 52 5.41667 52C7.21067 52 8.66667 50.544 8.66667 48.75C8.66667 46.956 7.21067 45.5 5.41667 45.5C3.62267 45.5 2.16667 46.956 2.16667 48.75Z" fill="white"/>
</g>
<defs>
<clipPath id="clip0_3656_7516">
<rect width="52" height="52" fill="white"/>
</clipPath>
</defs>
</svg>
