<svg width="60" height="60" viewBox="0 0 60 60" fill="none" xmlns="http://www.w3.org/2000/svg">
<g clip-path="url(#clip0_753_2531)">
<path d="M51.7325 12.7725C44.905 24.39 26.815 45.3325 4.3075 48.71C4.1175 48.74 3.9325 48.7525 3.745 48.7525C1.92 48.7525 0.32 47.42 0.0425 45.56C-0.265 43.5125 1.145 41.6025 3.195 41.295C22.545 38.3925 38.72 19.61 44.8025 9.735L40.7575 7.96C39.095 7.23 39.1425 4.855 40.835 4.195L50.93 0.2525C52.4275 -0.3325 54.1125 0.4075 54.6975 1.905L58.635 12C59.295 13.6925 57.58 15.3375 55.9175 14.6075L51.7325 12.7725ZM0 15C0 6.7275 6.7275 0 15 0C23.2725 0 30 6.7275 30 15C30 23.2725 23.2725 30 15 30C6.7275 30 0 23.2725 0 15ZM10 10C10 12.7625 12.2375 15 15 15C17.7625 15 20 12.7625 20 10C20 7.2375 17.7625 5 15 5C12.2375 5 10 7.2375 10 10ZM7.585 21.65C9.4175 23.69 12.045 25 15 25C17.955 25 20.5825 23.69 22.415 21.65C20.87 19.1675 18.14 17.5 15 17.5C11.86 17.5 9.13 19.1675 7.585 21.65ZM56.25 22.5C54.1775 22.5 52.5 24.18 52.5 26.25V56.25C52.5 58.32 54.1775 60 56.25 60C58.3225 60 60 58.32 60 56.25V26.25C60 24.18 58.3225 22.5 56.25 22.5ZM43.75 32.5C41.6775 32.5 40 34.18 40 36.25V56.25C40 58.32 41.6775 60 43.75 60C45.8225 60 47.5 58.32 47.5 56.25V36.25C47.5 34.18 45.8225 32.5 43.75 32.5ZM31.25 42.5C29.1775 42.5 27.5 44.18 27.5 46.25V56.25C27.5 58.32 29.1775 60 31.25 60C33.3225 60 35 58.32 35 56.25V46.25C35 44.18 33.3225 42.5 31.25 42.5ZM18.75 50C16.6775 50 15 51.68 15 53.75V56.25C15 58.32 16.6775 60 18.75 60C20.8225 60 22.5 58.32 22.5 56.25V53.75C22.5 51.68 20.8225 50 18.75 50ZM2.5 56.25C2.5 58.32 4.18 60 6.25 60C8.32 60 10 58.32 10 56.25C10 54.18 8.32 52.5 6.25 52.5C4.18 52.5 2.5 54.18 2.5 56.25Z" fill="#222222"/>
</g>
<defs>
<clipPath id="clip0_753_2531">
<rect width="60" height="60" fill="white"/>
</clipPath>
</defs>
</svg>
