<svg width="60" height="60" viewBox="0 0 60 60" fill="none" xmlns="http://www.w3.org/2000/svg">
<path d="M55.8754 13.75L45.0004 24.5C45.0004 24.5 41.7504 24.5 38.5004 21.25C35.2504 18 35.2504 14.75 35.2504 14.75L46.1254 3.87503C40.0004 2.37503 32.6254 4.37503 28.1254 8.87503C21.3754 15.625 27.3754 24.25 25.6254 26C16.1254 35.875 6.37539 43.375 6.12539 43.75C3.25039 46.625 3.12539 51.25 5.87539 54C8.62539 56.75 13.2504 56.625 16.1254 53.75C16.5004 53.375 24.5004 43.25 33.8754 33.875C35.6254 32.125 43.8754 38.5 50.8754 31.625C55.2504 27.125 57.3754 19.875 55.8754 13.75ZM11.7504 51.375C10.0004 51.375 8.62539 50 8.62539 48.25C8.62539 46.375 10.0004 45 11.7504 45C13.5004 45 14.8754 46.375 14.8754 48.125C14.8754 49.875 13.5004 51.375 11.7504 51.375Z" fill="#fff"/>
</svg>
