<svg width="60" height="60" viewBox="0 0 60 60" fill="none" xmlns="http://www.w3.org/2000/svg">
<g clip-path="url(#clip0_753_2535)">
<path d="M32.72 12.71C35.3825 10.97 40 7.2075 40 2V0H20V2C20 7.2075 24.6175 10.97 27.28 12.71C13.87 14.77 2.5 31.575 2.5 45C2.5 53.2725 9.2275 60 17.5 60H42.5C50.7725 60 57.5 53.2725 57.5 45C57.5 31.575 46.13 14.77 32.72 12.71ZM26.6075 34.4L34.2125 35.6675C37.565 36.225 40 39.1 40 42.5C40 46.635 36.635 50 32.5 50V52.5H27.5V50C23.365 50 20 46.635 20 42.5H25C25 43.8775 26.1225 45 27.5 45H32.5C33.8775 45 35 43.8775 35 42.5C35 41.555 34.3225 40.755 33.39 40.6L25.785 39.3325C22.4325 38.775 19.9975 35.9 19.9975 32.5C19.9975 28.365 23.3625 25 27.4975 25V22.5H32.4975V25C36.6325 25 39.9975 28.365 39.9975 32.5H34.9975C34.9975 31.1225 33.875 30 32.4975 30H27.4975C26.12 30 24.9975 31.1225 24.9975 32.5C24.9975 33.445 25.675 34.245 26.6075 34.4Z" fill="#fff"/>
</g>
<defs>
<clipPath id="clip0_753_2535">
<rect width="60" height="60" fill="white"/>
</clipPath>
</defs>
</svg>
