<svg xmlns="http://www.w3.org/2000/svg" width="70" height="70" viewBox="0 0 70 70">
    <g data-name="Group 25883">
        <g data-name="Group 26340">
            <path data-name="Path 24025" d="M45.295 49.236v1.206H26v-1.206s4.824-.217 4.824-6.03V42h9.647v1.206c0 5.812 4.824 6.03 4.824 6.03z" transform="translate(4.148 7.443)" style="fill:#b8c4c9"/>
            <path data-name="Path 24026" d="M27.158 52.824h20.658a1.206 1.206 0 0 0 1.206-1.206A3.618 3.618 0 0 0 45.4 48H26.109a3.7 3.7 0 0 0-.639.06z" transform="translate(4.039 8.678)" style="fill:#d5dee2"/>
            <path data-name="Path 24027" d="M67.177 37.206v3.618a3.618 3.618 0 0 1-3.618 3.618h-39.8l-4.469-7.236.856-1.206h45.825z" transform="translate(2.766 6.207)" style="fill:#d5dee2"/>
            <path data-name="Path 24028" d="M69.3 4.618v39.8H21.409L9 24.347V4.618A3.618 3.618 0 0 1 12.618 1h53.06A3.618 3.618 0 0 1 69.3 4.618z" transform="translate(.647 -1)" style="fill:#27a2dc"/>
            <path data-name="Path 24029" d="M61.554 38.563H28.15c.892-5.62 4.908-8.188 8.912-9.153l3.075 6.138a1.1 1.1 0 0 0 1.64.386l3.075-2.195 3.075 2.195a1.1 1.1 0 0 0 1.64-.386l3.075-6.138c4.004.965 8.02 3.533 8.912 9.153z" transform="translate(4.591 4.85)" style="fill:#e8edef"/>
            <path data-name="Path 24030" d="m51.12 29.494-3.075 6.138a1.1 1.1 0 0 1-1.64.386l-3.075-2.194-3.075 2.195a1.1 1.1 0 0 1-1.64-.386l-3.075-6.139A17.936 17.936 0 0 1 39.712 29h7.236a17.936 17.936 0 0 1 4.172.494z" transform="translate(6.112 4.766)" style="fill:#fff"/>
            <path data-name="Path 24031" d="M27.675 45.66c3.7 2.5 4.679 6.379 4.679 10.057v3.618a2.419 2.419 0 0 1-2.412 2.412H3.412A2.419 2.419 0 0 1 1 59.335v-3.618c0-3.678.977-7.561 4.679-10.057z" transform="translate(-1 8.196)" style="fill:#f5bf32"/>
            <path data-name="Path 24032" d="M46.236 27.54v1.76l-3.618 4.824L39 29.3v-1.76z" transform="translate(6.825 4.465)" style="fill:#fcab8b"/>
            <path data-name="Path 24033" d="m39.45 35.195.663 2.629h4.824l.663-2.629L42.525 33z" transform="translate(6.918 5.589)" style="fill:#dd5252"/>
            <path data-name="Path 24034" d="M14 21.265V10.412A2.419 2.419 0 0 1 16.412 8h12.059a2.419 2.419 0 0 1 2.412 2.412v3.618l4.57 4.57a.854.854 0 0 1-.6 1.459h-3.97v2.412a2.419 2.419 0 0 1-2.412 2.412H22.55z" transform="translate(1.677 .441)" style="fill:#f5bf32"/>
            <path data-name="Path 24035" d="M32 20.677v-4.824A10.853 10.853 0 0 1 42.853 5h2.412a10.853 10.853 0 0 1 10.853 10.853v4.824z" transform="translate(5.384 -.176)" style="fill:#242c4c"/>
            <path data-name="Path 24036" d="M31.313 49.594c-1.09.687-6.253 3.172-14.636 3.172S3.131 50.282 2.04 49.594a2.27 2.27 0 0 1-.558-3.3A16.812 16.812 0 0 0 4.7 35.883v-4.824a12.059 12.059 0 0 1 3.509-8.526A11.9 11.9 0 0 1 16.677 19a12.023 12.023 0 0 1 11.977 12.059v4.824a16.812 16.812 0 0 0 3.217 10.407 2.27 2.27 0 0 1-.558 3.3z" transform="translate(-1 2.707)" style="fill:#493732"/>
            <path data-name="Path 24037" d="M34.412 21.853s0 9.647 9.647 9.647 9.647-9.647 9.647-9.647a2.412 2.412 0 0 0 0-4.824 3.462 3.462 0 0 0-3.256-3.453A9.768 9.768 0 0 1 44.059 11a9.768 9.768 0 0 1-6.391 2.577 3.462 3.462 0 0 0-3.256 3.453 2.412 2.412 0 0 0 0 4.824z" transform="translate(5.384 1.059)" style="fill:#ffba9c"/>
            <g data-name="Group 26340">
                <path data-name="Path 24038" d="M25.441 14.412h-7.235a1.206 1.206 0 1 1 0-2.412h7.236a1.206 1.206 0 1 1 0 2.412z" transform="translate(2.295 1.265)" style="fill:#e8a328"/>
                <path data-name="Path 24039" d="M24.824 18.412h-3.618a1.206 1.206 0 0 1 0-2.412h3.618a1.206 1.206 0 1 1 0 2.412z" transform="translate(2.913 2.089)" style="fill:#e8a328"/>
            </g>
        </g>
    </g>
</svg>
