<svg xmlns="http://www.w3.org/2000/svg" width="140" height="140" viewBox="0 0 140 140">
    <g data-name="Group 26359" transform="translate(-666 -4323)">
        <circle data-name="Ellipse 1083" cx="70" cy="70" r="70" transform="translate(666 4323)" style="fill:#f4f4f4;opacity:.5"/>
        <g data-name="Group 26338">
            <path data-name="Path 24015" d="M26.42 16.267c-2.561-1.973-8.48-6.613-10.311-8.661a6.885 6.885 0 0 1-1.6-3.231c-.881-4.338-4.6-5.6-6.967-3.126a4.31 4.31 0 0 0-1 2.162C5.746 7.47-.015 5.829 0 10.769c-.113 9.3 11.109 2.952 15.319 8.646l5.611 5.634a1.831 1.831 0 0 0 2.93-.467l3.065-6.033a1.84 1.84 0 0 0-.512-2.282zm37.235 8.315a1.831 1.831 0 0 0 2.93.467l5.615-5.634c4.218-5.7 15.432.655 15.319-8.646.015-4.941-5.739-3.3-6.552-7.351a4.248 4.248 0 0 0-1-2.162C77.6-1.213 73.875.045 73 4.39a6.885 6.885 0 0 1-1.6 3.231c-1.838 2.049-7.75 6.68-10.311 8.661a1.836 1.836 0 0 0-.512 2.282l3.071 6.036zM23.867 55.22a1.831 1.831 0 0 0-2.93-.467l-5.611 5.634C11.109 66.088-.113 59.731 0 69.04c-.015 4.941 5.739 3.3 6.552 7.351a4.248 4.248 0 0 0 1 2.162c2.357 2.47 6.085 1.213 6.959-3.133a6.886 6.886 0 0 1 1.6-3.231c1.838-2.049 7.75-6.68 10.311-8.661a1.836 1.836 0 0 0 .512-2.282l-3.065-6.033zM72.2 60.394l-5.615-5.634a1.831 1.831 0 0 0-2.93.467L60.59 61.26a1.84 1.84 0 0 0 .512 2.282c2.561 1.981 8.48 6.613 10.311 8.661a6.885 6.885 0 0 1 1.6 3.231c.874 4.346 4.6 5.6 6.959 3.133a4.31 4.31 0 0 0 1-2.162c.806-4.059 6.567-2.418 6.552-7.351.113-9.3-11.109-2.952-15.319-8.646z" transform="translate(692.238 4353.092)" style="fill:#0a2645"/>
            <g data-name="Group 26337">
                <path data-name="Path 24016" d="M49.549 37.342c11.726 0 21.826-1.86 26.375-4.526l-6.1 44.609a3.5 3.5 0 0 1-1.524 2.462c-3.291 2.169-9.241 3.826-18.889 3.826s-15.6-1.657-18.889-3.826A3.523 3.523 0 0 1 29 77.424L22.88 32.65c4.413 2.757 14.686 4.692 26.654 4.692z" transform="translate(686.59 4345.031)" style="fill:#eb464c"/>
                <path data-name="Path 24017" d="M66.43 82.522a38.065 38.065 0 0 0 6.153-1.054l3.886-40.278a87.664 87.664 0 0 1-10.039 1.1v40.232z" transform="translate(675.839 4342.923)" style="fill:#f0767b"/>
            </g>
            <path data-name="Path 24018" d="M48.855 30.849c13.775 0 25.607-2.568 28.785-6.236v-.987c-3.178-3.675-15.018-6.236-28.785-6.236s-25.614 2.568-28.785 6.236v.987c3.178 3.675 15.018 6.236 28.785 6.236z" transform="translate(687.283 4348.798)" style="fill:#eb464c"/>
            <path data-name="Path 24019" d="M77.3 28.868zm-2.3-1.74c-4.73 2.553-14.581 4.308-25.983 4.308s-21.248-1.755-25.977-4.308c4.722-2.553 14.581-4.308 25.983-4.308s21.261 1.755 25.983 4.308zm-54.25 1.74z" transform="translate(687.116 4347.458)" style="fill:#ffc939"/>
            <path data-name="Path 24020" d="M48.786 13.77c-16 0-28.966 3.457-28.966 7.72v3.48c0 4.1 12.028 7.456 27.2 7.7h3.525c15.176-.241 27.2-3.6 27.2-7.7v-3.48c.007-4.263-12.962-7.72-28.959-7.72zm0 15.432c-13.752 0-25.253-2.553-28.213-5.98 2.96-3.427 14.468-5.98 28.213-5.98S74.039 19.8 77 23.222C74.039 26.649 62.531 29.2 48.786 29.2z" transform="translate(687.345 4349.692)" style="fill:#b03539"/>
            <path data-name="Path 24021" d="M74.385 44.651a23.731 23.731 0 0 0-9.482.377c-10.619 2.711-6.289 11.267-1.89 14.272a18.014 18.014 0 0 0 7.456 2.8 7.659 7.659 0 0 0 7.4-3.306 13.04 13.04 0 0 0 1.921-5.536 17.883 17.883 0 0 0 .09-2.621 6.978 6.978 0 0 0-5.49-5.987z" transform="translate(677.849 4342.15)" style="fill:#0a2645"/>
            <path data-name="Path 24022" d="M76.665 51.832c-7.644-.339-24.289-2.515-37.153-14.28a2.537 2.537 0 0 1-.226-.038c-.5-.068-.987-.143-1.469-.218-.158-.023-.309-.053-.467-.075-.437-.075-.859-.151-1.28-.226l-.241-.045c13.511 14.024 32.091 16.6 40.549 17l.294-2.124z" transform="translate(683.393 4343.97)" style="fill:#0a2645"/>
            <path data-name="Path 24023" d="M33.781 70.82c13.255 3.367 23.137 3.4 36.384 0l.218.309a31.383 31.383 0 0 1-28.1 4.451 30.089 30.089 0 0 1-8.714-4.451l.218-.309z" transform="translate(683.951 4335.609)" style="fill:#0a2645"/>
            <path data-name="Path 24024" d="M32.525 54.95C35.259 50.634 41.8 51 45.1 54.378a6.453 6.453 0 0 1 1.988 4.338l-.241.211a16.806 16.806 0 0 0-2.229-1.838 14.668 14.668 0 0 0-11.056-2.071l-.941.241-.105-.3z" transform="translate(684.213 4340.31)" style="fill:#0a2645"/>
        </g>
    </g>
</svg>
