<svg xmlns="http://www.w3.org/2000/svg" width="140" height="140" viewBox="0 0 140 140">
    <defs>
        <clipPath id="zynoohqiba">
            <path data-name="Rectangle 6823" style="fill:#fff" d="M0 0h84.671v82.739H0z"/>
        </clipPath>
    </defs>
    <g data-name="Group 26351" transform="translate(-666 -4323)">
        <circle data-name="Ellipse 1083" cx="70" cy="70" r="70" transform="translate(666 4323)" style="fill:#f4f4f4;opacity:.5"/>
        <g transform="translate(693.664 4351.631)" style="clip-path:url(#zynoohqiba)">
            <path data-name="Path 23936" d="M28.573 10.835c15.78 0 28.573 3.41 28.573 7.615v1.5a1.644 1.644 0 0 1 .357.252L69.225 31.57a9.954 9.954 0 0 1-3.217 16.381 24.053 24.053 0 0 1-26.025-5.319L26.827 29.475C11.864 29.237 0 25.924 0 21.875v-3.433c0-4.2 12.793-7.615 28.573-7.615zM42.22 40.4a20.893 20.893 0 0 0 22.607 4.621 6.793 6.793 0 0 0 2.192-11.181L56.425 23.561c-2.689 3.165-12.771 5.579-25.155 5.891L42.213 40.4zM28.573 26.057c13.558 0 24.9-2.518 27.83-5.891v-.015c-2.927-3.373-14.271-5.891-27.83-5.891S3.663 16.786.735 20.158c2.92 3.381 14.272 5.899 27.838 5.899z" transform="translate(0 7.508)" style="fill:#b03539"/>
            <path data-name="Path 23937" d="M34.94 56.817c4.747 1.263 9.65-3.105 14.405-1.865 1.828.476 3.41 1.753 5.275 2.021 2.429.342 4.628-1.048 6.931-2.043L53.7 33.355l-24.739 9 5.163 14.19a7.483 7.483 0 0 0 .816.272z" transform="translate(20.081 23.129)" style="fill:#bf972b"/>
            <path data-name="Path 23938" d="m34.243 26.6 11.122 30.555-3.648 1.33a9.284 9.284 0 0 0-5.549 11.894l2.868 7.867a9.013 9.013 0 0 1 1.4.372c1.114.4 2.154 1.018 3.3 1.322a7.6 7.6 0 0 0 2.712.186L42.1 68.209a2.961 2.961 0 0 1 1.768-3.8L57.1 59.6a2.961 2.961 0 0 1 3.8 1.768l6.553 17.994a35.977 35.977 0 0 1 4.847-2.007 8.94 8.94 0 0 1 1.085-.193l-6.542-17.957a9.284 9.284 0 0 0-11.894-5.549l-3.649 1.33-11.121-30.557a1.683 1.683 0 0 1 1-2.154l2.073-.75A9.284 9.284 0 0 0 48.8 9.63l-1.273-3.521A9.284 9.284 0 0 0 35.633.559L22.394 5.373a9.284 9.284 0 0 0-5.549 11.894l1.278 3.521a9.284 9.284 0 0 0 11.894 5.55l2.073-.75a1.683 1.683 0 0 1 2.155 1zm-6.381-6.19a2.967 2.967 0 0 1-3.8-1.768l-1.275-3.522a2.967 2.967 0 0 1 1.768-3.8l13.239-4.81a2.967 2.967 0 0 1 3.8 1.768l1.275 3.522a2.967 2.967 0 0 1-1.769 3.8z" transform="translate(11.29 -.002)" style="fill:#ffc939"/>
            <path data-name="Path 23939" d="M28.5 25.7c13.588 0 25.259-2.533 28.395-6.151v-.973C53.759 14.946 42.08 12.42 28.5 12.42S3.233 14.946.105 18.571v.973C3.24 23.17 14.919 25.7 28.5 25.7z" transform="translate(.073 8.612)" style="fill:#eb464c"/>
            <path data-name="Path 23940" d="M27.639 23.743c11.567 0 21.53-1.835 26.017-4.465l-6.018 44a3.451 3.451 0 0 1-1.5 2.429c-3.246 2.14-9.116 3.774-18.632 3.774s-15.387-1.631-18.633-3.77a3.476 3.476 0 0 1-1.5-2.429L1.347 19.115c4.353 2.719 14.487 4.628 26.292 4.628z" transform="translate(.934 13.254)" style="fill:#eb464c"/>
            <path data-name="Path 23941" d="M20.444 63.633a37.56 37.56 0 0 0 6.07-1.04l3.834-39.731a86.492 86.492 0 0 1-9.9 1.085z" transform="translate(14.176 15.852)" style="fill:#f0767b"/>
            <path data-name="Path 23942" d="M53 19.052C48.333 21.57 38.616 23.3 27.368 23.3S6.4 21.57 1.737 19.052C6.4 16.533 16.12 14.8 27.368 14.8S48.341 16.533 53 19.052z" transform="translate(1.205 10.264)" style="fill:#ffc939"/>
            <path data-name="Path 23943" d="M32.072 49.174v5.81H10.713v-5.81h7.214V31.737h-6.582v-5.81h14.427v23.254h6.3z" transform="translate(7.429 17.979)" style="fill:#fff"/>
            <path data-name="Path 23944" d="M28.573 10.835c15.78 0 28.573 3.41 28.573 7.615v1.5a1.644 1.644 0 0 1 .357.252l2.013 1.954a32.293 32.293 0 0 0-2.37 2.1l-.713-.691c-2.689 3.165-12.771 5.579-25.155 5.891l-4.45.022C11.864 29.237 0 25.924 0 21.875v-3.433c0-4.2 12.793-7.615 28.573-7.615zm0 15.222c13.558 0 24.9-2.518 27.83-5.891v-.015c-2.927-3.373-14.271-5.891-27.83-5.891S3.663 16.786.735 20.158c2.92 3.381 14.272 5.899 27.838 5.899z" transform="translate(0 7.508)" style="fill:#b03539"/>
        </g>
    </g>
</svg>
