<svg xmlns="http://www.w3.org/2000/svg" width="140" height="140" viewBox="0 0 140 140">
    <g data-name="Group 26355" transform="translate(-666 -4323)">
        <circle data-name="Ellipse 1083" cx="70" cy="70" r="70" transform="translate(666 4323)" style="fill:#f4f4f4;opacity:.5"/>
        <path data-name="Path 23960" d="m50.035 24.166-17.627-8.207v16.414z" transform="translate(727.22 4368.834)" style="fill:#367161"/>
        <path data-name="Path 23961" d="M28.43 24.166 10.8 15.959v16.414z" transform="translate(713.571 4368.834)" style="fill:#367161"/>
        <path data-name="Path 23962" d="M39.232 19.137 21.6 10.929v16.415z" transform="translate(720.396 4365.656)" style="fill:#367161"/>
        <path data-name="Path 23963" d="M28.43 14.1 10.8 5.9v16.412z" transform="translate(713.571 4362.481)" style="fill:#367161"/>
        <path data-name="Path 23964" d="M28.43 34.219 10.8 26.018v16.409z" transform="translate(713.571 4375.189)" style="fill:#367161"/>
        <path data-name="Path 23965" d="m0 24.166 17.627-8.207v16.414z" transform="translate(706.746 4368.834)" style="fill:#5ec2a6"/>
        <path data-name="Path 23966" d="M2.664 23.05 14.1 17.725v5.325z" transform="translate(708.429 4369.949)" style="fill:#86d1bc"/>
        <path data-name="Path 23967" d="m0 14.1 17.627-8.2v16.412z" transform="translate(706.746 4362.481)" style="fill:#5ec2a6"/>
        <path data-name="Path 23968" d="M2.664 12.991 14.1 7.666v5.325z" transform="translate(708.429 4363.594)" style="fill:#86d1bc"/>
        <path data-name="Path 23969" d="m0 34.219 17.627-8.2v16.408z" transform="translate(706.746 4375.189)" style="fill:#5ec2a6"/>
        <path data-name="Path 23970" d="M2.664 33.106 14.1 27.781v5.325z" transform="translate(708.429 4376.302)" style="fill:#86d1bc"/>
        <path data-name="Path 23971" d="M39.232 29.2 21.6 20.989V37.4z" transform="translate(720.396 4372.011)" style="fill:#367161"/>
        <path data-name="Path 23972" d="m21.6 24.166 17.627-8.207v16.414z" transform="translate(720.396 4368.834)" style="fill:#5ec2a6"/>
        <path data-name="Path 23973" d="m24.269 23.05 11.441-5.325v5.325z" transform="translate(722.078 4369.949)" style="fill:#86d1bc"/>
        <path data-name="Path 23974" d="m10.8 19.137 17.63-8.208v16.415z" transform="translate(713.571 4365.656)" style="fill:#367161"/>
        <path data-name="Path 23975" d="m10.8 29.2 17.63-8.211V37.4z" transform="translate(713.571 4372.011)" style="fill:#367161"/>
        <path data-name="Path 23976" d="M17.627 19.137 0 10.929v16.415z" transform="translate(706.746 4365.656)" style="fill:#367161"/>
        <path data-name="Path 23977" d="M17.627 9.081 0 .874v16.408z" style="fill:#367161" transform="translate(706.746 4359.303)"/>
        <path data-name="Path 23978" d="M17.627 29.2 0 20.989V37.4z" transform="translate(706.746 4372.011)" style="fill:#367161"/>
        <path data-name="Path 23979" d="M17.627 39.251 0 31.044v16.415z" transform="translate(706.746 4378.364)" style="fill:#367161"/>
        <path data-name="Path 23980" d="M29.827 32.78v4.775H12.2V32.78h5.953V18.448h-5.432v-4.776h11.907v19.114h5.2z" transform="translate(714.454 4367.389)" style="fill:#fff"/>
    </g>
</svg>
