<svg xmlns="http://www.w3.org/2000/svg" width="70" height="70" viewBox="0 0 70 70">
    <g data-name="Group 25883">
        <g data-name="Group 26342" transform="translate(-4.341)">
            <path data-name="Path 24040" d="M22.142 251.648a18.5 18.5 0 0 0-1.968.106c-7.607.817-14.87 8.051-15.715 15.66a17.8 17.8 0 0 0 27.049 17.162 12.849 12.849 0 0 1 5.741-2.017q.74-.066 1.5-.065.722 0 1.433.051a12.871 12.871 0 0 1 5.828 2.036 17.8 17.8 0 0 0 27.026-17.174c-.844-7.6-8.108-14.836-15.715-15.653a18.4 18.4 0 0 0-1.962-.106H22.142z" transform="translate(0 -217.243)" style="fill:#ffd33f"/>
            <circle data-name="Ellipse 1084" cx="3.559" cy="3.559" r="3.559" transform="translate(43.497 48.642)" style="fill:#ea3836"/>
            <path data-name="Path 24041" d="M109.865 307.783c-14.279 16-46.439 21.959-59 23.728a17.73 17.73 0 0 0 20.8 1.52 12.848 12.848 0 0 1 5.741-2.017c.5-.039 1-.059 1.506-.059q.722 0 1.433.051a12.872 12.872 0 0 1 5.828 2.036 17.8 17.8 0 0 0 27.027-17.175 16.882 16.882 0 0 0-3.335-8.084z" transform="translate(-40.164 -265.703)" style="fill:#ffac3e"/>
            <path data-name="Path 24042" d="M79.733 321.068h4.746V327h5.931v4.746h-5.932v5.932h-4.745v-5.932H73.8V327h5.932z" transform="translate(-59.964 -277.172)" style="fill:#383856"/>
            <g data-name="Group 26341" transform="translate(51.801 41.523)">
                <circle data-name="Ellipse 1085" cx="3.559" cy="3.559" r="3.559" style="fill:#91cece"/>
                <circle data-name="Ellipse 1086" cx="3.559" cy="3.559" r="3.559" transform="translate(0 14.237)" style="fill:#91cece"/>
            </g>
            <circle data-name="Ellipse 1087" cx="3.559" cy="3.559" r="3.559" transform="translate(60.112 48.642)" style="fill:#ea3836"/>
            <path data-name="Path 24043" d="M238.674 221.684v-4.746h4.746v4.746" transform="translate(-202.296 -187.278)" style="fill:#874d1b"/>
            <path data-name="Path 24044" d="M167.322 29.66h-2.373V26.1a2.372 2.372 0 0 0-2.373-2.373h-5.932a4.746 4.746 0 1 1 0-9.491h18.982a2.373 2.373 0 0 0 0-4.746h-5.932a4.746 4.746 0 0 1-4.746-4.746V0h2.373v4.746a2.372 2.372 0 0 0 2.373 2.373h5.932a4.746 4.746 0 0 1 0 9.491h-18.981a2.373 2.373 0 1 0 0 4.746h5.932a4.746 4.746 0 0 1 4.745 4.746v3.558z" transform="translate(-127.384)" style="fill:#383856"/>
            <path data-name="Path 24045" d="M299.483 359.649a3.518 3.518 0 0 1 .529 1.844 3.559 3.559 0 0 1-3.559 3.559 3.519 3.519 0 0 1-1.844-.529 3.55 3.55 0 1 0 4.874-4.874z" transform="translate(-250.583 -310.478)" style="fill:#d62121"/>
            <path data-name="Path 24046" d="M360.225 307.584a3.517 3.517 0 0 1 .529 1.844 3.559 3.559 0 0 1-3.559 3.559 3.519 3.519 0 0 1-1.844-.529 3.55 3.55 0 1 0 4.874-4.874z" transform="translate(-303.021 -265.531)" style="fill:#83b2b7"/>
            <path data-name="Path 24047" d="M420.968 359.649a3.519 3.519 0 0 1 .529 1.844 3.559 3.559 0 0 1-3.559 3.559 3.519 3.519 0 0 1-1.844-.529 3.55 3.55 0 1 0 4.874-4.874z" transform="translate(-355.459 -310.478)" style="fill:#d62121"/>
            <path data-name="Path 24048" d="M360.225 411.714a3.517 3.517 0 0 1 .529 1.844 3.559 3.559 0 0 1-3.559 3.559 3.52 3.52 0 0 1-1.844-.529 3.55 3.55 0 1 0 4.874-4.874z" transform="translate(-303.021 -355.425)" style="fill:#83b2b7"/>
            <path data-name="Path 24049" d="M73.8 368.042v1.158h5.932v5.932h4.746V369.2h5.932v-4.746h-1.98c-4.686 3.269-11.83 3.597-14.63 3.588z" transform="translate(-59.964 -314.628)" style="fill:#202033"/>
            <path data-name="Path 24050" d="M238.674 226.715v.324h4.746v-3.9a8.978 8.978 0 0 1-4.746 3.576z" transform="translate(-202.296 -192.634)" style="fill:#6b3713"/>
        </g>
    </g>
</svg>
