<svg xmlns="http://www.w3.org/2000/svg" width="140" height="140" viewBox="0 0 140 140">
    <g data-name="Group 26354" transform="translate(-666 -4323)">
        <circle data-name="Ellipse 1083" cx="70" cy="70" r="70" transform="translate(666 4323)" style="fill:#f4f4f4;opacity:.5"/>
        <g data-name="Group 26335">
            <path data-name="Path 23953" d="m44.836 60.464 14.42-10.259a5.719 5.719 0 0 1 7.1.367 4.829 4.829 0 0 1 1.057 5.915S43.992 90.5 42.547 92.8a14.941 14.941 0 0 1-12.666 7H14.948A14.948 14.948 0 0 1 0 84.849V61.1h39.024l5.812-.631z" transform="translate(702.007 4336.557)" style="fill:#ffc939"/>
            <path data-name="Path 23954" d="M66.357 37.491a5.72 5.72 0 0 0-7.1-.367l-14.041 9.994S47.8 8.945 47.8 8.769a8.769 8.769 0 1 0-17.538 0c0 .176 1.945 28.978 1.945 28.978a5.471 5.471 0 0 0-4.961-2.818 5.592 5.592 0 0 0-5.254 4.895c-.037.264-.345.272-.506-.132a5.49 5.49 0 0 0-5.2-3.295 5.592 5.592 0 0 0-5.261 4.953c-.029.25-.3.264-.462-.11a5.476 5.476 0 0 0-5.232-3.376 5.632 5.632 0 0 0-5.311 5.71v28.2a14.948 14.948 0 0 0 14.948 14.948H29.9a14.95 14.95 0 0 0 12.666-7c1.446-2.3 24.862-36.309 24.862-36.309a4.827 4.827 0 0 0-1.056-5.913zM32.895 48.014v-.169l.015.169z" transform="translate(702.001 4349.639)" style="fill:#ffc939"/>
            <g data-name="Group 26334">
                <path data-name="Path 23955" d="M44.24 12.14a2.666 2.666 0 0 0 4.506 0" transform="translate(690.231 4346.408)" style="fill:none;stroke:#0a2645;stroke-miterlimit:10"/>
                <path data-name="Path 23956" d="M56.33 12.14a2.666 2.666 0 0 0 4.506 0" transform="translate(687.013 4346.408)" style="fill:none;stroke:#0a2645;stroke-miterlimit:10"/>
                <path data-name="Path 23957" d="M54.519 19.227a5.557 5.557 0 0 1-7.2-.837" transform="translate(689.411 4344.744)" style="stroke-width:2.13px;fill:none;stroke:#0a2645;stroke-miterlimit:10"/>
            </g>
            <path data-name="Path 23958" d="M79.519 49.217c-.044 0-.088-.015-.132-.015a5.769 5.769 0 0 0-.616-.022 5.686 5.686 0 0 0-3.251 1.042l-14.046 9.995-.3 4.388a31.737 31.737 0 0 0-.073 2.2v1.688a2.175 2.175 0 0 0 3.845 1.394l16.708-19.973a5.725 5.725 0 0 0-2.128-.7z" transform="translate(685.743 4336.548)" style="fill:#0a2645"/>
            <path data-name="Path 23959" d="M2.071 84.688a6.581 6.581 0 0 0 3.4.961 8.308 8.308 0 0 0 4.285-1.255 9.454 9.454 0 0 0 6.67 2.722 8.289 8.289 0 0 0 4.285-1.255 9.454 9.454 0 0 0 6.67 2.722h.294a9.712 9.712 0 0 0 9.231-9.745V68.1a5.477 5.477 0 0 0-4.036-5.28v16.019a5.632 5.632 0 0 1-5.313 5.709 5.49 5.49 0 0 1-5.093-3.067 1.393 1.393 0 0 0-2.223-.345 5.752 5.752 0 0 1-3.816 1.945 5.481 5.481 0 0 1-4.917-3.06 1.4 1.4 0 0 0-2.231-.352 5.752 5.752 0 0 1-3.816 1.945A5.477 5.477 0 0 1-.02 76.131v5.041c0 2.033 2.077 3.522 2.077 3.522z" transform="translate(702.012 4332.917)" style="fill:#0a2645"/>
        </g>
    </g>
</svg>
