<svg xmlns="http://www.w3.org/2000/svg" width="140" height="140" viewBox="0 0 140 140">
    <g data-name="Group 26350" transform="translate(-666 -4323)">
        <circle data-name="Ellipse 1083" cx="70" cy="70" r="70" transform="translate(666 4323)" style="fill:#f4f4f4;opacity:.5"/>
        <path data-name="Path 23913" d="M38.543 33.186H28.429a8.066 8.066 0 1 0 0 16.132h10.114a8.066 8.066 0 0 0 0-16.132z" transform="translate(703.402 4378.623)" style="fill:#5e85c4"/>
        <path data-name="Path 23914" d="M38.543 23.78H28.429a8.066 8.066 0 1 0 0 16.132h10.114a8.066 8.066 0 0 0 0-16.132z" transform="translate(703.402 4371.904)" style="fill:#1756a3"/>
        <path data-name="Path 23915" d="M50.639 41.836v-1.167a7.483 7.483 0 1 0-14.965 0v1.167a7.483 7.483 0 1 0 14.965 0z" transform="translate(714.338 4378.623)" style="fill:#1756a3"/>
        <path data-name="Path 23916" d="M50.639 32.429v-1.166a7.483 7.483 0 1 0-14.965 0v1.167a7.483 7.483 0 0 0 14.965 0z" transform="translate(714.338 4371.904)" style="fill:#5e85c4"/>
        <path data-name="Path 23917" d="M54.9 44.068v-5.631a5.251 5.251 0 0 0-10.5 0v5.631a5.251 5.251 0 1 0 10.5 0z" transform="translate(720.574 4378.623)" style="fill:#5e85c4"/>
        <path data-name="Path 23918" d="M11.638 40.669v1.167a7.483 7.483 0 0 0 14.965 0v-1.167a7.483 7.483 0 1 0-14.965 0z" transform="translate(697.17 4378.623)" style="fill:#1756a3"/>
        <path data-name="Path 23919" d="M11.638 31.259v1.167a7.483 7.483 0 1 0 14.965 0v-1.167a7.483 7.483 0 1 0-14.965 0z" transform="translate(697.17 4371.901)" style="fill:#5e85c4"/>
        <path data-name="Path 23920" d="M5.508 38.437v5.63a5.251 5.251 0 0 0 10.5 0v-5.63a5.251 5.251 0 1 0-10.5 0z" transform="translate(692.791 4378.623)" style="fill:#5e85c4"/>
        <path data-name="Path 23921" d="M38.543 14.37H28.429a8.066 8.066 0 1 0 0 16.132h10.114a8.066 8.066 0 0 0 0-16.132z" transform="translate(703.402 4365.182)" style="fill:#5e85c4"/>
        <path data-name="Path 23922" d="M43.9 42.784a5.022 5.022 0 0 1-5.022 5.022H24.657a2.511 2.511 0 0 1 0-5.022h1.163a3.673 3.673 0 0 0 3.673-3.673v-8.048a3.352 3.352 0 0 0-3.352-3.352H25.3a2.511 2.511 0 1 1 0-5.022h4.835a7.346 7.346 0 0 1 7.347 7.346v9.546a3.208 3.208 0 0 0 3.208 3.209h3.2a.006.006 0 0 0 .01-.006z" transform="translate(704.676 4371.125)" style="fill:#fff"/>
        <path data-name="Path 23923" d="M11.81 9.589H0" transform="translate(688.857 4361.768)" style="fill:none;stroke:#b7cbe2;stroke-miterlimit:10;stroke-width:4.25px"/>
        <path data-name="Path 23924" d="M12.743 14.965 3.619 17.04" transform="translate(691.442 4365.608)" style="fill:none;stroke:#b7cbe2;stroke-miterlimit:10;stroke-width:4.25px"/>
        <path data-name="Path 23925" d="M12.743 5.081 3.619 3" transform="translate(691.442 4357.061)" style="fill:none;stroke:#b7cbe2;stroke-miterlimit:10;stroke-width:4.25px"/>
        <path data-name="Path 23926" d="M48.111 9.589h11.81" transform="translate(723.222 4361.768)" style="fill:none;stroke:#b7cbe2;stroke-miterlimit:10;stroke-width:4.25px"/>
        <path data-name="Path 23927" d="m46.058 14.965 9.124 2.074" transform="translate(721.756 4365.608)" style="fill:none;stroke:#b7cbe2;stroke-miterlimit:10;stroke-width:4.25px"/>
        <path data-name="Path 23928" d="M46.058 5.081 55.183 3" transform="translate(721.756 4357.061)" style="fill:none;stroke:#b7cbe2;stroke-miterlimit:10;stroke-width:4.25px"/>
        <path data-name="Path 23929" d="M45.638 22.337a.013.013 0 0 0 .009 0A105.115 105.115 0 0 0 65.086 19.8c2.171-.662 4.32-1.638 4.789-2.434.212-.36.431-.732-2.693-3.86-1.241-1.522-1.959-1.548-4.048-1.394a41.882 41.882 0 0 1-5.954.058c-7.634-.289-14.648-5.966-16.486-7.623-2.61-2.35-3.669-.764-6.59 1.092-6.2 4.187-11.069 2.9-13.891 1.683-3.813-1.649-8.513-1.005-8.784 3.139a13.308 13.308 0 0 0-.007 1.56l.11 2.087a8.561 8.561 0 0 0 8.549 8.111h7.5a1.061 1.061 0 0 0 1.061-1.061 1.136 1.136 0 0 1 1.472-1.058 53.725 53.725 0 0 0 15.515 2.236.013.013 0 0 1 .009.001z" transform="translate(697.001 4357.327)" style="fill:#0a2645"/>
        <path data-name="Path 23930" d="M47.162 15.336a25.417 25.417 0 0 0 6.492-.61.61.61 0 0 0 .415-1 .29.29 0 0 0-.029-.028.814.814 0 0 0-.628-.244l-.567.039a45.292 45.292 0 0 1-6.431.065c-9.148-.367-17.025-7.084-18.514-8.427a.385.385 0 0 0-.477-.03c-.217.144-.451.3-.651.441a1.2 1.2 0 0 0-.14 1.9l.193.173c2.678 2.222 9.654 7.315 17.591 7.636.908.058 1.831.083 2.739.083z" transform="translate(707.594 4358.513)" style="fill:#3b516a"/>
        <path data-name="Path 23931" d="M16.321 29.058a2.231 2.231 0 1 0-3.363-1.923 2.231 2.231 0 0 0 3.363 1.923z" transform="translate(698.113 4372.707)" style="fill:#86a3d3"/>
        <path data-name="Path 23932" d="M9.528 37.157a1.624 1.624 0 1 0-2.691-1.223 1.624 1.624 0 0 0 2.691 1.223z" transform="translate(693.74 4379.426)" style="fill:#86a3d3"/>
        <path data-name="Path 23933" d="M40.36 29.058A2.231 2.231 0 1 0 37 27.135a2.231 2.231 0 0 0 3.36 1.923z" transform="translate(715.284 4372.707)" style="fill:#86a3d3"/>
        <path data-name="Path 23934" d="M48.419 37.16a1.625 1.625 0 1 0-2.692-1.225 1.625 1.625 0 0 0 2.692 1.225z" transform="translate(721.52 4379.426)" style="fill:#86a3d3"/>
        <path data-name="Path 23935" d="M28.438 23.954a4.523 4.523 0 1 0-6.75-3.937 4.523 4.523 0 0 0 6.75 3.937z" transform="translate(704.348 4365.985)" style="fill:#86a3d3"/>
    </g>
</svg>
