<svg xmlns="http://www.w3.org/2000/svg" width="140" height="140" viewBox="0 0 140 140">
    <defs>
        <clipPath id="avlhd5g03a">
            <path data-name="Rectangle 6826" style="fill:#fff" d="M0 0h92.435v62.32H0z"/>
        </clipPath>
    </defs>
    <g data-name="Group 26356" transform="translate(-666 -4323)">
        <circle data-name="Ellipse 1083" cx="70" cy="70" r="70" transform="translate(666 4323)" style="fill:#f4f4f4;opacity:.5"/>
        <g transform="translate(690.783 4361.84)" style="clip-path:url(#avlhd5g03a)">
            <path data-name="Path 23981" d="m.3 39.129 9.631-19.317h55.281l9.822 19.317-36.172 4.279z" transform="translate(.256 16.814)" style="fill:#3e546c"/>
            <path data-name="Path 23982" d="M61.333 9.962a.735.735 0 0 0-.759.275l-1.54 2.069a.374.374 0 0 1-.67-.171l-.432-3.148a.742.742 0 0 0-.618-.625l-.305-.045a.732.732 0 0 0-.729.335l-1.533 2.478a.6.6 0 0 1-1.094-.164L52.947 8.3a.959.959 0 0 0-1.875.1c-2.114 13.007-7.844 22.04-15.092 23.752l5.313 10.492c8.8-3.222 15.612-11.727 19.273-23.864a31.709 31.709 0 0 0 1.272-7.225l.052-.856a.733.733 0 0 0-.558-.759z" transform="translate(30.536 6.438)" style="fill:#0a2645"/>
            <path data-name="Path 23983" d="M2.647 0c-.662 6.422 2.708 12.732 5.789 15.135l10.656-8.483Q10.877.156 2.647 0z" transform="translate(2.175)" style="fill:#bf972b"/>
            <path data-name="Path 23984" d="M45.965 0c.662 6.422-2.709 12.732-5.789 15.135L29.52 6.652Q37.747.156 45.965 0z" transform="translate(25.053)" style="fill:#bf972b"/>
            <path data-name="Path 23985" d="m67.481 28.642-1.4-2.574a12.1 12.1 0 0 0 1.585-5.886c0-10.105-13.312-18.3-29.742-18.3s-29.742 8.194-29.742 18.3a12.019 12.019 0 0 0 1.585 5.886l-1.4 2.574C6.061 31.76 3.353 34.015 0 34.908c5.588 5.707 17.256 7.724 27.882 5.261l5.718-1.883a48.35 48.35 0 0 0 8.646 0l5.715 1.883c10.626 2.47 22.294.446 27.882-5.261-3.343-.893-6.063-3.14-8.362-6.266z" transform="translate(.003 1.599)" style="fill:#dfcb95"/>
            <path data-name="Path 23986" d="M40.794 25.47c1.548 3.691-.32 6.362-3.512 7.873a12.536 12.536 0 0 1-5.38 1.124h-9.666a12.535 12.535 0 0 1-5.38-1.124c-3.192-1.511-5.06-4.182-3.512-7.873l13.55-15.552z" transform="translate(10.855 8.417)" style="fill:#bf972b"/>
            <path data-name="Path 23987" d="M68.236 10.732C57.223 10.412 58.3 6.468 49.6 6.468s-12.687 3.78-12.687 3.78-3.989-3.78-12.687-3.78-7.61 3.944-18.626 4.264l-4.417 10.82c5.1 6.206 11.794 8.066 19.488 7.24 11.288-1.615 10.254-10.44 16.244-11.623 5.99 1.183 4.956 10 16.244 11.623 7.694.826 14.391-1.034 19.489-7.24z" transform="translate(1.004 5.49)" style="fill:#0a2645"/>
            <path data-name="Path 23988" d="M12.306 21.288c.97 0 1.756-2.679 1.756-5.983s-.786-5.983-1.756-5.983S10.55 12 10.55 15.3s.786 5.988 1.756 5.988z" transform="translate(8.954 7.912)" style="fill:#fff"/>
            <path data-name="Path 23989" d="M30.334 21.288c.97 0 1.756-2.679 1.756-5.983s-.79-5.983-1.756-5.983S28.578 12 28.578 15.3s.787 5.988 1.756 5.988z" transform="translate(24.254 7.912)" style="fill:#fff"/>
            <path data-name="Path 23990" d="M22.9 24.685c2.869 0 5.194-1.193 5.194-2.664s-2.325-2.664-5.194-2.664-5.2 1.193-5.2 2.664 2.328 2.664 5.2 2.664z" transform="translate(15.024 16.428)" style="fill:#0a2645"/>
            <path data-name="Path 23991" d="M37.318 33.879h1.1c6.333 0 24.668-.506 32.287-6.05l-2.441-4.822c-3.728 3.758-17.137 5.588-30.583 5.529-13.445.064-26.854-1.771-30.581-5.528l-2.442 4.821c7.62 5.544 25.955 6.05 32.287 6.05h.372zm35.353-2.143c-5.1 3.46-18.521 5.782-34.066 5.782H36.73c-15.545 0-28.969-2.322-34.066-5.782L.3 36.417c4.39 2.649 14.451 6.377 36.32 6.377h2.1c21.877 0 31.938-3.728 36.321-6.377z" transform="translate(.253 19.526)" style="fill:#0a2645"/>
            <path data-name="Path 23992" d="m50.508 11.967-3.4-.848a2.426 2.426 0 1 0-1.168 4.71l3.4.848a2.426 2.426 0 1 0 1.168-4.71zm-2.344 5.514-1.577-.394a1.2 1.2 0 0 0-.58 2.337l1.577.394a1.2 1.2 0 1 0 .58-2.337z" transform="translate(37.425 9.374)" style="fill:#bf972b"/>
            <path data-name="Path 23993" d="M20.512 20.8v4.435" transform="translate(17.408 17.651)" style="fill:none;stroke:#0a2645;stroke-miterlimit:10"/>
        </g>
    </g>
</svg>
