<svg xmlns="http://www.w3.org/2000/svg" width="70" height="70" viewBox="0 0 70 70">
    <g data-name="Group 25883">
        <g data-name="Group 26344">
            <path data-name="Path 24063" d="M353.538 361h-20.5a2.035 2.035 0 0 0-2.038 2.037V381.5h22.538a2.035 2.035 0 0 0 2.037-2.037v-16.426a2.035 2.035 0 0 0-2.037-2.037z" transform="translate(-285.575 -311.986)" style="fill:#fe9923"/>
            <path data-name="Path 24064" d="M22.538 331H2.037A2.035 2.035 0 0 0 0 333.037v20.5a2.035 2.035 0 0 0 2.037 2.037h22.538v-22.537A2.035 2.035 0 0 0 22.538 331z" transform="translate(.484 -286.059)" style="fill:#fea832"/>
            <path data-name="Path 24065" d="M179.512 243.037v34.758H151v-34.758a2.017 2.017 0 0 1 2.037-2.037h24.439a2.017 2.017 0 0 1 2.036 2.037z" transform="translate(-130.014 -208.279)" style="fill:#fedb41"/>
            <path data-name="Path 24066" d="M270.256 243.037v34.758H256V241h12.22a2.017 2.017 0 0 1 2.036 2.037z" transform="translate(-220.758 -208.279)" style="fill:#fc3"/>
            <path data-name="Path 24067" d="m174.977 9.993-7.739-1.222-3.381-7.587A2.14 2.14 0 0 0 161.9 0a1.914 1.914 0 0 0-1.711 1.141l-3.544 7.465-7.739 1.018a2.037 2.037 0 0 0-1.181 3.462l5.54 5.54-1.426 7.7a2.039 2.039 0 0 0 2.933 2.2l6.965-3.544.163.082 6.721 3.625a2.013 2.013 0 0 0 2.973-2.077l-1.222-7.739 5.662-5.417a2 2 0 0 0-1.057-3.463z" transform="translate(-126.66)" style="fill:#fedb41"/>
            <path data-name="Path 24068" d="M219.146 303.037v12.22a2.037 2.037 0 0 1-4.073 0v-7.291l-.611.57a2.016 2.016 0 0 1-2.851-2.851l4.073-4.073a1.976 1.976 0 0 1 1.426-.612 2.041 2.041 0 0 1 2.036 2.037z" transform="translate(-181.868 -260.133)" style="fill:#0d70b2"/>
            <path data-name="Path 24069" d="M258.037 303.037v12.22a2.017 2.017 0 0 1-2.037 2.036V301a2.041 2.041 0 0 1 2.037 2.037z" transform="translate(-220.758 -260.132)" style="fill:#095c92"/>
            <path data-name="Path 24070" d="m270.134 13.455-5.662 5.417 1.222 7.739a2.013 2.013 0 0 1-2.973 2.077L256 25.064V0a2.14 2.14 0 0 1 1.955 1.181l3.381 7.587 7.739 1.222a2 2 0 0 1 1.059 3.465z" transform="translate(-220.758)" style="fill:#fc3"/>
        </g>
    </g>
</svg>
