<svg xmlns="http://www.w3.org/2000/svg" width="140" height="140" viewBox="0 0 140 140">
    <g data-name="Group 26358" transform="translate(-666 -4323)">
        <circle data-name="Ellipse 1083" cx="70" cy="70" r="70" transform="translate(666 4323)" style="fill:#f4f4f4;opacity:.5"/>
        <g data-name="Group 26336">
            <path data-name="Path 24008" d="M21.623 2.026A24.455 24.455 0 0 0 1.787 30.354a6.114 6.114 0 1 1 12.041-2.126C11.714 17.633 13.6 7.056 21.623 2.02z" transform="translate(708.396 4346.609)" style="fill:#1756a3"/>
            <path data-name="Path 24009" d="m34.68 2.03 4.247 24.082a6.114 6.114 0 1 1 12.041-2.126C49.333 13.311 43.945 4.017 34.68 2.03z" transform="translate(695.339 4346.605)" style="fill:#ffc939"/>
            <path data-name="Path 24010" d="m29.126 2.03 4.247 24.082a6.114 6.114 0 1 0-12.041 2.126c-2.114-10.6-.225-21.172 7.794-26.2z" transform="translate(700.893 4346.605)" style="fill:#8b5ac4"/>
            <path data-name="Path 24011" d="M34.68 1.787c9.258 1.987 14.653 11.282 16.287 21.962a6.114 6.114 0 0 1 12.041-2.126A24.452 24.452 0 0 0 34.68 1.787z" transform="translate(695.339 4346.847)" style="fill:#eb464c"/>
            <path data-name="Path 24012" d="M50.248 20.924A25.314 25.314 0 0 0 .39 29.714a.818.818 0 0 0 .182.395L23.7 58.365l1.33-1.087L2.06 29.21a5.245 5.245 0 0 1 9.587-3.584l.608 1.258.024.055 14.434 30.083 1.555-.747-14.21-29.6a5.254 5.254 0 0 1 10.419-1.209l5.213 29.563 1.695-.3-5.212-29.559a5.249 5.249 0 0 1 10.194-2.43l-3.226 32.678 1.713.17 3.274-33.207v-.061l.146-1.391a5.242 5.242 0 0 1 10.231.085L36.519 55.242l1.622.571 12.071-34.458a.8.8 0 0 0 .036-.431zm-8.08-5.656a6.988 6.988 0 0 0-5.395 4.623 6.974 6.974 0 0 0-12.041 2.12 6.978 6.978 0 0 0-12.047 2.12 6.965 6.965 0 0 0-10.941.091A23.6 23.6 0 0 1 47.1 16.234a6.96 6.96 0 0 0-4.927-.972z" transform="translate(708.949 4347.4)" style="fill:#0a2645"/>
            <path data-name="Rectangle 6828" transform="rotate(-10 25537.368 -1928.18)" style="fill:#bf972b" d="M0 0h33.887v33.887H0z"/>
            <path data-name="Path 24013" d="m30.481 125.7-5.492-31.16-2.2.389 5.882 33.371 33.377-5.881-.395-2.217z" transform="translate(700.006 4310.296)" style="fill:#8f7120"/>
            <path data-name="Path 24014" d="m39.56 114.385 7.351 5.146 10.431-14.89" transform="translate(693.424 4306.331)" style="fill:none;stroke:#0a2645;stroke-miterlimit:10;stroke-width:5.67px"/>
        </g>
    </g>
</svg>
