<svg xmlns="http://www.w3.org/2000/svg" width="70" height="70" viewBox="0 0 70 70">
    <g data-name="Group 25883">
        <g data-name="Group 26343">
            <path data-name="Path 24051" d="M41.005 329.482c-1.271.123-2.542.246-3.854.328a67.427 67.427 0 0 1-4.1.123 2.03 2.03 0 0 0-2.05 2.05v19.886H43.3v-20.337a2.065 2.065 0 0 0-2.295-2.05z" transform="translate(-26.74 -284.411)" style="fill:#ff641a"/>
            <path data-name="Path 24052" d="M399.693 131.566c-.9 1.025-1.722 2.009-2.542 2.911a67.9 67.9 0 0 1-5.453 5.576 1.968 1.968 0 0 0-.7 1.517v38.83h12.3v-47.522a2.051 2.051 0 0 0-3.605-1.312z" transform="translate(-337.538 -112.942)" style="fill:#ffd400"/>
            <path data-name="Path 24053" d="M280.1 241.295q-1.414.984-2.952 1.845a60.436 60.436 0 0 1-5 2.829 1.991 1.991 0 0 0-1.148 1.8v27.676h12.3v-32.428a2.055 2.055 0 0 0-3.2-1.722z" transform="translate(-233.939 -207.992)" style="fill:#fdbf00"/>
            <path data-name="Path 24054" d="M69.976 2.05v8.2a2.05 2.05 0 0 1-4.1 0V8.774l-8.091 9.075a66.766 66.766 0 0 1-22.8 16.769 67.42 67.42 0 0 1-27.673 5.946c-1.886 0-3.528-.082-5.455-.246A2.006 2.006 0 0 1 .012 38.1a1.98 1.98 0 0 1 2.214-1.845 62.33 62.33 0 0 0 32.762-6.15 63.068 63.068 0 0 0 19.721-14.962L64.522 4.1h-4.8a2.03 2.03 0 0 1-2.05-2.05A2.03 2.03 0 0 1 59.725 0h8.2a2.03 2.03 0 0 1 2.051 2.05z" transform="translate(.024 .024)" style="fill:#54e360"/>
            <path data-name="Path 24055" d="M160.554 301.6a47.51 47.51 0 0 1-3.4 1.107c-1.517.492-3.034.861-4.551 1.23a2.1 2.1 0 0 0-1.6 2.009v21.772h12.3v-24.19a2.069 2.069 0 0 0-2.749-1.928z" transform="translate(-130.339 -260.261)" style="fill:#ff9f00"/>
            <path data-name="Path 24056" d="M82.151 331.532v20.337H76V329.81c1.312-.082 2.583-.205 3.854-.328a2.065 2.065 0 0 1 2.297 2.05z" transform="translate(-65.59 -284.411)" style="fill:#ff4b00"/>
            <path data-name="Path 24057" d="M202.151 303.528v24.191H196v-25.011c1.148-.328 2.3-.7 3.4-1.107a2.069 2.069 0 0 1 2.751 1.927z" transform="translate(-169.189 -260.261)" style="fill:#f77e00"/>
            <path data-name="Path 24058" d="M322.151 243.017v32.432H316V243.14q1.538-.861 2.952-1.845a2.055 2.055 0 0 1 3.199 1.722z" transform="translate(-272.789 -207.992)" style="fill:#ff9f00"/>
            <path data-name="Path 24059" d="M442.151 132.878V180.4H436v-45.922c.82-.9 1.64-1.886 2.542-2.911a2.051 2.051 0 0 1 3.609 1.311z" transform="translate(-376.388 -112.942)" style="fill:#fdbf00"/>
            <path data-name="Path 24060" d="M290.989 2.05v8.2a2.05 2.05 0 1 1-4.1 0V8.774l-8.089 9.075a66.765 66.765 0 0 1-22.8 16.77v-4.51a63.067 63.067 0 0 0 19.722-14.966L285.535 4.1h-4.8a2.03 2.03 0 0 1-2.05-2.05A2.03 2.03 0 0 1 280.738 0h8.2a2.03 2.03 0 0 1 2.051 2.05z" transform="translate(-220.989 .024)" style="fill:#00cc71"/>
            <path data-name="Path 24061" d="M69.976 484.05a2.03 2.03 0 0 1-2.05 2.05H2.051a2.05 2.05 0 0 1 0-4.1h65.875a2.03 2.03 0 0 1 2.05 2.05z" transform="translate(.023 -416.101)" style="fill:#53433f"/>
            <path data-name="Path 24062" d="M290.989 484.05a2.03 2.03 0 0 1-2.05 2.05H256V482h32.938a2.03 2.03 0 0 1 2.051 2.05z" transform="translate(-220.989 -416.101)" style="fill:#3e322e"/>
        </g>
    </g>
</svg>
