<svg xmlns="http://www.w3.org/2000/svg" width="140" height="140" viewBox="0 0 140 140">
    <defs>
        <clipPath id="8maefy81wa">
            <path data-name="Rectangle 6827" style="fill:#fff" d="M0 0h80.327v76.878H0z"/>
        </clipPath>
    </defs>
    <g data-name="Group 26357" transform="translate(-666 -4323)">
        <circle data-name="Ellipse 1083" cx="70" cy="70" r="70" transform="translate(666 4323)" style="fill:#f4f4f4;opacity:.5"/>
        <g transform="translate(698.836 4353.561)" style="clip-path:url(#8maefy81wa)">
            <path data-name="Path 23994" d="M17.47 14.265h-6.076v7.342h6.076z" transform="translate(6.911 8.652)" style="fill:#8f7120"/>
            <path data-name="Path 23995" d="m13.095 1.092 5.413-.955a9.014 9.014 0 0 1 10.437 7.308l1.177 6.673a7.735 7.735 0 0 1-6.271 8.955l-7.933 1.4A7.735 7.735 0 0 1 6.963 18.2l-1.176-6.671a9.018 9.018 0 0 1 7.308-10.437z" transform="translate(3.426 -.001)" style="fill:#0a2645"/>
            <path data-name="Path 23996" d="M14.764 6.991a5.241 5.241 0 0 1 6.066 4.248l1.134 6.429a3.962 3.962 0 0 1-3.21 4.585l-2.519.444a3.962 3.962 0 0 1-4.585-3.21l-1.134-6.429a5.241 5.241 0 0 1 4.248-6.067z" transform="translate(6.33 4.192)" style="fill:#bf972b"/>
            <path data-name="Path 23997" d="M12.907 12.974a2.34 2.34 0 0 0 2.112.719 2.313 2.313 0 0 0 1.737-1.4" transform="translate(7.828 7.456)" style="fill:none;stroke:#0a2645;stroke-miterlimit:10"/>
            <path data-name="Path 23998" d="M12.262 12.3a.808.808 0 1 0-.808-.808.808.808 0 0 0 .808.808z" transform="translate(6.947 6.481)" style="fill:#0a2645"/>
            <path data-name="Path 23999" d="M15.984 11.644a.808.808 0 1 0-.808-.808.808.808 0 0 0 .808.808z" transform="translate(9.205 6.082)" style="fill:#0a2645"/>
            <path data-name="Path 24000" d="M17.563 27.156a8.2 8.2 0 0 0 8.812.8c2.787-1.107 6.986-7.87 8.9-11.153a2.2 2.2 0 0 0-3.728-2.335c-1.928 2.85-5.7 8.055-7.864 8.564-2.99.7-8.939-3.308-8.939-3.308l2.812 7.438z" transform="translate(8.943 8.188)" style="fill:#bf972b"/>
            <path data-name="Path 24001" d="M19.222 19.045a3.282 3.282 0 0 0-4.562-1.311c-3.9 2.29-11.542 7.508-10.683 11.109 1.241 5.2 15.162 5.2 15.162 5.2l-.986-4.174a32.046 32.046 0 0 0-8.042-1.553c1.966-.452 6.337-3.595 8.29-5.211a3.285 3.285 0 0 0 .821-4.066z" transform="translate(2.372 10.484)" style="fill:#bf972b"/>
            <path data-name="Path 24002" d="M26.366 28.054a102.391 102.391 0 0 0-6.1 15.181c-3.066 2.093-13.066.534-15.946.032a1.432 1.432 0 0 0-1.349.5C.56 46.671.083 49.566 0 54.166c0 0 .032 2 1.591 2.456C3.55 57 5.058 55.4 5.8 54.395c2.666.089 5.86.165 8.729.165 1.234 0 5.873.185 7.024.388a5.7 5.7 0 0 0 5.9-2.736l9.162-21.327-10.242-2.837z" transform="translate(0 17.012)" style="fill:#367161"/>
            <path data-name="Path 24003" d="M14.578 33.214s2.284 5.478 10.848 4.174A74.155 74.155 0 0 0 37.8 34.716c-1.89 7.425-3.016 14.4-.535 19.24l7.991-1.3S46.6 30.79 43.089 27.94s-18.96.21-18.96.21l-9.55 5.058z" transform="translate(8.842 16.21)" style="fill:#367161"/>
            <path data-name="Path 24004" d="m13.96 17.149 2.539-.242a5.024 5.024 0 0 1 4.855 2.551l8.055 14.43c-2.634 4.129-6.808 6.261-12.553 6.35 0 0-5.014-13.686-6.712-17.4a3.581 3.581 0 0 1 .643-4.18 4.815 4.815 0 0 1 3.173-1.509z" transform="translate(5.91 10.242)" style="fill:#5ec2a6"/>
            <path data-name="Path 24005" d="M19.377 38.175a.887.887 0 0 1-.872-.585c-.993-2.685-5.007-13.552-6.49-16.8a3.553 3.553 0 0 1 .07-3.41 4.632 4.632 0 0 0-1.3.973 3.578 3.578 0 0 0-.643 4.18c1.692 3.716 6.712 17.4 6.712 17.4 4.867-.076 8.608-1.622 11.243-4.606a15.177 15.177 0 0 1-8.72 2.848z" transform="translate(5.907 10.543)" style="fill:#47927d"/>
            <path data-name="Path 24006" d="M14.075 59.312h57.714l-14.646-5.319 11.936-16.912-19.17 11.675-.248-19.794L39.85 46.37l-13.635-9.3 5.16 14.379-17.3-6.458 10.912 10.95z" transform="translate(8.537 17.567)" style="fill:#f5992b"/>
            <path data-name="Path 24007" d="M9.188 23.479a6.628 6.628 0 0 0 2.653 2.577 52.546 52.546 0 0 0 4-2.946 3.286 3.286 0 0 0-3.741-5.376 53.67 53.67 0 0 0-3.945 2.558 10.559 10.559 0 0 0 1.043 3.188z" transform="translate(4.944 10.484)" style="fill:#5ec2a6"/>
        </g>
    </g>
</svg>
