<svg width="130" height="18" viewBox="0 0 130 18" fill="none" xmlns="http://www.w3.org/2000/svg">
<g clip-path="url(#clip0_958_2300)">
<path d="M14.8475 14.1212C14.4081 12.9694 13.9126 11.764 13.3989 10.4328C12.8845 9.10084 12.347 7.83252 11.8285 6.59832C11.2944 5.32765 10.7553 4.05919 10.2113 2.79299C10.022 2.27681 9.69872 1.82436 9.2768 1.4852C8.91446 1.24444 8.49262 1.11642 8.06167 1.11642C7.63072 1.11642 7.20888 1.24444 6.84654 1.4852C6.42683 1.8248 6.10369 2.2767 5.91166 2.79223C5.36765 4.05765 4.83031 5.32611 4.29966 6.59755C3.76653 7.87224 3.24157 9.15055 2.7248 10.4324C2.23246 11.6579 1.74946 12.8874 1.27586 14.1208C0.846687 15.2317 0.430656 16.3479 0.0278571 17.4693L0 17.5528H2.80429V17.5041C2.96289 17.0181 3.17794 16.4252 3.43497 15.7157C3.66613 15.0785 3.90286 14.4435 4.14514 13.8107L4.17337 13.7279C4.46791 12.9407 5.72037 9.68459 5.96329 9.07707C6.21048 8.45444 6.46281 7.834 6.72026 7.21581C6.97729 6.6033 7.21574 6.02492 7.4542 5.47566C7.69229 4.92678 7.8702 4.50401 8.04774 4.12493C8.24879 4.5738 8.44664 5.02418 8.64129 5.47604C8.85597 5.97164 9.10854 6.60829 9.37486 7.21581C9.64117 7.82332 9.88409 8.45499 10.1318 9.07707C10.3796 9.69916 11.6276 12.9648 11.9221 13.7279L11.9544 13.8107C12.2349 14.5543 12.4685 15.1764 12.665 15.7157C12.922 16.4252 13.1322 17.0227 13.296 17.5041V17.5528H16.0999L16.0717 17.47C15.7215 16.4252 15.3006 15.2975 14.8475 14.1212ZM22.4321 1.10651H19.9086V17.5524H30.1574V15.0836H22.4321V1.10651ZM36.4056 1.10651H33.9475V17.5524H36.4056V1.10651ZM47.5893 15.0982L42.8692 1.18432L42.8409 1.10651H40.1863L45.7711 17.5524H49.3837L54.9543 1.26672L55.0104 1.10651H52.4026L47.5893 15.0982ZM58.7912 17.5524H70.0213V15.0836H61.3195V10.5347H69.1336V8.11923H61.3195V3.57031H70.0213V1.10651H58.7912V17.5524ZM81.7425 3.4055H81.7797C82.8007 3.40166 83.7995 3.71213 84.6515 4.29627C85.5051 4.88242 86.1723 5.71511 86.57 6.69031L86.6119 6.78268L89.0422 6.06823L88.9861 5.94174C88.3619 4.3537 87.2683 3.00924 85.8609 2.09962C84.4586 1.19338 82.8135 0.770563 81.1631 0.892246C79.3295 1.04963 77.6043 1.85407 76.2781 3.17015C74.946 4.4917 74.0908 6.24271 73.8537 8.13379C73.6991 9.33299 73.7922 10.5524 74.1267 11.7118C74.461 12.8709 75.0293 13.9426 75.7934 14.8548C76.5399 15.7378 77.461 16.4455 78.4947 16.9304C79.5263 17.4138 80.6467 17.6624 81.7797 17.6594C83.3246 17.6627 84.8348 17.1859 86.1135 16.291C87.3966 15.3928 88.3905 14.1195 88.9675 12.6344L89.0188 12.5079L86.5655 11.818L86.528 11.91C86.1386 12.8772 85.4773 13.7017 84.6293 14.2772C83.7841 14.8503 82.7908 15.1466 81.7797 15.1273C78.6626 15.1273 76.3119 12.6099 76.3119 9.29555C76.2991 8.50315 76.4384 7.71598 76.7215 6.97931C77.0044 6.24431 77.426 5.57464 77.9617 5.00919C78.458 4.49609 79.0481 4.08986 79.6978 3.81408C80.3463 3.53884 81.0414 3.40019 81.7425 3.4055ZM100.819 0.940925C99.2175 0.926011 97.6478 1.40589 96.3122 2.31886C94.9719 3.23538 93.9254 4.54172 93.3051 6.07244C92.6823 7.60701 92.512 9.29709 92.8155 10.9311C93.1178 12.563 93.8811 14.0661 95.0096 15.2511C96.1334 16.4316 97.5731 17.239 99.1443 17.5701C100.713 17.9001 102.341 17.7376 103.821 17.1036C105.303 16.4675 106.569 15.3903 107.456 14.0093C108.347 12.6236 108.822 10.9972 108.82 9.33426C108.827 7.12274 107.988 4.99776 106.487 3.41968C105.747 2.64183 104.865 2.02244 103.893 1.59707C102.92 1.1717 101.876 0.948719 100.819 0.940925ZM106.269 9.33426C106.269 12.644 103.876 15.2343 100.819 15.2343C100.061 15.2411 99.3092 15.079 98.6165 14.759C97.9222 14.438 97.3028 13.9669 96.8002 13.3776C96.255 12.7263 95.8487 11.9639 95.6076 11.14C95.3658 10.3148 95.2945 9.44646 95.3981 8.59106C95.5448 7.18996 96.1769 5.89065 97.178 4.93215C98.1746 3.97786 99.4744 3.43151 100.834 3.39553H100.918C103.918 3.45877 106.269 6.06861 106.269 9.33426ZM124.588 6.48142C124.592 5.77106 124.459 5.06696 124.198 4.40972C123.938 3.75353 123.554 3.15741 123.068 2.65616C122.583 2.15627 122.007 1.7614 121.373 1.49478C120.74 1.22885 120.061 1.09681 119.378 1.10651H112.559V17.5524H115.106V11.672H118.597L122.135 17.5524H124.901L121.163 11.3412C122.163 11.0223 123.036 10.3773 123.652 9.50291C124.269 8.62533 124.598 7.56614 124.588 6.48142ZM122.116 6.41817C122.116 8.13379 120.91 9.33426 119.186 9.33426H115.106V3.50247H119.396C119.763 3.49239 120.128 3.56158 120.468 3.70561C120.809 3.85103 121.116 4.06753 121.372 4.34154C121.627 4.61554 121.825 4.94111 121.953 5.29781C122.081 5.65542 122.137 6.03718 122.116 6.41817ZM128.329 4.70486C129.26 4.70486 130 3.91642 130 2.98004V2.97007C130 2.74404 129.957 2.52023 129.873 2.31152C129.788 2.10281 129.665 1.91332 129.51 1.75396C129.355 1.59459 129.17 1.46848 128.967 1.38289C128.765 1.2973 128.548 1.25391 128.329 1.25522C127.397 1.25522 126.657 2.04366 126.657 2.98004V2.99001C126.657 3.21604 126.7 3.43985 126.785 3.64856C126.869 3.85727 126.992 4.04676 127.147 4.20613C127.303 4.36549 127.487 4.4916 127.69 4.57719C127.892 4.66278 128.11 4.70617 128.329 4.70486ZM128.329 4.51743C127.483 4.51743 126.849 3.8275 126.849 2.99001V2.98004C126.849 2.14216 127.493 1.44265 128.329 1.44265C129.174 1.44265 129.808 2.13258 129.808 2.97007V2.98004C129.808 3.81792 129.164 4.51743 128.329 4.51743ZM127.704 3.80795H127.973V3.17705H128.376L128.799 3.80795H129.135L128.665 3.13757C128.895 3.06858 129.078 2.90108 129.078 2.61553C129.078 2.27057 128.799 2.08314 128.453 2.08314H127.704V3.80795ZM127.973 2.95053V2.32959H128.425C128.655 2.32959 128.799 2.4281 128.799 2.63508C128.799 2.82251 128.665 2.95053 128.425 2.95053H127.973Z" fill="#195C5D"/>
</g>
<defs>
<clipPath id="clip0_958_2300">
<rect width="130" height="16.8649" fill="white" transform="translate(0 0.872192)"/>
</clipPath>
</defs>
</svg>
