<svg width="18" height="19" viewBox="0 0 18 19" fill="none" xmlns="http://www.w3.org/2000/svg">
<path d="M13.4999 5.21826H6.21558C6.06639 5.21826 5.92332 5.159 5.81783 5.05351C5.71234 4.94802 5.65308 4.80495 5.65308 4.65576C5.65308 4.50658 5.71234 4.3635 5.81783 4.25801C5.92332 4.15253 6.06639 4.09326 6.21558 4.09326H14.0624C14.2116 4.09326 14.3547 4.15253 14.4602 4.25801C14.5657 4.3635 14.6249 4.50658 14.6249 4.65576V12.5308C14.6249 12.6799 14.5657 12.823 14.4602 12.9285C14.3547 13.034 14.2116 13.0933 14.0624 13.0933C13.9133 13.0933 13.7702 13.034 13.6647 12.9285C13.5592 12.823 13.4999 12.6799 13.4999 12.5308V5.21826Z" fill="#222222"/>
<path d="M13.6642 4.25749C13.7698 4.15187 13.9131 4.09253 14.0625 4.09253C14.2118 4.09253 14.3551 4.15187 14.4607 4.25749C14.5663 4.36311 14.6257 4.50637 14.6257 4.65574C14.6257 4.80511 14.5663 4.94837 14.4607 5.05399L4.89823 14.6165C4.84593 14.6688 4.78384 14.7103 4.71551 14.7386C4.64718 14.7669 4.57394 14.7814 4.49998 14.7814C4.42602 14.7814 4.35278 14.7669 4.28445 14.7386C4.21611 14.7103 4.15403 14.6688 4.10173 14.6165C4.04943 14.5642 4.00794 14.5021 3.97964 14.4338C3.95134 14.3654 3.93677 14.2922 3.93677 14.2182C3.93677 14.1443 3.95134 14.071 3.97964 14.0027C4.00794 13.9344 4.04943 13.8723 4.10173 13.82L13.6642 4.25749Z" fill="#222222"/>
</svg>
