<svg width="100" height="61" viewBox="0 0 100 61" fill="none" xmlns="http://www.w3.org/2000/svg">
<path d="M12.1549 27.2323V21.4547H15.7492V6.89389H12.1549V0.718262H30.2911V6.89389H26.6968V21.4547H30.2911V27.2323H12.1549Z" fill="white"/>
<path d="M47.6317 27.2319V21.4543H50.0188V15.4708C50.0188 13.673 48.8253 12.877 47.0281 12.877C45.0389 12.877 43.4475 14.2768 43.2417 16.2667V21.4543H45.8483V27.2319H31.8825V21.4543H34.2696V12.877H31.8825V7.09937H43.0496V11.0929L43.6533 10.4891C45.4504 8.29332 48.4411 7.09937 51.2261 7.30522C55.6161 7.30522 59.1967 9.10301 59.1967 13.8788V21.4543H61.5838V27.2319H47.6317Z" fill="white"/>
<path d="M84.6999 15.4708L76.9214 16.2667C76.9214 14.071 76.3177 11.8752 73.7386 11.8752C70.35 11.8752 70.1443 14.6611 70.1443 17.2548C70.1443 20.0407 70.35 22.8404 73.7386 22.8404C75.33 23.0462 76.9214 21.8385 77.1271 20.0545V19.6565H84.9057V20.2603C83.7122 26.6418 77.9365 27.6299 73.9444 27.6299C67.5651 27.6299 61.1859 24.446 61.1859 17.2686C61.1859 10.0911 67.5651 6.90723 73.9444 6.90723C73.7386 7.09936 83.9042 6.49552 84.6999 15.4708Z" fill="white"/>
<path d="M90.6676 24.049C90.6676 25.8056 89.2408 27.2329 87.4848 27.2329C85.7288 27.2329 84.3021 25.8056 84.3021 24.049C84.3021 22.2923 85.7288 20.8651 87.4848 20.8651C89.2271 20.8514 90.6539 22.2512 90.6676 23.9941C90.6813 23.9941 90.6813 24.0215 90.6676 24.049Z" fill="white"/>
<path d="M36.0668 29.8262C28.3019 29.8262 23.9119 35.0137 23.9119 45.1829C23.9119 55.3521 28.3019 60.5259 36.0668 60.5259C43.8316 60.5259 48.2216 55.3384 48.2216 45.1692C48.2216 35 43.6533 29.8262 36.0668 29.8262ZM36.0668 54.3503C33.2819 54.3503 32.6782 51.5644 32.6782 45.1829C32.6782 38.8014 33.2819 36.0155 36.0668 36.0155C38.8517 36.0155 39.4553 38.8014 39.4553 45.1829C39.4553 51.5644 38.8654 54.3503 36.0668 54.3503Z" fill="white"/>
<path d="M61.7758 29.8262C53.9972 29.8262 49.6209 35.0137 49.6209 45.1829C49.6209 55.3521 54.011 60.5259 61.7758 60.5259C69.5406 60.5259 73.9307 55.3384 73.9307 45.1692C73.9307 35 69.3486 29.8262 61.7758 29.8262ZM61.7758 54.3503C58.9909 54.3503 58.3873 51.5644 58.3873 45.1829C58.3873 38.8014 58.9909 36.0155 61.7758 36.0155C64.5607 36.0155 65.1643 38.8014 65.1643 45.1829C65.1643 51.5644 64.5744 54.3503 61.7758 54.3503Z" fill="white"/>
<path d="M87.4848 29.8262C79.7063 29.8262 75.33 35.0137 75.33 45.1829C75.33 55.3521 79.72 60.5259 87.4848 60.5259C95.2497 60.5259 99.6397 55.3384 99.6397 45.1692C99.6397 35 95.0576 29.8262 87.4848 29.8262ZM87.4848 54.3503C84.6999 54.3503 84.0963 51.5644 84.0963 45.1829C84.0963 38.8014 84.6999 36.0155 87.4848 36.0155C90.2697 36.0155 90.8734 38.8014 90.8734 45.1829C90.8734 51.5644 90.2697 54.3503 87.4848 54.3503Z" fill="white"/>
<path d="M20.3313 42.1777C18.342 40.5858 15.9413 39.5839 13.3621 39.7898C11.3729 39.7898 9.17788 40.3936 7.77856 41.7797L8.38219 36.9902H20.9349V30.0186H2.59285L0.603627 43.9755L5.9814 46.7614C7.38072 45.5674 8.9721 44.7715 10.7693 44.7715C11.7707 44.7715 12.5664 45.1694 13.3621 45.7733C14.3636 46.7751 14.7614 48.1612 14.7614 49.561C14.7614 50.1648 14.7614 50.755 14.5557 51.1529C14.3636 52.9507 12.7585 54.1447 10.975 53.9388C7.5865 53.9388 7.79228 49.7531 8.58797 48.1612L0 52.7449C0.603628 58.1245 6.17346 60.7183 10.7555 60.7183C13.9383 60.7183 16.929 59.7165 19.124 57.7266C19.9197 56.9306 20.7154 56.1346 21.319 54.9407C22.3205 53.3487 22.7183 51.3588 22.7183 49.561C23.1162 46.7751 22.1147 44.1813 20.3313 42.1777Z" fill="white"/>
</svg>
