<svg width="40" height="41" viewBox="0 0 40 41" fill="none" xmlns="http://www.w3.org/2000/svg">
<circle cx="20" cy="20.2183" r="19.5" stroke="#222222"/>
<path fill-rule="evenodd" clip-rule="evenodd" d="M26.424 26.4683H23.9258V22.0939C23.9258 20.8939 23.3968 20.2244 22.4481 20.2244C21.4157 20.2244 20.803 20.922 20.803 22.0939V26.4683H18.3048V18.3433H20.803V19.257C20.803 19.257 21.5868 17.8806 23.3531 17.8806C25.1199 17.8806 26.424 18.9596 26.424 21.1921V26.4683ZM15.458 17.0438C14.6155 17.0438 13.9329 16.3551 13.9329 15.5057C13.9329 14.657 14.6155 13.9683 15.458 13.9683C16.2999 13.9683 16.9826 14.657 16.9826 15.5057C16.9832 16.3551 16.2999 17.0438 15.458 17.0438ZM13.9329 26.4683H17.0556V18.3433H13.9329V26.4683Z" fill="#222222"/>
</svg>
