<svg width="28" height="29" viewBox="0 0 28 29" fill="none" xmlns="http://www.w3.org/2000/svg">
<g clip-path="url(#clip0_958_2425)">
<path d="M14 0.218262C8.20138 0.218262 3.5 4.91964 3.5 10.7183C3.5 13.0016 4.24856 15.0968 5.49281 16.8126C5.51513 16.8538 5.51863 16.8997 5.544 16.9391L12.544 27.4391C12.8686 27.926 13.4155 28.2183 14 28.2183C14.5845 28.2183 15.1314 27.926 15.456 27.4391L22.456 16.9391C22.4818 16.8997 22.4849 16.8538 22.5072 16.8126C23.7514 15.0968 24.5 13.0016 24.5 10.7183C24.5 4.91964 19.7986 0.218262 14 0.218262ZM14 14.2183C12.0671 14.2183 10.5 12.6511 10.5 10.7183C10.5 8.78539 12.0671 7.21826 14 7.21826C15.9329 7.21826 17.5 8.78539 17.5 10.7183C17.5 12.6511 15.9329 14.2183 14 14.2183Z" fill="#222222"/>
</g>
<defs>
<clipPath id="clip0_958_2425">
<rect width="28" height="28" fill="white" transform="translate(0 0.218262)"/>
</clipPath>
</defs>
</svg>
