<svg width="28" height="29" viewBox="0 0 28 29" fill="none" xmlns="http://www.w3.org/2000/svg">
<path d="M24.7346 4.29443H3.26539C1.46169 4.29443 0 5.75612 0 7.55933V20.8772C0 22.6805 1.46169 24.1422 3.26539 24.1422H24.7346C26.5378 24.1422 28 22.6805 28 20.8772V7.55933C28 5.75612 26.5379 4.29443 24.7346 4.29443ZM26.4409 21.7569L25.8193 22.493L17.1148 15.389L15.7668 16.6716C14.7678 17.5891 13.2323 17.5891 12.2332 16.6716L10.8852 15.389L2.18072 22.493L1.55914 21.7569L9.73164 14.2911L1.5056 6.5603L1.99194 5.91592L14 15.0145L26.008 5.91592L26.494 6.5603L18.2684 14.2911L26.4409 21.7569Z" fill="#222222"/>
</svg>
