<svg width="28" height="29" viewBox="0 0 28 29" fill="none" xmlns="http://www.w3.org/2000/svg">
<path d="M11.7105 6.42054L12.4677 7.77729C13.151 9.00169 12.8767 10.6079 11.8004 11.6841C11.8004 11.6841 10.4952 12.9896 12.8619 15.3564C15.2279 17.7224 16.5342 16.4179 16.5342 16.4179C17.6104 15.3416 19.2166 15.0673 20.441 15.7506L21.7977 16.5078C23.6467 17.5396 23.8649 20.1324 22.2399 21.7576C21.2634 22.7341 20.0671 23.4939 18.7447 23.544C16.5186 23.6284 12.738 23.0651 8.94561 19.2727C5.15328 15.4803 4.58987 11.6998 4.67427 9.47362C4.7244 8.15121 5.48423 6.95495 6.46074 5.97845C8.08585 4.35334 10.6787 4.57169 11.7105 6.42054Z" fill="#222222"/>
<path d="M15.4694 2.41132C15.5467 1.93428 15.9976 1.61068 16.4746 1.6879C16.5042 1.69356 16.5992 1.71132 16.6489 1.7224C16.7486 1.74458 16.8874 1.77871 17.0605 1.82914C17.4068 1.92999 17.8905 2.09613 18.471 2.36228C19.6334 2.89517 21.1802 3.82734 22.7853 5.43244C24.3904 7.03754 25.3225 8.58431 25.8553 9.74664C26.1216 10.3272 26.2877 10.8109 26.3885 11.1571C26.4389 11.3303 26.4731 11.4692 26.4953 11.5687C26.5063 11.6185 26.5145 11.6584 26.5201 11.688L26.5269 11.7244C26.604 12.2014 26.2834 12.6711 25.8063 12.7483C25.3307 12.8253 24.8826 12.5032 24.8035 12.0285C24.801 12.0156 24.7943 11.9815 24.7871 11.9491C24.7727 11.8845 24.7478 11.782 24.7084 11.6465C24.6294 11.3755 24.4923 10.9726 24.2646 10.476C23.8098 9.48393 22.992 8.11406 21.5478 6.66987C20.1037 5.2257 18.7338 4.40788 17.7418 3.95308C17.2451 3.72539 16.8423 3.58828 16.5711 3.50932C16.4357 3.46985 16.2653 3.43075 16.2007 3.41637C15.7259 3.33723 15.3924 2.88699 15.4694 2.41132Z" fill="#222222"/>
<path fill-rule="evenodd" clip-rule="evenodd" d="M15.7333 6.43588C15.8661 5.97122 16.3504 5.70216 16.8151 5.83492L16.5747 6.67626C16.8151 5.83492 16.8151 5.83492 16.8151 5.83492L16.8168 5.83541L16.8186 5.83592L16.8224 5.83705L16.8315 5.83976L16.8546 5.84694C16.8721 5.85257 16.8942 5.85989 16.9203 5.86919C16.9727 5.88779 17.042 5.91423 17.1269 5.95063C17.2969 6.02347 17.5291 6.13596 17.8144 6.30479C18.3854 6.64275 19.165 7.20413 20.0808 8.11993C20.9966 9.03574 21.5579 9.81528 21.8959 10.3863C22.0647 10.6716 22.1772 10.9038 22.2501 11.0738C22.2865 11.1587 22.313 11.228 22.3315 11.2804C22.3409 11.3066 22.3481 11.3285 22.3538 11.3461L22.3609 11.3692L22.3636 11.3783L22.3648 11.3821L22.3653 11.3839C22.3653 11.3839 22.3658 11.3856 21.5244 11.626L22.3658 11.3856C22.4986 11.8503 22.2295 12.3345 21.7649 12.4673C21.3042 12.5989 20.8241 12.3356 20.6865 11.8782L20.6822 11.8656C20.676 11.8481 20.6632 11.8136 20.6416 11.7632C20.5985 11.6624 20.5202 11.4977 20.39 11.2776C20.1298 10.8381 19.66 10.174 18.8433 9.35736C18.0268 8.54075 17.3626 8.07094 16.9231 7.81081C16.7031 7.68058 16.5383 7.6023 16.4375 7.55913C16.3871 7.53754 16.3526 7.52466 16.3351 7.51844L16.3225 7.51413C15.8652 7.37661 15.6017 6.89658 15.7333 6.43588Z" fill="#222222"/>
</svg>
