<svg width="202" height="203" viewBox="0 0 202 203" fill="none" xmlns="http://www.w3.org/2000/svg">
<path fill-rule="evenodd" clip-rule="evenodd" d="M132.407 179.458C137.593 177.487 145.686 173.157 151.542 169.22C158.549 164.51 168.175 155.528 172.969 149.226C181.58 137.908 186.085 126.396 188.673 109.091C190.414 97.4553 190.538 94.5011 190.699 60.7271C190.869 24.8076 191.025 27.0622 188.179 24.2163C185.433 21.4697 187.057 21.5931 153.606 21.5931C121.298 21.5931 122.429 21.5272 119.759 23.5633C119.078 24.0831 118.094 25.2333 117.573 26.1192L116.626 27.7303L116.531 58.3336L116.436 88.937L117.193 90.6985C118.083 92.7665 120.525 95.0713 122.369 95.5837C123.125 95.7934 129.426 95.9372 137.931 95.9382L152.221 95.9403L152.221 98.1455C152.221 103.166 150.79 111.687 148.998 117.333C146.616 124.838 142.981 130.89 137.715 136.116C133.42 140.38 128.445 143.767 121.453 147.188C116.34 149.69 115.573 150.31 114.168 153.085C113.796 153.819 113.548 155.129 113.536 156.423C113.518 158.297 113.752 159.058 115.479 162.755C122.052 176.821 122.589 177.714 125.335 179.115C127.348 180.142 130.239 180.282 132.407 179.458ZM28.7027 179.715C30.6462 179.356 39.785 174.884 44.7336 171.871C59.7469 162.727 71.466 150.477 78.3238 136.759C83.3384 126.728 85.8224 116.595 87.5717 99.0299C88.0367 94.3622 88.1699 87.383 88.2955 61.0806C88.4691 24.7669 88.6262 27.0664 85.7761 24.2163C83.0298 21.47 84.6525 21.5931 51.2215 21.5931C18.636 21.5931 19.7782 21.5223 17.1284 23.7064C16.4333 24.2794 15.4559 25.5686 14.9562 26.5712L14.0479 28.3941L14.0556 58.7478C14.0633 88.5266 14.077 89.1316 14.7777 90.6799C15.5986 92.494 16.851 93.907 18.6069 95.0005C19.8059 95.7474 20.1826 95.7692 34.9093 95.9403L49.9842 96.1157L49.8773 98.9212C49.6006 106.168 47.8513 114.792 45.4217 120.884C42.9237 127.148 39.9319 131.717 35.3918 136.202C31.26 140.283 27.0414 143.191 20.4196 146.523C14.0717 149.717 12.2975 151.189 11.579 153.857C10.7285 157.015 11.1764 158.606 15.3619 167.307C17.6979 172.162 19.7708 175.986 20.5704 176.913C22.6016 179.268 25.5741 180.293 28.7027 179.715Z" fill="#E1F0F5"/>
</svg>
