<svg width="31" height="36" viewBox="0 0 31 36" fill="none" xmlns="http://www.w3.org/2000/svg">
<path d="M12.6909 35.0071C12.411 35.0071 12.1379 34.9224 11.908 34.7644C11.6781 34.6063 11.5025 34.3823 11.4046 34.1226L10.434 31.544C8.37276 31.5703 6.31829 31.3055 4.33249 30.7577C3.0173 30.1412 2.4923 27.9843 2.76832 24.3442C0.269634 23.4757 0.0946422 22.5286 0.024282 22.1444C-0.0460783 21.7602 -0.181386 21.0168 2.73044 14.5961C2.46697 12.7161 2.6682 10.8009 3.3168 9.01484C3.9654 7.22882 5.04198 5.62544 6.45412 4.34243C8.04936 2.77548 9.97744 1.58073 12.0978 0.845285C14.2183 0.109844 16.4776 -0.14781 18.7112 0.0911255C20.9039 0.335971 23.0037 1.10508 24.8297 2.33223C26.6557 3.55937 28.1531 5.20779 29.1931 7.13547C31.8993 12.7716 31.5782 17.307 28.0836 22.1802L29.9635 29.3281C30.009 29.5008 30.0197 29.6807 29.995 29.8575C29.9703 30.0344 29.9106 30.2046 29.8195 30.3586C29.7284 30.5126 29.6075 30.6473 29.4638 30.755C29.3201 30.8627 29.1564 30.9414 28.982 30.9864C28.8076 31.0315 28.626 31.0421 28.4475 31.0176C28.269 30.9931 28.0971 30.9341 27.9417 30.8438C27.7862 30.7535 27.6502 30.6338 27.5415 30.4915C27.4327 30.3492 27.3533 30.187 27.3078 30.0143L25.096 21.6155L25.4965 21.0901C28.7439 16.8227 29.0867 13.2416 26.7161 8.31489C24.3708 3.43283 18.4785 2.81093 18.4172 2.80379L18.3432 2.79484C16.5357 2.62455 14.7124 2.84493 12.9992 3.4407C11.2861 4.03646 9.72392 4.99341 8.42059 6.24552C4.38841 10.3556 5.43479 14.2048 5.4817 14.3674L5.61885 14.8463L5.41497 15.311C4.38302 17.5679 3.25001 20.2681 2.86032 21.4403C3.41757 21.6959 3.99578 21.9039 4.58867 22.0622L5.72164 22.366L5.59539 23.5221C5.36588 25.1339 5.3963 26.7716 5.68558 28.3739C7.57407 28.7036 9.48881 28.8633 11.4064 28.851L12.3463 28.8635L13.9701 33.1791C14.0476 33.3845 14.0737 33.6055 14.0462 33.8231C14.0186 34.0408 13.9383 34.2485 13.8121 34.4287C13.6859 34.6089 13.5175 34.7561 13.3213 34.8578C13.1251 34.9594 12.9069 35.0126 12.6855 35.0125L12.6909 35.0071Z" fill="#191A4E"/>
<path d="M15.7908 20.2896V25.4719C15.779 25.7643 15.6535 26.041 15.4404 26.2438C15.2274 26.4466 14.9433 26.5598 14.6478 26.5598C14.3523 26.5598 14.0683 26.4466 13.8553 26.2438C13.6422 26.041 13.5167 25.7643 13.505 25.4719V21.5923L8.75833 18.885V16.4815C8.3587 16.2355 8.0509 15.8672 7.88149 15.4323C7.71209 14.9975 7.69033 14.5198 7.8195 14.0716C7.94866 13.6235 8.22172 13.2292 8.59734 12.9484C8.97297 12.6677 9.43071 12.5159 9.90126 12.5159C10.3718 12.5159 10.8295 12.6677 11.2051 12.9484C11.5807 13.2292 11.8539 13.6235 11.983 14.0716C12.1122 14.5198 12.0904 14.9975 11.921 15.4323C11.7516 15.8672 11.4438 16.2355 11.0441 16.4815V17.5734L15.7908 20.2896Z" fill="#191A4E"/>
<path d="M18.9353 9.33344C18.9362 9.70121 18.8415 10.063 18.6605 10.3841C18.4795 10.7051 18.2181 10.9747 17.9015 11.1668V17.9396C17.9076 18.092 17.8826 18.2441 17.8279 18.3867C17.7733 18.5294 17.6901 18.6596 17.5833 18.7696C17.4766 18.8796 17.3485 18.9671 17.2068 19.0269C17.0651 19.0867 16.9127 19.1175 16.7586 19.1175C16.6046 19.1175 16.4522 19.0867 16.3105 19.0269C16.1687 18.9671 16.0407 18.8796 15.9339 18.7696C15.8272 18.6596 15.744 18.5294 15.6893 18.3867C15.6346 18.2441 15.6096 18.092 15.6157 17.9396V11.1597C15.2978 10.9612 15.0376 10.6841 14.8606 10.3558C14.6837 10.0275 14.596 9.65921 14.6063 9.28714C14.6166 8.91508 14.7244 8.55206 14.9193 8.23381C15.1141 7.91556 15.3893 7.65307 15.7176 7.47207C16.0459 7.29107 16.4162 7.19782 16.792 7.20152C17.1677 7.20523 17.536 7.30573 17.8606 7.49317C18.1853 7.68061 18.4551 7.94854 18.6435 8.27056C18.8319 8.59259 18.9325 8.95765 18.9353 9.32985V9.33344Z" fill="#191A4E"/>
<path d="M26.0225 14.6587C26.0238 15.0254 25.9293 15.3861 25.7481 15.7058C25.567 16.0255 25.3054 16.2934 24.9888 16.4833V18.8832L20.2476 21.5905V25.4665C20.2537 25.6189 20.2287 25.771 20.174 25.9137C20.1194 26.0563 20.0361 26.1865 19.9294 26.2965C19.8226 26.4066 19.6946 26.4941 19.5529 26.5538C19.4112 26.6136 19.2587 26.6444 19.1047 26.6444C18.9507 26.6444 18.7983 26.6136 18.6566 26.5538C18.5148 26.4941 18.3867 26.4066 18.28 26.2965C18.1732 26.1865 18.0901 26.0563 18.0354 25.9137C17.9807 25.771 17.9557 25.6189 17.9618 25.4665V20.2842L22.703 17.5716V16.4761C22.3848 16.2774 22.1244 16 21.9474 15.6713C21.7704 15.3425 21.6829 14.9738 21.6936 14.6013C21.7043 14.2289 21.8128 13.8657 22.0083 13.5474C22.2039 13.2291 22.4798 12.9668 22.8088 12.7862C23.1379 12.6057 23.5088 12.5133 23.8849 12.518C24.261 12.5227 24.6294 12.6243 24.9538 12.813C25.2781 13.0016 25.5473 13.2707 25.7347 13.5937C25.9221 13.9168 26.0213 14.2826 26.0225 14.6552V14.6587Z" fill="#191A4E"/>
</svg>
