<svg width="409" height="629" viewBox="0 0 409 629" fill="none" xmlns="http://www.w3.org/2000/svg">
<g clip-path="url(#clip0_753_2399)">
<rect width="409" height="629" fill="#15191F"/>
<g style="mix-blend-mode:overlay">
<path d="M-1620.95 0H-1706V85.0526M-1620.95 0V85.0526M-1620.95 0H-1535.91M-1620.95 85.0526H-1706M-1620.95 85.0526V170.105M-1620.95 85.0526H-1535.91M-1706 85.0526V170.105M-1620.95 170.105H-1706M-1620.95 170.105V255.158M-1620.95 170.105H-1535.91M-1706 170.105V255.158M-1620.95 255.158H-1706M-1620.95 255.158V340.211M-1620.95 255.158H-1535.91M-1706 255.158V340.211M-1620.95 340.211H-1706M-1620.95 340.211V425.263M-1620.95 340.211H-1535.91M-1706 340.211V425.263M-1620.95 425.263H-1706M-1620.95 425.263V510.316M-1620.95 425.263H-1535.91M-1706 425.263V510.316M-1620.95 510.316H-1706M-1620.95 510.316V595.368M-1620.95 510.316H-1535.91M-1706 510.316V595.368M-1620.95 595.368H-1706M-1620.95 595.368V680.421M-1620.95 595.368H-1535.91M-1706 595.368V680.421M-1620.95 680.421H-1706M-1620.95 680.421V765.474M-1620.95 680.421H-1535.91M-1706 680.421V765.474M-1620.95 765.474H-1706M-1620.95 765.474V850.526M-1620.95 765.474H-1535.91M-1706 765.474V850.526M-1620.95 850.526H-1706M-1620.95 850.526V935.579M-1620.95 850.526H-1535.91M-1706 850.526V935.579M-1620.95 935.579H-1706M-1620.95 935.579V1020.63M-1620.95 935.579H-1535.91M-1706 935.579V1020.63M-1620.95 1020.63H-1706M-1620.95 1020.63V1105.68M-1620.95 1020.63H-1535.91M-1706 1020.63V1105.68M-1620.95 1105.68H-1706M-1620.95 1105.68V1190.74M-1620.95 1105.68H-1535.91M-1706 1105.68V1190.74M-1620.95 1190.74H-1706M-1620.95 1190.74V1275.79M-1620.95 1190.74H-1535.91M-1706 1190.74V1275.79M-1620.95 1275.79H-1706M-1620.95 1275.79V1360.84M-1620.95 1275.79H-1535.91M-1706 1275.79V1360.84M-1620.95 1360.84H-1706M-1620.95 1360.84V1445.89M-1620.95 1360.84H-1535.91M-1706 1360.84V1445.89M-1620.95 1445.89H-1706M-1620.95 1445.89V1530.95M-1620.95 1445.89H-1535.91M-1706 1445.89V1530.95M-1620.95 1530.95H-1706M-1620.95 1530.95V1616M-1620.95 1530.95H-1535.91M-1706 1530.95V1616H-1620.95M-1620.95 1616H-1535.91M-1535.91 0V85.0526M-1535.91 0H-1450.86M-1535.91 85.0526V170.105M-1535.91 85.0526H-1450.86M-1535.91 170.105V255.158M-1535.91 170.105H-1450.86M-1535.91 255.158V340.211M-1535.91 255.158H-1450.86M-1535.91 340.211V425.263M-1535.91 340.211H-1450.86M-1535.91 425.263V510.316M-1535.91 425.263H-1450.86M-1535.91 510.316V595.368M-1535.91 510.316H-1450.86M-1535.91 595.368V680.421M-1535.91 595.368H-1450.86M-1535.91 680.421V765.474M-1535.91 680.421H-1450.86M-1535.91 765.474V850.526M-1535.91 765.474H-1450.86M-1535.91 850.526V935.579M-1535.91 850.526H-1450.86M-1535.91 935.579V1020.63M-1535.91 935.579H-1450.86M-1535.91 1020.63V1105.68M-1535.91 1020.63H-1450.86M-1535.91 1105.68V1190.74M-1535.91 1105.68H-1450.86M-1535.91 1190.74V1275.79M-1535.91 1190.74H-1450.86M-1535.91 1275.79V1360.84M-1535.91 1275.79H-1450.86M-1535.91 1360.84V1445.89M-1535.91 1360.84H-1450.86M-1535.91 1445.89V1530.95M-1535.91 1445.89H-1450.86M-1535.91 1530.95V1616M-1535.91 1530.95H-1450.86M-1535.91 1616H-1450.86M-1450.86 0V85.0526M-1450.86 0H-1365.82M-1450.86 85.0526V170.105M-1450.86 85.0526H-1365.82M-1450.86 170.105V255.158M-1450.86 170.105H-1365.82M-1450.86 255.158V340.211M-1450.86 255.158H-1365.82M-1450.86 340.211V425.263M-1450.86 340.211H-1365.82M-1450.86 425.263V510.316M-1450.86 425.263H-1365.82M-1450.86 510.316V595.368M-1450.86 510.316H-1365.82M-1450.86 595.368V680.421M-1450.86 595.368H-1365.82M-1450.86 680.421V765.474M-1450.86 680.421H-1365.82M-1450.86 765.474V850.526M-1450.86 765.474H-1365.82M-1450.86 850.526V935.579M-1450.86 850.526H-1365.82M-1450.86 935.579V1020.63M-1450.86 935.579H-1365.82M-1450.86 1020.63V1105.68M-1450.86 1020.63H-1365.82M-1450.86 1105.68V1190.74M-1450.86 1105.68H-1365.82M-1450.86 1190.74V1275.79M-1450.86 1190.74H-1365.82M-1450.86 1275.79V1360.84M-1450.86 1275.79H-1365.82M-1450.86 1360.84V1445.89M-1450.86 1360.84H-1365.82M-1450.86 1445.89V1530.95M-1450.86 1445.89H-1365.82M-1450.86 1530.95V1616M-1450.86 1530.95H-1365.82M-1450.86 1616H-1365.82M-1365.82 0V85.0526M-1365.82 0H-1280.77M-1365.82 85.0526V170.105M-1365.82 85.0526H-1280.77M-1365.82 170.105V255.158M-1365.82 170.105H-1280.77M-1365.82 255.158V340.211M-1365.82 255.158H-1280.77M-1365.82 340.211V425.263M-1365.82 340.211H-1280.77M-1365.82 425.263V510.316M-1365.82 425.263H-1280.77M-1365.82 510.316V595.368M-1365.82 510.316H-1280.77M-1365.82 595.368V680.421M-1365.82 595.368H-1280.77M-1365.82 680.421V765.474M-1365.82 680.421H-1280.77M-1365.82 765.474V850.526M-1365.82 765.474H-1280.77M-1365.82 850.526V935.579M-1365.82 850.526H-1280.77M-1365.82 935.579V1020.63M-1365.82 935.579H-1280.77M-1365.82 1020.63V1105.68M-1365.82 1020.63H-1280.77M-1365.82 1105.68V1190.74M-1365.82 1105.68H-1280.77M-1365.82 1190.74V1275.79M-1365.82 1190.74H-1280.77M-1365.82 1275.79V1360.84M-1365.82 1275.79H-1280.77M-1365.82 1360.84V1445.89M-1365.82 1360.84H-1280.77M-1365.82 1445.89V1530.95M-1365.82 1445.89H-1280.77M-1365.82 1530.95V1616M-1365.82 1530.95H-1280.77M-1365.82 1616H-1280.77M-1280.77 0V85.0526M-1280.77 0H-1195.73M-1280.77 85.0526V170.105M-1280.77 85.0526H-1195.73M-1280.77 170.105V255.158M-1280.77 170.105H-1195.73M-1280.77 255.158V340.211M-1280.77 255.158H-1195.73M-1280.77 340.211V425.263M-1280.77 340.211H-1195.73M-1280.77 425.263V510.316M-1280.77 425.263H-1195.73M-1280.77 510.316V595.368M-1280.77 510.316H-1195.73M-1280.77 595.368V680.421M-1280.77 595.368H-1195.73M-1280.77 680.421V765.474M-1280.77 680.421H-1195.73M-1280.77 765.474V850.526M-1280.77 765.474H-1195.73M-1280.77 850.526V935.579M-1280.77 850.526H-1195.73M-1280.77 935.579V1020.63M-1280.77 935.579H-1195.73M-1280.77 1020.63V1105.68M-1280.77 1020.63H-1195.73M-1280.77 1105.68V1190.74M-1280.77 1105.68H-1195.73M-1280.77 1190.74V1275.79M-1280.77 1190.74H-1195.73M-1280.77 1275.79V1360.84M-1280.77 1275.79H-1195.73M-1280.77 1360.84V1445.89M-1280.77 1360.84H-1195.73M-1280.77 1445.89V1530.95M-1280.77 1445.89H-1195.73M-1280.77 1530.95V1616M-1280.77 1530.95H-1195.73M-1280.77 1616H-1195.73M-1195.73 0V85.0526M-1195.73 0H-1110.68M-1195.73 85.0526V170.105M-1195.73 85.0526H-1110.68M-1195.73 170.105V255.158M-1195.73 170.105H-1110.68M-1195.73 255.158V340.211M-1195.73 255.158H-1110.68M-1195.73 340.211V425.263M-1195.73 340.211H-1110.68M-1195.73 425.263V510.316M-1195.73 425.263H-1110.68M-1195.73 510.316V595.368M-1195.73 510.316H-1110.68M-1195.73 595.368V680.421M-1195.73 595.368H-1110.68M-1195.73 680.421V765.474M-1195.73 680.421H-1110.68M-1195.73 765.474V850.526M-1195.73 765.474H-1110.68M-1195.73 850.526V935.579M-1195.73 850.526H-1110.68M-1195.73 935.579V1020.63M-1195.73 935.579H-1110.68M-1195.73 1020.63V1105.68M-1195.73 1020.63H-1110.68M-1195.73 1105.68V1190.74M-1195.73 1105.68H-1110.68M-1195.73 1190.74V1275.79M-1195.73 1190.74H-1110.68M-1195.73 1275.79V1360.84M-1195.73 1275.79H-1110.68M-1195.73 1360.84V1445.89M-1195.73 1360.84H-1110.68M-1195.73 1445.89V1530.95M-1195.73 1445.89H-1110.68M-1195.73 1530.95V1616M-1195.73 1530.95H-1110.68M-1195.73 1616H-1110.68M-1110.68 0V85.0526M-1110.68 0H-1025.64M-1110.68 85.0526V170.105M-1110.68 85.0526H-1025.64M-1110.68 170.105V255.158M-1110.68 170.105H-1025.64M-1110.68 255.158V340.211M-1110.68 255.158H-1025.64M-1110.68 340.211V425.263M-1110.68 340.211H-1025.64M-1110.68 425.263V510.316M-1110.68 425.263H-1025.64M-1110.68 510.316V595.368M-1110.68 510.316H-1025.64M-1110.68 595.368V680.421M-1110.68 595.368H-1025.64M-1110.68 680.421V765.474M-1110.68 680.421H-1025.64M-1110.68 765.474V850.526M-1110.68 765.474H-1025.64M-1110.68 850.526V935.579M-1110.68 850.526H-1025.64M-1110.68 935.579V1020.63M-1110.68 935.579H-1025.64M-1110.68 1020.63V1105.68M-1110.68 1020.63H-1025.64M-1110.68 1105.68V1190.74M-1110.68 1105.68H-1025.64M-1110.68 1190.74V1275.79M-1110.68 1190.74H-1025.64M-1110.68 1275.79V1360.84M-1110.68 1275.79H-1025.64M-1110.68 1360.84V1445.89M-1110.68 1360.84H-1025.64M-1110.68 1445.89V1530.95M-1110.68 1445.89H-1025.64M-1110.68 1530.95V1616M-1110.68 1530.95H-1025.64M-1110.68 1616H-1025.64M-1025.64 0V85.0526M-1025.64 0H-940.591M-1025.64 85.0526V170.105M-1025.64 85.0526H-940.591M-1025.64 170.105V255.158M-1025.64 170.105H-940.591M-1025.64 255.158V340.211M-1025.64 255.158H-940.591M-1025.64 340.211V425.263M-1025.64 340.211H-940.591M-1025.64 425.263V510.316M-1025.64 425.263H-940.591M-1025.64 510.316V595.368M-1025.64 510.316H-940.591M-1025.64 595.368V680.421M-1025.64 595.368H-940.591M-1025.64 680.421V765.474M-1025.64 680.421H-940.591M-1025.64 765.474V850.526M-1025.64 765.474H-940.591M-1025.64 850.526V935.579M-1025.64 850.526H-940.591M-1025.64 935.579V1020.63M-1025.64 935.579H-940.591M-1025.64 1020.63V1105.68M-1025.64 1020.63H-940.591M-1025.64 1105.68V1190.74M-1025.64 1105.68H-940.591M-1025.64 1190.74V1275.79M-1025.64 1190.74H-940.591M-1025.64 1275.79V1360.84M-1025.64 1275.79H-940.591M-1025.64 1360.84V1445.89M-1025.64 1360.84H-940.591M-1025.64 1445.89V1530.95M-1025.64 1445.89H-940.591M-1025.64 1530.95V1616M-1025.64 1530.95H-940.591M-1025.64 1616H-940.591M-940.591 0V85.0526M-940.591 0H-855.545M-940.591 85.0526V170.105M-940.591 85.0526H-855.545M-940.591 170.105V255.158M-940.591 170.105H-855.545M-940.591 255.158V340.211M-940.591 255.158H-855.545M-940.591 340.211V425.263M-940.591 340.211H-855.545M-940.591 425.263V510.316M-940.591 425.263H-855.545M-940.591 510.316V595.368M-940.591 510.316H-855.545M-940.591 595.368V680.421M-940.591 595.368H-855.545M-940.591 680.421V765.474M-940.591 680.421H-855.545M-940.591 765.474V850.526M-940.591 765.474H-855.545M-940.591 850.526V935.579M-940.591 850.526H-855.545M-940.591 935.579V1020.63M-940.591 935.579H-855.545M-940.591 1020.63V1105.68M-940.591 1020.63H-855.545M-940.591 1105.68V1190.74M-940.591 1105.68H-855.545M-940.591 1190.74V1275.79M-940.591 1190.74H-855.545M-940.591 1275.79V1360.84M-940.591 1275.79H-855.545M-940.591 1360.84V1445.89M-940.591 1360.84H-855.545M-940.591 1445.89V1530.95M-940.591 1445.89H-855.545M-940.591 1530.95V1616M-940.591 1530.95H-855.545M-940.591 1616H-855.545M-855.545 0V85.0526M-855.545 0H-770.5M-855.545 85.0526V170.105M-855.545 85.0526H-770.5M-855.545 170.105V255.158M-855.545 170.105H-770.5M-855.545 255.158V340.211M-855.545 255.158H-770.5M-855.545 340.211V425.263M-855.545 340.211H-770.5M-855.545 425.263V510.316M-855.545 425.263H-770.5M-855.545 510.316V595.368M-855.545 510.316H-770.5M-855.545 595.368V680.421M-855.545 595.368H-770.5M-855.545 680.421V765.474M-855.545 680.421H-770.5M-855.545 765.474V850.526M-855.545 765.474H-770.5M-855.545 850.526V935.579M-855.545 850.526H-770.5M-855.545 935.579V1020.63M-855.545 935.579H-770.5M-855.545 1020.63V1105.68M-855.545 1020.63H-770.5M-855.545 1105.68V1190.74M-855.545 1105.68H-770.5M-855.545 1190.74V1275.79M-855.545 1190.74H-770.5M-855.545 1275.79V1360.84M-855.545 1275.79H-770.5M-855.545 1360.84V1445.89M-855.545 1360.84H-770.5M-855.545 1445.89V1530.95M-855.545 1445.89H-770.5M-855.545 1530.95V1616M-855.545 1530.95H-770.5M-855.545 1616H-770.5M-770.5 0V85.0526M-770.5 0H-685.455M-770.5 85.0526V170.105M-770.5 85.0526H-685.455M-770.5 170.105V255.158M-770.5 170.105H-685.455M-770.5 255.158V340.211M-770.5 255.158H-685.455M-770.5 340.211V425.263M-770.5 340.211H-685.455M-770.5 425.263V510.316M-770.5 425.263H-685.455M-770.5 510.316V595.368M-770.5 510.316H-685.455M-770.5 595.368V680.421M-770.5 595.368H-685.455M-770.5 680.421V765.474M-770.5 680.421H-685.455M-770.5 765.474V850.526M-770.5 765.474H-685.455M-770.5 850.526V935.579M-770.5 850.526H-685.455M-770.5 935.579V1020.63M-770.5 935.579H-685.455M-770.5 1020.63V1105.68M-770.5 1020.63H-685.455M-770.5 1105.68V1190.74M-770.5 1105.68H-685.455M-770.5 1190.74V1275.79M-770.5 1190.74H-685.455M-770.5 1275.79V1360.84M-770.5 1275.79H-685.455M-770.5 1360.84V1445.89M-770.5 1360.84H-685.455M-770.5 1445.89V1530.95M-770.5 1445.89H-685.455M-770.5 1530.95V1616M-770.5 1530.95H-685.455M-770.5 1616H-685.455M-685.455 0V85.0526M-685.455 0H-600.409M-685.455 85.0526V170.105M-685.455 85.0526H-600.409M-685.455 170.105V255.158M-685.455 170.105H-600.409M-685.455 255.158V340.211M-685.455 255.158H-600.409M-685.455 340.211V425.263M-685.455 340.211H-600.409M-685.455 425.263V510.316M-685.455 425.263H-600.409M-685.455 510.316V595.368M-685.455 510.316H-600.409M-685.455 595.368V680.421M-685.455 595.368H-600.409M-685.455 680.421V765.474M-685.455 680.421H-600.409M-685.455 765.474V850.526M-685.455 765.474H-600.409M-685.455 850.526V935.579M-685.455 850.526H-600.409M-685.455 935.579V1020.63M-685.455 935.579H-600.409M-685.455 1020.63V1105.68M-685.455 1020.63H-600.409M-685.455 1105.68V1190.74M-685.455 1105.68H-600.409M-685.455 1190.74V1275.79M-685.455 1190.74H-600.409M-685.455 1275.79V1360.84M-685.455 1275.79H-600.409M-685.455 1360.84V1445.89M-685.455 1360.84H-600.409M-685.455 1445.89V1530.95M-685.455 1445.89H-600.409M-685.455 1530.95V1616M-685.455 1530.95H-600.409M-685.455 1616H-600.409M-600.409 0V85.0526M-600.409 0H-515.364M-600.409 85.0526V170.105M-600.409 85.0526H-515.364M-600.409 170.105V255.158M-600.409 170.105H-515.364M-600.409 255.158V340.211M-600.409 255.158H-515.364M-600.409 340.211V425.263M-600.409 340.211H-515.364M-600.409 425.263V510.316M-600.409 425.263H-515.364M-600.409 510.316V595.368M-600.409 510.316H-515.364M-600.409 595.368V680.421M-600.409 595.368H-515.364M-600.409 680.421V765.474M-600.409 680.421H-515.364M-600.409 765.474V850.526M-600.409 765.474H-515.364M-600.409 850.526V935.579M-600.409 850.526H-515.364M-600.409 935.579V1020.63M-600.409 935.579H-515.364M-600.409 1020.63V1105.68M-600.409 1020.63H-515.364M-600.409 1105.68V1190.74M-600.409 1105.68H-515.364M-600.409 1190.74V1275.79M-600.409 1190.74H-515.364M-600.409 1275.79V1360.84M-600.409 1275.79H-515.364M-600.409 1360.84V1445.89M-600.409 1360.84H-515.364M-600.409 1445.89V1530.95M-600.409 1445.89H-515.364M-600.409 1530.95V1616M-600.409 1530.95H-515.364M-600.409 1616H-515.364M-515.364 0V85.0526M-515.364 0H-430.318M-515.364 85.0526V170.105M-515.364 85.0526H-430.318M-515.364 170.105V255.158M-515.364 170.105H-430.318M-515.364 255.158V340.211M-515.364 255.158H-430.318M-515.364 340.211V425.263M-515.364 340.211H-430.318M-515.364 425.263V510.316M-515.364 425.263H-430.318M-515.364 510.316V595.368M-515.364 510.316H-430.318M-515.364 595.368V680.421M-515.364 595.368H-430.318M-515.364 680.421V765.474M-515.364 680.421H-430.318M-515.364 765.474V850.526M-515.364 765.474H-430.318M-515.364 850.526V935.579M-515.364 850.526H-430.318M-515.364 935.579V1020.63M-515.364 935.579H-430.318M-515.364 1020.63V1105.68M-515.364 1020.63H-430.318M-515.364 1105.68V1190.74M-515.364 1105.68H-430.318M-515.364 1190.74V1275.79M-515.364 1190.74H-430.318M-515.364 1275.79V1360.84M-515.364 1275.79H-430.318M-515.364 1360.84V1445.89M-515.364 1360.84H-430.318M-515.364 1445.89V1530.95M-515.364 1445.89H-430.318M-515.364 1530.95V1616M-515.364 1530.95H-430.318M-515.364 1616H-430.318M-430.318 0V85.0526M-430.318 0H-345.273M-430.318 85.0526V170.105M-430.318 85.0526H-345.273M-430.318 170.105V255.158M-430.318 170.105H-345.273M-430.318 255.158V340.211M-430.318 255.158H-345.273M-430.318 340.211V425.263M-430.318 340.211H-345.273M-430.318 425.263V510.316M-430.318 425.263H-345.273M-430.318 510.316V595.368M-430.318 510.316H-345.273M-430.318 595.368V680.421M-430.318 595.368H-345.273M-430.318 680.421V765.474M-430.318 680.421H-345.273M-430.318 765.474V850.526M-430.318 765.474H-345.273M-430.318 850.526V935.579M-430.318 850.526H-345.273M-430.318 935.579V1020.63M-430.318 935.579H-345.273M-430.318 1020.63V1105.68M-430.318 1020.63H-345.273M-430.318 1105.68V1190.74M-430.318 1105.68H-345.273M-430.318 1190.74V1275.79M-430.318 1190.74H-345.273M-430.318 1275.79V1360.84M-430.318 1275.79H-345.273M-430.318 1360.84V1445.89M-430.318 1360.84H-345.273M-430.318 1445.89V1530.95M-430.318 1445.89H-345.273M-430.318 1530.95V1616M-430.318 1530.95H-345.273M-430.318 1616H-345.273M-345.273 0V85.0526M-345.273 0H-260.227M-345.273 85.0526V170.105M-345.273 85.0526H-260.227M-345.273 170.105V255.158M-345.273 170.105H-260.227M-345.273 255.158V340.211M-345.273 255.158H-260.227M-345.273 340.211V425.263M-345.273 340.211H-260.227M-345.273 425.263V510.316M-345.273 425.263H-260.227M-345.273 510.316V595.368M-345.273 510.316H-260.227M-345.273 595.368V680.421M-345.273 595.368H-260.227M-345.273 680.421V765.474M-345.273 680.421H-260.227M-345.273 765.474V850.526M-345.273 765.474H-260.227M-345.273 850.526V935.579M-345.273 850.526H-260.227M-345.273 935.579V1020.63M-345.273 935.579H-260.227M-345.273 1020.63V1105.68M-345.273 1020.63H-260.227M-345.273 1105.68V1190.74M-345.273 1105.68H-260.227M-345.273 1190.74V1275.79M-345.273 1190.74H-260.227M-345.273 1275.79V1360.84M-345.273 1275.79H-260.227M-345.273 1360.84V1445.89M-345.273 1360.84H-260.227M-345.273 1445.89V1530.95M-345.273 1445.89H-260.227M-345.273 1530.95V1616M-345.273 1530.95H-260.227M-345.273 1616H-260.227M-260.227 0V85.0526M-260.227 0H-175.182M-260.227 85.0526V170.105M-260.227 85.0526H-175.182M-260.227 170.105V255.158M-260.227 170.105H-175.182M-260.227 255.158V340.211M-260.227 255.158H-175.182M-260.227 340.211V425.263M-260.227 340.211H-175.182M-260.227 425.263V510.316M-260.227 425.263H-175.182M-260.227 510.316V595.368M-260.227 510.316H-175.182M-260.227 595.368V680.421M-260.227 595.368H-175.182M-260.227 680.421V765.474M-260.227 680.421H-175.182M-260.227 765.474V850.526M-260.227 765.474H-175.182M-260.227 850.526V935.579M-260.227 850.526H-175.182M-260.227 935.579V1020.63M-260.227 935.579H-175.182M-260.227 1020.63V1105.68M-260.227 1020.63H-175.182M-260.227 1105.68V1190.74M-260.227 1105.68H-175.182M-260.227 1190.74V1275.79M-260.227 1190.74H-175.182M-260.227 1275.79V1360.84M-260.227 1275.79H-175.182M-260.227 1360.84V1445.89M-260.227 1360.84H-175.182M-260.227 1445.89V1530.95M-260.227 1445.89H-175.182M-260.227 1530.95V1616M-260.227 1530.95H-175.182M-260.227 1616H-175.182M-175.182 0V85.0526M-175.182 0H-90.1364M-175.182 85.0526V170.105M-175.182 85.0526H-90.1364M-175.182 170.105V255.158M-175.182 170.105H-90.1364M-175.182 255.158V340.211M-175.182 255.158H-90.1364M-175.182 340.211V425.263M-175.182 340.211H-90.1364M-175.182 425.263V510.316M-175.182 425.263H-90.1364M-175.182 510.316V595.368M-175.182 510.316H-90.1364M-175.182 595.368V680.421M-175.182 595.368H-90.1364M-175.182 680.421V765.474M-175.182 680.421H-90.1364M-175.182 765.474V850.526M-175.182 765.474H-90.1364M-175.182 850.526V935.579M-175.182 850.526H-90.1364M-175.182 935.579V1020.63M-175.182 935.579H-90.1364M-175.182 1020.63V1105.68M-175.182 1020.63H-90.1364M-175.182 1105.68V1190.74M-175.182 1105.68H-90.1364M-175.182 1190.74V1275.79M-175.182 1190.74H-90.1364M-175.182 1275.79V1360.84M-175.182 1275.79H-90.1364M-175.182 1360.84V1445.89M-175.182 1360.84H-90.1364M-175.182 1445.89V1530.95M-175.182 1445.89H-90.1364M-175.182 1530.95V1616M-175.182 1530.95H-90.1364M-175.182 1616H-90.1364M-90.1364 0V85.0526M-90.1364 0H-5.09096M-90.1364 85.0526V170.105M-90.1364 85.0526H-5.09096M-90.1364 170.105V255.158M-90.1364 170.105H-5.09096M-90.1364 255.158V340.211M-90.1364 255.158H-5.09096M-90.1364 340.211V425.263M-90.1364 340.211H-5.09096M-90.1364 425.263V510.316M-90.1364 425.263H-5.09096M-90.1364 510.316V595.368M-90.1364 510.316H-5.09096M-90.1364 595.368V680.421M-90.1364 595.368H-5.09096M-90.1364 680.421V765.474M-90.1364 680.421H-5.09096M-90.1364 765.474V850.526M-90.1364 765.474H-5.09096M-90.1364 850.526V935.579M-90.1364 850.526H-5.09096M-90.1364 935.579V1020.63M-90.1364 935.579H-5.09096M-90.1364 1020.63V1105.68M-90.1364 1020.63H-5.09096M-90.1364 1105.68V1190.74M-90.1364 1105.68H-5.09096M-90.1364 1190.74V1275.79M-90.1364 1190.74H-5.09096M-90.1364 1275.79V1360.84M-90.1364 1275.79H-5.09096M-90.1364 1360.84V1445.89M-90.1364 1360.84H-5.09096M-90.1364 1445.89V1530.95M-90.1364 1445.89H-5.09096M-90.1364 1530.95V1616M-90.1364 1530.95H-5.09096M-90.1364 1616H-5.09096M-5.09096 0V85.0526M-5.09096 0H79.9545M-5.09096 85.0526V170.105M-5.09096 85.0526H79.9545M-5.09096 170.105V255.158M-5.09096 170.105H79.9545M-5.09096 255.158V340.211M-5.09096 255.158H79.9545M-5.09096 340.211V425.263M-5.09096 340.211H79.9545M-5.09096 425.263V510.316M-5.09096 425.263H79.9545M-5.09096 510.316V595.368M-5.09096 510.316H79.9545M-5.09096 595.368V680.421M-5.09096 595.368H79.9545M-5.09096 680.421V765.474M-5.09096 680.421H79.9545M-5.09096 765.474V850.526M-5.09096 765.474H79.9545M-5.09096 850.526V935.579M-5.09096 850.526H79.9545M-5.09096 935.579V1020.63M-5.09096 935.579H79.9545M-5.09096 1020.63V1105.68M-5.09096 1020.63H79.9545M-5.09096 1105.68V1190.74M-5.09096 1105.68H79.9545M-5.09096 1190.74V1275.79M-5.09096 1190.74H79.9545M-5.09096 1275.79V1360.84M-5.09096 1275.79H79.9545M-5.09096 1360.84V1445.89M-5.09096 1360.84H79.9545M-5.09096 1445.89V1530.95M-5.09096 1445.89H79.9545M-5.09096 1530.95V1616M-5.09096 1530.95H79.9545M-5.09096 1616H79.9545M79.9545 0V85.0526M79.9545 0H165M79.9545 85.0526V170.105M79.9545 85.0526H165M79.9545 170.105V255.158M79.9545 170.105H165M79.9545 255.158V340.211M79.9545 255.158H165M79.9545 340.211V425.263M79.9545 340.211H165M79.9545 425.263V510.316M79.9545 425.263H165M79.9545 510.316V595.368M79.9545 510.316H165M79.9545 595.368V680.421M79.9545 595.368H165M79.9545 680.421V765.474M79.9545 680.421H165M79.9545 765.474V850.526M79.9545 765.474H165M79.9545 850.526V935.579M79.9545 850.526H165M79.9545 935.579V1020.63M79.9545 935.579H165M79.9545 1020.63V1105.68M79.9545 1020.63H165M79.9545 1105.68V1190.74M79.9545 1105.68H165M79.9545 1190.74V1275.79M79.9545 1190.74H165M79.9545 1275.79V1360.84M79.9545 1275.79H165M79.9545 1360.84V1445.89M79.9545 1360.84H165M79.9545 1445.89V1530.95M79.9545 1445.89H165M79.9545 1530.95V1616M79.9545 1530.95H165M79.9545 1616H165M165 0V85.0526M165 0H250.045M165 85.0526V170.105M165 85.0526H250.045M165 170.105V255.158M165 170.105H250.045M165 255.158V340.211M165 255.158H250.045M165 340.211V425.263M165 340.211H250.045M165 425.263V510.316M165 425.263H250.045M165 510.316V595.368M165 510.316H250.045M165 595.368V680.421M165 595.368H250.045M165 680.421V765.474M165 680.421H250.045M165 765.474V850.526M165 765.474H250.045M165 850.526V935.579M165 850.526H250.045M165 935.579V1020.63M165 935.579H250.045M165 1020.63V1105.68M165 1020.63H250.045M165 1105.68V1190.74M165 1105.68H250.045M165 1190.74V1275.79M165 1190.74H250.045M165 1275.79V1360.84M165 1275.79H250.045M165 1360.84V1445.89M165 1360.84H250.045M165 1445.89V1530.95M165 1445.89H250.045M165 1530.95V1616M165 1530.95H250.045M165 1616H250.045M250.045 0V85.0526M250.045 0H335.091M250.045 85.0526V170.105M250.045 85.0526H335.091M250.045 170.105V255.158M250.045 170.105H335.091M250.045 255.158V340.211M250.045 255.158H335.091M250.045 340.211V425.263M250.045 340.211H335.091M250.045 425.263V510.316M250.045 425.263H335.091M250.045 510.316V595.368M250.045 510.316H335.091M250.045 595.368V680.421M250.045 595.368H335.091M250.045 680.421V765.474M250.045 680.421H335.091M250.045 765.474V850.526M250.045 765.474H335.091M250.045 850.526V935.579M250.045 850.526H335.091M250.045 935.579V1020.63M250.045 935.579H335.091M250.045 1020.63V1105.68M250.045 1020.63H335.091M250.045 1105.68V1190.74M250.045 1105.68H335.091M250.045 1190.74V1275.79M250.045 1190.74H335.091M250.045 1275.79V1360.84M250.045 1275.79H335.091M250.045 1360.84V1445.89M250.045 1360.84H335.091M250.045 1445.89V1530.95M250.045 1445.89H335.091M250.045 1530.95V1616M250.045 1530.95H335.091M250.045 1616H335.091M335.091 0V85.0526M335.091 0H420.136M335.091 85.0526V170.105M335.091 85.0526H420.136M335.091 170.105V255.158M335.091 170.105H420.136M335.091 255.158V340.211M335.091 255.158H420.136M335.091 340.211V425.263M335.091 340.211H420.136M335.091 425.263V510.316M335.091 425.263H420.136M335.091 510.316V595.368M335.091 510.316H420.136M335.091 595.368V680.421M335.091 595.368H420.136M335.091 680.421V765.474M335.091 680.421H420.136M335.091 765.474V850.526M335.091 765.474H420.136M335.091 850.526V935.579M335.091 850.526H420.136M335.091 935.579V1020.63M335.091 935.579H420.136M335.091 1020.63V1105.68M335.091 1020.63H420.136M335.091 1105.68V1190.74M335.091 1105.68H420.136M335.091 1190.74V1275.79M335.091 1190.74H420.136M335.091 1275.79V1360.84M335.091 1275.79H420.136M335.091 1360.84V1445.89M335.091 1360.84H420.136M335.091 1445.89V1530.95M335.091 1445.89H420.136M335.091 1530.95V1616M335.091 1530.95H420.136M335.091 1616H420.136M420.136 0V85.0526M420.136 0H505.182M420.136 85.0526V170.105M420.136 85.0526H505.182M420.136 170.105V255.158M420.136 170.105H505.182M420.136 255.158V340.211M420.136 255.158H505.182M420.136 340.211V425.263M420.136 340.211H505.182M420.136 425.263V510.316M420.136 425.263H505.182M420.136 510.316V595.368M420.136 510.316H505.182M420.136 595.368V680.421M420.136 595.368H505.182M420.136 680.421V765.474M420.136 680.421H505.182M420.136 765.474V850.526M420.136 765.474H505.182M420.136 850.526V935.579M420.136 850.526H505.182M420.136 935.579V1020.63M420.136 935.579H505.182M420.136 1020.63V1105.68M420.136 1020.63H505.182M420.136 1105.68V1190.74M420.136 1105.68H505.182M420.136 1190.74V1275.79M420.136 1190.74H505.182M420.136 1275.79V1360.84M420.136 1275.79H505.182M420.136 1360.84V1445.89M420.136 1360.84H505.182M420.136 1445.89V1530.95M420.136 1445.89H505.182M420.136 1530.95V1616M420.136 1530.95H505.182M420.136 1616H505.182M505.182 0V85.0526M505.182 0H590.227M505.182 85.0526V170.105M505.182 85.0526H590.227M505.182 170.105V255.158M505.182 170.105H590.227M505.182 255.158V340.211M505.182 255.158H590.227M505.182 340.211V425.263M505.182 340.211H590.227M505.182 425.263V510.316M505.182 425.263H590.227M505.182 510.316V595.368M505.182 510.316H590.227M505.182 595.368V680.421M505.182 595.368H590.227M505.182 680.421V765.474M505.182 680.421H590.227M505.182 765.474V850.526M505.182 765.474H590.227M505.182 850.526V935.579M505.182 850.526H590.227M505.182 935.579V1020.63M505.182 935.579H590.227M505.182 1020.63V1105.68M505.182 1020.63H590.227M505.182 1105.68V1190.74M505.182 1105.68H590.227M505.182 1190.74V1275.79M505.182 1190.74H590.227M505.182 1275.79V1360.84M505.182 1275.79H590.227M505.182 1360.84V1445.89M505.182 1360.84H590.227M505.182 1445.89V1530.95M505.182 1445.89H590.227M505.182 1530.95V1616M505.182 1530.95H590.227M505.182 1616H590.227M590.227 0V85.0526M590.227 0H675.273M590.227 85.0526V170.105M590.227 85.0526H675.273M590.227 170.105V255.158M590.227 170.105H675.273M590.227 255.158V340.211M590.227 255.158H675.273M590.227 340.211V425.263M590.227 340.211H675.273M590.227 425.263V510.316M590.227 425.263H675.273M590.227 510.316V595.368M590.227 510.316H675.273M590.227 595.368V680.421M590.227 595.368H675.273M590.227 680.421V765.474M590.227 680.421H675.273M590.227 765.474V850.526M590.227 765.474H675.273M590.227 850.526V935.579M590.227 850.526H675.273M590.227 935.579V1020.63M590.227 935.579H675.273M590.227 1020.63V1105.68M590.227 1020.63H675.273M590.227 1105.68V1190.74M590.227 1105.68H675.273M590.227 1190.74V1275.79M590.227 1190.74H675.273M590.227 1275.79V1360.84M590.227 1275.79H675.273M590.227 1360.84V1445.89M590.227 1360.84H675.273M590.227 1445.89V1530.95M590.227 1445.89H675.273M590.227 1530.95V1616M590.227 1530.95H675.273M590.227 1616H675.273M675.273 0V85.0526M675.273 0H760.318M675.273 85.0526V170.105M675.273 85.0526H760.318M675.273 170.105V255.158M675.273 170.105H760.318M675.273 255.158V340.211M675.273 255.158H760.318M675.273 340.211V425.263M675.273 340.211H760.318M675.273 425.263V510.316M675.273 425.263H760.318M675.273 510.316V595.368M675.273 510.316H760.318M675.273 595.368V680.421M675.273 595.368H760.318M675.273 680.421V765.474M675.273 680.421H760.318M675.273 765.474V850.526M675.273 765.474H760.318M675.273 850.526V935.579M675.273 850.526H760.318M675.273 935.579V1020.63M675.273 935.579H760.318M675.273 1020.63V1105.68M675.273 1020.63H760.318M675.273 1105.68V1190.74M675.273 1105.68H760.318M675.273 1190.74V1275.79M675.273 1190.74H760.318M675.273 1275.79V1360.84M675.273 1275.79H760.318M675.273 1360.84V1445.89M675.273 1360.84H760.318M675.273 1445.89V1530.95M675.273 1445.89H760.318M675.273 1530.95V1616M675.273 1530.95H760.318M675.273 1616H760.318M760.318 0V85.0526M760.318 0H845.364M760.318 85.0526V170.105M760.318 85.0526H845.364M760.318 170.105V255.158M760.318 170.105H845.364M760.318 255.158V340.211M760.318 255.158H845.364M760.318 340.211V425.263M760.318 340.211H845.364M760.318 425.263V510.316M760.318 425.263H845.364M760.318 510.316V595.368M760.318 510.316H845.364M760.318 595.368V680.421M760.318 595.368H845.364M760.318 680.421V765.474M760.318 680.421H845.364M760.318 765.474V850.526M760.318 765.474H845.364M760.318 850.526V935.579M760.318 850.526H845.364M760.318 935.579V1020.63M760.318 935.579H845.364M760.318 1020.63V1105.68M760.318 1020.63H845.364M760.318 1105.68V1190.74M760.318 1105.68H845.364M760.318 1190.74V1275.79M760.318 1190.74H845.364M760.318 1275.79V1360.84M760.318 1275.79H845.364M760.318 1360.84V1445.89M760.318 1360.84H845.364M760.318 1445.89V1530.95M760.318 1445.89H845.364M760.318 1530.95V1616M760.318 1530.95H845.364M760.318 1616H845.364M845.364 0V85.0526M845.364 0H930.409M845.364 85.0526V170.105M845.364 85.0526H930.409M845.364 170.105V255.158M845.364 170.105H930.409M845.364 255.158V340.211M845.364 255.158H930.409M845.364 340.211V425.263M845.364 340.211H930.409M845.364 425.263V510.316M845.364 425.263H930.409M845.364 510.316V595.368M845.364 510.316H930.409M845.364 595.368V680.421M845.364 595.368H930.409M845.364 680.421V765.474M845.364 680.421H930.409M845.364 765.474V850.526M845.364 765.474H930.409M845.364 850.526V935.579M845.364 850.526H930.409M845.364 935.579V1020.63M845.364 935.579H930.409M845.364 1020.63V1105.68M845.364 1020.63H930.409M845.364 1105.68V1190.74M845.364 1105.68H930.409M845.364 1190.74V1275.79M845.364 1190.74H930.409M845.364 1275.79V1360.84M845.364 1275.79H930.409M845.364 1360.84V1445.89M845.364 1360.84H930.409M845.364 1445.89V1530.95M845.364 1445.89H930.409M845.364 1530.95V1616M845.364 1530.95H930.409M845.364 1616H930.409M930.409 0V85.0526M930.409 0H1015.45M930.409 85.0526V170.105M930.409 85.0526H1015.45M930.409 170.105V255.158M930.409 170.105H1015.45M930.409 255.158V340.211M930.409 255.158H1015.45M930.409 340.211V425.263M930.409 340.211H1015.45M930.409 425.263V510.316M930.409 425.263H1015.45M930.409 510.316V595.368M930.409 510.316H1015.45M930.409 595.368V680.421M930.409 595.368H1015.45M930.409 680.421V765.474M930.409 680.421H1015.45M930.409 765.474V850.526M930.409 765.474H1015.45M930.409 850.526V935.579M930.409 850.526H1015.45M930.409 935.579V1020.63M930.409 935.579H1015.45M930.409 1020.63V1105.68M930.409 1020.63H1015.45M930.409 1105.68V1190.74M930.409 1105.68H1015.45M930.409 1190.74V1275.79M930.409 1190.74H1015.45M930.409 1275.79V1360.84M930.409 1275.79H1015.45M930.409 1360.84V1445.89M930.409 1360.84H1015.45M930.409 1445.89V1530.95M930.409 1445.89H1015.45M930.409 1530.95V1616M930.409 1530.95H1015.45M930.409 1616H1015.45M1015.45 0V85.0526M1015.45 0H1100.5M1015.45 85.0526V170.105M1015.45 85.0526H1100.5M1015.45 170.105V255.158M1015.45 170.105H1100.5M1015.45 255.158V340.211M1015.45 255.158H1100.5M1015.45 340.211V425.263M1015.45 340.211H1100.5M1015.45 425.263V510.316M1015.45 425.263H1100.5M1015.45 510.316V595.368M1015.45 510.316H1100.5M1015.45 595.368V680.421M1015.45 595.368H1100.5M1015.45 680.421V765.474M1015.45 680.421H1100.5M1015.45 765.474V850.526M1015.45 765.474H1100.5M1015.45 850.526V935.579M1015.45 850.526H1100.5M1015.45 935.579V1020.63M1015.45 935.579H1100.5M1015.45 1020.63V1105.68M1015.45 1020.63H1100.5M1015.45 1105.68V1190.74M1015.45 1105.68H1100.5M1015.45 1190.74V1275.79M1015.45 1190.74H1100.5M1015.45 1275.79V1360.84M1015.45 1275.79H1100.5M1015.45 1360.84V1445.89M1015.45 1360.84H1100.5M1015.45 1445.89V1530.95M1015.45 1445.89H1100.5M1015.45 1530.95V1616M1015.45 1530.95H1100.5M1015.45 1616H1100.5M1100.5 0V85.0526M1100.5 0H1185.55M1100.5 85.0526V170.105M1100.5 85.0526H1185.55M1100.5 170.105V255.158M1100.5 170.105H1185.55M1100.5 255.158V340.211M1100.5 255.158H1185.55M1100.5 340.211V425.263M1100.5 340.211H1185.55M1100.5 425.263V510.316M1100.5 425.263H1185.55M1100.5 510.316V595.368M1100.5 510.316H1185.55M1100.5 595.368V680.421M1100.5 595.368H1185.55M1100.5 680.421V765.474M1100.5 680.421H1185.55M1100.5 765.474V850.526M1100.5 765.474H1185.55M1100.5 850.526V935.579M1100.5 850.526H1185.55M1100.5 935.579V1020.63M1100.5 935.579H1185.55M1100.5 1020.63V1105.68M1100.5 1020.63H1185.55M1100.5 1105.68V1190.74M1100.5 1105.68H1185.55M1100.5 1190.74V1275.79M1100.5 1190.74H1185.55M1100.5 1275.79V1360.84M1100.5 1275.79H1185.55M1100.5 1360.84V1445.89M1100.5 1360.84H1185.55M1100.5 1445.89V1530.95M1100.5 1445.89H1185.55M1100.5 1530.95V1616M1100.5 1530.95H1185.55M1100.5 1616H1185.55M1185.55 0V85.0526M1185.55 0H1270.59M1185.55 85.0526V170.105M1185.55 85.0526H1270.59M1185.55 170.105V255.158M1185.55 170.105H1270.59M1185.55 255.158V340.211M1185.55 255.158H1270.59M1185.55 340.211V425.263M1185.55 340.211H1270.59M1185.55 425.263V510.316M1185.55 425.263H1270.59M1185.55 510.316V595.368M1185.55 510.316H1270.59M1185.55 595.368V680.421M1185.55 595.368H1270.59M1185.55 680.421V765.474M1185.55 680.421H1270.59M1185.55 765.474V850.526M1185.55 765.474H1270.59M1185.55 850.526V935.579M1185.55 850.526H1270.59M1185.55 935.579V1020.63M1185.55 935.579H1270.59M1185.55 1020.63V1105.68M1185.55 1020.63H1270.59M1185.55 1105.68V1190.74M1185.55 1105.68H1270.59M1185.55 1190.74V1275.79M1185.55 1190.74H1270.59M1185.55 1275.79V1360.84M1185.55 1275.79H1270.59M1185.55 1360.84V1445.89M1185.55 1360.84H1270.59M1185.55 1445.89V1530.95M1185.55 1445.89H1270.59M1185.55 1530.95V1616M1185.55 1530.95H1270.59M1185.55 1616H1270.59M1270.59 0V85.0526M1270.59 0H1355.64M1270.59 85.0526V170.105M1270.59 85.0526H1355.64M1270.59 170.105V255.158M1270.59 170.105H1355.64M1270.59 255.158V340.211M1270.59 255.158H1355.64M1270.59 340.211V425.263M1270.59 340.211H1355.64M1270.59 425.263V510.316M1270.59 425.263H1355.64M1270.59 510.316V595.368M1270.59 510.316H1355.64M1270.59 595.368V680.421M1270.59 595.368H1355.64M1270.59 680.421V765.474M1270.59 680.421H1355.64M1270.59 765.474V850.526M1270.59 765.474H1355.64M1270.59 850.526V935.579M1270.59 850.526H1355.64M1270.59 935.579V1020.63M1270.59 935.579H1355.64M1270.59 1020.63V1105.68M1270.59 1020.63H1355.64M1270.59 1105.68V1190.74M1270.59 1105.68H1355.64M1270.59 1190.74V1275.79M1270.59 1190.74H1355.64M1270.59 1275.79V1360.84M1270.59 1275.79H1355.64M1270.59 1360.84V1445.89M1270.59 1360.84H1355.64M1270.59 1445.89V1530.95M1270.59 1445.89H1355.64M1270.59 1530.95V1616M1270.59 1530.95H1355.64M1270.59 1616H1355.64M1355.64 0V85.0526M1355.64 0H1440.68M1355.64 85.0526V170.105M1355.64 85.0526H1440.68M1355.64 170.105V255.158M1355.64 170.105H1440.68M1355.64 255.158V340.211M1355.64 255.158H1440.68M1355.64 340.211V425.263M1355.64 340.211H1440.68M1355.64 425.263V510.316M1355.64 425.263H1440.68M1355.64 510.316V595.368M1355.64 510.316H1440.68M1355.64 595.368V680.421M1355.64 595.368H1440.68M1355.64 680.421V765.474M1355.64 680.421H1440.68M1355.64 765.474V850.526M1355.64 765.474H1440.68M1355.64 850.526V935.579M1355.64 850.526H1440.68M1355.64 935.579V1020.63M1355.64 935.579H1440.68M1355.64 1020.63V1105.68M1355.64 1020.63H1440.68M1355.64 1105.68V1190.74M1355.64 1105.68H1440.68M1355.64 1190.74V1275.79M1355.64 1190.74H1440.68M1355.64 1275.79V1360.84M1355.64 1275.79H1440.68M1355.64 1360.84V1445.89M1355.64 1360.84H1440.68M1355.64 1445.89V1530.95M1355.64 1445.89H1440.68M1355.64 1530.95V1616M1355.64 1530.95H1440.68M1355.64 1616H1440.68M1440.68 0V85.0526M1440.68 0H1525.73M1440.68 85.0526V170.105M1440.68 85.0526H1525.73M1440.68 170.105V255.158M1440.68 170.105H1525.73M1440.68 255.158V340.211M1440.68 255.158H1525.73M1440.68 340.211V425.263M1440.68 340.211H1525.73M1440.68 425.263V510.316M1440.68 425.263H1525.73M1440.68 510.316V595.368M1440.68 510.316H1525.73M1440.68 595.368V680.421M1440.68 595.368H1525.73M1440.68 680.421V765.474M1440.68 680.421H1525.73M1440.68 765.474V850.526M1440.68 765.474H1525.73M1440.68 850.526V935.579M1440.68 850.526H1525.73M1440.68 935.579V1020.63M1440.68 935.579H1525.73M1440.68 1020.63V1105.68M1440.68 1020.63H1525.73M1440.68 1105.68V1190.74M1440.68 1105.68H1525.73M1440.68 1190.74V1275.79M1440.68 1190.74H1525.73M1440.68 1275.79V1360.84M1440.68 1275.79H1525.73M1440.68 1360.84V1445.89M1440.68 1360.84H1525.73M1440.68 1445.89V1530.95M1440.68 1445.89H1525.73M1440.68 1530.95V1616M1440.68 1530.95H1525.73M1440.68 1616H1525.73M1525.73 0V85.0526M1525.73 0H1610.77M1525.73 85.0526V170.105M1525.73 85.0526H1610.77M1525.73 170.105V255.158M1525.73 170.105H1610.77M1525.73 255.158V340.211M1525.73 255.158H1610.77M1525.73 340.211V425.263M1525.73 340.211H1610.77M1525.73 425.263V510.316M1525.73 425.263H1610.77M1525.73 510.316V595.368M1525.73 510.316H1610.77M1525.73 595.368V680.421M1525.73 595.368H1610.77M1525.73 680.421V765.474M1525.73 680.421H1610.77M1525.73 765.474V850.526M1525.73 765.474H1610.77M1525.73 850.526V935.579M1525.73 850.526H1610.77M1525.73 935.579V1020.63M1525.73 935.579H1610.77M1525.73 1020.63V1105.68M1525.73 1020.63H1610.77M1525.73 1105.68V1190.74M1525.73 1105.68H1610.77M1525.73 1190.74V1275.79M1525.73 1190.74H1610.77M1525.73 1275.79V1360.84M1525.73 1275.79H1610.77M1525.73 1360.84V1445.89M1525.73 1360.84H1610.77M1525.73 1445.89V1530.95M1525.73 1445.89H1610.77M1525.73 1530.95V1616M1525.73 1530.95H1610.77M1525.73 1616H1610.77M1610.77 0V85.0526M1610.77 0H1695.82M1610.77 85.0526V170.105M1610.77 85.0526H1695.82M1610.77 170.105V255.158M1610.77 170.105H1695.82M1610.77 255.158V340.211M1610.77 255.158H1695.82M1610.77 340.211V425.263M1610.77 340.211H1695.82M1610.77 425.263V510.316M1610.77 425.263H1695.82M1610.77 510.316V595.368M1610.77 510.316H1695.82M1610.77 595.368V680.421M1610.77 595.368H1695.82M1610.77 680.421V765.474M1610.77 680.421H1695.82M1610.77 765.474V850.526M1610.77 765.474H1695.82M1610.77 850.526V935.579M1610.77 850.526H1695.82M1610.77 935.579V1020.63M1610.77 935.579H1695.82M1610.77 1020.63V1105.68M1610.77 1020.63H1695.82M1610.77 1105.68V1190.74M1610.77 1105.68H1695.82M1610.77 1190.74V1275.79M1610.77 1190.74H1695.82M1610.77 1275.79V1360.84M1610.77 1275.79H1695.82M1610.77 1360.84V1445.89M1610.77 1360.84H1695.82M1610.77 1445.89V1530.95M1610.77 1445.89H1695.82M1610.77 1530.95V1616M1610.77 1530.95H1695.82M1610.77 1616H1695.82M1695.82 0V85.0526M1695.82 0H1780.86M1695.82 85.0526V170.105M1695.82 85.0526H1780.86M1695.82 170.105V255.158M1695.82 170.105H1780.86M1695.82 255.158V340.211M1695.82 255.158H1780.86M1695.82 340.211V425.263M1695.82 340.211H1780.86M1695.82 425.263V510.316M1695.82 425.263H1780.86M1695.82 510.316V595.368M1695.82 510.316H1780.86M1695.82 595.368V680.421M1695.82 595.368H1780.86M1695.82 680.421V765.474M1695.82 680.421H1780.86M1695.82 765.474V850.526M1695.82 765.474H1780.86M1695.82 850.526V935.579M1695.82 850.526H1780.86M1695.82 935.579V1020.63M1695.82 935.579H1780.86M1695.82 1020.63V1105.68M1695.82 1020.63H1780.86M1695.82 1105.68V1190.74M1695.82 1105.68H1780.86M1695.82 1190.74V1275.79M1695.82 1190.74H1780.86M1695.82 1275.79V1360.84M1695.82 1275.79H1780.86M1695.82 1360.84V1445.89M1695.82 1360.84H1780.86M1695.82 1445.89V1530.95M1695.82 1445.89H1780.86M1695.82 1530.95V1616M1695.82 1530.95H1780.86M1695.82 1616H1780.86M1780.86 0V85.0526M1780.86 0H1865.91M1780.86 85.0526V170.105M1780.86 85.0526H1865.91M1780.86 170.105V255.158M1780.86 170.105H1865.91M1780.86 255.158V340.211M1780.86 255.158H1865.91M1780.86 340.211V425.263M1780.86 340.211H1865.91M1780.86 425.263V510.316M1780.86 425.263H1865.91M1780.86 510.316V595.368M1780.86 510.316H1865.91M1780.86 595.368V680.421M1780.86 595.368H1865.91M1780.86 680.421V765.474M1780.86 680.421H1865.91M1780.86 765.474V850.526M1780.86 765.474H1865.91M1780.86 850.526V935.579M1780.86 850.526H1865.91M1780.86 935.579V1020.63M1780.86 935.579H1865.91M1780.86 1020.63V1105.68M1780.86 1020.63H1865.91M1780.86 1105.68V1190.74M1780.86 1105.68H1865.91M1780.86 1190.74V1275.79M1780.86 1190.74H1865.91M1780.86 1275.79V1360.84M1780.86 1275.79H1865.91M1780.86 1360.84V1445.89M1780.86 1360.84H1865.91M1780.86 1445.89V1530.95M1780.86 1445.89H1865.91M1780.86 1530.95V1616M1780.86 1530.95H1865.91M1780.86 1616H1865.91M1865.91 0V85.0526M1865.91 0H1950.95M1865.91 85.0526V170.105M1865.91 85.0526H1950.95M1865.91 170.105V255.158M1865.91 170.105H1950.95M1865.91 255.158V340.211M1865.91 255.158H1950.95M1865.91 340.211V425.263M1865.91 340.211H1950.95M1865.91 425.263V510.316M1865.91 425.263H1950.95M1865.91 510.316V595.368M1865.91 510.316H1950.95M1865.91 595.368V680.421M1865.91 595.368H1950.95M1865.91 680.421V765.474M1865.91 680.421H1950.95M1865.91 765.474V850.526M1865.91 765.474H1950.95M1865.91 850.526V935.579M1865.91 850.526H1950.95M1865.91 935.579V1020.63M1865.91 935.579H1950.95M1865.91 1020.63V1105.68M1865.91 1020.63H1950.95M1865.91 1105.68V1190.74M1865.91 1105.68H1950.95M1865.91 1190.74V1275.79M1865.91 1190.74H1950.95M1865.91 1275.79V1360.84M1865.91 1275.79H1950.95M1865.91 1360.84V1445.89M1865.91 1360.84H1950.95M1865.91 1445.89V1530.95M1865.91 1445.89H1950.95M1865.91 1530.95V1616M1865.91 1530.95H1950.95M1865.91 1616H1950.95M1950.95 0V85.0526M1950.95 0H2036V85.0526M1950.95 85.0526V170.105M1950.95 85.0526H2036M1950.95 170.105V255.158M1950.95 170.105H2036M1950.95 255.158V340.211M1950.95 255.158H2036M1950.95 340.211V425.263M1950.95 340.211H2036M1950.95 425.263V510.316M1950.95 425.263H2036M1950.95 510.316V595.368M1950.95 510.316H2036M1950.95 595.368V680.421M1950.95 595.368H2036M1950.95 680.421V765.474M1950.95 680.421H2036M1950.95 765.474V850.526M1950.95 765.474H2036M1950.95 850.526V935.579M1950.95 850.526H2036M1950.95 935.579V1020.63M1950.95 935.579H2036M1950.95 1020.63V1105.68M1950.95 1020.63H2036M1950.95 1105.68V1190.74M1950.95 1105.68H2036M1950.95 1190.74V1275.79M1950.95 1190.74H2036M1950.95 1275.79V1360.84M1950.95 1275.79H2036M1950.95 1360.84V1445.89M1950.95 1360.84H2036M1950.95 1445.89V1530.95M1950.95 1445.89H2036M1950.95 1530.95V1616M1950.95 1530.95H2036M1950.95 1616H2036V1530.95M2036 85.0526V170.105M2036 170.105V255.158M2036 255.158V340.211M2036 340.211V425.263M2036 425.263V510.316M2036 510.316V595.368M2036 595.368V680.421M2036 680.421V765.474M2036 765.474V850.526M2036 850.526V935.579M2036 935.579V1020.63M2036 1020.63V1105.68M2036 1105.68V1190.74M2036 1190.74V1275.79M2036 1275.79V1360.84M2036 1360.84V1445.89M2036 1445.89V1530.95" stroke="url(#paint0_radial_753_2399)" stroke-width="1.74474"/>
</g>
</g>
<defs>
<radialGradient id="paint0_radial_753_2399" cx="0" cy="0" r="1" gradientUnits="userSpaceOnUse" gradientTransform="translate(165 808) rotate(90) scale(808 1510.87)">
<stop stop-color="white"/>
<stop offset="1" stop-color="white" stop-opacity="0.2"/>
</radialGradient>
<clipPath id="clip0_753_2399">
<rect width="409" height="629" fill="white"/>
</clipPath>
</defs>
</svg>
