<svg width="40" height="40" viewBox="0 0 40 40" fill="none" xmlns="http://www.w3.org/2000/svg">
<path d="M28.956 5.62053V20.5C28.9607 20.5842 28.9479 20.6685 28.9184 20.7477C28.8889 20.8269 28.8432 20.8994 28.7843 20.9606C28.7253 21.0219 28.6542 21.0707 28.5755 21.1041C28.4967 21.1374 28.4118 21.1546 28.326 21.1546C28.2402 21.1546 28.1553 21.1374 28.0765 21.1041C27.9978 21.0707 27.9267 21.0219 27.8677 20.9606C27.8088 20.8994 27.7631 20.8269 27.7336 20.7477C27.7041 20.6685 27.6913 20.5842 27.696 20.5V6.23918H13.1969C13.0296 6.23918 12.8691 6.30455 12.7508 6.42092C12.6324 6.53729 12.566 6.69513 12.566 6.8597V9.33993C12.566 9.42141 12.5496 9.5021 12.5179 9.57739C12.4862 9.65268 12.4397 9.72108 12.3812 9.7787C12.3226 9.83632 12.253 9.88203 12.1765 9.91322C12.0999 9.9444 12.0178 9.96045 11.935 9.96045H9.413C9.33014 9.96045 9.24809 9.9765 9.17154 10.0077C9.09499 10.0389 9.02543 10.0846 8.96684 10.1422C8.90825 10.1998 8.86177 10.2682 8.83006 10.3435C8.79835 10.4188 8.78203 10.4995 8.78203 10.581V29.8004H18.239C18.3247 29.7957 18.4104 29.8083 18.4909 29.8374C18.5714 29.8664 18.6451 29.9113 18.7074 29.9693C18.7697 30.0273 18.8193 30.0972 18.8532 30.1746C18.8872 30.2521 18.9046 30.3356 18.9046 30.42C18.9046 30.5043 18.8872 30.5878 18.8532 30.6653C18.8193 30.7428 18.7697 30.8126 18.7074 30.8706C18.6451 30.9286 18.5714 30.9735 18.4909 31.0026C18.4104 31.0316 18.3247 31.0442 18.239 31.0396H8.15296C8.0701 31.0396 7.98805 31.0235 7.9115 30.9923C7.83494 30.9611 7.76539 30.9154 7.7068 30.8578C7.6482 30.8002 7.60173 30.7318 7.57002 30.6565C7.53831 30.5812 7.52199 30.5005 7.52199 30.419V10.5791C7.52249 10.086 7.72189 9.6133 8.07641 9.26464C8.43093 8.91599 8.91163 8.7199 9.413 8.7194H11.304V6.8597C11.3045 6.3663 11.5042 5.89329 11.8591 5.54458C12.214 5.19587 12.6952 5 13.1969 5H28.327C28.494 5.0005 28.654 5.06609 28.7719 5.18241C28.8898 5.29873 28.956 5.45628 28.956 5.62053ZM5.63097 8.7194C5.46363 8.7194 5.30314 8.78478 5.18481 8.90115C5.06648 9.01752 5 9.17535 5 9.33993V32.8993C5 33.0638 5.06648 33.2217 5.18481 33.338C5.30314 33.4544 5.46363 33.5198 5.63097 33.5198H19.501C19.5866 33.5244 19.6723 33.5118 19.7529 33.4828C19.8334 33.4537 19.9071 33.4088 19.9694 33.3509C20.0317 33.2929 20.0813 33.223 20.1152 33.1455C20.1491 33.068 20.1666 32.9845 20.1666 32.9002C20.1666 32.8158 20.1491 32.7324 20.1152 32.6549C20.0813 32.5774 20.0317 32.5075 19.9694 32.4495C19.9071 32.3915 19.8334 32.3466 19.7529 32.3176C19.6723 32.2886 19.5866 32.276 19.501 32.2806H6.26004V9.33993C6.26004 9.17568 6.19383 9.01813 6.07591 8.90181C5.95799 8.78549 5.79799 8.7199 5.63097 8.7194ZM32.8639 26.1091L31.7106 27.2433L31.743 27.3202H33.3709C33.5383 27.3202 33.6988 27.3855 33.8171 27.5019C33.9354 27.6183 34.0019 27.7761 34.0019 27.9407V30.4209C34.0019 30.5855 33.9354 30.7433 33.8171 30.8597C33.6988 30.976 33.5383 31.0414 33.3709 31.0414H31.7315L31.701 31.1089L32.8639 32.2525C32.9227 32.31 32.9693 32.3783 33.0011 32.4536C33.033 32.5289 33.0494 32.6096 33.0494 32.6912C33.0494 32.7727 33.033 32.8534 33.0011 32.9287C32.9693 33.004 32.9227 33.0723 32.8639 33.1298L31.0796 34.8846C31.0211 34.9424 30.9516 34.9883 30.8751 35.0196C30.7985 35.0509 30.7164 35.067 30.6335 35.067C30.5506 35.067 30.4685 35.0509 30.392 35.0196C30.3154 34.9883 30.2459 34.9424 30.1875 34.8846L29.0342 33.7504L28.956 33.7822V35.3701C28.956 35.5347 28.8895 35.6925 28.7712 35.8089C28.6529 35.9252 28.4924 35.9906 28.3251 35.9906H25.805C25.6376 35.9906 25.4771 35.9252 25.3588 35.8089C25.2405 35.6925 25.174 35.5347 25.174 35.3701V33.7691L25.0958 33.7372L23.9425 34.8714C23.8841 34.9292 23.8146 34.9751 23.738 35.0064C23.6615 35.0377 23.5794 35.0539 23.4965 35.0539C23.4136 35.0539 23.3315 35.0377 23.2549 35.0064C23.1784 34.9751 23.1089 34.9292 23.0504 34.8714L21.2662 33.1205C21.2074 33.063 21.1607 32.9946 21.1289 32.9193C21.097 32.8441 21.0807 32.7633 21.0807 32.6818C21.0807 32.6003 21.097 32.5195 21.1289 32.4442C21.1607 32.369 21.2074 32.3006 21.2662 32.2431L22.4194 31.1089L22.387 31.0321H20.7591C20.5917 31.0321 20.4313 30.9667 20.3129 30.8503C20.1946 30.7339 20.1281 30.5761 20.1281 30.4115V27.9388C20.1281 27.7742 20.1946 27.6164 20.3129 27.5C20.4313 27.3837 20.5917 27.3183 20.7591 27.3183H22.387C22.3985 27.292 22.408 27.2677 22.4194 27.2414L21.2662 26.1072C21.2074 26.0497 21.1607 25.9814 21.1289 25.9061C21.097 25.8308 21.0807 25.7501 21.0807 25.6685C21.0807 25.587 21.097 25.5063 21.1289 25.431C21.1607 25.3557 21.2074 25.2874 21.2662 25.2299L23.0504 23.4751C23.1089 23.4173 23.1784 23.3714 23.2549 23.3401C23.3315 23.3088 23.4136 23.2927 23.4965 23.2927C23.5794 23.2927 23.6615 23.3088 23.738 23.3401C23.8146 23.3714 23.8841 23.4173 23.9425 23.4751L25.0958 24.6093L25.174 24.5775V22.9765C25.174 22.8119 25.2405 22.6541 25.3588 22.5377C25.4771 22.4213 25.6376 22.356 25.805 22.356H28.327C28.4943 22.356 28.6548 22.4213 28.7731 22.5377C28.8915 22.6541 28.9579 22.8119 28.9579 22.9765V24.5887L29.0266 24.6187L30.1894 23.4751C30.2478 23.4173 30.3173 23.3714 30.3939 23.3401C30.4704 23.3088 30.5525 23.2927 30.6354 23.2927C30.7183 23.2927 30.8004 23.3088 30.877 23.3401C30.9535 23.3714 31.023 23.4173 31.0815 23.4751L32.8658 25.2299C32.9246 25.2874 32.9712 25.3557 33.003 25.431C33.0349 25.5063 33.0513 25.587 33.0513 25.6685C33.0513 25.7501 33.0349 25.8308 33.003 25.9061C32.9712 25.9814 32.9246 26.0497 32.8658 26.1072L32.8639 26.1091ZM31.2969 28.5593C31.162 28.5591 31.0307 28.5164 30.9223 28.4375C30.8139 28.3585 30.7341 28.2475 30.6945 28.1206C30.6203 27.8756 30.5207 27.6388 30.3972 27.4139C30.3315 27.2961 30.3066 27.1605 30.3262 27.0276C30.3458 26.8947 30.4088 26.7717 30.5058 26.6771L31.5295 25.6704L30.6373 24.7931L29.6137 25.7998C29.5218 25.8899 29.4038 25.95 29.2758 25.9718C29.1479 25.9937 29.0163 25.9761 28.8988 25.9216C28.6503 25.8056 28.3958 25.7024 28.1363 25.6123C28.0073 25.5734 27.8944 25.4949 27.8142 25.3883C27.7339 25.2817 27.6905 25.1526 27.6903 25.0199V23.6007H26.4302V25.0199C26.4323 25.1537 26.3904 25.2846 26.3107 25.393C26.231 25.5015 26.1178 25.5817 25.988 25.6217C25.7391 25.6945 25.4983 25.7918 25.2693 25.9123C25.1498 25.9771 25.012 26.0019 24.8769 25.9829C24.7417 25.964 24.6165 25.9023 24.5201 25.8073L23.4965 24.8006L22.6044 25.6779L23.628 26.6846C23.7247 26.7794 23.7876 26.9024 23.8072 27.0352C23.8268 27.168 23.802 27.3035 23.7367 27.4214C23.6131 27.6463 23.5135 27.8831 23.4393 28.1281C23.3998 28.255 23.3199 28.366 23.2115 28.445C23.1031 28.5239 22.9718 28.5666 22.8369 28.5668H21.3939V29.806H22.8369C22.9718 29.8062 23.1031 29.8489 23.2115 29.9278C23.3199 30.0068 23.3998 30.1178 23.4393 30.2447C23.5135 30.4897 23.6131 30.7265 23.7367 30.9514C23.8023 31.0692 23.8272 31.2048 23.8076 31.3377C23.788 31.4706 23.725 31.5936 23.628 31.6882L22.6044 32.6949L23.4965 33.5723L24.5201 32.5656C24.6167 32.4708 24.7419 32.4093 24.8769 32.3904C25.012 32.3714 25.1497 32.3961 25.2693 32.4606C25.4983 32.581 25.7391 32.6783 25.988 32.7511C26.1169 32.79 26.2299 32.8685 26.3101 32.9752C26.3904 33.0818 26.4338 33.2109 26.434 33.3436V34.7627H27.6941V33.3436C27.6943 33.2109 27.7377 33.0818 27.818 32.9752C27.8982 32.8685 28.0112 32.79 28.1401 32.7511C28.389 32.6783 28.6298 32.581 28.8588 32.4606C28.9784 32.3961 29.1161 32.3714 29.2512 32.3904C29.3862 32.4093 29.5114 32.4708 29.608 32.5656L30.6316 33.5723L31.5238 32.6949L30.5001 31.6882C30.4082 31.5979 30.3469 31.4819 30.3247 31.356C30.3025 31.2302 30.3205 31.1006 30.3762 30.9852C30.4932 30.7438 30.5976 30.4966 30.6888 30.2447C30.7283 30.1178 30.8082 30.0068 30.9166 29.9278C31.025 29.8489 31.1563 29.8062 31.2912 29.806H32.7342V28.5668H31.2912L31.2969 28.5593ZM29.5813 29.1798C29.5813 29.6704 29.4334 30.1499 29.1562 30.5578C28.8791 30.9657 28.4852 31.2836 28.0244 31.4713C27.5636 31.659 27.0565 31.7081 26.5673 31.6124C26.0781 31.5167 25.6287 31.2805 25.276 30.9336C24.9233 30.5868 24.6831 30.1448 24.5858 29.6637C24.4885 29.1826 24.5384 28.6839 24.7293 28.2307C24.9202 27.7775 25.2434 27.3902 25.6581 27.1176C26.0729 26.8451 26.5605 26.6996 27.0593 26.6996C27.3915 26.6986 27.7207 26.7622 28.0279 26.8866C28.3351 27.011 28.6144 27.1938 28.8496 27.4246C29.0848 27.6554 29.2713 27.9296 29.3985 28.2314C29.5257 28.5333 29.5911 28.8569 29.5908 29.1836L29.5813 29.1798ZM28.3212 29.1798C28.3212 28.9348 28.2473 28.6952 28.1089 28.4914C27.9704 28.2876 27.7736 28.1288 27.5434 28.035C27.3132 27.9412 27.0598 27.9167 26.8154 27.9645C26.571 28.0123 26.3464 28.1303 26.1702 28.3036C25.994 28.4769 25.874 28.6977 25.8254 28.9381C25.7767 29.1785 25.8017 29.4276 25.8971 29.6541C25.9924 29.8805 26.1539 30.074 26.3612 30.2102C26.5684 30.3463 26.812 30.419 27.0612 30.419C27.3952 30.4195 27.7158 30.2898 27.9527 30.0582C28.1897 29.8266 28.3235 29.5121 28.3251 29.1836L28.3212 29.1798ZM19.4952 19.2608C19.6626 19.2608 19.8231 19.1954 19.9414 19.0791C20.0597 18.9627 20.1262 18.8049 20.1262 18.6403V9.33993C20.1262 9.17535 20.0597 9.01752 19.9414 8.90115C19.8231 8.78478 19.6626 8.7194 19.4952 8.7194H16.979C16.8116 8.7194 16.6511 8.78478 16.5328 8.90115C16.4145 9.01752 16.348 9.17535 16.348 9.33993V18.6403C16.3433 18.7245 16.3561 18.8088 16.3856 18.888C16.4151 18.9672 16.4608 19.0397 16.5198 19.1009C16.5787 19.1622 16.6498 19.211 16.7286 19.2444C16.8074 19.2777 16.8922 19.2949 16.978 19.2949C17.0638 19.2949 17.1487 19.2777 17.2275 19.2444C17.3063 19.211 17.3773 19.1622 17.4363 19.1009C17.4952 19.0397 17.5409 18.9672 17.5704 18.888C17.5999 18.8088 17.6127 18.7245 17.608 18.6403V9.96045H18.8681V18.6403C18.8686 18.8045 18.9353 18.9619 19.0536 19.0779C19.1718 19.1938 19.332 19.259 19.499 19.259L19.4952 19.2608ZM14.4513 19.2608C14.6186 19.2608 14.7791 19.1954 14.8974 19.0791C15.0158 18.9627 15.0822 18.8049 15.0822 18.6403V11.8202C15.0822 11.6556 15.0158 11.4977 14.8974 11.3814C14.7791 11.265 14.6186 11.1996 14.4513 11.1996H11.935C11.7676 11.1996 11.6072 11.265 11.4888 11.3814C11.3705 11.4977 11.304 11.6556 11.304 11.8202V18.6403C11.2993 18.7245 11.3121 18.8088 11.3416 18.888C11.3712 18.9672 11.4168 19.0397 11.4758 19.1009C11.5347 19.1622 11.6058 19.211 11.6846 19.2444C11.7634 19.2777 11.8483 19.2949 11.934 19.2949C12.0198 19.2949 12.1047 19.2777 12.1835 19.2444C12.2623 19.211 12.3333 19.1622 12.3923 19.1009C12.4513 19.0397 12.4969 18.9672 12.5264 18.888C12.556 18.8088 12.5688 18.7245 12.5641 18.6403V12.4407H13.826V18.6403C13.8265 18.8045 13.8932 18.9619 14.0115 19.0779C14.1298 19.1938 14.29 19.259 14.457 19.259L14.4513 19.2608ZM24.5373 19.2608C24.7046 19.2608 24.8651 19.1954 24.9835 19.0791C25.1018 18.9627 25.1683 18.8049 25.1683 18.6403V11.8202C25.1683 11.6556 25.1018 11.4977 24.9835 11.3814C24.8651 11.265 24.7046 11.1996 24.5373 11.1996H22.021C21.8537 11.1996 21.6932 11.265 21.5749 11.3814C21.4565 11.4977 21.3901 11.6556 21.3901 11.8202V18.6403C21.3853 18.7245 21.3981 18.8088 21.4277 18.888C21.4572 18.9672 21.5029 19.0397 21.5618 19.1009C21.6208 19.1622 21.6918 19.211 21.7706 19.2444C21.8494 19.2777 21.9343 19.2949 22.0201 19.2949C22.1059 19.2949 22.1907 19.2777 22.2695 19.2444C22.3483 19.211 22.4194 19.1622 22.4783 19.1009C22.5373 19.0397 22.583 18.9672 22.6125 18.888C22.642 18.8088 22.6548 18.7245 22.6501 18.6403V12.4407H23.9101V18.6403C23.9104 18.7218 23.927 18.8024 23.9589 18.8776C23.9908 18.9528 24.0375 19.0211 24.0963 19.0785C24.1551 19.136 24.2248 19.1815 24.3014 19.2124C24.3781 19.2434 24.4602 19.2592 24.543 19.259L24.5373 19.2608ZM26.4283 20.5C26.4283 20.3354 26.3618 20.1776 26.2435 20.0612C26.1252 19.9449 25.9647 19.8795 25.7973 19.8795H10.673C10.5874 19.8748 10.5017 19.8874 10.4211 19.9165C10.3406 19.9455 10.2669 19.9904 10.2046 20.0484C10.1423 20.1064 10.0927 20.1763 10.0588 20.2537C10.0249 20.3312 10.0074 20.4147 10.0074 20.4991C10.0074 20.5834 10.0249 20.6669 10.0588 20.7444C10.0927 20.8219 10.1423 20.8917 10.2046 20.9497C10.2669 21.0077 10.3406 21.0526 10.4211 21.0817C10.5017 21.1107 10.5874 21.1233 10.673 21.1187H25.8031C25.9701 21.1187 26.1303 21.0535 26.2486 20.9376C26.3668 20.8216 26.4335 20.6642 26.434 20.5H26.4283ZM10.673 24.8399H15.086C15.2471 24.8312 15.3987 24.7621 15.5096 24.6469C15.6205 24.5317 15.6823 24.379 15.6823 24.2203C15.6823 24.0617 15.6205 23.909 15.5096 23.7938C15.3987 23.6785 15.2471 23.6095 15.086 23.6007H10.673C10.5874 23.5961 10.5017 23.6087 10.4211 23.6377C10.3406 23.6668 10.2669 23.7117 10.2046 23.7697C10.1423 23.8277 10.0927 23.8975 10.0588 23.975C10.0249 24.0525 10.0074 24.136 10.0074 24.2203C10.0074 24.3047 10.0249 24.3882 10.0588 24.4657C10.0927 24.5431 10.1423 24.613 10.2046 24.671C10.2669 24.729 10.3406 24.7739 10.4211 24.8029C10.5017 24.832 10.5874 24.8446 10.673 24.8399ZM10.673 27.3202H18.239C18.3247 27.3248 18.4104 27.3122 18.4909 27.2832C18.5714 27.2541 18.6451 27.2092 18.7074 27.1512C18.7697 27.0932 18.8193 27.0234 18.8532 26.9459C18.8872 26.8684 18.9046 26.7849 18.9046 26.7006C18.9046 26.6162 18.8872 26.5327 18.8532 26.4552C18.8193 26.3778 18.7697 26.3079 18.7074 26.2499C18.6451 26.1919 18.5714 26.147 18.4909 26.118C18.4104 26.0889 18.3247 26.0763 18.239 26.081H10.673C10.5874 26.0763 10.5017 26.0889 10.4211 26.118C10.3406 26.147 10.2669 26.1919 10.2046 26.2499C10.1423 26.3079 10.0927 26.3778 10.0588 26.4552C10.0249 26.5327 10.0074 26.6162 10.0074 26.7006C10.0074 26.7849 10.0249 26.8684 10.0588 26.9459C10.0927 27.0234 10.1423 27.0932 10.2046 27.1512C10.2669 27.2092 10.3406 27.2541 10.4211 27.2832C10.5017 27.3122 10.5874 27.3248 10.673 27.3202Z" fill="#191A4E"/>
</svg>
