<svg width="1366" height="553" viewBox="0 0 1366 553" fill="none" xmlns="http://www.w3.org/2000/svg">
<g style="mix-blend-mode:hard-light" opacity="0.1">
<path d="M-87.3182 1H-124V30.0526M-87.3182 1V30.0526M-87.3182 1H-50.6364M-87.3182 30.0526H-124M-87.3182 30.0526V59.1053M-87.3182 30.0526H-50.6364M-124 30.0526V59.1053M-87.3182 59.1053H-124M-87.3182 59.1053V88.1579M-87.3182 59.1053H-50.6364M-124 59.1053V88.1579M-87.3182 88.1579H-124M-87.3182 88.1579V117.211M-87.3182 88.1579H-50.6364M-124 88.1579V117.211M-87.3182 117.211H-124M-87.3182 117.211V146.263M-87.3182 117.211H-50.6364M-124 117.211V146.263M-87.3182 146.263H-124M-87.3182 146.263V175.316M-87.3182 146.263H-50.6364M-124 146.263V175.316M-87.3182 175.316H-124M-87.3182 175.316V204.368M-87.3182 175.316H-50.6364M-124 175.316V204.368M-87.3182 204.368H-124M-87.3182 204.368V233.421M-87.3182 204.368H-50.6364M-124 204.368V233.421M-87.3182 233.421H-124M-87.3182 233.421V262.474M-87.3182 233.421H-50.6364M-124 233.421V262.474M-87.3182 262.474H-124M-87.3182 262.474V291.526M-87.3182 262.474H-50.6364M-124 262.474V291.526M-87.3182 291.526H-124M-87.3182 291.526V320.579M-87.3182 291.526H-50.6364M-124 291.526V320.579M-87.3182 320.579H-124M-87.3182 320.579V349.632M-87.3182 320.579H-50.6364M-124 320.579V349.632M-87.3182 349.632H-124M-87.3182 349.632V378.684M-87.3182 349.632H-50.6364M-124 349.632V378.684M-87.3182 378.684H-124M-87.3182 378.684V407.737M-87.3182 378.684H-50.6364M-124 378.684V407.737M-87.3182 407.737H-124M-87.3182 407.737V436.789M-87.3182 407.737H-50.6364M-124 407.737V436.789M-87.3182 436.789H-124M-87.3182 436.789V465.842M-87.3182 436.789H-50.6364M-124 436.789V465.842M-87.3182 465.842H-124M-87.3182 465.842V494.895M-87.3182 465.842H-50.6364M-124 465.842V494.895M-87.3182 494.895H-124M-87.3182 494.895V523.947M-87.3182 494.895H-50.6364M-124 494.895V523.947M-87.3182 523.947H-124M-87.3182 523.947V553M-87.3182 523.947H-50.6364M-124 523.947V553H-87.3182M-87.3182 553H-50.6364M-50.6364 1V30.0526M-50.6364 1H-13.9545M-50.6364 30.0526V59.1053M-50.6364 30.0526H-13.9545M-50.6364 59.1053V88.1579M-50.6364 59.1053H-13.9545M-50.6364 88.1579V117.211M-50.6364 88.1579H-13.9545M-50.6364 117.211V146.263M-50.6364 117.211H-13.9545M-50.6364 146.263V175.316M-50.6364 146.263H-13.9545M-50.6364 175.316V204.368M-50.6364 175.316H-13.9545M-50.6364 204.368V233.421M-50.6364 204.368H-13.9545M-50.6364 233.421V262.474M-50.6364 233.421H-13.9545M-50.6364 262.474V291.526M-50.6364 262.474H-13.9545M-50.6364 291.526V320.579M-50.6364 291.526H-13.9545M-50.6364 320.579V349.632M-50.6364 320.579H-13.9545M-50.6364 349.632V378.684M-50.6364 349.632H-13.9545M-50.6364 378.684V407.737M-50.6364 378.684H-13.9545M-50.6364 407.737V436.789M-50.6364 407.737H-13.9545M-50.6364 436.789V465.842M-50.6364 436.789H-13.9545M-50.6364 465.842V494.895M-50.6364 465.842H-13.9545M-50.6364 494.895V523.947M-50.6364 494.895H-13.9545M-50.6364 523.947V553M-50.6364 523.947H-13.9545M-50.6364 553H-13.9545M-13.9545 1V30.0526M-13.9545 1H22.7273M-13.9545 30.0526V59.1053M-13.9545 30.0526H22.7273M-13.9545 59.1053V88.1579M-13.9545 59.1053H22.7273M-13.9545 88.1579V117.211M-13.9545 88.1579H22.7273M-13.9545 117.211V146.263M-13.9545 117.211H22.7273M-13.9545 146.263V175.316M-13.9545 146.263H22.7273M-13.9545 175.316V204.368M-13.9545 175.316H22.7273M-13.9545 204.368V233.421M-13.9545 204.368H22.7273M-13.9545 233.421V262.474M-13.9545 233.421H22.7273M-13.9545 262.474V291.526M-13.9545 262.474H22.7273M-13.9545 291.526V320.579M-13.9545 291.526H22.7273M-13.9545 320.579V349.632M-13.9545 320.579H22.7273M-13.9545 349.632V378.684M-13.9545 349.632H22.7273M-13.9545 378.684V407.737M-13.9545 378.684H22.7273M-13.9545 407.737V436.789M-13.9545 407.737H22.7273M-13.9545 436.789V465.842M-13.9545 436.789H22.7273M-13.9545 465.842V494.895M-13.9545 465.842H22.7273M-13.9545 494.895V523.947M-13.9545 494.895H22.7273M-13.9545 523.947V553M-13.9545 523.947H22.7273M-13.9545 553H22.7273M22.7273 1V30.0526M22.7273 1H59.4091M22.7273 30.0526V59.1053M22.7273 30.0526H59.4091M22.7273 59.1053V88.1579M22.7273 59.1053H59.4091M22.7273 88.1579V117.211M22.7273 88.1579H59.4091M22.7273 117.211V146.263M22.7273 117.211H59.4091M22.7273 146.263V175.316M22.7273 146.263H59.4091M22.7273 175.316V204.368M22.7273 175.316H59.4091M22.7273 204.368V233.421M22.7273 204.368H59.4091M22.7273 233.421V262.474M22.7273 233.421H59.4091M22.7273 262.474V291.526M22.7273 262.474H59.4091M22.7273 291.526V320.579M22.7273 291.526H59.4091M22.7273 320.579V349.632M22.7273 320.579H59.4091M22.7273 349.632V378.684M22.7273 349.632H59.4091M22.7273 378.684V407.737M22.7273 378.684H59.4091M22.7273 407.737V436.789M22.7273 407.737H59.4091M22.7273 436.789V465.842M22.7273 436.789H59.4091M22.7273 465.842V494.895M22.7273 465.842H59.4091M22.7273 494.895V523.947M22.7273 494.895H59.4091M22.7273 523.947V553M22.7273 523.947H59.4091M22.7273 553H59.4091M59.4091 1V30.0526M59.4091 1H96.0909M59.4091 30.0526V59.1053M59.4091 30.0526H96.0909M59.4091 59.1053V88.1579M59.4091 59.1053H96.0909M59.4091 88.1579V117.211M59.4091 88.1579H96.0909M59.4091 117.211V146.263M59.4091 117.211H96.0909M59.4091 146.263V175.316M59.4091 146.263H96.0909M59.4091 175.316V204.368M59.4091 175.316H96.0909M59.4091 204.368V233.421M59.4091 204.368H96.0909M59.4091 233.421V262.474M59.4091 233.421H96.0909M59.4091 262.474V291.526M59.4091 262.474H96.0909M59.4091 291.526V320.579M59.4091 291.526H96.0909M59.4091 320.579V349.632M59.4091 320.579H96.0909M59.4091 349.632V378.684M59.4091 349.632H96.0909M59.4091 378.684V407.737M59.4091 378.684H96.0909M59.4091 407.737V436.789M59.4091 407.737H96.0909M59.4091 436.789V465.842M59.4091 436.789H96.0909M59.4091 465.842V494.895M59.4091 465.842H96.0909M59.4091 494.895V523.947M59.4091 494.895H96.0909M59.4091 523.947V553M59.4091 523.947H96.0909M59.4091 553H96.0909M96.0909 1V30.0526M96.0909 1H132.773M96.0909 30.0526V59.1053M96.0909 30.0526H132.773M96.0909 59.1053V88.1579M96.0909 59.1053H132.773M96.0909 88.1579V117.211M96.0909 88.1579H132.773M96.0909 117.211V146.263M96.0909 117.211H132.773M96.0909 146.263V175.316M96.0909 146.263H132.773M96.0909 175.316V204.368M96.0909 175.316H132.773M96.0909 204.368V233.421M96.0909 204.368H132.773M96.0909 233.421V262.474M96.0909 233.421H132.773M96.0909 262.474V291.526M96.0909 262.474H132.773M96.0909 291.526V320.579M96.0909 291.526H132.773M96.0909 320.579V349.632M96.0909 320.579H132.773M96.0909 349.632V378.684M96.0909 349.632H132.773M96.0909 378.684V407.737M96.0909 378.684H132.773M96.0909 407.737V436.789M96.0909 407.737H132.773M96.0909 436.789V465.842M96.0909 436.789H132.773M96.0909 465.842V494.895M96.0909 465.842H132.773M96.0909 494.895V523.947M96.0909 494.895H132.773M96.0909 523.947V553M96.0909 523.947H132.773M96.0909 553H132.773M132.773 1V30.0526M132.773 1H169.455M132.773 30.0526V59.1053M132.773 30.0526H169.455M132.773 59.1053V88.1579M132.773 59.1053H169.455M132.773 88.1579V117.211M132.773 88.1579H169.455M132.773 117.211V146.263M132.773 117.211H169.455M132.773 146.263V175.316M132.773 146.263H169.455M132.773 175.316V204.368M132.773 175.316H169.455M132.773 204.368V233.421M132.773 204.368H169.455M132.773 233.421V262.474M132.773 233.421H169.455M132.773 262.474V291.526M132.773 262.474H169.455M132.773 291.526V320.579M132.773 291.526H169.455M132.773 320.579V349.632M132.773 320.579H169.455M132.773 349.632V378.684M132.773 349.632H169.455M132.773 378.684V407.737M132.773 378.684H169.455M132.773 407.737V436.789M132.773 407.737H169.455M132.773 436.789V465.842M132.773 436.789H169.455M132.773 465.842V494.895M132.773 465.842H169.455M132.773 494.895V523.947M132.773 494.895H169.455M132.773 523.947V553M132.773 523.947H169.455M132.773 553H169.455M169.455 1V30.0526M169.455 1H206.136M169.455 30.0526V59.1053M169.455 30.0526H206.136M169.455 59.1053V88.1579M169.455 59.1053H206.136M169.455 88.1579V117.211M169.455 88.1579H206.136M169.455 117.211V146.263M169.455 117.211H206.136M169.455 146.263V175.316M169.455 146.263H206.136M169.455 175.316V204.368M169.455 175.316H206.136M169.455 204.368V233.421M169.455 204.368H206.136M169.455 233.421V262.474M169.455 233.421H206.136M169.455 262.474V291.526M169.455 262.474H206.136M169.455 291.526V320.579M169.455 291.526H206.136M169.455 320.579V349.632M169.455 320.579H206.136M169.455 349.632V378.684M169.455 349.632H206.136M169.455 378.684V407.737M169.455 378.684H206.136M169.455 407.737V436.789M169.455 407.737H206.136M169.455 436.789V465.842M169.455 436.789H206.136M169.455 465.842V494.895M169.455 465.842H206.136M169.455 494.895V523.947M169.455 494.895H206.136M169.455 523.947V553M169.455 523.947H206.136M169.455 553H206.136M206.136 1V30.0526M206.136 1H242.818M206.136 30.0526V59.1053M206.136 30.0526H242.818M206.136 59.1053V88.1579M206.136 59.1053H242.818M206.136 88.1579V117.211M206.136 88.1579H242.818M206.136 117.211V146.263M206.136 117.211H242.818M206.136 146.263V175.316M206.136 146.263H242.818M206.136 175.316V204.368M206.136 175.316H242.818M206.136 204.368V233.421M206.136 204.368H242.818M206.136 233.421V262.474M206.136 233.421H242.818M206.136 262.474V291.526M206.136 262.474H242.818M206.136 291.526V320.579M206.136 291.526H242.818M206.136 320.579V349.632M206.136 320.579H242.818M206.136 349.632V378.684M206.136 349.632H242.818M206.136 378.684V407.737M206.136 378.684H242.818M206.136 407.737V436.789M206.136 407.737H242.818M206.136 436.789V465.842M206.136 436.789H242.818M206.136 465.842V494.895M206.136 465.842H242.818M206.136 494.895V523.947M206.136 494.895H242.818M206.136 523.947V553M206.136 523.947H242.818M206.136 553H242.818M242.818 1V30.0526M242.818 1H279.5M242.818 30.0526V59.1053M242.818 30.0526H279.5M242.818 59.1053V88.1579M242.818 59.1053H279.5M242.818 88.1579V117.211M242.818 88.1579H279.5M242.818 117.211V146.263M242.818 117.211H279.5M242.818 146.263V175.316M242.818 146.263H279.5M242.818 175.316V204.368M242.818 175.316H279.5M242.818 204.368V233.421M242.818 204.368H279.5M242.818 233.421V262.474M242.818 233.421H279.5M242.818 262.474V291.526M242.818 262.474H279.5M242.818 291.526V320.579M242.818 291.526H279.5M242.818 320.579V349.632M242.818 320.579H279.5M242.818 349.632V378.684M242.818 349.632H279.5M242.818 378.684V407.737M242.818 378.684H279.5M242.818 407.737V436.789M242.818 407.737H279.5M242.818 436.789V465.842M242.818 436.789H279.5M242.818 465.842V494.895M242.818 465.842H279.5M242.818 494.895V523.947M242.818 494.895H279.5M242.818 523.947V553M242.818 523.947H279.5M242.818 553H279.5M279.5 1V30.0526M279.5 1H316.182M279.5 30.0526V59.1053M279.5 30.0526H316.182M279.5 59.1053V88.1579M279.5 59.1053H316.182M279.5 88.1579V117.211M279.5 88.1579H316.182M279.5 117.211V146.263M279.5 117.211H316.182M279.5 146.263V175.316M279.5 146.263H316.182M279.5 175.316V204.368M279.5 175.316H316.182M279.5 204.368V233.421M279.5 204.368H316.182M279.5 233.421V262.474M279.5 233.421H316.182M279.5 262.474V291.526M279.5 262.474H316.182M279.5 291.526V320.579M279.5 291.526H316.182M279.5 320.579V349.632M279.5 320.579H316.182M279.5 349.632V378.684M279.5 349.632H316.182M279.5 378.684V407.737M279.5 378.684H316.182M279.5 407.737V436.789M279.5 407.737H316.182M279.5 436.789V465.842M279.5 436.789H316.182M279.5 465.842V494.895M279.5 465.842H316.182M279.5 494.895V523.947M279.5 494.895H316.182M279.5 523.947V553M279.5 523.947H316.182M279.5 553H316.182M316.182 1V30.0526M316.182 1H352.864M316.182 30.0526V59.1053M316.182 30.0526H352.864M316.182 59.1053V88.1579M316.182 59.1053H352.864M316.182 88.1579V117.211M316.182 88.1579H352.864M316.182 117.211V146.263M316.182 117.211H352.864M316.182 146.263V175.316M316.182 146.263H352.864M316.182 175.316V204.368M316.182 175.316H352.864M316.182 204.368V233.421M316.182 204.368H352.864M316.182 233.421V262.474M316.182 233.421H352.864M316.182 262.474V291.526M316.182 262.474H352.864M316.182 291.526V320.579M316.182 291.526H352.864M316.182 320.579V349.632M316.182 320.579H352.864M316.182 349.632V378.684M316.182 349.632H352.864M316.182 378.684V407.737M316.182 378.684H352.864M316.182 407.737V436.789M316.182 407.737H352.864M316.182 436.789V465.842M316.182 436.789H352.864M316.182 465.842V494.895M316.182 465.842H352.864M316.182 494.895V523.947M316.182 494.895H352.864M316.182 523.947V553M316.182 523.947H352.864M316.182 553H352.864M352.864 1V30.0526M352.864 1H389.545M352.864 30.0526V59.1053M352.864 30.0526H389.545M352.864 59.1053V88.1579M352.864 59.1053H389.545M352.864 88.1579V117.211M352.864 88.1579H389.545M352.864 117.211V146.263M352.864 117.211H389.545M352.864 146.263V175.316M352.864 146.263H389.545M352.864 175.316V204.368M352.864 175.316H389.545M352.864 204.368V233.421M352.864 204.368H389.545M352.864 233.421V262.474M352.864 233.421H389.545M352.864 262.474V291.526M352.864 262.474H389.545M352.864 291.526V320.579M352.864 291.526H389.545M352.864 320.579V349.632M352.864 320.579H389.545M352.864 349.632V378.684M352.864 349.632H389.545M352.864 378.684V407.737M352.864 378.684H389.545M352.864 407.737V436.789M352.864 407.737H389.545M352.864 436.789V465.842M352.864 436.789H389.545M352.864 465.842V494.895M352.864 465.842H389.545M352.864 494.895V523.947M352.864 494.895H389.545M352.864 523.947V553M352.864 523.947H389.545M352.864 553H389.545M389.545 1V30.0526M389.545 1H426.227M389.545 30.0526V59.1053M389.545 30.0526H426.227M389.545 59.1053V88.1579M389.545 59.1053H426.227M389.545 88.1579V117.211M389.545 88.1579H426.227M389.545 117.211V146.263M389.545 117.211H426.227M389.545 146.263V175.316M389.545 146.263H426.227M389.545 175.316V204.368M389.545 175.316H426.227M389.545 204.368V233.421M389.545 204.368H426.227M389.545 233.421V262.474M389.545 233.421H426.227M389.545 262.474V291.526M389.545 262.474H426.227M389.545 291.526V320.579M389.545 291.526H426.227M389.545 320.579V349.632M389.545 320.579H426.227M389.545 349.632V378.684M389.545 349.632H426.227M389.545 378.684V407.737M389.545 378.684H426.227M389.545 407.737V436.789M389.545 407.737H426.227M389.545 436.789V465.842M389.545 436.789H426.227M389.545 465.842V494.895M389.545 465.842H426.227M389.545 494.895V523.947M389.545 494.895H426.227M389.545 523.947V553M389.545 523.947H426.227M389.545 553H426.227M426.227 1V30.0526M426.227 1H462.909M426.227 30.0526V59.1053M426.227 30.0526H462.909M426.227 59.1053V88.1579M426.227 59.1053H462.909M426.227 88.1579V117.211M426.227 88.1579H462.909M426.227 117.211V146.263M426.227 117.211H462.909M426.227 146.263V175.316M426.227 146.263H462.909M426.227 175.316V204.368M426.227 175.316H462.909M426.227 204.368V233.421M426.227 204.368H462.909M426.227 233.421V262.474M426.227 233.421H462.909M426.227 262.474V291.526M426.227 262.474H462.909M426.227 291.526V320.579M426.227 291.526H462.909M426.227 320.579V349.632M426.227 320.579H462.909M426.227 349.632V378.684M426.227 349.632H462.909M426.227 378.684V407.737M426.227 378.684H462.909M426.227 407.737V436.789M426.227 407.737H462.909M426.227 436.789V465.842M426.227 436.789H462.909M426.227 465.842V494.895M426.227 465.842H462.909M426.227 494.895V523.947M426.227 494.895H462.909M426.227 523.947V553M426.227 523.947H462.909M426.227 553H462.909M462.909 1V30.0526M462.909 1H499.591M462.909 30.0526V59.1053M462.909 30.0526H499.591M462.909 59.1053V88.1579M462.909 59.1053H499.591M462.909 88.1579V117.211M462.909 88.1579H499.591M462.909 117.211V146.263M462.909 117.211H499.591M462.909 146.263V175.316M462.909 146.263H499.591M462.909 175.316V204.368M462.909 175.316H499.591M462.909 204.368V233.421M462.909 204.368H499.591M462.909 233.421V262.474M462.909 233.421H499.591M462.909 262.474V291.526M462.909 262.474H499.591M462.909 291.526V320.579M462.909 291.526H499.591M462.909 320.579V349.632M462.909 320.579H499.591M462.909 349.632V378.684M462.909 349.632H499.591M462.909 378.684V407.737M462.909 378.684H499.591M462.909 407.737V436.789M462.909 407.737H499.591M462.909 436.789V465.842M462.909 436.789H499.591M462.909 465.842V494.895M462.909 465.842H499.591M462.909 494.895V523.947M462.909 494.895H499.591M462.909 523.947V553M462.909 523.947H499.591M462.909 553H499.591M499.591 1V30.0526M499.591 1H536.273M499.591 30.0526V59.1053M499.591 30.0526H536.273M499.591 59.1053V88.1579M499.591 59.1053H536.273M499.591 88.1579V117.211M499.591 88.1579H536.273M499.591 117.211V146.263M499.591 117.211H536.273M499.591 146.263V175.316M499.591 146.263H536.273M499.591 175.316V204.368M499.591 175.316H536.273M499.591 204.368V233.421M499.591 204.368H536.273M499.591 233.421V262.474M499.591 233.421H536.273M499.591 262.474V291.526M499.591 262.474H536.273M499.591 291.526V320.579M499.591 291.526H536.273M499.591 320.579V349.632M499.591 320.579H536.273M499.591 349.632V378.684M499.591 349.632H536.273M499.591 378.684V407.737M499.591 378.684H536.273M499.591 407.737V436.789M499.591 407.737H536.273M499.591 436.789V465.842M499.591 436.789H536.273M499.591 465.842V494.895M499.591 465.842H536.273M499.591 494.895V523.947M499.591 494.895H536.273M499.591 523.947V553M499.591 523.947H536.273M499.591 553H536.273M536.273 1V30.0526M536.273 1H572.955M536.273 30.0526V59.1053M536.273 30.0526H572.955M536.273 59.1053V88.1579M536.273 59.1053H572.955M536.273 88.1579V117.211M536.273 88.1579H572.955M536.273 117.211V146.263M536.273 117.211H572.955M536.273 146.263V175.316M536.273 146.263H572.955M536.273 175.316V204.368M536.273 175.316H572.955M536.273 204.368V233.421M536.273 204.368H572.955M536.273 233.421V262.474M536.273 233.421H572.955M536.273 262.474V291.526M536.273 262.474H572.955M536.273 291.526V320.579M536.273 291.526H572.955M536.273 320.579V349.632M536.273 320.579H572.955M536.273 349.632V378.684M536.273 349.632H572.955M536.273 378.684V407.737M536.273 378.684H572.955M536.273 407.737V436.789M536.273 407.737H572.955M536.273 436.789V465.842M536.273 436.789H572.955M536.273 465.842V494.895M536.273 465.842H572.955M536.273 494.895V523.947M536.273 494.895H572.955M536.273 523.947V553M536.273 523.947H572.955M536.273 553H572.955M572.955 1V30.0526M572.955 1H609.636M572.955 30.0526V59.1053M572.955 30.0526H609.636M572.955 59.1053V88.1579M572.955 59.1053H609.636M572.955 88.1579V117.211M572.955 88.1579H609.636M572.955 117.211V146.263M572.955 117.211H609.636M572.955 146.263V175.316M572.955 146.263H609.636M572.955 175.316V204.368M572.955 175.316H609.636M572.955 204.368V233.421M572.955 204.368H609.636M572.955 233.421V262.474M572.955 233.421H609.636M572.955 262.474V291.526M572.955 262.474H609.636M572.955 291.526V320.579M572.955 291.526H609.636M572.955 320.579V349.632M572.955 320.579H609.636M572.955 349.632V378.684M572.955 349.632H609.636M572.955 378.684V407.737M572.955 378.684H609.636M572.955 407.737V436.789M572.955 407.737H609.636M572.955 436.789V465.842M572.955 436.789H609.636M572.955 465.842V494.895M572.955 465.842H609.636M572.955 494.895V523.947M572.955 494.895H609.636M572.955 523.947V553M572.955 523.947H609.636M572.955 553H609.636M609.636 1V30.0526M609.636 1H646.318M609.636 30.0526V59.1053M609.636 30.0526H646.318M609.636 59.1053V88.1579M609.636 59.1053H646.318M609.636 88.1579V117.211M609.636 88.1579H646.318M609.636 117.211V146.263M609.636 117.211H646.318M609.636 146.263V175.316M609.636 146.263H646.318M609.636 175.316V204.368M609.636 175.316H646.318M609.636 204.368V233.421M609.636 204.368H646.318M609.636 233.421V262.474M609.636 233.421H646.318M609.636 262.474V291.526M609.636 262.474H646.318M609.636 291.526V320.579M609.636 291.526H646.318M609.636 320.579V349.632M609.636 320.579H646.318M609.636 349.632V378.684M609.636 349.632H646.318M609.636 378.684V407.737M609.636 378.684H646.318M609.636 407.737V436.789M609.636 407.737H646.318M609.636 436.789V465.842M609.636 436.789H646.318M609.636 465.842V494.895M609.636 465.842H646.318M609.636 494.895V523.947M609.636 494.895H646.318M609.636 523.947V553M609.636 523.947H646.318M609.636 553H646.318M646.318 1V30.0526M646.318 1H683M646.318 30.0526V59.1053M646.318 30.0526H683M646.318 59.1053V88.1579M646.318 59.1053H683M646.318 88.1579V117.211M646.318 88.1579H683M646.318 117.211V146.263M646.318 117.211H683M646.318 146.263V175.316M646.318 146.263H683M646.318 175.316V204.368M646.318 175.316H683M646.318 204.368V233.421M646.318 204.368H683M646.318 233.421V262.474M646.318 233.421H683M646.318 262.474V291.526M646.318 262.474H683M646.318 291.526V320.579M646.318 291.526H683M646.318 320.579V349.632M646.318 320.579H683M646.318 349.632V378.684M646.318 349.632H683M646.318 378.684V407.737M646.318 378.684H683M646.318 407.737V436.789M646.318 407.737H683M646.318 436.789V465.842M646.318 436.789H683M646.318 465.842V494.895M646.318 465.842H683M646.318 494.895V523.947M646.318 494.895H683M646.318 523.947V553M646.318 523.947H683M646.318 553H683M683 1V30.0526M683 1H719.682M683 30.0526V59.1053M683 30.0526H719.682M683 59.1053V88.1579M683 59.1053H719.682M683 88.1579V117.211M683 88.1579H719.682M683 117.211V146.263M683 117.211H719.682M683 146.263V175.316M683 146.263H719.682M683 175.316V204.368M683 175.316H719.682M683 204.368V233.421M683 204.368H719.682M683 233.421V262.474M683 233.421H719.682M683 262.474V291.526M683 262.474H719.682M683 291.526V320.579M683 291.526H719.682M683 320.579V349.632M683 320.579H719.682M683 349.632V378.684M683 349.632H719.682M683 378.684V407.737M683 378.684H719.682M683 407.737V436.789M683 407.737H719.682M683 436.789V465.842M683 436.789H719.682M683 465.842V494.895M683 465.842H719.682M683 494.895V523.947M683 494.895H719.682M683 523.947V553M683 523.947H719.682M683 553H719.682M719.682 1V30.0526M719.682 1H756.364M719.682 30.0526V59.1053M719.682 30.0526H756.364M719.682 59.1053V88.1579M719.682 59.1053H756.364M719.682 88.1579V117.211M719.682 88.1579H756.364M719.682 117.211V146.263M719.682 117.211H756.364M719.682 146.263V175.316M719.682 146.263H756.364M719.682 175.316V204.368M719.682 175.316H756.364M719.682 204.368V233.421M719.682 204.368H756.364M719.682 233.421V262.474M719.682 233.421H756.364M719.682 262.474V291.526M719.682 262.474H756.364M719.682 291.526V320.579M719.682 291.526H756.364M719.682 320.579V349.632M719.682 320.579H756.364M719.682 349.632V378.684M719.682 349.632H756.364M719.682 378.684V407.737M719.682 378.684H756.364M719.682 407.737V436.789M719.682 407.737H756.364M719.682 436.789V465.842M719.682 436.789H756.364M719.682 465.842V494.895M719.682 465.842H756.364M719.682 494.895V523.947M719.682 494.895H756.364M719.682 523.947V553M719.682 523.947H756.364M719.682 553H756.364M756.364 1V30.0526M756.364 1H793.046M756.364 30.0526V59.1053M756.364 30.0526H793.046M756.364 59.1053V88.1579M756.364 59.1053H793.046M756.364 88.1579V117.211M756.364 88.1579H793.046M756.364 117.211V146.263M756.364 117.211H793.046M756.364 146.263V175.316M756.364 146.263H793.046M756.364 175.316V204.368M756.364 175.316H793.046M756.364 204.368V233.421M756.364 204.368H793.046M756.364 233.421V262.474M756.364 233.421H793.046M756.364 262.474V291.526M756.364 262.474H793.046M756.364 291.526V320.579M756.364 291.526H793.046M756.364 320.579V349.632M756.364 320.579H793.046M756.364 349.632V378.684M756.364 349.632H793.046M756.364 378.684V407.737M756.364 378.684H793.046M756.364 407.737V436.789M756.364 407.737H793.046M756.364 436.789V465.842M756.364 436.789H793.046M756.364 465.842V494.895M756.364 465.842H793.046M756.364 494.895V523.947M756.364 494.895H793.046M756.364 523.947V553M756.364 523.947H793.046M756.364 553H793.046M793.046 1V30.0526M793.046 1H829.727M793.046 30.0526V59.1053M793.046 30.0526H829.727M793.046 59.1053V88.1579M793.046 59.1053H829.727M793.046 88.1579V117.211M793.046 88.1579H829.727M793.046 117.211V146.263M793.046 117.211H829.727M793.046 146.263V175.316M793.046 146.263H829.727M793.046 175.316V204.368M793.046 175.316H829.727M793.046 204.368V233.421M793.046 204.368H829.727M793.046 233.421V262.474M793.046 233.421H829.727M793.046 262.474V291.526M793.046 262.474H829.727M793.046 291.526V320.579M793.046 291.526H829.727M793.046 320.579V349.632M793.046 320.579H829.727M793.046 349.632V378.684M793.046 349.632H829.727M793.046 378.684V407.737M793.046 378.684H829.727M793.046 407.737V436.789M793.046 407.737H829.727M793.046 436.789V465.842M793.046 436.789H829.727M793.046 465.842V494.895M793.046 465.842H829.727M793.046 494.895V523.947M793.046 494.895H829.727M793.046 523.947V553M793.046 523.947H829.727M793.046 553H829.727M829.727 1V30.0526M829.727 1H866.409M829.727 30.0526V59.1053M829.727 30.0526H866.409M829.727 59.1053V88.1579M829.727 59.1053H866.409M829.727 88.1579V117.211M829.727 88.1579H866.409M829.727 117.211V146.263M829.727 117.211H866.409M829.727 146.263V175.316M829.727 146.263H866.409M829.727 175.316V204.368M829.727 175.316H866.409M829.727 204.368V233.421M829.727 204.368H866.409M829.727 233.421V262.474M829.727 233.421H866.409M829.727 262.474V291.526M829.727 262.474H866.409M829.727 291.526V320.579M829.727 291.526H866.409M829.727 320.579V349.632M829.727 320.579H866.409M829.727 349.632V378.684M829.727 349.632H866.409M829.727 378.684V407.737M829.727 378.684H866.409M829.727 407.737V436.789M829.727 407.737H866.409M829.727 436.789V465.842M829.727 436.789H866.409M829.727 465.842V494.895M829.727 465.842H866.409M829.727 494.895V523.947M829.727 494.895H866.409M829.727 523.947V553M829.727 523.947H866.409M829.727 553H866.409M866.409 1V30.0526M866.409 1H903.091M866.409 30.0526V59.1053M866.409 30.0526H903.091M866.409 59.1053V88.1579M866.409 59.1053H903.091M866.409 88.1579V117.211M866.409 88.1579H903.091M866.409 117.211V146.263M866.409 117.211H903.091M866.409 146.263V175.316M866.409 146.263H903.091M866.409 175.316V204.368M866.409 175.316H903.091M866.409 204.368V233.421M866.409 204.368H903.091M866.409 233.421V262.474M866.409 233.421H903.091M866.409 262.474V291.526M866.409 262.474H903.091M866.409 291.526V320.579M866.409 291.526H903.091M866.409 320.579V349.632M866.409 320.579H903.091M866.409 349.632V378.684M866.409 349.632H903.091M866.409 378.684V407.737M866.409 378.684H903.091M866.409 407.737V436.789M866.409 407.737H903.091M866.409 436.789V465.842M866.409 436.789H903.091M866.409 465.842V494.895M866.409 465.842H903.091M866.409 494.895V523.947M866.409 494.895H903.091M866.409 523.947V553M866.409 523.947H903.091M866.409 553H903.091M903.091 1V30.0526M903.091 1H939.773M903.091 30.0526V59.1053M903.091 30.0526H939.773M903.091 59.1053V88.1579M903.091 59.1053H939.773M903.091 88.1579V117.211M903.091 88.1579H939.773M903.091 117.211V146.263M903.091 117.211H939.773M903.091 146.263V175.316M903.091 146.263H939.773M903.091 175.316V204.368M903.091 175.316H939.773M903.091 204.368V233.421M903.091 204.368H939.773M903.091 233.421V262.474M903.091 233.421H939.773M903.091 262.474V291.526M903.091 262.474H939.773M903.091 291.526V320.579M903.091 291.526H939.773M903.091 320.579V349.632M903.091 320.579H939.773M903.091 349.632V378.684M903.091 349.632H939.773M903.091 378.684V407.737M903.091 378.684H939.773M903.091 407.737V436.789M903.091 407.737H939.773M903.091 436.789V465.842M903.091 436.789H939.773M903.091 465.842V494.895M903.091 465.842H939.773M903.091 494.895V523.947M903.091 494.895H939.773M903.091 523.947V553M903.091 523.947H939.773M903.091 553H939.773M939.773 1V30.0526M939.773 1H976.455M939.773 30.0526V59.1053M939.773 30.0526H976.455M939.773 59.1053V88.1579M939.773 59.1053H976.455M939.773 88.1579V117.211M939.773 88.1579H976.455M939.773 117.211V146.263M939.773 117.211H976.455M939.773 146.263V175.316M939.773 146.263H976.455M939.773 175.316V204.368M939.773 175.316H976.455M939.773 204.368V233.421M939.773 204.368H976.455M939.773 233.421V262.474M939.773 233.421H976.455M939.773 262.474V291.526M939.773 262.474H976.455M939.773 291.526V320.579M939.773 291.526H976.455M939.773 320.579V349.632M939.773 320.579H976.455M939.773 349.632V378.684M939.773 349.632H976.455M939.773 378.684V407.737M939.773 378.684H976.455M939.773 407.737V436.789M939.773 407.737H976.455M939.773 436.789V465.842M939.773 436.789H976.455M939.773 465.842V494.895M939.773 465.842H976.455M939.773 494.895V523.947M939.773 494.895H976.455M939.773 523.947V553M939.773 523.947H976.455M939.773 553H976.455M976.455 1V30.0526M976.455 1H1013.14M976.455 30.0526V59.1053M976.455 30.0526H1013.14M976.455 59.1053V88.1579M976.455 59.1053H1013.14M976.455 88.1579V117.211M976.455 88.1579H1013.14M976.455 117.211V146.263M976.455 117.211H1013.14M976.455 146.263V175.316M976.455 146.263H1013.14M976.455 175.316V204.368M976.455 175.316H1013.14M976.455 204.368V233.421M976.455 204.368H1013.14M976.455 233.421V262.474M976.455 233.421H1013.14M976.455 262.474V291.526M976.455 262.474H1013.14M976.455 291.526V320.579M976.455 291.526H1013.14M976.455 320.579V349.632M976.455 320.579H1013.14M976.455 349.632V378.684M976.455 349.632H1013.14M976.455 378.684V407.737M976.455 378.684H1013.14M976.455 407.737V436.789M976.455 407.737H1013.14M976.455 436.789V465.842M976.455 436.789H1013.14M976.455 465.842V494.895M976.455 465.842H1013.14M976.455 494.895V523.947M976.455 494.895H1013.14M976.455 523.947V553M976.455 523.947H1013.14M976.455 553H1013.14M1013.14 1V30.0526M1013.14 1H1049.82M1013.14 30.0526V59.1053M1013.14 30.0526H1049.82M1013.14 59.1053V88.1579M1013.14 59.1053H1049.82M1013.14 88.1579V117.211M1013.14 88.1579H1049.82M1013.14 117.211V146.263M1013.14 117.211H1049.82M1013.14 146.263V175.316M1013.14 146.263H1049.82M1013.14 175.316V204.368M1013.14 175.316H1049.82M1013.14 204.368V233.421M1013.14 204.368H1049.82M1013.14 233.421V262.474M1013.14 233.421H1049.82M1013.14 262.474V291.526M1013.14 262.474H1049.82M1013.14 291.526V320.579M1013.14 291.526H1049.82M1013.14 320.579V349.632M1013.14 320.579H1049.82M1013.14 349.632V378.684M1013.14 349.632H1049.82M1013.14 378.684V407.737M1013.14 378.684H1049.82M1013.14 407.737V436.789M1013.14 407.737H1049.82M1013.14 436.789V465.842M1013.14 436.789H1049.82M1013.14 465.842V494.895M1013.14 465.842H1049.82M1013.14 494.895V523.947M1013.14 494.895H1049.82M1013.14 523.947V553M1013.14 523.947H1049.82M1013.14 553H1049.82M1049.82 1V30.0526M1049.82 1H1086.5M1049.82 30.0526V59.1053M1049.82 30.0526H1086.5M1049.82 59.1053V88.1579M1049.82 59.1053H1086.5M1049.82 88.1579V117.211M1049.82 88.1579H1086.5M1049.82 117.211V146.263M1049.82 117.211H1086.5M1049.82 146.263V175.316M1049.82 146.263H1086.5M1049.82 175.316V204.368M1049.82 175.316H1086.5M1049.82 204.368V233.421M1049.82 204.368H1086.5M1049.82 233.421V262.474M1049.82 233.421H1086.5M1049.82 262.474V291.526M1049.82 262.474H1086.5M1049.82 291.526V320.579M1049.82 291.526H1086.5M1049.82 320.579V349.632M1049.82 320.579H1086.5M1049.82 349.632V378.684M1049.82 349.632H1086.5M1049.82 378.684V407.737M1049.82 378.684H1086.5M1049.82 407.737V436.789M1049.82 407.737H1086.5M1049.82 436.789V465.842M1049.82 436.789H1086.5M1049.82 465.842V494.895M1049.82 465.842H1086.5M1049.82 494.895V523.947M1049.82 494.895H1086.5M1049.82 523.947V553M1049.82 523.947H1086.5M1049.82 553H1086.5M1086.5 1V30.0526M1086.5 1H1123.18M1086.5 30.0526V59.1053M1086.5 30.0526H1123.18M1086.5 59.1053V88.1579M1086.5 59.1053H1123.18M1086.5 88.1579V117.211M1086.5 88.1579H1123.18M1086.5 117.211V146.263M1086.5 117.211H1123.18M1086.5 146.263V175.316M1086.5 146.263H1123.18M1086.5 175.316V204.368M1086.5 175.316H1123.18M1086.5 204.368V233.421M1086.5 204.368H1123.18M1086.5 233.421V262.474M1086.5 233.421H1123.18M1086.5 262.474V291.526M1086.5 262.474H1123.18M1086.5 291.526V320.579M1086.5 291.526H1123.18M1086.5 320.579V349.632M1086.5 320.579H1123.18M1086.5 349.632V378.684M1086.5 349.632H1123.18M1086.5 378.684V407.737M1086.5 378.684H1123.18M1086.5 407.737V436.789M1086.5 407.737H1123.18M1086.5 436.789V465.842M1086.5 436.789H1123.18M1086.5 465.842V494.895M1086.5 465.842H1123.18M1086.5 494.895V523.947M1086.5 494.895H1123.18M1086.5 523.947V553M1086.5 523.947H1123.18M1086.5 553H1123.18M1123.18 1V30.0526M1123.18 1H1159.86M1123.18 30.0526V59.1053M1123.18 30.0526H1159.86M1123.18 59.1053V88.1579M1123.18 59.1053H1159.86M1123.18 88.1579V117.211M1123.18 88.1579H1159.86M1123.18 117.211V146.263M1123.18 117.211H1159.86M1123.18 146.263V175.316M1123.18 146.263H1159.86M1123.18 175.316V204.368M1123.18 175.316H1159.86M1123.18 204.368V233.421M1123.18 204.368H1159.86M1123.18 233.421V262.474M1123.18 233.421H1159.86M1123.18 262.474V291.526M1123.18 262.474H1159.86M1123.18 291.526V320.579M1123.18 291.526H1159.86M1123.18 320.579V349.632M1123.18 320.579H1159.86M1123.18 349.632V378.684M1123.18 349.632H1159.86M1123.18 378.684V407.737M1123.18 378.684H1159.86M1123.18 407.737V436.789M1123.18 407.737H1159.86M1123.18 436.789V465.842M1123.18 436.789H1159.86M1123.18 465.842V494.895M1123.18 465.842H1159.86M1123.18 494.895V523.947M1123.18 494.895H1159.86M1123.18 523.947V553M1123.18 523.947H1159.86M1123.18 553H1159.86M1159.86 1V30.0526M1159.86 1H1196.55M1159.86 30.0526V59.1053M1159.86 30.0526H1196.55M1159.86 59.1053V88.1579M1159.86 59.1053H1196.55M1159.86 88.1579V117.211M1159.86 88.1579H1196.55M1159.86 117.211V146.263M1159.86 117.211H1196.55M1159.86 146.263V175.316M1159.86 146.263H1196.55M1159.86 175.316V204.368M1159.86 175.316H1196.55M1159.86 204.368V233.421M1159.86 204.368H1196.55M1159.86 233.421V262.474M1159.86 233.421H1196.55M1159.86 262.474V291.526M1159.86 262.474H1196.55M1159.86 291.526V320.579M1159.86 291.526H1196.55M1159.86 320.579V349.632M1159.86 320.579H1196.55M1159.86 349.632V378.684M1159.86 349.632H1196.55M1159.86 378.684V407.737M1159.86 378.684H1196.55M1159.86 407.737V436.789M1159.86 407.737H1196.55M1159.86 436.789V465.842M1159.86 436.789H1196.55M1159.86 465.842V494.895M1159.86 465.842H1196.55M1159.86 494.895V523.947M1159.86 494.895H1196.55M1159.86 523.947V553M1159.86 523.947H1196.55M1159.86 553H1196.55M1196.55 1V30.0526M1196.55 1H1233.23M1196.55 30.0526V59.1053M1196.55 30.0526H1233.23M1196.55 59.1053V88.1579M1196.55 59.1053H1233.23M1196.55 88.1579V117.211M1196.55 88.1579H1233.23M1196.55 117.211V146.263M1196.55 117.211H1233.23M1196.55 146.263V175.316M1196.55 146.263H1233.23M1196.55 175.316V204.368M1196.55 175.316H1233.23M1196.55 204.368V233.421M1196.55 204.368H1233.23M1196.55 233.421V262.474M1196.55 233.421H1233.23M1196.55 262.474V291.526M1196.55 262.474H1233.23M1196.55 291.526V320.579M1196.55 291.526H1233.23M1196.55 320.579V349.632M1196.55 320.579H1233.23M1196.55 349.632V378.684M1196.55 349.632H1233.23M1196.55 378.684V407.737M1196.55 378.684H1233.23M1196.55 407.737V436.789M1196.55 407.737H1233.23M1196.55 436.789V465.842M1196.55 436.789H1233.23M1196.55 465.842V494.895M1196.55 465.842H1233.23M1196.55 494.895V523.947M1196.55 494.895H1233.23M1196.55 523.947V553M1196.55 523.947H1233.23M1196.55 553H1233.23M1233.23 1V30.0526M1233.23 1H1269.91M1233.23 30.0526V59.1053M1233.23 30.0526H1269.91M1233.23 59.1053V88.1579M1233.23 59.1053H1269.91M1233.23 88.1579V117.211M1233.23 88.1579H1269.91M1233.23 117.211V146.263M1233.23 117.211H1269.91M1233.23 146.263V175.316M1233.23 146.263H1269.91M1233.23 175.316V204.368M1233.23 175.316H1269.91M1233.23 204.368V233.421M1233.23 204.368H1269.91M1233.23 233.421V262.474M1233.23 233.421H1269.91M1233.23 262.474V291.526M1233.23 262.474H1269.91M1233.23 291.526V320.579M1233.23 291.526H1269.91M1233.23 320.579V349.632M1233.23 320.579H1269.91M1233.23 349.632V378.684M1233.23 349.632H1269.91M1233.23 378.684V407.737M1233.23 378.684H1269.91M1233.23 407.737V436.789M1233.23 407.737H1269.91M1233.23 436.789V465.842M1233.23 436.789H1269.91M1233.23 465.842V494.895M1233.23 465.842H1269.91M1233.23 494.895V523.947M1233.23 494.895H1269.91M1233.23 523.947V553M1233.23 523.947H1269.91M1233.23 553H1269.91M1269.91 1V30.0526M1269.91 1H1306.59M1269.91 30.0526V59.1053M1269.91 30.0526H1306.59M1269.91 59.1053V88.1579M1269.91 59.1053H1306.59M1269.91 88.1579V117.211M1269.91 88.1579H1306.59M1269.91 117.211V146.263M1269.91 117.211H1306.59M1269.91 146.263V175.316M1269.91 146.263H1306.59M1269.91 175.316V204.368M1269.91 175.316H1306.59M1269.91 204.368V233.421M1269.91 204.368H1306.59M1269.91 233.421V262.474M1269.91 233.421H1306.59M1269.91 262.474V291.526M1269.91 262.474H1306.59M1269.91 291.526V320.579M1269.91 291.526H1306.59M1269.91 320.579V349.632M1269.91 320.579H1306.59M1269.91 349.632V378.684M1269.91 349.632H1306.59M1269.91 378.684V407.737M1269.91 378.684H1306.59M1269.91 407.737V436.789M1269.91 407.737H1306.59M1269.91 436.789V465.842M1269.91 436.789H1306.59M1269.91 465.842V494.895M1269.91 465.842H1306.59M1269.91 494.895V523.947M1269.91 494.895H1306.59M1269.91 523.947V553M1269.91 523.947H1306.59M1269.91 553H1306.59M1306.59 1V30.0526M1306.59 1H1343.27M1306.59 30.0526V59.1053M1306.59 30.0526H1343.27M1306.59 59.1053V88.1579M1306.59 59.1053H1343.27M1306.59 88.1579V117.211M1306.59 88.1579H1343.27M1306.59 117.211V146.263M1306.59 117.211H1343.27M1306.59 146.263V175.316M1306.59 146.263H1343.27M1306.59 175.316V204.368M1306.59 175.316H1343.27M1306.59 204.368V233.421M1306.59 204.368H1343.27M1306.59 233.421V262.474M1306.59 233.421H1343.27M1306.59 262.474V291.526M1306.59 262.474H1343.27M1306.59 291.526V320.579M1306.59 291.526H1343.27M1306.59 320.579V349.632M1306.59 320.579H1343.27M1306.59 349.632V378.684M1306.59 349.632H1343.27M1306.59 378.684V407.737M1306.59 378.684H1343.27M1306.59 407.737V436.789M1306.59 407.737H1343.27M1306.59 436.789V465.842M1306.59 436.789H1343.27M1306.59 465.842V494.895M1306.59 465.842H1343.27M1306.59 494.895V523.947M1306.59 494.895H1343.27M1306.59 523.947V553M1306.59 523.947H1343.27M1306.59 553H1343.27M1343.27 1V30.0526M1343.27 1H1379.95M1343.27 30.0526V59.1053M1343.27 30.0526H1379.95M1343.27 59.1053V88.1579M1343.27 59.1053H1379.95M1343.27 88.1579V117.211M1343.27 88.1579H1379.95M1343.27 117.211V146.263M1343.27 117.211H1379.95M1343.27 146.263V175.316M1343.27 146.263H1379.95M1343.27 175.316V204.368M1343.27 175.316H1379.95M1343.27 204.368V233.421M1343.27 204.368H1379.95M1343.27 233.421V262.474M1343.27 233.421H1379.95M1343.27 262.474V291.526M1343.27 262.474H1379.95M1343.27 291.526V320.579M1343.27 291.526H1379.95M1343.27 320.579V349.632M1343.27 320.579H1379.95M1343.27 349.632V378.684M1343.27 349.632H1379.95M1343.27 378.684V407.737M1343.27 378.684H1379.95M1343.27 407.737V436.789M1343.27 407.737H1379.95M1343.27 436.789V465.842M1343.27 436.789H1379.95M1343.27 465.842V494.895M1343.27 465.842H1379.95M1343.27 494.895V523.947M1343.27 494.895H1379.95M1343.27 523.947V553M1343.27 523.947H1379.95M1343.27 553H1379.95M1379.95 1V30.0526M1379.95 1H1416.64M1379.95 30.0526V59.1053M1379.95 30.0526H1416.64M1379.95 59.1053V88.1579M1379.95 59.1053H1416.64M1379.95 88.1579V117.211M1379.95 88.1579H1416.64M1379.95 117.211V146.263M1379.95 117.211H1416.64M1379.95 146.263V175.316M1379.95 146.263H1416.64M1379.95 175.316V204.368M1379.95 175.316H1416.64M1379.95 204.368V233.421M1379.95 204.368H1416.64M1379.95 233.421V262.474M1379.95 233.421H1416.64M1379.95 262.474V291.526M1379.95 262.474H1416.64M1379.95 291.526V320.579M1379.95 291.526H1416.64M1379.95 320.579V349.632M1379.95 320.579H1416.64M1379.95 349.632V378.684M1379.95 349.632H1416.64M1379.95 378.684V407.737M1379.95 378.684H1416.64M1379.95 407.737V436.789M1379.95 407.737H1416.64M1379.95 436.789V465.842M1379.95 436.789H1416.64M1379.95 465.842V494.895M1379.95 465.842H1416.64M1379.95 494.895V523.947M1379.95 494.895H1416.64M1379.95 523.947V553M1379.95 523.947H1416.64M1379.95 553H1416.64M1416.64 1V30.0526M1416.64 1H1453.32M1416.64 30.0526V59.1053M1416.64 30.0526H1453.32M1416.64 59.1053V88.1579M1416.64 59.1053H1453.32M1416.64 88.1579V117.211M1416.64 88.1579H1453.32M1416.64 117.211V146.263M1416.64 117.211H1453.32M1416.64 146.263V175.316M1416.64 146.263H1453.32M1416.64 175.316V204.368M1416.64 175.316H1453.32M1416.64 204.368V233.421M1416.64 204.368H1453.32M1416.64 233.421V262.474M1416.64 233.421H1453.32M1416.64 262.474V291.526M1416.64 262.474H1453.32M1416.64 291.526V320.579M1416.64 291.526H1453.32M1416.64 320.579V349.632M1416.64 320.579H1453.32M1416.64 349.632V378.684M1416.64 349.632H1453.32M1416.64 378.684V407.737M1416.64 378.684H1453.32M1416.64 407.737V436.789M1416.64 407.737H1453.32M1416.64 436.789V465.842M1416.64 436.789H1453.32M1416.64 465.842V494.895M1416.64 465.842H1453.32M1416.64 494.895V523.947M1416.64 494.895H1453.32M1416.64 523.947V553M1416.64 523.947H1453.32M1416.64 553H1453.32M1453.32 1V30.0526M1453.32 1H1490V30.0526M1453.32 30.0526V59.1053M1453.32 30.0526H1490M1453.32 59.1053V88.1579M1453.32 59.1053H1490M1453.32 88.1579V117.211M1453.32 88.1579H1490M1453.32 117.211V146.263M1453.32 117.211H1490M1453.32 146.263V175.316M1453.32 146.263H1490M1453.32 175.316V204.368M1453.32 175.316H1490M1453.32 204.368V233.421M1453.32 204.368H1490M1453.32 233.421V262.474M1453.32 233.421H1490M1453.32 262.474V291.526M1453.32 262.474H1490M1453.32 291.526V320.579M1453.32 291.526H1490M1453.32 320.579V349.632M1453.32 320.579H1490M1453.32 349.632V378.684M1453.32 349.632H1490M1453.32 378.684V407.737M1453.32 378.684H1490M1453.32 407.737V436.789M1453.32 407.737H1490M1453.32 436.789V465.842M1453.32 436.789H1490M1453.32 465.842V494.895M1453.32 465.842H1490M1453.32 494.895V523.947M1453.32 494.895H1490M1453.32 523.947V553M1453.32 523.947H1490M1453.32 553H1490V523.947M1490 30.0526V59.1053M1490 59.1053V88.1579M1490 88.1579V117.211M1490 117.211V146.263M1490 146.263V175.316M1490 175.316V204.368M1490 204.368V233.421M1490 233.421V262.474M1490 262.474V291.526M1490 291.526V320.579M1490 320.579V349.632M1490 349.632V378.684M1490 378.684V407.737M1490 407.737V436.789M1490 436.789V465.842M1490 465.842V494.895M1490 494.895V523.947" stroke="url(#paint0_linear_4685_3462)" stroke-width="1.74474"/>
</g>
<defs>
<linearGradient id="paint0_linear_4685_3462" x1="683" y1="462.405" x2="683" y2="-34.2901" gradientUnits="userSpaceOnUse">
<stop stop-color="#191A4E" stop-opacity="0.5"/>
<stop offset="1" stop-color="#191A4E" stop-opacity="0.1"/>
</linearGradient>
</defs>
</svg>
