<svg xmlns="http://www.w3.org/2000/svg" width="70" height="70" viewBox="0 0 70 70">
    <g data-name="Group 26478">
        <path data-name="Rectangle 6838" style="fill:none" d="M0 0h70v70H0z"/>
        <g data-name="Group 26369">
            <g data-name="Group 26367">
                <path data-name="Path 24071" d="M25.142 52.964h17.717v9.323H25.142z" style="fill:#3d4a75" transform="translate(.859 1.001)"/>
            </g>
            <g data-name="Group 26368">
                <path data-name="Path 24072" d="M47.24 66v-1.567a3.025 3.025 0 0 0-3.025-3.025H23.784a3.025 3.025 0 0 0-3.025 3.025V66z" style="fill:#4f5d99" transform="translate(.859 1.001)"/>
            </g>
        </g>
        <g data-name="Group 26370">
            <path data-name="Path 24073" d="M65.859 8.68v38.329a6.682 6.682 0 0 1-6.681 6.681H8.822a6.682 6.682 0 0 1-6.681-6.681V8.68A6.682 6.682 0 0 1 8.822 2h50.356a6.682 6.682 0 0 1 6.681 6.68z" style="fill:#4f5d99" transform="translate(.859 1.001)"/>
        </g>
        <g data-name="Group 26371">
            <path data-name="Path 24074" d="M61.16 9.333v30.935a2.227 2.227 0 0 1-2.227 2.232H9.067a2.227 2.227 0 0 1-2.227-2.232V9.333a2.227 2.227 0 0 1 2.227-2.227h49.866a2.227 2.227 0 0 1 2.227 2.227z" style="fill:#e9e9ff" transform="translate(.859 1.001)"/>
        </g>
        <g data-name="Group 26374">
            <g data-name="Group 26372">
                <path data-name="Path 24075" d="M20.447 10.872v.815a.313.313 0 0 1-.31.31h-8.891a.309.309 0 0 1-.31-.31v-.815a.306.306 0 0 1 .31-.31h8.891a.309.309 0 0 1 .31.31z" style="fill:#ed524e" transform="translate(.859 1.001)"/>
            </g>
            <g data-name="Group 26373">
                <path data-name="Path 24076" d="M23.736 14.592v.815a.313.313 0 0 1-.31.31h-12.18a.309.309 0 0 1-.31-.31v-.815a.306.306 0 0 1 .31-.31h12.18a.309.309 0 0 1 .31.31z" style="fill:#7bd681" transform="translate(.859 1.001)"/>
            </g>
        </g>
        <g data-name="Group 26375">
            <path data-name="Path 24077" d="M36.194 48.092A2.194 2.194 0 1 1 34 45.9a2.2 2.2 0 0 1 2.194 2.192z" style="fill:#3d4a75" transform="translate(.859 1.001)"/>
        </g>
        <g data-name="Group 26390">
            <g data-name="Group 26378">
                <g data-name="Group 26377">
                    <g data-name="Group 26376">
                        <path data-name="Path 24078" d="M24.2 32.531v7.316a.448.448 0 0 1-.448.448h-3.69a.448.448 0 0 1-.448-.448v-7.316a.448.448 0 0 1 .448-.448h3.69a.448.448 0 0 1 .448.448z" style="fill:#ed524e" transform="translate(.859 1.001)"/>
                    </g>
                </g>
            </g>
            <g data-name="Group 26381">
                <g data-name="Group 26380">
                    <g data-name="Group 26379">
                        <path data-name="Path 24079" d="M32.261 29.835v10.013a.448.448 0 0 1-.448.448h-3.69a.448.448 0 0 1-.448-.448V29.835a.448.448 0 0 1 .448-.448h3.69a.448.448 0 0 1 .448.448z" style="fill:#70c1f9" transform="translate(.859 1.001)"/>
                    </g>
                </g>
            </g>
            <g data-name="Group 26384">
                <g data-name="Group 26383">
                    <g data-name="Group 26382">
                        <path data-name="Path 24080" d="M40.325 23.829v16.019a.448.448 0 0 1-.448.448h-3.69a.448.448 0 0 1-.448-.448V23.829a.448.448 0 0 1 .448-.448h3.69a.448.448 0 0 1 .448.448z" style="fill:#7bd681" transform="translate(.859 1.001)"/>
                    </g>
                </g>
            </g>
            <g data-name="Group 26387">
                <g data-name="Group 26386">
                    <g data-name="Group 26385">
                        <path data-name="Path 24081" d="M48.389 16.5v23.1a.448.448 0 0 1-.448.448h-3.69a.448.448 0 0 1-.448-.448V16.5a.448.448 0 0 1 .448-.448h3.69a.448.448 0 0 1 .448.448z" style="fill:#fdc72e" transform="translate(.859 1.001)"/>
                    </g>
                </g>
            </g>
            <g data-name="Group 26389">
                <g data-name="Group 26388">
                    <path data-name="Path 24082" d="m47.236 9.773-1.09 3.27a.354.354 0 0 1-.6.13l-.74-.79c-7.86 7.78-15.62 13.67-23.08 17.54a.487.487 0 0 1-.26.07.13.13 0 0 1-.06-.01.565.565 0 0 1-.2-1.07c7.36-3.82 15.03-9.66 22.82-17.37l-.72-.78a.364.364 0 0 1 .17-.6l3.34-.85a.354.354 0 0 1 .42.46z" style="fill:#4f5d99" transform="translate(.859 1.001)"/>
                </g>
            </g>
        </g>
        <g data-name="Group 26393" style="opacity:.2">
            <g data-name="Group 26391">
                <path data-name="Path 24083" d="M43.5 42.493H28.046L16.136 7.1H31.6z" style="fill:#fff" transform="translate(.859 1.001)"/>
            </g>
            <g data-name="Group 26392">
                <path data-name="Path 24084" d="M51.856 42.493h-4.38L35.566 7.1h4.39z" style="fill:#fff" transform="translate(.859 1.001)"/>
            </g>
        </g>
    </g>
</svg>
