<svg xmlns="http://www.w3.org/2000/svg" width="73.844" height="70" viewBox="0 0 73.844 70">
    <g data-name="Group 26478">
        <path data-name="Rectangle 6838" transform="translate(1.922)" style="fill:none" d="M0 0h70v70H0z"/>
        <g data-name="deal (1)">
            <path data-name="Path 24177" d="M102.589 174.147s5.315 3.058 6.345 1.913a3.336 3.336 0 0 0-.809-5.12s6.06 2.146 7.084.951a3.336 3.336 0 0 0-.863-5.059c-1.594-.92 3.677.767 4.7-.433a3.336 3.336 0 0 0-.868-5.053s3.94.92 4.963-.277a3.336 3.336 0 0 0-.866-5.055l-25.231-17.845c-3.8-3.849-9.934-.544-13.934-1.9l-2.576.178-4.852 16.613s2.97 1.6 3.643 3.088c.71 1.589 1.322 5.2 2.467 6.093z" transform="translate(-64.767 -118.502)" style="fill:#ffcebf"/>
            <g data-name="Group 26523">
                <path data-name="Path 24178" d="M73.442 148.545a6.873 6.873 0 0 0-2.309-2.266 2.241 2.241 0 0 1-.9-2.433l4.047-15.1-.041-.076-4.072-1.317-4.852 18.108s2.97 1.6 3.643 3.088c.71 1.589 1.322 5.2 2.467 6.093l20.5 12.337 4 2.14a3.335 3.335 0 0 0 4.143-.654l-24.159-13.827c-1.145-.889-1.757-4.505-2.467-6.093z" transform="translate(-55.894 -110.904)" style="fill:#ffb09e"/>
                <path data-name="Path 24179" d="m284.177 354.507 4.823 2.784a3.335 3.335 0 0 0 4.2-.715l-7.728-4.423c-1.294-.636-2.52 1.523-1.294 2.354z" transform="translate(-242.758 -303.187)" style="fill:#ffb09e"/>
                <path data-name="Path 24180" d="m304.257 312.692 5.763 3.329a3.334 3.334 0 0 0 4.2-.721l-8.67-4.962c-1.293-.638-2.519 1.523-1.293 2.354z" transform="translate(-259.942 -267.403)" style="fill:#ffb09e"/>
                <path data-name="Path 24181" d="m332.065 275.407 5.849 3.375a3.334 3.334 0 0 0 4.2-.718l-8.754-5.01c-1.295-.636-2.521 1.522-1.295 2.353z" transform="translate(-283.74 -235.495)" style="fill:#ffb09e"/>
            </g>
            <path data-name="Path 24182" d="m109.137 291.863 3.019-5.228c.82-1.421 2.843-.914 2.952-.829a2.971 2.971 0 0 1 .74 3.823l.19 3.32-3.209 1.908a3.132 3.132 0 0 1-.709.829c-.688.578-4.388-1.011-2.983-3.823z" transform="translate(-93.127 -246.373)" style="fill:#d78878"/>
            <path data-name="Path 24183" d="m144.948 313.511 2.371-4.107c.82-1.421 3.49-2.035 3.6-1.95a2.971 2.971 0 0 1 .74 3.823l.515 3.181-3.533 2.048a2.962 2.962 0 0 1-.709.829c-.932.746-4.418-1.37-2.984-3.824z" transform="translate(-123.751 -265.027)" style="fill:#d78878"/>
            <path data-name="Path 24184" d="m183.694 333.386 1.7-2.937c.82-1.421 3.646-2.305 3.755-2.22a2.971 2.971 0 0 1 .74 3.823l-.515.915-.069 1.857-1.369.634-1.066 1.823a2.962 2.962 0 0 1-.709.829c-.932.745-4.149-2.104-2.467-4.724z" transform="translate(-156.791 -282.807)" style="fill:#d78878"/>
            <path data-name="Path 24185" d="m224.628 358.54.856-1.482c.827-1.432 3.433-1.943 3.549-1.851a3 3 0 0 1 .724 3.837l-1.438 2.49a2.987 2.987 0 0 1-.724.843c-.934.746-4.213-1.513-2.967-3.837z" transform="translate(-191.992 -305.889)" style="fill:#d78878"/>
            <path data-name="Path 24186" d="m102.017 288.9 3.019-5.228a2.962 2.962 0 0 1 .709-.829 3 3 0 0 0-.348-.234l-.042-.024a2.97 2.97 0 0 0-4.057 1.087l-3.019 5.228a2.97 2.97 0 0 0 1.087 4.057l.042.024a2.971 2.971 0 0 0 3.349-.259 2.971 2.971 0 0 1-.74-3.822z" transform="translate(-83.764 -243.407)" style="fill:#ca6e59"/>
            <path data-name="Path 24187" d="m137.978 309.659 3.022-5.228a2.963 2.963 0 0 1 .709-.829 3 3 0 0 0-.348-.234l-.042-.024a2.97 2.97 0 0 0-4.057 1.087l-3.019 5.228a2.97 2.97 0 0 0 1.087 4.057l.042.024a2.971 2.971 0 0 0 3.349-.259 2.971 2.971 0 0 1-.743-3.822z" transform="translate(-114.538 -261.175)" style="fill:#ca6e59"/>
            <path data-name="Path 24188" d="m173.938 330.421 3.019-5.228a2.961 2.961 0 0 1 .709-.829 3 3 0 0 0-.348-.234l-.042-.024a2.97 2.97 0 0 0-4.057 1.087l-3.019 5.228a2.97 2.97 0 0 0 1.087 4.057l.042.024a2.971 2.971 0 0 0 3.349-.259 2.971 2.971 0 0 1-.74-3.822z" transform="translate(-145.312 -278.942)" style="fill:#ca6e59"/>
            <path data-name="Path 24189" d="m217.272 354.717 1.438-2.49a2.987 2.987 0 0 1 .724-.843 3 3 0 0 0-4.462.843l-1.438 2.49a2.995 2.995 0 0 0 4.466 3.837 3 3 0 0 1-.728-3.837z" transform="translate(-182.393 -302.067)" style="fill:#ca6e59"/>
            <path data-name="Path 24190" d="m20.1 124.93-3.577-.956-1.831-2.6 5.609-21.17L23 99.831l3.575.956a1.047 1.047 0 0 1 .741 1.282l-5.927 22.121a1.047 1.047 0 0 1-1.289.74z" transform="translate(-12.577 -87.355)" style="fill:#a82626"/>
            <path data-name="Path 24191" d="m10.42 94.582-3.175-.849a1.047 1.047 0 0 0-1.281.74L.036 116.594a1.047 1.047 0 0 0 .741 1.282l3.174.849z" transform="translate(0 -82.105)" style="fill:#d83d3d"/>
            <g data-name="Group 26524">
                <path data-name="Path 24192" d="M53.344 135.758a1.122 1.122 0 0 1-1.084-1.412l.659-2.46a1.122 1.122 0 0 1 2.167.581l-.659 2.46a1.122 1.122 0 0 1-1.083.831z" transform="translate(-44.689 -114.076)" style="fill:#f2fbff"/>
            </g>
            <path data-name="Path 24193" d="m167.9 140.017 5.968-3.446a1.048 1.048 0 0 1 1.277.182c3.632 3.75 7.394 5.732 13.615 5.367a2.247 2.247 0 0 1 1.256.3l7.223 4.17c4.057-.485 3.964-.614 6.979-2.961l.293-10.068-5.228-8.349a34.826 34.826 0 0 1-18.431 1.463c-.215-.039-4.076.178-5.244.852l-10.4 6a3.857 3.857 0 0 0-1.412 5.268c.595.99 2.1 1.5 4.1 1.221z" transform="translate(-139.727 -109.072)" style="fill:#d78878"/>
            <path data-name="Path 24194" d="M157.911 145.79a3.857 3.857 0 0 1 1.412-5.268l10.4-6a8.9 8.9 0 0 1 2.253-.852q-.323-.058-.65-.124a9.5 9.5 0 0 0-6.09.976l-10.4 6a3.857 3.857 0 0 0 3.857 6.68l.33-.191a3.842 3.842 0 0 1-1.112-1.221z" transform="translate(-130.855 -116.067)" style="fill:#ca6e59"/>
            <path data-name="Path 24195" d="M343.757 348.431z" transform="translate(-294.178 -300.1)" style="fill:#ffcebf"/>
            <path data-name="Path 24196" d="m424.785 116.721 2.691.376 3.575-.956a1.047 1.047 0 0 0 .741-1.282l-5.927-22.121a1.047 1.047 0 0 0-1.281-.74l-3.577.956-2.691 1.119z" transform="translate(-357.984 -80.621)" style="fill:#4f5d99"/>
            <path data-name="Path 24197" d="m413.531 98.84-3.174.849a1.047 1.047 0 0 0-.741 1.282l5.927 22.121a1.047 1.047 0 0 0 1.281.74l3.175-.849z" transform="translate(-350.508 -86.507)" style="fill:#3d4a75"/>
            <g data-name="Group 26525">
                <path data-name="Path 24198" d="M442.615 133.936a1.122 1.122 0 0 1-1.083-.831l-.7-2.613a1.122 1.122 0 0 1 2.168-.582l.7 2.613a1.122 1.122 0 0 1-1.084 1.412z" transform="translate(-377.219 -112.385)" style="fill:#f2fbff"/>
            </g>
        </g>
    </g>
</svg>
