<svg xmlns="http://www.w3.org/2000/svg" width="43.363" height="48.587" viewBox="0 0 43.363 48.587">
    <g data-name="Group 29317">
        <path data-name="Path 27568" d="M74.35 53.336a1.988 1.988 0 0 1 1.984 1.984v36.513a1.988 1.988 0 0 1-1.984 1.984H43.79a1.988 1.988 0 0 1-1.984-1.984V55.32a1.988 1.988 0 0 1 1.984-1.984h30.56z" transform="translate(-41.806 -49.557)" style="fill-rule:evenodd;fill:#837683"/>
        <path data-name="Path 27569" d="M338.013 93.817h2.561a1.988 1.988 0 0 0 1.984-1.984V55.32a1.988 1.988 0 0 0-1.984-1.984h-2.561z" transform="translate(-308.03 -49.557)" style="fill:#685e68;fill-rule:evenodd"/>
        <path data-name="Path 27570" d="M97.193 80.608H69.97a.894.894 0 0 0-.892.892v33.176a.894.894 0 0 0 .892.892h27.223a.894.894 0 0 0 .892-.892V81.5a.894.894 0 0 0-.892-.892z" transform="translate(-66.317 -74.068)" style="fill:#eceff1;fill-rule:evenodd"/>
        <path data-name="Path 27571" d="M338.013 115.569h.975a.894.894 0 0 0 .809-.888V81.5a.894.894 0 0 0-.809-.888h-.975z" transform="translate(-308.03 -74.069)" style="fill:#d1d1d6;fill-rule:evenodd"/>
        <path data-name="Path 27572" d="M210.189 149.9a.81.81 0 1 1 0-1.62h9.324a.81.81 0 1 1 0 1.62zm0-9.386a.81.81 0 1 1 0-1.62h9.324a.81.81 0 1 1 0 1.62zm0 3.968a.81.81 0 1 1 0-1.62h9.324a.81.81 0 1 1 0 1.62zm0 9.386a.81.81 0 1 1 0-1.62h9.324a.81.81 0 1 1 0 1.62z" transform="translate(-192.417 -126.456)" style="fill:#a79ba7;fill-rule:evenodd"/>
        <path data-name="Path 27573" d="M103.687 142.045a.81.81 0 1 1 1.145-1.145l1.3 1.3 3.9-3.543a.808.808 0 1 1 1.088 1.2l-4.443 4.033a.81.81 0 0 1-1.145 0zm0 9.386a.81.81 0 1 1 1.145-1.145l1.3 1.3 3.9-3.543a.808.808 0 0 1 1.088 1.2l-4.443 4.033a.81.81 0 0 1-1.145 0z" transform="translate(-97.21 -126.051)" style="fill:#8ac9fe;fill-rule:evenodd"/>
        <path data-name="Path 27574" d="M115.565 325.992a.81.81 0 0 1 1.145-1.145l1.385 1.385 1.385-1.385a.81.81 0 0 1 1.145 1.145l-1.385 1.385 1.385 1.385a.81.81 0 0 1-1.145 1.145l-1.385-1.385-1.385 1.385a.81.81 0 0 1-1.145-1.145l1.385-1.385z" transform="translate(-107.886 -293.372)" style="fill:#fe646f;fill-rule:evenodd"/>
        <path data-name="Path 27575" d="M137.777 18.582h2.828a.876.876 0 0 0 .82-.539 3.375 3.375 0 0 1 6.2 0 .876.876 0 0 0 .82.539h2.828a.894.894 0 0 1 .892.892v3.375a.894.894 0 0 1-.892.892h-13.5a.894.894 0 0 1-.892-.892v-3.375a.894.894 0 0 1 .896-.892z" transform="translate(-127.261 -16.002)" style="fill:#e3a76f;fill-rule:evenodd"/>
        <path data-name="Path 27576" d="M150.38 45.754h-13.5a.894.894 0 0 0 .892.892h13.5a.894.894 0 0 0 .892-.892v-3.375a.894.894 0 0 0-.892-.892v3.375a.894.894 0 0 1-.892.892z" transform="translate(-127.261 -38.907)" style="fill:#c48958;fill-rule:evenodd"/>
        <path data-name="Path 27577" d="M203.249 35.237a1.026 1.026 0 1 0-1.026-1.026 1.028 1.028 0 0 0 1.026 1.026z" transform="translate(-185.985 -31.446)" style="fill:#eceff1;fill-rule:evenodd"/>
    </g>
    <g data-name="Group 29318" transform="translate(12.121 18.233)">
        <path data-name="Path 27578" d="M351.762 377.439a9.625 9.625 0 0 1-1.624 1.788l4.417 4.33 1.682-1.733z" transform="translate(-331.049 -359.086)" style="fill:#a79ba7;fill-rule:evenodd"/>
        <path data-name="Path 27579" d="M362.212 377.144a1.109 1.109 0 0 1-.481.645l4.388 4.359.537-.589z" transform="translate(-341.469 -358.821)" style="fill-rule:evenodd;fill:#837683"/>
        <path data-name="Path 27580" d="m389.1 417.648 1.9-1.956a.873.873 0 0 0-.018-1.23l-5.256-5.1a.873.873 0 0 0-1.23.018l-1.9 1.956a.873.873 0 0 0 .019 1.23l5.256 5.1a.873.873 0 0 0 1.229-.018z" transform="translate(-359.997 -387.558)" style="fill:#f1ba84;fill-rule:evenodd"/>
        <path data-name="Path 27581" d="m406.058 409.364 5.256 5.1a.873.873 0 0 1 .018 1.23l-1.9 1.956a.866.866 0 0 1-.236.172.874.874 0 0 0 1.013-.172l1.9-1.956a.873.873 0 0 0-.019-1.23l-5.256-5.1a.873.873 0 0 0-.995-.154.857.857 0 0 1 .219.154z" transform="translate(-381.114 -387.56)" style="fill:#e3a76f;fill-rule:evenodd"/>
        <circle data-name="Ellipse 1181" cx="9.571" cy="9.571" r="9.571" transform="rotate(-45 16.337 6.767)" style="fill:#8ac9fe"/>
        <path data-name="Path 27582" d="M291.211 235.278a9.571 9.571 0 1 1 0 19.143c-.155 0-.31 0-.463-.011a9.571 9.571 0 0 0 0-19.12c.152-.008.308-.012.463-.012z" transform="translate(-277.671 -231.315)" style="fill:#60b7ff;fill-rule:evenodd"/>
        <circle data-name="Ellipse 1182" cx="6.873" cy="6.873" r="6.873" transform="rotate(-45 18.245 2.16)" style="fill:#eceff1"/>
        <path data-name="Path 27583" d="M234.3 261.938c.156 0 .31.006.463.016a6.873 6.873 0 0 0 0 13.714c-.153.01-.308.016-.463.016a6.873 6.873 0 0 1 0-13.746z" transform="translate(-220.76 -255.276)" style="fill:#d1d1d6;fill-rule:evenodd"/>
    </g>
</svg>
