<svg xmlns="http://www.w3.org/2000/svg" width="70" height="70" viewBox="0 0 70 70">
    <g data-name="Group 28973" transform="translate(-964 -4034)">
        <circle data-name="Ellipse 690" cx="35" cy="35" r="35" transform="translate(964 4034)" style="fill:#f2f4f7"/>
        <path data-name="Path 26190" d="M335.813 184.583c0 1.217-.732 2.2-1.635 2.2s-1.428-1.133-1.428-2.351.525-2.058 1.428-2.058 1.635.992 1.635 2.209zm0 0" transform="translate(673.707 3883.313)" style="fill:#e8916f"/>
        <path data-name="Path 26191" d="M478.539 184.583c0 1.217.732 2.2 1.635 2.2s1.428-1.133 1.428-2.351-.525-2.058-1.428-2.058-1.635.992-1.635 2.209zm0 0" transform="translate(541.262 3883.313)" style="fill:#d98868"/>
        <path data-name="Path 26192" d="M404.156 281.125h3.335v5.344h-3.335zm0 0" transform="translate(608.836 3793.606)" style="fill:#d98868"/>
        <path data-name="Path 26193" d="M356.793 127.816v-4.507a5.66 5.66 0 0 1 5.661-5.661h.684a5.66 5.66 0 0 1 5.66 5.661v4.507a6 6 0 0 1-6 6h-.01a6 6 0 0 1-5.995-6zm0 0" transform="translate(651.864 3942.119)" style="fill:#ebad88"/>
        <path data-name="Path 26194" d="M412.784 117.648h-.676a5.709 5.709 0 0 0-.663.04 5.67 5.67 0 0 1 5 5.634v4.48a6.01 6.01 0 0 1-5 5.928 6 6 0 0 0 7-5.928v-4.48a5.669 5.669 0 0 0-5.661-5.674zm0 0" transform="translate(602.214 3942.119)" style="fill:#e8916f"/>
        <path data-name="Path 26195" d="M352.728 323.647v.763a.366.366 0 0 1-.366.366h-14.875a.366.366 0 0 1-.366-.366v-.763c0-3.283 2.308-5.944 5.156-5.944h5.3c2.842-.003 5.151 2.661 5.151 5.944zm0 0" transform="translate(669.736 3760.375)" style="fill:#47d5e6"/>
        <path data-name="Path 26196" d="M423.223 317.7h-2.829c2.847 0 5.156 2.661 5.156 5.944v1.129h2.463a.366.366 0 0 0 .366-.366v-.763c0-3.28-2.308-5.944-5.156-5.944zm0 0" transform="translate(594.084 3760.375)" style="fill:#22c0d4"/>
        <path data-name="Path 26197" d="M395.066 317.7h5l-2.5 7.072zm0 0" transform="translate(617.094 3760.375)" style="fill:#dcdfe8"/>
        <path data-name="Path 26198" d="m384.159 318.9-1.768-7.453a.275.275 0 0 0-.357-.2l-1.475.512a.366.366 0 0 0-.25.347v2.6a.274.274 0 0 0 .075.188zm0 0" transform="translate(630.501 3766.251)" style="fill:#20b5c7"/>
        <path data-name="Path 26199" d="m422.375 318.9 1.768-7.453a.275.275 0 0 1 .357-.2l1.475.512a.366.366 0 0 1 .249.347v2.6a.272.272 0 0 1-.075.188zm0 0" transform="translate(592.285 3766.251)" style="fill:#20b5c7"/>
        <path data-name="Path 26200" d="M342.207 98s.5.2 1.012-.762c.586-1.1 2.131-1.717 3.983-1.65 2.137.077 3.1-.618 3.595-1.37a.092.092 0 0 1 .164.02c.626 1.866 1.477 1.407 2.035 3.131a.858.858 0 0 0 1.2.63s2.388-1.387 1.158-3.589c.211-4.426-3.254-4.688-3.254-4.688s-1.584-2.014-5.925-.966c-6.264 1.512-5.152 5.92-5.152 5.92A2.444 2.444 0 0 0 342.207 98zm0 0" transform="translate(666.425 3968.639)" style="fill:#ffd659"/>
        <path data-name="Path 26201" d="M417.551 94.427c.211-4.427-3.251-4.687-3.251-4.687s-1.374-1.745-5.067-1.14a4.684 4.684 0 0 1 1.712.688 5.212 5.212 0 0 0 1.233.616c1 .344 2.7 1.389 2.546 4.524a2.286 2.286 0 0 1 .133 2.194 3.574 3.574 0 0 1 .339.765.858.858 0 0 0 1.2.63s2.386-1.388 1.155-3.59zm0 0" transform="translate(604.226 3968.625)" style="fill:#ffbd54"/>
        <path data-name="Path 26202" d="M71.41 281.125h3.335v5.344H71.41zm0 0" transform="translate(911.126 3793.606)" style="fill:#d98868"/>
        <path data-name="Path 26203" d="M24.047 127.816v-4.507a5.66 5.66 0 0 1 5.66-5.661h.684a5.66 5.66 0 0 1 5.66 5.661v4.507a6 6 0 0 1-6 6h-.009a6 6 0 0 1-5.995-6zm0 0" transform="translate(954.154 3942.119)" style="fill:#ebad88"/>
        <path data-name="Path 26204" d="M80.034 117.648h-.676a5.708 5.708 0 0 0-.663.04 5.67 5.67 0 0 1 5 5.634v4.48a6.01 6.01 0 0 1-5 5.928 6 6 0 0 0 7-5.928v-4.48a5.669 5.669 0 0 0-5.661-5.674zm0 0" transform="translate(904.508 3942.119)" style="fill:#e8916f"/>
        <path data-name="Path 26205" d="M19.978 323.647v.763a.366.366 0 0 1-.366.366H4.737a.366.366 0 0 1-.366-.366v-.763c0-3.283 2.308-5.944 5.156-5.944h5.3c2.842-.003 5.151 2.661 5.151 5.944zm0 0" transform="translate(972.029 3760.375)" style="fill:#ff2c5c"/>
        <path data-name="Path 26206" d="M90.473 317.7h-2.828c2.848 0 5.156 2.661 5.156 5.944v1.129h2.463a.366.366 0 0 0 .366-.366v-.763c-.001-3.28-2.309-5.944-5.157-5.944zm0 0" transform="translate(896.378 3760.375)" style="fill:#e62753"/>
        <path data-name="Path 26207" d="M62.32 317.7h5l-2.5 7.072zm0 0" transform="translate(919.384 3760.375)" style="fill:#dcdfe8"/>
        <path data-name="Path 26208" d="m51.412 318.873-1.769-7.456a.274.274 0 0 0-.355-.2l-1.477.5a.366.366 0 0 0-.249.347v2.615a.273.273 0 0 0 .075.188zm0 0" transform="translate(932.791 3766.278)" style="fill:#d6244d"/>
        <path data-name="Path 26209" d="m89.625 318.873 1.769-7.456a.275.275 0 0 1 .355-.2l1.477.5a.366.366 0 0 1 .25.347v2.615a.275.275 0 0 1-.075.188zm0 0" transform="translate(894.578 3766.278)" style="fill:#d6244d"/>
        <path data-name="Path 26210" d="M9.364 97.792s-3.5 1.576-4.714 3.61c-1.59 2.674-1.633 5.43-2.418 8.06a.184.184 0 0 1-.331.046A11.536 11.536 0 0 1 0 103.822c0-13.2 9.653-11.605 10.084-10.6 1.947-.815 5.851.87 5.851 8.6 0 3.726-.42 6.29-1.556 7.935a.183.183 0 0 1-.33-.063c-.219-.983-.79-3.665-1.062-6.04-.624-5.443-3.623-5.862-3.623-5.862zm0 0" transform="translate(976 3964.9)" style="fill:#ffd659"/>
        <path data-name="Path 26211" d="M72.7 93.222c-.174-.4-1.843-.9-3.776-.5.342.083.6.3.917.86a4.089 4.089 0 0 0 1.834 1.73c2.1.971 3.428 3 4.059 6.51a9.341 9.341 0 0 1-.068 2.352c.289 2.235.8 4.608 1 5.52a.184.184 0 0 0 .33.063c1.135-1.645 1.556-4.209 1.556-7.935.001-7.73-3.904-9.415-5.852-8.6zm0 0" transform="translate(913.383 3964.898)" style="fill:#ffbd54"/>
        <path data-name="Path 26212" d="M133.619 135.482c0 1.716-1.035 3.107-2.311 3.107s-2.018-1.6-2.018-3.313.742-2.9 2.018-2.9 2.311 1.39 2.311 3.106zm0 0" transform="translate(858.545 3928.74)" style="fill:#e8916f"/>
        <path data-name="Path 26213" d="M335.406 135.482c0 1.716 1.035 3.107 2.311 3.107s2.018-1.6 2.018-3.313-.742-2.9-2.018-2.9-2.311 1.39-2.311 3.106zm0 0" transform="translate(671.293 3928.74)" style="fill:#d98868"/>
        <path data-name="Path 26214" d="M230.246 271.543h4.714v7.532h-4.714zm0 0" transform="translate(766.828 3802.311)" style="fill:#d98868"/>
        <path data-name="Path 26215" d="M163.285 55.448v-6.3a8 8 0 0 1 8-8h.967a8 8 0 0 1 8 8v6.3a8.48 8.48 0 0 1-8.48 8.48h-.013a8.48 8.48 0 0 1-8.474-8.48zm0 0" transform="translate(827.66 4011.621)" style="fill:#ebad88"/>
        <path data-name="Path 26216" d="M242.439 41.145h-.955a8.1 8.1 0 0 0-.937.056 8 8 0 0 1 7.072 7.94v6.314a8.479 8.479 0 0 1-7.072 8.355 8.577 8.577 0 0 0 1.414.118 8.479 8.479 0 0 0 8.486-8.473v-6.314a8 8 0 0 0-8.008-7.996zm0 0" transform="translate(757.47 4011.621)" style="fill:#e8916f"/>
        <path data-name="Path 26217" d="M157.533 331.478v1.042a.549.549 0 0 1-.549.549h-20.966a.549.549 0 0 1-.549-.549v-1.042c0-4.626 3.263-8.376 7.289-8.376h7.486c4.026-.002 7.289 3.75 7.289 8.376zm0 0" transform="translate(852.931 3755.471)" style="fill:#685c79"/>
        <path data-name="Path 26218" d="M268.817 323.1h-2.829c4.026 0 7.289 3.75 7.289 8.376v1.591h2.279a.549.549 0 0 0 .549-.549v-1.042c.001-4.624-3.262-8.376-7.288-8.376zm0 0" transform="translate(734.358 3755.471)" style="fill:#594f69"/>
        <path data-name="Path 26219" d="M217.395 323.1h7.067l-3.534 9.967zm0 0" transform="translate(778.504 3755.471)" style="fill:#ffd659"/>
        <g data-name="Group 29003">
            <path data-name="Path 26220" d="M215.342 210.515a.686.686 0 0 0-.895.377 3.181 3.181 0 0 1-3.1 1.632 3.585 3.585 0 0 1-3.291-1.679.687.687 0 0 0-1.231.607 4.923 4.923 0 0 0 4.522 2.445 4.515 4.515 0 0 0 4.372-2.488.687.687 0 0 0-.377-.894zm0 0" transform="translate(788.169 3857.798)" style="fill:#d98868"/>
            <path data-name="Path 26221" d="M272.733 150.513a7.015 7.015 0 0 0-3.691.294.686.686 0 1 0 .46 1.294 5.729 5.729 0 0 1 2.909-.252.686.686 0 0 0 .322-1.335zm0 0" transform="translate(731.999 3912.373)" style="fill:#d98868"/>
            <path data-name="Path 26222" d="M196.122 152.1a.686.686 0 0 0 .46-1.294 7.017 7.017 0 0 0-3.692-.294.687.687 0 0 0 .319 1.335 5.726 5.726 0 0 1 2.913.253zm0 0" transform="translate(801.24 3912.373)" style="fill:#d98868"/>
        </g>
        <path data-name="Path 26223" d="m201.971 324.414-2.53-10.629a.274.274 0 0 0-.354-.2l-2.309.774a.366.366 0 0 0-.25.347v3.806a.274.274 0 0 0 .114.222l1.152.834a.275.275 0 0 1 .113.222v1.53a.274.274 0 0 0 .113.222zm0 0" transform="translate(797.461 3764.126)" style="fill:#50475e"/>
        <path data-name="Path 26224" d="m256 324.414 2.53-10.629a.274.274 0 0 1 .354-.2l2.309.774a.366.366 0 0 1 .25.347v3.806a.274.274 0 0 1-.114.222l-1.152.834a.275.275 0 0 0-.113.222v1.53a.274.274 0 0 1-.113.222zm0 0" transform="translate(743.432 3764.126)" style="fill:#50475e"/>
        <path data-name="Path 26225" d="M142.657 13.454s.706.284 1.431-1.073c.829-1.553 3.013-2.42 5.631-2.325 3.085.111 4.443-.912 5.125-2a.091.091 0 0 1 .164.02c.888 2.717 2.106 2.034 2.9 4.489a1.214 1.214 0 0 0 1.695.888s3.377-1.955 1.636-5.058c.3-6.237-4.6-6.607-4.6-6.607S154.4-1.05 148.265.427c-8.857 2.131-7.284 8.345-7.284 8.345a3.438 3.438 0 0 0 1.676 4.682zm0 0" transform="translate(848.252 4048.998)" style="fill:#8c4a37"/>
        <path data-name="Path 26226" d="M255.512 8.4c.3-6.237-4.6-6.607-4.6-6.607s-1.782-2.26-6.525-1.7a5.774 5.774 0 0 1 3.7 1.7s4.9.369 4.6 6.607a3.318 3.318 0 0 1-.517 4.126l.015.044a1.214 1.214 0 0 0 1.7.888s3.367-1.958 1.627-5.058zm0 0" transform="translate(753.982 4048.998)" style="fill:#804231"/>
    </g>
</svg>
