<svg xmlns="http://www.w3.org/2000/svg" width="47.753" height="48.091" viewBox="0 0 47.753 48.091">
    <g data-name="Group 25677">
        <g data-name="Group 29310">
            <path data-name="Path 27551" d="M189.779 101.04v21.416a3.056 3.056 0 0 0 3.056 3.056h23.984a3.056 3.056 0 0 0 3.056-3.056v-28.4A3.056 3.056 0 0 0 216.819 91h-17a3.82 3.82 0 0 0-2.7 1.119l-6.219 6.22a3.82 3.82 0 0 0-1.121 2.701z" transform="translate(-172.123 -82.448)" style="fill:#b1e4f9"/>
        </g>
        <g data-name="Group 29311">
            <path data-name="Path 27552" d="M159.447 70.708v21.415a3.056 3.056 0 0 0 3.053 3.057h23.984a3.056 3.056 0 0 0 3.056-3.056v-28.4a3.056 3.056 0 0 0-3.056-3.056h-17a3.82 3.82 0 0 0-2.7 1.119l-6.225 6.225a3.82 3.82 0 0 0-1.112 2.696z" transform="translate(-144.64 -54.965)" style="fill:#d3effb"/>
        </g>
        <g data-name="Group 29312">
            <path data-name="Path 27553" d="M129.115 40.376v21.415a3.056 3.056 0 0 0 3.056 3.056h23.984a3.056 3.056 0 0 0 3.056-3.056v-28.4a3.056 3.056 0 0 0-3.056-3.056h-17a3.82 3.82 0 0 0-2.7 1.119l-6.225 6.225a3.82 3.82 0 0 0-1.119 2.7z" transform="translate(-117.157 -27.482)" style="fill:#e4f6ff"/>
        </g>
        <g data-name="Group 29313">
            <path data-name="Path 27554" d="M98.783 10.045V31.46a3.056 3.056 0 0 0 3.056 3.056h23.984a3.056 3.056 0 0 0 3.056-3.056V3.056A3.056 3.056 0 0 0 125.823 0h-17a3.82 3.82 0 0 0-2.7 1.119L99.9 7.344a3.82 3.82 0 0 0-1.119 2.7z" transform="translate(-89.674)" style="fill:#f4fbff"/>
            <path data-name="Path 27555" d="M98.782 10.047v.653a2.235 2.235 0 0 1 2.235-2.235h3.172a3.056 3.056 0 0 0 3.056-3.056V2.237A2.235 2.235 0 0 1 109.479 0h-.652a3.823 3.823 0 0 0-2.7 1.119L99.9 7.346a3.823 3.823 0 0 0-1.118 2.701z" transform="translate(-89.673 -.002)" style="fill:#e4f6ff"/>
        </g>
        <g data-name="Group 29314" transform="translate(0 18.633)">
            <path data-name="Path 27556" d="M0 0h3.627v8.4H0z" transform="rotate(45 -13.308 21.379)" style="fill:#407093"/>
            <path data-name="Path 27557" d="M0 0h1.814v8.4H0z" transform="rotate(45 -13.308 21.379)" style="fill:#365e7d"/>
            <circle data-name="Ellipse 1179" cx="10.751" cy="10.751" r="10.751" transform="translate(7.956)" style="fill:#ffe07d"/>
            <path data-name="Path 27558" d="M98.158 219.844q-.449.038-.907.038a10.751 10.751 0 0 1 0-21.5q.458 0 .907.038a10.751 10.751 0 0 0 0 21.426z" transform="translate(-78.544 -198.38)" style="fill:#ffd064"/>
            <circle data-name="Ellipse 1180" cx="7.6" cy="7.6" r="7.6" transform="translate(11.106 3.151)" style="fill:#d3effb"/>
            <path data-name="Path 27559" d="M129.159 246.971a7.6 7.6 0 1 1 0-14.9 7.6 7.6 0 0 0 0 14.9z" transform="translate(-108.938 -228.771)" style="fill:#b1e4f9"/>
            <path data-name="Path 27560" d="m4.4 407.4-2.1-2.1a1.678 1.678 0 0 1 0-2.373l5.334-5.334a1.678 1.678 0 0 1 2.373 0l2.1 2.1a1.678 1.678 0 0 1 0 2.373L6.769 407.4a1.678 1.678 0 0 1-2.369 0z" transform="translate(-1.802 -378.435)" style="fill:#a77d73"/>
            <path data-name="Path 27561" d="M3.832 406.834 2.293 405.3a1.678 1.678 0 0 1 0-2.373l5.334-5.334a1.678 1.678 0 0 1 2.373 0l1.539 1.539a1.678 1.678 0 0 0-2.373 0l-5.334 5.334a1.677 1.677 0 0 0 0 2.368z" transform="translate(-1.801 -378.432)" style="fill:#98695e"/>
        </g>
        <g data-name="Group 29315">
            <path data-name="Path 27562" d="m135.084 111.426-.008-.02a.832.832 0 0 0-.772-.517.832.832 0 0 0-.772.519l-.006.016-1.812 4.758a.726.726 0 0 0 1.356.517l.273-.718h1.91l.27.715a.726.726 0 1 0 1.358-.513zm-1.189 3.1.406-1.067.4 1.067z" transform="translate(-119.467 -100.473)" style="fill:#dd636e"/>
            <path data-name="Path 27563" d="M315.976 110.889a.726.726 0 0 0-.726.726v4.826a.726.726 0 0 0 1.451 0v-4.826a.726.726 0 0 0-.725-.726z" transform="translate(-285.808 -100.473)" style="fill:#dd636e"/>
            <path data-name="Path 27564" d="M257.652 110.889h-1.367a.726.726 0 0 0-.726.727v2.406c0 .671.006 2.421.006 2.421a.726.726 0 0 0 .726.723c.041 0 1.017 0 1.407-.011a2.842 2.842 0 0 0 2.622-3.128c.006-1.877-1.069-3.138-2.668-3.138zm.027 4.815c-.154 0-.41 0-.661.007v-3.371h.64c1.135 0 1.223 1.291 1.223 1.687-.006.825-.381 1.663-1.202 1.673z" transform="translate(-231.724 -100.473)" style="fill:#dd636e"/>
            <path data-name="Path 27565" d="M198.234 110.889a.726.726 0 0 0-.726.726v3.317c0 .208-.061.452-.51.678a1.016 1.016 0 0 1-.468.1.9.9 0 0 1-.5-.14c-.351-.225-.422-.411-.422-.639v-3.321a.726.726 0 0 0-1.451 0v3.321a2.131 2.131 0 0 0 1.092 1.862 2.343 2.343 0 0 0 1.279.369 2.467 2.467 0 0 0 1.121-.26 2.169 2.169 0 0 0 1.309-1.974v-3.317a.726.726 0 0 0-.724-.722z" transform="translate(-176.087 -100.473)" style="fill:#dd636e"/>
            <path data-name="Path 27566" d="M345.877 110.889h-2.665a.726.726 0 1 0 0 1.451h.6v4.1a.726.726 0 0 0 1.451 0v-4.1h.612a.726.726 0 0 0 0-1.451z" transform="translate(-310.486 -100.473)" style="fill:#dd636e"/>
        </g>
        <g data-name="Group 29316">
            <path data-name="Path 27567" d="M154.458 280a1.538 1.538 0 0 1-1.215-.6l-2.571-3.317a1.538 1.538 0 1 1 2.431-1.884l1.154 1.489 2.253-3.989a1.538 1.538 0 1 1 2.678 1.512l-3.39 6a1.538 1.538 0 0 1-1.227.778q-.057.011-.113.011z" transform="translate(-136.396 -245.478)" style="fill:#b3e59f"/>
        </g>
    </g>
</svg>
