<svg xmlns="http://www.w3.org/2000/svg" width="70" height="70" viewBox="0 0 70 70">
    <g data-name="Group 28972" transform="translate(-964 -3298)">
        <circle data-name="Ellipse 685" cx="35" cy="35" r="35" transform="translate(964 3298)" style="fill:#f2f4f7"/>
        <g transform="translate(979 3313)">
            <g data-name="Group 28981">
                <path data-name="Path 26136" d="M382.392 364.2a.684.684 0 0 1-.486-.2l-1.816-1.817a.687.687 0 0 1 .971-.971l1.816 1.817a.687.687 0 0 1-.485 1.171z" transform="translate(-347.286 -330.028)" style="fill:#fada86"/>
                <path data-name="Path 26137" d="M294.353 426.7a.687.687 0 0 1-.67-.539l-.56-2.541a.687.687 0 1 1 1.341-.3l.56 2.541a.687.687 0 0 1-.671.839z" transform="translate(-267.952 -386.505)" style="fill:#fada86"/>
                <path data-name="Path 26138" d="M431.24 261.137c-.117 0 .038 0-2.536-.593a.687.687 0 1 1 .308-1.338l2.388.577a.687.687 0 0 1-.161 1.354z" transform="translate(-391.418 -236.943)" style="fill:#fada86"/>
                <path data-name="Path 26139" d="M185.084 436.127a.687.687 0 0 1-.673-.827l.418-1.995a.687.687 0 0 1 1.344.282l-.418 1.995a.687.687 0 0 1-.671.545z" transform="translate(-168.571 -395.619)" style="fill:#fada86"/>
                <path data-name="Path 26140" d="M427.13 162.67a.687.687 0 0 1-.407-1.24l2-1.467a.687.687 0 1 1 .813 1.107l-2 1.467a.685.685 0 0 1-.406.133z" transform="translate(-389.844 -146.113)" style="fill:#fada86"/>
                <path data-name="Path 26141" d="M119.665 368.9c-.174 0 .6.015-2.116-.052a.687.687 0 0 1 .034-1.373l2.1.052a.687.687 0 0 1-.017 1.373z" transform="translate(-106.849 -335.942)" style="fill:#fada86"/>
                <path data-name="Path 26142" d="M383.626 121.837a.687.687 0 0 1-.684-.758l.275-2.635a.687.687 0 0 1 1.366.142l-.275 2.635a.687.687 0 0 1-.682.616z" transform="translate(-350.074 -107.717)" style="fill:#fada86"/>
                <path data-name="Path 26143" d="M164.31 304.862a.683.683 0 0 1-.486-.2c-.04-.04.057.079-1.186-1.489a.687.687 0 0 1 1.076-.853l1.128 1.423a.688.688 0 0 1-.532 1.119z" transform="translate(-148.544 -276.135)" style="fill:#fada86"/>
                <path data-name="Path 26144" d="M315.54 145.51a.685.685 0 0 1-.483-.2l-1.724-1.706a.687.687 0 0 1 .966-.976l1.724 1.706a.687.687 0 0 1-.483 1.176z" transform="translate(-286.255 -130.208)" style="fill:#fada86"/>
                <path data-name="Path 26145" d="M271.569 267.971a.685.685 0 0 1-.509-.226l-1.564-1.728a.687.687 0 0 1 1.018-.921l1.564 1.728a.688.688 0 0 1-.509 1.147z" transform="translate(-246.205 -242.138)" style="fill:#fada86"/>
            </g>
            <path data-name="Path 26146" d="M164.165 160.929c-.071 5.537-3.532 9.972-9.083 9.276-6.762-.845-8 9.371-1.276 10.194 11.6 1.452 20.478-7.549 20.632-19.338.088-6.793-10.187-6.933-10.273-.132z" transform="translate(-136.525 -142.517)" style="fill:#ffe773"/>
            <path data-name="Path 26147" d="M173.9 158.6a5.007 5.007 0 0 0-6.321 4.906c-.071 5.537-3.532 9.972-9.083 9.276-4.706-.588-6.818 4.253-5.213 7.535-6.171-1.276-4.791-10.93 1.78-10.11 5.548.7 9.013-3.735 9.083-9.276.079-5.865 7.725-6.552 9.754-2.331z" transform="translate(-136.51 -142.519)" style="fill:#fff0a6"/>
            <circle data-name="Ellipse 1145" cx="2.06" cy="2.06" r="2.06" transform="translate(30.684 16.803)" style="fill:#fada86"/>
            <path data-name="Path 26148" d="M343.095 273.9a.687.687 0 1 1-.686.687.687.687 0 0 1 .686-.687z" transform="translate(-313.022 -250.393)" style="fill:#fada86"/>
            <path data-name="Path 26149" d="M362.715 311.06a.687.687 0 1 1-.686.687.687.687 0 0 1 .686-.687z" transform="translate(-330.959 -284.364)" style="fill:#fada86"/>
            <path data-name="Path 26150" d="M268.49 338.009a.687.687 0 0 1 .406-.882 12.24 12.24 0 0 0 4.414-2.828.687.687 0 1 1 .968.974 13.605 13.605 0 0 1-4.906 3.142.687.687 0 0 1-.882-.406z" transform="translate(-245.408 -305.427)" style="fill:#fada86"/>
            <circle data-name="Ellipse 1146" cx="2.06" cy="2.06" r="2.06" transform="translate(16.467 30.861)" style="fill:#fada86"/>
            <circle data-name="Ellipse 1147" cx="2.06" cy="2.06" r="2.06" transform="translate(27.327 2.915)" style="fill:#ffe773"/>
            <path data-name="Path 26151" d="m21.132 7.161-3.614.639a7.251 7.251 0 0 0-3.077-2.82l.322-3.655a1.2 1.2 0 0 0-2.331-.513L11.18 4.261A7.251 7.251 0 0 0 7.2 5.518l-3-2.108a1.2 1.2 0 0 0-1.618 1.762L4.944 7.98a7.289 7.289 0 0 0-.9 4.076L.716 13.6a1.2 1.2 0 0 0 .719 2.279l3.615-.642a7.255 7.255 0 0 0 3.076 2.818l-.326 3.66a1.2 1.2 0 0 0 2.332.517l1.251-3.45a7.251 7.251 0 0 0 3.979-1.257l3.006 2.108a1.2 1.2 0 0 0 1.613-1.762l-2.362-2.808a7.287 7.287 0 0 0 .9-4.074l3.326-1.549a1.2 1.2 0 0 0-.713-2.279z" style="fill:#ff6d7a"/>
            <path data-name="Path 26152" d="M16.523 6.5A8.121 8.121 0 0 0 7 17.386a7.265 7.265 0 0 1-1.95-2.145l-3.615.642A1.2 1.2 0 0 1 .716 13.6l3.326-1.548a7.289 7.289 0 0 1 .9-4.076l-2.36-2.804A1.2 1.2 0 0 1 4.2 3.41l3 2.108a7.251 7.251 0 0 1 3.98-1.257L12.431.812a1.2 1.2 0 0 1 2.332.516l-.322 3.655A7.193 7.193 0 0 1 16.523 6.5z" style="fill:#ff8c95"/>
            <path data-name="Path 26153" d="M106.656 168.37a.687.687 0 1 1-.687.687.687.687 0 0 1 .687-.687z" transform="translate(-96.874 -153.92)" style="fill:#e84857"/>
            <path data-name="Path 26154" d="M155.435 144.37a.687.687 0 1 1-.686.687.686.686 0 0 1 .686-.687z" transform="translate(-141.468 -131.98)" style="fill:#e84857"/>
            <circle data-name="Ellipse 1148" cx="2.06" cy="2.06" r="2.06" transform="translate(7.722 7.558)" style="fill:#e84857"/>
            <path data-name="Path 26155" d="M34.845 350.065a.687.687 0 0 1-.686-.671 1.223 1.223 0 0 0-1.964-.984.687.687 0 1 1-.762-1.143 2.6 2.6 0 0 1 4.1 2.1.687.687 0 0 1-.688.698z" transform="translate(-28.456 -317.034)" style="fill:#befa91"/>
            <path data-name="Path 26156" d="M46.08 279.2a.687.687 0 1 1 1.232.607.816.816 0 0 0 .866 1.193.687.687 0 0 1 .148 1.365 2.188 2.188 0 0 1-2.246-3.165z" transform="translate(-41.905 -254.889)" style="fill:#ff6d7a"/>
        </g>
    </g>
</svg>
