<svg width="18" height="18" viewBox="0 0 18 18" fill="none" xmlns="http://www.w3.org/2000/svg">
<g clip-path="url(#clip0_4578_1695)">
<path d="M8.97052 13.0703C8.73519 13.0721 8.51054 13.1506 8.34549 13.2886C8.18045 13.4266 8.08863 13.6128 8.09036 13.8064V17.2545C8.10008 17.4413 8.19709 17.6178 8.36127 17.7472C8.52544 17.8766 8.74395 17.9489 8.97131 17.9489C9.19868 17.9489 9.41758 17.8766 9.58175 17.7472C9.74593 17.6178 9.84294 17.4413 9.85266 17.2545V13.8064C9.85352 13.7105 9.83146 13.6153 9.7876 13.5264C9.74374 13.4375 9.67902 13.3565 9.59713 13.2881C9.51524 13.2198 9.41751 13.1653 9.31005 13.128C9.20259 13.0906 9.08719 13.071 8.97052 13.0703Z" fill="#191A4E"/>
<path d="M12.8196 11.5225C12.5843 11.5242 12.3597 11.6027 12.1946 11.7407C12.0296 11.8787 11.9378 12.0649 11.9395 12.2585V17.2545C11.9395 17.4467 12.0321 17.6311 12.1974 17.767C12.3626 17.9029 12.5868 17.9793 12.8204 17.9793C13.0541 17.9793 13.2783 17.9029 13.4435 17.767C13.6087 17.6311 13.7018 17.4467 13.7018 17.2545V12.2612C13.7031 12.165 13.6812 12.0696 13.6375 11.9803C13.5938 11.8911 13.529 11.8098 13.447 11.7412C13.3651 11.6725 13.2676 11.6179 13.16 11.5804C13.0523 11.5428 12.9366 11.5232 12.8196 11.5225Z" fill="#191A4E"/>
<path d="M16.9388 9.12695C16.7035 9.12871 16.4784 9.20718 16.3134 9.34519C16.1483 9.4832 16.0569 9.66941 16.0586 9.863V17.2533C16.0586 17.4455 16.1513 17.6299 16.3165 17.7658C16.4818 17.9018 16.7059 17.9781 16.9396 17.9781C17.1733 17.9781 17.3974 17.9018 17.5626 17.7658C17.7279 17.6299 17.8205 17.4455 17.8205 17.2533V9.863C17.8214 9.76703 17.7993 9.6719 17.7555 9.58297C17.7116 9.49403 17.6469 9.41306 17.565 9.3447C17.4831 9.27635 17.3858 9.2219 17.2783 9.18453C17.1709 9.14716 17.0554 9.12765 16.9388 9.12695Z" fill="#191A4E"/>
<path d="M17.5121 0.0783697C17.3661 0.0171814 17.2021 -0.00879003 17.0389 0.00343523C16.8757 0.0156605 16.7203 0.0655868 16.5902 0.147465L12.5616 2.67196C12.3741 2.79073 12.2508 2.96523 12.2179 3.15798C12.185 3.35073 12.2451 3.54638 12.3855 3.70304C12.454 3.78024 12.5406 3.84543 12.6401 3.89475C12.7395 3.94408 12.8498 3.97655 12.9648 3.99029C13.0797 4.00403 13.197 3.9988 13.3095 3.9748C13.4219 3.9508 13.5273 3.90854 13.6196 3.85056L16.1812 2.24547C15.6967 8.33759 12.1433 9.73539 7.25731 10.9791C7.0322 11.0381 6.84436 11.1677 6.73461 11.3398C6.62486 11.5119 6.60198 11.7127 6.67092 11.8985C6.72445 12.0486 6.83549 12.1805 6.98738 12.2746C7.13928 12.3687 7.32389 12.4199 7.51402 12.4207C7.60109 12.4208 7.68776 12.41 7.77094 12.3889C13.3677 10.9618 17.9999 9.10029 17.9999 0.736073C18.002 0.599258 17.9581 0.464618 17.8726 0.34729C17.787 0.229963 17.6634 0.134575 17.5157 0.0717196L17.5121 0.0783697Z" fill="#191A4E"/>
<path d="M2.38873 8.90382H5.13452C5.37206 8.90382 5.59987 8.82619 5.76783 8.68802C5.9358 8.54985 6.03027 8.36245 6.03027 8.16705C6.03027 7.97164 5.9358 7.78424 5.76783 7.64607C5.59987 7.5079 5.37206 7.43027 5.13452 7.43027H4.4044V5.81456C4.39467 5.6277 4.29766 5.45112 4.13349 5.32173C3.96931 5.19233 3.75081 5.12012 3.52344 5.12012C3.29608 5.12012 3.07737 5.19233 2.9132 5.32173C2.74903 5.45112 2.65202 5.6277 2.64229 5.81456V7.42759H2.38873C1.03356 7.42759 0.0126282 8.06011 0.0126282 8.88922V10.8145C0.0126282 11.6502 1.03356 12.276 2.38873 12.276H3.64056C3.8535 12.2702 4.06475 12.3091 4.25435 12.389V13.9064C4.06483 13.9865 3.85352 14.0254 3.64056 14.0193H0.894571C0.657033 14.0193 0.429225 14.0969 0.26126 14.2351C0.093295 14.3733 -0.000976563 14.5607 -0.000976562 14.7561C-0.000976563 14.9515 0.093295 15.1389 0.26126 15.2771C0.429225 15.4152 0.657033 15.4929 0.894571 15.4929H2.64229V17.2653C2.64229 17.4576 2.73515 17.6419 2.90038 17.7779C3.06562 17.9138 3.28976 17.9902 3.52344 17.9902C3.75713 17.9902 3.98126 17.9138 4.1465 17.7779C4.31174 17.6419 4.4044 17.4576 4.4044 17.2653V15.4504C4.4044 15.4411 4.4044 15.4318 4.4044 15.4225C4.82706 15.3771 5.21814 15.2138 5.5121 14.9599C5.80607 14.706 5.98513 14.3768 6.01962 14.0273V12.2708C6.01962 11.435 4.99888 10.8091 3.64372 10.8091H2.39188C2.17892 10.8152 1.96762 10.7764 1.77809 10.6962V9.01014C1.96746 8.93293 2.17757 8.89634 2.38873 8.90382Z" fill="#191A4E"/>
</g>
<defs>
<clipPath id="clip0_4578_1695">
<rect width="18" height="18" fill="white"/>
</clipPath>
</defs>
</svg>
