<svg xmlns="http://www.w3.org/2000/svg" width="263.494" height="165.631" viewBox="0 0 263.494 165.631">
    <g data-name="Group 25953">
        <g data-name="#de3a55ff">
            <path data-name="Path 5196" d="M792.883 927.6c5.575-3.459 13.583-1.433 17.489 3.721a14.388 14.388 0 0 1 1.459 15.514c-.478.8-.854 1.886-1.867 2.128a2.2 2.2 0 0 0-1.784 1.784c-.146.854-1.045 1.172-1.733 1.465-2.931 1.019-6.033 1.975-9.155 1.332A13.713 13.713 0 0 1 785.85 941.9c-.134-1.618-.172-3.237-.44-4.823.051-.032.147-.089.2-.115l.573-.331c.911-1.822 1.484-3.88 2.95-5.365 1.23-1.249 2.606-2.345 3.753-3.67m1.281 4.4c-2.587 1.733-3.16 5.345-2.778 8.231.624 6.027 8.219 10.793 13.634 7.569 5.237-2.1 8.015-8.729 5.237-13.781-2.86-5.981-11.802-6.975-16.096-2.015z" transform="translate(-606.881 -871.344)" style="fill:#de3a55"/>
            <path data-name="Path 5197" d="M780.24 1023.94c.478 2.026.949 4.065 1.5 6.078 1.848.261 4.128-.159 5.454 1.465 2.835 3.154 6.8 5.237 9.053 8.894.8 1.166-.51 2.262-1.376 2.9a5.042 5.042 0 0 1-6.428-.3c-2.695-1.943-3.211-5.543-5.67-7.664-.688-1.86-1.23-3.772-1.739-5.683a25.679 25.679 0 0 1-.794-5.69z" transform="translate(-605.005 -906.928)" style="fill:#de3a55"/>
        </g>
        <g data-name="#af2954ff">
            <path data-name="Path 5251" d="M789.091 848.295c1.676-3.638 4.237-7.664 8.652-8.015a6.194 6.194 0 0 1 5.683 5.014c1.3 5.275.178 10.837-1.605 15.87-1.23 3.663-3.848 6.607-5.384 10.124a77.888 77.888 0 0 0-4.058 11.226l-.166-.4a52.524 52.524 0 0 1 6.843-17.17 31.174 31.174 0 0 0 3.682-12.086c.261-3.224.268-6.8-1.625-9.582-1.446-2.013-4.511-1.911-6.327-.484-2.389 1.892-3.683 4.766-4.676 7.563a58.869 58.869 0 0 0-3.026 17.827 77.588 77.588 0 0 1-.771 15.233 23.167 23.167 0 0 1-1.153 4.16c.07-1.217.178-2.415.331-3.619 1.23-7.8-.586-15.7.548-23.5a48.253 48.253 0 0 1 3.052-12.161z" transform="translate(-606.791 -840.28)" style="fill:#af2954"/>
            <path data-name="Path 5252" d="M694.889 894.968a11.275 11.275 0 0 1 5.18-.962c1.516.395 3.358.662 4.224 2.153 1.332 2.466.93 5.409.65 8.078-1.1 7.32-3.733 14.291-6.339 21.184-1.1 2.689-2.16 5.39-3.434 8 .726-2.542 1.8-4.957 2.72-7.429 2.58-7.282 5.142-14.679 6.091-22.388.1-2.5.663-5.689-1.465-7.524-2.568-1.236-6.715-1.293-7.824 1.9-2.835 9.55.809 19.636-1.778 29.237a11.648 11.648 0 0 1-4.734 7.085 15.055 15.055 0 0 0 3.523-6.486c2.173-8.837-1.134-17.922.7-26.778a10.989 10.989 0 0 1 2.486-6.07z" transform="translate(-571.598 -859.774)" style="fill:#af2954"/>
            <path data-name="Path 5253" d="M748.07 903.233c1.172-2.026 4.269-1.867 5.594-.076 2.032 2.72 1.739 6.371 1.561 9.582-.3 2.8-.739 5.588-1.312 8.353-.045-2.663.408-5.294.542-7.938 0-2.918.3-6.129-1.281-8.716-.682-1.383-3.02-2.064-3.874-.51-1.625 3.288-1.332 7.1-1.548 10.659-.217 3.491-.166 7.008-.694 10.481a60.268 60.268 0 0 1-.828-8.149c-.116-4.582-.473-9.545 1.84-13.686z" transform="translate(-592.63 -862.592)" style="fill:#af2954"/>
            <path data-name="Path 5254" d="M703.241 1055.475c-.707-1.848-1.319-3.9-.42-5.785a15.045 15.045 0 0 0 1.631 5.129 24.53 24.53 0 0 1 2.383 6 8.3 8.3 0 0 1-2.236 6.951c-.822 1.038-2.689 1.338-3.447.083-1.37-1.911-1.7-4.319-2.1-6.575a104.125 104.125 0 0 1-.414-3.657 33.259 33.259 0 0 1-.229-6.562c.2 2.071.414 4.148.8 6.205.682 3.562.879 7.518 3.358 10.4a6.064 6.064 0 0 0 2.631-5.008c-.014-2.524-1.084-4.862-1.957-7.181z" transform="translate(-575.28 -916.272)" style="fill:#af2954"/>
        </g>
        <g data-name="#ee7795ff">
            <path data-name="Path 5255" d="M795.444 843.631c1.816-1.427 4.88-1.529 6.327.484 1.892 2.778 1.886 6.358 1.625 9.582a31.178 31.178 0 0 1-3.682 12.086 52.523 52.523 0 0 0-6.843 17.17l-.051.452-.593.038c-1.351.019-2.7-.1-4.033-.2-.414.331-.822.663-1.223 1.007a77.589 77.589 0 0 0 .771-15.233 58.869 58.869 0 0 1 3.026-17.826c.993-2.791 2.286-5.668 4.676-7.56z" transform="translate(-607.447 -841.114)" style="fill:#ee7795"/>
        </g>
        <g data-name="#af2955ff">
            <path data-name="Path 5262" d="M826.936 883.772c1.733-1.682 4.307-.822 6.1.306 1.873 1.631 3.689 3.861 3.383 6.524-.14 1.688-1.682 2.619-2.842 3.619a16.1 16.1 0 0 0-4.587 6.588c-.121.274-.357.822-.478 1.1-.1.236-.306.707-.408.949l-.1-1.3c1.147-2.886 2.472-5.861 4.887-7.926.892-.937 2.287-1.663 2.447-3.077a6.477 6.477 0 0 0-6.084-6.269c-1.65.083-2.02 1.981-2.287 3.281a63.057 63.057 0 0 1-3.1 12.3 16.69 16.69 0 0 1-2.975 5.008c.6-1.727 1.319-3.4 1.867-5.135.733-2.644 1.281-5.326 1.759-8.021.666-2.652.36-5.876 2.418-7.947z" transform="translate(-619.756 -855.721)" style="fill:#af2955"/>
            <path data-name="Path 5263" d="M861.765 953.629c4.345-1.58 8.741-3.9 13.5-3.46 3.243.344 6.448 3.721 5.205 7.072-1.007 2.491-4.256 2.16-6.339 1.478-3.7-1.287-7.709-.675-11.315.593-3.09.93-5.772 2.759-8.69 4.071a38.963 38.963 0 0 1 8.614-4.772c3.281-1.14 6.843-2.1 10.315-1.236 1.88.338 4.02 1.293 5.8.076 1.249-1.421.249-3.326-.9-4.428-1.363-1.383-3.491-1.44-5.282-1.16-3.676.593-7.136 2.032-10.684 3.109-2.975.72-6.333 2.134-9.245.5 3.156.584 6.141-.748 9.021-1.843z" transform="translate(-631.318 -880.138)" style="fill:#af2955"/>
            <path data-name="Path 5264" d="M809.89 978.35c2.7 1.631 5.983 1.026 8.99 1.211 6.422.185 13.277-.089 19.126 2.994 1.389.822 3.689 2.5 2.357 4.281-2.338 1.153-5.033.408-7.492.166a179.608 179.608 0 0 1-18.457-4.25c8.232 1.1 16.374 4.02 24.758 3.4.414-1.714-1.848-2.408-3.077-2.988-7.25-2.281-15-1.567-22.42-2.873-1.396-.297-3.065-.539-3.785-1.941z" transform="translate(-615.764 -890.384)" style="fill:#af2955"/>
            <path data-name="Path 5265" d="M678.958 999.334a17.141 17.141 0 0 0 4.479-1.134c-1.644 1.574-4 1.937-6.167 2.211-6.849.669-13.73-.35-20.585.14-1.548.229-3.606.408-4.428 1.956-.6 1.529 1.44 1.956 2.472 2.389 7.492 1.924 15.31 1.281 22.974 1.561 2.568.166 5.078-.707 7.652-.446a124.452 124.452 0 0 1-19.177 1.141 50.469 50.469 0 0 1-11.869-1.1c-1.325-.382-2.784-.949-3.421-2.268-.516-1.357.414-2.778 1.5-3.53a14.748 14.748 0 0 1 6.792-1.523c6.602-.321 13.171.992 19.778.603z" transform="translate(-558.011 -897.587)" style="fill:#af2955"/>
            <path data-name="Path 5266" d="M856.335 1006.545a9.208 9.208 0 0 1 6.027-.771 8.4 8.4 0 0 1 4.122 3.874c2.255 4.638 1.109 10.27-1.376 14.59-1.829 2.943-5.689 3.288-8.824 3.186-7.747-.363-15.208-2.778-22.5-5.237-3.593-1.242-7.117-2.67-10.665-4.027a60.079 60.079 0 0 1-3.186-1.421 31.211 31.211 0 0 1 4.173 1.344 163.4 163.4 0 0 0 21.968 6.868 43.182 43.182 0 0 0 12.806 1.274c2.039-.2 4.326-.988 5.307-2.937 1.956-3.651 2.791-8.161 1.287-12.118-.873-2.128-2.867-4.128-5.326-3.937-2.472.306-4.638 1.669-6.976 2.421a70.088 70.088 0 0 1-20.834 3.683c-2.217-.248-4.587-.567-6.256-2.185a15.758 15.758 0 0 0 8.754 1.1 74.645 74.645 0 0 0 21.499-5.707z" transform="translate(-619.408 -900.262)" style="fill:#af2955"/>
        </g>
        <g data-name="#ed6b83ff">
            <path data-name="Path 5267" d="M828.656 888.391c.268-1.3.637-3.2 2.287-3.281a6.477 6.477 0 0 1 6.084 6.269c-.159 1.414-1.555 2.141-2.447 3.077-2.415 2.064-3.74 5.04-4.887 7.926-1.37-.612-2.759-1.141-4.135-1.688a63.057 63.057 0 0 0 3.098-12.303z" transform="translate(-621.451 -856.548)" style="fill:#ed6b83"/>
        </g>
        <g data-name="#b2476dff">
            <path data-name="Path 5268" d="M873.092 893.772c3.51-2.759 7.722-5.4 12.4-4.836a8.091 8.091 0 0 1 6.779 9.041 7.812 7.812 0 0 1-7.384 6.607c-5.269.37-9.952 3.077-14.329 5.817a122.628 122.628 0 0 0-14.66 11.551c-1.9 1.625-3.651 3.4-5.492 5.091a37.925 37.925 0 0 1 5.371-5.613c7.059-6.422 14.38-12.965 23.286-16.686 3.071-1.542 6.964-.605 9.7-2.892 2.612-2.09 2.8-6.155.962-8.792a6.9 6.9 0 0 0-6.683-2.485c-4.511.771-8.117 3.886-11.43 6.836-6.772 5.932-12.424 13.016-19.222 18.91-1.835 1.555-3.867 3.237-6.422 3.147a14.421 14.421 0 0 0 5.982-3.95c7.157-7.137 13.184-15.433 21.142-21.746z" transform="translate(-628.857 -857.909)" style="fill:#b2476d"/>
        </g>
        <g data-name="#f4aabbff">
            <path data-name="Path 5270" d="M875.272 898.312c3.313-2.95 6.919-6.065 11.43-6.836a6.9 6.9 0 0 1 6.683 2.485c1.841 2.638 1.65 6.7-.962 8.792-2.74 2.287-6.632 1.351-9.7 2.892-8.907 3.721-16.227 10.264-23.286 16.686a81.38 81.38 0 0 0-3.383-5.11c6.794-5.893 12.446-12.977 19.218-18.909z" transform="translate(-632.515 -858.811)" style="fill:#f4aabb"/>
            <path data-name="Path 5271" d="M697.388 898.721c1.109-3.192 5.256-3.135 7.824-1.9 2.128 1.835 1.561 5.027 1.465 7.524-.949 7.709-3.51 15.106-6.091 22.388-1.656.42-3.319.835-4.976 1.223 2.59-9.599-1.058-19.684 1.778-29.235z" transform="translate(-574.294 -860.513)" style="fill:#f4aabb"/>
            <path data-name="Path 5272" d="M855.545 1010.594c2.338-.752 4.5-2.115 6.976-2.421 2.459-.191 4.453 1.809 5.326 3.937 1.5 3.957.669 8.467-1.287 12.118-.981 1.95-3.268 2.74-5.307 2.937a43.184 43.184 0 0 1-12.806-1.274 163.378 163.378 0 0 1-21.968-6.868c2.752-1.561 5.81-2.65 8.232-4.746a70.087 70.087 0 0 0 20.834-3.683z" transform="translate(-621.784 -901.201)" style="fill:#f4aabb"/>
            <path data-name="Path 5273" d="M639.379 1069.69c2.389.593 4.785 1.172 7.155 1.86-3.02 4.753-5.479 9.92-9.251 14.15-1.2 1.134-2.963 2.733-4.683 1.637-1.765-.86-1.809-3.122-1.23-4.734 1.581-4.885 4.862-8.957 8.009-12.913z" transform="translate(-550.861 -923.529)" style="fill:#f4aabb"/>
        </g>
        <g data-name="#ef708bff">
            <path data-name="Path 5274" d="M750.218 904.653c.854-1.555 3.192-.873 3.874.51 1.58 2.587 1.281 5.8 1.281 8.716a32.164 32.164 0 0 0-6.25 2.612c-.115-.293-.338-.886-.452-1.179.216-3.562-.077-7.372 1.547-10.659z" transform="translate(-593.549 -863.316)" style="fill:#ef708b"/>
        </g>
        <g data-name="#ee7699ff">
            <path data-name="Path 5276" d="M698.951 907.25c.4-.344.809-.675 1.223-1.007 1.338.1 2.682.217 4.033.2a67.018 67.018 0 0 0-1.828 9.761 29.992 29.992 0 0 0 2.421-9.8l.051-.452.166.4c3.593.28 7.231-.172 10.818.427 2.217.319 4.409.835 6.594 1.357-.548 1.733-1.268 3.409-1.867 5.135a16.689 16.689 0 0 0 2.975-5.008c1.376.548 2.765 1.077 4.135 1.688l.1 1.3c.1-.242.306-.714.408-.949a39.52 39.52 0 0 1 14.341 11.423 14.421 14.421 0 0 1-5.982 3.95c2.555.089 4.587-1.593 6.422-3.147a81.38 81.38 0 0 1 3.383 5.11 37.925 37.925 0 0 0-5.371 5.613c1.841-1.688 3.593-3.466 5.492-5.091a53.757 53.757 0 0 1 3.409 9.448c-2.88 1.1-5.868 2.427-9.015 1.848 2.912 1.631 6.269.217 9.245-.5.248 1.2.491 2.415.745 3.638a38.958 38.958 0 0 0-8.614 4.772c2.918-1.312 5.6-3.141 8.69-4.071.669 6.167.019 12.6-2.822 18.19-2.9 6.04-7.875 10.761-13.252 14.622A15.757 15.757 0 0 1 726.1 975c1.669 1.618 4.039 1.937 6.256 2.185-2.421 2.1-5.479 3.186-8.232 4.746a31.2 31.2 0 0 0-4.173-1.344c1.045.5 2.1.981 3.186 1.421a66.283 66.283 0 0 1-21.566 5.141c-1.287-1.07-1.516-2.74-1.784-4.275-.745 1.427-.319 2.975.127 4.434-1.255-.045-2.5-.076-3.746-.108-.554-2.013-1.026-4.052-1.5-6.078a25.681 25.681 0 0 0 .8 5.689c-9.735-.013-18.986 3.491-27.925 6.97a25.981 25.981 0 0 1-3.587-7.059c-.363 2.644.981 4.982 2.166 7.225a30 30 0 0 1-3.307 1.771c-.319-.172-.956-.522-1.268-.694-1.211-.752-.968 1.166-1.357 1.816-3.918 1.822-7.83 3.67-11.583 5.817a15.047 15.047 0 0 1-1.631-5.129c-.9 1.886-.287 3.937.42 5.785q-2.007.908-4.033 1.79c-.389-2.058-.6-4.135-.8-6.205a33.249 33.249 0 0 0 .229 6.562c-3.045 1.37-6.167 2.555-9.257 3.816-5.371 1.491-10.863 3.052-16.5 2.676 2.338-4.065 4.562-8.5 8.62-11.13-5.224 1.586-7.7 7.1-10.544 11.309-2.37-.688-4.766-1.268-7.155-1.86 3.377-4.23 7.263-8 10.78-12.105-4.415 3.364-8.091 7.639-11.691 11.844l-.019-.006a37.736 37.736 0 0 0-4.237-2.625 51.381 51.381 0 0 1-8.34-8.423 116.635 116.635 0 0 1 10.506-7.091c-4.422.522-7.907 3.7-11.659 5.842q-2.026-2.905-4.071-5.772c3.995-2.1 8.181-3.791 12.328-5.562-4.473.937-8.627 2.95-12.793 4.766a44.636 44.636 0 0 1-5.365-8.474 36.768 36.768 0 0 1-2.915-14.265c-10.665 1.644-21.018 5.524-31.894 5.619-1.6.032-4.434-.191-4.148-2.421.3-2.2 2.587-3.377 4.441-4.16 3.211-1.134 6.594-2.224 10.041-1.867-4.377 2.109-10.506 1.58-13.481 6.154 2.013 1.574 4.7.79 7.021.573 9.378-1.478 18.6-3.848 28.033-5.046.038-.975.076-1.943.121-2.905-3.874.3-7.766.089-11.627.592a7.209 7.209 0 0 1-3.976-.414c5.231-.44 10.493-.65 15.743-.7a36.863 36.863 0 0 1 8.4-19.75c.146-.14.433-.414.58-.548a142.2 142.2 0 0 1 1.752-1.65 44.873 44.873 0 0 1 7.263 3.243c-1.446-2.077-3.765-3.2-5.989-4.218a21.55 21.55 0 0 1 7.416-3.931 53.917 53.917 0 0 0 5.912 4.262 39.829 39.829 0 0 0-4.938-4.562 25.046 25.046 0 0 1 9.257-.65c9.869.873 19.68-1.191 29.122-3.867a15.056 15.056 0 0 1-3.523 6.486 11.647 11.647 0 0 0 4.734-7.085c1.657-.389 3.319-.8 4.976-1.223-.917 2.472-1.994 4.887-2.72 7.429 1.274-2.612 2.338-5.314 3.434-8 9.092-3.224 17.833-7.314 26.593-11.321a60.258 60.258 0 0 0 .828 8.149c.529-3.472.478-6.989.694-10.481.115.293.338.886.452 1.179a32.16 32.16 0 0 1 6.25-2.612c-.134 2.644-.586 5.275-.542 7.938a86.508 86.508 0 0 0 1.312-8.353c5.243-2.44 10.461-5.071 16.106-6.467-.153 1.2-.261 2.4-.331 3.619a23.167 23.167 0 0 0 1.153-4.16m27.568 9.066a15.959 15.959 0 0 0 1.16-4.976c-1.446 1.051-1.306 3.339-1.16 4.976m-21.088 4.052a12.362 12.362 0 0 0-7.276 9.366c-.051.025-.147.083-.2.115a14.385 14.385 0 0 0 9.3 16.393c3.8 1.2 8.372 1.064 11.736-1.261.688-.293 1.586-.612 1.733-1.465.892.484 2.306-.886 1.784-1.784 1.013-.242 1.389-1.332 1.867-2.128a14.388 14.388 0 0 0-1.459-15.514c-3.906-5.154-11.914-7.18-17.489-3.721m-43.477 15.6a8.923 8.923 0 0 0-2.5 4.7 10.656 10.656 0 0 0-1.421 4.944l-.1.134v.038a30.99 30.99 0 0 0-.1 10.487l-.051.172.185.089a28.964 28.964 0 0 0 13.246 19.183 21.477 21.477 0 0 0 14.73 2.529h.006l.115-.07a15.956 15.956 0 0 0 10.487-5.04 2.143 2.143 0 0 0-1.128-3.587c-5.8-1.854-10.672-5.817-14.52-10.442-3.249-3.53-5.377-7.9-8.123-11.755-.191-.312-.58-.93-.771-1.242.924-.745.083-2.905-1.134-2.319-.975-2.676-2.262-5.244-2.822-8.053-.248-1.147-.561-2.905-2.134-2.7-1.676.4-2.733 1.867-3.969 2.937m23.261 8.442c2.268.9 1.6 3.383 1.663 5.3.7.631 1.809 1.077 1.911 2.16.433 1.007.274 2.568 1.574 2.95a35.793 35.793 0 0 0 5.422-2.173 36.37 36.37 0 0 0-5.422 1.816c-1.038-1.408-.694-3.517-2.255-4.536-1.319-.956-.382-2.81-.79-4.148a14.607 14.607 0 0 0-2.1-2.287c.491-.86.994-1.7 1.5-2.542-1.134.822-2.134 1.956-1.5 3.46m28.339 7.671c.72 1.4 2.389 1.644 3.784 1.943 7.422 1.306 15.17.593 22.42 2.873 1.23.58 3.491 1.274 3.077 2.988-8.384.618-16.527-2.3-24.758-3.4a179.611 179.611 0 0 0 18.457 4.25c2.459.242 5.154.988 7.492-.166 1.332-1.784-.968-3.459-2.357-4.281-5.849-3.084-12.7-2.81-19.126-2.994-3.007-.185-6.288.42-8.99-1.211m-73.179 13.781c-6.607.389-13.176-.924-19.782-.605a14.749 14.749 0 0 0-6.792 1.523c-1.083.752-2.013 2.173-1.5 3.53.637 1.319 2.1 1.886 3.421 2.268a50.456 50.456 0 0 0 11.869 1.1 124.468 124.468 0 0 0 19.177-1.14c-2.574-.261-5.084.612-7.652.446-7.664-.28-15.482.363-22.974-1.561-1.032-.433-3.071-.86-2.472-2.389.822-1.548 2.88-1.727 4.428-1.956 6.855-.491 13.736.529 20.585-.14 2.166-.274 4.523-.637 6.167-2.211a17.132 17.132 0 0 1-4.463 1.121z" transform="translate(-519.428 -864.111)" style="fill:#ee7699"/>
        </g>
        <g data-name="#d75a81ff">
            <path data-name="Path 5277" d="m794.178 906.7.593-.038a29.989 29.989 0 0 1-2.421 9.8 67.025 67.025 0 0 1 1.828-9.762z" transform="translate(-609.399 -864.368)" style="fill:#d75a81"/>
        </g>
        <g data-name="#d1547bff">
            <path data-name="Path 5278" d="M830.19 919.386c-.146-1.637-.287-3.925 1.16-4.976a15.961 15.961 0 0 1-1.16 4.976z" transform="translate(-623.1 -867.181)" style="fill:#d1547b"/>
        </g>
        <g data-name="#a3384dff">
            <path data-name="Path 5280" d="M785.72 937.946a12.363 12.363 0 0 1 7.28-9.366c-1.147 1.325-2.523 2.421-3.753 3.67-1.465 1.484-2.039 3.542-2.95 5.365z" transform="translate(-606.994 -872.323)" style="fill:#a3384d"/>
        </g>
        <g data-name="#e7dce0ff">
            <path data-name="Path 5281" d="M797.794 933.682c4.294-4.963 13.233-3.969 16.093 2.02 2.778 5.052 0 11.685-5.237 13.781-3.491 1.064-7.6.535-10.219-2.173-3.855-3.44-3.963-9.78-.637-13.628m9.251 1.4c-1.134 1.172.293 2.51 1.007 3.46 1.421.121 3.262-.274 3.338-2.032.446-2.452-3.345-3.726-4.345-1.427z" transform="translate(-610.51 -873.022)" style="fill:#e7dce0"/>
        </g>
        <g data-name="#525252ff">
            <path data-name="Path 5282" d="M813.429 937c1-2.3 4.791-1.026 4.345 1.427-.076 1.758-1.918 2.153-3.338 2.032-.714-.946-2.136-2.284-1.007-3.459z" transform="translate(-616.895 -874.941)" style="fill:#525252"/>
        </g>
        <g data-name="#b93d65ff">
            <path data-name="Path 5283" d="M600.475 942.171c1.4-2.179 4.23-2.478 6.511-1.695 5.339 1.676 9.78 5.256 14.176 8.582a39.829 39.829 0 0 1 4.938 4.562 53.914 53.914 0 0 1-5.912-4.262c-4.5-3.217-9.149-6.734-14.685-7.824-3.9-1.007-5.779 5.027-2.829 7.11 2.963 2.3 6.715 3.147 10.1 4.645 2.224 1.013 4.543 2.141 5.989 4.218a44.865 44.865 0 0 0-7.263-3.243c-3.784-1.4-8.327-2.007-10.984-5.352-1.589-1.982-.927-4.626-.041-6.741z" transform="translate(-539.436 -876.496)" style="fill:#b93d65"/>
        </g>
        <g data-name="#e83d61ff">
            <path data-name="Path 5284" d="M603.627 949.406c-2.95-2.083-1.07-8.117 2.829-7.11 5.536 1.089 10.187 4.606 14.685 7.824a21.549 21.549 0 0 0-7.416 3.931c-3.383-1.497-7.135-2.345-10.098-4.645z" transform="translate(-540.391 -877.26)" style="fill:#e83d61"/>
        </g>
        <g data-name="#9cb6d9ff">
            <path data-name="Path 5285" d="M505.2 944.073a8.5 8.5 0 0 1 2.122-.363c.425 1.166-2.222 1.497-2.122.363z" transform="translate(-505.196 -877.813)" style="fill:#9cb6d9"/>
        </g>
        <g data-name="#f0d6a5ff">
            <path data-name="Path 5286" d="M728.9 951.378c1.236-1.07 2.294-2.542 3.969-2.937 1.574-.2 1.886 1.555 2.134 2.7.561 2.81 1.848 5.377 2.822 8.053a7.019 7.019 0 0 0 1.134 2.319c.191.312.58.93.771 1.242 5.014 9.518 12 19.177 22.649 22.719a1.6 1.6 0 0 1 .873 2.561 10.8 10.8 0 0 1-4.657 3.428c-9.869-4.046-16.508-12.978-21.706-21.91a128.044 128.044 0 0 1-7.308-15.049 8.318 8.318 0 0 1-.681-3.126z" transform="translate(-586.374 -879.523)" style="fill:#f0d6a5"/>
        </g>
        <g data-name="#887d81ff">
            <path data-name="Path 5287" d="M724.023 957.755a8.924 8.924 0 0 1 2.5-4.7 8.318 8.318 0 0 0 .682 3.128 128.04 128.04 0 0 0 7.308 15.049c5.2 8.932 11.838 17.865 21.706 21.91-1.822.822-3.925.956-5.581 2.115l-.115.07h-.006c-3.256-.427-6.613-.019-9.767-1.1-9.213-2.619-15.59-11.347-17.731-20.375-.121-.057-.357-.178-.478-.236l-.185-.089.051-.172a35.494 35.494 0 0 0 .1-10.487v-.038l.1-.134c1.301-1.315 1.365-3.208 1.416-4.941z" transform="translate(-584.001 -881.206)" style="fill:#887d81"/>
        </g>
        <g data-name="#e43657ff">
            <path data-name="Path 5288" d="M867.26 955.892c3.549-1.077 7.008-2.517 10.684-3.109 1.79-.28 3.918-.223 5.282 1.16 1.147 1.1 2.147 3.007.9 4.428-1.784 1.217-3.925.261-5.8-.077-3.472-.86-7.034.1-10.315 1.236-.26-1.223-.502-2.43-.751-3.638z" transform="translate(-636.583 -881.057)" style="fill:#e43657"/>
        </g>
        <g data-name="#7b5c66ff">
            <path data-name="Path 5289" d="M722.74 965.374a10.657 10.657 0 0 1 1.421-4.944c-.051 1.733-.115 3.625-1.421 4.944z" transform="translate(-584.139 -883.881)" style="fill:#7b5c66"/>
        </g>
        <g data-name="#b0425aff">
            <path data-name="Path 5290" d="M821.15 963.894a2.2 2.2 0 0 1 1.784-1.784c.522.898-.892 2.268-1.784 1.784z" transform="translate(-619.851 -884.491)" style="fill:#b0425a"/>
        </g>
        <g data-name="#c28e85ff">
            <path data-name="Path 5291" d="M742.91 965.273c1.217-.586 2.058 1.574 1.134 2.319a7.019 7.019 0 0 1-1.134-2.319z" transform="translate(-591.459 -885.602)" style="fill:#c28e85"/>
        </g>
        <g data-name="#69525aff">
            <path data-name="Path 5292" d="M722.308 968.46a35.494 35.494 0 0 1-.1 10.487 30.988 30.988 0 0 1 .1-10.487z" transform="translate(-583.803 -886.795)" style="fill:#69525a"/>
        </g>
        <g data-name="#e83f3cff">
            <path data-name="Path 5293" d="M569.568 998.2c3.861-.5 7.754-.293 11.627-.593a376.05 376.05 0 0 0-.121 2.905c-9.429 1.2-18.655 3.568-28.033 5.046-2.325.217-5.008 1-7.021-.573 2.975-4.574 9.1-4.046 13.481-6.155a13.989 13.989 0 0 0 2.861-.306c2.364-.602 4.81.01 7.206-.324z" transform="translate(-520.01 -897.373)" style="fill:#e83f3c"/>
        </g>
        <g data-name="#b73c64ff">
            <path data-name="Path 5294" d="M786.346 1031.124c-.446-1.459-.873-3.007-.127-4.434.268 1.536.5 3.2 1.784 4.275 3.268 2.861 7.168 5 10 8.359.72 1.319 1.421 3.014.465 4.415a7.491 7.491 0 0 1-5.365 2.873c-2.587.178-4.785-1.58-6.231-3.549a23.172 23.172 0 0 1-3.237-6.753c2.459 2.122 2.975 5.721 5.67 7.664a5.042 5.042 0 0 0 6.428.3c.866-.637 2.173-1.733 1.376-2.9-2.249-3.657-6.218-5.74-9.053-8.894-1.325-1.625-3.606-1.2-5.454-1.465 1.24.033 2.489.065 3.744.109z" transform="translate(-605.861 -907.926)" style="fill:#b73c64"/>
        </g>
        <g data-name="#b53861ff">
            <path data-name="Path 5295" d="M607.442 1036.946c4.167-1.816 8.321-3.829 12.793-4.766-4.148 1.771-8.333 3.459-12.328 5.562-3.74 2.141-8.1 4.058-10.372 7.906-1.268 2.243 1.484 4.294 3.581 3.562 4-1.013 7.41-3.536 10.863-5.7 3.753-2.141 7.238-5.32 11.659-5.842a116.652 116.652 0 0 0-10.506 7.091 53.188 53.188 0 0 1-9.448 5.543c-2.593.784-5.874.93-7.492-1.669a4.566 4.566 0 0 1 .586-4.269c2.622-3.589 6.835-5.424 10.664-7.418z" transform="translate(-538.121 -909.918)" style="fill:#b53861"/>
        </g>
        <g data-name="#b53d64ff">
            <path data-name="Path 5296" d="M729.885 1032.73a25.983 25.983 0 0 0 3.587 7.059c2.447 3.893 5.193 7.62 7.212 11.774 1.14 2.517 2.555 5.2 2.23 8.047-.293 2.37-3.4 2.937-5.122 1.714-2.988-1.924-4.632-5.237-6.295-8.257-1.733-3.434-3.065-7.047-4.453-10.621l-.924.4c.389-.65.147-2.568 1.357-1.816 1.191 5.313 4.014 10.149 6.8 14.781 1.574 2.306 3.9 5.715 7.148 4.511a10.746 10.746 0 0 0-1.083-5.511c-2.491-5.1-5.607-9.863-8.289-14.858-1.186-2.241-2.531-4.579-2.168-7.223z" transform="translate(-585.366 -910.117)" style="fill:#b53d64"/>
        </g>
        <g data-name="#ec6168ff">
            <path data-name="Path 5297" d="M598.267 1048.817c2.274-3.848 6.632-5.766 10.372-7.906q2.045 2.867 4.071 5.772c-3.453 2.16-6.862 4.683-10.863 5.7-2.096.728-4.847-1.324-3.58-3.566z" transform="translate(-538.853 -913.086)" style="fill:#ec6168"/>
        </g>
        <g data-name="#ef788cff">
            <path data-name="Path 5298" d="M732.824 1044.07c2.682 4.995 5.8 9.761 8.289 14.858a10.746 10.746 0 0 1 1.083 5.511c-3.249 1.2-5.575-2.2-7.148-4.511-2.784-4.632-5.607-9.468-6.8-14.781.312.172.949.522 1.268.694a29.992 29.992 0 0 0 3.308-1.771z" transform="translate(-586.138 -914.232)" style="fill:#ef788c"/>
        </g>
        <g data-name="#bb3f67ff">
            <path data-name="Path 5299" d="M637.707 1062.534c3.6-4.2 7.276-8.48 11.691-11.844-3.517 4.1-7.4 7.875-10.78 12.105-3.147 3.957-6.428 8.028-8.009 12.914-.58 1.612-.535 3.874 1.23 4.734 1.72 1.1 3.479-.5 4.683-1.637 3.772-4.23 6.231-9.4 9.251-14.15 2.842-4.211 5.32-9.722 10.544-11.309-4.058 2.631-6.282 7.066-8.62 11.13-3.211 5.416-5.791 11.379-10.366 15.839-1.529 1.536-4.027 2.644-6.078 1.44-2.192-1.083-2.752-3.886-1.988-6.04 1.612-5.04 5.046-9.225 8.423-13.188z" transform="translate(-550.101 -916.635)" style="fill:#bb3f67"/>
        </g>
        <g data-name="#e8355dff">
            <path data-name="Path 5300" d="M699.71 1060.56q2.026-.879 4.033-1.79c.873 2.319 1.943 4.657 1.956 7.187a6.064 6.064 0 0 1-2.631 5.008c-2.479-2.887-2.676-6.843-3.358-10.405z" transform="translate(-575.782 -919.567)" style="fill:#e8355d"/>
        </g>
    </g>
</svg>
