<svg width="53" height="46" viewBox="0 0 53 46" fill="none" xmlns="http://www.w3.org/2000/svg">
<path d="M51.4936 8.17194C51.8733 7.98613 52.119 7.60852 52.131 7.18495L52.2908 1.66855C52.3028 1.29693 52.131 0.94529 51.8333 0.723515C51.5356 0.503739 51.15 0.4438 50.7984 0.559682L45.5657 2.31989C45.1641 2.45575 44.8744 2.79941 44.8084 3.21898C44.7425 3.63655 44.9123 4.05413 45.254 4.30587L46.251 5.04312L46.1331 5.20296C45.3799 6.23391 44.5727 7.25487 43.7355 8.23588C43.5297 8.47563 43.5597 8.83727 43.7995 9.04306C43.9153 9.14096 44.0632 9.18891 44.217 9.17692C44.3689 9.16493 44.5067 9.09301 44.6066 8.97712C45.6316 7.77634 46.6086 6.52162 47.5117 5.24892C47.6915 4.99717 47.6356 4.64153 47.3858 4.45772L45.9533 3.3968L51.148 1.65057L50.9882 7.12701L49.8693 6.29785C49.7434 6.20594 49.5916 6.16798 49.4397 6.19196C49.2879 6.21593 49.15 6.29985 49.0621 6.42372C43.9753 13.5705 37.1662 19.4764 29.3701 23.4984C21.5661 27.5243 12.801 29.6521 4.02191 29.6521H2.11985C1.58239 29.6521 1.14684 29.2165 1.14684 28.6811C1.14684 28.1456 1.58239 27.7081 2.11985 27.7081H4.02191C11.2486 27.7081 18.2814 26.2715 24.9247 23.4404C31.518 20.6333 37.386 16.5974 42.3649 11.4446C42.4708 11.3347 42.5288 11.1909 42.5268 11.037C42.5248 10.8832 42.4608 10.7413 42.3509 10.6334C42.1252 10.4157 41.7615 10.4217 41.5418 10.6494C39.6057 12.6514 37.5059 14.5035 35.3041 16.1518L35.2502 16.1918H29.0125C28.1354 16.1918 27.4221 16.9051 27.4221 17.7802V21.0229L27.3102 21.0788C26.6049 21.4285 25.8977 21.7601 25.2084 22.0678L24.9267 22.1937V20.7891C24.9267 19.912 24.2134 19.1987 23.3363 19.1987H17.1725C16.2974 19.1987 15.5842 19.912 15.5842 20.7891V25.2706L15.4283 25.3045C14.737 25.4604 14.0277 25.6042 13.3245 25.7321L13.0887 25.774V23.2366C13.0887 22.3615 12.3754 21.6482 11.5003 21.6482H5.33657C4.45946 21.6482 3.74619 22.3615 3.74619 23.2366V26.5612H2.11785C0.951034 26.5612 0 27.5103 0 28.6791C0 29.8479 0.949036 30.7969 2.11785 30.7969H3.74619V39.1904H3.13082C1.44254 39.1904 0.0699301 40.563 0.0699301 42.2513V44.3691C0.0699301 44.9905 0.575419 45.496 1.19679 45.496H31.1623C31.478 45.496 31.7337 45.2383 31.7337 44.9206C31.7337 44.6029 31.478 44.3492 31.1623 44.3492H1.21477V42.2513C1.21477 41.1944 2.07389 40.3352 3.13082 40.3352H49.1241C50.181 40.3352 51.0401 41.1944 51.0401 42.2513V44.3492H40.329C40.0133 44.3492 39.7576 44.6049 39.7576 44.9206C39.7576 45.2363 40.0133 45.496 40.329 45.496H51.0601C51.6815 45.496 52.1869 44.9905 52.1869 44.3691V42.2513C52.1869 40.563 50.8123 39.1904 49.1241 39.1904H48.5986V14.3057C48.5986 13.4286 47.8853 12.7153 47.0082 12.7153H45.4118L45.7175 12.3817C47.0721 10.9012 48.3548 9.33476 49.5316 7.72839L49.6495 7.56656L50.3208 8.06405C50.6625 8.3158 51.11 8.35775 51.4916 8.17194H51.4936ZM28.567 17.7862C28.567 17.5424 28.7668 17.3426 29.0125 17.3426H33.6678L33.1223 17.7082C31.7517 18.6273 30.3192 19.4904 28.8627 20.2776L28.569 20.4375V17.7862H28.567ZM16.731 20.7931C16.731 20.5474 16.9308 20.3476 17.1745 20.3476H23.3383C23.582 20.3476 23.7818 20.5474 23.7818 20.7931V22.6792L23.6579 22.7291C21.4862 23.6142 19.2404 24.3575 16.9807 24.9369L16.731 25.0008V20.7911V20.7931ZM4.89502 23.2426C4.89502 22.9989 5.09482 22.7991 5.33857 22.7991H11.5003C11.7461 22.7991 11.9459 22.9989 11.9459 23.2426V25.9678L11.776 25.9938C9.59025 26.3195 7.34254 26.5093 5.09882 26.5553L4.89502 26.5592V23.2426ZM15.5862 39.1964H13.0907V36.3213C13.0907 36.0056 12.835 35.7479 12.5193 35.7479C12.2036 35.7479 11.9459 36.0056 11.9459 36.3213V39.1964H4.89502V30.7949L5.09083 30.7909C7.30857 30.747 9.5383 30.5712 11.7181 30.2695L11.9459 30.2375V33.0267C11.9459 33.3424 12.2036 33.6001 12.5193 33.6001C12.835 33.6001 13.0907 33.3424 13.0907 33.0267V30.0617L13.2585 30.0337C13.9039 29.9278 14.5872 29.8 15.3464 29.6461L15.5862 29.5982V39.1964ZM23.7818 39.1964H16.731V29.3444L16.8848 29.3085C19.1286 28.781 21.3583 28.1137 23.5121 27.3225L23.7798 27.2246V39.1964H23.7818ZM27.4221 39.1964H24.9287V26.781L25.0545 26.7311C25.7258 26.4613 26.4072 26.1716 27.1404 25.844L27.4221 25.7181V39.1944V39.1964ZM39.2581 39.1964H36.7646V33.6401C36.7646 33.3244 36.5069 33.0686 36.1912 33.0686C35.8755 33.0686 35.6198 33.3244 35.6198 33.6401V39.1964H28.567V25.1807L28.6808 25.1267C29.1224 24.9129 29.52 24.7151 29.8936 24.5193C31.7377 23.5683 33.5599 22.4934 35.3101 21.3286L35.6198 21.1208V29.2645C35.6198 29.5802 35.8755 29.8359 36.1912 29.8359C36.5069 29.8359 36.7646 29.5802 36.7646 29.2645V20.3216L36.8485 20.2617C37.5318 19.7741 38.2331 19.2467 38.9344 18.6932L39.2581 18.4395V39.1964ZM47.0102 13.8602C47.256 13.8602 47.4557 14.06 47.4557 14.3057V39.1964H40.4029V17.4965L40.4728 17.4365C41.7955 16.3157 43.0702 15.1329 44.263 13.9201L44.3209 13.8602H47.0082H47.0102Z" fill="#010101"/>
<path d="M35.8361 44.3533C35.7762 44.3334 35.7142 44.3234 35.6523 44.3234C35.5604 44.3234 35.4725 44.3454 35.3886 44.3873C35.2467 44.4592 35.1428 44.5791 35.0928 44.729C35.0429 44.8768 35.0549 45.0367 35.1268 45.1765C35.2267 45.3743 35.4285 45.4982 35.6523 45.4982C35.7442 45.4982 35.8341 45.4762 35.918 45.4342C36.0579 45.3643 36.1618 45.2424 36.2097 45.0946C36.2597 44.9447 36.2477 44.7869 36.1757 44.647C36.1058 44.5072 35.9839 44.4033 35.8361 44.3533Z" fill="#010101"/>
</svg>
