<svg xmlns="http://www.w3.org/2000/svg" width="70" height="70" viewBox="0 0 70 70">
    <g data-name="Group 28974" transform="translate(-334 -4402)">
        <circle data-name="Ellipse 692" cx="35" cy="35" r="35" transform="translate(334 4402)" style="fill:#f2f4f7"/>
        <path data-name="Path 26267" d="M27.885 14v3.885H24v3.885h3.885v3.885h1.942V14z" transform="translate(339.892 4411.417)" style="fill:#dd4e4e"/>
        <path data-name="Path 26268" d="M34.942 17.885V14H33v11.655h1.942V21.77h3.885v-3.885z" transform="translate(336.719 4411.417)" style="fill:#c14242"/>
        <path data-name="Path 26269" d="M30.4 1.991a3.236 3.236 0 0 0-4.662 0C23.618 4.153 19 9.636 19 16.306c0 5.989 3.885 8.651 9.065 8.651s9.065-2.662 9.065-8.651c0-6.67-4.618-12.152-6.734-14.314zm3.5 15.2h-3.893v3.885h-3.885v-3.889h-3.885V13.3h3.885V9.417h3.885V13.3h3.885z" transform="translate(341.655 4416)" style="fill:#d4f3f4"/>
        <path data-name="Path 26270" d="M28.065 30.825c-4.887 0-8.617-2.372-9.024-7.669-.021.318-.041.636-.041.96 0 5.989 3.885 8.651 9.065 8.651s9.065-2.662 9.065-8.651c0-.324-.019-.642-.041-.96-.408 5.296-4.138 7.669-9.024 7.669z" transform="translate(341.655 4408.189)" style="fill:#9ad6d2"/>
        <path data-name="Path 26271" d="M52.237 10.065a2.971 2.971 0 0 0 3.237-3.274 8.524 8.524 0 0 0-2.4-5.416 1.112 1.112 0 0 0-1.665 0A8.527 8.527 0 0 0 49 6.791a2.971 2.971 0 0 0 3.237 3.274z" transform="translate(331.079 4416)" style="fill:#9ad6d2"/>
        <path data-name="Path 26272" d="M7.125 33.748a2 2 0 0 1 .382-.758 2.091 2.091 0 0 1 2.065-.738 2.018 2.018 0 0 1 .822.356l5.678 4.176a7.977 7.977 0 0 1 3.056 6.287V48.9h-8.416v-2.59A4.028 4.028 0 0 0 9.2 43.156l-6.685-5.348A3.975 3.975 0 0 1 1.4 36.4a4.025 4.025 0 0 1-.4-1.745v-9.713a1.942 1.942 0 0 1 3.885 0V31.4a1.331 1.331 0 0 0 .531 1.068l1.023.764z" transform="translate(348 4408.244)" style="fill:#ffcdc0"/>
        <path data-name="Path 26273" d="M18.08 55.122a5.043 5.043 0 0 0 5.043-5.043V49.3a7.926 7.926 0 0 0-1.734-4.968 7.967 7.967 0 0 1 3.029 6.263v5.827H16v-1.3z" transform="translate(342.712 4400.726)" style="fill:#f7b1a4"/>
        <path data-name="Path 26274" d="m10.331 41.164 4.144 3.224a2.342 2.342 0 0 1-2.453-.221l-3.167-2.375A2.136 2.136 0 0 1 8 40.082v-2.327l.906.677.686.518a1.983 1.983 0 0 0-.078.55 2.093 2.093 0 0 0 .816 1.664z" transform="translate(345.532 4403.043)" style="fill:#f7b1a4"/>
        <path data-name="Path 26275" d="M13.24 32.625a1.814 1.814 0 0 1-.091.55l-.615 1.845a2.091 2.091 0 0 0-2.065.738 2 2 0 0 0-.382.758L9.4 36l1.7-5.1a1.717 1.717 0 0 1 1.029.084 1.772 1.772 0 0 1 1.114 1.645z" transform="translate(345.039 4405.476)" style="fill:#ed9e91"/>
        <path data-name="Path 26276" d="M10.432 28.632a1.758 1.758 0 0 1-.091.576l-.091.265-1.7 5.1-1.023-.764A1.331 1.331 0 0 1 7 32.743v-4.921a1.811 1.811 0 0 1 3.432.809z" transform="translate(345.885 4406.899)" style="fill:#f4afa2"/>
        <path data-name="Path 26277" d="m47 33.748.686-.518 1.023-.764a1.331 1.331 0 0 0 .531-1.068v-6.456a1.942 1.942 0 0 1 3.885 0v9.712a4.025 4.025 0 0 1-.4 1.748 3.975 3.975 0 0 1-1.114 1.405l-6.682 5.348a4.028 4.028 0 0 0-1.515 3.153V48.9H35v-5.828a7.977 7.977 0 0 1 3.056-6.287l5.678-4.176a2.018 2.018 0 0 1 .822-.356 2.091 2.091 0 0 1 2.065.738 2 2 0 0 1 .382.758z" transform="translate(336.014 4408.244)" style="fill:#ffcdc0"/>
        <path data-name="Path 26278" d="M41.338 55.122a5.043 5.043 0 0 1-5.043-5.043V49.3a7.926 7.926 0 0 1 1.734-4.968A7.967 7.967 0 0 0 35 50.59v5.827h8.417v-1.295z" transform="translate(336.014 4400.726)" style="fill:#f7b1a4"/>
        <path data-name="Path 26279" d="M50.144 41.164 46 44.388a2.342 2.342 0 0 0 2.453-.221l3.166-2.375a2.136 2.136 0 0 0 .855-1.71v-2.327l-.906.677-.686.518a1.983 1.983 0 0 1 .078.55 2.093 2.093 0 0 1-.816 1.664z" transform="translate(332.136 4403.043)" style="fill:#f7b1a4"/>
        <path data-name="Path 26280" d="M55.132 27.822v4.921a1.331 1.331 0 0 1-.531 1.068l-1.023.764-1.7-5.1-.091-.265a1.758 1.758 0 0 1-.091-.576 1.811 1.811 0 0 1 3.432-.809z" transform="translate(330.127 4406.899)" style="fill:#f4afa2"/>
        <path data-name="Path 26281" d="m50.813 30.9 1.7 5.1-.686.518a2 2 0 0 0-.382-.758 2.091 2.091 0 0 0-2.065-.738l-.615-1.845a1.814 1.814 0 0 1-.091-.55 1.772 1.772 0 0 1 1.114-1.645 1.717 1.717 0 0 1 1.029-.084z" transform="translate(331.195 4405.476)" style="fill:#ed9e91"/>
        <path data-name="Path 26282" d="M10.237 10.065a2.971 2.971 0 0 0 3.237-3.274 8.524 8.524 0 0 0-2.4-5.416 1.112 1.112 0 0 0-1.665 0A8.527 8.527 0 0 0 7 6.791a2.971 2.971 0 0 0 3.237 3.274z" transform="translate(345.885 4416)" style="fill:#9ad6d2"/>
        <path data-name="Path 26283" d="M29.163 7.775a.647.647 0 0 1-.509-1.047c.267-.341.537-.669.807-.98a.648.648 0 0 1 .978.849c-.256.295-.512.606-.766.929a.648.648 0 0 1-.51.248z" transform="translate(338.3 4414.405)" style="fill:#f8ffff"/>
        <path data-name="Path 26284" d="M24.169 14.729a.648.648 0 0 1-.6-.9 22.5 22.5 0 0 1 1.9-3.535.647.647 0 1 1 1.088.706 21.253 21.253 0 0 0-1.79 3.327.645.645 0 0 1-.598.402z" transform="translate(340.061 4412.826)" style="fill:#f8ffff"/>
        <g data-name="Group 29011">
            <path data-name="Path 26285" d="M53.112 10.714A.662.662 0 0 1 53 10.7a1.955 1.955 0 0 1-1.476-1 3.626 3.626 0 0 1 .139-2.814.647.647 0 0 1 1.181.53 2.449 2.449 0 0 0-.175 1.68c.058.109.179.261.556.327a.647.647 0 0 1-.111 1.285z" transform="translate(330.276 4414.057)" style="fill:#7abcb4"/>
            <path data-name="Path 26286" d="M11.112 10.715A.662.662 0 0 1 11 10.7a1.955 1.955 0 0 1-1.476-1 3.624 3.624 0 0 1 .139-2.813.647.647 0 0 1 1.181.53 2.448 2.448 0 0 0-.175 1.68c.058.109.179.261.556.327a.647.647 0 0 1-.111 1.285z" transform="translate(345.082 4414.057)" style="fill:#7abcb4"/>
        </g>
    </g>
</svg>
