<svg width="693" height="497" viewBox="0 0 693 497" fill="none" xmlns="http://www.w3.org/2000/svg">
<path d="M179.842 0.153139C179.957 0.0543362 180.103 0 180.255 0H663V420.369C663 420.661 662.843 420.929 662.589 421.072L612.151 449.391C590.51 461.542 567.513 471.102 543.635 477.874V477.874C499.214 490.472 452.573 493.186 406.99 485.826L159.681 445.894C138.969 442.55 118.662 437.057 99.0888 429.504L89.5045 425.806C80.9405 422.501 72.653 418.521 64.7202 413.902L49.4113 404.988C35.8237 397.077 24.3055 386.057 15.8016 372.832V372.832C5.48518 356.788 0 338.116 0 319.042V306.339C0 293.581 1.71091 280.881 5.087 268.578L10.7921 247.788C15.2979 231.368 21.1811 215.357 28.379 199.926L35.0024 185.727C47.0363 159.928 61.3041 135.232 77.6426 111.92L80.5371 107.79C106.575 70.6386 137.146 36.8795 171.54 7.29436L179.842 0.153139Z" fill="#1AADA3"/>
<g opacity="0.6">
<path d="M450.895 307.393C451.079 304.655 452.432 302.325 453.022 299.7C453.415 297.955 453.679 296.074 454.663 294.56C451.391 293.777 447.718 294.653 445.248 296.959C443.807 291.874 438.269 288.314 433.044 289.112C427.82 289.91 423.598 294.961 423.74 300.245C419.721 297.055 413.52 297.007 409.453 300.134C406.012 302.78 404.33 307.538 405.202 311.775C406.101 316.15 410.98 314.984 414.522 315.094L430.419 315.588C438.584 315.842 446.75 316.095 454.916 316.349C452.269 314.216 450.659 310.903 450.895 307.393Z" fill="white"/>
<path d="M569.616 190.863C592.446 200.058 609.103 222.962 610.815 247.514C611.333 254.935 610.503 262.697 606.728 269.107C602.953 275.516 595.772 280.264 588.364 279.586C582.569 279.055 577.571 275.47 572.891 272.01C554.561 258.461 536.231 244.911 517.901 231.362C513.094 227.808 508.2 224.166 504.775 219.267C501.956 215.236 498.9 207.68 501.497 202.828C503.716 198.681 510.827 195.499 514.853 193.487C525.58 188.127 537.752 185.677 549.718 186.421C556.529 186.845 563.282 188.312 569.616 190.863Z" fill="#1AADA3"/>
<path d="M504.687 366.979H502.646L502.596 360.676C501.67 341.992 493.579 334.185 488.837 331.195C483.119 327.59 481.628 327.267 477.201 326.31C475.966 326.043 474.429 325.71 472.533 325.247C471.686 325.04 470.835 324.843 469.983 324.646C466.391 323.815 462.676 322.955 459.256 321.316C454.286 318.934 450.835 315.121 449.789 310.857C448.704 306.43 450.546 301.846 452.172 297.802C452.408 297.214 452.642 296.632 452.864 296.057C453.4 294.675 453.229 293.045 452.417 291.803C452.203 291.476 451.938 291.16 451.657 290.825C451.253 290.343 450.835 289.844 450.504 289.237C449.656 287.681 449.625 285.73 450.426 284.148C450.828 283.353 451.53 282.611 452.359 282.044C451.804 281.613 451.337 281.069 451.004 280.443C450.001 278.558 450.159 276.667 451.406 275.624C453.445 273.918 455.174 272.339 455.697 270.274C455.877 269.567 455.885 269.012 455.709 268.285C453.742 266.967 451.575 265.463 450.02 263.393C448.112 260.855 447.515 257.742 448.462 255.269C449.403 252.814 451.615 251.267 453.392 250.024C454.857 249 456.376 248.032 457.846 247.096C461.94 244.487 465.807 242.023 468.721 238.364C471.03 235.463 472.291 231.969 473.624 228.27C474.166 226.769 474.726 225.216 475.359 223.72C478.516 216.258 483.599 209.901 488.514 203.753C494.027 196.857 504.363 190.354 507.4 188.525C522.974 179.145 535.61 178.836 549.345 179.385C565.131 180.016 580.33 185.069 592.142 193.613C600.432 199.609 607.463 207.69 612.476 216.984C617.489 226.278 620.38 236.593 620.838 246.813C621.295 257.033 619.336 267.564 615.173 277.269C611.01 286.973 604.728 295.651 597.008 302.362C590.394 308.112 586.405 312.085 580.591 318.714C570.379 330.358 568.064 348.176 574.961 362.043L573.087 362.975C565.821 348.368 568.26 329.6 579.017 317.334C584.902 310.624 588.94 306.602 595.634 300.783C603.119 294.276 609.21 285.86 613.249 276.443C617.289 267.027 619.19 256.813 618.746 246.906C618.303 236.999 615.498 226.996 610.634 217.978C605.769 208.96 598.951 201.121 590.916 195.309C579.433 187.004 564.64 182.091 549.261 181.476C533.028 180.828 522.263 182.017 508.48 190.318C505.519 192.101 495.445 198.435 490.149 205.059C485.322 211.097 480.331 217.339 477.286 224.536C476.675 225.979 476.126 227.504 475.594 228.979C474.261 232.675 472.883 236.497 470.358 239.668C467.227 243.601 463.03 246.275 458.97 248.861C457.52 249.785 456.02 250.74 454.592 251.739C452.697 253.064 451.075 254.301 450.417 256.018C449.59 258.176 450.534 260.593 451.693 262.135C453.121 264.035 455.194 265.422 457.199 266.763C457.402 266.899 457.552 267.102 457.621 267.337C457.996 268.605 458.026 269.605 457.727 270.787C456.994 273.677 454.541 275.73 452.749 277.229C452.233 277.66 452.441 278.687 452.852 279.459C453.299 280.3 454.2 280.907 455.147 281.006C455.674 281.061 456.077 281.501 456.085 282.031C456.093 282.56 455.705 283.013 455.18 283.084C454.09 283.233 452.768 284.152 452.293 285.092C451.807 286.055 451.826 287.288 452.342 288.235C452.573 288.659 452.907 289.058 453.261 289.48C453.569 289.846 453.886 290.226 454.169 290.657C455.343 292.453 455.591 294.812 454.816 296.813C454.591 297.396 454.353 297.986 454.114 298.582C452.532 302.517 450.897 306.586 451.822 310.358C452.718 314.012 455.757 317.318 460.16 319.429C463.372 320.968 466.972 321.801 470.454 322.607C471.315 322.805 472.174 323.005 473.029 323.213C474.898 323.67 476.356 323.986 477.643 324.264C482.213 325.252 483.923 325.622 489.953 329.425C495.433 332.88 499.486 338.381 501.998 345.776C503.498 350.192 504.428 355.318 504.688 360.599C504.689 360.616 504.689 360.634 504.689 360.651L504.687 366.979Z" fill="white"/>
<path d="M498.891 256.366C496.494 256.366 494.098 255.87 491.872 254.879C487.543 252.951 483.875 249.153 481.808 244.459C481.575 243.93 481.815 243.312 482.344 243.079C482.873 242.846 483.491 243.086 483.724 243.615C485.584 247.84 488.864 251.248 492.723 252.966C496.552 254.672 500.958 254.71 504.809 253.072C505.342 252.846 505.956 253.094 506.182 253.626C506.408 254.158 506.161 254.772 505.629 254.998C503.484 255.911 501.187 256.366 498.891 256.366Z" fill="white"/>
<path d="M574.79 385.976C566.564 385.976 559.871 379.283 559.871 371.057C559.871 362.831 566.564 356.138 574.79 356.138C583.016 356.138 589.709 362.831 589.709 371.057C589.709 379.283 583.016 385.976 574.79 385.976ZM574.79 358.232C567.718 358.232 561.964 363.985 561.964 371.057C561.964 378.129 567.718 383.883 574.79 383.883C581.862 383.883 587.616 378.129 587.616 371.057C587.616 363.985 581.862 358.232 574.79 358.232Z" fill="white"/>
<path d="M574.789 380.661C569.494 380.661 565.186 376.352 565.186 371.057C565.186 365.761 569.494 361.453 574.789 361.453C580.085 361.453 584.393 365.761 584.393 371.057C584.393 376.352 580.085 380.661 574.789 380.661ZM574.789 363.546C570.648 363.546 567.279 366.916 567.279 371.057C567.279 375.198 570.648 378.568 574.789 378.568C578.931 378.568 582.3 375.198 582.3 371.057C582.3 366.916 578.931 363.546 574.789 363.546Z" fill="white"/>
<path d="M579.597 375.867C582.254 373.21 582.254 368.903 579.597 366.246C576.941 363.589 572.633 363.589 569.976 366.246C567.32 368.903 567.32 373.21 569.976 375.867C572.633 378.524 576.941 378.524 579.597 375.867Z" fill="white"/>
<path opacity="0.4" d="M529.146 273.842C528.092 284.091 525.406 294.409 519.512 302.859C513.617 311.308 504.142 317.665 493.846 318.017C503.009 327.858 515.458 334.156 528.356 337.956C541.254 341.755 554.705 343.225 568.072 344.678C579.729 345.945 592.142 347.087 602.618 341.82C611.465 337.373 617.698 328.81 621.299 319.587C624.9 310.364 626.157 300.417 627.273 290.579C629.505 270.906 631.248 250.626 625.758 231.603C619.57 210.158 603.962 191.616 583.888 181.859C563.814 172.102 539.591 171.285 518.905 179.667C513.986 181.661 501.765 186.58 500.347 192.484C499.259 197.016 506.641 199.714 509.35 202.21C520.32 212.316 525.783 231.857 528.191 246.044C529.747 255.212 530.097 264.59 529.146 273.842Z" fill="#1AADA3"/>
<path d="M414.565 192.66C412.441 192.694 410.209 192.702 408.343 191.686C405.929 190.372 404.616 187.4 405.06 184.689C405.505 181.978 407.569 179.649 410.136 178.67C412.702 177.691 415.68 178.004 418.106 179.293C417.622 176.088 419.034 172.668 421.639 170.739C424.244 168.81 427.927 168.456 430.851 169.854C433.776 171.251 435.814 174.34 435.949 177.578C438.654 176.462 441.765 176.212 444.526 177.181C447.287 178.151 449.633 180.408 450.43 183.224C451.226 186.04 450.311 189.338 447.999 191.132C445.952 192.721 443.276 192.944 440.777 192.83C438.168 192.712 435.773 192.326 433.115 192.368C426.931 192.465 420.748 192.563 414.565 192.66Z" fill="white"/>
<path d="M467.577 227.786L466.33 227.391C466.489 226.888 466.656 226.382 466.827 225.885L468.064 226.31C467.897 226.797 467.733 227.294 467.577 227.786ZM468.587 224.846L467.359 224.392C467.541 223.902 467.732 223.404 467.928 222.912L469.144 223.395C468.952 223.877 468.765 224.366 468.587 224.846ZM469.735 221.957L468.53 221.445C468.735 220.964 468.949 220.476 469.167 219.994L470.359 220.533C470.145 221.006 469.935 221.485 469.735 221.957ZM471.017 219.124L469.838 218.557C470.067 218.081 470.304 217.603 470.542 217.136L471.707 217.731C471.474 218.188 471.242 218.657 471.017 219.124ZM472.429 216.354L471.278 215.733C471.526 215.272 471.785 214.806 472.046 214.347L473.183 214.994C472.926 215.444 472.673 215.902 472.429 216.354ZM473.967 213.652L472.846 212.978C473.114 212.53 473.394 212.076 473.676 211.629L474.783 212.327C474.506 212.766 474.231 213.212 473.967 213.652ZM475.627 211.022L474.537 210.298C474.829 209.859 475.129 209.418 475.429 208.988L476.502 209.736C476.207 210.158 475.913 210.591 475.627 211.022ZM477.406 208.47L476.35 207.698C476.66 207.274 476.979 206.847 477.3 206.43L478.338 207.226C478.024 207.636 477.71 208.055 477.406 208.47ZM479.298 206.003L478.279 205.183C478.61 204.771 478.948 204.359 479.286 203.959L480.286 204.802C479.956 205.195 479.623 205.599 479.298 206.003ZM481.301 203.623L480.32 202.758C480.667 202.364 481.024 201.968 481.381 201.581L482.343 202.469C481.993 202.848 481.642 203.236 481.301 203.623ZM483.411 201.338L482.47 200.429C482.836 200.05 483.211 199.67 483.584 199.302L484.504 200.233C484.138 200.594 483.77 200.966 483.411 201.338ZM485.622 199.152L484.724 198.2C485.104 197.841 485.497 197.48 485.889 197.126L486.765 198.098C486.38 198.445 485.995 198.799 485.622 199.152ZM487.932 197.071L487.079 196.079C487.482 195.732 487.891 195.389 488.294 195.059L489.123 196.071C488.728 196.394 488.328 196.731 487.932 197.071ZM490.336 195.099L489.531 194.068C489.95 193.741 490.374 193.417 490.792 193.107L491.573 194.157C491.163 194.461 490.747 194.778 490.336 195.099ZM492.83 193.244L492.074 192.176C492.504 191.871 492.943 191.568 493.379 191.275L494.109 192.361C493.682 192.648 493.252 192.945 492.83 193.244Z" fill="white"/>
<path d="M563.689 347.279C563.593 346.754 563.511 346.22 563.444 345.691L564.742 345.528C564.806 346.032 564.885 346.542 564.976 347.043L563.689 347.279ZM563.287 344.094C563.249 343.566 563.225 343.027 563.215 342.491L564.523 342.467C564.533 342.979 564.556 343.496 564.592 344.001L563.287 344.094ZM564.534 340.93L563.226 340.889C563.243 340.361 563.273 339.823 563.316 339.29L564.621 339.395C564.579 339.907 564.55 340.424 564.534 340.93ZM564.781 337.864L563.483 337.698C563.55 337.173 563.631 336.641 563.722 336.116L565.011 336.342C564.923 336.847 564.845 337.359 564.781 337.864ZM565.309 334.829L564.032 334.549C564.145 334.031 564.271 333.508 564.407 332.996L565.672 333.33C565.541 333.825 565.419 334.329 565.309 334.829ZM566.095 331.846L564.845 331.462C565 330.957 565.167 330.447 565.343 329.946L566.578 330.379C566.408 330.864 566.245 331.357 566.095 331.846ZM567.116 328.93L565.899 328.452C566.091 327.964 566.296 327.469 566.51 326.979L567.709 327.502C567.502 327.978 567.302 328.458 567.116 328.93ZM568.353 326.097L567.174 325.53C567.402 325.056 567.642 324.577 567.888 324.107L569.048 324.714C568.808 325.171 568.574 325.637 568.353 326.097ZM569.789 323.355L568.651 322.71C568.91 322.253 569.181 321.791 569.456 321.339L570.574 322.018C570.306 322.459 570.042 322.909 569.789 323.355ZM571.399 320.705L570.301 319.993C570.586 319.553 570.883 319.109 571.183 318.673L572.261 319.415C571.968 319.841 571.678 320.275 571.399 320.705ZM573.158 318.147L572.101 317.378C572.405 316.959 572.724 316.532 573.049 316.107L574.088 316.902C573.769 317.318 573.457 317.737 573.158 318.147ZM575.048 315.678L574.027 314.859C574.358 314.448 574.693 314.04 575.033 313.635L576.035 314.476C575.701 314.873 575.372 315.274 575.048 315.678ZM577.047 313.293L576.061 312.433C576.408 312.035 576.758 311.641 577.112 311.25L578.082 312.128C577.733 312.514 577.388 312.902 577.047 313.293ZM579.138 310.982L578.184 310.087C578.544 309.703 578.907 309.322 579.273 308.943L580.214 309.852C579.852 310.226 579.494 310.602 579.138 310.982ZM581.306 308.736L580.378 307.814C580.748 307.441 581.122 307.07 581.497 306.702L582.414 307.635C582.042 308 581.673 308.367 581.306 308.736ZM583.534 306.546L582.628 305.603L582.904 305.338C583.192 305.063 583.481 304.789 583.77 304.516L584.667 305.469C584.38 305.739 584.094 306.011 583.809 306.284L583.534 306.546ZM585.81 304.399L584.92 303.44C585.305 303.083 585.69 302.728 586.077 302.373L586.962 303.338C586.576 303.69 586.193 304.044 585.81 304.399ZM588.119 302.282L587.24 301.313C587.628 300.961 588.017 300.61 588.406 300.259L589.282 301.23C588.894 301.58 588.506 301.931 588.119 302.282ZM590.448 300.18L589.573 299.207L590.742 298.158L591.616 299.131L590.448 300.18ZM592.784 298.081L591.908 297.109C592.296 296.759 592.685 296.409 593.072 296.058L593.95 297.027C593.562 297.379 593.173 297.73 592.784 298.081ZM595.114 295.969L594.232 295.003C594.617 294.651 595.001 294.298 595.385 293.944L596.273 294.905C595.888 295.261 595.501 295.615 595.114 295.969ZM597.425 293.831L596.53 292.877C596.91 292.52 597.289 292.162 597.666 291.802L598.57 292.748C598.19 293.111 597.808 293.472 597.425 293.831ZM599.705 291.653L598.791 290.716C599.164 290.353 599.534 289.987 599.903 289.619L600.827 290.545C600.455 290.916 600.081 291.286 599.705 291.653Z" fill="white"/>
<path d="M497.028 354.301C496.906 353.795 496.782 353.289 496.654 352.784L497.923 352.463C498.051 352.973 498.177 353.484 498.3 353.995L497.028 354.301ZM496.26 351.275C496.117 350.744 495.978 350.255 495.837 349.78L497.092 349.408C497.236 349.893 497.377 350.392 497.523 350.934L496.26 351.275ZM495.375 348.3C495.21 347.798 495.038 347.308 494.865 346.841L496.091 346.386C496.27 346.867 496.447 347.374 496.618 347.89L495.375 348.3ZM494.297 345.409C494.095 344.932 493.882 344.461 493.664 344.008L494.842 343.439C495.07 343.911 495.292 344.402 495.502 344.9L494.297 345.409ZM492.958 342.647C492.707 342.195 492.443 341.754 492.175 341.335L493.276 340.629C493.56 341.071 493.837 341.536 494.102 342.012L492.958 342.647ZM491.309 340.082C491.003 339.671 490.682 339.273 490.355 338.9L491.341 338.039C491.689 338.438 492.032 338.862 492.358 339.3L491.309 340.082ZM489.313 337.801C488.956 337.455 488.575 337.116 488.181 336.794L489.01 335.782C489.431 336.127 489.839 336.49 490.223 336.86L489.313 337.801ZM486.969 335.877C486.564 335.593 486.133 335.313 485.69 335.046L486.366 333.926C486.835 334.209 487.29 334.505 487.719 334.805L486.969 335.877ZM484.356 334.295C483.916 334.063 483.452 333.835 482.977 333.615L483.527 332.428C484.022 332.657 484.506 332.895 484.965 333.136L484.356 334.295ZM481.563 332.997C481.107 332.809 480.622 332.619 480.122 332.432L480.58 331.206C481.094 331.398 481.593 331.594 482.062 331.788L481.563 332.997ZM478.66 331.909C478.169 331.74 477.676 331.577 477.182 331.418L477.583 330.172C478.085 330.334 478.586 330.5 479.085 330.671L478.66 331.909ZM475.692 330.95C475.191 330.796 474.692 330.644 474.193 330.493L474.572 329.241C475.072 329.392 475.574 329.545 476.077 329.699L475.692 330.95Z" fill="white"/>
<path d="M618.182 350.889C621.314 350.336 624.705 351.699 626.583 354.265C626.602 349.887 630.137 345.789 634.465 345.128C636.386 344.834 638.454 345.188 640.007 346.356C641.561 347.523 642.498 349.565 642.099 351.467C643.659 350.37 645.42 349.487 647.313 349.256C649.206 349.026 651.247 349.52 652.607 350.857C653.967 352.193 654.476 354.432 653.548 356.097C655.504 355.035 657.637 354.297 659.831 353.924C661.871 353.577 664.102 353.58 665.849 354.689C667.596 355.798 668.555 358.312 667.411 360.036C668.892 359.873 670.462 359.723 671.811 360.359C673.159 360.995 674.106 362.727 673.367 364.021C672.659 365.26 670.962 365.406 669.535 365.404C664.587 365.399 659.639 365.394 654.692 365.389C642.432 365.376 630.172 365.363 617.912 365.35C616.487 365.348 615.013 365.337 613.71 364.759C612.25 364.111 611.131 362.744 610.783 361.186C609.791 356.739 613.943 351.637 618.182 350.889Z" fill="white"/>
<path d="M673.611 183.221C673.32 180.379 670.586 178.228 667.753 177.855C664.92 177.482 662.08 178.544 659.614 179.987C659.529 176.213 657.148 172.583 653.72 171.002C650.293 169.421 645.986 169.966 643.061 172.352C642.558 168.737 639.445 165.745 635.866 165.028C632.286 164.311 628.447 165.717 625.886 168.318C623.325 170.918 621.993 174.588 621.878 178.236C619.17 174.076 613.44 172.185 608.788 173.915C604.963 175.338 602.392 178.938 601.724 182.883C600.934 187.547 603.453 189.621 608.12 189.725C625.568 190.114 643.016 190.502 660.464 190.89C663.353 190.954 666.343 191 669.002 189.871C671.661 188.742 673.906 186.095 673.611 183.221Z" fill="white"/>
<path d="M415.941 366.801H418.729L419.171 383.761H417.173L416.824 369.473L411.969 382.321H410.11L405.602 369.613L405.254 383.761H403.256L403.721 366.802H406.485L411.062 379.789L415.941 366.801Z" fill="white"/>
<path d="M428.51 366.801H437.524V368.428H430.554V374.329H437.037V375.955H430.554V382.135H437.989V383.761H428.51L428.51 366.801Z" fill="white"/>
<path d="M456.483 366.801H458.528V383.761H456.298L448.213 370.24V383.761H446.168V366.801H448.399L456.483 380.346V366.801Z" fill="white"/>
<path d="M465.799 368.428V366.801H476.951V368.428H472.397V383.761H470.353V368.428H465.799Z" fill="white"/>
<path d="M486.871 366.801H489.59L495.142 383.761H493.121L491.471 378.65H485.013L483.363 383.761H481.342L486.871 366.801ZM488.242 368.613L485.524 377.024H490.937L488.242 368.613Z" fill="white"/>
<path d="M502.646 383.761V366.801H504.691V382.135H511.01V383.761H502.646Z" fill="white"/>
<path d="M415.581 392.116H417.626V409.076H415.581V401.409H407.728V409.076H405.684V392.116H407.728V399.783H415.581V392.116Z" fill="white"/>
<path d="M427.198 392.116H436.212V393.742H429.242V399.643H435.724V401.27H429.242V407.449H436.676V409.076H427.197V392.116H427.198Z" fill="white"/>
<path d="M448.316 392.116H451.035L456.587 409.076H454.566L452.916 403.964H446.458L444.808 409.076H442.787L448.316 392.116ZM449.688 393.928L446.969 402.338H452.382L449.688 393.928Z" fill="white"/>
<path d="M464.092 409.076V392.116H466.136V407.45H472.455V409.076H464.092Z" fill="white"/>
<path d="M476.357 393.742V392.116H487.509V393.742H482.956V409.076H480.911V393.742H476.357Z" fill="white"/>
<path d="M504.679 392.116H506.723V409.076H504.679V401.409H496.826V409.076H494.781V392.116H496.826V399.783H504.679V392.116Z" fill="white"/>
<path d="M578.464 369.918H575.93V367.384C575.93 367.16 575.749 366.979 575.525 366.979H574.057C573.833 366.979 573.652 367.16 573.652 367.384V369.918H571.117C570.894 369.918 570.713 370.099 570.713 370.323V371.791C570.713 372.015 570.894 372.196 571.117 372.196H573.652V374.73C573.652 374.954 573.833 375.135 574.057 375.135H575.525C575.749 375.135 575.93 374.954 575.93 374.73V372.196H578.464C578.688 372.196 578.869 372.015 578.869 371.791V370.323C578.869 370.099 578.688 369.918 578.464 369.918Z" fill="white"/>
<path d="M602.466 244.123C601.58 242.907 600.491 241.86 599.269 241.009C602.162 238.484 603.574 234.344 602.866 230.422C602.19 226.673 599.578 223.201 596.05 221.36C593.2 219.874 589.81 219.41 586.517 220.012C587.966 217.53 588.484 214.413 587.897 211.405C587.271 208.201 585.441 205.127 582.745 202.749C580.36 200.646 577.355 199.082 573.818 198.105C569.972 197.042 566.161 196.894 562.796 197.679C559.006 198.562 555.656 200.711 553.586 203.578C553.097 203.435 552.594 203.344 552.087 203.302C552.152 201.399 551.462 199.399 550.136 197.731C548.925 196.206 547.202 194.931 545.015 193.94C541.782 192.475 538.252 191.973 535.075 192.526C531.56 193.139 528.44 195.042 526.515 197.749C524.552 200.509 523.933 204.053 524.846 207.123C521.915 205.394 518.223 205.011 515.009 206.147C511.524 207.38 508.761 210.329 507.798 213.844C506.826 217.391 507.782 221.413 510.234 224.089C510.485 224.363 510.755 224.618 511.034 224.862C508.007 227.327 506.382 231.488 506.98 235.347C507.598 239.328 510.564 242.904 514.362 244.247C514.493 244.293 514.628 244.337 514.765 244.378C516.554 244.914 518.822 244.975 520.51 243.778C519.786 246.67 520.54 249.958 522.55 252.393C523.962 254.104 525.966 255.38 528.21 256.053C529.215 256.354 530.269 256.534 531.338 256.579C533.588 256.672 535.673 256.184 537.366 255.167C538.346 254.578 539.183 253.795 539.824 252.903C539.86 255.577 540.691 258.151 542.23 260.208C543.658 262.118 545.67 263.5 547.86 264.157C548.779 264.432 549.73 264.571 550.683 264.575C550.718 264.658 550.766 264.735 550.843 264.793C555.848 268.528 559.289 274.457 560.048 280.655L560.08 280.918C560.191 281.861 560.317 282.93 560.932 283.791C561.355 284.383 561.983 284.803 562.684 285.013C563.433 285.238 564.266 285.222 565.016 284.922C566.045 284.51 566.919 283.628 567.689 282.224C567.864 281.906 568.026 281.579 568.189 281.253C568.501 280.628 568.803 280.036 569.18 279.502C570.816 281.028 572.747 281.874 574.294 282.338C574.465 282.389 574.631 282.436 574.792 282.478C577.166 283.104 579.485 283.122 581.499 282.529C583.976 281.8 586.132 280.096 587.413 277.854C588.694 275.612 589.068 272.889 588.438 270.385C588.428 270.345 588.405 270.314 588.387 270.279C588.531 270.247 588.673 270.209 588.814 270.166C591.236 269.419 593.09 267.165 593.427 264.556C593.441 264.444 593.45 264.331 593.459 264.218C593.506 264.252 593.558 264.28 593.616 264.297C593.641 264.305 593.667 264.311 593.694 264.314C595.742 264.602 597.98 264.056 599.832 262.817C601.517 261.69 602.904 260.016 603.844 257.977C605.896 253.524 605.355 248.086 602.466 244.123ZM567.253 280.786C567.096 281.1 566.94 281.414 566.772 281.721C566.123 282.903 565.422 283.632 564.628 283.95C563.627 284.351 562.378 284.014 561.784 283.183C561.326 282.541 561.226 281.693 561.12 280.796L561.088 280.528C560.328 274.329 556.997 268.392 552.127 264.473C554.379 264.13 556.444 262.973 557.875 261.301C557.855 262.385 558.025 263.484 558.4 264.523C559.248 266.875 561.1 268.953 563.481 270.225C564.123 270.568 564.784 270.839 565.451 271.039C565.748 271.128 566.045 271.198 566.343 271.259C566.337 271.275 566.326 271.288 566.322 271.305C565.787 273.756 566.532 276.482 568.315 278.597C568.356 278.646 568.399 278.691 568.441 278.739C567.959 279.384 567.598 280.095 567.253 280.786ZM602.893 257.539C602.034 259.403 600.775 260.927 599.25 261.947C597.609 263.045 595.637 263.53 593.84 263.278C593.706 263.259 593.579 263.296 593.475 263.367C593.39 261.275 592.398 259.214 590.731 257.786C590.723 257.779 590.713 257.778 590.705 257.772C592.14 256.128 592.762 253.755 592.202 251.64C592.128 251.361 591.842 251.194 591.562 251.268C591.283 251.342 591.116 251.628 591.19 251.908C591.773 254.112 590.834 256.65 588.957 257.943C587.081 259.237 584.374 259.212 582.522 257.883C582.287 257.714 581.96 257.768 581.792 258.003C581.623 258.238 581.677 258.565 581.912 258.733C582.481 259.141 583.117 259.445 583.786 259.646C585.706 260.222 587.9 259.944 589.551 258.805C589.697 258.705 589.838 258.597 589.974 258.484C589.998 258.517 590.017 258.553 590.05 258.581C591.742 260.031 592.66 262.323 592.389 264.422C592.108 266.596 590.511 268.547 588.506 269.165C586.432 269.804 584.012 268.964 582.877 267.21C582.72 266.967 582.396 266.897 582.153 267.054C581.91 267.211 581.841 267.535 581.998 267.778C582.74 268.925 583.931 269.752 585.263 270.152C585.958 270.36 586.692 270.45 587.421 270.41C587.406 270.484 587.403 270.561 587.423 270.64C587.988 272.884 587.653 275.324 586.504 277.334C585.356 279.344 583.424 280.871 581.203 281.524C579.373 282.063 577.248 282.043 575.059 281.465C573.324 281.008 570.885 280.022 569.115 277.921C567.564 276.081 566.886 273.631 567.345 271.527C567.354 271.485 567.348 271.444 567.347 271.403C568.78 271.537 570.175 271.338 571.393 270.782C574.081 269.552 575.668 266.44 574.929 263.846C574.85 263.567 574.561 263.407 574.283 263.485C574.005 263.565 573.844 263.854 573.923 264.132C574.525 266.25 573.195 268.806 570.957 269.83C568.937 270.754 566.326 270.556 563.973 269.3C561.818 268.15 560.145 266.279 559.384 264.167C558.576 261.924 558.823 259.367 560.03 257.493C560.186 257.25 560.116 256.926 559.873 256.77C559.63 256.613 559.306 256.684 559.15 256.926C558.822 257.436 558.557 257.99 558.354 258.571C558.338 258.596 558.317 258.616 558.306 258.644C557.165 261.39 554.194 263.399 551.081 263.53C548.056 263.657 544.985 262.144 543.067 259.581C541.27 257.177 540.51 253.851 541.034 250.682C541.051 250.58 541.029 250.485 540.991 250.397C541.011 250.315 541.039 250.235 541.056 250.153C541.114 249.87 540.93 249.594 540.647 249.536C540.364 249.479 540.088 249.661 540.03 249.945C539.682 251.656 538.484 253.273 536.826 254.269C535.309 255.18 533.426 255.617 531.381 255.532C528.215 255.401 525.215 253.978 523.357 251.726C521.47 249.44 520.813 246.325 521.623 243.668C522.108 243.94 522.628 244.168 523.178 244.333C523.188 244.336 523.197 244.339 523.207 244.342C524.94 244.854 526.956 244.818 529.039 244.238C529.317 244.161 529.48 243.872 529.403 243.594C529.325 243.316 529.037 243.152 528.758 243.23C526.865 243.757 525.048 243.794 523.503 243.337C521.75 242.814 520.314 241.618 519.68 240.129C519.005 238.544 519.333 236.598 520.461 235.501C520.669 235.3 520.673 234.968 520.472 234.761C520.271 234.554 519.939 234.549 519.732 234.751C518.283 236.16 517.865 238.54 518.717 240.539C519.054 241.331 519.583 242.045 520.239 242.656C518.742 244.008 516.412 243.861 514.711 243.259C511.265 242.041 508.574 238.797 508.014 235.186C507.459 231.609 509.009 227.743 511.871 225.528C512.823 226.203 513.881 226.716 514.991 227.049C516.695 227.559 518.519 227.647 520.258 227.247C520.54 227.183 520.716 226.902 520.651 226.62C520.586 226.339 520.306 226.163 520.024 226.227C516.807 226.966 513.266 225.849 511.005 223.381C508.791 220.964 507.927 217.329 508.807 214.12C509.681 210.93 512.191 208.253 515.358 207.133C518.522 206.014 522.199 206.511 524.952 208.43C525.19 208.595 525.516 208.537 525.681 208.3C525.769 208.173 525.789 208.023 525.758 207.884C525.969 207.759 526.076 207.506 525.989 207.266C524.965 204.404 525.493 200.99 527.367 198.354C529.134 195.87 532.008 194.122 535.254 193.556C538.225 193.039 541.538 193.513 544.582 194.893C546.616 195.814 548.209 196.988 549.316 198.381C550.492 199.862 551.102 201.623 551.04 203.285C550.434 203.319 549.833 203.426 549.252 203.611C546.955 204.339 545.092 206.224 544.39 208.529C544.306 208.805 544.462 209.098 544.739 209.182C544.739 209.182 544.74 209.182 544.741 209.183C545.017 209.265 545.308 209.11 545.391 208.834C545.994 206.854 547.595 205.234 549.568 204.608C551.541 203.983 553.782 204.383 555.415 205.654C557.05 206.925 557.989 208.999 557.868 211.065C557.851 211.354 558.071 211.601 558.36 211.618C558.648 211.635 558.896 211.415 558.913 211.126C559.054 208.721 557.96 206.308 556.058 204.828C555.61 204.48 555.122 204.19 554.608 203.956C556.544 201.408 559.59 199.5 563.032 198.697C566.227 197.952 569.86 198.096 573.538 199.113C576.924 200.049 579.786 201.536 582.051 203.534C584.575 205.76 586.286 208.626 586.867 211.605C587.479 214.734 586.792 217.983 585.036 220.356C584.93 220.386 584.823 220.414 584.718 220.446C582.245 218.072 578.283 217.504 575.248 219.106C574.992 219.241 574.894 219.558 575.029 219.814C575.164 220.07 575.481 220.167 575.736 220.032C578.369 218.642 581.949 219.173 584.066 221.266C586.182 223.36 586.751 226.934 585.39 229.581C585.258 229.839 585.359 230.154 585.616 230.286C585.645 230.301 585.675 230.313 585.705 230.322C585.942 230.393 586.204 230.288 586.321 230.06C587.739 227.302 587.375 223.807 585.52 221.353C585.563 221.332 585.603 221.306 585.639 221.273C589.03 220.389 592.614 220.748 595.565 222.288C598.813 223.982 601.215 227.17 601.835 230.607C602.484 234.209 601.177 238.009 598.504 240.289C598.453 240.332 598.416 240.385 598.386 240.44C595.796 238.908 592.719 238.206 589.697 238.573C589.41 238.608 589.206 238.869 589.241 239.156C589.276 239.442 589.536 239.647 589.824 239.612C594.251 239.074 598.992 241.135 601.62 244.739C604.248 248.345 604.76 253.488 602.893 257.539Z" fill="white"/>
<path d="M547.404 221.814C548.329 223.813 547.984 226.386 546.566 228.072C546.38 228.293 546.409 228.624 546.63 228.81C546.686 228.857 546.75 228.891 546.816 228.91C547.01 228.969 547.229 228.911 547.367 228.746C549.064 226.729 549.46 223.766 548.354 221.374C547.248 218.982 544.734 217.366 542.098 217.352C539.462 217.339 536.931 218.929 535.801 221.31C535.677 221.571 535.788 221.884 536.049 222.007C536.31 222.132 536.622 222.02 536.746 221.759C537.691 219.769 539.89 218.388 542.093 218.399C544.295 218.411 546.479 219.814 547.404 221.814Z" fill="white"/>
<path d="M574.89 239.885C574.605 239.835 574.334 240.026 574.284 240.31C574.234 240.595 574.424 240.866 574.71 240.916C577.603 241.42 580.189 243.587 581.142 246.306C582.123 249.104 581.398 252.365 579.337 254.421C577.251 256.503 573.932 257.165 571.265 256.032C570.998 255.918 570.692 256.043 570.579 256.309C570.466 256.575 570.59 256.882 570.856 256.995C571.118 257.106 571.384 257.202 571.655 257.283C574.545 258.149 577.901 257.333 580.076 255.161C582.416 252.827 583.241 249.129 582.13 245.96C581.039 242.846 578.197 240.462 574.89 239.885Z" fill="white"/>
<path d="M570.659 249.055C570.521 248.801 570.203 248.707 569.949 248.846C567.952 249.934 565.427 250.016 563.364 249.061C561.3 248.107 559.729 246.13 559.265 243.903C558.837 241.854 559.356 239.627 560.619 237.959C561.512 238.781 562.589 239.399 563.752 239.748C564.362 239.931 564.996 240.04 565.637 240.067C567.901 240.163 570.654 238.941 571.297 236.488C571.37 236.209 571.205 235.923 570.923 235.849C570.643 235.776 570.357 235.944 570.284 236.223C569.78 238.145 567.537 239.1 565.681 239.021C563.47 238.928 561.367 237.706 560.192 235.832C559.016 233.958 558.832 231.532 559.71 229.502C559.825 229.237 559.703 228.929 559.437 228.814C559.171 228.699 558.864 228.822 558.749 229.087C557.736 231.429 557.949 234.227 559.305 236.388C559.481 236.669 559.681 236.932 559.891 237.186C558.606 238.811 557.958 240.931 558.091 242.999L558.273 244.255C558.838 246.743 560.608 248.941 562.924 250.012C563.269 250.171 563.624 250.306 563.988 250.415C566.113 251.051 568.5 250.827 570.45 249.766C570.704 249.627 570.797 249.309 570.659 249.055Z" fill="white"/>
<path d="M547.428 243.512C547.504 243.127 547.144 242.796 546.768 242.911C545.538 243.288 544.189 243.328 542.951 243.01C541.423 242.617 540.009 241.665 539.071 240.397C538.625 239.795 538.128 238.884 538.292 237.966C538.343 237.681 538.153 237.409 537.869 237.359C537.584 237.308 537.312 237.498 537.261 237.782C537.032 239.067 537.661 240.252 538.229 241.02C538.47 241.345 538.735 241.651 539.02 241.935C540.031 242.939 541.301 243.667 542.691 244.024C544.135 244.395 545.659 244.351 547.075 243.912C547.256 243.856 547.39 243.699 547.428 243.512Z" fill="white"/>
<path d="M557.372 220.169C557.558 220.39 557.888 220.42 558.109 220.235C560.694 218.071 564.924 218.043 567.538 220.171C570.152 222.299 570.982 226.446 569.388 229.417C569.251 229.671 569.347 229.989 569.602 230.125C569.634 230.142 569.666 230.156 569.699 230.166C569.933 230.235 570.191 230.134 570.31 229.911C572.16 226.464 571.233 221.829 568.199 219.359C565.165 216.889 560.438 216.921 557.438 219.432C557.216 219.617 557.186 219.947 557.372 220.169Z" fill="white"/>
<path d="M443.471 223.327H437.671V217.527H436.61V223.327H430.811V224.388H436.61V230.188H437.671V224.388H443.471V223.327Z" fill="white"/>
<path d="M600.771 163.914H590.636V153.78H588.781V163.914H578.646V165.77H588.781V175.904H590.636V165.77H600.771V163.914Z" fill="white"/>
<path d="M528.788 399.845H520.929V391.986H519.49V399.845H511.631V401.284H519.49V409.144H520.929V401.284H528.788V399.845Z" fill="white"/>
<path d="M611.94 383.217H604.674V375.95H603.343V383.217H596.076V384.548H603.343V391.815H604.674V384.548H611.94V383.217Z" fill="white"/>
<path d="M656.209 309.315H646.421V299.527H644.629V309.315H634.842V311.107H644.629V320.895H646.421V311.107H656.209V309.315Z" fill="white"/>
</g>
</svg>
