<svg width="99" height="91" viewBox="0 0 99 91" fill="none" xmlns="http://www.w3.org/2000/svg">
<path d="M-2.20039 58.2985C-1.56471 57.6142 -0.899644 56.9579 -0.207065 56.3315C-0.157463 56.2861 -0.0993176 56.2511 -0.0360327 56.2285C0.0272532 56.2059 0.0944033 56.1962 0.161485 56.2C0.228566 56.2037 0.294228 56.2208 0.354622 56.2503C0.415017 56.2797 0.468931 56.321 0.513203 56.3716C0.558313 56.4215 0.59304 56.4799 0.615355 56.5434C0.637671 56.6068 0.647128 56.6741 0.643173 56.7413C0.639219 56.8085 0.621932 56.8742 0.592323 56.9347C0.562715 56.9951 0.521379 57.049 0.470728 57.0932C-0.523292 57.9877 -1.45735 58.9468 -2.32539 59.9642C-2.36838 60.0156 -2.4212 60.058 -2.48074 60.0887C-2.54028 60.1195 -2.60536 60.138 -2.67215 60.1433C-2.73894 60.1485 -2.80611 60.1404 -2.86973 60.1194C-2.93334 60.0983 -2.99212 60.0648 -3.04262 60.0207C-3.25075 59.8269 -3.28049 59.5207 -3.09602 59.3026C-2.80263 58.9634 -2.50405 58.6286 -2.20039 58.2985ZM-5.50561 62.5526C-5.42427 62.4647 -5.31461 62.4084 -5.19588 62.3934C-5.07714 62.3784 -4.95693 62.4057 -4.85634 62.4706C-4.6209 62.6152 -4.55294 62.939 -4.70767 63.1656C-5.43212 64.2916 -6.08668 65.4612 -6.66762 66.6677C-6.69501 66.7308 -6.73487 66.7877 -6.7848 66.835C-6.83474 66.8823 -6.89371 66.919 -6.95818 66.9429C-7.02265 66.9668 -7.09128 66.9774 -7.15994 66.9741C-7.2286 66.9707 -7.29588 66.9535 -7.35772 66.9234C-7.41956 66.8934 -7.4747 66.8511 -7.5198 66.7992C-7.5649 66.7472 -7.59904 66.6867 -7.62017 66.6212C-7.6413 66.5557 -7.64898 66.4866 -7.64274 66.4181C-7.6365 66.3496 -7.61648 66.283 -7.58389 66.2224C-6.95646 64.9503 -6.28898 63.7348 -5.56083 62.6122L-5.49651 62.5429L-5.50561 62.5526ZM2.96709 53.8487L3.04112 53.7691C4.17663 52.9864 5.36313 52.2806 6.59269 51.6563C6.71267 51.5974 6.85095 51.5878 6.97788 51.6297C7.10482 51.6716 7.2103 51.7616 7.2717 51.8805C7.33002 52.001 7.33907 52.1395 7.29691 52.2666C7.25475 52.3937 7.16471 52.4992 7.04597 52.5609C5.85398 53.1645 4.70502 53.8497 3.60726 54.6117C3.37303 54.7648 3.05507 54.7095 2.90277 54.4756C2.83838 54.3792 2.8087 54.2636 2.81863 54.148C2.82855 54.0324 2.87749 53.9236 2.95738 53.8396L2.96709 53.8487ZM-9.06871 69.8697C-9.00148 69.7966 -8.91385 69.7455 -8.81721 69.723C-8.72058 69.7005 -8.6194 69.7076 -8.52685 69.7433C-8.2641 69.8393 -8.12029 70.1218 -8.21677 70.3848C-8.65729 71.6473 -9.02581 72.9338 -9.32054 74.2381C-9.38728 74.5096 -9.65003 74.6925 -9.92066 74.6256C-10.1913 74.5594 -10.3636 74.2873 -10.306 74.0261C-10.0159 72.6999 -9.62151 71.3598 -9.16762 70.0562C-9.14297 69.9906 -9.10588 69.9303 -9.0584 69.8788L-9.06871 69.8697ZM10.2134 50.165C10.2663 50.1041 10.3343 50.0584 10.4107 50.0325C11.5346 49.6432 12.6787 49.3145 13.8378 49.0478C14.0187 49.012 14.2092 48.9664 14.39 48.9306C14.455 48.9163 14.5221 48.9151 14.5875 48.927C14.6529 48.939 14.7153 48.9639 14.771 49.0003C14.8267 49.0366 14.8746 49.0837 14.9119 49.1388C14.9492 49.1939 14.9752 49.2559 14.9883 49.3212C15.0023 49.3863 15.0033 49.4536 14.9912 49.5192C14.9791 49.5847 14.9541 49.6472 14.9177 49.703C14.8813 49.7588 14.8342 49.8069 14.7792 49.8444C14.7241 49.8818 14.6622 49.908 14.5969 49.9214C14.4161 49.9572 14.245 50.0022 14.0642 50.038C12.9416 50.2919 11.8306 50.6121 10.7408 50.9899C10.6128 51.0319 10.4737 51.023 10.3522 50.9651C10.2306 50.9072 10.136 50.8047 10.0878 50.6789C10.0576 50.5917 10.0515 50.4979 10.0703 50.4075C10.0891 50.3171 10.1321 50.2335 10.1946 50.1656L10.2134 50.165ZM42.9592 14.9514C43.5969 14.2649 44.2547 13.5967 44.904 12.9576C44.9999 12.8631 45.1292 12.8102 45.2638 12.8104C45.3984 12.8106 45.5275 12.864 45.623 12.9588C45.7173 13.0552 45.7699 13.1849 45.7692 13.3198C45.7685 13.4547 45.7147 13.5839 45.6194 13.6793C44.6568 14.6191 43.7279 15.5926 42.8342 16.5982C42.7895 16.6467 42.7356 16.6858 42.6758 16.7134C42.6159 16.741 42.5512 16.7564 42.4854 16.7589C42.4195 16.7614 42.3538 16.7509 42.2921 16.7279C42.2303 16.7049 42.1737 16.6699 42.1255 16.625C42.0755 16.5804 42.035 16.5263 42.0061 16.4659C41.9773 16.4054 41.9608 16.3398 41.9576 16.2729C41.9544 16.206 41.9645 16.1391 41.9874 16.0762C42.0103 16.0132 42.0455 15.9555 42.0909 15.9063C42.387 15.588 42.6819 15.2503 42.9871 14.9222L42.9592 14.9514ZM39.4768 19.0585C39.6522 18.8702 39.958 18.8386 40.1558 19.0039C40.2095 19.0444 40.2545 19.0953 40.2882 19.1536C40.3219 19.2118 40.3437 19.2762 40.3522 19.343C40.3608 19.4097 40.3559 19.4775 40.3379 19.5424C40.3199 19.6073 40.2891 19.6679 40.2474 19.7207C39.4218 20.7887 38.625 21.8787 37.8579 22.9895C37.7802 23.1012 37.6617 23.1779 37.528 23.2028C37.3944 23.2277 37.2563 23.1988 37.1437 23.1225C37.032 23.0446 36.9556 22.9257 36.9312 22.7916C36.9068 22.6576 36.9362 22.5193 37.0132 22.4069C37.7893 21.2799 38.5952 20.1737 39.4301 19.0895L39.4574 19.0591L39.4768 19.0585ZM47.927 10.2598L47.9732 10.21C49.0337 9.34031 50.1314 8.51702 51.2632 7.74245C51.4974 7.58936 51.816 7.64464 51.9677 7.87852C52.0423 7.99077 52.0696 8.12796 52.0437 8.26026C52.0178 8.39257 51.9408 8.50928 51.8293 8.58502C50.7162 9.33823 49.6401 10.1449 48.6048 11.0022C48.5537 11.0448 48.4947 11.0769 48.4311 11.0965C48.3675 11.1161 48.3007 11.1229 48.2345 11.1165C48.1683 11.11 48.104 11.0905 48.0454 11.059C47.9868 11.0275 47.935 10.9846 47.8931 10.9329C47.8172 10.8376 47.7781 10.7183 47.7826 10.5966C47.7872 10.4749 47.8352 10.3589 47.9179 10.2696L47.927 10.2598ZM34.8475 25.773C34.927 25.686 35.0342 25.6294 35.1507 25.6127C35.2673 25.5961 35.386 25.6205 35.4865 25.6818C35.5435 25.7173 35.5929 25.7638 35.6319 25.8186C35.6708 25.8733 35.6984 25.9353 35.7132 26.0009C35.728 26.0664 35.7297 26.1343 35.718 26.2005C35.7064 26.2667 35.6817 26.3299 35.6455 26.3865C35.1546 27.1726 34.711 27.9095 34.3014 28.5686C34.0385 28.9989 33.7787 29.4312 33.5223 29.8655C33.4521 29.9795 33.3399 30.0612 33.21 30.093C33.0802 30.1248 32.943 30.1042 32.8281 30.0356C32.7144 29.9654 32.633 29.8531 32.6015 29.723C32.57 29.593 32.5911 29.4559 32.6601 29.3413C32.9228 28.8996 33.1952 28.4665 33.4398 28.0443C33.8488 27.3858 34.2929 26.6489 34.7929 25.8519L34.8573 25.7821L34.8475 25.773ZM54.6637 5.69282C54.6637 5.69282 54.7371 5.61324 54.7942 5.59198C55.9998 4.93157 57.2367 4.33007 58.5005 3.7896C58.6257 3.73891 58.7658 3.73896 58.891 3.78975C59.0163 3.84053 59.1169 3.93807 59.1716 4.06175C59.2857 4.31689 59.1522 4.61941 58.8973 4.73483C57.6635 5.26143 56.4551 5.84565 55.2759 6.48558C55.1587 6.54953 55.0211 6.565 54.8926 6.52867C54.7641 6.49234 54.655 6.40709 54.5884 6.29119C54.5358 6.19641 54.5146 6.08728 54.5282 5.97967C54.5417 5.87205 54.5892 5.77156 54.6637 5.69282ZM30.7086 32.7954C30.7837 32.7117 30.8851 32.6562 30.9959 32.638C31.1068 32.6198 31.2205 32.6399 31.3184 32.6952C31.563 32.83 31.6692 33.1325 31.5338 33.378C30.9013 34.5606 30.3288 35.7745 29.8184 37.0149C29.7655 37.1378 29.6668 37.2352 29.5433 37.2865C29.4199 37.3378 29.2813 37.3388 29.157 37.2895C29.0343 37.2367 28.9371 37.1379 28.8862 37.0143C28.8353 36.8907 28.8347 36.752 28.8846 36.628C29.4118 35.359 29.9993 34.1159 30.6449 32.9029C30.6728 32.8731 30.6995 32.8239 30.7274 32.7942L30.7086 32.7954ZM-10.8169 77.8185C-10.7625 77.7614 -10.696 77.7173 -10.6222 77.6895C-10.5485 77.6618 -10.4694 77.651 -10.3909 77.6581C-10.3236 77.6635 -10.2581 77.6824 -10.1982 77.7136C-10.1383 77.7448 -10.0853 77.7878 -10.0424 77.8399C-9.9994 77.892 -9.96735 77.9523 -9.94811 78.0171C-9.92886 78.0819 -9.92283 78.1499 -9.93037 78.217C-10.0578 79.5456 -10.0949 80.8813 -10.0414 82.2148C-10.0379 82.282 -10.0479 82.3492 -10.0708 82.4124C-10.0938 82.4756 -10.1291 82.5335 -10.1749 82.5827C-10.2206 82.632 -10.2758 82.6715 -10.3371 82.699C-10.3984 82.7265 -10.4646 82.7414 -10.5317 82.7427C-10.5985 82.7464 -10.6654 82.7366 -10.7284 82.7138C-10.7913 82.691 -10.849 82.6557 -10.8981 82.61C-10.9471 82.5643 -10.9864 82.5093 -11.0136 82.448C-11.0408 82.3868 -11.0555 82.3207 -11.0566 82.2537C-11.1052 80.8747 -11.0633 79.4939 -10.931 78.1204C-10.9188 78.0082 -10.8721 77.9025 -10.7975 77.8179L-10.8169 77.8185ZM18.1728 48.5181C18.2148 48.4714 18.2657 48.4335 18.3224 48.4065C18.3792 48.3796 18.4408 48.3643 18.5035 48.3614C19.8773 48.2518 21.2566 48.2282 22.6334 48.2909C22.9125 48.3091 23.1218 48.5412 23.1218 48.8194C23.1123 48.9533 23.0522 49.0785 22.9538 49.1696C22.8555 49.2608 22.7261 49.3111 22.5921 49.3103C21.2566 49.2538 19.919 49.279 18.5866 49.3856C18.4525 49.395 18.3202 49.351 18.2184 49.2631C18.1165 49.1753 18.0535 49.0507 18.0429 48.9166C18.0367 48.8455 18.046 48.7738 18.0701 48.7066C18.0942 48.6394 18.1325 48.5782 18.1825 48.5272L18.1728 48.5181ZM62.1485 2.52787C62.2121 2.46417 62.289 2.41541 62.3736 2.38511C63.6721 1.9884 64.9885 1.65311 66.3184 1.38034L66.3658 1.3688C66.4307 1.35579 66.4977 1.35586 66.5626 1.369C66.6276 1.38215 66.6893 1.40811 66.7441 1.44537C66.799 1.48263 66.8459 1.53045 66.8821 1.58603C66.9183 1.64162 66.943 1.70386 66.955 1.76913C66.9675 1.83436 66.9671 1.90144 66.9537 1.9665C66.9403 2.03157 66.9142 2.09334 66.8768 2.14826C66.8395 2.20319 66.7917 2.25019 66.7362 2.28656C66.6806 2.32293 66.6185 2.34796 66.5533 2.3602L66.515 2.36142C65.2201 2.62264 63.9179 2.95067 62.6655 3.3431C62.5376 3.38349 62.3988 3.37137 62.2798 3.3094C62.1608 3.24743 62.0712 3.14069 62.0308 3.01263C62.0054 2.92795 62.002 2.8382 62.0208 2.75181C62.0396 2.66542 62.08 2.58523 62.1382 2.51876L62.1485 2.52787ZM27.6321 40.3239C27.7614 40.1841 27.9507 40.1197 28.1352 40.1799C28.3961 40.2564 28.5599 40.5383 28.4829 40.8007C28.1158 42.0867 27.8374 43.3965 27.6497 44.7208C27.641 44.7869 27.6193 44.8506 27.5858 44.9083C27.5524 44.966 27.5079 45.0165 27.4549 45.0568C27.4019 45.0972 27.3414 45.1267 27.2769 45.1435C27.2125 45.1604 27.1453 45.1643 27.0793 45.1551C27.0135 45.1466 26.9499 45.1251 26.8924 45.0918C26.8349 45.0584 26.7847 45.014 26.7445 44.961C26.7044 44.908 26.6751 44.8476 26.6586 44.7832C26.642 44.7188 26.6383 44.6517 26.6479 44.5859C26.8459 43.2201 27.1323 41.8687 27.5053 40.5401C27.525 40.4619 27.5655 40.3906 27.6224 40.3336L27.6321 40.3239ZM-10.5171 85.9296C-10.4423 85.8436 -10.3383 85.7884 -10.2253 85.7747C-9.94857 85.7352 -9.6834 85.9077 -9.63546 86.1938C-9.47447 87.1052 -9.28016 88.0103 -9.05294 88.9074C-9.03507 88.9725 -9.03027 89.0404 -9.03881 89.1074C-9.04735 89.1743 -9.06907 89.2389 -9.1027 89.2973C-9.13633 89.3558 -9.18122 89.407 -9.23475 89.448C-9.28829 89.489 -9.34941 89.519 -9.41459 89.5361C-9.4793 89.5542 -9.54695 89.5592 -9.61361 89.5508C-9.68026 89.5424 -9.74458 89.5208 -9.80281 89.4873C-9.86104 89.4538 -9.91202 89.409 -9.95278 89.3555C-9.99353 89.302 -10.0233 89.241 -10.0402 89.1759C-10.2897 88.2503 -10.4918 87.3126 -10.6458 86.3663C-10.6602 86.2885 -10.6561 86.2084 -10.6337 86.1325C-10.6114 86.0566 -10.5714 85.9871 -10.5171 85.9296ZM70.1091 0.91927C70.1928 0.827624 70.3064 0.768828 70.4295 0.753428C71.7946 0.623087 73.1649 0.55498 74.5363 0.549316C74.6705 0.550275 74.7989 0.604212 74.8937 0.69941C74.9884 0.794609 75.0418 0.923386 75.0423 1.05778C75.0411 1.1926 74.9869 1.32153 74.8916 1.41676C74.7962 1.51199 74.6673 1.56589 74.5326 1.56684C73.1935 1.57129 71.8552 1.63818 70.5223 1.76731C70.2353 1.79768 69.998 1.59539 69.9689 1.30866C69.9623 1.23684 69.9705 1.16442 69.9929 1.09588C70.0154 1.02734 70.0516 0.964137 70.0994 0.910159L70.1091 0.91927ZM26.4713 48.3559C26.5201 48.3042 26.5786 48.2628 26.6435 48.234C26.7084 48.2052 26.7784 48.1897 26.8494 48.1882C26.9837 48.189 27.1123 48.2429 27.2072 48.3381C27.3021 48.4333 27.3556 48.5622 27.356 48.6967C27.3573 48.735 27.3488 48.7641 27.35 48.803C28.4986 49.0181 29.6394 49.2823 30.7432 49.6049C31.015 49.6905 31.1679 49.9633 31.0818 50.2354C30.995 50.5076 30.7226 50.6619 30.4507 50.5762C29.4305 50.2832 28.3982 50.0341 27.3566 49.8296C27.39 50.7889 27.4519 51.756 27.5423 52.6933C27.556 52.8277 27.5164 52.9622 27.4321 53.0677C27.3478 53.1733 27.2255 53.2415 27.0915 53.2576C26.9576 53.2722 26.8234 53.2331 26.7182 53.149C26.6129 53.0649 26.5451 52.9426 26.5296 52.8087C26.4276 51.7576 26.3592 50.7035 26.3245 49.648L26.3233 49.6097C26.1752 49.4907 26.0927 49.3212 26.1333 49.1177C26.1597 48.9918 26.2266 48.878 26.3239 48.7939C26.3221 48.7556 26.3306 48.7265 26.33 48.6882C26.3282 48.6254 26.3389 48.5629 26.3615 48.5043C26.3841 48.4456 26.4182 48.3921 26.4616 48.3468L26.4713 48.3559ZM78.1916 0.890111C78.2459 0.833019 78.3125 0.788985 78.3863 0.761316C78.4601 0.733646 78.5391 0.723059 78.6176 0.730345C79.9641 0.85184 81.3324 1.04927 82.6837 1.30502C82.7499 1.31708 82.813 1.34225 82.8694 1.37905C82.9257 1.41585 82.9742 1.46355 83.0118 1.51933C83.0495 1.57512 83.0757 1.63788 83.0889 1.70393C83.102 1.76998 83.1019 1.838 83.0884 1.90399C83.0758 1.97013 83.0502 2.03312 83.0132 2.08937C82.9763 2.14562 82.9286 2.19403 82.8729 2.23182C82.8172 2.26962 82.7547 2.29606 82.6888 2.30965C82.6229 2.32323 82.555 2.32369 82.4889 2.311C81.1746 2.0647 79.8498 1.87801 78.5187 1.75151C78.2401 1.73329 78.0393 1.47207 78.0581 1.19264C78.0703 1.08039 78.1169 0.974693 78.1916 0.890111ZM27.2972 56.4183C27.3658 56.3413 27.4588 56.2903 27.5605 56.2738C27.6913 56.246 27.8276 56.2702 27.9409 56.3411C28.0542 56.412 28.1356 56.5242 28.1679 56.654C28.4738 57.9959 28.8439 59.2875 29.2984 60.4896C29.3223 60.5519 29.3337 60.6183 29.3318 60.685C29.33 60.7517 29.3149 60.8174 29.2876 60.8782C29.2602 60.9391 29.2211 60.9939 29.1724 61.0395C29.1237 61.0851 29.0665 61.1206 29.0041 61.1439C28.9422 61.1681 28.8761 61.1797 28.8097 61.1781C28.7432 61.1765 28.6777 61.1618 28.6171 61.1346C28.5564 61.1075 28.5017 61.0686 28.4561 61.0201C28.4106 60.9716 28.3751 60.9146 28.3518 60.8523C27.8739 59.5567 27.4821 58.231 27.1789 56.8837C27.1346 56.7124 27.1959 56.5471 27.3069 56.4274L27.2972 56.4183ZM34.0175 51.1126C34.0892 51.0369 34.1824 50.985 34.2845 50.9639C34.3866 50.9428 34.4927 50.9536 34.5885 50.9948C35.0654 51.1977 35.5429 51.4194 36.0017 51.6418C36.7723 52.0257 37.5247 52.429 38.259 52.8524C38.3747 52.923 38.4581 53.0363 38.4913 53.1679C38.5244 53.2995 38.5046 53.4388 38.4361 53.5559C38.3657 53.672 38.2526 53.7558 38.1212 53.7896C37.9898 53.8233 37.8504 53.8042 37.7329 53.7363C37.016 53.3185 36.2861 52.9236 35.5442 52.5524C35.0927 52.3287 34.6346 52.1188 34.1704 51.923C34.1084 51.897 34.0522 51.8588 34.0052 51.8107C33.9582 51.7626 33.9213 51.7055 33.8968 51.6428C33.8722 51.5802 33.8605 51.5132 33.8622 51.4459C33.864 51.3787 33.8792 51.3124 33.907 51.2511C33.934 51.1977 33.9679 51.1481 34.0077 51.1035L34.0175 51.1126ZM86.1734 2.38207C86.3027 2.24236 86.492 2.17796 86.6764 2.2381C87.9963 2.60424 89.3002 3.0256 90.5848 3.50105C90.7107 3.54754 90.8131 3.64217 90.8694 3.76415C90.9257 3.88613 90.9314 4.0255 90.8852 4.15165C90.8387 4.27807 90.7441 4.38095 90.6222 4.43785C90.5002 4.49475 90.3607 4.50106 90.2341 4.45539C88.9787 3.98844 87.7038 3.57559 86.4131 3.21796C86.2846 3.17829 86.176 3.09101 86.1096 2.97394C86.0432 2.85687 86.0239 2.71883 86.0557 2.58801C86.0755 2.50994 86.1162 2.43876 86.1734 2.38207ZM30.1576 63.9996C30.1576 63.9996 30.2225 63.9298 30.279 63.9085C30.3368 63.8745 30.4008 63.8522 30.4673 63.843C30.5338 63.8339 30.6015 63.838 30.6664 63.8552C30.7312 63.8723 30.7921 63.9022 30.8454 63.9431C30.8987 63.9839 30.9433 64.035 30.9768 64.0932C31.6692 65.2766 32.4452 66.3512 33.3014 67.2788C33.3462 67.3276 33.381 67.3847 33.4036 67.447C33.4262 67.5093 33.4363 67.5754 33.4333 67.6416C33.4302 67.7078 33.4141 67.7728 33.3858 67.8327C33.3576 67.8926 33.3178 67.9463 33.2687 67.9908C33.2201 68.0357 33.1632 68.0706 33.1011 68.0934C33.039 68.1162 32.973 68.1264 32.9069 68.1236C32.8409 68.1207 32.776 68.1047 32.7162 68.0766C32.6563 68.0485 32.6026 68.0088 32.5581 67.9598C31.6209 66.9305 30.7974 65.803 30.1018 64.5968C30.0476 64.5016 30.0248 64.3917 30.0365 64.2828C30.0483 64.1738 30.0941 64.0713 30.1673 63.9899L30.1576 63.9996ZM40.978 55.2356C41.1534 55.046 41.4592 55.0157 41.657 55.1809C42.2383 55.6292 42.7814 56.0982 43.2869 56.5684C43.7788 57.0219 44.2467 57.5008 44.6886 58.0032C44.7337 58.0531 44.7685 58.1115 44.7909 58.1749C44.8132 58.2384 44.8227 58.3057 44.8188 58.3729C44.8149 58.4401 44.7977 58.5058 44.7682 58.5662C44.7386 58.6267 44.6973 58.6806 44.6467 58.7249C44.5971 58.7704 44.5389 58.8054 44.4756 58.828C44.4123 58.8507 44.3451 58.8604 44.278 58.8568C44.2109 58.8531 44.1451 58.836 44.0847 58.8066C44.0242 58.7772 43.9702 58.736 43.9258 58.6854C43.4988 58.2124 43.0511 57.7583 42.5842 57.3247C42.0822 56.8559 41.5581 56.4113 41.0138 55.9925C40.9075 55.909 40.8383 55.7871 40.8211 55.653C40.8038 55.5189 40.8399 55.3834 40.9216 55.2757L40.9495 55.2459L40.978 55.2356ZM93.7887 5.20319C93.8617 5.12315 93.9584 5.06851 94.0645 5.04721C94.1707 5.02591 94.2809 5.03905 94.3791 5.08474C95.6183 5.66623 96.8361 6.29234 98.0302 6.96184C98.2747 7.0967 98.3524 7.41077 98.2171 7.65558C98.0818 7.901 97.7681 7.97997 97.5241 7.84511C96.3599 7.18011 95.1677 6.56559 93.9507 6.00324C93.6971 5.87871 93.5812 5.5853 93.7068 5.33077C93.7341 5.28217 93.7608 5.23296 93.7978 5.19287L93.7887 5.20319ZM35.6455 69.9068C35.7268 69.8189 35.8364 69.7624 35.9551 69.7473C36.0738 69.7322 36.1941 69.7594 36.2948 69.8241C37.4325 70.5495 38.6594 71.098 39.8397 71.3987C39.9703 71.4323 40.0823 71.5164 40.1511 71.6326C40.2199 71.7487 40.2399 71.8874 40.2068 72.0183C40.1725 72.149 40.0882 72.261 39.9722 72.3301C39.8562 72.3992 39.7177 72.4199 39.5866 72.3877C38.3002 72.0621 36.9653 71.4692 35.7395 70.6807C35.5047 70.5361 35.4361 70.2123 35.5812 69.9766C35.5994 69.9566 35.617 69.9365 35.6455 69.9068ZM46.2808 61.3413C46.2808 61.3413 46.3639 61.252 46.421 61.2308C46.5409 61.1719 46.6791 61.1623 46.806 61.2041C46.9328 61.2459 47.0384 61.3357 47.1 61.4543C47.5086 62.2467 47.8301 63.0812 48.0587 63.9432C48.1916 64.4565 48.2766 64.9813 48.3051 65.5275C48.3245 65.8051 48.1024 66.0438 47.8154 66.0547C47.5381 66.0748 47.3002 65.8537 47.2899 65.5657C47.2652 65.1012 47.1914 64.6406 47.0696 64.1916C46.8606 63.3979 46.5638 62.63 46.1849 61.902C46.0921 61.704 46.1224 61.4725 46.2608 61.3231L46.2808 61.3413ZM43.3645 71.5621C43.4204 71.5026 43.5047 71.451 43.5897 71.4194C44.084 71.2634 44.554 71.0387 44.9859 70.7518C45.5703 70.3413 46.0617 69.8123 46.4283 69.199C46.4985 69.0851 46.6106 69.0034 46.7404 68.9715C46.8703 68.9395 47.0075 68.96 47.1224 69.0283C47.2361 69.0988 47.3174 69.2113 47.3488 69.3414C47.3801 69.4715 47.359 69.6087 47.2899 69.7233C46.8457 70.4603 46.254 71.0973 45.552 71.5943C45.0367 71.9483 44.4708 72.2224 43.8736 72.4071C43.8102 72.4277 43.7433 72.4351 43.6769 72.4289C43.6105 72.4227 43.5461 72.403 43.4875 72.3711C43.429 72.3391 43.3776 72.2956 43.3364 72.2431C43.2952 72.1906 43.2652 72.1302 43.248 72.0657C43.2224 71.9811 43.2188 71.8912 43.2376 71.8048C43.2564 71.7184 43.297 71.6382 43.3554 71.5718L43.3645 71.5621Z" fill="white" stroke="white" stroke-miterlimit="10"/>
</svg>
