<svg width="40" height="40" viewBox="0 0 40 40" fill="none" xmlns="http://www.w3.org/2000/svg">
<g clip-path="url(#clip0_753_5630)">
<path d="M36.1328 13.4375C36.7188 13.763 37.2526 14.1602 37.7344 14.6289C38.2161 15.0977 38.6198 15.6185 38.9453 16.1914C39.2708 16.7643 39.5312 17.3698 39.7266 18.0078C39.9219 18.6458 40.013 19.3099 40 20H37.5C37.5 19.3229 37.3698 18.6784 37.1094 18.0664C36.849 17.4544 36.4909 16.9271 36.0352 16.4844C35.5794 16.0417 35.0456 15.6836 34.4336 15.4102C33.8216 15.1367 33.1771 15 32.5 15C31.8099 15 31.1654 15.1302 30.5664 15.3906C29.9674 15.651 29.4401 16.0091 28.9844 16.4648C28.5286 16.9206 28.1706 17.4544 27.9102 18.0664C27.6497 18.6784 27.513 19.3229 27.5 20C27.5 21.1849 27.2331 22.3112 26.6992 23.3789C26.1654 24.4466 25.4167 25.332 24.4531 26.0352C25.2995 26.4648 26.0612 26.9922 26.7383 27.6172C27.4154 28.2422 28.0013 28.9453 28.4961 29.7266C28.9909 30.5078 29.362 31.3411 29.6094 32.2266C29.8568 33.112 29.987 34.0365 30 35H27.5C27.5 33.9714 27.3047 33.0013 26.9141 32.0898C26.5234 31.1784 25.9831 30.3841 25.293 29.707C24.6029 29.0299 23.8086 28.4961 22.9102 28.1055C22.0117 27.7148 21.0417 27.513 20 27.5C18.9714 27.5 18.0013 27.6953 17.0898 28.0859C16.1784 28.4766 15.3841 29.0169 14.707 29.707C14.0299 30.3971 13.4961 31.1914 13.1055 32.0898C12.7148 32.9883 12.513 33.9583 12.5 35H10C10 34.0495 10.1302 33.1315 10.3906 32.2461C10.651 31.3607 11.0221 30.5273 11.5039 29.7461C11.9857 28.9648 12.5651 28.2617 13.2422 27.6367C13.9193 27.0117 14.6875 26.4779 15.5469 26.0352C14.5964 25.332 13.8542 24.4466 13.3203 23.3789C12.7865 22.3112 12.513 21.1849 12.5 20C12.5 19.3229 12.3698 18.6784 12.1094 18.0664C11.849 17.4544 11.4909 16.9271 11.0352 16.4844C10.5794 16.0417 10.0456 15.6836 9.43359 15.4102C8.82161 15.1367 8.17708 15 7.5 15C6.8099 15 6.16536 15.1302 5.56641 15.3906C4.96745 15.651 4.4401 16.0091 3.98438 16.4648C3.52865 16.9206 3.17057 17.4544 2.91016 18.0664C2.64974 18.6784 2.51302 19.3229 2.5 20H0C0 19.3229 0.0911458 18.6654 0.273438 18.0273C0.455729 17.3893 0.709635 16.7839 1.03516 16.2109C1.36068 15.638 1.77083 15.1172 2.26562 14.6484C2.76042 14.1797 3.29427 13.776 3.86719 13.4375C3.4375 12.9818 3.10547 12.4544 2.87109 11.8555C2.63672 11.2565 2.51302 10.638 2.5 10C2.5 9.32292 2.63021 8.67839 2.89062 8.06641C3.15104 7.45443 3.50911 6.92708 3.96484 6.48438C4.42057 6.04167 4.94792 5.68359 5.54688 5.41016C6.14583 5.13672 6.79688 5 7.5 5C8.17708 5 8.82161 5.13021 9.43359 5.39062C10.0456 5.65104 10.5729 6.00911 11.0156 6.46484C11.4583 6.92057 11.8164 7.45443 12.0898 8.06641C12.3633 8.67839 12.5 9.32292 12.5 10C12.5 10.638 12.3828 11.2565 12.1484 11.8555C11.9141 12.4544 11.5755 12.9818 11.1328 13.4375C12.2005 14.0234 13.0729 14.8307 13.75 15.8594C14.4531 14.8177 15.3516 13.9974 16.4453 13.3984C17.5391 12.7995 18.724 12.5 20 12.5C21.263 12.5 22.4414 12.7995 23.5352 13.3984C24.6289 13.9974 25.5339 14.8177 26.25 15.8594C26.9271 14.8307 27.7995 14.0234 28.8672 13.4375C28.4375 12.9818 28.1055 12.4544 27.8711 11.8555C27.6367 11.2565 27.513 10.638 27.5 10C27.5 9.32292 27.6302 8.67839 27.8906 8.06641C28.151 7.45443 28.5091 6.92708 28.9648 6.48438C29.4206 6.04167 29.9479 5.68359 30.5469 5.41016C31.1458 5.13672 31.7969 5 32.5 5C33.1771 5 33.8216 5.13021 34.4336 5.39062C35.0456 5.65104 35.5729 6.00911 36.0156 6.46484C36.4583 6.92057 36.8164 7.45443 37.0898 8.06641C37.3633 8.67839 37.5 9.32292 37.5 10C37.5 10.638 37.3828 11.2565 37.1484 11.8555C36.9141 12.4544 36.5755 12.9818 36.1328 13.4375ZM5 10C5 10.3516 5.0651 10.6771 5.19531 10.9766C5.32552 11.276 5.5013 11.5365 5.72266 11.7578C5.94401 11.9792 6.21094 12.1615 6.52344 12.3047C6.83594 12.4479 7.16146 12.513 7.5 12.5C7.85156 12.5 8.17708 12.4349 8.47656 12.3047C8.77604 12.1745 9.03646 11.9987 9.25781 11.7773C9.47917 11.556 9.66146 11.2891 9.80469 10.9766C9.94792 10.6641 10.013 10.3385 10 10C10 9.64844 9.9349 9.32292 9.80469 9.02344C9.67448 8.72396 9.4987 8.46354 9.27734 8.24219C9.05599 8.02083 8.78906 7.83854 8.47656 7.69531C8.16406 7.55208 7.83854 7.48698 7.5 7.5C7.14844 7.5 6.82292 7.5651 6.52344 7.69531C6.22396 7.82552 5.96354 8.0013 5.74219 8.22266C5.52083 8.44401 5.33854 8.71094 5.19531 9.02344C5.05208 9.33594 4.98698 9.66146 5 10ZM20 25C20.6771 25 21.3216 24.8698 21.9336 24.6094C22.5456 24.349 23.0729 23.9909 23.5156 23.5352C23.9583 23.0794 24.3164 22.5521 24.5898 21.9531C24.8633 21.3542 25 20.7031 25 20C25 19.3229 24.8698 18.6784 24.6094 18.0664C24.349 17.4544 23.9909 16.9271 23.5352 16.4844C23.0794 16.0417 22.5456 15.6836 21.9336 15.4102C21.3216 15.1367 20.6771 15 20 15C19.3099 15 18.6654 15.1302 18.0664 15.3906C17.4674 15.651 16.9401 16.0091 16.4844 16.4648C16.0286 16.9206 15.6706 17.4544 15.4102 18.0664C15.1497 18.6784 15.013 19.3229 15 20C15 20.6901 15.1302 21.3346 15.3906 21.9336C15.651 22.5326 16.0091 23.0599 16.4648 23.5156C16.9206 23.9714 17.4479 24.3294 18.0469 24.5898C18.6458 24.8503 19.2969 24.987 20 25ZM30 10C30 10.3516 30.0651 10.6771 30.1953 10.9766C30.3255 11.276 30.5013 11.5365 30.7227 11.7578C30.944 11.9792 31.2109 12.1615 31.5234 12.3047C31.8359 12.4479 32.1615 12.513 32.5 12.5C32.8516 12.5 33.1771 12.4349 33.4766 12.3047C33.776 12.1745 34.0365 11.9987 34.2578 11.7773C34.4792 11.556 34.6615 11.2891 34.8047 10.9766C34.9479 10.6641 35.013 10.3385 35 10C35 9.64844 34.9349 9.32292 34.8047 9.02344C34.6745 8.72396 34.4987 8.46354 34.2773 8.24219C34.056 8.02083 33.7891 7.83854 33.4766 7.69531C33.1641 7.55208 32.8385 7.48698 32.5 7.5C32.1484 7.5 31.8229 7.5651 31.5234 7.69531C31.224 7.82552 30.9635 8.0013 30.7422 8.22266C30.5208 8.44401 30.3385 8.71094 30.1953 9.02344C30.0521 9.33594 29.987 9.66146 30 10Z" fill="black"/>
</g>
<defs>
<clipPath id="clip0_753_5630">
<rect width="40" height="40" fill="white"/>
</clipPath>
</defs>
</svg>
