<svg width="18" height="18" viewBox="0 0 18 18" fill="none" xmlns="http://www.w3.org/2000/svg">
<g clip-path="url(#clip0_4578_1730)">
<path d="M14.7305 18H3.26662C2.40086 17.998 1.57108 17.6442 0.95889 17.0159C0.346702 16.3877 0.00193467 15.5362 0 14.6477V2.28195C0 2.04792 0.0906038 1.82346 0.251859 1.65797C0.413115 1.49249 0.631822 1.39953 0.859872 1.39953C1.08792 1.39953 1.30663 1.49249 1.46788 1.65797C1.62914 1.82346 1.71974 2.04792 1.71974 2.28195V14.6477C1.72052 15.0685 1.88373 15.4718 2.17366 15.7694C2.46359 16.0669 2.8566 16.2344 3.26662 16.2352H14.7305C15.1405 16.2344 15.5335 16.0669 15.8234 15.7694C16.1134 15.4718 16.2766 15.0685 16.2773 14.6477V1.76482H4.46923V13.2843C4.46923 13.5183 4.37867 13.7428 4.21742 13.9082C4.05616 14.0737 3.83745 14.1667 3.6094 14.1667C3.38135 14.1667 3.1626 14.0737 3.00135 13.9082C2.84009 13.7428 2.74953 13.5183 2.74953 13.2843V1.03273C2.74992 0.758955 2.85607 0.496507 3.04471 0.302918C3.23335 0.109328 3.48907 0.000397643 3.75585 0H16.9907C17.2575 0.000397643 17.5133 0.109328 17.7019 0.302918C17.8906 0.496507 17.9967 0.758955 17.9971 1.03273V14.6477C17.9952 15.5362 17.6504 16.3877 17.0382 17.0159C16.426 17.6442 15.5962 17.998 14.7305 18Z" fill="#191A4E"/>
<path d="M13.7666 7.53119V9.25091H11.7539V7.53119H13.7666ZM14.7203 6.11964H10.8003C10.688 6.11964 10.5804 6.1654 10.501 6.24688C10.4216 6.32835 10.377 6.43886 10.377 6.55408V10.231C10.3773 10.346 10.4221 10.4561 10.5015 10.5373C10.5808 10.6184 10.6883 10.664 10.8003 10.664H14.7203C14.8323 10.664 14.9397 10.6184 15.0191 10.5373C15.0984 10.4561 15.1432 10.346 15.1436 10.231V6.55408C15.1436 6.49678 15.1325 6.44005 15.1111 6.38714C15.0896 6.33424 15.0582 6.2862 15.0186 6.24582C14.9789 6.20544 14.9319 6.1735 14.8802 6.15184C14.8285 6.13019 14.7731 6.11924 14.7173 6.11964H14.7203Z" fill="#191A4E"/>
<path d="M14.9619 4.30393H6.04834C5.87143 4.29555 5.70448 4.21753 5.58217 4.08609C5.45987 3.95464 5.3916 3.77989 5.3916 3.59815C5.3916 3.41641 5.45987 3.24166 5.58217 3.11022C5.70448 2.97878 5.87143 2.90073 6.04834 2.89235H14.9619C15.0549 2.88795 15.1478 2.90296 15.235 2.93644C15.3221 2.96992 15.4018 3.02119 15.4691 3.08716C15.5364 3.15314 15.59 3.23243 15.6266 3.32026C15.6633 3.40809 15.6821 3.50263 15.6821 3.59815C15.6821 3.69368 15.6633 3.78819 15.6266 3.87602C15.59 3.96385 15.5364 4.04314 15.4691 4.10912C15.4018 4.17509 15.3221 4.22638 15.235 4.25986C15.1478 4.29334 15.0549 4.30833 14.9619 4.30393Z" fill="#191A4E"/>
<path d="M13.2261 13.6794H6.04834C5.95536 13.6838 5.86247 13.6688 5.77529 13.6353C5.68811 13.6018 5.60846 13.5506 5.54114 13.4846C5.47382 13.4186 5.42021 13.3393 5.3836 13.2515C5.34699 13.1637 5.32813 13.0691 5.32812 12.9736C5.32813 12.8781 5.34699 12.7836 5.3836 12.6957C5.42021 12.6079 5.47382 12.5286 5.54114 12.4626C5.60846 12.3967 5.68811 12.3454 5.77529 12.3119C5.86247 12.2784 5.95536 12.2634 6.04834 12.2678H13.2261C13.3191 12.2634 13.4119 12.2784 13.4991 12.3119C13.5863 12.3454 13.666 12.3967 13.7333 12.4626C13.8006 12.5286 13.8542 12.6079 13.8908 12.6957C13.9274 12.7836 13.9463 12.8781 13.9463 12.9736C13.9463 13.0691 13.9274 13.1637 13.8908 13.2515C13.8542 13.3393 13.8006 13.4186 13.7333 13.4846C13.666 13.5506 13.5863 13.6018 13.4991 13.6353C13.4119 13.6688 13.3191 13.6838 13.2261 13.6794Z" fill="#191A4E"/>
<path d="M8.61472 7.63789H6.04834C5.87143 7.62951 5.70448 7.55149 5.58217 7.42005C5.45987 7.28861 5.3916 7.11386 5.3916 6.93211C5.3916 6.75037 5.45987 6.57562 5.58217 6.44418C5.70448 6.31274 5.87143 6.23472 6.04834 6.22634H8.61472C8.70771 6.22193 8.80064 6.23692 8.88782 6.2704C8.975 6.30388 9.05465 6.35515 9.12197 6.42113C9.18929 6.4871 9.24285 6.56639 9.27946 6.65422C9.31608 6.74205 9.33499 6.83659 9.33499 6.93211C9.33499 7.02764 9.31608 7.12218 9.27946 7.21001C9.24285 7.29783 9.18929 7.37713 9.12197 7.4431C9.05465 7.50907 8.975 7.56034 8.88782 7.59383C8.80064 7.62731 8.70771 7.64229 8.61472 7.63789Z" fill="#191A4E"/>
<path d="M8.61472 10.0295H6.04834C5.87143 10.0211 5.70448 9.94311 5.58217 9.81167C5.45987 9.68023 5.3916 9.50548 5.3916 9.32374C5.3916 9.14199 5.45987 8.96722 5.58217 8.83578C5.70448 8.70434 5.87143 8.62632 6.04834 8.61794H8.61472C8.70771 8.61353 8.80064 8.62854 8.88782 8.66203C8.975 8.69551 9.05465 8.74678 9.12197 8.81275C9.18929 8.87872 9.24285 8.95802 9.27946 9.04584C9.31608 9.13367 9.33499 9.22821 9.33499 9.32374C9.33499 9.41926 9.31608 9.51378 9.27946 9.60161C9.24285 9.68943 9.18929 9.76873 9.12197 9.8347C9.05465 9.90067 8.975 9.95197 8.88782 9.98545C8.80064 10.0189 8.70771 10.0339 8.61472 10.0295Z" fill="#191A4E"/>
</g>
<defs>
<clipPath id="clip0_4578_1730">
<rect width="18" height="18" fill="white"/>
</clipPath>
</defs>
</svg>
