<svg width="48" height="49" viewBox="0 0 48 49" fill="none" xmlns="http://www.w3.org/2000/svg">
<path d="M40.3449 14.3501H36.6229L27.4909 23.4781C27.8055 24.2797 27.8344 25.1651 27.5728 25.9855C27.3113 26.8059 26.7753 27.5112 26.0548 27.9829C25.3344 28.4545 24.4736 28.6637 23.617 28.5753C22.7605 28.4869 21.9605 28.1062 21.3517 27.4973C20.7428 26.8885 20.3621 26.0885 20.2737 25.232C20.1853 24.3755 20.3945 23.5146 20.8661 22.7942C21.3378 22.0738 22.0431 21.5377 22.8635 21.2762C23.6839 21.0146 24.5694 21.0436 25.3709 21.3581L34.5009 12.2281V8.50608C34.5011 8.00803 34.6989 7.53042 35.0509 7.17808L38.5109 3.71808C38.575 3.65363 38.6553 3.60785 38.7434 3.58565C38.8315 3.56345 38.924 3.56568 39.0109 3.59208C39.1889 3.64408 39.3209 3.79208 39.3569 3.97408L40.2769 8.57608L44.8769 9.49608C45.0569 9.53208 45.2049 9.66408 45.2569 9.84208C45.2832 9.92854 45.2855 10.0205 45.2637 10.1082C45.2419 10.1959 45.1967 10.276 45.1329 10.3401L41.6709 13.8001C41.3191 14.1516 40.8423 14.3494 40.3449 14.3501Z" fill="white"/>
<path d="M40.3449 14.3501H36.6229L27.4909 23.4781C27.8055 24.2797 27.8344 25.1651 27.5728 25.9855C27.3113 26.8059 26.7753 27.5112 26.0548 27.9829C25.3344 28.4545 24.4736 28.6637 23.617 28.5753C22.7605 28.4869 21.9605 28.1062 21.3517 27.4973C20.7428 26.8885 20.3621 26.0885 20.2737 25.232C20.1853 24.3755 20.3945 23.5146 20.8661 22.7942C21.3378 22.0738 22.0431 21.5377 22.8635 21.2762C23.6839 21.0146 24.5694 21.0436 25.3709 21.3581L34.5009 12.2281V8.50608C34.5011 8.00803 34.6989 7.53042 35.0509 7.17808L38.5109 3.71808C38.575 3.65363 38.6553 3.60785 38.7434 3.58565C38.8315 3.56345 38.924 3.56568 39.0109 3.59208C39.1889 3.64408 39.3209 3.79208 39.3569 3.97408L40.2769 8.57608L44.8769 9.49608C45.0569 9.53208 45.2049 9.66408 45.2569 9.84208C45.2832 9.92854 45.2855 10.0205 45.2637 10.1082C45.2419 10.1959 45.1967 10.276 45.1329 10.3401L41.6709 13.8001C41.3191 14.1516 40.8423 14.3494 40.3449 14.3501Z" fill="url(#paint0_linear_753_6911)"/>
<path d="M5.25 24.8501C5.25 29.8229 7.22544 34.5921 10.7417 38.1084C14.2581 41.6247 19.0272 43.6001 24 43.6001C26.4623 43.6001 28.9005 43.1151 31.1753 42.1729C33.4502 41.2306 35.5172 39.8495 37.2583 38.1084C38.9994 36.3673 40.3805 34.3003 41.3227 32.0254C42.265 29.7506 42.75 27.3124 42.75 24.8501C42.75 23.0541 42.498 21.3181 42.028 19.6761C41.9346 19.2991 41.991 18.9005 42.1855 18.5643C42.38 18.2281 42.6973 17.9804 43.0707 17.8734C43.4441 17.7664 43.8444 17.8084 44.1875 17.9905C44.5305 18.1727 44.7895 18.4808 44.91 18.8501C45.458 20.7581 45.75 22.7701 45.75 24.8501C45.75 36.8621 36.012 46.6001 24 46.6001C11.988 46.6001 2.25 36.8621 2.25 24.8501C2.25 12.8381 11.988 3.10011 24 3.10011C26.03 3.09811 28.048 3.38011 30 3.93811C30.1903 3.9915 30.3682 4.08198 30.5235 4.20435C30.6787 4.32672 30.8082 4.47857 30.9046 4.65116C31.0009 4.82376 31.0622 5.0137 31.0849 5.21006C31.1076 5.40642 31.0913 5.60534 31.0369 5.79537C30.9825 5.9854 30.891 6.1628 30.7678 6.31737C30.6446 6.47194 30.492 6.60063 30.3189 6.69604C30.1458 6.79146 29.9555 6.85172 29.759 6.87335C29.5626 6.89499 29.3637 6.87757 29.174 6.82211C27.4913 6.34182 25.7499 6.09881 24 6.10011C19.0272 6.10011 14.2581 8.07555 10.7417 11.5919C7.22544 15.1082 5.25 19.8773 5.25 24.8501Z" fill="white"/>
<path d="M5.25 24.8501C5.25 29.8229 7.22544 34.5921 10.7417 38.1084C14.2581 41.6247 19.0272 43.6001 24 43.6001C26.4623 43.6001 28.9005 43.1151 31.1753 42.1729C33.4502 41.2306 35.5172 39.8495 37.2583 38.1084C38.9994 36.3673 40.3805 34.3003 41.3227 32.0254C42.265 29.7506 42.75 27.3124 42.75 24.8501C42.75 23.0541 42.498 21.3181 42.028 19.6761C41.9346 19.2991 41.991 18.9005 42.1855 18.5643C42.38 18.2281 42.6973 17.9804 43.0707 17.8734C43.4441 17.7664 43.8444 17.8084 44.1875 17.9905C44.5305 18.1727 44.7895 18.4808 44.91 18.8501C45.458 20.7581 45.75 22.7701 45.75 24.8501C45.75 36.8621 36.012 46.6001 24 46.6001C11.988 46.6001 2.25 36.8621 2.25 24.8501C2.25 12.8381 11.988 3.10011 24 3.10011C26.03 3.09811 28.048 3.38011 30 3.93811C30.1903 3.9915 30.3682 4.08198 30.5235 4.20435C30.6787 4.32672 30.8082 4.47857 30.9046 4.65116C31.0009 4.82376 31.0622 5.0137 31.0849 5.21006C31.1076 5.40642 31.0913 5.60534 31.0369 5.79537C30.9825 5.9854 30.891 6.1628 30.7678 6.31737C30.6446 6.47194 30.492 6.60063 30.3189 6.69604C30.1458 6.79146 29.9555 6.85172 29.759 6.87335C29.5626 6.89499 29.3637 6.87757 29.174 6.82211C27.4913 6.34182 25.7499 6.09881 24 6.10011C19.0272 6.10011 14.2581 8.07555 10.7417 11.5919C7.22544 15.1082 5.25 19.8773 5.25 24.8501Z" fill="url(#paint1_linear_753_6911)"/>
<path d="M14.2495 24.8501C14.2551 26.1748 14.5306 27.4844 15.0592 28.699C15.5878 29.9136 16.3584 31.0077 17.324 31.9146C18.2896 32.8214 19.4298 33.522 20.6752 33.9734C21.9205 34.4249 23.2448 34.6178 24.5672 34.5404C25.8896 34.4629 27.1824 34.1168 28.3665 33.5231C29.5507 32.9293 30.6014 32.1005 31.4545 31.0871C32.3077 30.0738 32.9453 28.8972 33.3285 27.6292C33.7118 26.3612 33.8325 25.0284 33.6835 23.7121C33.6415 23.4455 33.6724 23.1726 33.7729 22.9221C33.8734 22.6717 34.0398 22.4531 34.2544 22.2895C34.469 22.1259 34.7239 22.0234 34.9921 21.9929C35.2602 21.9624 35.5316 22.0049 35.7775 22.1161C36.2795 22.3401 36.6175 22.8181 36.6615 23.3661C36.972 25.9966 36.4553 28.6585 35.1833 30.9818C33.9112 33.3051 31.9469 35.1744 29.5634 36.3298C27.18 37.4853 24.4957 37.8694 21.8839 37.429C19.272 36.9885 16.8622 35.7453 14.9895 33.8721C13.1173 32.001 11.8737 29.5936 11.4313 26.9839C10.9889 24.3741 11.3696 21.6914 12.5205 19.3078C13.6715 16.9242 15.5356 14.9577 17.8545 13.6813C20.1733 12.4048 22.8319 11.8816 25.4615 12.1841C25.6603 12.2026 25.8534 12.2605 26.0295 12.3545C26.2056 12.4486 26.3612 12.5768 26.4871 12.7318C26.613 12.8867 26.7067 13.0652 26.7627 13.2569C26.8187 13.4485 26.8359 13.6494 26.8132 13.8477C26.7906 14.0461 26.7286 14.2379 26.6309 14.412C26.5331 14.5861 26.4016 14.7389 26.2441 14.8615C26.0865 14.9841 25.906 15.074 25.7133 15.126C25.5205 15.178 25.3193 15.1909 25.1215 15.1641C23.7555 15.0062 22.3716 15.1389 21.0606 15.5536C19.7496 15.9682 18.5411 16.6555 17.5144 17.5702C16.4877 18.4849 15.666 19.6063 15.1034 20.861C14.5407 22.1156 14.2497 23.4751 14.2495 24.8501Z" fill="white"/>
<path d="M14.2495 24.8501C14.2551 26.1748 14.5306 27.4844 15.0592 28.699C15.5878 29.9136 16.3584 31.0077 17.324 31.9146C18.2896 32.8214 19.4298 33.522 20.6752 33.9734C21.9205 34.4249 23.2448 34.6178 24.5672 34.5404C25.8896 34.4629 27.1824 34.1168 28.3665 33.5231C29.5507 32.9293 30.6014 32.1005 31.4545 31.0871C32.3077 30.0738 32.9453 28.8972 33.3285 27.6292C33.7118 26.3612 33.8325 25.0284 33.6835 23.7121C33.6415 23.4455 33.6724 23.1726 33.7729 22.9221C33.8734 22.6717 34.0398 22.4531 34.2544 22.2895C34.469 22.1259 34.7239 22.0234 34.9921 21.9929C35.2602 21.9624 35.5316 22.0049 35.7775 22.1161C36.2795 22.3401 36.6175 22.8181 36.6615 23.3661C36.972 25.9966 36.4553 28.6585 35.1833 30.9818C33.9112 33.3051 31.9469 35.1744 29.5634 36.3298C27.18 37.4853 24.4957 37.8694 21.8839 37.429C19.272 36.9885 16.8622 35.7453 14.9895 33.8721C13.1173 32.001 11.8737 29.5936 11.4313 26.9839C10.9889 24.3741 11.3696 21.6914 12.5205 19.3078C13.6715 16.9242 15.5356 14.9577 17.8545 13.6813C20.1733 12.4048 22.8319 11.8816 25.4615 12.1841C25.6603 12.2026 25.8534 12.2605 26.0295 12.3545C26.2056 12.4486 26.3612 12.5768 26.4871 12.7318C26.613 12.8867 26.7067 13.0652 26.7627 13.2569C26.8187 13.4485 26.8359 13.6494 26.8132 13.8477C26.7906 14.0461 26.7286 14.2379 26.6309 14.412C26.5331 14.5861 26.4016 14.7389 26.2441 14.8615C26.0865 14.9841 25.906 15.074 25.7133 15.126C25.5205 15.178 25.3193 15.1909 25.1215 15.1641C23.7555 15.0062 22.3716 15.1389 21.0606 15.5536C19.7496 15.9682 18.5411 16.6555 17.5144 17.5702C16.4877 18.4849 15.666 19.6063 15.1034 20.861C14.5407 22.1156 14.2497 23.4751 14.2495 24.8501Z" fill="url(#paint2_linear_753_6911)"/>
<defs>
<linearGradient id="paint0_linear_753_6911" x1="20.2539" y1="16.0828" x2="45.2785" y2="16.0828" gradientUnits="userSpaceOnUse">
<stop stop-color="#02AAB0"/>
<stop offset="1" stop-color="#00CDAC"/>
</linearGradient>
<linearGradient id="paint1_linear_753_6911" x1="2.25" y1="24.8501" x2="45.75" y2="24.8501" gradientUnits="userSpaceOnUse">
<stop stop-color="#02AAB0"/>
<stop offset="1" stop-color="#00CDAC"/>
</linearGradient>
<linearGradient id="paint2_linear_753_6911" x1="11.252" y1="24.8535" x2="36.7494" y2="24.8535" gradientUnits="userSpaceOnUse">
<stop stop-color="#02AAB0"/>
<stop offset="1" stop-color="#00CDAC"/>
</linearGradient>
</defs>
</svg>
