<svg xmlns="http://www.w3.org/2000/svg" width="70" height="70" viewBox="0 0 70 70">
    <g data-name="Group 26478">
        <path data-name="Rectangle 6838" style="fill:none" d="M0 0h70v70H0z"/>
        <path data-name="Path 24088" d="M274.594 31.052h-5.674a1.566 1.566 0 0 1-1.562-1.562l-.781-13.234s-1.264-10.962 5.29-12.4c0 0 2.665-5.186 11.2-3.524a3.315 3.315 0 0 1 .342.1 12.974 12.974 0 0 1 5.314 3.2 13.724 13.724 0 0 1 3.83 10.769c0 3.8.06-.423-.781 15.091a1.566 1.566 0 0 1-1.562 1.562h-6.037" transform="translate(-230.558 2.42)" style="fill:#7f7369"/>
        <path data-name="Path 24089" d="M275.578 31.13v-1.857a9.821 9.821 0 0 1-5.879-8.5c0-.024-.005-.1-.005-.115a9.95 9.95 0 0 1-.008-.387v-5.584c-.059-3.118.424-9.66 5.384-10.75 0 0 1.633-3.177 6.436-3.761-3.66-.4-7.952.685-9.644 3.761-4.423.972-5.487 6.357-5.382 10.859q0 .094.005.184c.026.835.086 1.359.086 1.359l.781 13.234a1.566 1.566 0 0 0 1.562 1.562z" transform="translate(-230.555 2.341)" style="fill:#72655a"/>
        <path data-name="Path 24090" d="m28.7 260.3 1.679-15c.588-4.53.347-6.27 1.809-8.044a6.72 6.72 0 0 0-1.521-1.32l-.047-.012c-1.581-.947-2.911-.986-5.848-1.794l-3-1.438v-3.588a9.847 9.847 0 0 1-7.832.02l-.013 3.582-2.991 1.423c-2.918.8-4.265.846-5.848 1.794l-.047.012a4.2 4.2 0 0 0-.413.289c-2.263 1.625-2.3 3.735-2.494 5.295l-.9 8.032C-.034 261.05 0 260.125 0 261.011a3.473 3.473 0 0 0 3.6 3.661h28.588c-2.436-.043-3.702-1.901-3.488-4.372z" transform="translate(2.417 -197.884)" style="fill:#dd9a5e"/>
        <g data-name="Group 26486">
            <path data-name="Path 24091" d="M3.242 301.587c-.022-1.267.243-1.254 2.229-21.821a5.755 5.755 0 0 1 2.208-4.242 8.714 8.714 0 0 0-2.594.984l-.047.012a4.219 4.219 0 0 0-.413.289c-2.263 1.625-2.3 3.735-2.494 5.295C2.114 282.246 0 300.97 0 301.592a3.473 3.473 0 0 0 3.6 3.661h3.236a3.462 3.462 0 0 1-3.594-3.666z" transform="translate(2.418 -238.464)" style="fill:#d38d54"/>
            <path data-name="Path 24092" d="M113.958 235.916v-5.867a9.74 9.74 0 0 1-3.226-.778l-.013 3.582z" transform="translate(-94.379 -198.026)" style="fill:#d38d54"/>
        </g>
        <path data-name="Path 24093" d="M263.74 263.021c-2.287-20.252-2.158-19.68-2.363-20.67a5.617 5.617 0 0 0-2.646-3.7l-.047-.012a7.984 7.984 0 0 0-1.9-.81l-6.594-1.641a.849.849 0 0 1-.363-.78v-3.18a9.841 9.841 0 0 1-7.832-.017v3.2a.849.849 0 0 1-.363.78c-5.578 1.486-6.819 1.451-8.489 2.452l-.047.012a5.752 5.752 0 0 0-2.8 4.671l-2.2 19.7c-.221 2.553 1.133 4.367 3.569 4.367h28.505a3.473 3.473 0 0 0 3.594-3.661 6.9 6.9 0 0 0-.024-.711z" transform="translate(-196.977 -200.6)" style="fill:#eab883"/>
        <path data-name="Path 24094" d="M231.308 300.654a6.836 6.836 0 0 1 .025-.7l2.2-20.861a5.776 5.776 0 0 1 2.749-4.636 10.557 10.557 0 0 0-3.136 1.119l-.047.012a5.751 5.751 0 0 0-2.8 4.671l-2.2 19.7c-.221 2.553 1.133 4.367 3.57 4.367h3.231a3.473 3.473 0 0 1-3.592-3.672z" transform="translate(-196.978 -237.527)" style="fill:#d8a373"/>
        <path data-name="Path 24095" d="M271.067 252.268c-1.039-9.226-.994-9.119-1.159-9.918a5.624 5.624 0 0 0-2.646-3.7l-.047-.012a7.985 7.985 0 0 0-1.9-.81l-6.594-1.641a.849.849 0 0 1-.363-.78v-3.197a9.759 9.759 0 0 1-7.832 0v3.197a.849.849 0 0 1-.363.78c-5.578 1.486-6.819 1.451-8.489 2.452l-.047.012a5.78 5.78 0 0 0-2.8 4.671l-1 8.943 6.308.662a.635.635 0 0 1 .568.663l-.693 13.794h20.911l-.726-13.741a.69.69 0 0 1 .617-.722z" transform="translate(-205.508 -200.599)" style="fill:#d83d3d"/>
        <path data-name="Path 24096" d="m237.827 289.194 3.136.329 1.1-10.438a5.776 5.776 0 0 1 2.749-4.636 10.7 10.7 0 0 0-3.136 1.119l-.047.012a5.617 5.617 0 0 0-2.646 3.7c-.2.978-.161 1.192-1.156 9.914z" transform="translate(-205.507 -237.526)" style="fill:#a82626"/>
        <path data-name="Path 24097" d="m39.179 260.889-.047-.012c-1.584-.949-2.936-.993-5.828-1.789v-.005l-3-1.438-.022.033v-.012l-3.917 3.688-3.906-3.694-2.991 1.423c-2.918.8-4.265.846-5.848 1.794l-.047.012a5.752 5.752 0 0 0-2.8 4.671l-1 8.945 6.188.649a.739.739 0 0 1 .661.772l-.688 13.7h20.905l-.726-13.739a.692.692 0 0 1 .618-.724l1.654-.173c1.213-10.06.858-10.963 2.327-12.761a8.9 8.9 0 0 0-1.533-1.34z" transform="translate(-6.119 -222.833)" style="fill:#70bbef"/>
        <path data-name="Path 24098" d="M14.01 279.766a5.755 5.755 0 0 1 2.208-4.242 8.726 8.726 0 0 0-2.594.984l-.047.012a6.751 6.751 0 0 0-1.533 1.334c-1.568 1.919-1.141 3.433-2.273 12.282l3.2.336c-.009.102.129-1.272 1.039-10.706z" transform="translate(-6.122 -238.465)" style="fill:#4caee5"/>
        <path data-name="Path 24099" d="m328.548 234.147-2.641-.657a.849.849 0 0 1-.363-.78v-3.586a9.764 9.764 0 0 1-7.832 0v3.586a.85.85 0 0 1-.363.78l-2.68.667a7.952 7.952 0 0 0 13.879-.01z" transform="translate(-272.69 -197.898)" style="fill:#eab883"/>
        <path d="M44.139 15.652v-3.376A12.3 12.3 0 0 1 63.433 2.2c6.322 4.414 5.118 10.905 5.257 13.448" transform="translate(-36.169 2.421)" style="fill:#4c4846"/>
        <path d="M44.139 15.652v-3.376A12.3 12.3 0 0 1 63.433 2.2c6.322 4.414 5.118 10.905 5.257 13.448" transform="translate(-36.169 2.421)" style="fill:#4c4846" data-name="Group 26487"/>
        <path data-name="Path 24100" d="M57.638.066a12.285 12.285 0 0 0-13.5 12.214v3.376h2.448V12.28A12.278 12.278 0 0 1 57.638.066z" transform="translate(-36.169 2.417)" style="fill:#3f3b39"/>
        <g data-name="Group 26488">
            <path data-name="Path 24101" d="M223.015 115.419a2.843 2.843 0 0 1-3.059 2.561v-5.123a2.843 2.843 0 0 1 3.059 2.562z" transform="translate(-189.883 -96.248)" style="fill:#dd9a5e"/>
            <path data-name="Path 24102" d="M39.279 115.419a2.843 2.843 0 0 0 3.059 2.561v-5.123a2.843 2.843 0 0 0-3.059 2.562z" transform="translate(-31.92 -96.248)" style="fill:#dd9a5e"/>
        </g>
        <g data-name="Group 26489">
            <path data-name="Path 24103" d="M219.956 125.485v2.3a2.843 2.843 0 0 0 3.059-2.561 2.219 2.219 0 0 0-.326-1.151 3.163 3.163 0 0 1-2.733 1.412z" transform="translate(-189.883 -106.055)" style="fill:#d38d54"/>
            <path data-name="Path 24104" d="M39.592 124.075c-1.015 1.686.441 3.712 2.732 3.712v-2.3a3.163 3.163 0 0 1-2.732-1.412z" transform="translate(-31.906 -106.055)" style="fill:#d38d54"/>
        </g>
        <path data-name="Path 24105" d="M80.951 74.71a1.4 1.4 0 0 0-1.624-1.4c-.182.028-.384.058-.513.076a37.93 37.93 0 0 1-11.366-.076 1.4 1.4 0 0 0-1.624 1.4 4 4 0 0 1-1.583 3.218 2.956 2.956 0 0 1-.682.385c0 6.362-.076 6.787.265 8.228a9.831 9.831 0 0 0 18.7 1.343c.94-2.374.686-4.176.686-9.57a3.837 3.837 0 0 1-2.259-3.604z" transform="translate(-53.142 -61.659)" style="fill:#edae6b"/>
        <path data-name="Path 24106" d="M67.21 88.165c-.694-2.474-.309-3.985-.417-8.673a1.368 1.368 0 0 1 .538-1.1 4.431 4.431 0 0 0 1.729-3.636 1.517 1.517 0 0 1 .577-1.168 38.853 38.853 0 0 1-2.141-.273 1.4 1.4 0 0 0-1.624 1.4 4 4 0 0 1-1.583 3.218 2.954 2.954 0 0 1-.682.385c0 6.4 0 6.07.009 6.385a9.818 9.818 0 0 0 7.4 9.1c-.184-.147-3.026-2.854-3.806-5.638z" transform="translate(-53.189 -61.66)" style="fill:#dd9a5e"/>
        <path data-name="Path 24107" d="M136 287.816v-7.973l-.971.915-.971-.919v7.978a.971.971 0 1 0 1.943 0z" transform="translate(-114.783 -242.236)" style="fill:#4caee5"/>
        <path data-name="Path 24108" d="m145.723 257.645-3.939 3.709 2.127 2.143a.957.957 0 0 0 1.434-.085l3.382-4.329z" transform="translate(-121.538 -222.833)" style="fill:#dadada"/>
        <g data-name="Group 26490">
            <path data-name="Path 24109" d="m147.236 258.369-1.512-.724-3.939 3.709 1.407 1.418z" transform="translate(-121.538 -222.833)" style="fill:#ceccca"/>
            <path data-name="Path 24110" d="M161 305.775a.959.959 0 0 0 .562.068z" transform="translate(-138.338 -264.912)" style="fill:#ceccca"/>
        </g>
        <path data-name="Path 24111" d="m89.6 257.763 3.906 3.694-2.13 2.143a.957.957 0 0 1-1.434-.085l-3.382-4.329z" transform="translate(-73.257 -222.936)" style="fill:#dadada"/>
        <path data-name="Path 24112" d="m100.736 261.443 1.346 1.432 1.407-1.418-3.905-3.694-1.6.75z" transform="translate(-83.244 -222.936)" style="fill:#ceccca"/>
        <path data-name="Path 24113" d="M320.967 234.688v-4.769a9.7 9.7 0 0 1-3.254-.8c-.1 2.832.257 4.085-.363 4.366l-2.68.667a8.507 8.507 0 0 0 2.633 2.769l2.783-1.023s.881-.433.881-1.21z" transform="translate(-272.69 -197.897)" style="fill:#d8a373"/>
        <path data-name="Path 24114" d="M310.668 92.6a1.037 1.037 0 0 1 .989 1.035v.743a13.229 13.229 0 0 1-.417 4.28 9.83 9.83 0 0 1-19.225-2.341c0-.037 0 .011-.006-.115s-.008-.257-.008-.387v-5.488a1.221 1.221 0 0 1 .973-1.192 7.867 7.867 0 0 0 4.1-2.355.9.9 0 0 1 1.344.043 16.593 16.593 0 0 0 12.25 5.777z" transform="translate(-252.87 -73.203)" style="fill:#f7cf9c"/>
        <path data-name="Path 24115" d="M296.256 112.345c-1.3-2.622-1-4.481-1.017-8.126v-3.794a7.626 7.626 0 0 1-2.265.887A1.221 1.221 0 0 0 292 102.5v5.483c0 .162.009.415.009.43s.014.24.023.354a9.833 9.833 0 0 0 11.415 8.908 9.834 9.834 0 0 1-7.191-5.33z" transform="translate(-252.87 -85.378)" style="fill:#eab883"/>
        <g data-name="Group 26491">
            <path data-name="Path 24116" d="m378.68 269.553-1.895-.472a8.1 8.1 0 0 1-6.942 4.075s8.876 8.877 8.837-3.603z" transform="translate(-320.926 -232.832)" style="fill:#b72c2c"/>
            <path data-name="Path 24117" d="m299.884 269.553 1.895-.472a8.1 8.1 0 0 0 6.942 4.075s-8.876 8.877-8.837-3.603z" transform="translate(-259.762 -232.832)" style="fill:#b72c2c"/>
        </g>
        <g data-name="Group 26492">
            <path data-name="Path 24118" d="M305.112 289.421c-1.566.834-3.371 1.232-4.527-.315.92 9.387 8.749 1.558 8.749 1.558a7.8 7.8 0 0 1-4.222-1.243z" transform="translate(-260.375 -250.339)" style="fill:#a82626"/>
            <path data-name="Path 24119" d="M374.065 289.421c1.566.834 3.371 1.232 4.527-.315-.92 9.387-8.749 1.558-8.749 1.558a7.8 7.8 0 0 0 4.222-1.243z" transform="translate(-320.926 -250.339)" style="fill:#a82626"/>
        </g>
        <path data-name="Path 24120" d="M203.082 254.721a8.574 8.574 0 0 0-14.006.819c-1.81 2.924-1.127 5.588-1.277 6.4h17.135c-.055-1.672.407-4.373-1.852-7.219z" transform="translate(-161.762 -217.441)" style="fill:#996123"/>
        <path data-name="Path 24121" d="M190.123 258.056c.038-.162.129-.483.133-.5a8.571 8.571 0 0 1 7.157-6.023 8.566 8.566 0 0 0-8.337 4c-1.81 2.924-1.127 5.587-1.277 6.4h2.093a15.387 15.387 0 0 1 .231-3.877z" transform="translate(-161.762 -217.437)" style="fill:#8e551c"/>
        <path data-name="Path 24122" d="M315.4 360.1a11.69 11.69 0 0 0-2.473-4.553 3.123 3.123 0 0 1-1.7.832 6.616 6.616 0 0 1 .909 4.645.737.737 0 0 0 .885.768l1.586-.329a1.061 1.061 0 0 0 .793-1.363z" transform="translate(-269.675 -308.425)" style="fill:#996123"/>
        <path data-name="Path 24123" d="M310.783 326.524a2.757 2.757 0 0 1-2.966 2.483v-4.966a2.757 2.757 0 0 1 2.966 2.483z" transform="translate(-266.698 -280.882)" style="fill:#efd0a3"/>
        <path data-name="Path 24124" d="M167.2 360.1a11.691 11.691 0 0 1 2.473-4.553 3.123 3.123 0 0 0 1.7.832 6.616 6.616 0 0 0-.909 4.645.737.737 0 0 1-.885.768L168 361.46a1.061 1.061 0 0 1-.8-1.36z" transform="translate(-143.718 -308.425)" style="fill:#8e551c"/>
        <path data-name="Path 24125" d="M180.589 326.524a2.757 2.757 0 0 0 2.966 2.483v-4.966a2.757 2.757 0 0 0-2.966 2.483z" transform="translate(-155.465 -280.882)" style="fill:#efd0a3"/>
        <g data-name="Group 26493">
            <path data-name="Path 24126" d="M307.816 336.753v2.127c2.2 0 3.6-1.919 2.68-3.547a3.051 3.051 0 0 1-2.68 1.42z" transform="translate(-266.697 -290.755)" style="fill:#e2bf91"/>
            <path data-name="Path 24127" d="M180.859 335.333c-.924 1.63.489 3.547 2.68 3.547v-2.127a3.051 3.051 0 0 1-2.68-1.42z" transform="translate(-155.449 -290.755)" style="fill:#e2bf91"/>
        </g>
        <path data-name="Path 24128" d="m190.23 416.088-.676-6.038a3.836 3.836 0 0 0-1.859-3.1l-.031-.008c-1.1-.661-1.9-.633-5.627-1.625-.412-.186-.173-.985-.24-3.014a6.52 6.52 0 0 1-5.191-.011c-.066 1.982.173 2.838-.24 3.025-3.717.99-4.523.964-5.627 1.625l-.031.008a3.723 3.723 0 0 0-1.754 2.45c-.132.637-.1.689-.781 6.684h22.057z" transform="translate(-144.61 -349.3)" style="fill:#efd0a3"/>
        <path data-name="Path 24129" d="M168.171 438.3h22.057l-.676-6.038a3.84 3.84 0 0 0-1.859-3.1l-.031-.008c-1.093-.655-1.975-.657-4.927-1.451v.781a3.516 3.516 0 0 1-.364 1.563 3.21 3.21 0 0 1-.161.289l-.044.07a3.68 3.68 0 0 1-.192.267c-.031.038-.072.088-.1.125l-.016.018-.063.07-.007.007-.01.01-.076.077-.025.025-.1.1-.03.026-.066.056-.01.009-.04.032-.069.055-.045.034-.069.05-.035.024-.012.008-.073.048-.011.007-.034.022-.063.038-.021.013-.009.005-.028.016q-.061.035-.123.067l-.017.008h-.006l-.021.01-.083.041-.045.02-.084.037-.052.021-.081.032-.053.019-.084.029-.042.014h-.01l-.024.007-.069.02-.034.01h-.011q-.069.018-.14.034h-.021l-.063.013q-.084.016-.169.029-.17.025-.346.033h-.334a3.586 3.586 0 0 1-.346-.033q-.085-.012-.169-.029l-.063-.013h-.021a3.175 3.175 0 0 1-.14-.034h-.011l-.034-.01-.068-.02-.024-.007h-.01l-.042-.014-.084-.029-.053-.019-.081-.032-.052-.021-.084-.037-.045-.02-.083-.041-.021-.01h-.006l-.017-.008q-.062-.032-.123-.067l-.028-.016-.009-.005-.021-.013-.063-.038-.034-.022-.011-.007a3.528 3.528 0 0 1-1.464-1.941 5.936 5.936 0 0 1-.15-1.807l-.748.186c-2.346.64-3.157.644-4.2 1.271l-.031.008a3.735 3.735 0 0 0-1.754 2.45c-.14.633-.114.757-.789 6.686z" transform="translate(-144.608 -371.507)" style="fill:#f9b938"/>
        <g data-name="Group 26494">
            <path data-name="Path 24130" d="M170.594 438.074c.27-2.435.08-4.479 2.129-5.794l.031-.008a4.909 4.909 0 0 1 .728-.372q.07-.055.136-.1a10.428 10.428 0 0 0-2.88.941l-.031.008a3.723 3.723 0 0 0-1.759 2.476c-.13.639-.1.727-.776 6.657h2.016z" transform="translate(-144.609 -375.092)" style="fill:#eaa224"/>
            <path data-name="Path 24131" d="m199.721 485.476.09-2.811a.971.971 0 0 0-1.942-.062l-.092 2.874z" transform="translate(-170.492 -418.687)" style="fill:#eaa224"/>
            <path data-name="Path 24132" d="m300.068 485.477-.092-2.874a.971.971 0 0 0-1.942.063l.09 2.811h1.944z" transform="translate(-258.144 -418.688)" style="fill:#eaa224"/>
        </g>
        <path data-name="Path 24133" d="M230.681 407.368a1.27 1.27 0 0 0 .794-1.186v-3.34a6.48 6.48 0 0 1-2.6-.544c-.066 1.982.173 2.838-.24 3.025l-.675.168a5.941 5.941 0 0 0 .15 1.807 3.577 3.577 0 0 0 .379.838l2.19-.768z" transform="translate(-196.882 -349.301)" style="fill:#e2bf91"/>
        <path data-name="Path 24134" d="M210.125 305.074c-1.462 2.432-4.565 2.058-5.667 1.835a.333.333 0 0 0-.4.327c0 3.957-.121 4.827.277 6.142a6.516 6.516 0 0 0 12.752-1.884v-4.257a.333.333 0 0 0-.4-.327c-1.1.223-4.205.6-5.667-1.835a.523.523 0 0 0-.895-.001z" transform="translate(-175.969 -264.078)" style="fill:#fce3bb"/>
        <path data-name="Path 24135" d="M207.4 327.1c-.17-.981-.061-1.359-.1-5.653a7.642 7.642 0 0 1-2.84-.052.333.333 0 0 0-.4.327c0 4.017-.118 4.835.277 6.142a6.518 6.518 0 0 0 7.857 4.426 6.52 6.52 0 0 1-4.794-5.19z" transform="translate(-175.974 -278.561)" style="fill:#efd0a3"/>
    </g>
</svg>
