<svg width="40" height="40" viewBox="0 0 40 40" fill="none" xmlns="http://www.w3.org/2000/svg">
<path fill-rule="evenodd" clip-rule="evenodd" d="M29.0093 2.0834C29.0865 2.08345 29.1648 2.08348 29.2442 2.08348H30.2783C31.731 2.08343 32.9455 2.0834 33.9103 2.21272C34.9297 2.34937 35.8557 2.65062 36.6008 3.39353C37.3465 4.13697 37.6493 5.06169 37.7867 6.07982C37.9165 7.04252 37.9163 8.25402 37.9163 9.70168V10.7334C37.9163 10.8128 37.9163 10.8913 37.9165 10.9687C37.9173 12.7187 37.918 13.947 37.4512 15.0707C36.9843 16.194 36.1133 17.0615 34.8715 18.2985C34.8167 18.3532 34.761 18.4085 34.7047 18.4647L30.255 22.901L30.4102 23.1405C31.0662 24.1538 31.5977 24.9747 31.9815 25.6825C32.3788 26.4157 32.6613 27.1033 32.7743 27.8642C32.9562 29.0872 32.7918 30.3443 32.3097 31.4993C32.1308 31.9277 31.8215 32.3765 31.5043 32.7857C31.1718 33.2143 30.7655 33.6813 30.329 34.1568C29.4603 35.1035 28.4173 36.1433 27.4917 37.0662L27.34 37.2175C26.14 38.4138 24.0602 38.026 23.4203 36.4208C23.0408 35.469 22.8873 35.0897 22.6952 34.7392C22.517 34.4143 22.3125 34.1045 22.0838 33.8127C21.8403 33.502 21.5558 33.2145 20.8503 32.511L20.009 31.7733C19.9972 31.763 19.9857 31.7525 19.9743 31.7418C19.8185 31.762 19.6603 31.7723 19.4995 31.7723C18.447 31.7723 17.5787 31.333 16.7602 30.7103C15.986 30.1215 15.127 29.265 14.1 28.241L11.689 25.8373C10.6621 24.8135 9.80305 23.9572 9.21225 23.185C8.58782 22.3692 8.14569 21.5017 8.14569 20.4488C8.14569 20.2578 8.16034 20.0708 8.18882 19.8875L6.80479 18.5077C6.72409 18.4272 6.69177 18.395 6.65989 18.3642C6.03712 17.7598 5.30437 17.2792 4.50079 16.9482C4.45962 16.9312 4.41717 16.9143 4.31112 16.8723L3.68004 16.6222C1.99079 15.9529 1.53607 13.7728 2.82572 12.487L2.83749 12.4753C3.7632 11.5524 4.8061 10.5126 5.7555 9.64652C6.23254 9.21133 6.70087 8.80622 7.13075 8.4749C7.54127 8.15848 7.99092 7.85048 8.41965 7.6726C9.57669 7.19253 10.8357 7.02897 12.0602 7.20992C12.8217 7.32245 13.5104 7.60342 14.2456 7.99957C14.9553 8.38205 15.7785 8.91185 16.795 9.56608L17.0412 9.7245L21.4948 5.28405C21.551 5.2281 21.6063 5.17285 21.661 5.11834C22.9023 3.87949 23.772 3.01148 24.8977 2.54663C26.023 2.08192 27.2528 2.08254 29.0093 2.0834ZM15.2289 11.5313C14.2956 10.9311 13.6238 10.5044 13.0596 10.2004C12.4612 9.87792 12.0604 9.7371 11.6947 9.68307C10.9311 9.57022 10.1289 9.67008 9.37775 9.98173C9.26555 10.0283 9.02932 10.168 8.65694 10.455C8.3039 10.7271 7.89232 11.0812 7.44037 11.4935C6.5358 12.3187 5.52925 13.3218 4.5908 14.2574C4.5855 14.2627 4.58382 14.2656 4.58367 14.2659C4.5835 14.2662 4.58367 14.2659 4.58367 14.2659C4.5835 14.2665 4.58232 14.2714 4.58389 14.279C4.58545 14.2865 4.58829 14.2907 4.58905 14.2916C4.58952 14.292 4.59357 14.2951 4.60099 14.2981L5.24054 14.5515C5.33559 14.5891 5.39447 14.6125 5.45314 14.6366C6.5497 15.0884 7.55014 15.7445 8.4008 16.5699C8.44632 16.6141 8.49115 16.6588 8.5635 16.7308L9.35977 17.5248C9.46875 17.3893 9.58255 17.255 9.70007 17.1208C10.2364 16.5088 10.9254 15.8219 11.723 15.0267L15.2289 11.5313ZM22.424 30.566L22.5587 30.684L22.6447 30.7698C23.2957 31.4188 23.6992 31.821 24.0515 32.2707C24.364 32.6693 24.6435 33.0928 24.887 33.537C25.1532 34.0222 25.3593 34.5338 25.6812 35.3412L25.7148 35.3075C26.6533 34.3718 27.6595 33.3683 28.4872 32.4665C28.9007 32.016 29.2558 31.6057 29.5287 31.2537C29.8165 30.8823 29.9563 30.6473 30.0027 30.5363C30.3147 29.7888 30.4145 28.991 30.3015 28.2318C30.2477 27.869 30.1068 27.4703 29.7837 26.874C29.4782 26.3105 29.0492 25.6392 28.445 24.7055L24.9307 28.2093C24.1142 29.0233 23.4108 29.7247 22.7845 30.2657C22.6648 30.369 22.5448 30.4693 22.424 30.566ZM29.2442 4.58348C27.1578 4.58348 26.4618 4.6055 25.852 4.85734C25.2425 5.10902 24.7355 5.58348 23.26 7.05447L13.5153 16.77C12.6845 17.5982 12.0548 18.227 11.5803 18.7685C11.1037 19.3123 10.8603 19.6848 10.742 19.979C10.6731 20.1505 10.6457 20.2987 10.6457 20.4488C10.6457 20.733 10.743 21.0717 11.1976 21.6657C11.6741 22.2885 12.4112 23.027 13.5153 24.1278L13.7772 24.3888L16.328 21.8457C16.8168 21.3583 17.6083 21.3595 18.0957 21.8483C18.5832 22.3373 18.582 23.1287 18.0932 23.6162L15.5476 26.154L15.8042 26.4098C16.9082 27.5105 17.649 28.2455 18.2738 28.7207C18.8695 29.1738 19.2112 29.2723 19.4995 29.2723C19.6408 29.2723 19.7783 29.2485 19.9323 29.1918C20.2247 29.0842 20.5973 28.8512 21.1503 28.3735C21.7013 27.8978 22.3425 27.2595 23.1947 26.4098L32.9395 16.6943C34.4153 15.2229 34.8905 14.7178 35.1423 14.1115C35.3942 13.5057 35.4163 12.8144 35.4163 10.7334V9.78812C35.4163 8.2313 35.4137 7.18982 35.309 6.41392C35.2093 5.67439 35.0382 5.36577 34.8357 5.16395C34.6328 4.96162 34.3217 4.79024 33.5782 4.69057C32.799 4.58612 31.7535 4.58348 30.1923 4.58348H29.2442ZM27.7725 12.2059C26.9963 11.4319 25.7362 11.4319 24.9598 12.2059C24.1857 12.9778 24.1857 14.2277 24.9598 14.9996C25.7362 15.7735 26.9963 15.7735 27.7725 14.9996C28.5468 14.2277 28.5468 12.9778 27.7725 12.2059ZM23.1947 10.4355C24.9467 8.68873 27.7857 8.68873 29.5377 10.4355C31.2918 12.1843 31.2918 15.0212 29.5377 16.77C27.7857 18.5167 24.9467 18.5167 23.1947 16.77C21.4407 15.0212 21.4407 12.1843 23.1947 10.4355Z" fill="#222222"/>
</svg>
