<svg width="602" height="602" viewBox="0 0 602 602" fill="none" xmlns="http://www.w3.org/2000/svg">
<g opacity="0.1" clip-path="url(#clip0_3300_1526)">
<path d="M301.009 342.698C324.272 342.698 343.131 323.84 343.131 300.577C343.131 277.314 324.272 258.456 301.009 258.456C277.746 258.456 258.888 277.314 258.888 300.577C258.888 323.84 277.746 342.698 301.009 342.698Z" fill="#191A4E"/>
<path fill-rule="evenodd" clip-rule="evenodd" d="M304.104 211.791C375.921 212.28 454.275 217.52 508.06 265.482C509.64 266.893 511.164 268.36 512.65 269.875C525.339 282.808 531.97 303.69 521.727 320.876C500.713 356.158 453.72 371.547 408.222 381.019C340.177 395.185 269.028 395.298 201.012 382.825C161.872 375.639 121.849 363.044 94.0342 336.697C83.2077 326.444 73.9519 312.955 75.4005 297.943C77.752 273.656 101.051 258.07 120.663 247.516C175.135 218.206 241.505 211.65 304.104 211.791ZM298.893 222.825C230.942 223.286 157.395 227.622 104.927 271.069C103.092 272.584 101.324 274.174 99.6216 275.838C98.521 276.911 97.4581 278.03 96.4328 279.178C87.2241 289.525 84.0542 306.145 92.7456 318.571C101.493 331.072 114.775 340.093 128.452 347.448C179.603 374.952 240.047 379.834 298.978 380.041C358.641 380.257 420.168 374.82 472.871 347.57C493.866 336.706 517.494 320.753 516.657 300.21C515.886 281.36 497.506 269.715 483.745 261.4C480.02 259.152 476.191 257.073 472.307 255.116C419.989 228.901 358.679 222.693 298.893 222.825Z" fill="#191A4E"/>
<path fill-rule="evenodd" clip-rule="evenodd" d="M396.144 100.675C422.416 101.343 436.027 132.929 437.823 156.257C438.181 160.894 438.312 165.55 438.256 170.206C438.199 175.248 437.927 180.29 437.485 185.313C431.944 247.507 403.547 306.738 370.108 361.435C337.402 414.938 297.52 468.29 243.264 493.085C225.327 501.287 203.993 506.348 188.116 497.196C166.349 484.657 163.97 455.328 164.374 433.083C164.478 427.618 164.835 422.152 165.399 416.706C173.762 336.189 214.575 259.914 265.651 194.201C295.45 155.862 330.902 117.832 375.065 104.061C382.016 101.889 387.537 100.572 396.144 100.675ZM394.884 111.699C364.041 112.188 336.349 135.046 311.827 158.796C247.356 221.226 199.845 304.255 180.732 391.328C179.255 398.073 178.013 404.864 177.101 411.702C176.395 416.998 175.878 422.322 175.605 427.665C175.389 431.916 175.314 436.177 175.445 440.438C175.539 443.768 175.756 447.098 176.123 450.409C176.395 452.939 176.762 455.46 177.223 457.962C177.571 459.815 177.976 461.659 178.446 463.493C178.832 464.979 179.264 466.456 179.753 467.923C183.601 479.521 193.515 490.602 206.825 490.969C237.875 491.815 267.109 469.174 292.384 444.568C336.753 401.384 369.816 347.119 395.646 290.079C416.49 244.026 435.556 193.966 424.908 143.276C424.504 141.357 424.034 139.457 423.497 137.576C423.055 136.043 422.557 134.528 422.011 133.033C417.873 121.755 408.137 111.671 394.884 111.699Z" fill="#191A4E"/>
<path fill-rule="evenodd" clip-rule="evenodd" d="M207.963 101.089C241.486 101.738 271.596 124.492 298.328 149.973C347.109 196.469 383.088 255.615 410.385 317.866C431.53 366.091 450.982 420.224 433.694 471.112C428.247 487.15 414.467 501.824 396.097 502.2C362.413 502.877 331.194 478.383 304.104 452.018C236.144 385.854 185.689 298.508 168.4 205.875C167.158 199.253 166.171 192.574 165.493 185.868C164.938 180.393 164.59 174.891 164.496 169.388C164.421 164.948 164.515 160.508 164.825 156.088C165.032 153.134 165.333 150.199 165.738 147.274C166.124 144.527 166.613 141.79 167.224 139.081C167.629 137.284 168.08 135.507 168.597 133.738C173.667 116.403 186.855 100.958 207.963 101.089ZM206.693 112.123C187.062 112.555 178.079 135.704 176.273 151.949C175.906 155.279 175.68 158.637 175.577 161.995C175.445 166.284 175.502 170.583 175.718 174.872C178.803 236.944 206.552 296.956 240.038 351.907C271.568 403.641 309.644 455.169 362.018 481.657C377.143 489.304 395.523 495.315 408.588 488.091C424.974 479.023 426.987 457.417 427.862 441.313C428.097 436.93 428.125 432.528 427.984 428.135C427.815 422.623 427.382 417.12 426.733 411.646C420.694 360.504 398.044 312.109 372.026 266.376C339.65 209.487 299.984 152.786 243.847 123.166C232.221 117.033 219.636 112.019 206.693 112.123Z" fill="#191A4E"/>
</g>
<defs>
<clipPath id="clip0_3300_1526">
<rect width="602" height="602" fill="white"/>
</clipPath>
</defs>
</svg>
