<svg width="103" height="130" viewBox="0 0 103 130" fill="none" xmlns="http://www.w3.org/2000/svg">
<mask id="mask0_753_5139" style="mask-type:luminance" maskUnits="userSpaceOnUse" x="-22" y="0" width="125" height="130">
<path d="M102.9 30.7903L11.0739 129.648L-21.9994 98.8589L69.8266 0.000692029L102.9 30.7903Z" fill="white"/>
</mask>
<g mask="url(#mask0_753_5139)">
<path d="M-2.20039 78.2985C-1.56471 77.6142 -0.899644 76.9579 -0.207065 76.3315C-0.157463 76.2861 -0.0993176 76.2511 -0.0360327 76.2285C0.0272532 76.2059 0.0944033 76.1962 0.161485 76.2C0.228566 76.2037 0.294228 76.2208 0.354622 76.2503C0.415017 76.2797 0.468931 76.321 0.513203 76.3716C0.558313 76.4215 0.59304 76.4799 0.615355 76.5434C0.637671 76.6068 0.647128 76.6741 0.643173 76.7413C0.639219 76.8085 0.621932 76.8742 0.592323 76.9347C0.562715 76.9951 0.521379 77.049 0.470728 77.0932C-0.523292 77.9877 -1.45735 78.9468 -2.32539 79.9642C-2.36838 80.0156 -2.4212 80.058 -2.48074 80.0887C-2.54028 80.1195 -2.60536 80.138 -2.67215 80.1433C-2.73894 80.1485 -2.80611 80.1404 -2.86973 80.1194C-2.93334 80.0983 -2.99212 80.0648 -3.04262 80.0207C-3.25075 79.8269 -3.28049 79.5207 -3.09602 79.3026C-2.80263 78.9634 -2.50405 78.6286 -2.20039 78.2985ZM-5.50561 82.5526C-5.42427 82.4647 -5.31461 82.4084 -5.19588 82.3934C-5.07714 82.3784 -4.95693 82.4057 -4.85634 82.4706C-4.6209 82.6152 -4.55294 82.939 -4.70767 83.1656C-5.43212 84.2916 -6.08668 85.4612 -6.66762 86.6677C-6.69501 86.7308 -6.73487 86.7877 -6.7848 86.835C-6.83474 86.8823 -6.89371 86.919 -6.95818 86.9429C-7.02265 86.9668 -7.09128 86.9774 -7.15994 86.9741C-7.2286 86.9707 -7.29588 86.9535 -7.35772 86.9234C-7.41956 86.8934 -7.4747 86.8511 -7.5198 86.7992C-7.5649 86.7472 -7.59904 86.6867 -7.62017 86.6212C-7.6413 86.5557 -7.64898 86.4866 -7.64274 86.4181C-7.6365 86.3496 -7.61648 86.283 -7.58389 86.2224C-6.95646 84.9503 -6.28898 83.7348 -5.56083 82.6122L-5.49651 82.5429L-5.50561 82.5526ZM2.96709 73.8487L3.04112 73.7691C4.17663 72.9864 5.36313 72.2806 6.59269 71.6563C6.71267 71.5974 6.85095 71.5878 6.97788 71.6297C7.10482 71.6716 7.2103 71.7616 7.2717 71.8805C7.33002 72.001 7.33907 72.1395 7.29691 72.2666C7.25475 72.3937 7.16471 72.4992 7.04597 72.5609C5.85398 73.1645 4.70502 73.8497 3.60726 74.6117C3.37303 74.7648 3.05507 74.7095 2.90277 74.4756C2.83838 74.3792 2.8087 74.2636 2.81863 74.148C2.82855 74.0324 2.87749 73.9236 2.95738 73.8396L2.96709 73.8487ZM-9.06871 89.8697C-9.00148 89.7966 -8.91385 89.7455 -8.81721 89.723C-8.72058 89.7005 -8.6194 89.7076 -8.52685 89.7433C-8.2641 89.8393 -8.12029 90.1218 -8.21677 90.3848C-8.65729 91.6473 -9.02581 92.9338 -9.32054 94.2381C-9.38728 94.5096 -9.65003 94.6925 -9.92066 94.6256C-10.1913 94.5594 -10.3636 94.2873 -10.306 94.0261C-10.0159 92.6999 -9.62151 91.3598 -9.16762 90.0562C-9.14297 89.9906 -9.10588 89.9303 -9.0584 89.8788L-9.06871 89.8697ZM10.2134 70.165C10.2663 70.1041 10.3343 70.0584 10.4107 70.0325C11.5346 69.6432 12.6787 69.3145 13.8378 69.0478C14.0187 69.012 14.2092 68.9664 14.39 68.9306C14.455 68.9163 14.5221 68.9151 14.5875 68.927C14.6529 68.939 14.7153 68.9639 14.771 69.0003C14.8267 69.0366 14.8746 69.0837 14.9119 69.1388C14.9492 69.1939 14.9752 69.2559 14.9883 69.3212C15.0023 69.3863 15.0033 69.4536 14.9912 69.5192C14.9791 69.5847 14.9541 69.6472 14.9177 69.703C14.8813 69.7588 14.8342 69.8069 14.7792 69.8444C14.7241 69.8818 14.6622 69.908 14.5969 69.9214C14.4161 69.9572 14.245 70.0022 14.0642 70.038C12.9416 70.2919 11.8306 70.6121 10.7408 70.9899C10.6128 71.0319 10.4737 71.023 10.3522 70.9651C10.2306 70.9072 10.136 70.8047 10.0878 70.6789C10.0576 70.5917 10.0515 70.4979 10.0703 70.4075C10.0891 70.3171 10.1321 70.2335 10.1946 70.1656L10.2134 70.165ZM42.9592 34.9514C43.5969 34.2649 44.2547 33.5967 44.904 32.9576C44.9999 32.8631 45.1292 32.8102 45.2638 32.8104C45.3984 32.8106 45.5275 32.864 45.623 32.9588C45.7173 33.0552 45.7699 33.1849 45.7692 33.3198C45.7685 33.4547 45.7147 33.5839 45.6194 33.6793C44.6568 34.6191 43.7279 35.5926 42.8342 36.5982C42.7895 36.6467 42.7356 36.6858 42.6758 36.7134C42.6159 36.741 42.5512 36.7564 42.4854 36.7589C42.4195 36.7614 42.3538 36.7509 42.2921 36.7279C42.2303 36.7049 42.1737 36.6699 42.1255 36.625C42.0755 36.5804 42.035 36.5263 42.0061 36.4659C41.9773 36.4054 41.9608 36.3398 41.9576 36.2729C41.9544 36.206 41.9645 36.1391 41.9874 36.0762C42.0103 36.0132 42.0455 35.9555 42.0909 35.9063C42.387 35.588 42.6819 35.2503 42.9871 34.9222L42.9592 34.9514ZM39.4768 39.0585C39.6522 38.8702 39.958 38.8386 40.1558 39.0039C40.2095 39.0444 40.2545 39.0953 40.2882 39.1536C40.3219 39.2118 40.3437 39.2762 40.3522 39.343C40.3608 39.4097 40.3559 39.4775 40.3379 39.5424C40.3199 39.6073 40.2891 39.6679 40.2474 39.7207C39.4218 40.7887 38.625 41.8787 37.8579 42.9895C37.7802 43.1012 37.6617 43.1779 37.528 43.2028C37.3944 43.2277 37.2563 43.1988 37.1437 43.1225C37.032 43.0446 36.9556 42.9257 36.9312 42.7916C36.9068 42.6576 36.9362 42.5193 37.0132 42.4069C37.7893 41.2799 38.5952 40.1737 39.4301 39.0895L39.4574 39.0591L39.4768 39.0585ZM47.927 30.2598L47.9732 30.21C49.0337 29.3403 50.1314 28.517 51.2632 27.7424C51.4974 27.5894 51.816 27.6446 51.9677 27.8785C52.0423 27.9908 52.0696 28.128 52.0437 28.2603C52.0178 28.3926 51.9408 28.5093 51.8293 28.585C50.7162 29.3382 49.6401 30.1449 48.6048 31.0022C48.5537 31.0448 48.4947 31.0769 48.4311 31.0965C48.3675 31.1161 48.3007 31.1229 48.2345 31.1165C48.1683 31.11 48.104 31.0905 48.0454 31.059C47.9868 31.0275 47.935 30.9846 47.8931 30.9329C47.8172 30.8376 47.7781 30.7183 47.7826 30.5966C47.7872 30.4749 47.8352 30.3589 47.9179 30.2696L47.927 30.2598ZM34.8475 45.773C34.927 45.686 35.0342 45.6294 35.1507 45.6127C35.2673 45.5961 35.386 45.6205 35.4865 45.6818C35.5435 45.7173 35.5929 45.7638 35.6319 45.8186C35.6708 45.8733 35.6984 45.9353 35.7132 46.0009C35.728 46.0664 35.7297 46.1343 35.718 46.2005C35.7064 46.2667 35.6817 46.3299 35.6455 46.3865C35.1546 47.1726 34.711 47.9095 34.3014 48.5686C34.0385 48.9989 33.7787 49.4312 33.5223 49.8655C33.4521 49.9795 33.3399 50.0612 33.21 50.093C33.0802 50.1248 32.943 50.1042 32.8281 50.0356C32.7144 49.9654 32.633 49.8531 32.6015 49.723C32.57 49.593 32.5911 49.4559 32.6601 49.3413C32.9228 48.8996 33.1952 48.4665 33.4398 48.0443C33.8488 47.3858 34.2929 46.6489 34.7929 45.8519L34.8573 45.7821L34.8475 45.773ZM54.6637 25.6928C54.6637 25.6928 54.7371 25.6132 54.7942 25.592C55.9998 24.9316 57.2367 24.3301 58.5005 23.7896C58.6257 23.7389 58.7658 23.739 58.891 23.7897C59.0163 23.8405 59.1169 23.9381 59.1716 24.0617C59.2857 24.3169 59.1522 24.6194 58.8973 24.7348C57.6635 25.2614 56.4551 25.8457 55.2759 26.4856C55.1587 26.5495 55.0211 26.565 54.8926 26.5287C54.7641 26.4923 54.655 26.4071 54.5884 26.2912C54.5358 26.1964 54.5146 26.0873 54.5282 25.9797C54.5417 25.8721 54.5892 25.7716 54.6637 25.6928ZM30.7086 52.7954C30.7837 52.7117 30.8851 52.6562 30.9959 52.638C31.1068 52.6198 31.2205 52.6399 31.3184 52.6952C31.563 52.83 31.6692 53.1325 31.5338 53.378C30.9013 54.5606 30.3288 55.7745 29.8184 57.0149C29.7655 57.1378 29.6668 57.2352 29.5433 57.2865C29.4199 57.3378 29.2813 57.3388 29.157 57.2895C29.0343 57.2367 28.9371 57.1379 28.8862 57.0143C28.8353 56.8907 28.8347 56.752 28.8846 56.628C29.4118 55.359 29.9993 54.1159 30.6449 52.9029C30.6728 52.8731 30.6995 52.8239 30.7274 52.7942L30.7086 52.7954ZM-10.8169 97.8185C-10.7625 97.7614 -10.696 97.7173 -10.6222 97.6895C-10.5485 97.6618 -10.4694 97.651 -10.3909 97.6581C-10.3236 97.6635 -10.2581 97.6824 -10.1982 97.7136C-10.1383 97.7448 -10.0853 97.7878 -10.0424 97.8399C-9.9994 97.892 -9.96735 97.9523 -9.94811 98.0171C-9.92886 98.0819 -9.92283 98.1499 -9.93037 98.217C-10.0578 99.5456 -10.0949 100.881 -10.0414 102.215C-10.0379 102.282 -10.0479 102.349 -10.0708 102.412C-10.0938 102.476 -10.1291 102.533 -10.1749 102.583C-10.2206 102.632 -10.2758 102.672 -10.3371 102.699C-10.3984 102.726 -10.4646 102.741 -10.5317 102.743C-10.5985 102.746 -10.6654 102.737 -10.7284 102.714C-10.7913 102.691 -10.849 102.656 -10.8981 102.61C-10.9471 102.564 -10.9864 102.509 -11.0136 102.448C-11.0408 102.387 -11.0555 102.321 -11.0566 102.254C-11.1052 100.875 -11.0633 99.4939 -10.931 98.1204C-10.9188 98.0082 -10.8721 97.9025 -10.7975 97.8179L-10.8169 97.8185ZM18.1728 68.5181C18.2148 68.4714 18.2657 68.4335 18.3224 68.4065C18.3792 68.3796 18.4408 68.3643 18.5035 68.3614C19.8773 68.2518 21.2566 68.2282 22.6334 68.2909C22.9125 68.3091 23.1218 68.5412 23.1218 68.8194C23.1123 68.9533 23.0522 69.0785 22.9538 69.1696C22.8555 69.2608 22.7261 69.3111 22.5921 69.3103C21.2566 69.2538 19.919 69.279 18.5866 69.3856C18.4525 69.395 18.3202 69.351 18.2184 69.2631C18.1165 69.1753 18.0535 69.0507 18.0429 68.9166C18.0367 68.8455 18.046 68.7738 18.0701 68.7066C18.0942 68.6394 18.1325 68.5782 18.1825 68.5272L18.1728 68.5181ZM62.1485 22.5279C62.2121 22.4642 62.289 22.4154 62.3736 22.3851C63.6721 21.9884 64.9885 21.6531 66.3184 21.3803L66.3658 21.3688C66.4307 21.3558 66.4977 21.3559 66.5626 21.369C66.6276 21.3821 66.6893 21.4081 66.7441 21.4454C66.799 21.4826 66.8459 21.5304 66.8821 21.586C66.9183 21.6416 66.943 21.7039 66.955 21.7691C66.9675 21.8344 66.9671 21.9014 66.9537 21.9665C66.9403 22.0316 66.9142 22.0933 66.8768 22.1483C66.8395 22.2032 66.7917 22.2502 66.7362 22.2866C66.6806 22.3229 66.6185 22.348 66.5533 22.3602L66.515 22.3614C65.2201 22.6226 63.9179 22.9507 62.6655 23.3431C62.5376 23.3835 62.3988 23.3714 62.2798 23.3094C62.1608 23.2474 62.0712 23.1407 62.0308 23.0126C62.0054 22.9279 62.002 22.8382 62.0208 22.7518C62.0396 22.6654 62.08 22.5852 62.1382 22.5188L62.1485 22.5279ZM27.6321 60.3239C27.7614 60.1841 27.9507 60.1197 28.1352 60.1799C28.3961 60.2564 28.5599 60.5383 28.4829 60.8007C28.1158 62.0867 27.8374 63.3965 27.6497 64.7208C27.641 64.7869 27.6193 64.8506 27.5858 64.9083C27.5524 64.966 27.5079 65.0165 27.4549 65.0568C27.4019 65.0972 27.3414 65.1267 27.2769 65.1435C27.2125 65.1604 27.1453 65.1643 27.0793 65.1551C27.0135 65.1466 26.9499 65.1251 26.8924 65.0918C26.8349 65.0584 26.7847 65.014 26.7445 64.961C26.7044 64.908 26.6751 64.8476 26.6586 64.7832C26.642 64.7188 26.6383 64.6517 26.6479 64.5859C26.8459 63.2201 27.1323 61.8687 27.5053 60.5401C27.525 60.4619 27.5655 60.3906 27.6224 60.3336L27.6321 60.3239ZM-10.5171 105.93C-10.4423 105.844 -10.3383 105.788 -10.2253 105.775C-9.94857 105.735 -9.6834 105.908 -9.63546 106.194C-9.47447 107.105 -9.28016 108.01 -9.05294 108.907C-9.03507 108.972 -9.03027 109.04 -9.03881 109.107C-9.04735 109.174 -9.06907 109.239 -9.1027 109.297C-9.13633 109.356 -9.18122 109.407 -9.23475 109.448C-9.28829 109.489 -9.34941 109.519 -9.41459 109.536C-9.4793 109.554 -9.54695 109.559 -9.61361 109.551C-9.68026 109.542 -9.74458 109.521 -9.80281 109.487C-9.86104 109.454 -9.91202 109.409 -9.95278 109.355C-9.99353 109.302 -10.0233 109.241 -10.0402 109.176C-10.2897 108.25 -10.4918 107.313 -10.6458 106.366C-10.6602 106.289 -10.6561 106.208 -10.6337 106.133C-10.6114 106.057 -10.5714 105.987 -10.5171 105.93ZM70.1091 20.9193C70.1928 20.8276 70.3064 20.7688 70.4295 20.7534C71.7946 20.6231 73.1649 20.555 74.5363 20.5493C74.6705 20.5503 74.7989 20.6042 74.8937 20.6994C74.9884 20.7946 75.0418 20.9234 75.0423 21.0578C75.0411 21.1926 74.9869 21.3215 74.8916 21.4168C74.7962 21.512 74.6673 21.5659 74.5326 21.5668C73.1935 21.5713 71.8552 21.6382 70.5223 21.7673C70.2353 21.7977 69.998 21.5954 69.9689 21.3087C69.9623 21.2368 69.9705 21.1644 69.9929 21.0959C70.0154 21.0273 70.0516 20.9641 70.0994 20.9102L70.1091 20.9193ZM26.4713 68.3559C26.5201 68.3042 26.5786 68.2628 26.6435 68.234C26.7084 68.2052 26.7784 68.1897 26.8494 68.1882C26.9837 68.189 27.1123 68.2429 27.2072 68.3381C27.3021 68.4333 27.3556 68.5622 27.356 68.6967C27.3573 68.735 27.3488 68.7641 27.35 68.803C28.4986 69.0181 29.6394 69.2823 30.7432 69.6049C31.015 69.6905 31.1679 69.9633 31.0818 70.2354C30.995 70.5076 30.7226 70.6619 30.4507 70.5762C29.4305 70.2832 28.3982 70.0341 27.3566 69.8296C27.39 70.7889 27.4519 71.756 27.5423 72.6933C27.556 72.8277 27.5164 72.9622 27.4321 73.0677C27.3478 73.1733 27.2255 73.2415 27.0915 73.2576C26.9576 73.2722 26.8234 73.2331 26.7182 73.149C26.6129 73.0649 26.5451 72.9426 26.5296 72.8087C26.4276 71.7576 26.3592 70.7035 26.3245 69.648L26.3233 69.6097C26.1752 69.4907 26.0927 69.3212 26.1333 69.1177C26.1597 68.9918 26.2266 68.878 26.3239 68.7939C26.3221 68.7556 26.3306 68.7265 26.33 68.6882C26.3282 68.6254 26.3389 68.5629 26.3615 68.5043C26.3841 68.4456 26.4182 68.3921 26.4616 68.3468L26.4713 68.3559ZM78.1916 20.8901C78.2459 20.833 78.3125 20.789 78.3863 20.7613C78.4601 20.7336 78.5391 20.7231 78.6176 20.7303C79.9641 20.8518 81.3324 21.0493 82.6837 21.305C82.7499 21.3171 82.813 21.3423 82.8694 21.3791C82.9257 21.4159 82.9742 21.4635 83.0118 21.5193C83.0495 21.5751 83.0757 21.6379 83.0889 21.7039C83.102 21.77 83.1019 21.838 83.0884 21.904C83.0758 21.9701 83.0502 22.0331 83.0132 22.0894C82.9763 22.1456 82.9286 22.194 82.8729 22.2318C82.8172 22.2696 82.7547 22.2961 82.6888 22.3096C82.6229 22.3232 82.555 22.3237 82.4889 22.311C81.1746 22.0647 79.8498 21.878 78.5187 21.7515C78.2401 21.7333 78.0393 21.4721 78.0581 21.1926C78.0703 21.0804 78.1169 20.9747 78.1916 20.8901ZM27.2972 76.4183C27.3658 76.3413 27.4588 76.2903 27.5605 76.2738C27.6913 76.246 27.8276 76.2702 27.9409 76.3411C28.0542 76.412 28.1356 76.5242 28.1679 76.654C28.4738 77.9959 28.8439 79.2875 29.2984 80.4896C29.3223 80.5519 29.3337 80.6183 29.3318 80.685C29.33 80.7517 29.3149 80.8174 29.2876 80.8782C29.2602 80.9391 29.2211 80.9939 29.1724 81.0395C29.1237 81.0851 29.0665 81.1206 29.0041 81.1439C28.9422 81.1681 28.8761 81.1797 28.8097 81.1781C28.7432 81.1765 28.6777 81.1618 28.6171 81.1346C28.5564 81.1075 28.5017 81.0686 28.4561 81.0201C28.4106 80.9716 28.3751 80.9146 28.3518 80.8523C27.8739 79.5567 27.4821 78.231 27.1789 76.8837C27.1346 76.7124 27.1959 76.5471 27.3069 76.4274L27.2972 76.4183ZM34.0175 71.1126C34.0892 71.0369 34.1824 70.985 34.2845 70.9639C34.3866 70.9428 34.4927 70.9536 34.5885 70.9948C35.0654 71.1977 35.5429 71.4194 36.0017 71.6418C36.7723 72.0257 37.5247 72.429 38.259 72.8524C38.3747 72.923 38.4581 73.0363 38.4913 73.1679C38.5244 73.2995 38.5046 73.4388 38.4361 73.5559C38.3657 73.672 38.2526 73.7558 38.1212 73.7896C37.9898 73.8233 37.8504 73.8042 37.7329 73.7363C37.016 73.3185 36.2861 72.9236 35.5442 72.5524C35.0927 72.3287 34.6346 72.1188 34.1704 71.923C34.1084 71.897 34.0522 71.8588 34.0052 71.8107C33.9582 71.7626 33.9213 71.7055 33.8968 71.6428C33.8722 71.5802 33.8605 71.5132 33.8622 71.4459C33.864 71.3787 33.8792 71.3124 33.907 71.2511C33.934 71.1977 33.9679 71.1481 34.0077 71.1035L34.0175 71.1126ZM86.1734 22.3821C86.3027 22.2424 86.492 22.178 86.6764 22.2381C87.9963 22.6042 89.3002 23.0256 90.5848 23.501C90.7107 23.5475 90.8131 23.6422 90.8694 23.7641C90.9257 23.8861 90.9314 24.0255 90.8852 24.1517C90.8387 24.2781 90.7441 24.381 90.6222 24.4379C90.5002 24.4948 90.3607 24.5011 90.2341 24.4554C88.9787 23.9884 87.7038 23.5756 86.4131 23.218C86.2846 23.1783 86.176 23.091 86.1096 22.9739C86.0432 22.8569 86.0239 22.7188 86.0557 22.588C86.0755 22.5099 86.1162 22.4388 86.1734 22.3821ZM30.1576 83.9996C30.1576 83.9996 30.2225 83.9298 30.279 83.9085C30.3368 83.8745 30.4008 83.8522 30.4673 83.843C30.5338 83.8339 30.6015 83.838 30.6664 83.8552C30.7312 83.8723 30.7921 83.9022 30.8454 83.9431C30.8987 83.9839 30.9433 84.035 30.9768 84.0932C31.6692 85.2766 32.4452 86.3512 33.3014 87.2788C33.3462 87.3276 33.381 87.3847 33.4036 87.447C33.4262 87.5093 33.4363 87.5754 33.4333 87.6416C33.4302 87.7078 33.4141 87.7728 33.3858 87.8327C33.3576 87.8926 33.3178 87.9463 33.2687 87.9908C33.2201 88.0357 33.1632 88.0706 33.1011 88.0934C33.039 88.1162 32.973 88.1264 32.9069 88.1236C32.8409 88.1207 32.776 88.1047 32.7162 88.0766C32.6563 88.0485 32.6026 88.0088 32.5581 87.9598C31.6209 86.9305 30.7974 85.803 30.1018 84.5968C30.0476 84.5016 30.0248 84.3917 30.0365 84.2828C30.0483 84.1738 30.0941 84.0713 30.1673 83.9899L30.1576 83.9996ZM40.978 75.2356C41.1534 75.046 41.4592 75.0157 41.657 75.1809C42.2383 75.6292 42.7814 76.0982 43.2869 76.5684C43.7788 77.0219 44.2467 77.5008 44.6886 78.0032C44.7337 78.0531 44.7685 78.1115 44.7909 78.1749C44.8132 78.2384 44.8227 78.3057 44.8188 78.3729C44.8149 78.4401 44.7977 78.5058 44.7682 78.5662C44.7386 78.6267 44.6973 78.6806 44.6467 78.7249C44.5971 78.7704 44.5389 78.8054 44.4756 78.828C44.4123 78.8507 44.3451 78.8604 44.278 78.8568C44.2109 78.8531 44.1451 78.836 44.0847 78.8066C44.0242 78.7772 43.9702 78.736 43.9258 78.6854C43.4988 78.2124 43.0511 77.7583 42.5842 77.3247C42.0822 76.8559 41.5581 76.4113 41.0138 75.9925C40.9075 75.909 40.8383 75.7871 40.8211 75.653C40.8038 75.5189 40.8399 75.3834 40.9216 75.2757L40.9495 75.2459L40.978 75.2356ZM93.7887 25.2032C93.8617 25.1232 93.9584 25.0685 94.0645 25.0472C94.1707 25.0259 94.2809 25.0391 94.3791 25.0847C95.6183 25.6662 96.8361 26.2923 98.0302 26.9618C98.2747 27.0967 98.3524 27.4108 98.2171 27.6556C98.0818 27.901 97.7681 27.98 97.5241 27.8451C96.3599 27.1801 95.1677 26.5656 93.9507 26.0032C93.6971 25.8787 93.5812 25.5853 93.7068 25.3308C93.7341 25.2822 93.7608 25.233 93.7978 25.1929L93.7887 25.2032ZM35.6455 89.9068C35.7268 89.8189 35.8364 89.7624 35.9551 89.7473C36.0738 89.7322 36.1941 89.7594 36.2948 89.8241C37.4325 90.5495 38.6594 91.098 39.8397 91.3987C39.9703 91.4323 40.0823 91.5164 40.1511 91.6326C40.2199 91.7487 40.2399 91.8874 40.2068 92.0183C40.1725 92.149 40.0882 92.261 39.9722 92.3301C39.8562 92.3992 39.7177 92.4199 39.5866 92.3877C38.3002 92.0621 36.9653 91.4692 35.7395 90.6807C35.5047 90.5361 35.4361 90.2123 35.5812 89.9766C35.5994 89.9566 35.617 89.9365 35.6455 89.9068ZM46.2808 81.3413C46.2808 81.3413 46.3639 81.252 46.421 81.2308C46.5409 81.1719 46.6791 81.1623 46.806 81.2041C46.9328 81.2459 47.0384 81.3357 47.1 81.4543C47.5086 82.2467 47.8301 83.0812 48.0587 83.9432C48.1916 84.4565 48.2766 84.9813 48.3051 85.5275C48.3245 85.8051 48.1024 86.0438 47.8154 86.0547C47.5381 86.0748 47.3002 85.8537 47.2899 85.5657C47.2652 85.1012 47.1914 84.6406 47.0696 84.1916C46.8606 83.3979 46.5638 82.63 46.1849 81.902C46.0921 81.704 46.1224 81.4725 46.2608 81.3231L46.2808 81.3413ZM43.3645 91.5621C43.4204 91.5026 43.5047 91.451 43.5897 91.4194C44.084 91.2634 44.554 91.0387 44.9859 90.7518C45.5703 90.3413 46.0617 89.8123 46.4283 89.199C46.4985 89.0851 46.6106 89.0034 46.7404 88.9715C46.8703 88.9395 47.0075 88.96 47.1224 89.0283C47.2361 89.0988 47.3174 89.2113 47.3488 89.3414C47.3801 89.4715 47.359 89.6087 47.2899 89.7233C46.8457 90.4603 46.254 91.0973 45.552 91.5943C45.0367 91.9483 44.4708 92.2224 43.8736 92.4071C43.8102 92.4277 43.7433 92.4351 43.6769 92.4289C43.6105 92.4227 43.5461 92.403 43.4875 92.3711C43.429 92.3391 43.3776 92.2956 43.3364 92.2431C43.2952 92.1906 43.2652 92.1302 43.248 92.0657C43.2224 91.9811 43.2188 91.8912 43.2376 91.8048C43.2564 91.7184 43.297 91.6382 43.3554 91.5718L43.3645 91.5621Z" fill="url(#paint0_linear_753_5139)" stroke="url(#paint1_linear_753_5139)" stroke-miterlimit="10"/>
</g>
<defs>
<linearGradient id="paint0_linear_753_5139" x1="7.39314" y1="20.5493" x2="19.5421" y2="92.4817" gradientUnits="userSpaceOnUse">
<stop stop-color="#C06FFF"/>
<stop offset="1" stop-color="#1450CC"/>
</linearGradient>
<linearGradient id="paint1_linear_753_5139" x1="7.39314" y1="20.5493" x2="19.5421" y2="92.4817" gradientUnits="userSpaceOnUse">
<stop stop-color="#C06FFF"/>
<stop offset="1" stop-color="#1450CC"/>
</linearGradient>
</defs>
</svg>
