<svg width="1366" height="553" viewBox="0 0 1366 553" fill="none" xmlns="http://www.w3.org/2000/svg">
<g style="mix-blend-mode:hard-light" opacity="0.1">
<path d="M-87.3182 0H-124V29.0526M-87.3182 0V29.0526M-87.3182 0H-50.6364M-87.3182 29.0526H-124M-87.3182 29.0526V58.1053M-87.3182 29.0526H-50.6364M-124 29.0526V58.1053M-87.3182 58.1053H-124M-87.3182 58.1053V87.1579M-87.3182 58.1053H-50.6364M-124 58.1053V87.1579M-87.3182 87.1579H-124M-87.3182 87.1579V116.211M-87.3182 87.1579H-50.6364M-124 87.1579V116.211M-87.3182 116.211H-124M-87.3182 116.211V145.263M-87.3182 116.211H-50.6364M-124 116.211V145.263M-87.3182 145.263H-124M-87.3182 145.263V174.316M-87.3182 145.263H-50.6364M-124 145.263V174.316M-87.3182 174.316H-124M-87.3182 174.316V203.368M-87.3182 174.316H-50.6364M-124 174.316V203.368M-87.3182 203.368H-124M-87.3182 203.368V232.421M-87.3182 203.368H-50.6364M-124 203.368V232.421M-87.3182 232.421H-124M-87.3182 232.421V261.474M-87.3182 232.421H-50.6364M-124 232.421V261.474M-87.3182 261.474H-124M-87.3182 261.474V290.526M-87.3182 261.474H-50.6364M-124 261.474V290.526M-87.3182 290.526H-124M-87.3182 290.526V319.579M-87.3182 290.526H-50.6364M-124 290.526V319.579M-87.3182 319.579H-124M-87.3182 319.579V348.632M-87.3182 319.579H-50.6364M-124 319.579V348.632M-87.3182 348.632H-124M-87.3182 348.632V377.684M-87.3182 348.632H-50.6364M-124 348.632V377.684M-87.3182 377.684H-124M-87.3182 377.684V406.737M-87.3182 377.684H-50.6364M-124 377.684V406.737M-87.3182 406.737H-124M-87.3182 406.737V435.789M-87.3182 406.737H-50.6364M-124 406.737V435.789M-87.3182 435.789H-124M-87.3182 435.789V464.842M-87.3182 435.789H-50.6364M-124 435.789V464.842M-87.3182 464.842H-124M-87.3182 464.842V493.895M-87.3182 464.842H-50.6364M-124 464.842V493.895M-87.3182 493.895H-124M-87.3182 493.895V522.947M-87.3182 493.895H-50.6364M-124 493.895V522.947M-87.3182 522.947H-124M-87.3182 522.947V552M-87.3182 522.947H-50.6364M-124 522.947V552H-87.3182M-87.3182 552H-50.6364M-50.6364 0V29.0526M-50.6364 0H-13.9545M-50.6364 29.0526V58.1053M-50.6364 29.0526H-13.9545M-50.6364 58.1053V87.1579M-50.6364 58.1053H-13.9545M-50.6364 87.1579V116.211M-50.6364 87.1579H-13.9545M-50.6364 116.211V145.263M-50.6364 116.211H-13.9545M-50.6364 145.263V174.316M-50.6364 145.263H-13.9545M-50.6364 174.316V203.368M-50.6364 174.316H-13.9545M-50.6364 203.368V232.421M-50.6364 203.368H-13.9545M-50.6364 232.421V261.474M-50.6364 232.421H-13.9545M-50.6364 261.474V290.526M-50.6364 261.474H-13.9545M-50.6364 290.526V319.579M-50.6364 290.526H-13.9545M-50.6364 319.579V348.632M-50.6364 319.579H-13.9545M-50.6364 348.632V377.684M-50.6364 348.632H-13.9545M-50.6364 377.684V406.737M-50.6364 377.684H-13.9545M-50.6364 406.737V435.789M-50.6364 406.737H-13.9545M-50.6364 435.789V464.842M-50.6364 435.789H-13.9545M-50.6364 464.842V493.895M-50.6364 464.842H-13.9545M-50.6364 493.895V522.947M-50.6364 493.895H-13.9545M-50.6364 522.947V552M-50.6364 522.947H-13.9545M-50.6364 552H-13.9545M-13.9545 0V29.0526M-13.9545 0H22.7273M-13.9545 29.0526V58.1053M-13.9545 29.0526H22.7273M-13.9545 58.1053V87.1579M-13.9545 58.1053H22.7273M-13.9545 87.1579V116.211M-13.9545 87.1579H22.7273M-13.9545 116.211V145.263M-13.9545 116.211H22.7273M-13.9545 145.263V174.316M-13.9545 145.263H22.7273M-13.9545 174.316V203.368M-13.9545 174.316H22.7273M-13.9545 203.368V232.421M-13.9545 203.368H22.7273M-13.9545 232.421V261.474M-13.9545 232.421H22.7273M-13.9545 261.474V290.526M-13.9545 261.474H22.7273M-13.9545 290.526V319.579M-13.9545 290.526H22.7273M-13.9545 319.579V348.632M-13.9545 319.579H22.7273M-13.9545 348.632V377.684M-13.9545 348.632H22.7273M-13.9545 377.684V406.737M-13.9545 377.684H22.7273M-13.9545 406.737V435.789M-13.9545 406.737H22.7273M-13.9545 435.789V464.842M-13.9545 435.789H22.7273M-13.9545 464.842V493.895M-13.9545 464.842H22.7273M-13.9545 493.895V522.947M-13.9545 493.895H22.7273M-13.9545 522.947V552M-13.9545 522.947H22.7273M-13.9545 552H22.7273M22.7273 0V29.0526M22.7273 0H59.4091M22.7273 29.0526V58.1053M22.7273 29.0526H59.4091M22.7273 58.1053V87.1579M22.7273 58.1053H59.4091M22.7273 87.1579V116.211M22.7273 87.1579H59.4091M22.7273 116.211V145.263M22.7273 116.211H59.4091M22.7273 145.263V174.316M22.7273 145.263H59.4091M22.7273 174.316V203.368M22.7273 174.316H59.4091M22.7273 203.368V232.421M22.7273 203.368H59.4091M22.7273 232.421V261.474M22.7273 232.421H59.4091M22.7273 261.474V290.526M22.7273 261.474H59.4091M22.7273 290.526V319.579M22.7273 290.526H59.4091M22.7273 319.579V348.632M22.7273 319.579H59.4091M22.7273 348.632V377.684M22.7273 348.632H59.4091M22.7273 377.684V406.737M22.7273 377.684H59.4091M22.7273 406.737V435.789M22.7273 406.737H59.4091M22.7273 435.789V464.842M22.7273 435.789H59.4091M22.7273 464.842V493.895M22.7273 464.842H59.4091M22.7273 493.895V522.947M22.7273 493.895H59.4091M22.7273 522.947V552M22.7273 522.947H59.4091M22.7273 552H59.4091M59.4091 0V29.0526M59.4091 0H96.0909M59.4091 29.0526V58.1053M59.4091 29.0526H96.0909M59.4091 58.1053V87.1579M59.4091 58.1053H96.0909M59.4091 87.1579V116.211M59.4091 87.1579H96.0909M59.4091 116.211V145.263M59.4091 116.211H96.0909M59.4091 145.263V174.316M59.4091 145.263H96.0909M59.4091 174.316V203.368M59.4091 174.316H96.0909M59.4091 203.368V232.421M59.4091 203.368H96.0909M59.4091 232.421V261.474M59.4091 232.421H96.0909M59.4091 261.474V290.526M59.4091 261.474H96.0909M59.4091 290.526V319.579M59.4091 290.526H96.0909M59.4091 319.579V348.632M59.4091 319.579H96.0909M59.4091 348.632V377.684M59.4091 348.632H96.0909M59.4091 377.684V406.737M59.4091 377.684H96.0909M59.4091 406.737V435.789M59.4091 406.737H96.0909M59.4091 435.789V464.842M59.4091 435.789H96.0909M59.4091 464.842V493.895M59.4091 464.842H96.0909M59.4091 493.895V522.947M59.4091 493.895H96.0909M59.4091 522.947V552M59.4091 522.947H96.0909M59.4091 552H96.0909M96.0909 0V29.0526M96.0909 0H132.773M96.0909 29.0526V58.1053M96.0909 29.0526H132.773M96.0909 58.1053V87.1579M96.0909 58.1053H132.773M96.0909 87.1579V116.211M96.0909 87.1579H132.773M96.0909 116.211V145.263M96.0909 116.211H132.773M96.0909 145.263V174.316M96.0909 145.263H132.773M96.0909 174.316V203.368M96.0909 174.316H132.773M96.0909 203.368V232.421M96.0909 203.368H132.773M96.0909 232.421V261.474M96.0909 232.421H132.773M96.0909 261.474V290.526M96.0909 261.474H132.773M96.0909 290.526V319.579M96.0909 290.526H132.773M96.0909 319.579V348.632M96.0909 319.579H132.773M96.0909 348.632V377.684M96.0909 348.632H132.773M96.0909 377.684V406.737M96.0909 377.684H132.773M96.0909 406.737V435.789M96.0909 406.737H132.773M96.0909 435.789V464.842M96.0909 435.789H132.773M96.0909 464.842V493.895M96.0909 464.842H132.773M96.0909 493.895V522.947M96.0909 493.895H132.773M96.0909 522.947V552M96.0909 522.947H132.773M96.0909 552H132.773M132.773 0V29.0526M132.773 0H169.455M132.773 29.0526V58.1053M132.773 29.0526H169.455M132.773 58.1053V87.1579M132.773 58.1053H169.455M132.773 87.1579V116.211M132.773 87.1579H169.455M132.773 116.211V145.263M132.773 116.211H169.455M132.773 145.263V174.316M132.773 145.263H169.455M132.773 174.316V203.368M132.773 174.316H169.455M132.773 203.368V232.421M132.773 203.368H169.455M132.773 232.421V261.474M132.773 232.421H169.455M132.773 261.474V290.526M132.773 261.474H169.455M132.773 290.526V319.579M132.773 290.526H169.455M132.773 319.579V348.632M132.773 319.579H169.455M132.773 348.632V377.684M132.773 348.632H169.455M132.773 377.684V406.737M132.773 377.684H169.455M132.773 406.737V435.789M132.773 406.737H169.455M132.773 435.789V464.842M132.773 435.789H169.455M132.773 464.842V493.895M132.773 464.842H169.455M132.773 493.895V522.947M132.773 493.895H169.455M132.773 522.947V552M132.773 522.947H169.455M132.773 552H169.455M169.455 0V29.0526M169.455 0H206.136M169.455 29.0526V58.1053M169.455 29.0526H206.136M169.455 58.1053V87.1579M169.455 58.1053H206.136M169.455 87.1579V116.211M169.455 87.1579H206.136M169.455 116.211V145.263M169.455 116.211H206.136M169.455 145.263V174.316M169.455 145.263H206.136M169.455 174.316V203.368M169.455 174.316H206.136M169.455 203.368V232.421M169.455 203.368H206.136M169.455 232.421V261.474M169.455 232.421H206.136M169.455 261.474V290.526M169.455 261.474H206.136M169.455 290.526V319.579M169.455 290.526H206.136M169.455 319.579V348.632M169.455 319.579H206.136M169.455 348.632V377.684M169.455 348.632H206.136M169.455 377.684V406.737M169.455 377.684H206.136M169.455 406.737V435.789M169.455 406.737H206.136M169.455 435.789V464.842M169.455 435.789H206.136M169.455 464.842V493.895M169.455 464.842H206.136M169.455 493.895V522.947M169.455 493.895H206.136M169.455 522.947V552M169.455 522.947H206.136M169.455 552H206.136M206.136 0V29.0526M206.136 0H242.818M206.136 29.0526V58.1053M206.136 29.0526H242.818M206.136 58.1053V87.1579M206.136 58.1053H242.818M206.136 87.1579V116.211M206.136 87.1579H242.818M206.136 116.211V145.263M206.136 116.211H242.818M206.136 145.263V174.316M206.136 145.263H242.818M206.136 174.316V203.368M206.136 174.316H242.818M206.136 203.368V232.421M206.136 203.368H242.818M206.136 232.421V261.474M206.136 232.421H242.818M206.136 261.474V290.526M206.136 261.474H242.818M206.136 290.526V319.579M206.136 290.526H242.818M206.136 319.579V348.632M206.136 319.579H242.818M206.136 348.632V377.684M206.136 348.632H242.818M206.136 377.684V406.737M206.136 377.684H242.818M206.136 406.737V435.789M206.136 406.737H242.818M206.136 435.789V464.842M206.136 435.789H242.818M206.136 464.842V493.895M206.136 464.842H242.818M206.136 493.895V522.947M206.136 493.895H242.818M206.136 522.947V552M206.136 522.947H242.818M206.136 552H242.818M242.818 0V29.0526M242.818 0H279.5M242.818 29.0526V58.1053M242.818 29.0526H279.5M242.818 58.1053V87.1579M242.818 58.1053H279.5M242.818 87.1579V116.211M242.818 87.1579H279.5M242.818 116.211V145.263M242.818 116.211H279.5M242.818 145.263V174.316M242.818 145.263H279.5M242.818 174.316V203.368M242.818 174.316H279.5M242.818 203.368V232.421M242.818 203.368H279.5M242.818 232.421V261.474M242.818 232.421H279.5M242.818 261.474V290.526M242.818 261.474H279.5M242.818 290.526V319.579M242.818 290.526H279.5M242.818 319.579V348.632M242.818 319.579H279.5M242.818 348.632V377.684M242.818 348.632H279.5M242.818 377.684V406.737M242.818 377.684H279.5M242.818 406.737V435.789M242.818 406.737H279.5M242.818 435.789V464.842M242.818 435.789H279.5M242.818 464.842V493.895M242.818 464.842H279.5M242.818 493.895V522.947M242.818 493.895H279.5M242.818 522.947V552M242.818 522.947H279.5M242.818 552H279.5M279.5 0V29.0526M279.5 0H316.182M279.5 29.0526V58.1053M279.5 29.0526H316.182M279.5 58.1053V87.1579M279.5 58.1053H316.182M279.5 87.1579V116.211M279.5 87.1579H316.182M279.5 116.211V145.263M279.5 116.211H316.182M279.5 145.263V174.316M279.5 145.263H316.182M279.5 174.316V203.368M279.5 174.316H316.182M279.5 203.368V232.421M279.5 203.368H316.182M279.5 232.421V261.474M279.5 232.421H316.182M279.5 261.474V290.526M279.5 261.474H316.182M279.5 290.526V319.579M279.5 290.526H316.182M279.5 319.579V348.632M279.5 319.579H316.182M279.5 348.632V377.684M279.5 348.632H316.182M279.5 377.684V406.737M279.5 377.684H316.182M279.5 406.737V435.789M279.5 406.737H316.182M279.5 435.789V464.842M279.5 435.789H316.182M279.5 464.842V493.895M279.5 464.842H316.182M279.5 493.895V522.947M279.5 493.895H316.182M279.5 522.947V552M279.5 522.947H316.182M279.5 552H316.182M316.182 0V29.0526M316.182 0H352.864M316.182 29.0526V58.1053M316.182 29.0526H352.864M316.182 58.1053V87.1579M316.182 58.1053H352.864M316.182 87.1579V116.211M316.182 87.1579H352.864M316.182 116.211V145.263M316.182 116.211H352.864M316.182 145.263V174.316M316.182 145.263H352.864M316.182 174.316V203.368M316.182 174.316H352.864M316.182 203.368V232.421M316.182 203.368H352.864M316.182 232.421V261.474M316.182 232.421H352.864M316.182 261.474V290.526M316.182 261.474H352.864M316.182 290.526V319.579M316.182 290.526H352.864M316.182 319.579V348.632M316.182 319.579H352.864M316.182 348.632V377.684M316.182 348.632H352.864M316.182 377.684V406.737M316.182 377.684H352.864M316.182 406.737V435.789M316.182 406.737H352.864M316.182 435.789V464.842M316.182 435.789H352.864M316.182 464.842V493.895M316.182 464.842H352.864M316.182 493.895V522.947M316.182 493.895H352.864M316.182 522.947V552M316.182 522.947H352.864M316.182 552H352.864M352.864 0V29.0526M352.864 0H389.545M352.864 29.0526V58.1053M352.864 29.0526H389.545M352.864 58.1053V87.1579M352.864 58.1053H389.545M352.864 87.1579V116.211M352.864 87.1579H389.545M352.864 116.211V145.263M352.864 116.211H389.545M352.864 145.263V174.316M352.864 145.263H389.545M352.864 174.316V203.368M352.864 174.316H389.545M352.864 203.368V232.421M352.864 203.368H389.545M352.864 232.421V261.474M352.864 232.421H389.545M352.864 261.474V290.526M352.864 261.474H389.545M352.864 290.526V319.579M352.864 290.526H389.545M352.864 319.579V348.632M352.864 319.579H389.545M352.864 348.632V377.684M352.864 348.632H389.545M352.864 377.684V406.737M352.864 377.684H389.545M352.864 406.737V435.789M352.864 406.737H389.545M352.864 435.789V464.842M352.864 435.789H389.545M352.864 464.842V493.895M352.864 464.842H389.545M352.864 493.895V522.947M352.864 493.895H389.545M352.864 522.947V552M352.864 522.947H389.545M352.864 552H389.545M389.545 0V29.0526M389.545 0H426.227M389.545 29.0526V58.1053M389.545 29.0526H426.227M389.545 58.1053V87.1579M389.545 58.1053H426.227M389.545 87.1579V116.211M389.545 87.1579H426.227M389.545 116.211V145.263M389.545 116.211H426.227M389.545 145.263V174.316M389.545 145.263H426.227M389.545 174.316V203.368M389.545 174.316H426.227M389.545 203.368V232.421M389.545 203.368H426.227M389.545 232.421V261.474M389.545 232.421H426.227M389.545 261.474V290.526M389.545 261.474H426.227M389.545 290.526V319.579M389.545 290.526H426.227M389.545 319.579V348.632M389.545 319.579H426.227M389.545 348.632V377.684M389.545 348.632H426.227M389.545 377.684V406.737M389.545 377.684H426.227M389.545 406.737V435.789M389.545 406.737H426.227M389.545 435.789V464.842M389.545 435.789H426.227M389.545 464.842V493.895M389.545 464.842H426.227M389.545 493.895V522.947M389.545 493.895H426.227M389.545 522.947V552M389.545 522.947H426.227M389.545 552H426.227M426.227 0V29.0526M426.227 0H462.909M426.227 29.0526V58.1053M426.227 29.0526H462.909M426.227 58.1053V87.1579M426.227 58.1053H462.909M426.227 87.1579V116.211M426.227 87.1579H462.909M426.227 116.211V145.263M426.227 116.211H462.909M426.227 145.263V174.316M426.227 145.263H462.909M426.227 174.316V203.368M426.227 174.316H462.909M426.227 203.368V232.421M426.227 203.368H462.909M426.227 232.421V261.474M426.227 232.421H462.909M426.227 261.474V290.526M426.227 261.474H462.909M426.227 290.526V319.579M426.227 290.526H462.909M426.227 319.579V348.632M426.227 319.579H462.909M426.227 348.632V377.684M426.227 348.632H462.909M426.227 377.684V406.737M426.227 377.684H462.909M426.227 406.737V435.789M426.227 406.737H462.909M426.227 435.789V464.842M426.227 435.789H462.909M426.227 464.842V493.895M426.227 464.842H462.909M426.227 493.895V522.947M426.227 493.895H462.909M426.227 522.947V552M426.227 522.947H462.909M426.227 552H462.909M462.909 0V29.0526M462.909 0H499.591M462.909 29.0526V58.1053M462.909 29.0526H499.591M462.909 58.1053V87.1579M462.909 58.1053H499.591M462.909 87.1579V116.211M462.909 87.1579H499.591M462.909 116.211V145.263M462.909 116.211H499.591M462.909 145.263V174.316M462.909 145.263H499.591M462.909 174.316V203.368M462.909 174.316H499.591M462.909 203.368V232.421M462.909 203.368H499.591M462.909 232.421V261.474M462.909 232.421H499.591M462.909 261.474V290.526M462.909 261.474H499.591M462.909 290.526V319.579M462.909 290.526H499.591M462.909 319.579V348.632M462.909 319.579H499.591M462.909 348.632V377.684M462.909 348.632H499.591M462.909 377.684V406.737M462.909 377.684H499.591M462.909 406.737V435.789M462.909 406.737H499.591M462.909 435.789V464.842M462.909 435.789H499.591M462.909 464.842V493.895M462.909 464.842H499.591M462.909 493.895V522.947M462.909 493.895H499.591M462.909 522.947V552M462.909 522.947H499.591M462.909 552H499.591M499.591 0V29.0526M499.591 0H536.273M499.591 29.0526V58.1053M499.591 29.0526H536.273M499.591 58.1053V87.1579M499.591 58.1053H536.273M499.591 87.1579V116.211M499.591 87.1579H536.273M499.591 116.211V145.263M499.591 116.211H536.273M499.591 145.263V174.316M499.591 145.263H536.273M499.591 174.316V203.368M499.591 174.316H536.273M499.591 203.368V232.421M499.591 203.368H536.273M499.591 232.421V261.474M499.591 232.421H536.273M499.591 261.474V290.526M499.591 261.474H536.273M499.591 290.526V319.579M499.591 290.526H536.273M499.591 319.579V348.632M499.591 319.579H536.273M499.591 348.632V377.684M499.591 348.632H536.273M499.591 377.684V406.737M499.591 377.684H536.273M499.591 406.737V435.789M499.591 406.737H536.273M499.591 435.789V464.842M499.591 435.789H536.273M499.591 464.842V493.895M499.591 464.842H536.273M499.591 493.895V522.947M499.591 493.895H536.273M499.591 522.947V552M499.591 522.947H536.273M499.591 552H536.273M536.273 0V29.0526M536.273 0H572.955M536.273 29.0526V58.1053M536.273 29.0526H572.955M536.273 58.1053V87.1579M536.273 58.1053H572.955M536.273 87.1579V116.211M536.273 87.1579H572.955M536.273 116.211V145.263M536.273 116.211H572.955M536.273 145.263V174.316M536.273 145.263H572.955M536.273 174.316V203.368M536.273 174.316H572.955M536.273 203.368V232.421M536.273 203.368H572.955M536.273 232.421V261.474M536.273 232.421H572.955M536.273 261.474V290.526M536.273 261.474H572.955M536.273 290.526V319.579M536.273 290.526H572.955M536.273 319.579V348.632M536.273 319.579H572.955M536.273 348.632V377.684M536.273 348.632H572.955M536.273 377.684V406.737M536.273 377.684H572.955M536.273 406.737V435.789M536.273 406.737H572.955M536.273 435.789V464.842M536.273 435.789H572.955M536.273 464.842V493.895M536.273 464.842H572.955M536.273 493.895V522.947M536.273 493.895H572.955M536.273 522.947V552M536.273 522.947H572.955M536.273 552H572.955M572.955 0V29.0526M572.955 0H609.636M572.955 29.0526V58.1053M572.955 29.0526H609.636M572.955 58.1053V87.1579M572.955 58.1053H609.636M572.955 87.1579V116.211M572.955 87.1579H609.636M572.955 116.211V145.263M572.955 116.211H609.636M572.955 145.263V174.316M572.955 145.263H609.636M572.955 174.316V203.368M572.955 174.316H609.636M572.955 203.368V232.421M572.955 203.368H609.636M572.955 232.421V261.474M572.955 232.421H609.636M572.955 261.474V290.526M572.955 261.474H609.636M572.955 290.526V319.579M572.955 290.526H609.636M572.955 319.579V348.632M572.955 319.579H609.636M572.955 348.632V377.684M572.955 348.632H609.636M572.955 377.684V406.737M572.955 377.684H609.636M572.955 406.737V435.789M572.955 406.737H609.636M572.955 435.789V464.842M572.955 435.789H609.636M572.955 464.842V493.895M572.955 464.842H609.636M572.955 493.895V522.947M572.955 493.895H609.636M572.955 522.947V552M572.955 522.947H609.636M572.955 552H609.636M609.636 0V29.0526M609.636 0H646.318M609.636 29.0526V58.1053M609.636 29.0526H646.318M609.636 58.1053V87.1579M609.636 58.1053H646.318M609.636 87.1579V116.211M609.636 87.1579H646.318M609.636 116.211V145.263M609.636 116.211H646.318M609.636 145.263V174.316M609.636 145.263H646.318M609.636 174.316V203.368M609.636 174.316H646.318M609.636 203.368V232.421M609.636 203.368H646.318M609.636 232.421V261.474M609.636 232.421H646.318M609.636 261.474V290.526M609.636 261.474H646.318M609.636 290.526V319.579M609.636 290.526H646.318M609.636 319.579V348.632M609.636 319.579H646.318M609.636 348.632V377.684M609.636 348.632H646.318M609.636 377.684V406.737M609.636 377.684H646.318M609.636 406.737V435.789M609.636 406.737H646.318M609.636 435.789V464.842M609.636 435.789H646.318M609.636 464.842V493.895M609.636 464.842H646.318M609.636 493.895V522.947M609.636 493.895H646.318M609.636 522.947V552M609.636 522.947H646.318M609.636 552H646.318M646.318 0V29.0526M646.318 0H683M646.318 29.0526V58.1053M646.318 29.0526H683M646.318 58.1053V87.1579M646.318 58.1053H683M646.318 87.1579V116.211M646.318 87.1579H683M646.318 116.211V145.263M646.318 116.211H683M646.318 145.263V174.316M646.318 145.263H683M646.318 174.316V203.368M646.318 174.316H683M646.318 203.368V232.421M646.318 203.368H683M646.318 232.421V261.474M646.318 232.421H683M646.318 261.474V290.526M646.318 261.474H683M646.318 290.526V319.579M646.318 290.526H683M646.318 319.579V348.632M646.318 319.579H683M646.318 348.632V377.684M646.318 348.632H683M646.318 377.684V406.737M646.318 377.684H683M646.318 406.737V435.789M646.318 406.737H683M646.318 435.789V464.842M646.318 435.789H683M646.318 464.842V493.895M646.318 464.842H683M646.318 493.895V522.947M646.318 493.895H683M646.318 522.947V552M646.318 522.947H683M646.318 552H683M683 0V29.0526M683 0H719.682M683 29.0526V58.1053M683 29.0526H719.682M683 58.1053V87.1579M683 58.1053H719.682M683 87.1579V116.211M683 87.1579H719.682M683 116.211V145.263M683 116.211H719.682M683 145.263V174.316M683 145.263H719.682M683 174.316V203.368M683 174.316H719.682M683 203.368V232.421M683 203.368H719.682M683 232.421V261.474M683 232.421H719.682M683 261.474V290.526M683 261.474H719.682M683 290.526V319.579M683 290.526H719.682M683 319.579V348.632M683 319.579H719.682M683 348.632V377.684M683 348.632H719.682M683 377.684V406.737M683 377.684H719.682M683 406.737V435.789M683 406.737H719.682M683 435.789V464.842M683 435.789H719.682M683 464.842V493.895M683 464.842H719.682M683 493.895V522.947M683 493.895H719.682M683 522.947V552M683 522.947H719.682M683 552H719.682M719.682 0V29.0526M719.682 0H756.364M719.682 29.0526V58.1053M719.682 29.0526H756.364M719.682 58.1053V87.1579M719.682 58.1053H756.364M719.682 87.1579V116.211M719.682 87.1579H756.364M719.682 116.211V145.263M719.682 116.211H756.364M719.682 145.263V174.316M719.682 145.263H756.364M719.682 174.316V203.368M719.682 174.316H756.364M719.682 203.368V232.421M719.682 203.368H756.364M719.682 232.421V261.474M719.682 232.421H756.364M719.682 261.474V290.526M719.682 261.474H756.364M719.682 290.526V319.579M719.682 290.526H756.364M719.682 319.579V348.632M719.682 319.579H756.364M719.682 348.632V377.684M719.682 348.632H756.364M719.682 377.684V406.737M719.682 377.684H756.364M719.682 406.737V435.789M719.682 406.737H756.364M719.682 435.789V464.842M719.682 435.789H756.364M719.682 464.842V493.895M719.682 464.842H756.364M719.682 493.895V522.947M719.682 493.895H756.364M719.682 522.947V552M719.682 522.947H756.364M719.682 552H756.364M756.364 0V29.0526M756.364 0H793.046M756.364 29.0526V58.1053M756.364 29.0526H793.046M756.364 58.1053V87.1579M756.364 58.1053H793.046M756.364 87.1579V116.211M756.364 87.1579H793.046M756.364 116.211V145.263M756.364 116.211H793.046M756.364 145.263V174.316M756.364 145.263H793.046M756.364 174.316V203.368M756.364 174.316H793.046M756.364 203.368V232.421M756.364 203.368H793.046M756.364 232.421V261.474M756.364 232.421H793.046M756.364 261.474V290.526M756.364 261.474H793.046M756.364 290.526V319.579M756.364 290.526H793.046M756.364 319.579V348.632M756.364 319.579H793.046M756.364 348.632V377.684M756.364 348.632H793.046M756.364 377.684V406.737M756.364 377.684H793.046M756.364 406.737V435.789M756.364 406.737H793.046M756.364 435.789V464.842M756.364 435.789H793.046M756.364 464.842V493.895M756.364 464.842H793.046M756.364 493.895V522.947M756.364 493.895H793.046M756.364 522.947V552M756.364 522.947H793.046M756.364 552H793.046M793.046 0V29.0526M793.046 0H829.727M793.046 29.0526V58.1053M793.046 29.0526H829.727M793.046 58.1053V87.1579M793.046 58.1053H829.727M793.046 87.1579V116.211M793.046 87.1579H829.727M793.046 116.211V145.263M793.046 116.211H829.727M793.046 145.263V174.316M793.046 145.263H829.727M793.046 174.316V203.368M793.046 174.316H829.727M793.046 203.368V232.421M793.046 203.368H829.727M793.046 232.421V261.474M793.046 232.421H829.727M793.046 261.474V290.526M793.046 261.474H829.727M793.046 290.526V319.579M793.046 290.526H829.727M793.046 319.579V348.632M793.046 319.579H829.727M793.046 348.632V377.684M793.046 348.632H829.727M793.046 377.684V406.737M793.046 377.684H829.727M793.046 406.737V435.789M793.046 406.737H829.727M793.046 435.789V464.842M793.046 435.789H829.727M793.046 464.842V493.895M793.046 464.842H829.727M793.046 493.895V522.947M793.046 493.895H829.727M793.046 522.947V552M793.046 522.947H829.727M793.046 552H829.727M829.727 0V29.0526M829.727 0H866.409M829.727 29.0526V58.1053M829.727 29.0526H866.409M829.727 58.1053V87.1579M829.727 58.1053H866.409M829.727 87.1579V116.211M829.727 87.1579H866.409M829.727 116.211V145.263M829.727 116.211H866.409M829.727 145.263V174.316M829.727 145.263H866.409M829.727 174.316V203.368M829.727 174.316H866.409M829.727 203.368V232.421M829.727 203.368H866.409M829.727 232.421V261.474M829.727 232.421H866.409M829.727 261.474V290.526M829.727 261.474H866.409M829.727 290.526V319.579M829.727 290.526H866.409M829.727 319.579V348.632M829.727 319.579H866.409M829.727 348.632V377.684M829.727 348.632H866.409M829.727 377.684V406.737M829.727 377.684H866.409M829.727 406.737V435.789M829.727 406.737H866.409M829.727 435.789V464.842M829.727 435.789H866.409M829.727 464.842V493.895M829.727 464.842H866.409M829.727 493.895V522.947M829.727 493.895H866.409M829.727 522.947V552M829.727 522.947H866.409M829.727 552H866.409M866.409 0V29.0526M866.409 0H903.091M866.409 29.0526V58.1053M866.409 29.0526H903.091M866.409 58.1053V87.1579M866.409 58.1053H903.091M866.409 87.1579V116.211M866.409 87.1579H903.091M866.409 116.211V145.263M866.409 116.211H903.091M866.409 145.263V174.316M866.409 145.263H903.091M866.409 174.316V203.368M866.409 174.316H903.091M866.409 203.368V232.421M866.409 203.368H903.091M866.409 232.421V261.474M866.409 232.421H903.091M866.409 261.474V290.526M866.409 261.474H903.091M866.409 290.526V319.579M866.409 290.526H903.091M866.409 319.579V348.632M866.409 319.579H903.091M866.409 348.632V377.684M866.409 348.632H903.091M866.409 377.684V406.737M866.409 377.684H903.091M866.409 406.737V435.789M866.409 406.737H903.091M866.409 435.789V464.842M866.409 435.789H903.091M866.409 464.842V493.895M866.409 464.842H903.091M866.409 493.895V522.947M866.409 493.895H903.091M866.409 522.947V552M866.409 522.947H903.091M866.409 552H903.091M903.091 0V29.0526M903.091 0H939.773M903.091 29.0526V58.1053M903.091 29.0526H939.773M903.091 58.1053V87.1579M903.091 58.1053H939.773M903.091 87.1579V116.211M903.091 87.1579H939.773M903.091 116.211V145.263M903.091 116.211H939.773M903.091 145.263V174.316M903.091 145.263H939.773M903.091 174.316V203.368M903.091 174.316H939.773M903.091 203.368V232.421M903.091 203.368H939.773M903.091 232.421V261.474M903.091 232.421H939.773M903.091 261.474V290.526M903.091 261.474H939.773M903.091 290.526V319.579M903.091 290.526H939.773M903.091 319.579V348.632M903.091 319.579H939.773M903.091 348.632V377.684M903.091 348.632H939.773M903.091 377.684V406.737M903.091 377.684H939.773M903.091 406.737V435.789M903.091 406.737H939.773M903.091 435.789V464.842M903.091 435.789H939.773M903.091 464.842V493.895M903.091 464.842H939.773M903.091 493.895V522.947M903.091 493.895H939.773M903.091 522.947V552M903.091 522.947H939.773M903.091 552H939.773M939.773 0V29.0526M939.773 0H976.455M939.773 29.0526V58.1053M939.773 29.0526H976.455M939.773 58.1053V87.1579M939.773 58.1053H976.455M939.773 87.1579V116.211M939.773 87.1579H976.455M939.773 116.211V145.263M939.773 116.211H976.455M939.773 145.263V174.316M939.773 145.263H976.455M939.773 174.316V203.368M939.773 174.316H976.455M939.773 203.368V232.421M939.773 203.368H976.455M939.773 232.421V261.474M939.773 232.421H976.455M939.773 261.474V290.526M939.773 261.474H976.455M939.773 290.526V319.579M939.773 290.526H976.455M939.773 319.579V348.632M939.773 319.579H976.455M939.773 348.632V377.684M939.773 348.632H976.455M939.773 377.684V406.737M939.773 377.684H976.455M939.773 406.737V435.789M939.773 406.737H976.455M939.773 435.789V464.842M939.773 435.789H976.455M939.773 464.842V493.895M939.773 464.842H976.455M939.773 493.895V522.947M939.773 493.895H976.455M939.773 522.947V552M939.773 522.947H976.455M939.773 552H976.455M976.455 0V29.0526M976.455 0H1013.14M976.455 29.0526V58.1053M976.455 29.0526H1013.14M976.455 58.1053V87.1579M976.455 58.1053H1013.14M976.455 87.1579V116.211M976.455 87.1579H1013.14M976.455 116.211V145.263M976.455 116.211H1013.14M976.455 145.263V174.316M976.455 145.263H1013.14M976.455 174.316V203.368M976.455 174.316H1013.14M976.455 203.368V232.421M976.455 203.368H1013.14M976.455 232.421V261.474M976.455 232.421H1013.14M976.455 261.474V290.526M976.455 261.474H1013.14M976.455 290.526V319.579M976.455 290.526H1013.14M976.455 319.579V348.632M976.455 319.579H1013.14M976.455 348.632V377.684M976.455 348.632H1013.14M976.455 377.684V406.737M976.455 377.684H1013.14M976.455 406.737V435.789M976.455 406.737H1013.14M976.455 435.789V464.842M976.455 435.789H1013.14M976.455 464.842V493.895M976.455 464.842H1013.14M976.455 493.895V522.947M976.455 493.895H1013.14M976.455 522.947V552M976.455 522.947H1013.14M976.455 552H1013.14M1013.14 0V29.0526M1013.14 0H1049.82M1013.14 29.0526V58.1053M1013.14 29.0526H1049.82M1013.14 58.1053V87.1579M1013.14 58.1053H1049.82M1013.14 87.1579V116.211M1013.14 87.1579H1049.82M1013.14 116.211V145.263M1013.14 116.211H1049.82M1013.14 145.263V174.316M1013.14 145.263H1049.82M1013.14 174.316V203.368M1013.14 174.316H1049.82M1013.14 203.368V232.421M1013.14 203.368H1049.82M1013.14 232.421V261.474M1013.14 232.421H1049.82M1013.14 261.474V290.526M1013.14 261.474H1049.82M1013.14 290.526V319.579M1013.14 290.526H1049.82M1013.14 319.579V348.632M1013.14 319.579H1049.82M1013.14 348.632V377.684M1013.14 348.632H1049.82M1013.14 377.684V406.737M1013.14 377.684H1049.82M1013.14 406.737V435.789M1013.14 406.737H1049.82M1013.14 435.789V464.842M1013.14 435.789H1049.82M1013.14 464.842V493.895M1013.14 464.842H1049.82M1013.14 493.895V522.947M1013.14 493.895H1049.82M1013.14 522.947V552M1013.14 522.947H1049.82M1013.14 552H1049.82M1049.82 0V29.0526M1049.82 0H1086.5M1049.82 29.0526V58.1053M1049.82 29.0526H1086.5M1049.82 58.1053V87.1579M1049.82 58.1053H1086.5M1049.82 87.1579V116.211M1049.82 87.1579H1086.5M1049.82 116.211V145.263M1049.82 116.211H1086.5M1049.82 145.263V174.316M1049.82 145.263H1086.5M1049.82 174.316V203.368M1049.82 174.316H1086.5M1049.82 203.368V232.421M1049.82 203.368H1086.5M1049.82 232.421V261.474M1049.82 232.421H1086.5M1049.82 261.474V290.526M1049.82 261.474H1086.5M1049.82 290.526V319.579M1049.82 290.526H1086.5M1049.82 319.579V348.632M1049.82 319.579H1086.5M1049.82 348.632V377.684M1049.82 348.632H1086.5M1049.82 377.684V406.737M1049.82 377.684H1086.5M1049.82 406.737V435.789M1049.82 406.737H1086.5M1049.82 435.789V464.842M1049.82 435.789H1086.5M1049.82 464.842V493.895M1049.82 464.842H1086.5M1049.82 493.895V522.947M1049.82 493.895H1086.5M1049.82 522.947V552M1049.82 522.947H1086.5M1049.82 552H1086.5M1086.5 0V29.0526M1086.5 0H1123.18M1086.5 29.0526V58.1053M1086.5 29.0526H1123.18M1086.5 58.1053V87.1579M1086.5 58.1053H1123.18M1086.5 87.1579V116.211M1086.5 87.1579H1123.18M1086.5 116.211V145.263M1086.5 116.211H1123.18M1086.5 145.263V174.316M1086.5 145.263H1123.18M1086.5 174.316V203.368M1086.5 174.316H1123.18M1086.5 203.368V232.421M1086.5 203.368H1123.18M1086.5 232.421V261.474M1086.5 232.421H1123.18M1086.5 261.474V290.526M1086.5 261.474H1123.18M1086.5 290.526V319.579M1086.5 290.526H1123.18M1086.5 319.579V348.632M1086.5 319.579H1123.18M1086.5 348.632V377.684M1086.5 348.632H1123.18M1086.5 377.684V406.737M1086.5 377.684H1123.18M1086.5 406.737V435.789M1086.5 406.737H1123.18M1086.5 435.789V464.842M1086.5 435.789H1123.18M1086.5 464.842V493.895M1086.5 464.842H1123.18M1086.5 493.895V522.947M1086.5 493.895H1123.18M1086.5 522.947V552M1086.5 522.947H1123.18M1086.5 552H1123.18M1123.18 0V29.0526M1123.18 0H1159.86M1123.18 29.0526V58.1053M1123.18 29.0526H1159.86M1123.18 58.1053V87.1579M1123.18 58.1053H1159.86M1123.18 87.1579V116.211M1123.18 87.1579H1159.86M1123.18 116.211V145.263M1123.18 116.211H1159.86M1123.18 145.263V174.316M1123.18 145.263H1159.86M1123.18 174.316V203.368M1123.18 174.316H1159.86M1123.18 203.368V232.421M1123.18 203.368H1159.86M1123.18 232.421V261.474M1123.18 232.421H1159.86M1123.18 261.474V290.526M1123.18 261.474H1159.86M1123.18 290.526V319.579M1123.18 290.526H1159.86M1123.18 319.579V348.632M1123.18 319.579H1159.86M1123.18 348.632V377.684M1123.18 348.632H1159.86M1123.18 377.684V406.737M1123.18 377.684H1159.86M1123.18 406.737V435.789M1123.18 406.737H1159.86M1123.18 435.789V464.842M1123.18 435.789H1159.86M1123.18 464.842V493.895M1123.18 464.842H1159.86M1123.18 493.895V522.947M1123.18 493.895H1159.86M1123.18 522.947V552M1123.18 522.947H1159.86M1123.18 552H1159.86M1159.86 0V29.0526M1159.86 0H1196.55M1159.86 29.0526V58.1053M1159.86 29.0526H1196.55M1159.86 58.1053V87.1579M1159.86 58.1053H1196.55M1159.86 87.1579V116.211M1159.86 87.1579H1196.55M1159.86 116.211V145.263M1159.86 116.211H1196.55M1159.86 145.263V174.316M1159.86 145.263H1196.55M1159.86 174.316V203.368M1159.86 174.316H1196.55M1159.86 203.368V232.421M1159.86 203.368H1196.55M1159.86 232.421V261.474M1159.86 232.421H1196.55M1159.86 261.474V290.526M1159.86 261.474H1196.55M1159.86 290.526V319.579M1159.86 290.526H1196.55M1159.86 319.579V348.632M1159.86 319.579H1196.55M1159.86 348.632V377.684M1159.86 348.632H1196.55M1159.86 377.684V406.737M1159.86 377.684H1196.55M1159.86 406.737V435.789M1159.86 406.737H1196.55M1159.86 435.789V464.842M1159.86 435.789H1196.55M1159.86 464.842V493.895M1159.86 464.842H1196.55M1159.86 493.895V522.947M1159.86 493.895H1196.55M1159.86 522.947V552M1159.86 522.947H1196.55M1159.86 552H1196.55M1196.55 0V29.0526M1196.55 0H1233.23M1196.55 29.0526V58.1053M1196.55 29.0526H1233.23M1196.55 58.1053V87.1579M1196.55 58.1053H1233.23M1196.55 87.1579V116.211M1196.55 87.1579H1233.23M1196.55 116.211V145.263M1196.55 116.211H1233.23M1196.55 145.263V174.316M1196.55 145.263H1233.23M1196.55 174.316V203.368M1196.55 174.316H1233.23M1196.55 203.368V232.421M1196.55 203.368H1233.23M1196.55 232.421V261.474M1196.55 232.421H1233.23M1196.55 261.474V290.526M1196.55 261.474H1233.23M1196.55 290.526V319.579M1196.55 290.526H1233.23M1196.55 319.579V348.632M1196.55 319.579H1233.23M1196.55 348.632V377.684M1196.55 348.632H1233.23M1196.55 377.684V406.737M1196.55 377.684H1233.23M1196.55 406.737V435.789M1196.55 406.737H1233.23M1196.55 435.789V464.842M1196.55 435.789H1233.23M1196.55 464.842V493.895M1196.55 464.842H1233.23M1196.55 493.895V522.947M1196.55 493.895H1233.23M1196.55 522.947V552M1196.55 522.947H1233.23M1196.55 552H1233.23M1233.23 0V29.0526M1233.23 0H1269.91M1233.23 29.0526V58.1053M1233.23 29.0526H1269.91M1233.23 58.1053V87.1579M1233.23 58.1053H1269.91M1233.23 87.1579V116.211M1233.23 87.1579H1269.91M1233.23 116.211V145.263M1233.23 116.211H1269.91M1233.23 145.263V174.316M1233.23 145.263H1269.91M1233.23 174.316V203.368M1233.23 174.316H1269.91M1233.23 203.368V232.421M1233.23 203.368H1269.91M1233.23 232.421V261.474M1233.23 232.421H1269.91M1233.23 261.474V290.526M1233.23 261.474H1269.91M1233.23 290.526V319.579M1233.23 290.526H1269.91M1233.23 319.579V348.632M1233.23 319.579H1269.91M1233.23 348.632V377.684M1233.23 348.632H1269.91M1233.23 377.684V406.737M1233.23 377.684H1269.91M1233.23 406.737V435.789M1233.23 406.737H1269.91M1233.23 435.789V464.842M1233.23 435.789H1269.91M1233.23 464.842V493.895M1233.23 464.842H1269.91M1233.23 493.895V522.947M1233.23 493.895H1269.91M1233.23 522.947V552M1233.23 522.947H1269.91M1233.23 552H1269.91M1269.91 0V29.0526M1269.91 0H1306.59M1269.91 29.0526V58.1053M1269.91 29.0526H1306.59M1269.91 58.1053V87.1579M1269.91 58.1053H1306.59M1269.91 87.1579V116.211M1269.91 87.1579H1306.59M1269.91 116.211V145.263M1269.91 116.211H1306.59M1269.91 145.263V174.316M1269.91 145.263H1306.59M1269.91 174.316V203.368M1269.91 174.316H1306.59M1269.91 203.368V232.421M1269.91 203.368H1306.59M1269.91 232.421V261.474M1269.91 232.421H1306.59M1269.91 261.474V290.526M1269.91 261.474H1306.59M1269.91 290.526V319.579M1269.91 290.526H1306.59M1269.91 319.579V348.632M1269.91 319.579H1306.59M1269.91 348.632V377.684M1269.91 348.632H1306.59M1269.91 377.684V406.737M1269.91 377.684H1306.59M1269.91 406.737V435.789M1269.91 406.737H1306.59M1269.91 435.789V464.842M1269.91 435.789H1306.59M1269.91 464.842V493.895M1269.91 464.842H1306.59M1269.91 493.895V522.947M1269.91 493.895H1306.59M1269.91 522.947V552M1269.91 522.947H1306.59M1269.91 552H1306.59M1306.59 0V29.0526M1306.59 0H1343.27M1306.59 29.0526V58.1053M1306.59 29.0526H1343.27M1306.59 58.1053V87.1579M1306.59 58.1053H1343.27M1306.59 87.1579V116.211M1306.59 87.1579H1343.27M1306.59 116.211V145.263M1306.59 116.211H1343.27M1306.59 145.263V174.316M1306.59 145.263H1343.27M1306.59 174.316V203.368M1306.59 174.316H1343.27M1306.59 203.368V232.421M1306.59 203.368H1343.27M1306.59 232.421V261.474M1306.59 232.421H1343.27M1306.59 261.474V290.526M1306.59 261.474H1343.27M1306.59 290.526V319.579M1306.59 290.526H1343.27M1306.59 319.579V348.632M1306.59 319.579H1343.27M1306.59 348.632V377.684M1306.59 348.632H1343.27M1306.59 377.684V406.737M1306.59 377.684H1343.27M1306.59 406.737V435.789M1306.59 406.737H1343.27M1306.59 435.789V464.842M1306.59 435.789H1343.27M1306.59 464.842V493.895M1306.59 464.842H1343.27M1306.59 493.895V522.947M1306.59 493.895H1343.27M1306.59 522.947V552M1306.59 522.947H1343.27M1306.59 552H1343.27M1343.27 0V29.0526M1343.27 0H1379.95M1343.27 29.0526V58.1053M1343.27 29.0526H1379.95M1343.27 58.1053V87.1579M1343.27 58.1053H1379.95M1343.27 87.1579V116.211M1343.27 87.1579H1379.95M1343.27 116.211V145.263M1343.27 116.211H1379.95M1343.27 145.263V174.316M1343.27 145.263H1379.95M1343.27 174.316V203.368M1343.27 174.316H1379.95M1343.27 203.368V232.421M1343.27 203.368H1379.95M1343.27 232.421V261.474M1343.27 232.421H1379.95M1343.27 261.474V290.526M1343.27 261.474H1379.95M1343.27 290.526V319.579M1343.27 290.526H1379.95M1343.27 319.579V348.632M1343.27 319.579H1379.95M1343.27 348.632V377.684M1343.27 348.632H1379.95M1343.27 377.684V406.737M1343.27 377.684H1379.95M1343.27 406.737V435.789M1343.27 406.737H1379.95M1343.27 435.789V464.842M1343.27 435.789H1379.95M1343.27 464.842V493.895M1343.27 464.842H1379.95M1343.27 493.895V522.947M1343.27 493.895H1379.95M1343.27 522.947V552M1343.27 522.947H1379.95M1343.27 552H1379.95M1379.95 0V29.0526M1379.95 0H1416.64M1379.95 29.0526V58.1053M1379.95 29.0526H1416.64M1379.95 58.1053V87.1579M1379.95 58.1053H1416.64M1379.95 87.1579V116.211M1379.95 87.1579H1416.64M1379.95 116.211V145.263M1379.95 116.211H1416.64M1379.95 145.263V174.316M1379.95 145.263H1416.64M1379.95 174.316V203.368M1379.95 174.316H1416.64M1379.95 203.368V232.421M1379.95 203.368H1416.64M1379.95 232.421V261.474M1379.95 232.421H1416.64M1379.95 261.474V290.526M1379.95 261.474H1416.64M1379.95 290.526V319.579M1379.95 290.526H1416.64M1379.95 319.579V348.632M1379.95 319.579H1416.64M1379.95 348.632V377.684M1379.95 348.632H1416.64M1379.95 377.684V406.737M1379.95 377.684H1416.64M1379.95 406.737V435.789M1379.95 406.737H1416.64M1379.95 435.789V464.842M1379.95 435.789H1416.64M1379.95 464.842V493.895M1379.95 464.842H1416.64M1379.95 493.895V522.947M1379.95 493.895H1416.64M1379.95 522.947V552M1379.95 522.947H1416.64M1379.95 552H1416.64M1416.64 0V29.0526M1416.64 0H1453.32M1416.64 29.0526V58.1053M1416.64 29.0526H1453.32M1416.64 58.1053V87.1579M1416.64 58.1053H1453.32M1416.64 87.1579V116.211M1416.64 87.1579H1453.32M1416.64 116.211V145.263M1416.64 116.211H1453.32M1416.64 145.263V174.316M1416.64 145.263H1453.32M1416.64 174.316V203.368M1416.64 174.316H1453.32M1416.64 203.368V232.421M1416.64 203.368H1453.32M1416.64 232.421V261.474M1416.64 232.421H1453.32M1416.64 261.474V290.526M1416.64 261.474H1453.32M1416.64 290.526V319.579M1416.64 290.526H1453.32M1416.64 319.579V348.632M1416.64 319.579H1453.32M1416.64 348.632V377.684M1416.64 348.632H1453.32M1416.64 377.684V406.737M1416.64 377.684H1453.32M1416.64 406.737V435.789M1416.64 406.737H1453.32M1416.64 435.789V464.842M1416.64 435.789H1453.32M1416.64 464.842V493.895M1416.64 464.842H1453.32M1416.64 493.895V522.947M1416.64 493.895H1453.32M1416.64 522.947V552M1416.64 522.947H1453.32M1416.64 552H1453.32M1453.32 0V29.0526M1453.32 0H1490V29.0526M1453.32 29.0526V58.1053M1453.32 29.0526H1490M1453.32 58.1053V87.1579M1453.32 58.1053H1490M1453.32 87.1579V116.211M1453.32 87.1579H1490M1453.32 116.211V145.263M1453.32 116.211H1490M1453.32 145.263V174.316M1453.32 145.263H1490M1453.32 174.316V203.368M1453.32 174.316H1490M1453.32 203.368V232.421M1453.32 203.368H1490M1453.32 232.421V261.474M1453.32 232.421H1490M1453.32 261.474V290.526M1453.32 261.474H1490M1453.32 290.526V319.579M1453.32 290.526H1490M1453.32 319.579V348.632M1453.32 319.579H1490M1453.32 348.632V377.684M1453.32 348.632H1490M1453.32 377.684V406.737M1453.32 377.684H1490M1453.32 406.737V435.789M1453.32 406.737H1490M1453.32 435.789V464.842M1453.32 435.789H1490M1453.32 464.842V493.895M1453.32 464.842H1490M1453.32 493.895V522.947M1453.32 493.895H1490M1453.32 522.947V552M1453.32 522.947H1490M1453.32 552H1490V522.947M1490 29.0526V58.1053M1490 58.1053V87.1579M1490 87.1579V116.211M1490 116.211V145.263M1490 145.263V174.316M1490 174.316V203.368M1490 203.368V232.421M1490 232.421V261.474M1490 261.474V290.526M1490 290.526V319.579M1490 319.579V348.632M1490 348.632V377.684M1490 377.684V406.737M1490 406.737V435.789M1490 435.789V464.842M1490 464.842V493.895M1490 493.895V522.947" stroke="url(#paint0_linear_6179_3275)" stroke-width="1.74474"/>
</g>
<defs>
<linearGradient id="paint0_linear_6179_3275" x1="683" y1="461.405" x2="683" y2="-35.2901" gradientUnits="userSpaceOnUse">
<stop stop-color="#191A4E" stop-opacity="0.5"/>
<stop offset="1" stop-color="#191A4E" stop-opacity="0.1"/>
</linearGradient>
</defs>
</svg>
