<svg width="18" height="18" viewBox="0 0 18 18" fill="none" xmlns="http://www.w3.org/2000/svg">
<g clip-path="url(#clip0_4578_1759)">
<path d="M7.86094 13.3313C8.49828 12.6993 8.85602 11.8471 8.85696 10.9588C8.85696 10.0402 8.48441 9.15913 7.82126 8.50957C7.15811 7.86002 6.25878 7.49512 5.32095 7.49512C4.38311 7.49512 3.48361 7.86002 2.82046 8.50957C2.15731 9.15913 1.78477 10.0402 1.78477 10.9588C1.78588 11.8511 2.14699 12.7069 2.78934 13.3396C2.00597 13.655 1.32886 14.1798 0.835604 14.8541C0.342345 15.5285 0.0528776 16.3252 1.42774e-09 17.1532C-1.22501e-05 17.349 0.0788278 17.537 0.219419 17.6762C0.36001 17.8155 0.55102 17.8947 0.750949 17.8969H0.766341C0.965035 17.8977 1.15615 17.8226 1.29924 17.6876C1.44233 17.5526 1.52612 17.3683 1.53268 17.1738C1.54109 16.8897 1.71482 14.3949 5.32659 14.3716C8.96918 14.3579 9.28159 17.0077 9.304 17.3041C9.31686 17.4934 9.40304 17.6707 9.54497 17.7998C9.68691 17.9288 9.87377 17.9999 10.0674 17.9984H10.1152C10.3162 17.9871 10.5043 17.8981 10.6383 17.7509C10.7723 17.6037 10.8412 17.4104 10.8297 17.2135C10.751 16.3605 10.4316 15.5456 9.90736 14.8601C9.38311 14.1745 8.6746 13.6452 7.86094 13.3313ZM5.32095 9.01974C5.84579 9.01974 6.34912 9.22393 6.72023 9.58744C7.09135 9.95094 7.29982 10.444 7.29982 10.958C7.29982 11.4721 7.09135 11.9651 6.72023 12.3286C6.34912 12.6921 5.84579 12.8964 5.32095 12.8964C4.79611 12.8964 4.29278 12.6921 3.92166 12.3286C3.55054 11.9651 3.34207 11.4721 3.34207 10.958C3.34207 10.444 3.55054 9.95094 3.92166 9.58744C4.29278 9.22393 4.79611 9.01974 5.32095 9.01974Z" fill="#191A4E"/>
<path d="M17.9971 0.739685C17.9965 0.641779 17.9762 0.544957 17.9374 0.454745C17.8985 0.364533 17.8418 0.282749 17.7706 0.214029C17.6994 0.14531 17.6151 0.0910211 17.5225 0.0543059C17.4298 0.0175906 17.3307 -0.000872975 17.2307 3.17072e-05H5.97093C5.87098 -0.000872975 5.77183 0.0175906 5.67917 0.0543059C5.58651 0.0910211 5.50205 0.14531 5.43085 0.214029C5.35965 0.282749 5.30312 0.364533 5.26428 0.454745C5.22543 0.544957 5.20514 0.641779 5.20459 0.739685V6.13954C5.21304 6.33289 5.29742 6.51565 5.44008 6.64954C5.58275 6.78342 5.77267 6.85809 5.97025 6.85809C6.16782 6.85809 6.35775 6.78342 6.50041 6.64954C6.64307 6.51565 6.72746 6.33289 6.7359 6.13954V1.47389H16.4644V10.229C16.4654 10.2528 16.4678 10.2767 16.4714 10.3003C16.2156 11.113 15.6683 11.8076 14.9303 12.2558C15.1629 11.5399 15.1906 10.7752 15.0102 10.045C15.0102 10.0286 14.9975 10.0135 14.9919 9.99837C14.9839 9.97276 14.9745 9.94758 14.9638 9.92291C14.954 9.90232 14.9415 9.8831 14.9303 9.86252C14.9182 9.84066 14.9045 9.81964 14.8896 9.79945C14.8756 9.78132 14.8607 9.76388 14.8448 9.74727C14.8276 9.7276 14.8095 9.7088 14.7903 9.69098L14.7453 9.65396C14.722 9.63573 14.6977 9.6188 14.6724 9.60321L14.6305 9.58126C14.6007 9.56467 14.5698 9.54994 14.538 9.53729L14.5002 9.52632C14.4654 9.51516 14.4297 9.50647 14.3937 9.50027H14.3572C14.3276 9.49571 14.2977 9.49298 14.2676 9.49206H10.5927C10.3923 9.49206 10.2001 9.56998 10.0583 9.70882C9.91656 9.84766 9.83701 10.036 9.83701 10.2324C9.83701 10.4287 9.91656 10.617 10.0583 10.7559C10.2001 10.8947 10.3923 10.9727 10.5927 10.9727H13.5938C13.618 11.3557 13.5274 11.7373 13.3332 12.0705C13.209 12.2383 13.0502 12.3785 12.867 12.4821C12.6837 12.5856 12.4802 12.6502 12.2698 12.6715C11.8887 12.7388 10.9949 12.8966 11.0188 13.6527C11.0188 13.8202 11.1083 14.3732 11.9643 14.4761C12.0922 14.4905 12.2209 14.4974 12.3496 14.4967C13.5807 14.5153 14.7862 14.1525 15.7942 13.46C16.8021 12.7675 17.5608 11.7807 17.962 10.6406C17.962 10.5025 17.9718 10.3653 17.9914 10.229L17.9971 0.739685Z" fill="#191A4E"/>
<path d="M8.85974 4.25661H12.8666C13.067 4.25661 13.2594 4.1786 13.4012 4.03976C13.5429 3.90092 13.6225 3.71255 13.6225 3.5162C13.6225 3.31985 13.5429 3.13156 13.4012 2.99272C13.2594 2.85388 13.067 2.77588 12.8666 2.77588H8.85974C8.65928 2.77588 8.46705 2.85388 8.3253 2.99272C8.18356 3.13156 8.104 3.31985 8.104 3.5162C8.104 3.71255 8.18356 3.90092 8.3253 4.03976C8.46705 4.1786 8.65928 4.25661 8.85974 4.25661Z" fill="#191A4E"/>
<path d="M8.85974 6.58425H12.8666C13.067 6.58425 13.2594 6.50624 13.4012 6.3674C13.5429 6.22856 13.6225 6.04019 13.6225 5.84384C13.6225 5.64749 13.5429 5.4592 13.4012 5.32036C13.2594 5.18152 13.067 5.10352 12.8666 5.10352H8.85974C8.65928 5.10352 8.46705 5.18152 8.3253 5.32036C8.18356 5.4592 8.104 5.64749 8.104 5.84384C8.104 6.04019 8.18356 6.22856 8.3253 6.3674C8.46705 6.50624 8.65928 6.58425 8.85974 6.58425Z" fill="#191A4E"/>
</g>
<defs>
<clipPath id="clip0_4578_1759">
<rect width="18" height="18" fill="white"/>
</clipPath>
</defs>
</svg>
