<svg xmlns="http://www.w3.org/2000/svg" width="70" height="70" viewBox="0 0 70 70">
    <g data-name="Group 28978" transform="translate(-334 -3666)">
        <circle data-name="Ellipse 685" cx="35" cy="35" r="35" transform="translate(334 3666)" style="fill:#f2f4f7"/>
        <g data-name="Group 29004">
            <path data-name="Path 26227" d="m212.028 243.7-15.3-1.31a.648.648 0 0 0-.694.537l-2.253 13.3a.649.649 0 0 1-.779.524 5.275 5.275 0 0 0-2.363.058c-2.335.582-3.861 2.529-3.407 4.348s2.714 2.823 5.049 2.241a4.42 4.42 0 0 0 3.445-3.218l2.21-13.041a.648.648 0 0 1 .694-.537l10.15.869a.648.648 0 0 1 .584.754l-1.328 7.835a.649.649 0 0 1-.779.524 5.274 5.274 0 0 0-2.368.057c-2.335.582-3.861 2.529-3.407 4.348s2.714 2.823 5.049 2.241a5.237 5.237 0 0 0 2.233-1.161 4.181 4.181 0 0 0 .734-.857 3.552 3.552 0 0 0 .259-.483 6.367 6.367 0 0 0 .365-1.542l2.491-14.732a.648.648 0 0 0-.585-.755z" transform="translate(176.507 3457.645)" style="fill:#e94444"/>
            <path data-name="Path 26228" d="m414.889 258.782-.034.2-2.393 14.152a8.417 8.417 0 0 1-.408 1.872 3.517 3.517 0 0 1-.252.487 4.148 4.148 0 0 1-.74.882 5.233 5.233 0 0 1-2.254 1.18 5.33 5.33 0 0 1-2.139.1q.265-.039.534-.106a5.322 5.322 0 0 0 2.267-1.177 4.241 4.241 0 0 0 .751-.88 5.915 5.915 0 0 0 .673-2.312l.454-2.687.577-3.411.593-3.51.5-2.982.309-1.828c.016-.1.033-.191.048-.287a.655.655 0 0 0-.154-.543l1.08.092a.648.648 0 0 1 .588.758z" transform="translate(-25.77 3443.321)" style="fill:#d83131"/>
        </g>
        <g data-name="Group 29008">
            <g data-name="Group 29005">
                <path data-name="Path 26229" d="M78.08 345.095a6.272 6.272 0 0 1-3.545 4.133.213.213 0 0 0 0 .4 6.272 6.272 0 0 1 3.545 4.133.213.213 0 0 0 .406 0 6.272 6.272 0 0 1 3.545-4.133.213.213 0 0 0 0-.4 6.272 6.272 0 0 1-3.545-4.133.213.213 0 0 0-.406 0z" transform="translate(280.403 3363.145)" style="fill:#fdb441"/>
                <path data-name="Path 26230" d="M114.661 349.628a6.269 6.269 0 0 0-3.544 4.133.213.213 0 0 1-.407 0 7.986 7.986 0 0 0-.9-1.936 3.529 3.529 0 0 1 2.034-2.2.213.213 0 0 0 0-.4 3.532 3.532 0 0 1-2.034-2.2 7.985 7.985 0 0 0 .9-1.935.213.213 0 0 1 .407 0 6.272 6.272 0 0 0 3.544 4.133.213.213 0 0 1 0 .405z" transform="translate(247.772 3363.142)" style="fill:#fea613"/>
            </g>
            <g data-name="Group 29006">
                <path data-name="Path 26231" d="M312.845 96.752a4.584 4.584 0 0 1-2.591 3.021.156.156 0 0 0 0 .29 4.584 4.584 0 0 1 2.591 3.021.156.156 0 0 0 .3 0 4.584 4.584 0 0 1 2.59-3.021.156.156 0 0 0 0-.29 4.584 4.584 0 0 1-2.59-3.021.156.156 0 0 0-.3 0z" transform="translate(63.163 3591.947)" style="fill:#fdb441"/>
                <path data-name="Path 26232" d="M339.582 100.063a4.582 4.582 0 0 0-2.59 3.021.156.156 0 0 1-.3 0 5.838 5.838 0 0 0-.657-1.415c.3-.639.259-1.269 1.16-1.606a.155.155 0 0 0 0-.29c-.9-.337-.86-.967-1.16-1.606a5.836 5.836 0 0 0 .657-1.414.156.156 0 0 1 .3 0 4.584 4.584 0 0 0 2.59 3.021.156.156 0 0 1 0 .289z" transform="translate(39.313 3591.946)" style="fill:#fea613"/>
            </g>
            <g data-name="Group 29007">
                <path data-name="Path 26233" d="M416.977.137a5.776 5.776 0 0 1-3.264 3.806.2.2 0 0 0 0 .366 5.776 5.776 0 0 1 3.264 3.806.2.2 0 0 0 .374 0 5.776 5.776 0 0 1 3.264-3.806.2.2 0 0 0 0-.366 5.776 5.776 0 0 1-3.264-3.806.2.2 0 0 0-.374 0z" transform="translate(-32.147 3681)" style="fill:#fdb441"/>
                <path data-name="Path 26234" d="M450.665 4.31a5.773 5.773 0 0 0-3.265 3.806.2.2 0 0 1-.375 0 7.355 7.355 0 0 0-.828-1.783c.378-.806.326-1.6 1.462-2.023a.2.2 0 0 0 0-.366c-1.136-.425-1.084-1.218-1.462-2.024a7.352 7.352 0 0 0 .828-1.782.2.2 0 0 1 .375 0 5.776 5.776 0 0 0 3.264 3.806.2.2 0 0 1 0 .366z" transform="translate(-62.198 3680.999)" style="fill:#fea613"/>
            </g>
        </g>
        <g data-name="Group 29009">
            <path data-name="Path 26235" d="M18.887.019 3.968 3.662a.648.648 0 0 0-.486.731l2.11 13.321a.65.65 0 0 1-.571.745 5.275 5.275 0 0 0-2.22.81C.774 20.566-.05 22.9.961 24.478s3.473 1.808 5.5.511A4.42 4.42 0 0 0 8.7 20.84L6.63 7.776a.648.648 0 0 1 .486-.731l9.9-2.417a.648.648 0 0 1 .794.528l1.243 7.849a.649.649 0 0 1-.571.745 5.275 5.275 0 0 0-2.225.81c-2.027 1.3-2.851 3.629-1.84 5.209s3.473 1.808 5.5.511q.105-.067.208-.139a5.111 5.111 0 0 0 1.669-1.923 3.774 3.774 0 0 0 .338-2.268L21.8 13.9 19.681.547a.648.648 0 0 0-.794-.528z" transform="translate(348.471 3681)" style="fill:#e94444"/>
            <path data-name="Path 26236" d="m222.728.548 2.439 15.359a4.38 4.38 0 0 1-1.932 4.187q-.135.1-.276.188a5.327 5.327 0 0 1-2 .778q.239-.121.472-.271.187-.12.364-.254a4.433 4.433 0 0 0 1.869-4.248l-.341-2.147-.5-3.157-.563-3.543-.525-3.3-.383-2.44-.152-.957a.655.655 0 0 0-.319-.465l1.053-.257a.648.648 0 0 1 .794.527z" transform="translate(145.424 3680.998)" style="fill:#d83131"/>
        </g>
    </g>
</svg>
