<svg width="185" height="30" viewBox="0 0 185 30" fill="none" xmlns="http://www.w3.org/2000/svg">
<path d="M14.6559 18.2783C15.7105 15.6446 17.3519 13.286 19.4552 11.3821C21.5585 9.47811 24.0683 8.0789 26.7937 7.29087C25.4951 5.20767 23.6871 3.48973 21.5404 2.29919C19.3936 1.10866 16.9789 0.484799 14.5241 0.486499C12.1092 0.449913 9.72463 1.02745 7.59409 2.16492C5.46356 3.30238 3.65693 4.96248 2.34375 6.98944C2.34375 6.98944 10.7132 8.76589 14.6559 18.2783Z" fill="#FBDC4B"/>
<path d="M0.473227 11.4548C0.473227 11.4548 14.1423 14.8373 11.0122 29.1566C11.0122 29.1566 -2.68661 25.3144 0.473227 11.4548Z" fill="#E782AF"/>
<path d="M28.6038 11.4548C28.6038 11.4548 14.9292 14.8373 18.0649 29.1566C18.0649 29.1566 31.7645 25.3144 28.6038 11.4548Z" fill="#10A05C"/>
<path d="M37.291 7.51537H44.0247V26.1086H47.6105V7.51537H54.9414L54.406 4.71484H37.291V7.51537Z" fill="#6C838C"/>
<path d="M63.9053 12.6735C63.2963 11.9205 62.5156 11.3247 61.6287 10.936C60.7418 10.5473 59.7745 10.3771 58.8082 10.4396C57.4147 10.4046 56.0383 10.753 54.8293 11.4468C53.7123 12.1116 52.8153 13.0899 52.2498 14.2602C51.6286 15.5718 51.3215 17.0101 51.3527 18.461C51.2959 19.5367 51.4608 20.6127 51.837 21.6221C52.2133 22.6315 52.7929 23.5528 53.5399 24.3289C54.9975 25.7656 57.1105 26.484 59.8789 26.484C61.8943 26.4978 63.8639 25.8824 65.5129 24.7236L64.443 22.1441C63.6967 22.5373 62.9243 22.8789 62.1312 23.1666C61.4258 23.3972 60.6869 23.5089 59.9448 23.497C57.0087 23.497 55.3831 22.1337 55.068 19.4071H65.6375V18.3678C65.7202 16.3284 65.1096 14.3212 63.9053 12.6735ZM56.277 14.4041C56.5966 14.0874 56.9782 13.8401 57.3979 13.6777C57.8175 13.5153 58.2662 13.4413 58.7158 13.4604C59.1509 13.4396 59.5855 13.51 59.9918 13.6672C60.3981 13.8243 60.7671 14.0646 61.075 14.3727C61.7276 15.1237 62.1338 16.0569 62.2389 17.0463H55.1291C55.21 16.0631 55.6135 15.1342 56.277 14.4041Z" fill="#6C838C"/>
<path d="M73.1172 13.6493C74.921 13.6493 75.844 14.7084 75.8863 16.8268H72.5513C71.0782 16.7553 69.6263 17.2002 68.4461 18.0848C67.9267 18.5146 67.5153 19.0601 67.2449 19.6777C66.9745 20.2953 66.8526 20.9677 66.8891 21.6409C66.8591 22.2909 66.9651 22.9401 67.2004 23.5467C67.4357 24.1534 67.7951 24.7043 68.2556 25.164C69.3668 26.1156 70.8084 26.5905 72.2675 26.4855C73.053 26.4781 73.827 26.2952 74.5327 25.9502C75.2739 25.6017 75.9528 25.1338 76.5423 24.5652L77.084 26.1077H79.4441V15.9144C79.4544 14.9209 79.1577 13.9485 78.5944 13.13C78.0073 12.2852 77.2095 11.6085 76.2802 11.1671C75.2759 10.6782 74.1714 10.4305 73.0545 10.4436C72.114 10.4755 71.18 10.6128 70.27 10.8528C69.3799 11.0275 68.5244 11.3466 67.7372 11.7973L68.7122 14.691C70.0909 14.039 71.5916 13.6851 73.1164 13.6525L73.1172 13.6493ZM70.6486 19.895C70.8885 19.6544 71.1762 19.467 71.4932 19.3448C71.8102 19.2227 72.1493 19.1686 72.4886 19.186H75.9177V21.923C75.4119 22.4535 74.8151 22.8891 74.1557 23.2091C73.5504 23.5129 72.8837 23.6743 72.2064 23.681C71.906 23.6973 71.6055 23.6511 71.3238 23.5454C71.0421 23.4397 70.7854 23.2768 70.5699 23.0669C70.3793 22.8807 70.2281 22.6581 70.1254 22.4123C70.0226 22.1665 69.9704 21.9025 69.9718 21.6361C69.9634 21.3147 70.0189 20.9949 70.1351 20.6952C70.2513 20.3955 70.4258 20.1219 70.6486 19.8902V19.895Z" fill="#6C838C"/>
<path d="M90.955 23.2131C90.2664 23.3881 89.5579 23.4727 88.8474 23.4647C88.2641 23.4863 87.6836 23.3727 87.1515 23.1327C86.6193 22.8927 86.1499 22.5329 85.78 22.0813C84.9789 21.0506 84.5719 19.768 84.6321 18.4641C84.6026 17.1635 85.0311 15.894 85.8427 14.8774C86.2105 14.4213 86.6787 14.0562 87.2107 13.8107C87.7428 13.5651 88.3244 13.4458 88.9101 13.4619C89.5945 13.4556 90.2768 13.5402 90.939 13.7135C91.6752 13.9238 92.3954 14.1868 93.094 14.5004L94.1012 11.9836C93.3236 11.4647 92.4608 11.0865 91.5523 10.8663C90.6934 10.6121 89.8054 10.4692 88.9101 10.4411C87.4515 10.4082 86.0093 10.7553 84.7254 11.4483C83.5524 12.0965 82.5954 13.0747 81.9731 14.2617C81.3116 15.5613 80.9821 17.0045 81.0141 18.4625C80.9799 19.9301 81.3094 21.3835 81.9731 22.693C82.5894 23.8738 83.5345 24.8509 84.694 25.5064C85.9643 26.2038 87.3962 26.5534 88.845 26.52C89.7496 26.4952 90.6477 26.358 91.5185 26.1116C92.4273 25.9003 93.2907 25.5273 94.0674 25.0104L93.0289 22.4301C92.3618 22.7542 91.6669 23.0176 90.9526 23.2171L90.955 23.2131Z" fill="#6C838C"/>
<path d="M109.852 16.3469V26.1077H106.329V16.5663C106.329 14.4598 105.532 13.4065 103.938 13.4065C102.679 13.4065 101.2 14.105 99.5017 15.5021V26.1077H95.9785V4.3651L99.5017 4.02026V12.3423C100.334 11.7731 101.232 11.306 102.176 10.9508C103.009 10.6239 103.893 10.4492 104.788 10.4348C108.164 10.4348 109.852 12.4055 109.852 16.3469Z" fill="#6C838C"/>
<path d="M116.965 19.1V26.1077H113.441V4.83613H116.965V14.22L126.497 4.3667L129.046 6.40037L121.59 14.2521L130.524 26.1077H126.184L119.165 16.756L116.963 19.1016L116.965 19.1Z" fill="#6C838C"/>
<path d="M131.99 4.3651V26.1077H135.513V4.02026L131.99 4.3651Z" fill="#6C838C"/>
<path d="M152.279 22.6786C151.652 23.8719 150.689 24.8559 149.51 25.5097C148.228 26.2019 146.788 26.5487 145.331 26.5161C143.882 26.552 142.449 26.2049 141.178 25.5097C140.018 24.8544 139.073 23.8772 138.456 22.6963C137.792 21.3869 137.463 19.9335 137.497 18.4658C137.465 17.0078 137.794 15.5645 138.456 14.265C139.079 13.078 140.036 12.0998 141.209 11.4516C142.501 10.7922 143.932 10.4471 145.383 10.4444C146.834 10.4416 148.266 10.7811 149.561 11.4355C150.732 12.0813 151.685 13.0605 152.298 14.2489C152.959 15.5543 153.289 17.0022 153.258 18.465C153.289 19.9296 152.954 21.3787 152.283 22.681L152.279 22.6786ZM148.425 22.0484C149.233 21.0437 149.652 19.7815 149.605 18.4931C149.664 17.1841 149.257 15.8967 148.457 14.859C148.09 14.4034 147.621 14.0396 147.089 13.7967C146.557 13.5537 145.975 13.4383 145.39 13.4596C144.804 13.4435 144.223 13.5628 143.691 13.8084C143.159 14.0539 142.691 14.4189 142.323 14.8751C141.511 15.8917 141.083 17.1612 141.112 18.4618C141.052 19.7657 141.459 21.0483 142.26 22.079C142.63 22.5306 143.099 22.8904 143.631 23.1304C144.164 23.3704 144.744 23.484 145.327 23.4623C145.918 23.481 146.505 23.3629 147.042 23.1174C147.58 22.8718 148.054 22.5055 148.426 22.0468L148.425 22.0484Z" fill="#6C838C"/>
<path d="M160.594 23.6255C159.021 23.6255 158.234 22.5664 158.234 20.448V10.8447H154.711V20.665C154.711 24.6306 156.389 26.6133 159.744 26.6133C160.761 26.594 161.765 26.3807 162.702 25.9848C163.746 25.5668 164.722 24.994 165.596 24.2855L166.224 26.1101H168.615V10.8447H165.059V21.5139C163.36 22.9216 161.872 23.6255 160.594 23.6255Z" fill="#6C838C"/>
<path d="M184.879 26.1102H182.96L182.205 24.8587C181.574 25.3689 180.869 25.7803 180.115 26.0789C179.43 26.3588 178.699 26.5074 177.96 26.517C176.547 26.5522 175.15 26.2065 173.917 25.5162C172.78 24.856 171.862 23.8781 171.274 22.7028C170.632 21.3891 170.314 19.9407 170.346 18.4787C170.314 17.031 170.633 15.5969 171.274 14.2988C171.869 13.1252 172.8 12.1557 173.949 11.5144C175.197 10.8362 176.602 10.4965 178.023 10.5289C178.568 10.539 179.11 10.6286 179.63 10.795C180.227 10.9766 180.798 11.2341 181.329 11.561V4.36518L184.885 4.05249V26.1102H184.879ZM175.048 22.1056C175.398 22.5552 175.851 22.9146 176.368 23.1539C176.885 23.3933 177.452 23.5057 178.022 23.4817C178.612 23.4889 179.198 23.3884 179.752 23.1851C180.325 22.9569 180.857 22.6345 181.325 22.231V14.7835C180.871 14.3766 180.349 14.0535 179.783 13.8294C179.218 13.6249 178.621 13.5244 178.021 13.5328C177.451 13.5089 176.884 13.6212 176.367 13.8606C175.85 14.1 175.397 14.4594 175.047 14.9089C174.29 15.9286 173.907 17.1772 173.961 18.4458C173.896 19.7539 174.279 21.0451 175.048 22.1056Z" fill="#6C838C"/>
</svg>
