<svg width="48" height="49" viewBox="0 0 48 49" fill="none" xmlns="http://www.w3.org/2000/svg">
<path d="M40.2602 8.66008C39.0674 7.63919 37.6511 6.91348 36.1257 6.5417C34.6004 6.16992 33.0089 6.16251 31.4802 6.52008C28.4068 7.19302 25.7207 9.04603 24.0002 11.6801C22.2891 9.05456 19.6188 7.20259 16.5602 6.52008C15.0383 6.15452 13.4527 6.1448 11.9265 6.49167C10.4003 6.83854 8.97456 7.53266 7.7602 8.52008C4.6002 11.2801 2.8602 17.4001 4.8402 23.6001C5.0642 24.2841 5.3322 24.9521 5.6402 25.6001C5.7202 25.7501 5.7942 25.9041 5.8602 26.0601C11.0002 36.5401 22.8802 42.0601 23.4002 42.3201C23.5927 42.4156 23.8053 42.4637 24.0202 42.4601C24.2349 42.4614 24.447 42.4135 24.6402 42.3201C25.1402 42.1001 37.1402 36.6201 42.2402 26.0201L42.4002 25.6801C42.7162 25.0001 42.9902 24.2981 43.2202 23.5801C45.1002 17.5801 43.3802 11.4601 40.2602 8.66008ZM39.6402 24.5201C39.3602 25.1481 39.0402 25.7561 38.6802 26.3401H32.0602C31.7308 26.3384 31.4069 26.2553 31.1173 26.0983C30.8277 25.9413 30.5814 25.7152 30.4002 25.4401L28.3002 22.3201L23.8402 31.2401C23.6993 31.5225 23.4936 31.7676 23.2398 31.9553C22.9861 32.1431 22.6915 32.268 22.3802 32.3201H22.0602C21.7956 32.319 21.5338 32.2654 21.2901 32.1624C21.0463 32.0594 20.8254 31.9091 20.6402 31.7201L15.2202 26.3201H9.4002C9.0319 25.6715 8.6981 25.0039 8.4002 24.3201C8.09094 23.676 7.8367 23.007 7.6402 22.3201H16.0602C16.3234 22.3184 16.5844 22.3688 16.8281 22.4684C17.0718 22.5679 17.2934 22.7146 17.4802 22.9001L21.4802 26.9001L26.2402 17.3801C26.3984 17.0649 26.6371 16.7971 26.9321 16.6039C27.2272 16.4108 27.5681 16.299 27.9202 16.2801C28.2678 16.2591 28.6149 16.3292 28.9271 16.4836C29.2393 16.6379 29.5058 16.8711 29.7002 17.1601L33.1002 22.2801H40.5002C40.2824 23.0514 39.9946 23.8012 39.6402 24.5201Z" fill="white"/>
<path d="M40.2602 8.66008C39.0674 7.63919 37.6511 6.91348 36.1257 6.5417C34.6004 6.16992 33.0089 6.16251 31.4802 6.52008C28.4068 7.19302 25.7207 9.04603 24.0002 11.6801C22.2891 9.05456 19.6188 7.20259 16.5602 6.52008C15.0383 6.15452 13.4527 6.1448 11.9265 6.49167C10.4003 6.83854 8.97456 7.53266 7.7602 8.52008C4.6002 11.2801 2.8602 17.4001 4.8402 23.6001C5.0642 24.2841 5.3322 24.9521 5.6402 25.6001C5.7202 25.7501 5.7942 25.9041 5.8602 26.0601C11.0002 36.5401 22.8802 42.0601 23.4002 42.3201C23.5927 42.4156 23.8053 42.4637 24.0202 42.4601C24.2349 42.4614 24.447 42.4135 24.6402 42.3201C25.1402 42.1001 37.1402 36.6201 42.2402 26.0201L42.4002 25.6801C42.7162 25.0001 42.9902 24.2981 43.2202 23.5801C45.1002 17.5801 43.3802 11.4601 40.2602 8.66008ZM39.6402 24.5201C39.3602 25.1481 39.0402 25.7561 38.6802 26.3401H32.0602C31.7308 26.3384 31.4069 26.2553 31.1173 26.0983C30.8277 25.9413 30.5814 25.7152 30.4002 25.4401L28.3002 22.3201L23.8402 31.2401C23.6993 31.5225 23.4936 31.7676 23.2398 31.9553C22.9861 32.1431 22.6915 32.268 22.3802 32.3201H22.0602C21.7956 32.319 21.5338 32.2654 21.2901 32.1624C21.0463 32.0594 20.8254 31.9091 20.6402 31.7201L15.2202 26.3201H9.4002C9.0319 25.6715 8.6981 25.0039 8.4002 24.3201C8.09094 23.676 7.8367 23.007 7.6402 22.3201H16.0602C16.3234 22.3184 16.5844 22.3688 16.8281 22.4684C17.0718 22.5679 17.2934 22.7146 17.4802 22.9001L21.4802 26.9001L26.2402 17.3801C26.3984 17.0649 26.6371 16.7971 26.9321 16.6039C27.2272 16.4108 27.5681 16.299 27.9202 16.2801C28.2678 16.2591 28.6149 16.3292 28.9271 16.4836C29.2393 16.6379 29.5058 16.8711 29.7002 17.1601L33.1002 22.2801H40.5002C40.2824 23.0514 39.9946 23.8012 39.6402 24.5201Z" fill="url(#paint0_linear_753_6877)"/>
<defs>
<linearGradient id="paint0_linear_753_6877" x1="4" y1="24.3494" x2="44.0013" y2="24.3494" gradientUnits="userSpaceOnUse">
<stop stop-color="#02AAB0"/>
<stop offset="1" stop-color="#00CDAC"/>
</linearGradient>
</defs>
</svg>
