<svg width="48" height="49" viewBox="0 0 48 49" fill="none" xmlns="http://www.w3.org/2000/svg">
<path d="M34 44.3501V40.3501H40V34.3501H44V41.3501C44 42.1301 43.68 42.8301 43.08 43.4301C42.48 44.0301 41.78 44.3501 41 44.3501H34ZM14 44.3501H7C6.22 44.3501 5.52 44.0301 4.92 43.4301C4.32 42.8301 4 42.1301 4 41.3501V34.3501H8V40.3501H14V44.3501ZM34 4.3501H41C41.78 4.3501 42.48 4.6701 43.08 5.2701C43.68 5.8701 44 6.5701 44 7.3501V14.3501H40V8.3501H34V4.3501ZM14 4.3501V8.3501H8V14.3501H4V7.3501C4 6.5701 4.32 5.8701 4.92 5.2701C5.52 4.6701 6.22 4.3501 7 4.3501H14ZM26 34.8501L34 30.2501V21.0701L26 25.6701V34.8501ZM24 22.1901L32 17.6101L24 12.9101L16 17.6101L24 22.1901ZM14 30.2501L22 34.8501V25.6701L14 21.0701V30.2501ZM36.46 15.5301C37.46 16.1701 38 17.0301 38 18.1701V30.8101C38 31.9501 37.46 32.8101 36.46 33.4501L25.5 39.8101C24.5 40.4501 23.5 40.4501 22.5 39.8101L11.54 33.4501C10.54 32.8101 10 31.9501 10 30.8101V18.1701C10 17.0301 10.54 16.1701 11.54 15.5301L22.5 9.1701C23 8.9101 23.5 8.7901 24 8.7901C24.5 8.7901 25 8.9101 25.5 9.1701L36.46 15.5301Z" fill="url(#paint0_linear_753_6891)"/>
<defs>
<linearGradient id="paint0_linear_753_6891" x1="4" y1="24.3501" x2="44" y2="24.3501" gradientUnits="userSpaceOnUse">
<stop stop-color="#02AAB0"/>
<stop offset="1" stop-color="#00CDAC"/>
</linearGradient>
</defs>
</svg>
