<svg width="48" height="49" viewBox="0 0 48 49" fill="none" xmlns="http://www.w3.org/2000/svg">
<path d="M18 23.3501H9.165C9.44378 21.4936 10.1067 19.7157 11.1114 18.1298C12.1161 16.544 13.4405 15.1852 15 14.1401L17.685 12.3401L16.035 9.8501L13.35 11.6501C11.0899 13.1562 9.23656 15.1969 7.9544 17.5912C6.67223 19.9854 6.00091 22.6592 6 25.3751V35.3501C6 36.1457 6.31607 36.9088 6.87868 37.4714C7.44129 38.034 8.20435 38.3501 9 38.3501H18C18.7956 38.3501 19.5587 38.034 20.1213 37.4714C20.6839 36.9088 21 36.1457 21 35.3501V26.3501C21 25.5544 20.6839 24.7914 20.1213 24.2288C19.5587 23.6662 18.7956 23.3501 18 23.3501ZM39 23.3501H30.165C30.4438 21.4936 31.1067 19.7157 32.1114 18.1298C33.1161 16.544 34.4405 15.1852 36 14.1401L38.685 12.3401L37.05 9.8501L34.35 11.6501C32.0899 13.1562 30.2366 15.1969 28.9544 17.5912C27.6722 19.9854 27.0009 22.6592 27 25.3751V35.3501C27 36.1457 27.3161 36.9088 27.8787 37.4714C28.4413 38.034 29.2044 38.3501 30 38.3501H39C39.7957 38.3501 40.5587 38.034 41.1213 37.4714C41.6839 36.9088 42 36.1457 42 35.3501V26.3501C42 25.5544 41.6839 24.7914 41.1213 24.2288C40.5587 23.6662 39.7957 23.3501 39 23.3501Z" fill="url(#paint0_linear_753_6905)"/>
<defs>
<linearGradient id="paint0_linear_753_6905" x1="6" y1="24.1001" x2="42" y2="24.1001" gradientUnits="userSpaceOnUse">
<stop stop-color="#02AAB0"/>
<stop offset="1" stop-color="#00CDAC"/>
</linearGradient>
</defs>
</svg>
