<svg width="24" height="25" viewBox="0 0 24 25" fill="none" xmlns="http://www.w3.org/2000/svg">
<path d="M21.9646 11.1173L17.7459 14.7576L19.0312 20.2017C19.1021 20.4972 19.0838 20.8071 18.9787 21.0923C18.8736 21.3775 18.6863 21.6251 18.4405 21.8038C18.1947 21.9826 17.9015 22.0845 17.5978 22.0967C17.2941 22.1089 16.9936 22.0308 16.7343 21.8723L11.9999 18.9586L7.26275 21.8723C7.00347 22.0299 6.70335 22.1072 6.4002 22.0946C6.09704 22.082 5.8044 21.9799 5.55913 21.8013C5.31386 21.6227 5.12692 21.3755 5.02185 21.0908C4.91679 20.8062 4.89829 20.4968 4.96869 20.2017L6.25869 14.7576L2.03994 11.1173C1.81053 10.919 1.64462 10.6576 1.56293 10.3656C1.48123 10.0736 1.48737 9.76398 1.58058 9.47544C1.67379 9.18691 1.84994 8.93223 2.08703 8.74321C2.32412 8.55419 2.61164 8.43921 2.91369 8.41263L8.44494 7.96638L10.5787 2.80263C10.6942 2.52121 10.8908 2.28049 11.1434 2.11107C11.3961 1.94165 11.6934 1.8512 11.9976 1.8512C12.3018 1.8512 12.5991 1.94165 12.8518 2.11107C13.1044 2.28049 13.301 2.52121 13.4165 2.80263L15.5493 7.96638L21.0806 8.41263C21.3832 8.43822 21.6716 8.55256 21.9095 8.74132C22.1475 8.93008 22.3244 9.18486 22.4182 9.47374C22.512 9.76263 22.5185 10.0728 22.4368 10.3653C22.3551 10.6578 22.1889 10.9198 21.959 11.1183L21.9646 11.1173Z" fill="#1AADA3"/>
</svg>
