<svg width="20" height="20" viewBox="0 0 20 20" fill="none" xmlns="http://www.w3.org/2000/svg">
<g clip-path="url(#clip0_844_3020)">
<path d="M20 10C20 4.47715 15.5228 0 10 0C4.47715 0 0 4.47715 0 10C0 15.5228 4.47715 20 10 20C15.5228 20 20 15.5228 20 10Z" fill="white"/>
<path d="M13.1387 12.4932V10.7398H11.3853V12.4932H13.1387ZM9.63184 12.4932V14.2466H11.3853V12.4932H9.63184ZM11.3853 8.98634H13.1387V7.23292H11.3853V8.98634ZM14.8921 8.98634H13.1387V10.7398H14.8921V8.98634ZM11.3853 7.23292V5.47949H9.63184V7.23292H11.3853Z" fill="#171717"/>
<path d="M13.2247 8.95703H3.83557V10.6958H13.2247V8.95703Z" fill="#171717"/>
</g>
<defs>
<clipPath id="clip0_844_3020">
<rect width="20" height="20" fill="white"/>
</clipPath>
</defs>
</svg>
