<svg width="25" height="25" viewBox="0 0 25 25" fill="none" xmlns="http://www.w3.org/2000/svg">
<g clip-path="url(#clip0_4815_807)">
<path d="M25 12.5C25 5.59644 19.4036 0 12.5 0C5.59644 0 0 5.59644 0 12.5C0 19.4036 5.59644 25 12.5 25C19.4036 25 25 19.4036 25 12.5Z" fill="white"/>
<path d="M16.4236 15.6148V13.423H14.2318V15.6148H16.4236ZM12.04 15.6148V17.8066H14.2318V15.6148H12.04ZM14.2318 11.2312H16.4236V9.03944H14.2318V11.2312ZM18.6154 11.2312H16.4236V13.423H18.6154V11.2312ZM14.2318 9.03944V6.84766H12.04V9.03944H14.2318Z" fill="#171717"/>
<path d="M16.5314 11.1953H4.79492V13.3687H16.5314V11.1953Z" fill="#171717"/>
</g>
<defs>
<clipPath id="clip0_4815_807">
<rect width="25" height="25" fill="white"/>
</clipPath>
</defs>
</svg>
