<svg width="30" height="30" viewBox="0 0 30 30" fill="none" xmlns="http://www.w3.org/2000/svg">
<g clip-path="url(#clip0_4815_815)">
<path d="M30 15C30 6.71573 23.2843 0 15 0C6.71573 0 0 6.71573 0 15C0 23.2843 6.71573 30 15 30C23.2843 30 30 23.2843 30 15Z" fill="white"/>
<path d="M19.7075 18.7393V16.1092H17.0774V18.7393H19.7075ZM14.4473 18.7393V21.3694H17.0774V18.7393H14.4473ZM17.0774 13.479H19.7075V10.8489H17.0774V13.479ZM22.3377 13.479H19.7075V16.1092H22.3377V13.479ZM17.0774 10.8489V8.21875H14.4473V10.8489H17.0774Z" fill="#171717"/>
<path d="M19.8376 13.4375H5.75391V16.0456H19.8376V13.4375Z" fill="#171717"/>
</g>
<defs>
<clipPath id="clip0_4815_815">
<rect width="30" height="30" fill="white"/>
</clipPath>
</defs>
</svg>
