<svg width="70" height="70" viewBox="0 0 70 70" fill="none" xmlns="http://www.w3.org/2000/svg">
<g clip-path="url(#clip0_125_33273)">
<path fill-rule="evenodd" clip-rule="evenodd" d="M17.8767 -0.00976562H40.9732L60.5482 20.3938V60.079C60.5482 65.0504 56.5262 69.0724 51.5719 69.0724H17.8767C12.9053 69.0724 8.8833 65.0504 8.8833 60.079V8.98366C8.88321 4.01225 12.9052 -0.00976562 17.8767 -0.00976562Z" fill="#E5252A"/>
<path opacity="0.302" fill-rule="evenodd" clip-rule="evenodd" d="M40.9546 -0.0131836V20.2351H60.5469L40.9546 -0.0131836Z" fill="white"/>
<path d="M18.873 51.5335V38.915H24.2415C25.5707 38.915 26.6237 39.2775 27.4177 40.0198C28.2118 40.7448 28.6088 41.7288 28.6088 42.9543C28.6088 44.1799 28.2118 45.1639 27.4177 45.8889C26.6237 46.6311 25.5707 46.9936 24.2415 46.9936H22.101V51.5335H18.873ZM22.101 44.249H23.879C24.3623 44.249 24.7421 44.1454 25.0011 43.9038C25.26 43.6794 25.3981 43.3687 25.3981 42.9544C25.3981 42.5402 25.2601 42.2294 25.0011 42.005C24.7422 41.7633 24.3624 41.6598 23.879 41.6598H22.101V44.249ZM29.9379 51.5335V38.915H34.4088C35.2891 38.915 36.1177 39.0358 36.8945 39.2948C37.6712 39.5537 38.379 39.9163 39.0004 40.4169C39.6219 40.9002 40.1225 41.5561 40.485 42.3847C40.8302 43.2133 41.0201 44.1627 41.0201 45.2329C41.0201 46.2859 40.8303 47.2353 40.485 48.0638C40.1225 48.8924 39.6219 49.5484 39.0004 50.0317C38.3789 50.5323 37.6712 50.8948 36.8945 51.1537C36.1177 51.4126 35.2891 51.5335 34.4088 51.5335H29.9379ZM33.0969 48.7889H34.029C34.5296 48.7889 34.9957 48.7372 35.4272 48.6163C35.8415 48.4955 36.2385 48.3055 36.6183 48.0466C36.9808 47.7878 37.2743 47.4252 37.4814 46.9419C37.6885 46.4586 37.7921 45.8889 37.7921 45.2329C37.7921 44.5597 37.6885 43.9901 37.4814 43.5068C37.2743 43.0235 36.9808 42.661 36.6183 42.402C36.2385 42.1431 35.8416 41.9532 35.4272 41.8324C34.9957 41.7116 34.5296 41.6597 34.029 41.6597H33.0969V48.7889ZM42.6427 51.5335V38.915H51.619V41.6597H45.8707V43.6793H50.4623V46.4067H45.8707V51.5335H42.6427Z" fill="white"/>
</g>
<defs>
<clipPath id="clip0_125_33273">
<rect width="69.0822" height="69.0822" fill="white" transform="translate(0.171875)"/>
</clipPath>
</defs>
</svg>
