<svg width="17" height="24" viewBox="0 0 17 24" fill="none" xmlns="http://www.w3.org/2000/svg">
<g clip-path="url(#clip0_4822_808)">
<path d="M15.6293 14.7946V13.6739H14.5172V12.5618H13.3965V11.4411H12.2845V10.3291H11.1638V9.20838H10.0517V8.09635H8.93104V6.97558H7.819V5.86358H6.69823V4.74285H5.57753V3.63083H4.46551V2.5101H3.34477V1.39808H2.23276H2.22405V0.277344H1.11202H0V1.39808V2.5101V3.63083V4.74285V5.86358V6.97558V8.09635V9.20838V10.3291V11.4411V12.5618V13.6739V14.7946V15.9156V17.0276V18.1481V19.2601V20.3805V21.4929V22.6136H1.11202H2.23276V21.4929H3.34477V20.3805H4.46551V19.2601H5.57753H6.69823V20.3805V21.4929H7.819V22.6136H8.93104V23.7256H10.0517H11.1638H12.2845V22.6136V21.4929V20.3805V19.2601H11.1638V18.1481V17.0276H10.0517V15.9156H11.1638H12.2845H13.3965H14.5172H15.6293H16.75V14.7946H15.6293Z" fill="white"/>
</g>
<defs>
<clipPath id="clip0_4822_808">
<rect width="17" height="23.4483" fill="white" transform="translate(0 0.277344)"/>
</clipPath>
</defs>
</svg>
