<svg xmlns="http://www.w3.org/2000/svg" width="70" height="70" viewBox="0 0 70 70">
    <g data-name="Group 25883">
        <path data-name="Path 26135" d="m0 21.221 17.665 10.213v20.415L.57 41.978a1.145 1.145 0 0 1-.57-.992zm8.753-6.379L1.14 19.236 18.8 29.46l7.613-4.4zm27.717 4.394-17.1-9.871a1.131 1.131 0 0 0-1.14 0l-7.2 4.154L28.7 23.732zM19.945 51.849l17.1-9.871a1.145 1.145 0 0 0 .57-.993V21.221l-17.67 10.213zm34.92-19.936a4.565 4.565 0 1 0 0-2.282h-4.718V6.809a1.144 1.144 0 0 1 1.14-1.141h3.579a4.552 4.552 0 1 0 0-2.282h-3.58a3.431 3.431 0 0 0-3.419 3.423v22.822h-5.7a1.141 1.141 0 0 0 0 2.282h5.7v22.823a3.431 3.431 0 0 0 3.419 3.423h3.579a4.552 4.552 0 1 0 0-2.282h-3.579a1.144 1.144 0 0 1-1.14-1.141V31.914h4.718z" transform="translate(3.089 4.229)" style="fill:#84dbff"/>
    </g>
</svg>
