<svg xmlns="http://www.w3.org/2000/svg" width="70" height="70" viewBox="0 0 70 70">
    <g data-name="Group 25883">
        <path data-name="Path 26117" d="M2 9.823V53.91a3.657 3.657 0 0 0 3.651 3.651h58.526a3.658 3.658 0 0 0 3.651-3.651V9.823z" transform="translate(.086 .309)" style="fill:#e5f4f7"/>
        <path data-name="Path 26118" d="M67.828 15.856V5.583a3.658 3.658 0 0 0-3.651-3.651H5.651A3.657 3.657 0 0 0 2 5.583v10.273z" transform="translate(.086 .084)" style="fill:#febb50"/>
        <g data-name="Group 28953">
            <path data-name="Path 26119" d="M12.316 9.2a2.837 2.837 0 1 1-2.833-2.84 2.835 2.835 0 0 1 2.833 2.84" transform="translate(.219 .211)" style="fill:#fff"/>
            <path data-name="Path 26120" d="M21.2 9.2a2.836 2.836 0 1 1-2.833-2.84A2.835 2.835 0 0 1 21.2 9.2" transform="translate(.473 .211)" style="fill:#fff"/>
            <path data-name="Path 26121" d="M30.088 9.2a2.837 2.837 0 1 1-2.833-2.84 2.835 2.835 0 0 1 2.833 2.84" transform="translate(.727 .211)" style="fill:#fff"/>
        </g>
        <path data-name="Path 26122" d="M52.305 44.115h-.013a38.765 38.765 0 0 1-3.3 8.541 36.276 36.276 0 0 1-1.836 3.109 4.438 4.438 0 0 1-.212.328 37.978 37.978 0 0 1-5.144 6.142 41.629 41.629 0 0 1-5.7 4.592 2.757 2.757 0 0 1-3.04.056 38.913 38.913 0 0 1-5.822-4.647C21.307 56.542 14.163 46.285 15.449 30.5a2.741 2.741 0 0 1 2.819-2.519 22.489 22.489 0 0 0 7.545-1.016 21.815 21.815 0 0 0 7.171-3.83 2.751 2.751 0 0 1 3.215-.174c.8.514 1.851 1.147 3.091 1.787a28.148 28.148 0 0 0 9.7 3.1 18.193 18.193 0 0 0 2.027.1 2.708 2.708 0 0 1 2.694 2.577c.015.278.028.574.038.887a45.261 45.261 0 0 1-1.448 12.7" transform="translate(.466 .672)" style="fill:#fb545c"/>
        <path data-name="Path 26123" d="M34.384 61.5a32.1 32.1 0 0 1-4.343-3.524 31.087 31.087 0 0 1-9.629-25.2h.169a23.174 23.174 0 0 0 6.957-1.065 22.547 22.547 0 0 0 7.051-3.675c.847.53 1.725 1.03 2.615 1.489a27.8 27.8 0 0 0 9.781 3.1c.478.052.964.085 1.446.1v.078a37.375 37.375 0 0 1-.976 9.583l-.231.877a31.668 31.668 0 0 1-2.677 6.943c-.5.933-.98 1.756-1.486 2.519l-.179.275a31.065 31.065 0 0 1-4.175 4.981 34.039 34.039 0 0 1-4.323 3.519" transform="translate(.61 .83)" style="fill:#ea2845"/>
        <path data-name="Path 26124" d="m36.6 45.825.762 4.063a1.228 1.228 0 0 1-1.208 1.455H32.1a1.229 1.229 0 0 1-1.208-1.455l.762-4.063a4.468 4.468 0 1 1 5.631-.564 4.531 4.531 0 0 1-.689.564" transform="translate(.876 1.104)" style="fill:#fff"/>
    </g>
</svg>
