<svg xmlns="http://www.w3.org/2000/svg" width="70" height="70" viewBox="0 0 70 70">
    <g data-name="Group 25883">
        <path data-name="Path 26096" d="M279.7 78.57a6.066 6.066 0 1 0-1.946-11.812V64.01a5.416 5.416 0 0 0-5.41-5.41h-4.034a.821.821 0 0 0-.7 1.254 4.426 4.426 0 1 1-7.522 0 .821.821 0 0 0-.7-1.254h-7.807v9.83l-1.643 4.379a1.388 1.388 0 0 1 1.388 1.388v2.887a13.466 13.466 0 0 1 1.579.655l2.043-2.041c.541-.543-5.522 3.2-4.981 3.738l8.121-.105a1.391 1.391 0 0 1 0 1.965l-2.043 2.041a13.486 13.486 0 0 1 .655 1.579h2.888a1.389 1.389 0 0 1 1.388 1.388l6.943-1.535h9.831v-6.518a6.066 6.066 0 0 0 1.95.319z" transform="translate(-215.768 -50.588)" style="fill-rule:evenodd;fill:#ffcd00"/>
        <path data-name="Path 26097" d="M90.043 29.594v-2.887c0-.767-5.2-3.631-4.434-3.631l.8-5.234v-9.83h-8.158a6.066 6.066 0 1 0-11.493 0H64.01a5.416 5.416 0 0 0-5.41 5.41v22.4h9.83l8.865 3.634a1.388 1.388 0 0 1 1.388-1.388h2.887a13.712 13.712 0 0 1 .655-1.579l-2.043-2.043a1.39 1.39 0 0 1 0-1.963l4.275-4.275a1.387 1.387 0 0 1 1.963 0l2.043 2.043a13.379 13.379 0 0 1 1.58-.657z" transform="translate(-50.588)" style="fill:#1aa1ff;fill-rule:evenodd"/>
        <path data-name="Path 26098" d="M263.455 261.381a6.068 6.068 0 0 1-5.746-8.012h-8.158v-9.83l-.071-9.1a1.389 1.389 0 0 0 1.388-1.389v-2.886a13.578 13.578 0 0 0 1.579-.655l2.043 2.043a1.39 1.39 0 0 0 1.963 0l4.274-4.276a1.386 1.386 0 0 0 0-1.962l-2.043-2.043a13.5 13.5 0 0 0 .655-1.579h2.887c.767 0-1.426 8.694-1.426 7.927l6.728-4.056h9.831v22.4a5.416 5.416 0 0 1-5.41 5.41H269.2a6.067 6.067 0 0 1-5.746 8.012z" transform="translate(-215.371 -191.381)" style="fill:#ff4755;fill-rule:evenodd"/>
        <path data-name="Path 26099" d="m31.627 234.668-4.275-4.275a1.39 1.39 0 0 1 0-1.963l2.043-2.043a13.471 13.471 0 0 1-.655-1.579h-2.888a1.388 1.388 0 0 1-1.389-1.388l-6.621 5.275h-9.83v6.517a6.066 6.066 0 1 0 0 11.493v2.748a5.416 5.416 0 0 0 5.41 5.41h4.036a.822.822 0 0 0 .7-1.254 4.424 4.424 0 1 1 7.522 0 .821.821 0 0 0 .7 1.254h7.8v-9.83l4.419-7.477a1.389 1.389 0 0 1-1.388-1.388v-2.888a13.483 13.483 0 0 1-1.579-.655l-2.041 2.043a1.389 1.389 0 0 1-1.963 0z" transform="translate(0 -192.874)" style="fill:#27d674;fill-rule:evenodd"/>
        <g data-name="Group 28943">
            <path data-name="Path 26100" d="M150.681 164.816h-6.046a1.389 1.389 0 0 1-1.389-1.388v-2.888a13.461 13.461 0 0 1-1.578-.655l-2.043 2.043a1.39 1.39 0 0 1-1.963 0l-4.275-4.275a1.39 1.39 0 0 1 0-1.963l2.043-2.043a13.47 13.47 0 0 1-.655-1.579h-2.888a1.387 1.387 0 0 1-1.388-1.388v-6.046a1.388 1.388 0 0 1 1.388-1.388h2.888a13.569 13.569 0 0 1 .655-1.579l-2.043-2.043a1.386 1.386 0 0 1 0-1.963l4.275-4.275a1.39 1.39 0 0 1 1.963 0l2.041 2.043a13.569 13.569 0 0 1 1.579-.655v-2.888a1.389 1.389 0 0 1 1.388-1.388h6.046a1.389 1.389 0 0 1 1.389 1.388v2.888a13.569 13.569 0 0 1 1.579.655l2.041-2.043a1.39 1.39 0 0 1 1.963 0l4.275 4.275a1.39 1.39 0 0 1 0 1.963l-2.043 2.043a13.547 13.547 0 0 1 .655 1.578h2.888a1.388 1.388 0 0 1 1.388 1.389v6.046a1.388 1.388 0 0 1-1.388 1.388h-2.886a13.712 13.712 0 0 1-.653 1.579l2.041 2.043a1.385 1.385 0 0 1 0 1.962l-4.274 4.277a1.39 1.39 0 0 1-1.963 0l-2.043-2.043a13.483 13.483 0 0 1-1.579.655v2.888a1.388 1.388 0 0 1-1.388 1.387z" transform="translate(-112.658 -112.658)" style="fill:#474449;fill-rule:evenodd"/>
            <path data-name="Path 26101" d="M197.711 206.951a9.231 9.231 0 1 1 9.23-9.231 9.242 9.242 0 0 1-9.23 9.231z" transform="translate(-162.711 -162.72)" style="fill:#42c7f4;fill-rule:evenodd"/>
            <path data-name="Path 26102" d="M204.816 212.931a8.105 8.105 0 1 1 8.1-8.106 8.116 8.116 0 0 1-8.1 8.106z" transform="translate(-169.816 -169.825)" style="fill:#fff;fill-rule:evenodd"/>
        </g>
    </g>
</svg>
