<svg width="24" height="24" viewBox="0 0 24 24" fill="none" xmlns="http://www.w3.org/2000/svg">
<g clip-path="url(#clip0_753_6307)">
<path d="M7 -9.76492e-06H4C1.79 -9.76492e-06 0 1.78999 0 3.99999V6.99999C0 9.20999 1.79 11 4 11H7C9.21 11 11 9.20999 11 6.99999V3.99999C11 1.78999 9.21 -9.76492e-06 7 -9.76492e-06ZM9 6.99999C9 8.09999 8.1 8.99999 7 8.99999H4C2.9 8.99999 2 8.09999 2 6.99999V3.99999C2 2.89999 2.9 1.99999 4 1.99999H7C8.1 1.99999 9 2.89999 9 3.99999V6.99999ZM20 13H17C14.79 13 13 14.79 13 17V20C13 22.21 14.79 24 17 24H20C22.21 24 24 22.21 24 20V17C24 14.79 22.21 13 20 13ZM22 20C22 21.1 21.1 22 20 22H17C15.9 22 15 21.1 15 20V17C15 15.9 15.9 15 17 15H20C21.1 15 22 15.9 22 17V20ZM7 13H4C1.79 13 0 14.79 0 17V20C0 22.21 1.79 24 4 24H7C9.21 24 11 22.21 11 20V17C11 14.79 9.21 13 7 13ZM9 20C9 21.1 8.1 22 7 22H4C2.9 22 2 21.1 2 20V17C2 15.9 2.9 15 4 15H7C8.1 15 9 15.9 9 17V20ZM17.18 9.52999C17.56 9.83999 18.03 9.98999 18.5 9.98999C18.97 9.98999 19.44 9.83999 19.82 9.52999C21.38 8.27999 24 5.82999 24 3.46999C24 1.54999 22.54 -0.0100098 20.75 -0.0100098C19.9 -0.0100098 19.1 0.34999 18.5 0.92999C17.91 0.33999 17.11 -0.0100098 16.25 -0.0100098C14.46 -0.0100098 13 1.54999 13 3.46999C13 5.81999 15.62 8.27999 17.18 9.52999ZM16.25 1.99999C16.85 1.99999 17.39 2.49999 17.51 3.16999C17.59 3.64999 18.01 3.99999 18.49 3.99999C18.97 3.99999 19.39 3.64999 19.47 3.16999C19.59 2.49999 20.14 1.99999 20.74 1.99999C21.43 1.99999 21.99 2.65999 21.99 3.47999C21.99 4.53999 20.64 6.30999 18.56 7.97999C18.52 8.00999 18.46 8.00999 18.42 7.97999C16.34 6.30999 14.99 4.53999 14.99 3.47999C14.99 2.66999 15.55 1.99999 16.24 1.99999H16.25Z" fill="white"/>
</g>
<defs>
<clipPath id="clip0_753_6307">
<rect width="24" height="24" fill="white"/>
</clipPath>
</defs>
</svg>
