<svg width="56" height="39" viewBox="0 0 56 39" fill="none" xmlns="http://www.w3.org/2000/svg">
<path d="M19.416 21.334H12.416V37.084H19.416V21.334Z" stroke="white" stroke-width="1.875" stroke-linecap="round" stroke-linejoin="round"/>
<path d="M12.416 21.334H5.41602V37.084H12.416V21.334Z" stroke="white" stroke-width="1.875" stroke-linecap="round" stroke-linejoin="round"/>
<path d="M36.916 18.6565H19.416V37.084H36.916V18.6565Z" stroke="white" stroke-width="1.875" stroke-linecap="round" stroke-linejoin="round"/>
<path d="M1.42578 37.084H54.4158" stroke="white" stroke-width="1.875" stroke-linecap="round" stroke-linejoin="round"/>
<path d="M36.916 16.084H19.416V18.6565H36.916V16.084Z" stroke="white" stroke-width="1.875" stroke-linecap="round" stroke-linejoin="round"/>
<path d="M43.916 16.959H36.916V21.334H43.916V16.959Z" stroke="white" stroke-width="1.875" stroke-linecap="round" stroke-linejoin="round"/>
<path d="M19.416 16.959H12.416V21.334H19.416V16.959Z" stroke="white" stroke-width="1.875" stroke-linecap="round" stroke-linejoin="round"/>
<path d="M8.04102 18.6565H5.41602V21.334H8.04102V18.6565Z" stroke="white" stroke-width="1.875" stroke-linecap="round" stroke-linejoin="round"/>
<path d="M5.41602 21.334V16.084" stroke="white" stroke-width="1.875" stroke-linecap="round" stroke-linejoin="round"/>
<path d="M50.916 21.334H43.916V37.084H50.916V21.334Z" stroke="white" stroke-width="1.875" stroke-linecap="round" stroke-linejoin="round"/>
<path d="M43.916 21.334H36.916V37.084H43.916V21.334Z" stroke="white" stroke-width="1.875" stroke-linecap="round" stroke-linejoin="round"/>
<path d="M50.916 18.6565H48.291V21.334H50.916V18.6565Z" stroke="white" stroke-width="1.875" stroke-linecap="round" stroke-linejoin="round"/>
<path d="M50.916 21.334V16.084" stroke="white" stroke-width="1.875" stroke-linecap="round" stroke-linejoin="round"/>
<path d="M35.8142 16.084C35.8142 16.084 40.4036 10.309 34.2847 5.97774C28.1658 1.64649 29.6953 3.09023 28.1658 1.64648C26.6363 3.09023 28.1658 1.64649 22.047 5.97774C15.9281 10.309 20.5175 16.084 20.5175 16.084H35.8142Z" stroke="white" stroke-width="1.875" stroke-linecap="round" stroke-linejoin="round"/>
<path d="M30.4629 24.1637L28.1179 22.9089L25.8315 24.1549C24.9492 24.6358 24.2128 25.3455 23.6998 26.2095C23.1867 27.0735 22.916 28.0597 22.916 29.0646V37.0839H33.416V29.0934C33.4161 28.0814 33.1415 27.0883 32.6214 26.2201C32.1013 25.3519 31.3553 24.6411 30.4629 24.1637Z" stroke="white" stroke-width="1.875" stroke-linecap="round" stroke-linejoin="round"/>
<path d="M23.791 30.084H32.541" stroke="white" stroke-width="1.875" stroke-linecap="round" stroke-linejoin="round"/>
<path d="M40.416 19.584V21.334" stroke="white" stroke-width="1.875" stroke-linecap="round" stroke-linejoin="round"/>
<path d="M15.916 19.584V21.334" stroke="white" stroke-width="1.875" stroke-linecap="round" stroke-linejoin="round"/>
<path d="M15.916 10.834C14.8644 11.3599 13.9799 12.1682 13.3618 13.1684C12.7436 14.1686 12.4161 15.3212 12.416 16.497V16.959H19.416V16.497C19.4159 15.3212 19.0884 14.1686 18.4702 13.1684C17.8521 12.1682 16.9676 11.3599 15.916 10.834Z" stroke="white" stroke-width="1.875" stroke-linecap="round" stroke-linejoin="round"/>
<path d="M40.416 10.834C39.3644 11.3599 38.4799 12.1682 37.8618 13.1684C37.2436 14.1686 36.9161 15.3212 36.916 16.497V16.959H43.916V16.497C43.9159 15.3212 43.5884 14.1686 42.9702 13.1684C42.3521 12.1682 41.4676 11.3599 40.416 10.834Z" stroke="white" stroke-width="1.875" stroke-linecap="round" stroke-linejoin="round"/>
<path d="M28.166 29.209V26.584" stroke="white" stroke-width="1.875" stroke-linecap="round" stroke-linejoin="round"/>
<path d="M28.1113 36.8652V34.459" stroke="white" stroke-width="1.875" stroke-linecap="round" stroke-linejoin="round"/>
<path d="M15.916 34.459V30.959" stroke="white" stroke-width="1.875" stroke-linecap="round" stroke-linejoin="round"/>
<path d="M15.916 27.459V23.959" stroke="white" stroke-width="1.875" stroke-linecap="round" stroke-linejoin="round"/>
<path d="M40.416 34.459V30.959" stroke="white" stroke-width="1.875" stroke-linecap="round" stroke-linejoin="round"/>
<path d="M40.416 27.459V23.959" stroke="white" stroke-width="1.875" stroke-linecap="round" stroke-linejoin="round"/>
<path d="M47.416 34.459V30.959" stroke="white" stroke-width="1.875" stroke-linecap="round" stroke-linejoin="round"/>
<path d="M47.416 27.459V23.959" stroke="white" stroke-width="1.875" stroke-linecap="round" stroke-linejoin="round"/>
<path d="M8.91602 34.459V30.959" stroke="white" stroke-width="1.875" stroke-linecap="round" stroke-linejoin="round"/>
<path d="M8.91602 27.459V23.959" stroke="white" stroke-width="1.875" stroke-linecap="round" stroke-linejoin="round"/>
</svg>
