<svg width="45" height="45" viewBox="0 0 45 45" fill="none" xmlns="http://www.w3.org/2000/svg">
<g clip-path="url(#clip0_853_3117)">
<path d="M36.7724 31.0095C34.0623 31.0095 31.8574 33.2143 31.8574 35.9245V41.0734C31.8574 41.4612 32.1717 41.7755 32.5595 41.7755C32.9474 41.7755 33.2616 41.4612 33.2616 41.0734V35.9245C33.2616 33.9886 34.8364 32.4138 36.7723 32.4138C38.7081 32.4138 40.2829 33.9886 40.2829 35.9245V41.0734C40.2829 41.4612 40.5972 41.7755 40.985 41.7755C41.3729 41.7755 41.6871 41.4612 41.6871 41.0734V35.9245C41.6872 33.2142 39.4823 31.0095 36.7724 31.0095Z" fill="white"/>
<path d="M18.0497 8.07324H15.2412C14.8533 8.07324 14.5391 8.3876 14.5391 8.77535C14.5391 9.1631 14.8533 9.47746 15.2412 9.47746H18.0497C18.4375 9.47746 18.7518 9.1631 18.7518 8.77535C18.7518 8.3876 18.4376 8.07324 18.0497 8.07324Z" fill="white"/>
<path d="M13.8374 14.6265H10.0927C9.7049 14.6265 9.39062 14.9408 9.39062 15.3286V19.0732C9.39062 19.461 9.7049 19.7753 10.0927 19.7753H13.8374C14.2252 19.7753 14.5395 19.461 14.5395 19.0732V15.3286C14.5395 14.9408 14.2252 14.6265 13.8374 14.6265ZM13.1353 18.3712H10.7948V16.0308H13.1353V18.3712Z" fill="white"/>
<path d="M13.8374 22.116H10.0927C9.7049 22.116 9.39062 22.4303 9.39062 22.8181V26.5627C9.39062 26.9505 9.7049 27.2648 10.0927 27.2648H13.8374C14.2252 27.2648 14.5395 26.9505 14.5395 26.5627V22.8181C14.5395 22.4303 14.2252 22.116 13.8374 22.116ZM13.1353 25.8607H10.7948V23.5203H13.1353V25.8607Z" fill="white"/>
<path d="M43.794 10.8819H29.7515C29.3636 10.8819 29.0493 11.1962 29.0493 11.584V29.6052H27.6451V6.90314C27.6451 4.96731 26.0703 3.39251 24.1345 3.39251H21.5601V1.28609C21.5601 0.898344 21.2458 0.583984 20.858 0.583984H18.0494C17.6616 0.583984 17.3473 0.898344 17.3473 1.28609V3.39251H15.9431V1.28609C15.9431 0.898344 15.6288 0.583984 15.241 0.583984H12.4325C12.0446 0.583984 11.7304 0.898344 11.7304 1.28609V3.39251H10.3261V1.28609C10.3261 0.898344 10.0119 0.583984 9.62403 0.583984H6.81525C6.42741 0.583984 6.11314 0.898344 6.11314 1.28609V3.39251H4.70892V1.28609C4.70892 0.898344 4.39465 0.583984 4.00681 0.583984H1.1982C0.810367 0.583984 0.496094 0.898344 0.496094 1.28609V8.77546C0.496094 8.91399 0.537086 9.0496 0.614086 9.16493L2.3685 11.7966V29.6052H1.1982C0.810367 29.6052 0.496094 29.9196 0.496094 30.3074V43.8819C0.496094 44.2696 0.810367 44.584 1.1982 44.584H43.794C44.1818 44.584 44.4961 44.2696 44.4961 43.8819V11.584C44.4961 11.1962 44.1818 10.8819 43.794 10.8819ZM21.5599 11.584V4.79673H24.1343C25.2958 4.79673 26.2407 5.74161 26.2407 6.90314V29.6052H3.77272V12.2861H20.8578C21.2456 12.2861 21.5599 11.9717 21.5599 11.584ZM1.90031 8.07335V1.9882H3.30453V4.09462C3.30453 4.48237 3.6188 4.79673 4.00664 4.79673H6.81516C7.203 4.79673 7.51727 4.48237 7.51727 4.09462V1.9882H8.92149V4.09462C8.92149 4.48237 9.23577 4.79673 9.6236 4.79673H12.4321C12.82 4.79673 13.1342 4.48237 13.1342 4.09462V1.9882H14.5385V4.09462C14.5385 4.48237 14.8527 4.79673 15.2406 4.79673H18.0491C18.4369 4.79673 18.7512 4.48237 18.7512 4.09462V1.9882H20.1554V10.8819H3.44633L2.51013 9.47766H12.4322C12.82 9.47766 13.1343 9.1633 13.1343 8.77555C13.1343 8.3878 12.82 8.07344 12.4322 8.07344L1.90031 8.07335ZM29.0493 43.1798H1.90031V31.0096H29.0493V43.1798ZM37.4748 43.1798H36.0706V35.9245C36.0706 35.5373 36.3856 35.2224 36.7727 35.2224C37.16 35.2224 37.4748 35.5373 37.4748 35.9245V43.1798ZM43.0919 43.1798H38.8791V35.9245C38.8791 34.763 37.9342 33.8181 36.7727 33.8181C35.6113 33.8181 34.6663 34.763 34.6663 35.9245V43.1798H30.4536V12.2861H43.0919V43.1798Z" fill="white"/>
<path d="M8.68844 38.4989C9.0762 38.4989 9.39055 38.1846 9.39055 37.7968C9.39055 37.4091 9.0762 37.0947 8.68844 37.0947C8.30067 37.0947 7.98633 37.4091 7.98633 37.7968C7.98633 38.1846 8.30067 38.4989 8.68844 38.4989Z" fill="white"/>
<path d="M40.0498 16.967C40.4375 16.967 40.7519 16.6526 40.7519 16.2649C40.7519 15.8771 40.4375 15.5627 40.0498 15.5627C39.662 15.5627 39.3477 15.8771 39.3477 16.2649C39.3477 16.6526 39.662 16.967 40.0498 16.967Z" fill="white"/>
<path d="M5.87984 35.6904C6.26761 35.6904 6.58195 35.376 6.58195 34.9882C6.58195 34.6005 6.26761 34.2861 5.87984 34.2861C5.49208 34.2861 5.17773 34.6005 5.17773 34.9882C5.17773 35.376 5.49208 35.6904 5.87984 35.6904Z" fill="white"/>
</g>
<defs>
<clipPath id="clip0_853_3117">
<rect width="44" height="44" fill="white" transform="translate(0.496094 0.583984)"/>
</clipPath>
</defs>
</svg>
