<svg width="52" height="52" viewBox="0 0 52 52" fill="none" xmlns="http://www.w3.org/2000/svg">
<path d="M44.1537 11.7402H34.541V49.9902H44.1537V11.7402Z" stroke="white" stroke-width="0.8" stroke-linecap="round" stroke-linejoin="round"/>
<path d="M34.5406 9.34961H32.1699V49.9902H34.5406V9.34961Z" stroke="white" stroke-width="0.8" stroke-linecap="round" stroke-linejoin="round"/>
<path d="M46.5449 9.34961H44.1543V49.9902H46.5449V9.34961Z" stroke="white" stroke-width="0.8" stroke-linecap="round" stroke-linejoin="round"/>
<path d="M44.1537 11.7402H34.541V14.9277H44.1537V11.7402Z" stroke="white" stroke-width="0.8" stroke-linecap="round" stroke-linejoin="round"/>
<path d="M45.3496 2.57617L44.1543 9.34961H46.5449L45.3496 2.57617Z" stroke="white" stroke-width="0.8" stroke-linecap="round" stroke-linejoin="round"/>
<path d="M33.3557 2.57617L32.1699 9.34961H34.5406L33.3557 2.57617Z" stroke="white" stroke-width="0.8" stroke-linecap="round" stroke-linejoin="round"/>
<path d="M37.7793 14.1309V11.7402" stroke="white" stroke-width="0.8" stroke-linecap="round" stroke-linejoin="round"/>
<path d="M40.9668 14.9277V11.7402" stroke="white" stroke-width="0.8" stroke-linecap="round" stroke-linejoin="round"/>
<path d="M32.2012 22.0996H46.5449" stroke="white" stroke-width="0.8" stroke-linecap="round" stroke-linejoin="round"/>
<path d="M37.7793 22.0996V17.3184" stroke="white" stroke-width="0.8" stroke-linecap="round" stroke-linejoin="round"/>
<path d="M40.9668 22.0996V17.3184" stroke="white" stroke-width="0.8" stroke-linecap="round" stroke-linejoin="round"/>
<path d="M32.2012 26.084H46.5449" stroke="white" stroke-width="0.8" stroke-linecap="round" stroke-linejoin="round"/>
<path d="M39.373 28.4746C39.7957 28.4746 40.2011 28.6425 40.5 28.9414C40.7989 29.2403 40.9668 29.6457 40.9668 30.0684V37.2402H37.7793V30.0684C37.7793 29.6457 37.9472 29.2403 38.2461 28.9414C38.545 28.6425 38.9504 28.4746 39.373 28.4746Z" stroke="white" stroke-width="0.8" stroke-linecap="round" stroke-linejoin="round"/>
<path d="M42.1615 41.3242L39.327 37.2402L36.5085 41.3362C35.2271 43.1979 34.541 45.4048 34.541 47.665V49.9902H44.1537V47.6897C44.154 45.4144 43.4589 43.1934 42.1615 41.3242Z" stroke="white" stroke-width="0.8" stroke-linecap="round" stroke-linejoin="round"/>
<path d="M40.9668 49.9902H37.7793V47.0227C37.7793 45.3209 38.2832 43.6573 39.2272 42.2414L39.373 42.0215L39.5189 42.2406C40.4629 43.6565 40.9667 45.3201 40.9668 47.0219V49.9902Z" stroke="white" stroke-width="0.8" stroke-linecap="round" stroke-linejoin="round"/>
<path d="M40.9668 26.084V24.4902" stroke="white" stroke-width="0.8" stroke-linecap="round" stroke-linejoin="round"/>
<path d="M37.7793 26.084V24.4902" stroke="white" stroke-width="0.8" stroke-linecap="round" stroke-linejoin="round"/>
<path d="M1.52148 49.9902H49.7324" stroke="white" stroke-width="0.8" stroke-linecap="round" stroke-linejoin="round"/>
<path d="M16.2631 11.7402H6.65039V49.9902H16.2631V11.7402Z" stroke="white" stroke-width="0.8" stroke-linecap="round" stroke-linejoin="round"/>
<path d="M6.65 9.34961H4.2793V49.9902H6.65V9.34961Z" stroke="white" stroke-width="0.8" stroke-linecap="round" stroke-linejoin="round"/>
<path d="M18.6543 9.34961H16.2637V49.9902H18.6543V9.34961Z" stroke="white" stroke-width="0.8" stroke-linecap="round" stroke-linejoin="round"/>
<path d="M16.2631 11.7402H6.65039V14.9277H16.2631V11.7402Z" stroke="white" stroke-width="0.8" stroke-linecap="round" stroke-linejoin="round"/>
<path d="M32.2012 37.2402H46.5449" stroke="white" stroke-width="0.8" stroke-linecap="round" stroke-linejoin="round"/>
<path d="M3.51367 37.2402H17.8574" stroke="white" stroke-width="0.8" stroke-linecap="round" stroke-linejoin="round"/>
<path d="M32.2012 49.9902H18.6543V25.0983L25.8262 17.3184L32.2012 25.0983V49.9902Z" stroke="white" stroke-width="0.8" stroke-linecap="round" stroke-linejoin="round"/>
<path d="M25.8262 17.3184V14.9277" stroke="white" stroke-width="0.8" stroke-linecap="round" stroke-linejoin="round"/>
<path d="M24.2324 23.6934H26.623" stroke="white" stroke-width="0.8" stroke-linecap="round" stroke-linejoin="round"/>
<path d="M25.4277 26.084C26.3788 26.084 27.2909 26.4618 27.9634 27.1343C28.6359 27.8068 29.0137 28.7189 29.0137 29.6699V36.4434H21.8418V29.6699C21.8418 28.7189 22.2196 27.8068 22.8921 27.1343C23.5646 26.4618 24.4767 26.084 25.4277 26.084Z" stroke="white" stroke-width="0.8" stroke-linecap="round" stroke-linejoin="round"/>
<path d="M25.4277 33.2559C27.4082 33.2559 29.0137 31.6504 29.0137 29.6699C29.0137 27.6895 27.4082 26.084 25.4277 26.084C23.4473 26.084 21.8418 27.6895 21.8418 29.6699C21.8418 31.6504 23.4473 33.2559 25.4277 33.2559Z" stroke="white" stroke-width="0.8" stroke-linecap="round" stroke-linejoin="round"/>
<path d="M17.459 2.57617L16.2637 9.34961H18.6543L17.459 2.57617Z" stroke="white" stroke-width="0.8" stroke-linecap="round" stroke-linejoin="round"/>
<path d="M5.46505 2.57617L4.2793 9.34961H6.65L5.46505 2.57617Z" stroke="white" stroke-width="0.8" stroke-linecap="round" stroke-linejoin="round"/>
<path d="M9.88867 14.1309V11.7402" stroke="white" stroke-width="0.8" stroke-linecap="round" stroke-linejoin="round"/>
<path d="M13.0762 14.9277V11.7402" stroke="white" stroke-width="0.8" stroke-linecap="round" stroke-linejoin="round"/>
<path d="M4.31055 22.0996H18.6543" stroke="white" stroke-width="0.8" stroke-linecap="round" stroke-linejoin="round"/>
<path d="M9.88867 22.0996V17.3184" stroke="white" stroke-width="0.8" stroke-linecap="round" stroke-linejoin="round"/>
<path d="M13.0762 22.0996V17.3184" stroke="white" stroke-width="0.8" stroke-linecap="round" stroke-linejoin="round"/>
<path d="M4.31055 26.084H18.6543" stroke="white" stroke-width="0.8" stroke-linecap="round" stroke-linejoin="round"/>
<path d="M11.4824 28.4746C11.9051 28.4746 12.3105 28.6425 12.6094 28.9414C12.9083 29.2403 13.0762 29.6457 13.0762 30.0684V37.2402H9.88867V30.0684C9.88867 29.6457 10.0566 29.2403 10.3555 28.9414C10.6544 28.6425 11.0597 28.4746 11.4824 28.4746Z" stroke="white" stroke-width="0.8" stroke-linecap="round" stroke-linejoin="round"/>
<path d="M14.2709 41.3242L11.4364 37.2402L8.61787 41.3362C7.33647 43.1979 6.65039 45.4048 6.65039 47.665V49.9902H16.2631V47.6897C16.2634 45.4144 15.5683 43.1934 14.2709 41.3242Z" stroke="white" stroke-width="0.8" stroke-linecap="round" stroke-linejoin="round"/>
<path d="M30.7915 42.635L25.1815 36.9517L19.9293 42.6708C19.1177 43.5346 18.6623 44.6731 18.6543 45.8583V49.9901H32.2012V45.9579C32.1892 44.7075 31.6823 43.5127 30.7915 42.635Z" stroke="white" stroke-width="0.8" stroke-linecap="round" stroke-linejoin="round"/>
<path d="M13.0762 26.084V24.4902" stroke="white" stroke-width="0.8" stroke-linecap="round" stroke-linejoin="round"/>
<path d="M9.88867 26.084V24.4902" stroke="white" stroke-width="0.8" stroke-linecap="round" stroke-linejoin="round"/>
<path d="M27.636 43.9149L25.3394 41.6924L23.1416 43.9284C22.5803 44.5058 22.184 45.2232 21.9941 46.0059H28.8552C28.6467 45.2109 28.2251 44.4879 27.636 43.9149Z" stroke="white" stroke-width="0.8" stroke-linecap="round" stroke-linejoin="round"/>
<path d="M21.9932 46.0059C21.898 46.3632 21.8472 46.731 21.8418 47.1008V49.9902H29.0137V47.1669C29.011 46.7746 28.9574 46.3843 28.8543 46.0059H21.9932Z" stroke="white" stroke-width="0.8" stroke-linecap="round" stroke-linejoin="round"/>
<path d="M13.0762 49.9902H9.88867V47.0227C9.88872 45.3209 10.3925 43.6573 11.3366 42.2414L11.4824 42.0215L11.6282 42.2406C12.5723 43.6565 13.0761 45.3201 13.0762 47.0219V49.9902Z" stroke="white" stroke-width="0.8" stroke-linecap="round" stroke-linejoin="round"/>
</svg>
