<svg width="65" height="39" viewBox="0 0 65 39" fill="none" xmlns="http://www.w3.org/2000/svg">
<path d="M5.64856 13.8096H3.58398V31.3581H5.64856V13.8096Z" fill="white"/>
<path d="M5.64856 9.68066H3.58398V11.7452H5.64856V9.68066Z" fill="white"/>
<path d="M35.5841 4.51904H29.3906V6.58362H35.5841V4.51904Z" fill="white"/>
<path d="M60.3574 5.55123V1.42231H46.938V4.51906H42.8089V0.390137H22.1638V4.51928H18.0349V1.42231H4.61548V5.55168H0.486328V38.584H7.71222H8.7444H22.1638H23.196H41.7767H42.8089H56.2283H57.2604H64.4863V5.55123H60.3574ZM18.0349 6.58386H22.1638V8.64843H18.0349V6.58386ZM6.68005 36.5194H2.5509V7.61603H4.61548H6.68005V36.5194ZM6.67983 5.55123V3.48666H15.9701V8.64798H8.7444V5.55123H6.67983ZM8.74418 32.39V15.8739H22.1636V32.39H21.1314V18.9706H19.067V32.39H17.0025V18.9706H14.9379V32.39H12.8733V18.9706H10.8088V32.39H8.74418ZM22.1638 36.5194H8.7444V34.4548H22.1638V36.5194ZM22.1638 13.8095H8.7444V10.7128H22.1638V13.8095ZM40.7445 36.5194H24.2284V34.4548H40.7445V36.5194ZM31.4543 22.0676V32.3902H29.3897V20.003H35.5832V32.3902H33.5186V22.0676H31.4543ZM35.583 17.9387H33.5186V13.8095H31.454V17.9387H29.3895V14.8419C29.3895 13.1037 31.3219 11.5687 32.48 10.8658C33.4399 11.4542 35.583 12.9766 35.583 14.8419V17.9387ZM40.7445 32.39H37.6478V14.8415C37.6478 11.1491 33.14 8.8533 32.9478 8.75623L32.4864 8.52609L32.025 8.75735C31.8329 8.85375 27.3251 11.1491 27.3251 14.8417V32.3902H24.2284V2.45449H40.7445V32.39ZM42.8089 6.58386H46.938V8.64843H42.8089V6.58386ZM42.8089 15.8739H56.2283V32.39H54.1639V23.0998H52.0993V32.39H50.0348V18.9706H47.9702V32.39H45.9056V18.9706H43.841V32.39H42.8089V15.8739ZM56.2285 36.5194H42.8091V34.4548H56.2285V36.5194ZM56.2285 13.8095H42.8091V10.7128H56.2285V13.8095ZM56.2285 5.55123V8.64798H49.0026V3.48688H58.2931V5.55146L56.2285 5.55123ZM58.2928 36.5194V7.61603H60.3574H62.422V36.5194H58.2928Z" fill="white"/>
<path d="M61.3907 13.8096H59.3262V31.3581H61.3907V13.8096Z" fill="white"/>
<path d="M61.3907 9.68066H59.3262V11.7452H61.3907V9.68066Z" fill="white"/>
<path d="M54.1642 18.9707H52.0996V21.0353H54.1642V18.9707Z" fill="white"/>
</svg>
