<svg width="51" height="51" viewBox="0 0 51 51" fill="none" xmlns="http://www.w3.org/2000/svg">
<g clip-path="url(#clip0_853_3197)">
<path d="M5.8004 42.5193H4.1875V44.1322H5.8004V42.5193Z" fill="white"/>
<path d="M9.8336 42.5193H8.2207V44.1322H9.8336V42.5193Z" fill="white"/>
<path d="M5.8004 33.6484H4.1875V35.2613H5.8004V33.6484Z" fill="white"/>
<path d="M9.8336 33.6484H8.2207V35.2613H9.8336V33.6484Z" fill="white"/>
<path d="M25.9625 30.4226H24.3496V35.2613H25.9625V30.4226Z" fill="white"/>
<path d="M21.1246 30.4226H19.5117V35.2613H21.1246V30.4226Z" fill="white"/>
<path d="M16.2848 31.229H14.6719V35.2613H16.2848V31.229Z" fill="white"/>
<path d="M35.6402 31.229H34.0273V35.2613H35.6402V31.229Z" fill="white"/>
<path d="M30.8004 30.4226H29.1875V35.2613H30.8004V30.4226Z" fill="white"/>
<path d="M48.543 27.1969V25.584H46.9301V27.1969H38.0591V24.7774H39.672V22.6242L37.2525 21.6282V19.9388H35.6396V20.9638L32.4139 19.6356V14.2937H34.0268V12.6808H32.414V9.45501H32.1737C31.6252 8.21148 30.2229 6.56074 27.5753 6.27601V3.00342H25.9624V0.583984H24.3495V3.00342H22.7366V6.27601C20.0891 6.56074 18.6866 8.21148 18.1383 9.45501H17.898V12.6808H16.2851V14.2937H17.898V19.6356L14.6722 20.9638V19.9388H13.0593V21.6282L10.6398 22.6242V24.7774H12.2527V27.1969H3.38205V25.584H1.76915V27.1969H0.15625V50.584H50.1561V27.1969H48.543ZM12.2529 48.9709H1.76915V47.358H12.2531L12.2529 48.9709ZM12.2529 45.7451H1.76915V40.9064H12.2531L12.2529 45.7451ZM12.2529 39.2935H9.83364V36.8741H8.22074V39.2935H5.80131V36.8741H4.18841V39.2935H1.76915V32.0354H12.2531L12.2529 39.2935ZM12.2529 30.4227H1.76915V28.8098H12.2531L12.2529 30.4227ZM30.311 9.45501H29.0504C28.9496 9.03488 28.7996 8.58568 28.5924 8.15746C29.432 8.47832 29.9738 8.99032 30.311 9.45501ZM24.3497 4.61631H25.9626V6.22921H24.3497V4.61631ZM24.3497 7.84211H25.9626C26.702 7.84211 27.1335 8.73243 27.3625 9.45501H22.9464C23.1731 8.73226 23.6029 7.84211 24.3497 7.84211ZM21.7188 8.15901C21.5115 8.58636 21.3615 9.03488 21.2616 9.45501H20.0019C20.3392 8.99204 20.881 8.47987 21.7188 8.15901ZM19.511 11.0679H30.8013V12.6808H19.511V11.0679ZM30.8013 14.2937V18.9719L29.9948 18.6397V14.2937H30.8013ZM28.3819 14.2937V17.9751L25.1561 16.6469L21.9303 17.9751V14.2937H28.3819ZM19.511 14.2937H20.3176V18.6397L19.511 18.9719V14.2937ZM15.4787 48.9709H13.8658V47.358H15.4787V48.9709ZM19.511 48.9709H17.0916V47.358H19.5108L19.511 48.9709ZM24.3497 48.9709H21.1239V47.358H24.3497V48.9709ZM29.1884 48.9709H25.9626V47.358H29.1884V48.9709ZM33.2206 48.9709H30.8011V47.358H33.2206V48.9709ZM36.4464 48.9709H34.8335V47.358H36.4464V48.9709ZM36.4464 45.7451H34.8335V43.3257H33.2206V45.7451H30.8011V42.5193H29.1882V45.7451H25.9624V42.5193H24.3495V45.7451H21.1237V42.5193H19.5108V45.7451H17.0916V43.3257H15.4787V45.7451H13.8658V40.0999H17.0916V41.7128H18.7045V40.0999H21.9303V41.7128H23.5432V40.0999H26.769V41.7128H28.3819V40.0999H31.6077V41.7128H33.2206V40.0999H36.4464V45.7451ZM13.8658 38.4872V28.0032H17.0916V38.4872H13.8658ZM18.7045 38.4872V28.0032H21.9303V38.4872H18.7045ZM23.5432 38.4872V28.0032H26.769V38.4872H23.5432ZM28.3819 38.4872V28.0032H31.6077V38.4872H28.3819ZM36.4464 38.4872H33.2206V28.0032H36.4464V38.4872ZM36.4464 26.3903H13.8658V24.7774H36.4464V26.3903ZM21.2796 23.1646L25.1562 21.6138L29.0327 23.1646H21.2796ZM36.4464 23.1646H33.3761L25.1559 19.8766L16.9357 23.1646H13.8658H13.5642L25.1561 18.3919L36.7479 23.1646H36.4464ZM38.0593 28.8098H48.5432V30.4227H38.0593V28.8098ZM38.0593 32.0354H48.5432V39.2935H46.1239V36.8741H44.511V39.2935H42.0916V36.8741H40.4787V39.2935H38.0593V32.0354ZM48.5433 48.9709H38.0594V47.358H48.5433V48.9709ZM48.5433 45.7451H38.0594V40.9064H48.5433V45.7451Z" fill="white"/>
<path d="M46.1246 42.5193H44.5117V44.1322H46.1246V42.5193Z" fill="white"/>
<path d="M42.0914 42.5193H40.4785V44.1322H42.0914V42.5193Z" fill="white"/>
<path d="M46.1246 33.6484H44.5117V35.2613H46.1246V33.6484Z" fill="white"/>
<path d="M42.0914 33.6484H40.4785V35.2613H42.0914V33.6484Z" fill="white"/>
</g>
<defs>
<clipPath id="clip0_853_3197">
<rect width="50" height="50" fill="white" transform="translate(0.15625 0.583984)"/>
</clipPath>
</defs>
</svg>
