<svg width="51" height="51" viewBox="0 0 51 51" fill="none" xmlns="http://www.w3.org/2000/svg">
<g clip-path="url(#clip0_3771_706)">
<path d="M48.187 43.4688L49.4071 40.2957C49.4525 40.1774 49.4685 40.0497 49.4536 39.9239C49.4387 39.798 49.3934 39.6776 49.3216 39.5731C49.2498 39.4686 49.1537 39.3832 49.0415 39.3241C48.9294 39.265 48.8045 39.2341 48.6777 39.2341H41.238C40.8385 38.1085 40.1582 37.1036 39.2615 36.3147C39.2848 36.2484 39.2988 36.1792 39.303 36.1091V29.0778C39.3007 28.3036 39.1068 27.542 38.7384 26.861C38.3701 26.18 37.8388 25.6008 37.192 25.1752C37.2715 24.9517 37.3452 24.7267 37.4074 24.4976L44.1797 22.8046C44.3486 22.7622 44.4986 22.6646 44.6057 22.5273C44.7128 22.39 44.771 22.2209 44.771 22.0467C44.771 21.8726 44.7128 21.7034 44.6057 21.5661C44.4986 21.4288 44.3486 21.3313 44.1797 21.2889L37.4043 19.5947C37.1955 18.8235 36.8883 18.0823 36.4902 17.3896L40.084 11.4002C40.1737 11.2508 40.2109 11.0757 40.1896 10.9027C40.1683 10.7297 40.0899 10.5688 39.9666 10.4456C39.8434 10.3224 39.6825 10.2439 39.5095 10.2226C39.3366 10.2013 39.1614 10.2385 39.012 10.3282L33.0224 13.9216C32.3296 13.5237 31.5884 13.2166 30.8172 13.008L29.123 6.23197C29.0808 6.063 28.9833 5.91299 28.8461 5.80579C28.7088 5.69859 28.5396 5.64037 28.3655 5.64037C28.1913 5.64037 28.0221 5.69859 27.8849 5.80579C27.7476 5.91299 27.6501 6.063 27.6079 6.23197L25.9135 13.008C25.1423 13.2166 24.4011 13.5237 23.7083 13.9216L17.7187 10.3282C17.5693 10.2384 17.3941 10.2011 17.221 10.2223C17.048 10.2435 16.887 10.322 16.7637 10.4453C16.6404 10.5686 16.5619 10.7295 16.5406 10.9026C16.5194 11.0756 16.5567 11.2508 16.6465 11.4003L20.2402 17.3896C19.8423 18.0824 19.5353 18.8236 19.3266 19.5948L12.5511 21.2887C12.3822 21.331 12.2322 21.4286 12.1251 21.5659C12.018 21.7032 11.9598 21.8724 11.9598 22.0465C11.9598 22.2207 12.018 22.3898 12.1251 22.5271C12.2322 22.6644 12.3822 22.762 12.5511 22.8043L19.3234 24.4974C19.3859 24.7267 19.4594 24.9519 19.5389 25.1753C18.8922 25.601 18.3609 26.1801 17.9925 26.8611C17.6241 27.542 17.4301 28.3036 17.4277 29.0778V30.9528L14.1777 28.5894L10.4974 18.1621L11.0861 13.4528H11.959C12.1662 13.4528 12.3649 13.3705 12.5114 13.224C12.6579 13.0775 12.7402 12.8788 12.7402 12.6716V9.54658C12.7402 9.33938 12.6579 9.14067 12.5114 8.99415C12.3649 8.84764 12.1662 8.76533 11.959 8.76533H10.2516C10.3393 8.64024 10.419 8.50977 10.4903 8.37471C10.7978 7.78636 10.9375 7.12473 10.8941 6.46228C10.8506 5.79984 10.6257 5.16213 10.2439 4.619L7.91156 1.28627C7.83585 1.18864 7.73882 1.10963 7.62787 1.05527C7.51693 1.00092 7.39503 0.972656 7.27148 0.972656C7.14794 0.972656 7.02604 1.00092 6.9151 1.05527C6.80415 1.10963 6.70712 1.18864 6.63141 1.28627L4.29906 4.61838C3.8701 5.22435 3.63908 5.94818 3.63768 6.69062C3.63628 7.43305 3.86457 8.15775 4.29125 8.76533H2.58398C2.37678 8.76533 2.17807 8.84764 2.03156 8.99415C1.88504 9.14067 1.80273 9.33938 1.80273 9.54658V12.6716C1.80424 12.865 1.87822 13.0508 2.01008 13.1923C1.62284 13.7214 1.41348 14.3597 1.41211 15.0153V16.5778C1.41448 17.352 1.70474 18.0975 2.22642 18.6695C2.7481 19.2414 3.46389 19.5988 4.23453 19.6722L4.93383 25.2685C4.95746 25.4558 5.04817 25.6282 5.18918 25.7537C5.33018 25.8793 5.51191 25.9495 5.7007 25.9513L5.71633 26.0631C5.7225 26.1034 5.7314 26.1433 5.74297 26.1824L8.30547 34.5117L7.43594 35.6296C7.32964 35.7661 7.27166 35.934 7.27111 36.107C7.27056 36.2801 7.32746 36.4484 7.43289 36.5856L15.0837 46.5309V50.1715C15.0837 50.3787 15.166 50.5774 15.3125 50.7239C15.459 50.8704 15.6577 50.9528 15.8649 50.9528H44.7712C44.9291 50.9528 45.0834 50.9049 45.2136 50.8155C45.3438 50.7261 45.4439 50.5993 45.5005 50.4519L45.6766 49.9942C46.0147 50.1068 46.368 50.1666 46.7243 50.1715C47.5263 50.173 48.3047 49.8998 48.9298 49.3974C49.5549 48.8949 49.9891 48.1935 50.16 47.41C50.3309 46.6264 50.2284 45.8079 49.8693 45.0907C49.5103 44.3736 48.9167 43.8014 48.187 43.4688ZM39.9184 40.3003L37.3288 47.0335L36.1709 38.3495C36.1426 38.1448 36.0345 37.9597 35.8701 37.8345C35.7056 37.7094 35.4984 37.6545 35.2936 37.6819C35.0888 37.7092 34.9032 37.8165 34.7773 37.9804C34.6515 38.1442 34.5957 38.3513 34.6221 38.5562L36.0666 49.3903H28.0293L32.9795 38.7831C33.0228 38.6901 33.0475 38.5895 33.052 38.487C33.0565 38.3845 33.0408 38.2821 33.0057 38.1857C32.9706 38.0893 32.9169 38.0007 32.8476 37.9251C32.7783 37.8494 32.6948 37.7881 32.6018 37.7447C32.5089 37.7014 32.4083 37.6767 32.3058 37.6722C32.2033 37.6677 32.1009 37.6834 32.0045 37.7185C31.9081 37.7536 31.8195 37.8073 31.7438 37.8766C31.6682 37.9459 31.6069 38.0294 31.5635 38.1224L26.3052 49.3903H17.8474L28.1365 39.7864L31.8139 36.1091H34.6152C35.8409 36.1129 37.0298 36.528 37.9913 37.288C38.9529 38.0479 39.6316 39.1087 39.9184 40.3003ZM20.5527 22.0466C20.5496 20.8713 20.8116 19.7104 21.3194 18.6505C21.8271 17.5905 22.5674 16.6588 23.4853 15.9246C24.4031 15.1905 25.4747 14.6729 26.6203 14.4104C27.7659 14.1479 28.956 14.1473 30.1019 14.4085C31.2477 14.6698 32.3199 15.1862 33.2385 15.9193C34.1571 16.6525 34.8985 17.5834 35.4074 18.6428C35.9163 19.7022 36.1796 20.8628 36.1777 22.0381C36.1758 23.2134 35.9088 24.3731 35.3965 25.4309V23.6091C35.3965 21.7443 34.6557 19.9559 33.3371 18.6372C32.0185 17.3186 30.23 16.5778 28.3652 16.5778C26.5004 16.5778 24.712 17.3186 23.3934 18.6372C22.0748 19.9559 21.334 21.7443 21.334 23.6091V25.4309C20.8209 24.3764 20.5538 23.2193 20.5527 22.0466ZM22.8965 27.5153V24.3349C24.0466 24.2065 25.1473 23.7965 26.1011 23.1412C27.055 22.486 27.8327 21.6057 28.3652 20.5783C28.8978 21.6057 29.6755 22.486 30.6293 23.1412C31.5832 23.7965 32.6839 24.2065 33.834 24.3349V27.5153C33.834 28.9657 33.2578 30.3567 32.2322 31.3823C31.2066 32.4079 29.8156 32.9841 28.3652 32.9841C26.9148 32.9841 25.5238 32.4079 24.4982 31.3823C23.4727 30.3567 22.8965 28.9657 22.8965 27.5153ZM22.9702 22.7542C23.1522 21.6156 23.6891 20.5636 24.5045 19.7483C25.3198 18.933 26.3718 18.396 27.5103 18.214C27.3283 19.3526 26.7913 20.4046 25.976 21.2199C25.1607 22.0352 24.1087 22.5721 22.9702 22.7542ZM29.2202 18.214C30.3587 18.396 31.4107 18.933 32.226 19.7483C33.0413 20.5636 33.5783 21.6156 33.7603 22.7542C32.6218 22.5721 31.5698 22.0352 30.7545 21.2199C29.9392 20.4046 29.4022 19.3526 29.2202 18.214ZM32.2715 33.3577C32.8612 32.9612 33.388 32.4782 33.834 31.925V32.2028C33.8342 33.0264 34.0531 33.8352 34.4682 34.5466H32.2715V33.3577ZM22.8965 31.925C23.3425 32.4782 23.8692 32.9612 24.459 33.3577V34.5466H22.3693L22.2871 34.4868C22.6871 33.7921 22.8972 33.0044 22.8965 32.2028V31.925ZM26.0215 34.1363C27.5361 34.6833 29.1944 34.6833 30.709 34.1363V35.0043L27.7391 37.9742L26.0215 35.1112V34.1363ZM37.7402 29.0778V35.229C37.0698 35.0549 36.4761 34.6634 36.052 34.1158C35.6279 33.5682 35.3973 32.8955 35.3965 32.2028V28.221C35.8287 27.7301 36.2088 27.1955 36.5304 26.626C36.9052 26.9158 37.2089 27.2873 37.4185 27.7121C37.6282 28.137 37.7382 28.6041 37.7402 29.0778ZM40.7691 22.0466L37.7038 22.8129C37.7245 22.5588 37.7402 22.3038 37.7402 22.0466C37.7402 21.7877 37.722 21.5333 37.7012 21.2796L40.7691 22.0466ZM37.1363 13.2755L35.5083 15.9893C35.1765 15.5985 34.8134 15.2353 34.4227 14.9034L37.1363 13.2755ZM28.3652 9.64197L29.1327 12.7104C28.8789 12.6898 28.6243 12.6713 28.3652 12.6713C28.1062 12.6713 27.8516 12.6896 27.5977 12.7104L28.3652 9.64197ZM19.5938 13.2753L22.3077 14.9035C21.9169 15.2354 21.5537 15.5985 21.2218 15.9894L19.5938 13.2753ZM15.9613 22.0466L19.0293 21.2796C19.0087 21.5333 18.9902 21.7874 18.9902 22.0466C18.9902 22.3038 19.0059 22.5588 19.0267 22.8129L15.9613 22.0466ZM18.9902 29.0778C18.9925 28.6042 19.1027 28.1373 19.3124 27.7126C19.5221 27.2879 19.8258 26.9166 20.2005 26.6268C20.522 27.1961 20.9019 27.7304 21.334 28.221V32.2028C21.3306 32.6726 21.2174 33.135 21.0034 33.5532L18.9902 32.0892V29.0778ZM12.6426 28.9352L9.47711 33.0055L7.30727 25.9528H8.83398C9.0244 25.9528 9.20825 25.8833 9.35099 25.7572C9.49373 25.6312 9.58553 25.4574 9.60914 25.2685L10.0639 21.6301L12.6426 28.9352ZM8.1443 24.3903H6.39867L5.78023 19.4417C6.3386 19.1993 6.81409 18.7992 7.14837 18.2905C7.48265 17.7818 7.6612 17.1866 7.66211 16.5778V15.0153C7.65894 14.4651 7.5089 13.9257 7.2275 13.4528H9.51148L8.1443 24.3903ZM5.43891 7.65338C5.26084 7.31913 5.17965 6.9418 5.2045 6.56389C5.22935 6.18599 5.35923 5.82253 5.57953 5.51447L7.27148 3.09666L8.96367 5.51486C9.12572 5.74642 9.23853 6.00877 9.29511 6.28568C9.3517 6.56259 9.35087 6.84816 9.29266 7.12473C9.23446 7.4013 9.12012 7.66299 8.95672 7.8936C8.79332 8.1242 8.58434 8.31883 8.3427 8.46543C8.10107 8.61204 7.83192 8.7075 7.55191 8.74591C7.27191 8.78432 6.987 8.76486 6.71481 8.68874C6.44262 8.61263 6.18895 8.48147 5.96949 8.30338C5.75002 8.12529 5.56944 7.90406 5.43891 7.65338ZM3.36523 10.3278H11.1777V11.8903H3.36523V10.3278ZM2.97461 16.5778V15.0153C2.97461 14.6009 3.13923 14.2035 3.43226 13.9105C3.72528 13.6175 4.12271 13.4528 4.53711 13.4528C4.95151 13.4528 5.34894 13.6175 5.64196 13.9105C5.93499 14.2035 6.09961 14.6009 6.09961 15.0153V16.5778C6.09961 16.9922 5.93499 17.3897 5.64196 17.6827C5.34894 17.9757 4.95151 18.1403 4.53711 18.1403C4.12271 18.1403 3.72528 17.9757 3.43226 17.6827C3.13923 17.3897 2.97461 16.9922 2.97461 16.5778ZM9.0407 36.1117L13.6741 30.1547L21.6559 35.9594C21.7894 36.0566 21.9502 36.1089 22.1152 36.1089H24.7977L26.5889 39.0939L16.6465 48.3736V46.2653C16.6464 46.093 16.5895 45.9256 16.4848 45.7888L9.0407 36.1117ZM44.2352 49.3903H38.0966L41.4012 40.7966H47.5398L46.6351 43.1493C45.9403 43.1642 45.2656 43.3855 44.697 43.785C44.1284 44.1846 43.6915 44.7443 43.4421 45.3929C43.1926 46.0416 43.1418 46.7498 43.2961 47.4274C43.4505 48.105 43.803 48.7213 44.3088 49.1979L44.2352 49.3903ZM46.7246 48.6091C46.3383 48.6091 45.9607 48.4945 45.6395 48.2799C45.3183 48.0653 45.068 47.7603 44.9202 47.4034C44.7723 47.0465 44.7337 46.6538 44.809 46.2749C44.8844 45.896 45.0704 45.548 45.3435 45.2749C45.6167 45.0017 45.9647 44.8157 46.3436 44.7404C46.7224 44.665 47.1152 44.7037 47.472 44.8515C47.8289 44.9993 48.134 45.2497 48.3486 45.5709C48.5632 45.892 48.6777 46.2697 48.6777 46.656C48.6772 47.1738 48.4712 47.6703 48.1051 48.0364C47.7389 48.4026 47.2424 48.6085 46.7246 48.6091Z" fill="white"/>
</g>
<defs>
<clipPath id="clip0_3771_706">
<rect width="50" height="50" fill="white" transform="translate(0.826172 0.962891)"/>
</clipPath>
</defs>
</svg>
