<svg width="213" height="61" viewBox="0 0 213 61" fill="none" xmlns="http://www.w3.org/2000/svg">
<path d="M34.7472 0L0 60.1406H69.4637L34.7472 0ZM34.7472 4.59517L65.5348 57.8941H3.95695L34.7472 4.59517Z" fill="white"/>
<path d="M41.2239 26.537H43.8763L34.7472 10.7654L10.5996 52.5151H13.2495L34.7472 15.3146L41.2239 26.537Z" fill="white"/>
<path d="M34.7478 21.988L20.3496 46.8888H22.9689L34.7478 26.5373L38.281 32.7535H40.9309L34.7478 21.988Z" fill="white"/>
<path d="M29.4453 41.6528H32.0646L34.7476 37.0729L37.3975 41.6528H40.0142L34.7476 32.5237L29.4453 41.6528Z" fill="white"/>
<path d="M72.7109 36.3482V25.1819H75.4553V36.3482H72.7109Z" fill="white"/>
<path d="M77.1457 36.348V27.9644H79.5148L79.5913 29.0928C79.816 28.6792 80.1556 28.3396 80.5691 28.115C80.9927 27.8718 81.472 27.7425 81.9604 27.7397C82.4666 27.733 82.9633 27.877 83.3875 28.1533C83.8209 28.4334 84.173 28.8225 84.4086 29.2817C84.6869 28.804 85.0885 28.4098 85.5712 28.1403C86.054 27.8709 86.6003 27.7361 87.153 27.7499C87.7131 27.7323 88.2648 27.8902 88.7306 28.2018C89.2042 28.4849 89.565 28.9233 89.7518 29.4425C90.0021 30.0631 90.1295 30.7263 90.1271 31.3954V36.3965H87.564V31.6865C87.6025 31.2576 87.4816 30.8295 87.2244 30.4841C87.1101 30.3483 86.9663 30.2404 86.8039 30.1687C86.6415 30.097 86.4649 30.0634 86.2875 30.0705C86.0463 30.046 85.8047 30.1135 85.611 30.2594C85.4171 30.4282 85.2409 30.6164 85.0851 30.821C84.9446 31.0731 84.8791 31.3601 84.8962 31.6482V36.3863H82.2974V31.6865C82.3354 31.258 82.2156 30.8304 81.9604 30.4841C81.8455 30.3477 81.7008 30.2395 81.5375 30.1678C81.3742 30.0961 81.1966 30.0628 81.0184 30.0705C80.7772 30.046 80.5355 30.1135 80.3419 30.2594C80.1479 30.4282 79.9717 30.6164 79.816 30.821C79.6755 31.0731 79.6099 31.3601 79.6271 31.6482V36.3863H77.0742V36.348H77.1457Z" fill="white"/>
<path d="M91.7363 39.358V27.9645H94.1028L94.1794 29.1669C94.4489 28.717 94.8401 28.3524 95.3078 28.1151C95.7778 27.8609 96.3052 27.7317 96.8395 27.7399C97.3499 27.7121 97.8579 27.8289 98.3049 28.0768C98.7454 28.3366 99.1497 28.6533 99.5073 29.0189C99.8567 29.427 100.125 29.8984 100.296 30.4076C100.476 30.9665 100.562 31.5514 100.551 32.1385C100.565 32.7374 100.479 33.3345 100.296 33.9051C100.128 34.4363 99.8458 34.9243 99.469 35.3347C99.119 35.7341 98.6984 36.0655 98.2283 36.3124C97.7345 36.5421 97.1952 36.6573 96.6506 36.6494C96.1861 36.6673 95.7236 36.58 95.2976 36.3941C94.8868 36.2189 94.5331 35.9324 94.2764 35.567V39.478L91.7363 39.358ZM96.1707 34.3186C96.5149 34.3339 96.8557 34.245 97.1484 34.0633C97.4393 33.8842 97.6642 33.6154 97.7892 33.2975C97.9398 32.9674 98.0165 32.6085 98.0138 32.2457C98.0188 31.858 97.9423 31.4735 97.7892 31.1173C97.6379 30.82 97.4183 30.5628 97.1484 30.3668C96.8577 30.1803 96.5154 30.0909 96.1707 30.1115C95.8273 30.0965 95.4875 30.1855 95.1955 30.3668C94.9069 30.5417 94.6822 30.8049 94.5547 31.1173C94.3805 31.4667 94.3029 31.8563 94.33 32.2457C94.3194 32.6092 94.3964 32.97 94.5547 33.2975C94.7036 33.6006 94.9234 33.8633 95.1955 34.0633C95.4931 34.2311 95.829 34.319 96.1707 34.3186Z" fill="white"/>
<path d="M106.097 36.6495C105.502 36.6756 104.908 36.5601 104.366 36.3125C103.845 36.093 103.372 35.7729 102.975 35.3705C102.589 34.9613 102.294 34.4749 102.109 33.9434C101.882 33.3691 101.768 32.7562 101.772 32.1385C101.749 31.5317 101.864 30.9275 102.109 30.3719C102.327 29.8677 102.619 29.3988 102.975 28.9806C103.372 28.5963 103.829 28.279 104.328 28.0412C104.849 27.8133 105.413 27.6976 105.982 27.7016C106.578 27.6754 107.171 27.7918 107.713 28.0412C108.227 28.2517 108.689 28.5723 109.066 28.9806C109.441 29.3911 109.724 29.8779 109.893 30.4077C110.077 31.0043 110.163 31.6267 110.148 32.2508V32.815H104.366C104.433 33.27 104.644 33.6914 104.969 34.0174C105.119 34.1589 105.297 34.2684 105.491 34.3395C105.685 34.4106 105.891 34.4417 106.097 34.431C106.397 34.4549 106.697 34.3901 106.96 34.2446C107.213 34.0765 107.44 33.8737 107.636 33.6422L110.006 34.2446C109.787 34.7028 109.495 35.1219 109.14 35.4853C108.739 35.854 108.266 36.1357 107.751 36.3125C107.224 36.522 106.664 36.6361 106.097 36.6495ZM105.982 29.6954C105.788 29.6914 105.595 29.7259 105.415 29.7969C105.234 29.8679 105.07 29.974 104.93 30.109C104.632 30.4331 104.436 30.838 104.366 31.2731H107.524C107.474 30.8397 107.291 30.4328 106.998 30.109C106.873 29.9637 106.715 29.8503 106.538 29.7784C106.36 29.7064 106.168 29.678 105.977 29.6954H105.982Z" fill="white"/>
<path d="M111.396 36.3482V27.9646H113.766L113.84 29.3176C113.996 28.8877 114.286 28.5192 114.667 28.2658C115.038 28.0287 115.467 27.8988 115.907 27.8905C116.046 27.8832 116.185 27.8952 116.321 27.9263C116.45 27.931 116.578 27.9569 116.699 28.0029L116.472 30.5557C116.353 30.5067 116.225 30.4816 116.096 30.4817C115.946 30.4817 115.872 30.4434 115.721 30.4434C115.471 30.4315 115.222 30.4722 114.989 30.5628C114.756 30.6534 114.544 30.7919 114.368 30.9693C114.201 31.1653 114.075 31.3928 113.997 31.6384C113.92 31.8839 113.892 32.1425 113.916 32.3989V36.3839L111.396 36.3457V36.3482Z" fill="white"/>
<path d="M121.812 36.6493C121.204 36.6725 120.6 36.5572 120.043 36.3123C119.507 36.1016 119.02 35.7807 118.616 35.3703C118.226 34.9644 117.908 34.4947 117.676 33.9816C117.447 33.4203 117.331 32.8188 117.337 32.2124C117.314 31.6053 117.43 31.001 117.676 30.4458C117.899 29.9164 118.218 29.4326 118.616 29.0188C119.01 28.5955 119.499 28.2726 120.043 28.0768C120.617 27.8493 121.23 27.7349 121.848 27.7398C122.455 27.7164 123.059 27.8316 123.614 28.0768C124.137 28.3143 124.62 28.6322 125.044 29.0188C125.433 29.4259 125.75 29.8953 125.983 30.4075C126.211 30.9696 126.326 31.5705 126.323 32.1767C126.345 32.7837 126.229 33.3877 125.983 33.9433C125.769 34.4665 125.449 34.9401 125.044 35.3346C124.629 35.7326 124.144 36.0511 123.614 36.274C123.043 36.5139 122.431 36.6413 121.812 36.6493ZM121.848 34.3185C122.179 34.3282 122.506 34.2394 122.787 34.0633C123.078 33.8841 123.303 33.6153 123.428 33.2974C123.579 32.9674 123.655 32.6084 123.653 32.2456C123.658 31.8579 123.581 31.4735 123.428 31.1172C123.277 30.8199 123.057 30.5627 122.787 30.3667C122.509 30.1855 122.18 30.0962 121.848 30.1114C121.516 30.1017 121.189 30.1906 120.908 30.3667C120.62 30.5411 120.396 30.8045 120.27 31.1172C120.095 31.4664 120.017 31.856 120.043 32.2456C120.034 32.6092 120.112 32.9697 120.27 33.2974C120.417 33.601 120.636 33.8639 120.908 34.0633C121.19 34.237 121.517 34.3257 121.848 34.3185Z" fill="white"/>
<path d="M131.023 36.3482V25.1819H133.77V36.3482H131.023Z" fill="white"/>
<path d="M138.366 36.3482V27.5892H135.303V25.1819H144.174V27.5892H141.136V36.3482H138.366Z" fill="white"/>
<path d="M152.568 36.6494C151.901 36.6409 151.242 36.5138 150.62 36.2741C150.053 36.0476 149.549 35.6867 149.152 35.2224C148.738 34.751 148.453 34.1814 148.322 33.5681L150.875 33.0397C150.992 33.4088 151.214 33.736 151.513 33.9817C151.814 34.2138 152.186 34.3331 152.565 34.3186C152.75 34.3393 152.936 34.3199 153.113 34.2617C153.289 34.2035 153.45 34.108 153.586 33.9817C153.716 33.8948 153.821 33.7768 153.894 33.6386C153.966 33.5003 154.002 33.3462 154 33.1903C153.992 33.046 153.955 32.9049 153.891 32.7758C153.826 32.6466 153.736 32.5322 153.625 32.4397C153.223 32.1815 152.776 32.003 152.307 31.9138L151.894 31.8373C150.945 31.6993 150.064 31.265 149.377 30.5966C149.108 30.3274 148.899 30.0056 148.762 29.6515C148.624 29.2973 148.561 28.9185 148.578 28.5389C148.552 28.0398 148.67 27.5437 148.917 27.1093C149.139 26.6975 149.418 26.3186 149.744 25.9835C150.14 25.6652 150.584 25.411 151.059 25.2304C151.566 25.0517 152.101 24.9652 152.639 24.9751C153.26 24.9726 153.875 25.1005 154.444 25.3504C154.994 25.5725 155.479 25.9304 155.854 26.3906C156.228 26.8509 156.48 27.3985 156.586 27.9824L154.069 28.5083C153.954 28.1694 153.745 27.8701 153.466 27.6454C153.192 27.4546 152.86 27.3644 152.527 27.3901C152.194 27.3697 151.864 27.4594 151.587 27.6454C151.469 27.7316 151.374 27.8446 151.308 27.9751C151.242 28.1056 151.209 28.2499 151.21 28.396C151.206 28.5007 151.224 28.6051 151.263 28.7023C151.302 28.7995 151.361 28.8874 151.437 28.9602C151.603 29.1241 151.81 29.2412 152.037 29.2997C152.306 29.396 152.583 29.4711 152.864 29.5243L153.277 29.5984C154.225 29.7725 155.108 30.2014 155.83 30.8391C156.11 31.1191 156.328 31.4545 156.471 31.8238C156.613 32.1931 156.677 32.5881 156.657 32.9835C156.688 33.4945 156.57 34.0036 156.318 34.4488C156.073 34.8676 155.784 35.2587 155.455 35.6155C155.066 35.9658 154.603 36.2226 154.099 36.366C153.616 36.5715 153.093 36.6682 152.568 36.6494Z" fill="white"/>
<path d="M162.266 36.6494C161.672 36.6753 161.079 36.5598 160.538 36.3125C160.017 36.093 159.544 35.7729 159.147 35.3705C158.76 34.9619 158.465 34.4754 158.281 33.9434C158.054 33.3691 157.939 32.7562 157.944 32.1385C157.921 31.5317 158.036 30.9275 158.281 30.3719C158.498 29.8672 158.79 29.3982 159.147 28.9806C159.543 28.5951 160 28.2777 160.5 28.0412C161.021 27.813 161.585 27.6973 162.154 27.7016C162.749 27.6754 163.342 27.7918 163.882 28.0412C164.398 28.251 164.861 28.5717 165.238 28.9806C165.612 29.3918 165.894 29.8784 166.065 30.4077C166.249 31.0043 166.335 31.6267 166.32 32.2508V32.815H160.538C160.604 33.2697 160.815 33.6912 161.138 34.0174C161.289 34.1589 161.466 34.2684 161.66 34.3395C161.854 34.4106 162.06 34.4417 162.266 34.431C162.567 34.4554 162.868 34.3906 163.132 34.2446C163.384 34.0765 163.612 33.8737 163.808 33.6422L166.177 34.2446C165.958 34.7023 165.666 35.1213 165.312 35.4853C164.91 35.8541 164.437 36.1357 163.921 36.3125C163.392 36.5172 162.833 36.6311 162.266 36.6494ZM162.192 29.6954C161.998 29.6915 161.805 29.726 161.624 29.797C161.443 29.868 161.278 29.974 161.138 30.109C160.841 30.4343 160.645 30.8387 160.574 31.2731H163.734C163.684 30.8395 163.499 30.4325 163.206 30.109C163.082 29.9644 162.925 29.8515 162.749 29.7796C162.573 29.7077 162.382 29.6788 162.192 29.6954Z" fill="white"/>
<path d="M167.604 36.3482V27.9645H169.973L170.049 29.3175C170.205 28.8872 170.495 28.5184 170.876 28.2658C171.247 28.0279 171.677 27.8979 172.117 27.8905C172.256 27.8832 172.395 27.8952 172.531 27.9262C172.659 27.9312 172.786 27.9571 172.906 28.0028L172.681 30.5557C172.561 30.5069 172.433 30.4818 172.303 30.4816C172.153 30.4816 172.079 30.4434 171.928 30.4434C171.678 30.4315 171.429 30.4721 171.196 30.5627C170.963 30.6533 170.751 30.7918 170.575 30.9692C170.408 31.1653 170.282 31.3928 170.204 31.6383C170.127 31.8839 170.099 32.1425 170.123 32.3989V36.3839L167.604 36.3456V36.3482Z" fill="white"/>
<path d="M176.703 36.3482L173.596 27.9646H176.404L178.02 33.4916L179.674 27.9646H182.418L179.299 36.3482H176.703Z" fill="white"/>
<path d="M186.104 25.7844C186.13 26.0253 186.063 26.267 185.918 26.4609C185.792 26.6804 185.609 26.862 185.389 26.9868C185.158 27.1099 184.9 27.1743 184.637 27.1743C184.375 27.1743 184.117 27.1099 183.886 26.9868C183.666 26.8619 183.485 26.6803 183.36 26.4609C183.234 26.2581 183.169 26.0232 183.173 25.7844C183.154 25.5439 183.22 25.3043 183.36 25.1079C183.485 24.8885 183.666 24.7068 183.886 24.582C184.114 24.4387 184.383 24.3725 184.651 24.3931C184.915 24.3793 185.176 24.4451 185.402 24.582C185.622 24.7068 185.805 24.8884 185.93 25.1079C186.021 25.3237 186.079 25.5516 186.104 25.7844ZM183.321 36.3482V27.9645H185.874V36.3482H183.321Z" fill="white"/>
<path d="M191.516 36.6494C190.922 36.6687 190.332 36.5535 189.788 36.3124C189.273 36.1007 188.811 35.7792 188.433 35.3704C188.039 34.982 187.744 34.5061 187.57 33.9816C187.338 33.421 187.222 32.8191 187.23 32.2125C187.204 31.6052 187.32 31.0001 187.57 30.4459C187.789 29.9147 188.108 29.4304 188.509 29.0188C188.898 28.597 189.372 28.2636 189.901 28.0411C190.448 27.8128 191.036 27.6974 191.629 27.7015C192.237 27.7091 192.837 27.8366 193.395 28.0768C193.92 28.3074 194.384 28.657 194.751 29.0979C195.119 29.5602 195.376 30.1008 195.502 30.6782L192.982 31.0917C192.87 30.788 192.675 30.5223 192.418 30.3259C192.172 30.163 191.885 30.0744 191.591 30.0706C191.283 30.0578 190.979 30.1476 190.728 30.3259C190.457 30.518 190.248 30.7839 190.125 31.0917C189.967 31.4455 189.89 31.8302 189.901 32.2176C189.886 32.5823 189.963 32.9448 190.125 33.2719C190.251 33.5739 190.46 33.8341 190.728 34.0224C190.983 34.1947 191.284 34.2868 191.592 34.2868C191.9 34.2868 192.201 34.1947 192.456 34.0224C192.734 33.8283 192.944 33.5527 193.058 33.2336L195.578 33.6472C195.494 34.0826 195.309 34.4925 195.039 34.8445C194.803 35.2009 194.512 35.5179 194.177 35.7839C193.808 36.0444 193.401 36.2475 192.972 36.3864C192.502 36.5429 192.012 36.6314 191.516 36.6494Z" fill="white"/>
<path d="M200.691 36.6495C200.095 36.6756 199.502 36.5601 198.96 36.3125C198.439 36.093 197.966 35.7729 197.569 35.3705C197.183 34.9613 196.888 34.4749 196.703 33.9434C196.476 33.3691 196.361 32.7562 196.366 32.1385C196.343 31.5317 196.458 30.9275 196.703 30.3719C196.921 29.8677 197.213 29.3988 197.569 28.9806C197.959 28.5878 198.417 28.2694 198.922 28.0412C199.443 27.8133 200.007 27.6976 200.576 27.7016C201.172 27.6754 201.765 27.7918 202.307 28.0412C202.821 28.2517 203.283 28.5723 203.66 28.9806C204.035 29.3911 204.317 29.8779 204.487 30.4077C204.671 31.0043 204.757 31.6267 204.742 32.2508V32.815H198.96C199.027 33.27 199.238 33.6914 199.562 34.0174C199.713 34.1589 199.89 34.2684 200.084 34.3395C200.278 34.4106 200.485 34.4417 200.691 34.431C200.99 34.4549 201.291 34.3901 201.554 34.2446C201.806 34.0765 202.034 33.8737 202.23 33.6422L204.599 34.2446C204.381 34.7028 204.088 35.1219 203.734 35.4853C203.333 35.854 202.86 36.1357 202.345 36.3125C201.818 36.522 201.258 36.6361 200.691 36.6495ZM200.614 29.6954C200.42 29.6914 200.227 29.7259 200.047 29.7969C199.866 29.8679 199.702 29.974 199.562 30.109C199.264 30.4331 199.068 30.838 198.998 31.2731H202.156C202.105 30.8401 201.922 30.4334 201.63 30.109C201.506 29.9644 201.349 29.8515 201.172 29.7796C200.995 29.7077 200.804 29.6788 200.614 29.6954Z" fill="white"/>
<path d="M209.376 36.6493C208.813 36.6673 208.252 36.5807 207.721 36.394C207.248 36.2405 206.821 35.969 206.481 35.6052C206.127 35.2615 205.863 34.8351 205.715 34.3645L208.084 33.9509C208.191 34.2019 208.375 34.4122 208.61 34.5508C208.858 34.7053 209.145 34.7842 209.437 34.778C209.703 34.8116 209.972 34.7442 210.19 34.5891C210.27 34.5269 210.335 34.4471 210.379 34.3559C210.423 34.2647 210.446 34.1646 210.445 34.0632C210.454 33.9709 210.434 33.8783 210.388 33.7975C210.342 33.7168 210.273 33.6519 210.19 33.6114C209.866 33.4704 209.521 33.3841 209.169 33.3561L208.794 33.3178C208.018 33.2489 207.288 32.9175 206.726 32.3783C206.473 32.1692 206.272 31.9042 206.139 31.6043C206.007 31.3044 205.945 30.9777 205.96 30.65C205.955 30.2623 206.031 29.8778 206.185 29.5217C206.346 29.1877 206.578 28.8925 206.864 28.6562C207.189 28.4242 207.542 28.2346 207.915 28.0921C208.352 27.9512 208.81 27.8881 209.268 27.9057C209.807 27.8881 210.343 27.9747 210.849 28.161C211.297 28.3433 211.705 28.6112 212.051 28.9498C212.382 29.2815 212.616 29.6973 212.728 30.1522L210.359 30.5658C210.278 30.342 210.134 30.1462 209.945 30.0016C209.749 29.8615 209.509 29.7955 209.268 29.8153C209.028 29.791 208.786 29.8575 208.592 30.0016C208.517 30.0495 208.457 30.1168 208.417 30.1964C208.377 30.276 208.36 30.3649 208.367 30.4535C208.36 30.5407 208.38 30.6281 208.426 30.7027C208.472 30.7772 208.541 30.8349 208.623 30.867C208.939 30.9865 209.266 31.0721 209.6 31.1223L209.976 31.1606C210.771 31.2399 211.521 31.5687 212.117 32.1001C212.37 32.3097 212.571 32.5752 212.704 32.8755C212.837 33.1758 212.898 33.5028 212.883 33.8309C212.892 34.2338 212.805 34.6329 212.628 34.995C212.441 35.3583 212.18 35.6783 211.862 35.9345C211.526 36.2026 211.144 36.4068 210.734 36.537C210.356 36.537 209.902 36.6493 209.376 36.6493Z" fill="white"/>
</svg>
