<svg width="206" height="47" viewBox="0 0 206 47" fill="none" xmlns="http://www.w3.org/2000/svg">
<path d="M27.7448 0L0.589844 47H54.8759L27.7448 0ZM27.7448 3.59114L51.8054 45.2443H3.68221L27.7448 3.59114Z" fill="white"/>
<path d="M32.806 20.7387H34.8789L27.7445 8.41309L8.87305 41.0406H10.9439L27.7445 11.9683L32.806 20.7387Z" fill="white"/>
<path d="M27.7444 17.1836L16.4922 36.6436H18.5391L27.7444 20.7388L30.5056 25.5968H32.5765L27.7444 17.1836Z" fill="white"/>
<path d="M23.6016 32.5516H25.6485L27.7453 28.9725L29.8162 32.5516H31.8612L27.7453 25.4172L23.6016 32.5516Z" fill="white"/>
<path d="M65.7012 30.3482V19.1819H68.4455V30.3482H65.7012Z" fill="white"/>
<path d="M70.1359 30.348V21.9644H72.505L72.5816 23.0928C72.8062 22.6792 73.1458 22.3396 73.5593 22.115C73.9829 21.8718 74.4622 21.7425 74.9507 21.7397C75.4568 21.733 75.9536 21.877 76.3777 22.1533C76.8111 22.4334 77.1633 22.8225 77.3989 23.2817C77.6772 22.804 78.0787 22.4098 78.5615 22.1403C79.0442 21.8709 79.5905 21.7361 80.1432 21.7499C80.7034 21.7323 81.255 21.8902 81.7209 22.2018C82.1944 22.4849 82.5553 22.9233 82.742 23.4425C82.9923 24.0631 83.1198 24.7263 83.1173 25.3954V30.3965H80.5542V25.6865C80.5927 25.2576 80.4718 24.8295 80.2147 24.4841C80.1004 24.3483 79.9565 24.2404 79.7941 24.1687C79.6318 24.097 79.4551 24.0634 79.2778 24.0705C79.0365 24.046 78.7949 24.1135 78.6013 24.2594C78.4073 24.4282 78.2311 24.6164 78.0754 24.821C77.9349 25.0731 77.8693 25.3601 77.8865 25.6482V30.3863H75.2876V25.6865C75.3257 25.258 75.2058 24.8304 74.9507 24.4841C74.8357 24.3477 74.691 24.2395 74.5277 24.1678C74.3644 24.0961 74.1868 24.0628 74.0086 24.0705C73.7674 24.046 73.5258 24.1135 73.3321 24.2594C73.1382 24.4282 72.962 24.6164 72.8062 24.821C72.6657 25.0731 72.6002 25.3601 72.6173 25.6482V30.3863H70.0645V30.348H70.1359Z" fill="white"/>
<path d="M84.7266 33.358V21.9645H87.0931L87.1697 23.1669C87.4392 22.717 87.8303 22.3524 88.298 22.1151C88.768 21.8609 89.2955 21.7317 89.8298 21.7399C90.3402 21.7121 90.8481 21.8289 91.2951 22.0768C91.7356 22.3366 92.1399 22.6533 92.4975 23.0189C92.847 23.427 93.1148 23.8984 93.2863 24.4076C93.4664 24.9665 93.5527 25.5514 93.5416 26.1385C93.5554 26.7374 93.4691 27.3345 93.2863 27.9051C93.1184 28.4363 92.836 28.9243 92.4592 29.3347C92.1093 29.7341 91.6887 30.0655 91.2185 30.3124C90.7247 30.5421 90.1854 30.6573 89.6408 30.6494C89.1764 30.6673 88.7139 30.58 88.2878 30.3941C87.877 30.2189 87.5234 29.9324 87.2667 29.567V33.478L84.7266 33.358ZM89.1609 28.3186C89.5051 28.3339 89.8459 28.245 90.1387 28.0633C90.4295 27.8842 90.6544 27.6154 90.7794 27.2975C90.9301 26.9674 91.0067 26.6085 91.0041 26.2457C91.0091 25.858 90.9325 25.4735 90.7794 25.1173C90.6281 24.82 90.4085 24.5628 90.1387 24.3668C89.848 24.1803 89.5056 24.0909 89.1609 24.1115C88.8176 24.0965 88.4777 24.1855 88.1857 24.3668C87.8971 24.5417 87.6725 24.8049 87.5449 25.1173C87.3707 25.4667 87.2932 25.8563 87.3203 26.2457C87.3096 26.6092 87.3867 26.97 87.5449 27.2975C87.6938 27.6006 87.9136 27.8633 88.1857 28.0633C88.4833 28.2311 88.8193 28.319 89.1609 28.3186Z" fill="white"/>
<path d="M99.0873 30.6495C98.4918 30.6756 97.8986 30.5601 97.3565 30.3125C96.8353 30.093 96.3625 29.7729 95.9651 29.3705C95.579 28.9613 95.2841 28.4749 95.0997 27.9434C94.8723 27.3691 94.7579 26.7562 94.7627 26.1385C94.7393 25.5317 94.8546 24.9275 95.0997 24.3719C95.3174 23.8677 95.6091 23.3988 95.9651 22.9806C96.3623 22.5963 96.8193 22.279 97.3182 22.0412C97.8397 21.8133 98.4033 21.6976 98.9724 21.7016C99.5682 21.6754 100.162 21.7918 100.703 22.0412C101.218 22.2517 101.679 22.5723 102.056 22.9806C102.432 23.3911 102.714 23.8779 102.883 24.4077C103.067 25.0043 103.153 25.6267 103.139 26.2508V26.815H97.3565C97.4235 27.27 97.6347 27.6914 97.9589 28.0174C98.1094 28.1589 98.2869 28.2684 98.4809 28.3395C98.6748 28.4106 98.8811 28.4417 99.0873 28.431C99.387 28.4549 99.6871 28.3901 99.9502 28.2446C100.203 28.0765 100.431 27.8737 100.627 27.6422L102.996 28.2446C102.777 28.7028 102.485 29.1219 102.13 29.4853C101.73 29.854 101.257 30.1357 100.742 30.3125C100.214 30.522 99.6543 30.6361 99.0873 30.6495ZM98.9724 23.6954C98.7785 23.6914 98.5857 23.7259 98.4051 23.7969C98.2246 23.8679 98.0599 23.974 97.9206 24.109C97.6221 24.4331 97.4259 24.838 97.3565 25.2731H100.514C100.465 24.8397 100.281 24.4328 99.9885 24.109C99.8635 23.9637 99.7057 23.8503 99.528 23.7784C99.3504 23.7064 99.1582 23.678 98.9673 23.6954H98.9724Z" fill="white"/>
<path d="M104.387 30.3482V21.9646H106.756L106.83 23.3176C106.986 22.8877 107.276 22.5192 107.657 22.2658C108.028 22.0287 108.457 21.8988 108.898 21.8905C109.037 21.8832 109.176 21.8952 109.311 21.9263C109.441 21.931 109.568 21.9569 109.689 22.0029L109.462 24.5557C109.343 24.5067 109.215 24.4816 109.087 24.4817C108.936 24.4817 108.862 24.4434 108.711 24.4434C108.462 24.4315 108.212 24.4722 107.979 24.5628C107.746 24.6534 107.534 24.7919 107.358 24.9693C107.191 25.1653 107.065 25.3928 106.988 25.6384C106.91 25.8839 106.882 26.1425 106.906 26.3989V30.3839L104.387 30.3457V30.3482Z" fill="white"/>
<path d="M114.802 30.6493C114.195 30.6725 113.59 30.5572 113.033 30.3123C112.497 30.1016 112.011 29.7807 111.606 29.3703C111.216 28.9644 110.898 28.4947 110.667 27.9816C110.437 27.4203 110.322 26.8188 110.327 26.2124C110.304 25.6053 110.42 25.001 110.667 24.4458C110.889 23.9164 111.208 23.4326 111.606 23.0188C112 22.5955 112.489 22.2726 113.033 22.0768C113.608 21.8493 114.22 21.7349 114.838 21.7398C115.445 21.7164 116.049 21.8316 116.605 22.0768C117.127 22.3143 117.61 22.6322 118.034 23.0188C118.423 23.4259 118.74 23.8953 118.974 24.4075C119.201 24.9696 119.316 25.5705 119.313 26.1767C119.335 26.7837 119.219 27.3877 118.974 27.9433C118.759 28.4665 118.439 28.9401 118.034 29.3346C117.619 29.7326 117.135 30.0511 116.605 30.274C116.034 30.5139 115.422 30.6413 114.802 30.6493ZM114.838 28.3185C115.17 28.3282 115.497 28.2394 115.778 28.0633C116.068 27.8841 116.293 27.6153 116.418 27.2974C116.569 26.9674 116.646 26.6084 116.643 26.2456C116.648 25.8579 116.571 25.4735 116.418 25.1172C116.267 24.8199 116.047 24.5627 115.778 24.3667C115.499 24.1855 115.17 24.0962 114.838 24.1114C114.507 24.1017 114.18 24.1906 113.899 24.3667C113.61 24.5411 113.386 24.8045 113.26 25.1172C113.085 25.4664 113.007 25.856 113.033 26.2456C113.025 26.6092 113.102 26.9697 113.26 27.2974C113.407 27.601 113.627 27.8639 113.899 28.0633C114.181 28.237 114.507 28.3257 114.838 28.3185Z" fill="white"/>
<path d="M124.014 30.3482V19.1819H126.761V30.3482H124.014Z" fill="white"/>
<path d="M131.356 30.3482V21.5892H128.293V19.1819H137.164V21.5892H134.126V30.3482H131.356Z" fill="white"/>
<path d="M145.558 30.6494C144.892 30.6409 144.232 30.5138 143.61 30.2741C143.043 30.0476 142.539 29.6867 142.142 29.2224C141.729 28.751 141.443 28.1814 141.312 27.5681L143.865 27.0397C143.982 27.4088 144.204 27.736 144.504 27.9817C144.804 28.2138 145.176 28.3331 145.555 28.3186C145.74 28.3393 145.927 28.3199 146.103 28.2617C146.279 28.2035 146.441 28.108 146.577 27.9817C146.706 27.8948 146.812 27.7768 146.884 27.6386C146.956 27.5003 146.993 27.3462 146.99 27.1903C146.983 27.046 146.946 26.9049 146.881 26.7758C146.816 26.6466 146.726 26.5322 146.615 26.4397C146.214 26.1815 145.766 26.003 145.298 25.9138L144.884 25.8373C143.935 25.6993 143.054 25.265 142.367 24.5966C142.099 24.3274 141.889 24.0056 141.752 23.6515C141.614 23.2973 141.552 22.9185 141.568 22.5389C141.542 22.0398 141.66 21.5437 141.907 21.1093C142.129 20.6975 142.408 20.3186 142.734 19.9835C143.131 19.6652 143.574 19.411 144.049 19.2304C144.556 19.0517 145.092 18.9652 145.629 18.9751C146.251 18.9726 146.866 19.1005 147.434 19.3504C147.985 19.5725 148.47 19.9304 148.844 20.3906C149.219 20.8509 149.471 21.3985 149.576 21.9824L147.059 22.5083C146.944 22.1694 146.735 21.8701 146.457 21.6454C146.182 21.4546 145.85 21.3644 145.517 21.3901C145.184 21.3697 144.854 21.4594 144.578 21.6454C144.46 21.7316 144.364 21.8446 144.298 21.9751C144.233 22.1056 144.199 22.2499 144.2 22.396C144.196 22.5007 144.214 22.6051 144.253 22.7023C144.292 22.7995 144.352 22.8874 144.427 22.9602C144.594 23.1241 144.801 23.2412 145.027 23.2997C145.296 23.396 145.573 23.4711 145.854 23.5243L146.268 23.5984C147.215 23.7725 148.098 24.2014 148.82 24.8391C149.1 25.1191 149.318 25.4545 149.461 25.8238C149.603 26.1931 149.667 26.5881 149.648 26.9835C149.679 27.4945 149.561 28.0036 149.308 28.4488C149.063 28.8676 148.774 29.2587 148.445 29.6155C148.057 29.9658 147.593 30.2226 147.09 30.366C146.606 30.5715 146.083 30.6682 145.558 30.6494Z" fill="white"/>
<path d="M155.257 30.6494C154.662 30.6753 154.07 30.5598 153.528 30.3125C153.007 30.093 152.534 29.7729 152.137 29.3705C151.75 28.9619 151.455 28.4754 151.272 27.9434C151.044 27.3691 150.93 26.7562 150.935 26.1385C150.911 25.5317 151.026 24.9275 151.272 24.3719C151.488 23.8672 151.78 23.3982 152.137 22.9806C152.533 22.5951 152.99 22.2777 153.49 22.0412C154.011 21.813 154.575 21.6973 155.144 21.7016C155.739 21.6754 156.332 21.7918 156.873 22.0412C157.388 22.251 157.851 22.5717 158.228 22.9806C158.603 23.3918 158.885 23.8784 159.055 24.4077C159.239 25.0043 159.325 25.6267 159.311 26.2508V26.815H153.528C153.594 27.2697 153.805 27.6912 154.128 28.0174C154.279 28.1589 154.456 28.2684 154.65 28.3395C154.844 28.4106 155.05 28.4417 155.257 28.431C155.557 28.4554 155.858 28.3906 156.122 28.2446C156.375 28.0765 156.602 27.8737 156.799 27.6422L159.168 28.2446C158.948 28.7023 158.656 29.1213 158.302 29.4853C157.9 29.8541 157.427 30.1357 156.911 30.3125C156.382 30.5172 155.823 30.6311 155.257 30.6494ZM155.183 23.6954C154.988 23.6915 154.795 23.726 154.614 23.797C154.433 23.868 154.268 23.974 154.128 24.109C153.832 24.4343 153.636 24.8387 153.564 25.2731H156.725C156.674 24.8395 156.489 24.4325 156.196 24.109C156.072 23.9644 155.916 23.8515 155.739 23.7796C155.563 23.7077 155.372 23.6788 155.183 23.6954Z" fill="white"/>
<path d="M160.594 30.3482V21.9645H162.963L163.039 23.3175C163.195 22.8872 163.485 22.5184 163.867 22.2658C164.237 22.0279 164.667 21.8979 165.107 21.8905C165.246 21.8832 165.385 21.8952 165.521 21.9262C165.649 21.9312 165.776 21.9571 165.896 22.0028L165.671 24.5557C165.551 24.5069 165.423 24.4818 165.294 24.4816C165.143 24.4816 165.069 24.4434 164.918 24.4434C164.669 24.4315 164.419 24.4721 164.186 24.5627C163.953 24.6533 163.741 24.7918 163.565 24.9692C163.398 25.1653 163.272 25.3928 163.195 25.6383C163.117 25.8839 163.089 26.1425 163.113 26.3989V30.3839L160.594 30.3456V30.3482Z" fill="white"/>
<path d="M169.693 30.3482L166.586 21.9646H169.394L171.01 27.4916L172.664 21.9646H175.409L172.289 30.3482H169.693Z" fill="white"/>
<path d="M179.094 19.7844C179.12 20.0253 179.053 20.267 178.908 20.4609C178.782 20.6804 178.6 20.862 178.379 20.9868C178.148 21.1099 177.89 21.1743 177.628 21.1743C177.365 21.1743 177.107 21.1099 176.876 20.9868C176.656 20.8619 176.475 20.6803 176.35 20.4609C176.224 20.2581 176.159 20.0232 176.164 19.7844C176.144 19.5439 176.21 19.3043 176.35 19.1079C176.475 18.8885 176.656 18.7068 176.876 18.582C177.104 18.4387 177.373 18.3725 177.642 18.3931C177.905 18.3793 178.167 18.4451 178.392 18.582C178.612 18.7068 178.795 18.8884 178.921 19.1079C179.011 19.3237 179.07 19.5516 179.094 19.7844ZM176.312 30.3482V21.9645H178.865V30.3482H176.312Z" fill="white"/>
<path d="M184.507 30.6494C183.913 30.6687 183.322 30.5535 182.778 30.3124C182.263 30.1007 181.801 29.7792 181.423 29.3704C181.03 28.982 180.734 28.5061 180.56 27.9816C180.328 27.421 180.212 26.8191 180.22 26.2125C180.194 25.6052 180.31 25.0001 180.56 24.4459C180.779 23.9147 181.098 23.4304 181.499 23.0188C181.888 22.597 182.362 22.2636 182.891 22.0411C183.438 21.8128 184.026 21.6974 184.619 21.7015C185.227 21.7091 185.827 21.8366 186.386 22.0768C186.911 22.3074 187.375 22.657 187.741 23.0979C188.109 23.5602 188.366 24.1008 188.492 24.6782L185.972 25.0917C185.861 24.788 185.665 24.5223 185.408 24.3259C185.162 24.163 184.875 24.0744 184.581 24.0706C184.273 24.0578 183.969 24.1476 183.718 24.3259C183.448 24.518 183.238 24.7839 183.115 25.0917C182.957 25.4455 182.881 25.8302 182.891 26.2176C182.876 26.5823 182.954 26.9448 183.115 27.2719C183.241 27.5739 183.45 27.8341 183.718 28.0224C183.973 28.1947 184.274 28.2868 184.582 28.2868C184.89 28.2868 185.191 28.1947 185.446 28.0224C185.724 27.8283 185.934 27.5527 186.049 27.2336L188.568 27.6472C188.484 28.0826 188.3 28.4925 188.03 28.8445C187.793 29.2009 187.502 29.5179 187.167 29.7839C186.798 30.0444 186.392 30.2475 185.962 30.3864C185.492 30.5429 185.002 30.6314 184.507 30.6494Z" fill="white"/>
<path d="M193.681 30.6495C193.086 30.6756 192.492 30.5601 191.95 30.3125C191.429 30.093 190.956 29.7729 190.559 29.3705C190.173 28.9613 189.878 28.4749 189.693 27.9434C189.466 27.3691 189.352 26.7562 189.356 26.1385C189.333 25.5317 189.448 24.9275 189.693 24.3719C189.911 23.8677 190.203 23.3988 190.559 22.9806C190.949 22.5878 191.408 22.2694 191.912 22.0412C192.433 21.8133 192.997 21.6976 193.566 21.7016C194.162 21.6754 194.755 21.7918 195.297 22.0412C195.811 22.2517 196.273 22.5723 196.65 22.9806C197.025 23.3911 197.308 23.8779 197.477 24.4077C197.661 25.0043 197.747 25.6267 197.732 26.2508V26.815H191.95C192.017 27.27 192.228 27.6914 192.553 28.0174C192.703 28.1589 192.881 28.2684 193.075 28.3395C193.269 28.4106 193.475 28.4417 193.681 28.431C193.981 28.4549 194.281 28.3901 194.544 28.2446C194.797 28.0765 195.024 27.8737 195.22 27.6422L197.589 28.2446C197.371 28.7028 197.079 29.1219 196.724 29.4853C196.323 29.854 195.85 30.1357 195.335 30.3125C194.808 30.522 194.248 30.6361 193.681 30.6495ZM193.604 23.6954C193.411 23.6914 193.218 23.7259 193.037 23.7969C192.857 23.8679 192.692 23.974 192.553 24.109C192.254 24.4331 192.058 24.838 191.988 25.2731H195.146C195.096 24.8401 194.912 24.4334 194.621 24.109C194.496 23.9644 194.339 23.8515 194.162 23.7796C193.986 23.7077 193.794 23.6788 193.604 23.6954Z" fill="white"/>
<path d="M202.366 30.6493C201.803 30.6673 201.243 30.5807 200.712 30.394C200.238 30.2405 199.811 29.969 199.471 29.6052C199.117 29.2615 198.854 28.8351 198.705 28.3645L201.074 27.9509C201.181 28.2019 201.365 28.4122 201.6 28.5508C201.848 28.7053 202.135 28.7842 202.427 28.778C202.693 28.8116 202.962 28.7442 203.18 28.5891C203.26 28.5269 203.325 28.4471 203.369 28.3559C203.413 28.2647 203.436 28.1646 203.436 28.0632C203.444 27.9709 203.424 27.8783 203.378 27.7975C203.333 27.7168 203.264 27.6519 203.18 27.6114C202.856 27.4704 202.511 27.3841 202.159 27.3561L201.784 27.3178C201.008 27.2489 200.278 26.9175 199.716 26.3783C199.463 26.1692 199.263 25.9042 199.13 25.6043C198.997 25.3044 198.935 24.9777 198.95 24.65C198.945 24.2623 199.021 23.8778 199.175 23.5217C199.336 23.1877 199.568 22.8925 199.854 22.6562C200.179 22.4242 200.532 22.2346 200.906 22.0921C201.342 21.9512 201.8 21.8881 202.259 21.9057C202.797 21.8881 203.334 21.9747 203.839 22.161C204.287 22.3433 204.696 22.6112 205.041 22.9498C205.372 23.2815 205.606 23.6973 205.718 24.1522L203.349 24.5658C203.268 24.342 203.124 24.1462 202.935 24.0016C202.739 23.8615 202.499 23.7955 202.259 23.8153C202.018 23.791 201.777 23.8575 201.582 24.0016C201.507 24.0495 201.447 24.1168 201.407 24.1964C201.368 24.276 201.35 24.3649 201.358 24.4535C201.35 24.5407 201.37 24.6281 201.416 24.7027C201.462 24.7772 201.531 24.8349 201.613 24.867C201.929 24.9865 202.257 25.0721 202.591 25.1223L202.966 25.1606C203.761 25.2399 204.511 25.5687 205.108 26.1001C205.36 26.3097 205.561 26.5752 205.694 26.8755C205.827 27.1758 205.888 27.5028 205.874 27.8309C205.883 28.2338 205.795 28.6329 205.618 28.995C205.431 29.3583 205.171 29.6783 204.852 29.9345C204.516 30.2026 204.134 30.4068 203.724 30.537C203.346 30.537 202.892 30.6493 202.366 30.6493Z" fill="white"/>
</svg>
