<svg width="183" height="129" viewBox="0 0 183 129" fill="none" xmlns="http://www.w3.org/2000/svg">
<path d="M84.4004 56.3469H87.9514L91.5023 50.1872L95.0736 56.3469H98.611L91.5108 44.0547L84.4004 56.3469Z" fill="white"/>
<path d="M91.5004 0.414062L44.833 81.2422H138.168L91.5004 0.414062ZM91.5004 6.54658L132.855 78.1624H50.1594L91.5004 6.54658Z" fill="white"/>
<path d="M100.228 36.068H103.766L91.5005 14.832L59.1016 70.9533H62.6389L91.5005 20.9646L100.228 36.068Z" fill="white"/>
<path d="M91.4999 29.9355L72.1738 63.4093H75.7112L91.4999 36.0681L96.2872 44.3655H99.8382L91.4999 29.9355Z" fill="white"/>
<path d="M1.97 120.242V105.332H4.532V120.242H1.97ZM7.29809 120.242V109.259H9.50309L9.58709 110.729C9.90909 110.183 10.3501 109.749 10.9101 109.427C11.4701 109.105 12.1071 108.944 12.8211 108.944C13.5911 108.944 14.2701 109.14 14.8581 109.532C15.4461 109.91 15.9011 110.435 16.2231 111.107C16.4331 110.673 16.7131 110.295 17.0631 109.973C17.4271 109.651 17.8471 109.399 18.3231 109.217C18.8131 109.035 19.3381 108.944 19.8981 108.944C20.7101 108.944 21.4171 109.14 22.0191 109.532C22.6211 109.91 23.0831 110.456 23.4051 111.17C23.7411 111.87 23.9091 112.71 23.9091 113.69V120.242H21.4941V113.963C21.4941 113.053 21.2981 112.353 20.9061 111.863C20.5141 111.373 19.9751 111.128 19.2891 111.128C18.8131 111.128 18.3861 111.247 18.0081 111.485C17.6441 111.709 17.3501 112.031 17.1261 112.451C16.9161 112.857 16.8111 113.319 16.8111 113.837V120.242H14.3961V113.963C14.3961 113.053 14.2001 112.353 13.8081 111.863C13.4161 111.373 12.8771 111.128 12.1911 111.128C11.7151 111.128 11.2881 111.247 10.9101 111.485C10.5461 111.709 10.2521 112.031 10.0281 112.451C9.81809 112.857 9.71309 113.319 9.71309 113.837V120.242H7.29809ZM26.5139 124.4V109.259H28.7189L28.8239 111.023C29.2159 110.379 29.7339 109.875 30.3779 109.511C31.0219 109.133 31.7429 108.944 32.5409 108.944C33.2689 108.944 33.9409 109.091 34.5569 109.385C35.1869 109.679 35.7329 110.085 36.1949 110.603C36.6569 111.121 37.0139 111.73 37.2659 112.43C37.5319 113.13 37.6649 113.886 37.6649 114.698C37.6649 115.524 37.5319 116.294 37.2659 117.008C36.9999 117.722 36.6289 118.345 36.1529 118.877C35.6769 119.409 35.1169 119.822 34.4729 120.116C33.8429 120.41 33.1569 120.557 32.4149 120.557C31.6869 120.557 31.0219 120.403 30.4199 120.095C29.8179 119.787 29.3209 119.353 28.9289 118.793V124.4H26.5139ZM32.0369 118.373C32.6389 118.373 33.1779 118.219 33.6539 117.911C34.1299 117.589 34.5009 117.155 34.7669 116.609C35.0469 116.063 35.1869 115.44 35.1869 114.74C35.1869 114.04 35.0469 113.424 34.7669 112.892C34.5009 112.346 34.1299 111.919 33.6539 111.611C33.1779 111.289 32.6389 111.128 32.0369 111.128C31.4349 111.128 30.8959 111.289 30.4199 111.611C29.9439 111.919 29.5659 112.346 29.2859 112.892C29.0199 113.424 28.8869 114.04 28.8869 114.74C28.8869 115.44 29.0199 116.063 29.2859 116.609C29.5659 117.155 29.9439 117.589 30.4199 117.911C30.8959 118.219 31.4349 118.373 32.0369 118.373ZM44.988 120.557C44.176 120.557 43.427 120.417 42.741 120.137C42.069 119.843 41.481 119.437 40.977 118.919C40.473 118.401 40.081 117.792 39.801 117.092C39.535 116.378 39.402 115.594 39.402 114.74C39.402 113.914 39.535 113.151 39.801 112.451C40.081 111.751 40.459 111.142 40.935 110.624C41.425 110.092 41.999 109.679 42.657 109.385C43.315 109.091 44.029 108.944 44.799 108.944C45.569 108.944 46.269 109.084 46.899 109.364C47.543 109.63 48.096 110.015 48.558 110.519C49.034 111.023 49.398 111.625 49.65 112.325C49.902 113.011 50.028 113.774 50.028 114.614V115.328H41.901C41.971 115.972 42.139 116.532 42.405 117.008C42.685 117.47 43.042 117.827 43.476 118.079C43.91 118.331 44.414 118.457 44.988 118.457C46.136 118.457 47.032 117.946 47.676 116.924L49.797 117.743C49.545 118.317 49.174 118.821 48.684 119.255C48.208 119.675 47.648 119.997 47.004 120.221C46.374 120.445 45.702 120.557 44.988 120.557ZM44.799 110.897C44.309 110.897 43.868 111.009 43.476 111.233C43.098 111.457 42.776 111.772 42.51 112.178C42.244 112.584 42.062 113.06 41.964 113.606H47.508C47.424 113.06 47.263 112.584 47.025 112.178C46.787 111.772 46.472 111.457 46.08 111.233C45.702 111.009 45.275 110.897 44.799 110.897ZM52.0872 120.242V109.259H54.2922L54.3972 111.065C54.6772 110.449 55.0622 109.973 55.5522 109.637C56.0562 109.287 56.6442 109.112 57.3162 109.112C57.5262 109.112 57.7292 109.126 57.9252 109.154C58.1212 109.182 58.2962 109.231 58.4502 109.301L58.1772 111.653C58.0232 111.597 57.8622 111.562 57.6942 111.548C57.5262 111.52 57.3582 111.506 57.1902 111.506C56.3502 111.506 55.6922 111.786 55.2162 112.346C54.7402 112.906 54.5022 113.683 54.5022 114.677V120.242H52.0872ZM65.0036 120.557C64.2056 120.557 63.4636 120.417 62.7776 120.137C62.1056 119.843 61.5176 119.437 61.0136 118.919C60.5096 118.387 60.1176 117.771 59.8376 117.071C59.5576 116.357 59.4176 115.58 59.4176 114.74C59.4176 113.914 59.5576 113.151 59.8376 112.451C60.1176 111.737 60.5096 111.121 61.0136 110.603C61.5316 110.071 62.1336 109.665 62.8196 109.385C63.5196 109.091 64.2756 108.944 65.0876 108.944C65.8856 108.944 66.6206 109.091 67.2926 109.385C67.9786 109.665 68.5736 110.071 69.0776 110.603C69.5816 111.121 69.9736 111.73 70.2536 112.43C70.5336 113.13 70.6736 113.9 70.6736 114.74C70.6736 115.58 70.5336 116.357 70.2536 117.071C69.9736 117.771 69.5746 118.387 69.0566 118.919C68.5526 119.437 67.9506 119.843 67.2506 120.137C66.5646 120.417 65.8156 120.557 65.0036 120.557ZM65.0456 118.373C65.6476 118.373 66.1866 118.219 66.6626 117.911C67.1386 117.589 67.5096 117.155 67.7756 116.609C68.0556 116.063 68.1956 115.44 68.1956 114.74C68.1956 114.04 68.0556 113.424 67.7756 112.892C67.5096 112.346 67.1386 111.919 66.6626 111.611C66.1866 111.289 65.6476 111.128 65.0456 111.128C64.4436 111.128 63.9046 111.289 63.4286 111.611C62.9526 111.919 62.5746 112.346 62.2946 112.892C62.0286 113.424 61.8956 114.04 61.8956 114.74C61.8956 115.44 62.0286 116.063 62.2946 116.609C62.5746 117.155 62.9526 117.589 63.4286 117.911C63.9046 118.219 64.4436 118.373 65.0456 118.373ZM77.4388 120.242V105.332H80.0008V120.242H77.4388ZM86.7358 120.242V107.621H82.3888V105.332H93.6448V107.621H89.2978V120.242H86.7358ZM104.899 120.557C104.059 120.557 103.275 120.41 102.547 120.116C101.833 119.808 101.224 119.381 100.72 118.835C100.216 118.289 99.859 117.638 99.649 116.882L102.064 116.294C102.288 116.938 102.645 117.435 103.135 117.785C103.625 118.135 104.22 118.31 104.92 118.31C105.424 118.31 105.872 118.212 106.264 118.016C106.656 117.82 106.964 117.554 107.188 117.218C107.426 116.882 107.545 116.497 107.545 116.063C107.545 115.531 107.349 115.09 106.957 114.74C106.579 114.376 105.977 114.103 105.151 113.921L104.374 113.753C102.89 113.431 101.791 112.899 101.077 112.157C100.377 111.415 100.027 110.512 100.027 109.448C100.027 108.804 100.153 108.216 100.405 107.684C100.657 107.138 101.007 106.669 101.455 106.277C101.903 105.871 102.428 105.563 103.03 105.353C103.632 105.129 104.283 105.017 104.983 105.017C105.781 105.017 106.516 105.164 107.188 105.458C107.86 105.752 108.434 106.172 108.91 106.718C109.386 107.25 109.722 107.887 109.918 108.629L107.524 109.217C107.3 108.587 106.964 108.104 106.516 107.768C106.068 107.432 105.536 107.264 104.92 107.264C104.472 107.264 104.073 107.355 103.723 107.537C103.387 107.705 103.114 107.943 102.904 108.251C102.708 108.545 102.61 108.881 102.61 109.259C102.61 109.805 102.813 110.239 103.219 110.561C103.625 110.883 104.248 111.142 105.088 111.338L105.865 111.506C108.721 112.15 110.149 113.599 110.149 115.853C110.149 116.539 110.016 117.176 109.75 117.764C109.498 118.338 109.134 118.835 108.658 119.255C108.182 119.661 107.622 119.983 106.978 120.221C106.348 120.445 105.655 120.557 104.899 120.557ZM117.606 120.557C116.794 120.557 116.045 120.417 115.359 120.137C114.687 119.843 114.099 119.437 113.595 118.919C113.091 118.401 112.699 117.792 112.419 117.092C112.153 116.378 112.02 115.594 112.02 114.74C112.02 113.914 112.153 113.151 112.419 112.451C112.699 111.751 113.077 111.142 113.553 110.624C114.043 110.092 114.617 109.679 115.275 109.385C115.933 109.091 116.647 108.944 117.417 108.944C118.187 108.944 118.887 109.084 119.517 109.364C120.161 109.63 120.714 110.015 121.176 110.519C121.652 111.023 122.016 111.625 122.268 112.325C122.52 113.011 122.646 113.774 122.646 114.614V115.328H114.519C114.589 115.972 114.757 116.532 115.023 117.008C115.303 117.47 115.66 117.827 116.094 118.079C116.528 118.331 117.032 118.457 117.606 118.457C118.754 118.457 119.65 117.946 120.294 116.924L122.415 117.743C122.163 118.317 121.792 118.821 121.302 119.255C120.826 119.675 120.266 119.997 119.622 120.221C118.992 120.445 118.32 120.557 117.606 120.557ZM117.417 110.897C116.927 110.897 116.486 111.009 116.094 111.233C115.716 111.457 115.394 111.772 115.128 112.178C114.862 112.584 114.68 113.06 114.582 113.606H120.126C120.042 113.06 119.881 112.584 119.643 112.178C119.405 111.772 119.09 111.457 118.698 111.233C118.32 111.009 117.893 110.897 117.417 110.897ZM124.705 120.242V109.259H126.91L127.015 111.065C127.295 110.449 127.68 109.973 128.17 109.637C128.674 109.287 129.262 109.112 129.934 109.112C130.144 109.112 130.347 109.126 130.543 109.154C130.739 109.182 130.914 109.231 131.068 109.301L130.795 111.653C130.641 111.597 130.48 111.562 130.312 111.548C130.144 111.52 129.976 111.506 129.808 111.506C128.968 111.506 128.31 111.786 127.834 112.346C127.358 112.906 127.12 113.683 127.12 114.677V120.242H124.705ZM136.326 120.242L132.126 109.259H134.772L137.586 117.722L140.421 109.259H142.983L138.783 120.242H136.326ZM147.244 106.193C147.244 106.459 147.174 106.704 147.034 106.928C146.908 107.152 146.733 107.334 146.509 107.474C146.285 107.6 146.04 107.663 145.774 107.663C145.508 107.663 145.263 107.6 145.039 107.474C144.815 107.334 144.633 107.152 144.493 106.928C144.367 106.704 144.304 106.459 144.304 106.193C144.304 105.927 144.367 105.682 144.493 105.458C144.633 105.234 144.815 105.059 145.039 104.933C145.263 104.793 145.508 104.723 145.774 104.723C146.04 104.723 146.285 104.793 146.509 104.933C146.733 105.059 146.908 105.234 147.034 105.458C147.174 105.682 147.244 105.927 147.244 106.193ZM144.577 120.242V109.259H146.992V120.242H144.577ZM154.558 120.557C153.774 120.557 153.053 120.417 152.395 120.137C151.737 119.843 151.163 119.444 150.673 118.94C150.183 118.422 149.798 117.813 149.518 117.113C149.252 116.413 149.119 115.65 149.119 114.824C149.119 113.998 149.259 113.228 149.539 112.514C149.819 111.8 150.204 111.177 150.694 110.645C151.184 110.113 151.758 109.7 152.416 109.406C153.088 109.098 153.816 108.944 154.6 108.944C155.356 108.944 156.049 109.084 156.679 109.364C157.309 109.63 157.848 110.015 158.296 110.519C158.758 111.009 159.087 111.59 159.283 112.262L156.994 112.808C156.756 112.276 156.42 111.863 155.986 111.569C155.566 111.275 155.09 111.128 154.558 111.128C153.998 111.128 153.494 111.289 153.046 111.611C152.598 111.933 152.241 112.374 151.975 112.934C151.723 113.48 151.597 114.103 151.597 114.803C151.597 115.489 151.723 116.105 151.975 116.651C152.227 117.183 152.57 117.603 153.004 117.911C153.452 118.219 153.97 118.373 154.558 118.373C155.118 118.373 155.629 118.233 156.091 117.953C156.553 117.659 156.896 117.246 157.12 116.714L159.388 117.239C159.192 117.911 158.856 118.499 158.38 119.003C157.904 119.493 157.337 119.878 156.679 120.158C156.021 120.424 155.314 120.557 154.558 120.557ZM166.394 120.557C165.582 120.557 164.833 120.417 164.147 120.137C163.475 119.843 162.887 119.437 162.383 118.919C161.879 118.401 161.487 117.792 161.207 117.092C160.941 116.378 160.808 115.594 160.808 114.74C160.808 113.914 160.941 113.151 161.207 112.451C161.487 111.751 161.865 111.142 162.341 110.624C162.831 110.092 163.405 109.679 164.063 109.385C164.721 109.091 165.435 108.944 166.205 108.944C166.975 108.944 167.675 109.084 168.305 109.364C168.949 109.63 169.502 110.015 169.964 110.519C170.44 111.023 170.804 111.625 171.056 112.325C171.308 113.011 171.434 113.774 171.434 114.614V115.328H163.307C163.377 115.972 163.545 116.532 163.811 117.008C164.091 117.47 164.448 117.827 164.882 118.079C165.316 118.331 165.82 118.457 166.394 118.457C167.542 118.457 168.438 117.946 169.082 116.924L171.203 117.743C170.951 118.317 170.58 118.821 170.09 119.255C169.614 119.675 169.054 119.997 168.41 120.221C167.78 120.445 167.108 120.557 166.394 120.557ZM166.205 110.897C165.715 110.897 165.274 111.009 164.882 111.233C164.504 111.457 164.182 111.772 163.916 112.178C163.65 112.584 163.468 113.06 163.37 113.606H168.914C168.83 113.06 168.669 112.584 168.431 112.178C168.193 111.772 167.878 111.457 167.486 111.233C167.108 111.009 166.681 110.897 166.205 110.897ZM177.334 120.557C176.62 120.557 175.955 120.438 175.339 120.2C174.737 119.962 174.219 119.626 173.785 119.192C173.365 118.744 173.064 118.219 172.882 117.617L175.066 117.05C175.248 117.526 175.542 117.897 175.948 118.163C176.354 118.429 176.823 118.562 177.355 118.562C177.901 118.562 178.349 118.436 178.699 118.184C179.049 117.918 179.224 117.582 179.224 117.176C179.224 116.826 179.084 116.532 178.804 116.294C178.524 116.056 178.069 115.881 177.439 115.769L176.746 115.643C175.57 115.433 174.681 115.055 174.079 114.509C173.491 113.963 173.197 113.263 173.197 112.409C173.197 111.723 173.372 111.121 173.722 110.603C174.072 110.085 174.555 109.679 175.171 109.385C175.787 109.091 176.494 108.944 177.292 108.944C177.978 108.944 178.608 109.063 179.182 109.301C179.756 109.539 180.239 109.875 180.631 110.309C181.023 110.743 181.303 111.254 181.471 111.842L179.308 112.367C179.14 111.919 178.874 111.569 178.51 111.317C178.16 111.051 177.747 110.918 177.271 110.918C176.781 110.918 176.375 111.044 176.053 111.296C175.731 111.534 175.57 111.842 175.57 112.22C175.57 112.542 175.71 112.808 175.99 113.018C176.284 113.228 176.774 113.396 177.46 113.522L178.153 113.648C179.273 113.844 180.134 114.229 180.736 114.803C181.338 115.377 181.639 116.091 181.639 116.945C181.639 117.463 181.534 117.946 181.324 118.394C181.114 118.828 180.813 119.213 180.421 119.549C180.043 119.871 179.588 120.116 179.056 120.284C178.538 120.466 177.964 120.557 177.334 120.557Z" fill="white"/>
</svg>
