<svg width="232" height="54" viewBox="0 0 232 54" fill="none" xmlns="http://www.w3.org/2000/svg">
<g clip-path="url(#clip0_753_8309)">
<path d="M26.1162 36.9197H28.46L30.8038 32.854L33.1611 36.9197H35.496L30.8095 28.8062L26.1162 36.9197Z" fill="#191A4E"/>
<path d="M30.8031 0L0 53.3511H61.6061L30.8031 0ZM30.8031 4.04781L58.0994 51.3182H3.51573L30.8031 4.04781Z" fill="#191A4E"/>
<path d="M36.5639 23.5325H38.8987L30.8031 9.51562L9.41797 46.5588H11.7528L30.8031 13.5634L36.5639 23.5325Z" fill="#191A4E"/>
<path d="M30.8032 19.4846L18.0469 41.5792H20.3817L30.8032 23.5324L33.9631 29.0092H36.3069L30.8032 19.4846Z" fill="#191A4E"/>
<path d="M70.7578 30.9806V17.9133H73.5013V30.9806H70.7578Z" fill="#191A4E"/>
<path d="M75.7207 30.9815V21.2616H78.0993L78.17 22.4964C78.446 22.0364 78.8376 21.6567 79.306 21.3952C79.8003 21.1224 80.3567 20.9817 80.9213 20.9866C81.5353 20.9763 82.1392 21.1427 82.6612 21.4659C83.1713 21.7896 83.5828 22.247 83.8511 22.7883C84.1477 22.2427 84.5904 21.7907 85.1296 21.4828C85.7148 21.1456 86.3806 20.9737 87.0559 20.9855C87.7095 20.9581 88.356 21.1303 88.9094 21.4792C89.4628 21.8281 89.8969 22.3371 90.154 22.9387C90.4553 23.6358 90.6035 24.3896 90.5885 25.1489V30.986H88.0145V25.4857C88.0445 24.9208 87.8867 24.3619 87.5655 23.8962C87.4232 23.7057 87.236 23.5533 87.0206 23.4527C86.8052 23.352 86.5681 23.3061 86.3307 23.3192C85.9838 23.3144 85.6425 23.4065 85.3452 23.5852C85.0556 23.7661 84.8224 24.0243 84.6717 24.3306C84.5084 24.668 84.4265 25.039 84.4326 25.4138V30.9815H81.8587V25.4812C81.8887 24.9163 81.7308 24.3574 81.4096 23.8917C81.2673 23.7012 81.0801 23.5488 80.8647 23.4482C80.6492 23.3475 80.4123 23.3017 80.1749 23.3147C79.828 23.3099 79.4866 23.4021 79.1893 23.5807C78.8997 23.7616 78.6664 24.0197 78.5158 24.3261C78.352 24.6634 78.2698 25.0344 78.2756 25.4093V30.9815H75.7207Z" fill="#191A4E"/>
<path d="M92.6484 34.5489V21.2594H95.018L95.0887 22.6794C95.4147 22.1579 95.8703 21.7298 96.411 21.4368C96.9696 21.1351 97.5959 20.9805 98.2308 20.9878C98.8416 20.9833 99.4456 21.1168 99.9976 21.3784C100.539 21.6359 101.023 22.0014 101.418 22.4527C101.83 22.9251 102.152 23.4697 102.367 24.059C102.6 24.7017 102.714 25.3814 102.704 26.065C102.711 26.7608 102.594 27.4523 102.358 28.1068C102.138 28.7102 101.806 29.2671 101.382 29.7491C100.974 30.2166 100.472 30.592 99.9077 30.8503C99.3384 31.1172 98.7168 31.2537 98.0881 31.2499C97.5208 31.2587 96.9589 31.1374 96.4458 30.8952C95.9623 30.6605 95.5397 30.317 95.2111 29.8916V34.5434H92.6484V34.5489ZM97.6369 28.9296C98.0807 28.9334 98.5158 28.807 98.8885 28.5659C99.265 28.3175 99.5659 27.9703 99.7585 27.5624C99.9691 27.1091 100.078 26.6153 100.078 26.1155C100.078 25.6156 99.9691 25.1218 99.7585 24.6685C99.5606 24.2642 99.2607 23.9183 98.8885 23.665C98.5187 23.4177 98.0816 23.2907 97.6369 23.3013C97.1929 23.2961 96.7573 23.4227 96.3853 23.665C96.0131 23.9183 95.7133 24.2642 95.5153 24.6685C95.3048 25.1219 95.1958 25.6157 95.1958 26.1155C95.1958 26.6153 95.3048 27.1091 95.5153 27.5624C95.7133 27.9668 96.0131 28.3126 96.3853 28.5659C96.7556 28.812 97.1924 28.9389 97.6369 28.9296Z" fill="#191A4E"/>
<path d="M109.098 31.2555C108.414 31.263 107.736 31.1364 107.101 30.8828C106.507 30.644 105.971 30.2808 105.529 29.8176C105.079 29.3447 104.729 28.7862 104.5 28.1753C104.014 26.8543 104.014 25.4037 104.5 24.0826C104.73 23.4794 105.077 22.9274 105.52 22.4583C105.954 21.9999 106.476 21.6345 107.056 21.3841C107.661 21.1212 108.314 20.9882 108.973 20.9935C109.639 20.9864 110.299 21.1099 110.917 21.3571C111.487 21.594 111.998 21.9513 112.417 22.4045C112.842 22.8742 113.171 23.4231 113.385 24.0198C113.62 24.6924 113.734 25.4017 113.721 26.1144V26.7621H106.744C106.811 27.4011 107.087 28 107.53 28.4661C107.738 28.6694 107.986 28.8285 108.257 28.9338C108.529 29.0391 108.819 29.0885 109.11 29.079C109.538 29.0851 109.959 28.9753 110.329 28.7612C110.7 28.5472 111.005 28.2369 111.214 27.8633L113.512 28.5996C113.295 29.1435 112.955 29.6296 112.518 30.0196C112.063 30.4156 111.539 30.7256 110.973 30.9345C110.371 31.1547 109.733 31.2631 109.091 31.2544L109.098 31.2555ZM108.973 22.9736C108.443 22.9616 107.929 23.1593 107.544 23.5236C107.134 23.9316 106.867 24.4605 106.781 25.0323H111.069C111.005 24.4648 110.755 23.9345 110.358 23.5236C110.176 23.3437 109.959 23.2023 109.722 23.1078C109.484 23.0133 109.229 22.9676 108.973 22.9736Z" fill="#191A4E"/>
<path d="M115.321 30.9806V21.2607H117.69L117.779 22.7345C117.996 22.2544 118.339 21.8429 118.774 21.5447C119.212 21.2612 119.725 21.1158 120.247 21.1271C120.42 21.1288 120.592 21.1438 120.763 21.172C120.919 21.1968 121.074 21.2343 121.224 21.2842L120.949 23.8234C120.815 23.7732 120.674 23.7403 120.532 23.7257C120.387 23.7077 120.242 23.6987 120.097 23.6988C119.793 23.6796 119.489 23.7287 119.206 23.8423C118.924 23.9559 118.67 24.1312 118.464 24.3555C118.055 24.8808 117.853 25.5377 117.896 26.202V30.9693H115.321V30.9806Z" fill="#191A4E"/>
<path d="M127.048 31.2554C126.36 31.2614 125.677 31.1286 125.042 30.8648C124.443 30.6176 123.899 30.2523 123.444 29.7906C122.988 29.325 122.628 28.7727 122.388 28.1663C122.132 27.5161 122.003 26.8231 122.007 26.1244C122.001 25.4276 122.133 24.7365 122.397 24.0915C122.644 23.4842 123.009 22.9321 123.471 22.4672C123.934 22.0044 124.483 21.6364 125.087 21.384C125.732 21.1202 126.423 20.9874 127.12 20.9934C127.808 20.9874 128.49 21.1202 129.126 21.384C129.725 21.6312 130.268 21.9966 130.723 22.4583C131.178 22.922 131.537 23.4709 131.779 24.0736C132.033 24.7209 132.159 25.4112 132.152 26.1064C132.158 26.8062 132.025 27.5002 131.761 28.1483C131.515 28.7611 131.15 29.3191 130.687 29.7906C130.227 30.2563 129.677 30.6247 129.072 30.8738C128.429 31.13 127.743 31.2596 127.051 31.2554H127.048ZM127.084 28.9296C127.527 28.9333 127.963 28.8069 128.335 28.5659C128.707 28.3124 129.007 27.9666 129.205 27.5623C129.416 27.109 129.525 26.6152 129.525 26.1154C129.525 25.6156 129.416 25.1218 129.205 24.6685C129.007 24.2642 128.707 23.9184 128.335 23.665C127.966 23.4177 127.528 23.2907 127.084 23.3013C126.64 23.2961 126.204 23.4226 125.832 23.665C125.46 23.9183 125.16 24.2642 124.962 24.6685C124.752 25.1218 124.642 25.6156 124.642 26.1154C124.642 26.6153 124.752 27.1091 124.962 27.5623C125.16 27.9667 125.46 28.3125 125.832 28.5659C126.202 28.8129 126.639 28.9399 127.084 28.9296Z" fill="#191A4E"/>
<path d="M137.86 30.9806V17.9133H140.603V30.9806H137.86Z" fill="#191A4E"/>
<path d="M146.239 30.9805V20.3368H142.555V17.9043H152.658V20.3368H148.974V30.9715H146.239V30.9805Z" fill="#191A4E"/>
<path d="M162.484 31.2556C161.741 31.262 161.005 31.12 160.318 30.838C159.677 30.5757 159.104 30.172 158.64 29.6571C158.175 29.137 157.848 28.5081 157.69 27.8285L160.246 27.2785C160.384 27.7544 160.678 28.1703 161.08 28.4594C161.443 28.6959 161.858 28.8392 162.288 28.8764C162.719 28.9136 163.153 28.8436 163.55 28.6727C163.831 28.5456 164.073 28.3466 164.252 28.0957C164.42 27.8472 164.506 27.5526 164.5 27.2527C164.506 27.0636 164.468 26.8757 164.388 26.7043C164.307 26.533 164.188 26.3832 164.038 26.2671C163.59 25.9596 163.082 25.7507 162.548 25.6542L161.962 25.5206C160.85 25.3442 159.813 24.8476 158.979 24.0917C158.666 23.7756 158.42 23.3997 158.255 22.9864C158.09 22.5731 158.011 22.1309 158.021 21.6861C158.014 21.1286 158.132 20.5767 158.366 20.0708C158.599 19.5836 158.928 19.1487 159.334 18.7922C159.757 18.42 160.248 18.1337 160.781 17.9492C161.353 17.7428 161.957 17.6406 162.564 17.6473C163.259 17.6398 163.948 17.7791 164.585 18.0559C165.196 18.3138 165.738 18.7122 166.166 19.2188C166.598 19.7319 166.894 20.3457 167.026 21.0036L164.505 21.5536C164.383 21.1014 164.114 20.7022 163.742 20.4176C163.377 20.1503 162.934 20.01 162.481 20.018C162.171 20.012 161.863 20.0788 161.583 20.2134C161.333 20.3358 161.116 20.5186 160.954 20.7454C160.802 20.9709 160.721 21.2369 160.722 21.5087C160.715 21.7017 160.756 21.8935 160.843 22.066C160.93 22.2384 161.06 22.3859 161.22 22.4943C161.671 22.7731 162.171 22.9636 162.694 23.0556L163.279 23.1802C164.382 23.36 165.413 23.8457 166.253 24.5822C166.574 24.9019 166.826 25.2847 166.993 25.7064C167.159 26.128 167.237 26.5796 167.221 27.0327C167.232 27.61 167.116 28.1828 166.881 28.7105C166.647 29.2381 166.299 29.7077 165.862 30.0859C165.424 30.4755 164.911 30.7715 164.354 30.9559C163.751 31.1609 163.117 31.263 162.48 31.2578L162.484 31.2556Z" fill="#191A4E"/>
<path d="M173.704 31.2555C173.021 31.2631 172.342 31.1364 171.707 30.8829C171.113 30.6441 170.577 30.2808 170.136 29.8176C169.686 29.3447 169.336 28.7862 169.106 28.1753C168.621 26.8543 168.621 25.4037 169.106 24.0826C169.336 23.4794 169.683 22.9274 170.127 22.4583C170.561 22 171.083 21.6345 171.662 21.3841C172.267 21.1212 172.92 20.9882 173.58 20.9935C174.245 20.9863 174.906 21.1099 175.524 21.3571C176.094 21.5938 176.606 21.9511 177.025 22.4045C177.45 22.8744 177.779 23.4232 177.992 24.0198C178.228 24.6924 178.342 25.4017 178.329 26.1144V26.7621H171.351C171.419 27.4011 171.695 28.0001 172.137 28.4661C172.346 28.6694 172.593 28.8285 172.865 28.9338C173.137 29.0391 173.427 29.0885 173.718 29.079C174.145 29.0851 174.567 28.9753 174.937 28.7612C175.308 28.5472 175.613 28.2369 175.821 27.8633L178.12 28.5996C177.903 29.1436 177.563 29.6298 177.126 30.0196C176.67 30.4157 176.147 30.7257 175.581 30.9345C174.978 31.1547 174.34 31.2631 173.699 31.2544L173.704 31.2555ZM173.58 22.9736C173.049 22.9615 172.536 23.1592 172.151 23.5236C171.741 23.9316 171.473 24.4605 171.387 25.0323H175.675C175.611 24.4649 175.361 23.9346 174.965 23.5236C174.783 23.3437 174.566 23.2023 174.328 23.1078C174.09 23.0133 173.836 22.9676 173.58 22.9736Z" fill="#191A4E"/>
<path d="M179.927 30.9793V21.2594H182.297L182.386 22.7333C182.602 22.2532 182.946 21.8417 183.38 21.5434C183.819 21.26 184.332 21.1146 184.854 21.1259C185.027 21.1276 185.199 21.1426 185.369 21.1707C185.526 21.1955 185.68 21.2331 185.83 21.283L185.556 23.8221C185.422 23.7718 185.282 23.739 185.139 23.7245C184.995 23.7064 184.849 23.6974 184.704 23.6975C184.4 23.6784 184.095 23.7274 183.813 23.8411C183.53 23.9547 183.276 24.13 183.07 24.3542C182.662 24.8795 182.459 25.5365 182.502 26.2008V30.9681H179.927V30.9793Z" fill="#191A4E"/>
<path d="M190.34 30.9795L186.701 21.2686H189.515L191.69 28.2641L193.901 21.2686H196.626L192.987 30.9795H190.34Z" fill="#191A4E"/>
<path d="M200.61 18.6328C200.616 18.8918 200.551 19.1476 200.423 19.3728C200.295 19.598 200.108 19.7842 199.882 19.9113C199.655 20.0394 199.398 20.1066 199.136 20.1066C198.875 20.1066 198.618 20.0394 198.391 19.9113C198.166 19.7917 197.981 19.6096 197.858 19.3871C197.73 19.1563 197.663 18.8967 197.663 18.6328C197.663 18.3688 197.73 18.1092 197.858 17.8784C197.981 17.6559 198.166 17.4738 198.391 17.3542C198.618 17.2262 198.875 17.1589 199.136 17.1589C199.398 17.1589 199.655 17.2262 199.882 17.3542C200.105 17.4765 200.289 17.658 200.415 17.8784C200.544 18.1086 200.611 18.3686 200.61 18.6328ZM197.849 30.9805V21.2606H200.423V30.9659H197.849V30.9805Z" fill="#191A4E"/>
<path d="M206.992 31.2554C206.326 31.2623 205.665 31.1356 205.048 30.8828C204.465 30.6415 203.939 30.2818 203.503 29.8265C203.064 29.3612 202.717 28.8159 202.483 28.2201C202.107 27.2618 202.008 26.2172 202.196 25.2052C202.384 24.1931 202.853 23.2542 203.548 22.4953C204.002 22.0173 204.548 21.6375 205.155 21.3795C205.761 21.1216 206.414 20.9909 207.073 20.9956C207.739 20.9889 208.399 21.1252 209.008 21.3952C209.583 21.6524 210.095 22.0312 210.509 22.5054C210.92 22.9906 211.212 23.5653 211.361 24.1836L208.91 24.6629C208.745 24.2718 208.478 23.9317 208.138 23.6773C207.813 23.4397 207.418 23.3151 207.016 23.3226C206.596 23.3163 206.186 23.4437 205.844 23.6863C205.492 23.9504 205.217 24.3023 205.045 24.7066C204.844 25.1667 204.745 25.6642 204.752 26.1659C204.743 26.66 204.84 27.1501 205.036 27.6039C205.205 28.0003 205.481 28.3416 205.834 28.5894C206.181 28.8278 206.594 28.9518 207.014 28.9442C207.439 28.9497 207.856 28.8294 208.212 28.5984C208.572 28.3578 208.847 28.0098 208.998 27.6039L211.448 28.0832C211.3 28.7161 210.991 29.2999 210.551 29.7782C210.115 30.257 209.578 30.6331 208.979 30.8794C208.346 31.1263 207.672 31.2538 206.992 31.2554Z" fill="#191A4E"/>
<path d="M217.486 31.2555C216.802 31.263 216.124 31.1364 215.489 30.8828C214.895 30.6438 214.359 30.2806 213.917 29.8176C213.468 29.3447 213.118 28.7862 212.888 28.1753C212.403 26.8543 212.403 25.4037 212.888 24.0826C213.118 23.4793 213.465 22.9274 213.908 22.4583C214.342 21.9999 214.864 21.6344 215.444 21.3841C216.049 21.1212 216.702 20.9882 217.361 20.9935C218.027 20.9864 218.687 21.1099 219.306 21.3571C219.875 21.594 220.387 21.9513 220.805 22.4045C221.23 22.8743 221.559 23.4232 221.773 24.0198C222.009 24.6924 222.123 25.4017 222.11 26.1144V26.7621H215.132C215.199 27.4011 215.475 28 215.918 28.4661C216.126 28.6694 216.374 28.8285 216.645 28.9338C216.917 29.0391 217.207 29.0885 217.498 29.079C217.926 29.0852 218.347 28.9754 218.718 28.7614C219.088 28.5473 219.394 28.237 219.602 27.8633L221.902 28.5996C221.685 29.1434 221.344 29.6295 220.907 30.0196C220.452 30.4156 219.929 30.7256 219.363 30.9345C218.759 31.1498 218.122 31.258 217.48 31.2544L217.486 31.2555ZM217.353 22.9736C216.823 22.9616 216.31 23.1593 215.925 23.5236C215.515 23.9316 215.247 24.4605 215.161 25.0323H219.449C219.385 24.4649 219.135 23.9347 218.739 23.5236C218.557 23.3421 218.34 23.1996 218.102 23.105C217.863 23.0104 217.608 22.9657 217.351 22.9736H217.353Z" fill="#191A4E"/>
<path d="M227.312 31.2557C226.676 31.2662 226.043 31.1545 225.448 30.9268C224.911 30.7206 224.427 30.3995 224.028 29.9861C223.639 29.5859 223.363 29.0897 223.229 28.5481L225.545 28.0509C225.659 28.4191 225.894 28.7382 226.211 28.9567C226.549 29.1828 226.949 29.2978 227.356 29.2856C227.719 29.3024 228.079 29.2064 228.385 29.0106C228.512 28.9302 228.616 28.8186 228.688 28.6866C228.759 28.5546 228.796 28.4064 228.794 28.2563C228.794 28.1236 228.762 27.9928 228.701 27.8754C228.639 27.7579 228.549 27.6575 228.439 27.5828C228.078 27.3591 227.672 27.2166 227.249 27.1652L226.734 27.0765C225.851 26.9691 225.016 26.612 224.329 26.0472C224.063 25.8046 223.853 25.5079 223.712 25.1772C223.571 24.8464 223.503 24.4893 223.511 24.1299C223.501 23.5522 223.668 22.9853 223.991 22.5056C224.323 22.0233 224.781 21.6397 225.313 21.3954C225.926 21.1162 226.593 20.9766 227.266 20.9869C227.873 20.9791 228.476 21.0877 229.042 21.3068C229.552 21.5028 230.008 21.8162 230.373 22.2216C230.737 22.6239 230.99 23.1129 231.11 23.6416L228.811 24.1209C228.706 23.7794 228.498 23.4787 228.216 23.2599C227.937 23.052 227.596 22.9426 227.248 22.949C226.913 22.934 226.582 23.0307 226.307 23.224C226.193 23.3017 226.1 23.4065 226.036 23.5289C225.973 23.6514 225.941 23.7877 225.943 23.9256C225.943 24.0499 225.976 24.1718 226.038 24.2794C226.101 24.3869 226.19 24.4763 226.298 24.5385C226.674 24.7545 227.091 24.8905 227.522 24.9381L228.038 25.0268C228.916 25.1405 229.743 25.5005 230.425 26.0651C230.695 26.3103 230.908 26.6111 231.051 26.9467C231.193 27.2823 231.261 27.6449 231.25 28.0093C231.257 28.4567 231.162 28.8997 230.971 29.3044C230.78 29.7091 230.499 30.0648 230.15 30.3442C229.779 30.6475 229.354 30.8793 228.898 31.0278C228.384 31.1846 227.848 31.2626 227.31 31.259L227.312 31.2557Z" fill="#191A4E"/>
</g>
<defs>
<clipPath id="clip0_753_8309">
<rect width="231.255" height="53.35" fill="white"/>
</clipPath>
</defs>
</svg>
