<svg width="663" height="429" viewBox="0 0 663 429" fill="none" xmlns="http://www.w3.org/2000/svg">
<path d="M179.842 -61.4968C179.957 -61.5956 180.103 -61.6499 180.255 -61.6499H663V358.72C663 359.011 662.843 359.279 662.589 359.422L612.151 387.741C590.51 399.892 567.513 409.452 543.635 416.224C499.214 428.822 452.573 431.536 406.99 424.176L159.681 384.244C138.969 380.9 118.662 375.407 99.0888 367.854L89.5045 364.156C80.9405 360.851 72.653 356.871 64.7202 352.252L49.4113 343.338C35.8237 335.427 24.3055 324.407 15.8016 311.182C5.48518 295.138 0 276.466 0 257.392V244.689C0 231.931 1.71091 219.231 5.087 206.928L10.7921 186.138C15.2979 169.718 21.1811 153.707 28.379 138.276L35.0024 124.077C47.0363 98.2782 61.3041 73.5819 77.6426 50.2702L80.5371 46.1403C106.575 8.98874 137.146 -24.7704 171.54 -54.3555L179.842 -61.4968Z" fill="##302f2f"/>
</svg>
