<svg width="223" height="171" viewBox="0 0 223 171" fill="none" xmlns="http://www.w3.org/2000/svg">
<circle cx="85" cy="85.4766" r="85" fill="#191A4E"/>
<path d="M62.524 97.0966C61.2427 97.0966 60.0337 96.9106 58.897 96.5386C57.781 96.1666 56.7683 95.6396 55.859 94.9576C54.9497 94.2549 54.1643 93.4282 53.503 92.4776C52.8417 91.5269 52.325 90.4729 51.953 89.3156C51.6017 88.1376 51.426 86.8769 51.426 85.5336C51.426 84.1902 51.6017 82.9296 51.953 81.7516C52.325 80.5736 52.8417 79.4989 53.503 78.5276C54.185 77.5562 54.9807 76.7296 55.89 76.0476C56.82 75.3449 57.843 74.8076 58.959 74.4356C60.0957 74.0429 61.3047 73.8466 62.586 73.8466C63.9707 73.8466 65.2623 74.0739 66.461 74.5286C67.6803 74.9832 68.755 75.6342 69.685 76.4816C70.615 77.3289 71.3487 78.3312 71.886 79.4886L68.29 80.6976C67.6907 79.6229 66.895 78.7962 65.903 78.2176C64.9317 77.6182 63.826 77.3186 62.586 77.3186C61.5527 77.3186 60.5917 77.5252 59.703 77.9386C58.835 78.3519 58.0703 78.9306 57.409 79.6746C56.7477 80.3979 56.231 81.2556 55.859 82.2476C55.5077 83.2396 55.332 84.3142 55.332 85.4716C55.332 86.6496 55.5077 87.7449 55.859 88.7576C56.231 89.7496 56.7477 90.6072 57.409 91.3306C58.0703 92.0539 58.8453 92.6222 59.734 93.0356C60.6433 93.4282 61.625 93.6246 62.679 93.6246C63.8983 93.6246 64.973 93.3869 65.903 92.9116C66.8537 92.4156 67.608 91.7336 68.166 90.8656C68.724 89.9976 69.0443 88.9849 69.127 87.8276H63.113V84.6656H73.002V86.7426C73.002 88.2719 72.7437 89.6669 72.227 90.9276C71.731 92.1882 71.0077 93.2836 70.057 94.2136C69.127 95.1229 68.0213 95.8359 66.74 96.3526C65.4793 96.8486 64.074 97.0966 62.524 97.0966ZM83.9462 96.9416C82.7475 96.9416 81.6419 96.7349 80.6292 96.3216C79.6372 95.8876 78.7692 95.2882 78.0252 94.5236C77.2812 93.7589 76.7025 92.8599 76.2892 91.8266C75.8965 90.7726 75.7002 89.6152 75.7002 88.3546C75.7002 87.1352 75.8965 86.0089 76.2892 84.9756C76.7025 83.9422 77.2605 83.0432 77.9632 82.2786C78.6865 81.4932 79.5339 80.8836 80.5052 80.4496C81.4765 80.0156 82.5305 79.7986 83.6672 79.7986C84.8039 79.7986 85.8372 80.0052 86.7672 80.4186C87.7179 80.8112 88.5342 81.3796 89.2162 82.1236C89.9189 82.8676 90.4562 83.7562 90.8282 84.7896C91.2002 85.8022 91.3862 86.9286 91.3862 88.1686V89.2226H79.3892C79.4925 90.1732 79.7405 90.9999 80.1332 91.7026C80.5465 92.3846 81.0735 92.9116 81.7142 93.2836C82.3549 93.6556 83.0989 93.8416 83.9462 93.8416C85.6409 93.8416 86.9635 93.0872 87.9142 91.5786L91.0452 92.7876C90.6732 93.6349 90.1255 94.3789 89.4022 95.0196C88.6995 95.6396 87.8729 96.1149 86.9222 96.4456C85.9922 96.7762 85.0002 96.9416 83.9462 96.9416ZM83.6672 82.6816C82.9439 82.6816 82.2929 82.8469 81.7142 83.1776C81.1562 83.5082 80.6809 83.9732 80.2882 84.5726C79.8955 85.1719 79.6269 85.8746 79.4822 86.6806H87.6662C87.5422 85.8746 87.3045 85.1719 86.9532 84.5726C86.6019 83.9732 86.1369 83.5082 85.5582 83.1776C85.0002 82.8469 84.3699 82.6816 83.6672 82.6816ZM101.001 96.9416C99.3681 96.9416 98.0868 96.4766 97.1568 95.5466C96.2268 94.5959 95.7618 93.2422 95.7618 91.4856V83.1466H92.9098V80.2636H95.7618V74.7766H99.3268V80.2636H104.039V83.1466H99.3268V91.1136C99.3268 91.9816 99.5025 92.6532 99.8538 93.1286C100.226 93.5832 100.763 93.8106 101.466 93.8106C101.838 93.8106 102.241 93.7589 102.675 93.6556C103.109 93.5316 103.512 93.3662 103.884 93.1596L104.69 95.8566C104.214 96.1872 103.656 96.4456 103.016 96.6316C102.396 96.8382 101.724 96.9416 101.001 96.9416ZM120.831 96.9416C119.591 96.9416 118.433 96.7246 117.359 96.2906C116.305 95.8359 115.406 95.2056 114.662 94.3996C113.918 93.5936 113.391 92.6326 113.081 91.5166L116.646 90.6486C116.976 91.5992 117.503 92.3329 118.227 92.8496C118.95 93.3662 119.828 93.6246 120.862 93.6246C121.606 93.6246 122.267 93.4799 122.846 93.1906C123.424 92.9012 123.879 92.5086 124.21 92.0126C124.561 91.5166 124.737 90.9482 124.737 90.3076C124.737 89.5222 124.447 88.8712 123.869 88.3546C123.311 87.8172 122.422 87.4142 121.203 87.1456L120.056 86.8976C117.865 86.4222 116.243 85.6369 115.189 84.5416C114.155 83.4462 113.639 82.1132 113.639 80.5426C113.639 79.5919 113.825 78.7239 114.197 77.9386C114.569 77.1326 115.085 76.4402 115.747 75.8616C116.408 75.2622 117.183 74.8076 118.072 74.4976C118.96 74.1669 119.921 74.0016 120.955 74.0016C122.133 74.0016 123.218 74.2186 124.21 74.6526C125.202 75.0866 126.049 75.7066 126.752 76.5126C127.454 77.2979 127.95 78.2382 128.24 79.3336L124.706 80.2016C124.375 79.2716 123.879 78.5586 123.218 78.0626C122.556 77.5666 121.771 77.3186 120.862 77.3186C120.2 77.3186 119.611 77.4529 119.095 77.7216C118.599 77.9696 118.196 78.3209 117.886 78.7756C117.596 79.2096 117.452 79.7056 117.452 80.2636C117.452 81.0696 117.751 81.7102 118.351 82.1856C118.95 82.6609 119.87 83.0432 121.11 83.3326L122.257 83.5806C126.473 84.5312 128.581 86.6702 128.581 89.9976C128.581 91.0102 128.384 91.9506 127.992 92.8186C127.62 93.6659 127.082 94.3996 126.38 95.0196C125.677 95.6189 124.85 96.0942 123.9 96.4456C122.97 96.7762 121.947 96.9416 120.831 96.9416ZM138.177 96.9416C136.544 96.9416 135.263 96.4766 134.333 95.5466C133.403 94.5959 132.938 93.2422 132.938 91.4856V83.1466H130.086V80.2636H132.938V74.7766H136.503V80.2636H141.215V83.1466H136.503V91.1136C136.503 91.9816 136.678 92.6532 137.03 93.1286C137.402 93.5832 137.939 93.8106 138.642 93.8106C139.014 93.8106 139.417 93.7589 139.851 93.6556C140.285 93.5316 140.688 93.3662 141.06 93.1596L141.866 95.8566C141.39 96.1872 140.832 96.4456 140.192 96.6316C139.572 96.8382 138.9 96.9416 138.177 96.9416ZM149.458 96.9416C148.632 96.9416 147.867 96.8176 147.164 96.5696C146.482 96.3216 145.883 95.9702 145.366 95.5156C144.85 95.0609 144.447 94.5236 144.157 93.9036C143.868 93.2836 143.723 92.6016 143.723 91.8576C143.723 90.8242 143.992 89.9252 144.529 89.1606C145.087 88.3752 145.862 87.7656 146.854 87.3316C147.846 86.8976 149.004 86.6806 150.326 86.6806C151.05 86.6806 151.742 86.7529 152.403 86.8976C153.065 87.0216 153.695 87.2076 154.294 87.4556V86.4326C154.294 85.7092 154.16 85.0789 153.891 84.5416C153.623 83.9836 153.24 83.5496 152.744 83.2396C152.248 82.9296 151.649 82.7746 150.946 82.7746C150.202 82.7746 149.531 82.9709 148.931 83.3636C148.332 83.7562 147.888 84.3039 147.598 85.0066L144.312 84.2626C144.56 83.3532 145.005 82.5679 145.645 81.9066C146.307 81.2452 147.092 80.7286 148.001 80.3566C148.931 79.9846 149.934 79.7986 151.008 79.7986C152.021 79.7986 152.941 79.9639 153.767 80.2946C154.615 80.6252 155.338 81.0902 155.937 81.6896C156.537 82.2889 157.002 83.0019 157.332 83.8286C157.663 84.6552 157.828 85.5749 157.828 86.5876V96.4766H154.573L154.449 94.3376C154.015 95.1229 153.364 95.7532 152.496 96.2286C151.628 96.7039 150.616 96.9416 149.458 96.9416ZM147.319 91.7026C147.319 92.1572 147.443 92.5706 147.691 92.9426C147.939 93.2939 148.28 93.5729 148.714 93.7796C149.169 93.9862 149.696 94.0896 150.295 94.0896C151.06 94.0896 151.742 93.9242 152.341 93.5936C152.941 93.2629 153.416 92.8186 153.767 92.2606C154.119 91.6819 154.294 91.0309 154.294 90.3076V89.9356C153.757 89.7082 153.199 89.5326 152.62 89.4086C152.062 89.2639 151.484 89.1916 150.884 89.1916C149.81 89.1916 148.942 89.4189 148.28 89.8736C147.64 90.3282 147.319 90.9379 147.319 91.7026ZM161.663 96.4766V80.2636H164.918L165.073 82.9296C165.487 82.0202 166.055 81.3176 166.778 80.8216C167.522 80.3049 168.39 80.0466 169.382 80.0466C169.692 80.0466 169.992 80.0672 170.281 80.1086C170.571 80.1499 170.829 80.2222 171.056 80.3256L170.653 83.7976C170.426 83.7149 170.188 83.6632 169.94 83.6426C169.692 83.6012 169.444 83.5806 169.196 83.5806C167.956 83.5806 166.985 83.9939 166.282 84.8206C165.58 85.6472 165.228 86.7942 165.228 88.2616V96.4766H161.663ZM180.862 96.9416C179.229 96.9416 177.948 96.4766 177.018 95.5466C176.088 94.5959 175.623 93.2422 175.623 91.4856V83.1466H172.771V80.2636H175.623V74.7766H179.188V80.2636H183.9V83.1466H179.188V91.1136C179.188 91.9816 179.364 92.6532 179.715 93.1286C180.087 93.5832 180.624 93.8106 181.327 93.8106C181.699 93.8106 182.102 93.7589 182.536 93.6556C182.97 93.5316 183.373 93.3662 183.745 93.1596L184.551 95.8566C184.076 96.1872 183.518 96.4456 182.877 96.6316C182.257 96.8382 181.585 96.9416 180.862 96.9416ZM194.596 96.9416C193.397 96.9416 192.291 96.7349 191.279 96.3216C190.287 95.8876 189.419 95.2882 188.675 94.5236C187.931 93.7589 187.352 92.8599 186.939 91.8266C186.546 90.7726 186.35 89.6152 186.35 88.3546C186.35 87.1352 186.546 86.0089 186.939 84.9756C187.352 83.9422 187.91 83.0432 188.613 82.2786C189.336 81.4932 190.183 80.8836 191.155 80.4496C192.126 80.0156 193.18 79.7986 194.317 79.7986C195.453 79.7986 196.487 80.0052 197.417 80.4186C198.367 80.8112 199.184 81.3796 199.866 82.1236C200.568 82.8676 201.106 83.7562 201.478 84.7896C201.85 85.8022 202.036 86.9286 202.036 88.1686V89.2226H190.039C190.142 90.1732 190.39 90.9999 190.783 91.7026C191.196 92.3846 191.723 92.9116 192.364 93.2836C193.004 93.6556 193.748 93.8416 194.596 93.8416C196.29 93.8416 197.613 93.0872 198.564 91.5786L201.695 92.7876C201.323 93.6349 200.775 94.3789 200.052 95.0196C199.349 95.6396 198.522 96.1149 197.572 96.4456C196.642 96.7762 195.65 96.9416 194.596 96.9416ZM194.317 82.6816C193.593 82.6816 192.942 82.8469 192.364 83.1776C191.806 83.5082 191.33 83.9732 190.938 84.5726C190.545 85.1719 190.276 85.8746 190.132 86.6806H198.316C198.192 85.8746 197.954 85.1719 197.603 84.5726C197.251 83.9732 196.786 83.5082 196.208 83.1776C195.65 82.8469 195.019 82.6816 194.317 82.6816ZM212.078 96.9416C211.003 96.9416 210.001 96.7246 209.071 96.2906C208.161 95.8566 207.366 95.2572 206.684 94.4926C206.002 93.7279 205.464 92.8289 205.072 91.7956C204.7 90.7622 204.514 89.6462 204.514 88.4476C204.514 87.2282 204.71 86.0916 205.103 85.0376C205.495 83.9836 206.043 83.0639 206.746 82.2786C207.448 81.4932 208.265 80.8836 209.195 80.4496C210.145 80.0156 211.168 79.7986 212.264 79.7986C213.338 79.7986 214.32 80.0259 215.209 80.4806C216.097 80.9352 216.831 81.5759 217.41 82.4026V73.4126H220.975V96.4766H217.72L217.565 93.8726C216.986 94.8232 216.221 95.5776 215.271 96.1356C214.32 96.6729 213.256 96.9416 212.078 96.9416ZM212.822 93.7176C213.71 93.7176 214.506 93.4902 215.209 93.0356C215.911 92.5602 216.459 91.9196 216.852 91.1136C217.265 90.3076 217.472 89.3982 217.472 88.3856C217.472 87.3522 217.265 86.4326 216.852 85.6266C216.459 84.8206 215.911 84.1902 215.209 83.7356C214.506 83.2602 213.71 83.0226 212.822 83.0226C211.933 83.0226 211.137 83.2602 210.435 83.7356C209.732 84.1902 209.174 84.8206 208.761 85.6266C208.368 86.4326 208.172 87.3522 208.172 88.3856C208.172 89.3982 208.368 90.3076 208.761 91.1136C209.174 91.9196 209.732 92.5602 210.435 93.0356C211.137 93.4902 211.933 93.7176 212.822 93.7176Z" fill="white"/>
</svg>
