<svg width="70" height="86" viewBox="0 0 70 86" fill="none" xmlns="http://www.w3.org/2000/svg">
<path d="M1.66669 34.6667C1.66669 18.9542 1.66669 11.0959 6.55002 6.21671C11.4334 1.33754 19.2875 1.33337 35 1.33337C50.7125 1.33337 58.5709 1.33337 63.45 6.21671C68.3292 11.1 68.3334 18.9542 68.3334 34.6667V51.3334C68.3334 67.0459 68.3334 74.9042 63.45 79.7834C58.5667 84.6625 50.7125 84.6667 35 84.6667C19.2875 84.6667 11.4292 84.6667 6.55002 79.7834C1.67085 74.9 1.66669 67.0459 1.66669 51.3334V34.6667Z" stroke="white" stroke-width="2"/>
<path d="M47.5 72.1667H22.5M54.7833 2.90833L54.4333 3.43332C51.2833 8.15832 49.7083 10.5208 47.4083 11.95C46.95 12.2361 46.4764 12.4903 45.9875 12.7125C43.5208 13.8375 40.6792 13.8375 35 13.8375C29.3208 13.8375 26.4833 13.8375 24.0167 12.7125C23.5257 12.4893 23.0497 12.2346 22.5917 11.95C20.2917 10.5208 18.7167 8.15832 15.5667 3.43332L15.2167 2.90833" stroke="white" stroke-width="2" stroke-linecap="round"/>
</svg>
