<svg width="100" height="24" viewBox="0 0 100 24" fill="none" xmlns="http://www.w3.org/2000/svg">
<path d="M0 23.3412H3.92123V13.1394C3.92123 11.1273 5.24401 9.66546 7.13375 9.66546C8.96045 9.66546 10.0943 10.813 10.0943 12.6678V23.3409H13.9052V13.0449C13.9052 11.0485 15.1965 9.66526 17.0862 9.66526C19.0074 9.66526 20.0782 10.8285 20.0782 12.872V23.341H23.9994V11.9134C23.9994 8.58101 21.842 6.36463 18.5506 6.36463C16.1412 6.36463 14.1572 7.65358 13.3538 9.71279H13.2593C12.6451 7.57499 10.9601 6.36463 8.5982 6.36463C6.33055 6.36463 4.56682 7.63789 3.84239 9.57134H3.76365V6.67903H0V23.3412ZM32.5824 20.6533C30.8817 20.6533 29.7479 19.7887 29.7479 18.4212C29.7479 17.1008 30.8345 16.2519 32.7242 16.1262L36.5823 15.8904V17.1637C36.5823 19.1757 34.8028 20.6533 32.5824 20.6533ZM31.4014 23.6085C33.543 23.6085 35.6375 22.4924 36.5982 20.6847H36.6769V23.3413H40.4564V11.8662C40.4564 8.51804 37.7635 6.33308 33.622 6.33308C29.3701 6.33308 26.709 8.5652 26.5356 11.6775H30.1733C30.4253 10.2942 31.6063 9.39818 33.4645 9.39818C35.4015 9.39818 36.5826 10.4042 36.5826 12.149V13.3437L32.1731 13.5952C28.1102 13.8467 25.8269 15.623 25.8269 18.5782C25.8269 21.5805 28.1732 23.6085 31.4014 23.6085ZM57.669 12.6207C57.4013 9.11537 54.6769 6.33308 50.2678 6.33308C45.4176 6.33308 42.2679 9.68124 42.2679 15.0098C42.2679 20.4174 45.4174 23.6709 50.2992 23.6709C54.4882 23.6709 57.3699 21.2187 57.6847 17.4931H53.984C53.6218 19.3794 52.3305 20.5111 50.3464 20.5111C47.8582 20.5111 46.2521 18.4991 46.2521 15.0094C46.2521 11.5827 47.8426 9.50768 50.3149 9.50768C52.4093 9.50768 53.6534 10.8438 53.9683 12.6201H57.669L57.669 12.6207ZM69.7796 0.28125C63.15 0.28125 58.9925 4.79266 58.9925 12.0078C58.9925 19.223 63.1496 23.7188 69.7796 23.7188C76.3935 23.7188 80.551 19.223 80.551 12.0078C80.551 4.79266 76.3939 0.28125 69.7796 0.28125ZM69.7796 3.73947C73.8267 3.73947 76.4092 6.94619 76.4092 12.0078C76.4092 17.0536 73.8266 20.2604 69.7796 20.2604C65.7168 20.2604 63.15 17.0537 63.15 12.0078C63.15 6.94627 65.7169 3.73947 69.7796 3.73947ZM82.2051 16.9594C82.3783 21.1408 85.8113 23.7187 91.0395 23.7187C96.5354 23.7187 100 21.015 100 16.7079C100 13.3283 98.0473 11.4263 93.4333 10.3732L90.8192 9.77585C88.0319 9.11565 86.8823 8.23538 86.8823 6.72635C86.8823 4.84006 88.6146 3.58253 91.1814 3.58253C93.7797 3.58253 95.559 4.85579 95.7481 6.97786H99.622C99.5275 2.9852 96.2206 0.281371 91.213 0.281371C86.2681 0.281371 82.7564 3.00077 82.7564 7.02494C82.7564 10.2631 84.7406 12.2752 88.9292 13.2341L91.874 13.9258C94.7401 14.6017 95.9054 15.5448 95.9054 17.1796C95.9054 19.0659 93.9999 20.4177 91.26 20.4177C88.4885 20.4177 86.3942 19.0502 86.1422 16.9595H82.2053L82.2051 16.9594Z" fill="white"/>
</svg>
