<svg width="56" height="100" viewBox="0 0 56 100" fill="none" xmlns="http://www.w3.org/2000/svg">
<path fill-rule="evenodd" clip-rule="evenodd" d="M52.2188 70.3125C52.2188 75.482 48.0133 79.6875 42.8438 79.6875H11.5938C6.42422 79.6875 2.21875 75.482 2.21875 70.3125V29.6875C2.21875 24.518 6.42422 20.3125 11.5938 20.3125H42.8438C48.0133 20.3125 52.2188 24.518 52.2188 29.6875V70.3125ZM42.8438 87.5V93.2828C42.8438 96.3727 41.8609 96.6539 36.6195 97.5664C36.5094 97.5789 36.3688 97.6031 36.1274 97.6445C34.9797 97.8406 31.4867 98.4375 27.2188 98.4375C25.1695 98.4375 21.9273 98.2953 18.1187 97.6172C18.0109 97.5977 17.932 97.5836 17.8664 97.5742C12.4633 96.5156 11.5938 96.1305 11.5938 93.2828V87.5C11.5938 85.5516 11.425 83.3336 10.4852 81.4711H43.9937C43.0039 83.4109 42.8438 85.6891 42.8438 87.5ZM11.5938 12.5V6.71719C11.5938 3.86954 12.4633 3.48437 17.8664 2.42578C17.932 2.4164 18.0109 2.40235 18.1187 2.38281C21.9273 1.70469 25.1695 1.5625 27.2188 1.5625C31.4867 1.5625 34.9797 2.15937 36.1274 2.35547C36.3688 2.39687 36.5094 2.4211 36.6195 2.4336C41.8562 3.34454 42.8438 3.61954 42.8438 6.71719V12.5C42.8438 14.3109 43.0039 16.5891 43.9937 18.5289H10.4852C11.425 16.6664 11.5938 14.4484 11.5938 12.5ZM54.7914 42.1875C55.0961 42.1875 55.3438 41.9398 55.3438 41.6352V33.3648C55.3438 33.0602 55.0961 32.8125 54.7914 32.8125H53.7812V29.6875C53.7812 25.0102 50.8 21.0055 46.6484 19.45C45.0094 18.0023 44.4062 15.6305 44.4062 12.5V6.71719C44.4062 2.19063 41.9008 1.76641 36.8227 0.882816C36.6023 0.882816 32.518 0 27.2188 0C21.9195 0 17.725 0.882816 17.6148 0.882816C12.5367 1.87657 10.0312 2.41172 10.0312 6.71719V12.5C10.0312 15.618 9.51172 17.9813 7.84219 19.4305C3.66328 20.9719 0.65625 24.9898 0.65625 29.6875V70.3125C0.65625 75.0102 3.66328 79.0281 7.84219 80.5695C9.51172 82.0187 10.0312 84.382 10.0312 87.5V93.2828C10.0312 97.5883 12.5367 98.1234 17.6148 99.1172C17.725 99.1172 21.9195 100 27.2188 100C32.518 100 36.6023 99.1172 36.8227 99.1172C41.9008 98.2336 44.4062 97.8094 44.4062 93.2828V87.5C44.4062 84.3695 45.0094 81.9977 46.6484 80.55C50.8 78.9945 53.7812 74.9898 53.7812 70.3125V64.0625H54.5625C54.9938 64.0625 55.3438 63.7125 55.3438 63.2812V52.3438C55.3438 51.9125 54.9938 51.5625 54.5625 51.5625H53.7812V42.1875H54.7914ZM49.875 70.3125C49.875 74.1898 46.7211 77.3438 42.8438 77.3438H11.5938C7.71641 77.3438 4.5625 74.1898 4.5625 70.3125V29.6875C4.5625 25.8102 7.71641 22.6562 11.5938 22.6562H42.8438C46.7211 22.6562 49.875 25.8102 49.875 29.6875V70.3125ZM42.8438 21.875H11.5938C7.27891 21.875 3.78125 25.3727 3.78125 29.6875V70.3125C3.78125 74.6273 7.27891 78.125 11.5938 78.125H42.8438C47.1586 78.125 50.6562 74.6273 50.6562 70.3125V29.6875C50.6562 25.3727 47.1586 21.875 42.8438 21.875Z" fill="white"/>
</svg>
