<svg xmlns="http://www.w3.org/2000/svg" width="49.763" height="70" viewBox="0 0 49.763 70">
    <g data-name="Group 25744">
        <g data-name="Group 25743">
            <g data-name="Group 25740">
                <g data-name="Group 25728">
                    <path data-name="Path 23296" d="M76.327 103.78V44.711a2.586 2.586 0 0 0-2.586-2.586H37.628a2.586 2.586 0 0 0-2.586 2.586v59.069a2.586 2.586 0 0 0 2.586 2.586h36.113a2.586 2.586 0 0 0 2.586-2.586z" transform="translate(-35.042 -36.366)" style="fill:#ffc250"/>
                    <path data-name="Path 23297" d="M325.462 42.124h-8.654a2.586 2.586 0 0 1 2.586 2.586v59.069a2.586 2.586 0 0 1-2.586 2.586h8.654a2.586 2.586 0 0 0 2.586-2.586V44.71a2.586 2.586 0 0 0-2.586-2.586z" transform="translate(-278.285 -36.365)" style="fill:#eab14d"/>
                    <path data-name="Path 23298" d="M65.955 127.9V73.962a.924.924 0 0 1 .924-.924h39.461a.924.924 0 0 1 .924.924V127.9a.924.924 0 0 1-.924.924H66.879a.924.924 0 0 1-.924-.924z" transform="translate(-61.729 -63.052)" style="fill:#f5f5f5"/>
                    <path data-name="Path 23299" d="M306.7 73.038h-8.654a.924.924 0 0 1 .924.924V127.9a.924.924 0 0 1-.924.924h8.654a.924.924 0 0 0 .924-.924V73.962a.924.924 0 0 0-.924-.924z" transform="translate(-262.09 -63.052)" style="fill:#eaeaea"/>
                    <path data-name="Path 23300" d="M152.417 3.218V1.857A1.857 1.857 0 0 0 150.56 0h-7.273a1.857 1.857 0 0 0-1.857 1.857v1.361a.759.759 0 0 1-.759.759h-3.027a1.823 1.823 0 0 0-1.823 1.823v4.186h22.206V5.8a1.823 1.823 0 0 0-1.827-1.823h-3.027a.759.759 0 0 1-.759-.759z" transform="translate(-122.043)" style="fill:#c2d0da"/>
                </g>
                <g data-name="Group 25733">
                    <g data-name="Group 25729">
                        <path data-name="Path 23301" d="M105.278 121.083v-8.14a1.633 1.633 0 0 1 1.633-1.633h8.14a1.633 1.633 0 0 1 1.633 1.633v8.14a1.633 1.633 0 0 1-1.633 1.633h-8.14a1.633 1.633 0 0 1-1.633-1.633z" transform="translate(-95.675 -96.092)" style="fill:#66b49d"/>
                        <path data-name="Path 23302" d="M105.278 245.123v-8.14a1.633 1.633 0 0 1 1.633-1.633h8.14a1.633 1.633 0 0 1 1.633 1.633v8.14a1.633 1.633 0 0 1-1.633 1.633h-8.14a1.633 1.633 0 0 1-1.633-1.633z" transform="translate(-95.675 -203.173)" style="fill:#66b49d"/>
                        <path data-name="Path 23303" d="M105.278 369.162v-8.14a1.633 1.633 0 0 1 1.633-1.633h8.14a1.633 1.633 0 0 1 1.633 1.633v8.14a1.633 1.633 0 0 1-1.633 1.633h-8.14a1.633 1.633 0 0 1-1.633-1.633z" transform="translate(-95.675 -310.254)" style="fill:#66b49d"/>
                    </g>
                    <g data-name="Group 25730">
                        <path data-name="Path 23304" d="M125.39 137.529a1.474 1.474 0 0 1-1.183-.6l-1.233-1.694a1.056 1.056 0 1 1 1.708-1.244l.715.982 2.091-2.841a1.056 1.056 0 1 1 1.7 1.252l-2.613 3.55a1.473 1.473 0 0 1-1.185.595z" transform="translate(-110.773 -113.694)" style="fill:#f6f9f9"/>
                    </g>
                    <g data-name="Group 25731">
                        <path data-name="Path 23305" d="M125.39 264.268a1.473 1.473 0 0 1-1.183-.6l-1.233-1.694a1.056 1.056 0 0 1 1.708-1.244l.715.982 2.091-2.841a1.056 1.056 0 1 1 1.7 1.253l-2.613 3.55a1.472 1.472 0 0 1-1.185.594z" transform="translate(-110.773 -223.105)" style="fill:#f6f9f9"/>
                    </g>
                    <g data-name="Group 25732">
                        <path data-name="Path 23306" d="M125.39 385.61a1.473 1.473 0 0 1-1.183-.6l-1.233-1.694a1.056 1.056 0 1 1 1.708-1.243l.715.982 2.091-2.841a1.056 1.056 0 1 1 1.7 1.252l-2.613 3.55a1.474 1.474 0 0 1-1.182.6z" transform="translate(-110.773 -327.857)" style="fill:#f6f9f9"/>
                    </g>
                </g>
                <g data-name="Group 25736">
                    <g data-name="Group 25734">
                        <path data-name="Path 23307" d="M233.566 131.266h-13.059a1.056 1.056 0 0 1 0-2.113h13.059a1.056 1.056 0 0 1 0 2.113z" transform="translate(-194.239 -111.495)" style="fill:#ddeafb"/>
                    </g>
                    <g data-name="Group 25735">
                        <path data-name="Path 23308" d="M227.038 163.553h-6.529a1.056 1.056 0 1 1 0-2.113h6.529a1.056 1.056 0 1 1 0 2.113z" transform="translate(-194.24 -139.368)" style="fill:#ddeafb"/>
                    </g>
                </g>
                <g data-name="Group 25739">
                    <g data-name="Group 25737">
                        <path data-name="Path 23309" d="M229.27 255.306h-8.762a1.056 1.056 0 1 1 0-2.113h8.762a1.056 1.056 0 0 1 0 2.113z" transform="translate(-194.24 -218.577)" style="fill:#ddeafb"/>
                    </g>
                    <g data-name="Group 25738">
                        <path data-name="Path 23310" d="M227.038 287.593h-6.529a1.056 1.056 0 1 1 0-2.113h6.529a1.056 1.056 0 1 1 0 2.113z" transform="translate(-194.24 -246.45)" style="fill:#ddeafb"/>
                    </g>
                </g>
                <g data-name="Group 25745">
                    <g data-name="Group 25737">
                        <path data-name="Path 23309" d="M229.27 255.306h-8.762a1.056 1.056 0 1 1 0-2.113h8.762a1.056 1.056 0 0 1 0 2.113z" transform="translate(-194.24 -201.618)" style="fill:#ddeafb"/>
                    </g>
                    <g data-name="Group 25738">
                        <path data-name="Path 23310" d="M227.038 287.593h-6.529a1.056 1.056 0 1 1 0-2.113h6.529a1.056 1.056 0 1 1 0 2.113z" transform="translate(-194.24 -229.491)" style="fill:#ddeafb"/>
                    </g>
                </g>
            </g>
        </g>
    </g>
</svg>
