<svg xmlns="http://www.w3.org/2000/svg" width="70" height="76" viewBox="0 0 70 76">
    <g data-name="Group 26624">
        <path data-name="Rectangle 6844" style="fill:none" d="M0 0h70v76H0z"/>
        <g transform="translate(-13.695 -23.485)">
            <path data-name="Path 24210" d="M46.94 374.768a5.968 5.968 0 0 0-3.181-4.152l-6.977-2.978v-.182a12.425 12.425 0 0 1-10.525 0v.182l-6.977 2.979a5.97 5.97 0 0 0-3.28 4.845v7.586h31.04v-7.586a5.531 5.531 0 0 0-.1-.694z" transform="translate(0 -290.715)" style="fill:#50a6ea"/>
            <path data-name="Path 24211" d="m23.387 370.616 5.386-2.3a12.4 12.4 0 0 1-2.515-.861v.182l-6.977 2.978A5.97 5.97 0 0 0 16 375.461v7.586h4.106v-7.586a5.97 5.97 0 0 1 3.281-4.846z" transform="translate(0 -290.715)" style="fill:#72bcef"/>
            <path data-name="Path 24212" d="M225.721 49.047h-36.952a2.738 2.738 0 0 0-2.738 2.738v7.751a11.307 11.307 0 0 1 3.115 7.808v4.332h.268a2.145 2.145 0 0 1 1.919 1.634 2.852 2.852 0 0 1-2.274 3.488v1.407a11.072 11.072 0 0 1-3.031 7.626v8.046l4.484 1.914a5.968 5.968 0 0 1 3.181 4.152h32.024a2.737 2.737 0 0 0 2.738-2.738v-45.42a2.738 2.738 0 0 0-2.738-2.738z" transform="translate(-146.756 -15.89)" style="fill:#e5f5fd"/>
            <circle data-name="Ellipse 1103" cx="8.213" cy="8.213" r="8.213" transform="translate(45.001 41.763)" style="fill:#49c160"/>
            <path data-name="Path 24213" d="M230.576 120.127a8.215 8.215 0 0 1 6.844-8.1 8.213 8.213 0 1 0 0 16.194 8.214 8.214 0 0 1-6.844-8.094z" transform="translate(-182.837 -70.152)" style="fill:#5ae070"/>
            <path data-name="Path 24214" d="M65.764 115.531v.126s-9.692 1.708-16.191-4.083a34.209 34.209 0 0 1-4.013.1l-.3 4.965a.23.23 0 0 1-.334.186l-1.341-.689a.929.929 0 0 1-.5-.76V111.2a11.342 11.342 0 1 1 22.684 0z" transform="translate(-23.373 -59.745)" style="fill:#4a5160"/>
            <path data-name="Path 24215" d="M49.14 103.179a11.306 11.306 0 0 1 6.66-3.238A11.344 11.344 0 0 0 43.08 111.2v4.179a.929.929 0 0 0 .5.76l1.341.689a.23.23 0 0 0 .334-.186s-.59-8.988 3.883-13.461z" transform="translate(-23.373 -59.745)" style="fill:#58606d"/>
            <path data-name="Path 24216" d="M101.465 332.247v4.82a12.426 12.426 0 0 1-10.525 0v-4.461a11.126 11.126 0 0 0 10.525-.359z" transform="translate(-64.682 -260.326)" style="fill:#efc597"/>
            <path data-name="Path 24217" d="M93.678 339.328V335.8a11.046 11.046 0 0 1-2.738-.934v4.461a12.423 12.423 0 0 0 6.631 1.094 12.415 12.415 0 0 1-3.894-1.094z" transform="translate(-64.682 -262.587)" style="fill:#d8ad82"/>
            <path data-name="Path 24218" d="M47.606 205.55a11.115 11.115 0 0 1-16.71-9.606v-1.407a2.857 2.857 0 0 1-2.275-3.488 2.146 2.146 0 0 1 1.92-1.634h.012a.927.927 0 0 0 .478.609l1.341.688a.23.23 0 0 0 .334-.186l.3-4.965a34.208 34.208 0 0 0 4.013-.1c6.5 5.791 16.191 4.083 16.191 4.083v-.126h.268a2.145 2.145 0 0 1 1.919 1.634 2.852 2.852 0 0 1-2.274 3.488v1.407a11.072 11.072 0 0 1-3.031 7.626 8.269 8.269 0 0 1-.226.234 11.124 11.124 0 0 1-2.26 1.743z" transform="translate(-10.823 -133.628)" style="fill:#ffd8b7"/>
            <path data-name="Path 24219" d="M39.811 230.846a11.115 11.115 0 0 1-6.186-9.965v-1.407a2.858 2.858 0 0 1-2.275-3.488 2.158 2.158 0 0 1 .31-.7l-.637-.327a.927.927 0 0 1-.478-.609h-.012a2.146 2.146 0 0 0-1.92 1.634 2.852 2.852 0 0 0 2.275 3.488v1.407A11.111 11.111 0 0 0 42 232a11.225 11.225 0 0 0 1.367-.085 11.05 11.05 0 0 1-3.556-1.069z" transform="translate(-10.816 -158.566)" style="fill:#e8bc9e"/>
            <g data-name="Group 26687">
                <path data-name="Path 24220" d="M403.544 223.329h-6a.821.821 0 0 1 0-1.643h6a.821.821 0 0 1 0 1.643z" transform="translate(-328.606 -164.898)" style="fill:#b9c8db"/>
                <path data-name="Path 24221" d="M358.992 223.329h-2.014a.821.821 0 0 1 0-1.643h2.014a.821.821 0 1 1 0 1.643z" transform="translate(-293.597 -164.898)" style="fill:#b9c8db"/>
                <path data-name="Path 24222" d="M428.549 288.225h-2.039a.821.821 0 0 1 0-1.643h2.039a.821.821 0 1 1 0 1.643z" transform="translate(-353.611 -220.911)" style="fill:#b9c8db"/>
                <path data-name="Path 24223" d="M337.176 288.225H326.3a.821.821 0 0 1 0-1.643h10.876a.821.821 0 1 1 0 1.643z" transform="translate(-267.117 -220.911)" style="fill:#b9c8db"/>
                <path data-name="Path 24224" d="M300.631 288.225h-.731a.821.821 0 1 1 0-1.643h.734a.821.821 0 0 1 0 1.643z" transform="translate(-244.329 -220.911)" style="fill:#b9c8db"/>
                <path data-name="Path 24225" d="M244.69 288.225h-4.656a.821.821 0 1 1 0-1.643h4.656a.821.821 0 1 1 0 1.643z" transform="translate(-192.659 -220.911)" style="fill:#b9c8db"/>
                <path data-name="Path 24226" d="M411.77 348.206h-4.7a.821.821 0 0 1 0-1.643h4.7a.821.821 0 0 1 0 1.643z" transform="translate(-336.832 -272.682)" style="fill:#b9c8db"/>
                <path data-name="Path 24227" d="M381.812 348.206h-.59a.821.821 0 0 1 0-1.643h.59a.821.821 0 0 1 0 1.643z" transform="translate(-314.521 -272.682)" style="fill:#b9c8db"/>
                <path data-name="Path 24228" d="M336.185 348.206h-4.464a.821.821 0 0 1 0-1.643h4.464a.821.821 0 0 1 0 1.643z" transform="translate(-271.797 -272.682)" style="fill:#b9c8db"/>
                <path data-name="Path 24229" d="M248.961 348.206h-8.928a.821.821 0 0 1 0-1.643h8.928a.821.821 0 1 1 0 1.643z" transform="translate(-192.659 -272.682)" style="fill:#b9c8db"/>
                <path data-name="Path 24230" d="M438.063 172.243h-.53a.821.821 0 1 1 0-1.643h.53a.821.821 0 1 1 0 1.643z" transform="translate(-363.125 -120.805)" style="fill:#b9c8db"/>
                <path data-name="Path 24231" d="M374.981 172.243h-5.821a.821.821 0 0 1 0-1.643h5.821a.821.821 0 1 1 0 1.643z" transform="translate(-304.111 -120.805)" style="fill:#b9c8db"/>
                <path data-name="Path 24232" d="M404.406 122.243h-5.868a.821.821 0 1 1 0-1.643h5.868a.821.821 0 1 1 0 1.643z" transform="translate(-329.468 -77.649)" style="fill:#b9c8db"/>
                <path data-name="Path 24233" d="M369.644 122.243h-.484a.821.821 0 1 1 0-1.643h.484a.821.821 0 0 1 0 1.643z" transform="translate(-304.111 -77.649)" style="fill:#b9c8db"/>
            </g>
            <path data-name="Path 24234" d="M254.572 151.647a.821.821 0 0 1-.581-.241l-2.341-2.341a.821.821 0 1 1 1.161-1.161l1.76 1.76 5.418-5.419a.821.821 0 1 1 1.161 1.161l-6 6a.821.821 0 0 1-.578.241z" transform="translate(-203.188 -97.85)" style="fill:#f4f8fc"/>
            <path data-name="Path 24235" d="M255.45 30.637h24.794v4.706H255.45z" transform="translate(-206.674)" style="fill:#475673"/>
        </g>
    </g>
</svg>
