<svg data-name="Group 25746" xmlns="http://www.w3.org/2000/svg" width="70" height="70" viewBox="0 0 70 70">
    <path data-name="Path 23311" d="M354.2 287.543a8.211 8.211 0 0 1-8.2-8.2 8.2 8.2 0 1 1 16.406 0 8.211 8.211 0 0 1-8.206 8.2zm0 0" transform="translate(-298.695 -233.949)" style="fill:#f6a96c"/>
    <path data-name="Path 23312" d="M334.287 392a14.247 14.247 0 0 0-8.346 2.715l-3.012 6.8 5.2 6.888h20.645v-2.051A14.473 14.473 0 0 0 334.287 392zm0 0" transform="translate(-278.779 -338.406)" style="fill:#32ddf9"/>
    <path data-name="Path 23313" d="m10.391 17.324-6.353 3.32 1.206-7.283L0 8.381l7.271-1.025L10.391 0l3.2 7.356 7.058 1.025-5.107 4.981 1.206 7.283zm0 0" style="fill:#ffda2d"/>
    <path data-name="Path 23314" d="m196.381 13.343 1.23 7.3-6.357-3.322-6.354 3.324 1.23-7.3L181 8.381l7.137-1.025L191.254 0l3.2 7.356 7.054 1.025zm0 0" transform="translate(-156.254)" style="fill:#ffda2d"/>
    <path data-name="Path 23315" d="m371.254 17.324-6.353 3.32 1.206-7.283L361 8.381l7.134-1.025L371.254 0l3.2 7.356 7.194 1.025-5.248 4.981 1.206 7.283zm0 0" transform="translate(-311.645)" style="fill:#fdbf00"/>
    <path data-name="Path 23316" d="M54.2 287.543a8.211 8.211 0 0 1-8.2-8.2 8.2 8.2 0 1 1 16.406 0 8.211 8.211 0 0 1-8.206 8.2zm0 0" transform="translate(-39.711 -233.949)" style="fill:#ffbd86"/>
    <path data-name="Path 23317" d="M14.492 392A14.473 14.473 0 0 0 0 406.355v2.051h20.645l5.087-6.152-2.894-7.538A14.243 14.243 0 0 0 14.492 392zm0 0" transform="translate(0 -338.406)" style="fill:#84ecf7"/>
    <path data-name="Path 23318" d="M262.357 20.645 256 17.322V0l3.2 7.356 7.054 1.025-5.127 4.962zm0 0" transform="translate(-221)" style="fill:#fdbf00"/>
    <path data-name="Path 23319" d="M204.2 241a8.227 8.227 0 0 0-8.2 8.2 8.2 8.2 0 1 0 16.406 0 8.227 8.227 0 0 0-8.206-8.2zm0 0" transform="translate(-169.203 -208.051)" style="fill:#fed2a4"/>
    <path data-name="Path 23320" d="M179.711 376.355v6.152H151v-6.152a14.356 14.356 0 0 1 28.711 0zm0 0" transform="translate(-130.355 -312.508)" style="fill:#ff637b"/>
    <path data-name="Path 23321" d="M256 257.543V241a8.227 8.227 0 0 1 8.2 8.2 8.346 8.346 0 0 1-8.2 8.343zm0 0" transform="translate(-221 -208.051)" style="fill:#f6a96c"/>
    <path data-name="Path 23322" d="M270.355 376.355v6.152H256V362a14.425 14.425 0 0 1 14.355 14.355zm0 0" transform="translate(-221 -312.508)" style="fill:#e63950"/>
</svg>
