<svg xmlns="http://www.w3.org/2000/svg" width="70" height="70" viewBox="0 0 70 70">
    <g data-name="Group 25723">
        <g data-name="Group 25678">
            <path data-name="Path 23228" d="M54.024 18H4v37.5a5 5 0 0 0 5 5h37.5v-7.366a4.991 4.991 0 0 1 5-5.134v-9.866a4.991 4.991 0 0 1 5-5.134 5.005 5.005 0 0 1 5 5v5a4.962 4.962 0 0 1 2.5.671V23a12.476 12.476 0 0 1-9.976-5z" transform="translate(-4 -.5)" style="fill:#f0f0f0"/>
        </g>
        <g data-name="Group 25679">
            <path data-name="Path 23229" d="M51.5 13a12.412 12.412 0 0 1 1.051-5H9a5 5 0 0 0-5 5v7.5h50.024A12.422 12.422 0 0 1 51.5 13z" transform="translate(-4 -3)" style="fill:#64c8f0"/>
        </g>
        <g data-name="Group 25681">
            <g data-name="Group 25680">
                <path data-name="Path 23230" d="M14 8H9a5 5 0 0 0-5 5v7.5h5V13a5 5 0 0 1 5-5z" transform="translate(-4 -3)" style="fill:#46aad2"/>
            </g>
        </g>
        <g data-name="Group 25683">
            <g data-name="Group 25682">
                <path data-name="Path 23231" d="M9 55.5V18H4v37.5a5 5 0 0 0 5 5h5a5 5 0 0 1-5-5z" transform="translate(-4 -.5)" style="fill:#d2d2d2"/>
            </g>
        </g>
        <g data-name="Group 25685">
            <g data-name="Group 25684">
                <path data-name="Path 23232" d="M18.5 14a2.5 2.5 0 0 1-2.5-2.5v-5a2.5 2.5 0 0 1 5 0v5a2.5 2.5 0 0 1-2.5 2.5z" transform="translate(-1 -4)" style="fill:#fa6450"/>
            </g>
        </g>
        <g data-name="Group 25687">
            <g data-name="Group 25686">
                <path data-name="Path 23233" d="M28.5 14a2.5 2.5 0 0 1-2.5-2.5v-5a2.5 2.5 0 0 1 5 0v5a2.5 2.5 0 0 1-2.5 2.5z" transform="translate(1.5 -4)" style="fill:#fa6450"/>
            </g>
        </g>
        <g data-name="Group 25689">
            <g data-name="Group 25688">
                <path data-name="Path 23234" d="M38.5 14a2.5 2.5 0 0 1-2.5-2.5v-5a2.5 2.5 0 0 1 5 0v5a2.5 2.5 0 0 1-2.5 2.5z" transform="translate(4 -4)" style="fill:#fa6450"/>
            </g>
        </g>
        <g data-name="Group 25691">
            <g data-name="Group 25690">
                <path data-name="Path 23235" d="M18 24h5v5h-5z" transform="translate(-.5 1)" style="fill:#505050"/>
            </g>
        </g>
        <g data-name="Group 25693">
            <g data-name="Group 25692">
                <path data-name="Path 23236" d="M26 24h5v5h-5z" transform="translate(1.5 1)" style="fill:#505050"/>
            </g>
        </g>
        <g data-name="Group 25695">
            <g data-name="Group 25694">
                <path data-name="Path 23237" d="M34 24h5v5h-5z" transform="translate(3.5 1)" style="fill:#505050"/>
            </g>
        </g>
        <g data-name="Group 25697">
            <g data-name="Group 25696">
                <path data-name="Path 23238" d="M42 24h5v5h-5z" transform="translate(5.5 1)" style="fill:#fa6450"/>
            </g>
        </g>
        <g data-name="Group 25699">
            <g data-name="Group 25698">
                <path data-name="Path 23239" d="M10 32h5v5h-5z" transform="translate(-2.5 3)" style="fill:#505050"/>
            </g>
        </g>
        <g data-name="Group 25701">
            <g data-name="Group 25700">
                <path data-name="Path 23240" d="M18 32h5v5h-5z" transform="translate(-.5 3)" style="fill:#505050"/>
            </g>
        </g>
        <g data-name="Group 25703">
            <g data-name="Group 25702">
                <path data-name="Path 23241" d="M26 32h5v5h-5z" transform="translate(1.5 3)" style="fill:#505050"/>
            </g>
        </g>
        <g data-name="Group 25705">
            <g data-name="Group 25704">
                <path data-name="Path 23242" d="M34 32h5v5h-5z" transform="translate(3.5 3)" style="fill:#505050"/>
            </g>
        </g>
        <g data-name="Group 25707">
            <g data-name="Group 25706">
                <path data-name="Path 23243" d="M10 40h5v5h-5z" transform="translate(-2.5 5)" style="fill:#505050"/>
            </g>
        </g>
        <g data-name="Group 25709">
            <g data-name="Group 25708">
                <path data-name="Path 23244" d="M18 40h5v5h-5z" transform="translate(-.5 5)" style="fill:#505050"/>
            </g>
        </g>
        <g data-name="Group 25711">
            <g data-name="Group 25710">
                <path data-name="Path 23245" d="M26 40h5v5h-5z" transform="translate(1.5 5)" style="fill:#505050"/>
            </g>
        </g>
        <g data-name="Group 25713">
            <g data-name="Group 25712">
                <path data-name="Path 23246" d="M34 40h5v5h-5z" transform="translate(3.5 5)" style="fill:#505050"/>
            </g>
        </g>
        <g data-name="Group 25714">
            <path data-name="Path 23247" d="M65 67V44.634a2.594 2.594 0 0 0-2.08-2.6A2.5 2.5 0 0 0 60 44.5a2.5 2.5 0 0 0-5 0 2.5 2.5 0 0 0-5 0v-10a2.5 2.5 0 0 0-2.92-2.466 2.594 2.594 0 0 0-2.08 2.6V49.5a2.5 2.5 0 0 0-2.92-2.466 2.594 2.594 0 0 0-2.08 2.6v7.8a4.994 4.994 0 0 0 1.465 3.535l2.8 2.8A2.5 2.5 0 0 1 45 65.535V67z" transform="translate(5 3)" style="fill:#f0c8a0"/>
        </g>
        <g data-name="Group 25715">
            <path data-name="Path 23248" d="m45.518 60.7-2.8-2.8a5 5 0 0 1-1.468-3.54V44.274A2.694 2.694 0 0 0 40 46.565v7.8a4.994 4.994 0 0 0 1.465 3.535l2.8 2.8A2.5 2.5 0 0 1 45 62.466v1.465h1.25v-1.465a2.5 2.5 0 0 0-.732-1.766z" transform="translate(5 6.068)" style="fill:#d2aa82"/>
        </g>
        <g data-name="Group 25716">
            <path data-name="Path 23249" d="M57.25 40.274v9.792H56v-7.635a2.493 2.493 0 0 1 1.25-2.157z" transform="translate(9 5.068)" style="fill:#d2aa82"/>
        </g>
        <g data-name="Group 25717">
            <path data-name="Path 23250" d="M52 50.064v-7.633a2.492 2.492 0 0 1 1.25-2.154v9.788z" transform="translate(8 5.069)" style="fill:#d2aa82"/>
        </g>
        <g data-name="Group 25718">
            <path data-name="Path 23251" d="M48 42.431v7.5h1.25v-9.654A2.492 2.492 0 0 0 48 42.431z" transform="translate(7 5.069)" style="fill:#d2aa82"/>
        </g>
        <g data-name="Group 25719">
            <path data-name="Path 23252" d="M44 51.931h1.25V32.277A2.489 2.489 0 0 0 44 34.431v17.5z" transform="translate(6 3.069)" style="fill:#d2aa82"/>
        </g>
        <g data-name="Group 25720" transform="translate(50)">
            <circle data-name="Ellipse 1045" cx="10" cy="10" r="10" style="fill:#3cc8b4"/>
        </g>
        <g data-name="Group 25721">
            <path data-name="Path 23253" d="M46.5 14a10 10 0 0 1 8.75-9.914 10 10 0 1 0 0 19.827A10 10 0 0 1 46.5 14z" transform="translate(6 -4)" style="fill:#1eaa96"/>
        </g>
        <g data-name="Group 25722">
            <path data-name="Path 23254" d="M59.5 10.5 52 18l-5-5 2.5-2.5L52 13l5-5z" transform="translate(6.75 -3)" style="fill:#f0f0f0"/>
        </g>
    </g>
</svg>
