<svg xmlns="http://www.w3.org/2000/svg" width="70" height="76" viewBox="0 0 70 76">
    <g data-name="Group 26621">
        <path data-name="Rectangle 6844" style="fill:none" d="M0 0h70v76H0z"/>
        <path data-name="Path 24096" d="M58.917 32.133H7.115A7.123 7.123 0 0 0 0 39.248V46.5a1.935 1.935 0 0 0 1.935 1.935H64.1a1.935 1.935 0 0 0 1.932-1.935v-7.252a7.123 7.123 0 0 0-7.115-7.115z" transform="translate(1.984 -23.005)" style="fill:#ff5b5b"/>
        <path data-name="Path 24097" d="M281.9 32.133H256v16.3h31.082a1.935 1.935 0 0 0 1.935-1.935v-7.25a7.123 7.123 0 0 0-7.117-7.115z" transform="translate(-221 -23.005)" style="fill:#ff0059"/>
        <g data-name="Group 26564">
            <g data-name="Group 26563">
                <g data-name="Group 26562">
                    <path data-name="Path 24098" d="M194.734 12.158a1.935 1.935 0 0 1-1.935-1.935V1.935a1.935 1.935 0 0 1 3.869 0v8.288a1.935 1.935 0 0 1-1.934 1.935z" transform="translate(-165.95 4.984)" style="fill:#c5e1e6"/>
                </g>
            </g>
        </g>
        <g data-name="Group 26567">
            <g data-name="Group 26566">
                <g data-name="Group 26565">
                    <path data-name="Path 24099" d="M98.335 12.158a1.935 1.935 0 0 1-1.935-1.935V1.935a1.935 1.935 0 0 1 3.869 0v8.288a1.935 1.935 0 0 1-1.934 1.935z" transform="translate(-81.983 4.984)" style="fill:#c5e1e6"/>
                </g>
            </g>
        </g>
        <g data-name="Group 26570">
            <g data-name="Group 26569">
                <g data-name="Group 26568">
                    <path data-name="Path 24100" d="M387.535 12.158a1.935 1.935 0 0 1-1.935-1.935V1.935a1.935 1.935 0 0 1 3.869 0v8.288a1.935 1.935 0 0 1-1.934 1.935z" transform="translate(-333.885 4.984)" style="fill:#8db9c4"/>
                </g>
            </g>
        </g>
        <g data-name="Group 26573">
            <g data-name="Group 26572">
                <g data-name="Group 26571">
                    <path data-name="Path 24101" d="M291.134 12.158a1.935 1.935 0 0 1-1.935-1.935V1.935a1.935 1.935 0 0 1 3.869 0v8.288a1.935 1.935 0 0 1-1.934 1.935z" transform="translate(-249.917 4.984)" style="fill:#8db9c4"/>
                </g>
            </g>
        </g>
        <g data-name="Group 26595">
            <g data-name="Group 26575">
                <path data-name="Path 24102" d="M0 143.533v40.406a7.123 7.123 0 0 0 7.115 7.115h51.8a7.123 7.123 0 0 0 7.115-7.115v-40.406z" transform="translate(1.984 -120.038)" style="fill:#e7f0ef"/>
                <g data-name="Group 26574">
                    <path data-name="Path 24103" d="M256 191.054h25.9a7.123 7.123 0 0 0 7.115-7.115v-40.406H256z" transform="translate(-221 -120.038)" style="fill:#c5e1e6"/>
                </g>
            </g>
            <g data-name="Group 26578">
                <g data-name="Group 26577">
                    <g data-name="Group 26576">
                        <path data-name="Path 24104" d="M82.522 221.024h-8.288a1.935 1.935 0 0 1-1.934-1.934v-8.29a1.935 1.935 0 0 1 1.935-1.935h8.289a1.935 1.935 0 0 1 1.935 1.935v8.288a1.935 1.935 0 0 1-1.937 1.936zm-6.354-3.869h4.42v-4.419h-4.42z" transform="translate(-60.991 -176.946)" style="fill:#265c76"/>
                    </g>
                </g>
            </g>
            <g data-name="Group 26581">
                <g data-name="Group 26580">
                    <g data-name="Group 26579">
                        <path data-name="Path 24105" d="M355.656 221.024h-8.288a1.935 1.935 0 0 1-1.935-1.935V210.8a1.935 1.935 0 0 1 1.935-1.935h8.288a1.935 1.935 0 0 1 1.935 1.935v8.288a1.935 1.935 0 0 1-1.935 1.936zm-6.354-3.869h4.419v-4.419H349.3z" transform="translate(-298.899 -176.946)" style="fill:#1d4659"/>
                    </g>
                </g>
            </g>
            <g data-name="Group 26584">
                <g data-name="Group 26583">
                    <g data-name="Group 26582">
                        <path data-name="Path 24106" d="M82.522 349.557h-8.288a1.935 1.935 0 0 1-1.935-1.935v-8.288a1.935 1.935 0 0 1 1.935-1.935h8.289a1.935 1.935 0 0 1 1.935 1.935v8.288a1.935 1.935 0 0 1-1.936 1.935zm-6.354-3.869h4.42v-4.419h-4.42z" transform="translate(-60.991 -288.902)" style="fill:#265c76"/>
                    </g>
                </g>
            </g>
            <g data-name="Group 26587">
                <g data-name="Group 26586">
                    <g data-name="Group 26585">
                        <path data-name="Path 24107" d="M355.656 349.557h-8.288a1.935 1.935 0 0 1-1.935-1.935v-8.288a1.935 1.935 0 0 1 1.935-1.935h8.288a1.935 1.935 0 0 1 1.935 1.935v8.288a1.935 1.935 0 0 1-1.935 1.935zm-6.354-3.869h4.419v-4.419H349.3z" transform="translate(-298.899 -288.902)" style="fill:#1d4659"/>
                    </g>
                </g>
            </g>
            <g data-name="Group 26590">
                <g data-name="Group 26589">
                    <g data-name="Group 26588">
                        <path data-name="Path 24108" d="M219.088 349.557H210.8a1.935 1.935 0 0 1-1.935-1.935v-8.288a1.935 1.935 0 0 1 1.935-1.934h8.289a1.935 1.935 0 0 1 1.935 1.935v8.288a1.935 1.935 0 0 1-1.936 1.934zm-6.354-3.869h4.42v-4.419h-4.42z" transform="translate(-179.944 -288.902)" style="fill:#265c76"/>
                    </g>
                </g>
            </g>
            <g data-name="Group 26594">
                <g data-name="Group 26593">
                    <g data-name="Group 26592">
                        <g data-name="Group 26591">
                            <path data-name="Path 24109" d="M211.784 228.008a1.933 1.933 0 0 1-1.368-.567l-2.931-2.931a1.935 1.935 0 1 1 2.736-2.736l1.563 1.562 4.493-4.493a1.935 1.935 0 0 1 2.736 2.736l-5.86 5.861a1.934 1.934 0 0 1-1.369.568z" transform="translate(-178.249 -185.144)" style="fill:#54e360"/>
                        </g>
                    </g>
                </g>
            </g>
        </g>
        <path data-name="Path 24110" d="M260.144 337.4H256v3.869h2.21v4.419H256v3.869h4.144a1.935 1.935 0 0 0 1.935-1.935v-8.288a1.935 1.935 0 0 0-1.935-1.934z" transform="translate(-221 -288.902)" style="fill:#1d4659"/>
        <path data-name="Path 24111" d="M261.763 218.846a1.935 1.935 0 0 0-2.736 0L256 221.874v5.472l5.763-5.764a1.934 1.934 0 0 0 0-2.736z" transform="translate(-221 -185.144)" style="fill:#00b44b"/>
    </g>
</svg>
