<svg data-name="Group 25763" xmlns="http://www.w3.org/2000/svg" width="64.195" height="70" viewBox="0 0 64.195 70">
    <g data-name="Group 25761">
        <g data-name="Group 25760">
            <g data-name="Group 25759">
                <g data-name="Group 25758">
                    <g data-name="Group 25757">
                        <path data-name="Path 23323" d="m141.366 32.613-.047-.1a18.3 18.3 0 0 1-1.664-7.7V19.24a17.87 17.87 0 0 0-12.343-16.994 17.409 17.409 0 0 0-14.139 17.1v5.43a17.832 17.832 0 0 1-1.621 7.5l-.045.1a8.689 8.689 0 0 0 6.655 12.218 12.5 12.5 0 0 0 1.7.116h16.483a8.943 8.943 0 0 0 5.021-12.097z" transform="translate(-95.577 -1.939)" style="fill:#e7a561"/>
                        <g data-name="Group 25747">
                            <path data-name="Path 23324" d="M132.667 129.993h3.392v7.981h-3.392a3.99 3.99 0 1 1 0-7.981z" transform="translate(-111.085 -112.221)" style="fill:#ffcbbe"/>
                        </g>
                        <path data-name="Path 23325" d="m245.613 30.436-.045-.1a17.829 17.829 0 0 1-1.621-7.5v-5.43A17.416 17.416 0 0 0 221.874.633 17.411 17.411 0 0 1 234.613 17.4v5.43a17.832 17.832 0 0 0 1.621 7.5l.045.1a8.689 8.689 0 0 1-6.655 12.218 12.5 12.5 0 0 1-1.7.116h9.331a12.5 12.5 0 0 0 1.7-.116 8.689 8.689 0 0 0 6.658-12.212z" transform="translate(-191.54)" style="fill:#e49542"/>
                        <g data-name="Group 25756">
                            <g data-name="Group 25755">
                                <g data-name="Group 25754">
                                    <g data-name="Group 25753">
                                        <g data-name="Group 25752">
                                            <g data-name="Group 25751">
                                                <path data-name="Path 23326" d="M188.691 238.457a13.364 13.364 0 0 0 10.263-4.79 1.7 1.7 0 0 0-.991-2.763 3.406 3.406 0 0 1-2.762-3.344v-9.354h-13.02v9.354a3.406 3.406 0 0 1-2.762 3.344 1.7 1.7 0 0 0-.991 2.763 13.364 13.364 0 0 0 10.263 4.79z" transform="translate(-153.691 -188.373)" style="fill:#ffcbbe"/>
                                                <path data-name="Path 23327" d="M163.424 320.49v17l1.154 1.23h23.007l1.153-1.23v-17a21.664 21.664 0 0 0-.291-3.526 20.822 20.822 0 0 0-5.145-2.785 10.555 10.555 0 0 1-16.628-2.905l-1.306.251a21.667 21.667 0 0 0-1.944 8.965z" transform="translate(-141.081 -268.716)" style="fill:#f9f6f9"/>
                                                <path data-name="Path 23328" d="m306.553 311.422-.07-.148a10.613 10.613 0 0 1-2.9 3.519 20.029 20.029 0 0 1 4.753 2.429 20.91 20.91 0 0 0-1.783-5.8z" transform="translate(-262.076 -268.717)" style="fill:#dddaec"/>
                                                <g data-name="Group 25749">
                                                    <g data-name="Group 25748">
                                                        <path data-name="Path 23329" d="M42.461 331.529v3.687a3.337 3.337 0 0 0 3.337 3.337h5.192v-.526h2.11v.526h7.05v-18.07a20.912 20.912 0 0 1 2.231-9.4l-3.61.695a20.112 20.112 0 0 0-16.31 19.751z" transform="translate(-36.656 -268.553)" style="fill:#9bc4f9"/>
                                                    </g>
                                                    <path data-name="Path 23331" d="M336.8 346.316a20.925 20.925 0 0 1 .457 4.337v18.314h7.05v-.526h2.113v.526h.18v-4.941a20.9 20.9 0 0 0-9.8-17.71z" transform="translate(-290.753 -298.968)" style="fill:#9bc4f9"/>
                                                    <path data-name="Path 23332" d="m328.284 311.943-.075-.014-3.4-.654.07.148a20.919 20.919 0 0 1 1.781 5.8 20.11 20.11 0 0 1 8.664 16.538v4.43h.744v.526h5.192a3.337 3.337 0 0 0 3.337-3.337v-3.687a20.113 20.113 0 0 0-16.313-19.75z" transform="translate(-280.402 -268.717)" style="fill:#7fb2f9"/>
                                                </g>
                                                <g data-name="Group 25750">
                                                    <path data-name="Path 23333" d="M106.955 465.262v-6.3a1.056 1.056 0 0 0-2.113 0V465.298h2.109c.002-.013.004-.024.004-.036z" transform="translate(-90.508 -395.298)" style="fill:#61a2f9"/>
                                                    <path data-name="Path 23334" d="M392.763 457.9a1.056 1.056 0 0 0-1.056 1.056v6.34h2.113v-6.34a1.056 1.056 0 0 0-1.057-1.056z" transform="translate(-338.153 -395.298)" style="fill:#61a2f9"/>
                                                </g>
                                            </g>
                                        </g>
                                    </g>
                                </g>
                            </g>
                            <path data-name="Path 23335" d="M331.058 130.848h4.27a3.281 3.281 0 0 0 3.281-3.281v-4.1a3.281 3.281 0 0 0-3.281-3.281h-4.27z" transform="translate(-285.796 -103.754)" style="fill:#365e7d"/>
                            <path data-name="Path 23336" d="M191.625 98.479a18.383 18.383 0 0 1-1.443-7.2v-5.573a17.824 17.824 0 0 0-1.084-6.14 5.785 5.785 0 0 0-6.036 1.4 6.66 6.66 0 0 1-4.745 1.987h-5.21a3.863 3.863 0 0 0-3.863 3.863v6.371a11.862 11.862 0 0 0 22.383 5.3z" transform="translate(-146.104 -68.404)" style="fill:#ffddce"/>
                            <path data-name="Path 23337" d="M310.838 85.32a5.784 5.784 0 0 0-5.056-5.737 17.348 17.348 0 0 1 1.267 6.524v5.43a17.83 17.83 0 0 0 1.621 7.5l.045.1c.087.19.166.382.238.574a11.809 11.809 0 0 0 1.882-6.231z" transform="translate(-263.976 -68.703)" style="fill:#ffcbbe"/>
                        </g>
                    </g>
                </g>
            </g>
        </g>
    </g>
    <path data-name="Path 23338" d="M313.284 197.362h-1.141v3.148a1.509 1.509 0 0 1-1.508 1.508h-4.087a1.025 1.025 0 1 0 0 2.051h4.087a3.563 3.563 0 0 0 3.559-3.559v-3.277a3.282 3.282 0 0 1-.91.129z" transform="translate(-263.753 -170.268)" style="fill:#f9f6f9"/>
    <g data-name="Group 25762">
        <path data-name="Path 23339" d="M271.866 227.967h-3.2a2.214 2.214 0 1 1 0-4.428h3.2a2.214 2.214 0 1 1 0 4.428z" transform="translate(-230.02 -192.977)" style="fill:#475959"/>
    </g>
</svg>
