<svg xmlns="http://www.w3.org/2000/svg" width="70" height="76" viewBox="0 0 70 76">
    <g data-name="Group 26623">
        <path data-name="Rectangle 6844" style="fill:none" d="M0 0h70v76H0z"/>
        <g transform="translate(-47.92 -22.139)">
            <path data-name="Path 24180" d="M101.266 83.689H56.1a.743.743 0 0 1-.741-.742V26.741A.743.743 0 0 1 56.1 26h45.171a.743.743 0 0 1 .741.742v56.205a.743.743 0 0 1-.746.742z" style="fill-rule:evenodd;fill:#cacbcd"/>
            <path data-name="Path 24181" d="M100.983 89.309H56.1a.743.743 0 0 1-.741-.742V32.6h44.888a.743.743 0 0 1 .741.742z" transform="translate(0 -5.62)" style="fill:#eceff0;fill-rule:evenodd"/>
            <path data-name="Path 24182" d="M203.325 93.025H194.3a.742.742 0 0 1 0-1.485h9.025a.742.742 0 0 1 0 1.485zm9.287-17.167h-15.406a.742.742 0 0 1 0-1.484h15.406a.742.742 0 0 1 0 1.484zm-3.837 3.589h-7.122a.742.742 0 0 1 0-1.485h7.122a.742.742 0 0 1 0 1.485zm5.058 18.126H194.3a.742.742 0 0 1 0-1.484h19.533a.742.742 0 0 1 0 1.484zm0 4.549H194.3a.742.742 0 0 1 0-1.484h19.533a.742.742 0 0 1 0 1.484zm-10.508 7.148H194.3a.742.742 0 0 1 0-1.484h9.025a.742.742 0 0 1 0 1.484zm10.508 4.55H194.3a.742.742 0 0 1 0-1.485h19.533a.742.742 0 0 1 0 1.485zm0 4.549H194.3a.742.742 0 0 1 0-1.484h19.533a.742.742 0 0 1 0 1.484z" transform="translate(-117.69 -41.195)" style="fill:#615260;fill-rule:evenodd"/>
            <path data-name="Path 24183" d="M110.234 200.609h-9.1a.738.738 0 0 1-.741-.742v-9.1a.739.739 0 0 1 .741-.743h9.1a.743.743 0 0 1 .741.743v9.1a.743.743 0 0 1-.741.742z" transform="translate(-38.355 -139.68)" style="fill:#cf515a;fill-rule:evenodd"/>
            <path data-name="Path 24184" d="M110.084 205.462h-8.949a.738.738 0 0 1-.741-.742v-8.995h8.949a.743.743 0 0 1 .741.743v8.994z" transform="translate(-38.355 -144.533)" style="fill:#ef525f;fill-rule:evenodd"/>
            <path data-name="Path 24185" d="M110.234 310.066h-9.1a.738.738 0 0 1-.741-.742v-9.1a.738.738 0 0 1 .741-.742h9.1a.743.743 0 0 1 .741.742v9.1a.743.743 0 0 1-.741.742z" transform="translate(-38.355 -232.89)" style="fill:#5ca882;fill-rule:evenodd"/>
            <path data-name="Path 24186" d="M110.084 314.92h-8.949a.738.738 0 0 1-.741-.742v-8.995h8.949a.743.743 0 0 1 .741.742v8.995z" transform="translate(-38.355 -237.744)" style="fill:#60c090;fill-rule:evenodd"/>
            <path data-name="Path 24187" d="M120.666 216.379a.736.736 0 0 1-.523-.217l-1.221-1.22a.741.741 0 1 1 1.046-1.049l.7.7 1.918-1.916a.741.741 0 0 1 1.046 1.05l-2.442 2.44a.737.737 0 0 1-.523.217z" transform="translate(-53.946 -158.779)" style="fill:#615260;fill-rule:evenodd"/>
            <path data-name="Path 24188" d="M120.666 325.834a.736.736 0 0 1-.523-.217l-1.221-1.221a.741.741 0 0 1 1.046-1.049l.7.7 1.918-1.916a.741.741 0 1 1 1.046 1.049l-2.442 2.441a.737.737 0 0 1-.523.217z" transform="translate(-53.946 -251.988)" style="fill:#615260;fill-rule:evenodd"/>
            <path data-name="Path 24189" d="M109.277 113.563H96.386a.743.743 0 0 1-.741-.742 7.187 7.187 0 1 1 14.374 0 .739.739 0 0 1-.742.742z" transform="translate(-34.311 -67.814)" style="fill:#6e9fc1;fill-rule:evenodd"/>
            <path data-name="Path 24190" d="M108.925 118.928H96.386a.743.743 0 0 1-.741-.742 7.163 7.163 0 0 1 1.993-4.962 7.182 7.182 0 0 1 11.287 5.7z" transform="translate(-34.311 -73.179)" style="fill:#76b4e2;fill-rule:evenodd"/>
            <path data-name="Path 24191" d="M121.759 70.992a3.89 3.89 0 1 1 3.888-3.89 3.894 3.894 0 0 1-3.888 3.89z" transform="translate(-53.237 -31.689)" style="fill:#ceafa6;fill-rule:evenodd"/>
            <path data-name="Path 24192" d="M121.759 73.419a2.99 2.99 0 1 1 1.5-.3 3.894 3.894 0 0 1-1.5.3z" transform="translate(-53.237 -34.115)" style="fill:#f0ccbe;fill-rule:evenodd"/>
            <path data-name="Path 24193" d="M305.046 386.64a.818.818 0 0 1-.167-.017.743.743 0 0 1-.552-.533l-2.994-11.171-2.994 11.171a.743.743 0 0 1-1.286.286l-2.34-2.783-3.423 1.237a.745.745 0 0 1-.756-.151.758.758 0 0 1-.218-.739l3.772-14.069a.74.74 0 0 1 .93-.518l6.315 1.922 6.315-1.922a.74.74 0 0 1 .93.518l3.772 14.069a.758.758 0 0 1-.218.739.743.743 0 0 1-.756.151l-3.423-1.237-2.34 2.783a.753.753 0 0 1-.567.264z" transform="translate(-200.067 -292.362)" style="fill:#d9b667;fill-rule:evenodd"/>
            <path data-name="Path 24194" d="M304.449 386.342a.76.76 0 0 1-.122-.252l-2.994-11.171-.347 1.294-.421-1.571-2.994 11.171a.743.743 0 0 1-.546.531l-2.67-3.175-3.833 1.385a.325.325 0 1 1-.206-.613l3.771-14.069a.74.74 0 0 1 .93-.518l6.315 1.922 6.315-1.922.04-.011a.73.73 0 0 1 .122.252l3.772 14.069a.758.758 0 0 1-.218.739.743.743 0 0 1-.751.153l-3.427-1.239-2.34 2.783a.759.759 0 0 1-.396.242z" transform="translate(-200.067 -292.362)" style="fill:#ffd46d;fill-rule:evenodd"/>
            <path data-name="Path 24195" d="M283.312 270.353a2.356 2.356 0 0 1-1.8-.834l-1.337-1.552a.836.836 0 0 0-.516-.3l-2.013-.378a2.377 2.377 0 0 1-1.9-1.9l-.378-2.011a.786.786 0 0 0-.3-.517l-1.548-1.334a2.364 2.364 0 0 1-.7-2.6l.676-1.931a.842.842 0 0 0 0-.6l-.676-1.93a2.365 2.365 0 0 1 .7-2.6l1.548-1.333a.787.787 0 0 0 .3-.517l.378-2.011a2.377 2.377 0 0 1 1.9-1.9l2.013-.378a.833.833 0 0 0 .516-.3l1.337-1.552a2.361 2.361 0 0 1 2.594-.7l1.933.679a.834.834 0 0 0 .6 0l1.933-.679a2.361 2.361 0 0 1 2.594.7l1.337 1.552a.833.833 0 0 0 .516.3l2.013.378a2.376 2.376 0 0 1 1.9 1.9l.378 2.011a.786.786 0 0 0 .3.517l1.548 1.333a2.366 2.366 0 0 1 .7 2.6l-.676 1.93a.844.844 0 0 0 0 .6l.676 1.932a2.363 2.363 0 0 1-.7 2.6l-1.548 1.334a.786.786 0 0 0-.3.517l-.378 2.011a2.377 2.377 0 0 1-1.9 1.9l-2.013.378a.833.833 0 0 0-.516.3l-1.337 1.552a2.359 2.359 0 0 1-2.594.7l-1.933-.679a.834.834 0 0 0-.6 0l-1.933.679a2.386 2.386 0 0 1-.794.133z" transform="translate(-185.069 -184.828)" style="fill:#cf515a;fill-rule:evenodd"/>
            <path data-name="Path 24196" d="M283.02 270.438a2.352 2.352 0 0 1-1.511-.816l-1.337-1.552a.836.836 0 0 0-.516-.3l-2.013-.378a2.377 2.377 0 0 1-1.9-1.9l-.378-2.011a.786.786 0 0 0-.3-.517l-1.548-1.334a2.364 2.364 0 0 1-.7-2.6l.676-1.931a.842.842 0 0 0 0-.6l-.676-1.93a2.365 2.365 0 0 1 .7-2.6l1.548-1.333a.787.787 0 0 0 .3-.517l.378-2.011a2.377 2.377 0 0 1 1.9-1.9l2.013-.378a.833.833 0 0 0 .516-.3l1.337-1.552a2.358 2.358 0 0 1 1.51-.816 2.4 2.4 0 0 1 .506.119l1.933.679a57.974 57.974 0 0 0 1.175 0l1.933-.679a2.4 2.4 0 0 1 .506-.119 2.359 2.359 0 0 1 1.51.816l1.337 1.552a.833.833 0 0 0 .516.3l2.013.378a2.376 2.376 0 0 1 1.9 1.9l.378 2.011a.786.786 0 0 0 .3.517l1.548 1.333a2.365 2.365 0 0 1 .7 2.6l-.676 1.93a.843.843 0 0 0 0 .6l.676 1.932a2.363 2.363 0 0 1-.7 2.6l-1.548 1.334a.786.786 0 0 0-.3.517l-.378 2.011a2.377 2.377 0 0 1-1.9 1.9l-2.013.378a.832.832 0 0 0-.516.3l-1.337 1.552a2.359 2.359 0 0 1-1.51.816 2.391 2.391 0 0 1-.506-.119l-1.933-.679a57.678 57.678 0 0 0-1.175 0l-1.933.679a2.412 2.412 0 0 1-.505.118z" transform="translate(-185.069 -184.931)" style="fill:#ef525f;fill-rule:evenodd"/>
            <circle data-name="Ellipse 1101" cx="9.294" cy="9.294" r="9.294" transform="translate(91.971 62.576)" style="fill:#d9b667"/>
            <ellipse data-name="Ellipse 1102" cx="8.893" cy="9.285" rx="8.893" ry="9.285" transform="translate(91.971 62.585)" style="fill:#ffd46d"/>
            <path data-name="Path 24197" d="M337.385 319.557a.74.74 0 0 1-.523-.217l-2.529-2.527a.744.744 0 0 1 1.054-1.049l2 2 4.527-4.527a.744.744 0 1 1 1.054 1.049l-5.058 5.053a.741.741 0 0 1-.525.218z" transform="translate(-237.383 -244.418)" style="fill:#eceff0;fill-rule:evenodd"/>
        </g>
    </g>
</svg>
