<svg xmlns="http://www.w3.org/2000/svg" width="70" height="76" viewBox="0 0 70 76">
    <g data-name="Group 26625">
        <path data-name="Rectangle 6844" style="fill:none" d="M0 0h70v76H0z"/>
        <g data-name="Group 26686">
            <g data-name="Group 26668">
                <g data-name="Group 26663">
                    <g data-name="Group 26661">
                        <path data-name="Path 24198" d="M143.6 53.173a1.022 1.022 0 0 1-.825-.417 5.543 5.543 0 0 0-5.195-2.438 10.285 10.285 0 0 1-6.72-1.527 1.024 1.024 0 0 1 1.1-1.725 8.256 8.256 0 0 0 5.4 1.216 7.616 7.616 0 0 1 7.061 3.26 1.024 1.024 0 0 1-.824 1.631z" transform="translate(-112.218 -36.614)" style="fill:#ffd064"/>
                    </g>
                    <g data-name="Group 26662">
                        <path data-name="Path 24199" d="M142.51 94.889a1.024 1.024 0 0 1-.872-1.56c1.312-2.138 3.717-3.607 6.955-4.249a18.564 18.564 0 0 1 4.424-.334 1.024 1.024 0 0 1-.139 2.043c-.071 0-7.023-.417-9.5 3.611a1.023 1.023 0 0 1-.868.489z" transform="translate(-121.849 -72.893)" style="fill:#ffd064"/>
                    </g>
                </g>
                <g data-name="Group 26667">
                    <g data-name="Group 26666">
                        <path data-name="Path 24200" d="M130.777 57.152c16.814 0 26.111-24.663-.441-43.711a2.491 2.491 0 0 1-1.044-2.05 3.332 3.332 0 0 1 .605-1.874A48.454 48.454 0 0 0 134 2.259a.843.843 0 0 0-.8-1.216C131.61 1.044 131.61 0 130.016 0s-1.595 1.044-3.19 1.044c-1.359 0-1.917-1.169-2.577-.319-1.927 2.48 4.673 11.2 4.673 11.2-29.151 19.165-19.752 45.227-2.541 45.227h4.4z" transform="translate(-94.684 4.075)" style="fill:#eabc6b"/>
                        <g data-name="Group 26664">
                            <path data-name="Path 24201" d="M252.632 11.927S259.33 3.233 257.4.739c-.656-.85-1.216.3-2.574.3-1.6 0-1.6-1.044-3.19-1.044s-1.6 1.044-3.19 1.044c-.079 0-.15 0-.221-.009-.641 2.747-3.529 7.027-5.181 9.318a43.613 43.613 0 0 0 1.119 1.574q-.583.383-1.145.771c27.851 19.143 18.532 44.454 1.5 44.454h10.755c17.263 0 26.6-26-2.644-45.225z" transform="translate(-209.929 4.075)" style="fill:#e8ae4d"/>
                        </g>
                        <g data-name="Group 26665">
                            <path data-name="Path 24202" d="M237.136 81.317a23.3 23.3 0 0 1-11.63 0 2.483 2.483 0 0 1-1.635-3.251l.016-.047a2.291 2.291 0 0 1 2.7-1.527 18.935 18.935 0 0 0 9.459 0 2.291 2.291 0 0 1 2.7 1.527l.016.047a2.483 2.483 0 0 1-1.626 3.251z" transform="translate(-193.187 -62.222)" style="fill:#ffe07d"/>
                        </g>
                    </g>
                </g>
            </g>
            <g data-name="Group 26685">
                <g data-name="Group 26684">
                    <g data-name="Group 26683">
                        <g data-name="Group 26682">
                            <g data-name="Group 26681">
                                <g data-name="Group 26680">
                                    <g data-name="Group 26679">
                                        <g data-name="Group 26678">
                                            <g data-name="Group 26677">
                                                <g data-name="Group 26676">
                                                    <g data-name="Group 26675">
                                                        <g data-name="Group 26674">
                                                            <g data-name="Group 26669">
                                                                <path data-name="Path 24203" d="m48.777 338.994 14.823 5.517a11.281 11.281 0 0 0 3.935.709h15.276a11.279 11.279 0 0 0 6.037-1.752l19.127-12.12a3.357 3.357 0 0 0 .546-4.4c-1.039-1.527-2.757-1.792-4.648-.9l-18.622 8.2.022-3.021a5.408 5.408 0 0 0-4.624-4.819L69.31 325.1c-2.616-.37-3.923-1.247-6.2-2.581a20.326 20.326 0 0 0-10.263-2.781h-4.07z" transform="translate(-41.425 -273.295)" style="fill:#ffddce"/>
                                                            </g>
                                                            <path data-name="Path 24204" d="M62.7 341.571a11.859 11.859 0 0 0 4.136.745H82.9a11.857 11.857 0 0 0 4.935-1.077l11.229-7.116a3.468 3.468 0 0 0 1.061-4.933s-.342-.586-.693-1.182l-14.18 6.242.022-3.021a5.408 5.408 0 0 0-4.624-4.819l-11.34-1.31c-2.616-.37-3.923-1.247-6.2-2.581a20.326 20.326 0 0 0-10.263-2.781h-4.07v16.647z" transform="translate(-41.425 -273.295)" style="fill:#ffddce"/>
                                                            <path data-name="Path 24205" d="M108.522 364.9c-1.039-1.527-2.757-1.792-4.648-.9l-5.122 2.255.445.706a3.357 3.357 0 0 1-.546 4.4l-11.145 7.062a11.279 11.279 0 0 1-4.695 1.024H67.535a11.279 11.279 0 0 1-3.935-.709l-14.823-5.517v3.722l14.823 5.52a11.279 11.279 0 0 0 3.935.709h15.276a11.279 11.279 0 0 0 6.037-1.752l19.127-12.12a3.357 3.357 0 0 0 .546-4.4z" transform="translate(-41.425 -311.247)" style="fill:#ffcbbe"/>
                                                            <g data-name="Group 26670">
                                                                <path data-name="Path 24206" d="M313.691 382.938v.073l.048-.021z" transform="translate(-271.232 -328.116)" style="fill:#f5dbcc"/>
                                                            </g>
                                                            <g data-name="Group 26673">
                                                                <g data-name="Group 26672">
                                                                    <g data-name="Group 26671">
                                                                        <path data-name="Path 24207" d="M241.517 415.807h-11.579a1.024 1.024 0 0 1 0-2.048h11.594z" transform="translate(-197.691 -354.853)" style="fill:#ffcbbe"/>
                                                                    </g>
                                                                </g>
                                                            </g>
                                                        </g>
                                                    </g>
                                                    <path data-name="Path 24208" d="M16.585 318.46a1.947 1.947 0 0 1-1.947 1.947h-4.7a1.947 1.947 0 0 1-1.948-1.947v-23.845a1.947 1.947 0 0 1 1.947-1.947h4.7a1.947 1.947 0 0 1 1.947 1.947z" transform="translate(-6.043 -249.809)" style="fill:#407093"/>
                                                </g>
                                            </g>
                                        </g>
                                    </g>
                                </g>
                            </g>
                        </g>
                    </g>
                </g>
            </g>
        </g>
        <path data-name="Path 24209" d="M247.5 163.8c-.469-.166-.9-.324-1.3-.477V156.8a4.207 4.207 0 0 1 1.991.874 1.024 1.024 0 0 0 1.383-1.51 6.34 6.34 0 0 0-3.374-1.432v-1.456a1.024 1.024 0 0 0-2.048 0v1.539a7.57 7.57 0 0 0-.76.186 4.95 4.95 0 0 0-3.392 3.883 4.33 4.33 0 0 0 1.407 4.268 12.4 12.4 0 0 0 2.741 1.549v8.1a5.435 5.435 0 0 1-3.184-1.1 1.024 1.024 0 1 0-1.121 1.713 7.5 7.5 0 0 0 4.305 1.438v1.625a1.024 1.024 0 1 0 2.048 0v-1.7a6 6 0 0 0 4.916-4.963 5.251 5.251 0 0 0-3.612-6.014zm-4.823-2.261a2.308 2.308 0 0 1-.658-2.278 2.929 2.929 0 0 1 1.966-2.3c.057-.017.113-.032.169-.047v5.53a8.63 8.63 0 0 1-1.482-.903zm6.421 7.929a3.988 3.988 0 0 1-2.9 3.21v-7.168c.2.073.4.146.616.222a3.223 3.223 0 0 1 2.281 3.737z" transform="translate(-206.77 -127.999)" style="fill:#fff"/>
    </g>
</svg>
