<svg xmlns="http://www.w3.org/2000/svg" width="69.727" height="70" viewBox="0 0 69.727 70">
    <g data-name="Group 25677">
        <g data-name="Group 25676">
            <path data-name="Path 23205" d="M35.361 452.924H3.4c-1.781 0-2.842-.989-2.9-2.256v6.189a2.2 2.2 0 0 0 2.192 2.2h65.329a2.2 2.2 0 0 0 2.192-2.2v-6.048c-.125 1.2-1.175 2.115-2.887 2.115zm0 0" transform="translate(-.5 -389.053)" style="fill-rule:evenodd;fill:#91561a"/>
            <path data-name="Path 23206" d="m3.172 396.048-2.042 2.915a3.25 3.25 0 0 0-.63 1.7v.214c.057 1.267 1.118 2.256 2.9 2.256h63.927c1.712 0 2.762-.916 2.887-2.115a3.03 3.03 0 0 0-.622-2.059l-2.043-2.915c-.924-1.32-2.055-2.923-3.637-3.044l-1.078-.008c-1.849 1.6-5.664 2.12-9.944 2.12H17.323c-4.276 0-8.095-.521-9.94-2.12-.076 0-.532 0-.605.008-1.563.146-2.685 1.736-3.606 3.048zm0 0" transform="translate(-.5 -339.266)" style="fill:#b5722f;fill-rule:evenodd"/>
            <path data-name="Path 23207" d="M43.113 340.24c-1.352 2.555-1.058 4.308.3 5.483 1.845 1.6 5.664 2.12 9.94 2.12h1.142l4.275-4.021-5.083-3.973c-3.881-3.032-7.893-1.135-10.574.391zm0 0" transform="translate(-36.528 -291.993)" style="fill:#ffdda6;fill-rule:evenodd"/>
            <path data-name="Path 23208" d="m361.263 344.85-3.169 3.985 2.362 4.009h1.139c4.279 0 8.094-.521 9.943-2.12 1.353-1.175 1.651-2.927.3-5.483-2.687-1.525-5.795-1.558-10.575-.391zm0 0" transform="translate(-309.204 -296.994)" style="fill:#ffdda6;fill-rule:evenodd"/>
            <path data-name="Path 23209" d="M62.209 235.692c-5.01.266-6.9 3.036-9.313 7.59l-4.235 8c2.681-1.526 5.789-1.558 10.573-.391h34.9c4.78-1.167 7.889-1.135 10.573.391l-4.239-8c-2.41-4.554-4.3-7.319-9.31-7.59a10.367 10.367 0 0 1-2.947-.5l-23.112.016a10.337 10.337 0 0 1-2.89.484zm0 0" transform="translate(-42.076 -203.036)" style="fill:#64b0d9;fill-rule:evenodd"/>
            <path data-name="Path 23210" d="M329.479 107.977c-3.375 2.539-2.229 4.627-.2 5.79a3.631 3.631 0 0 0 3.391-3.246v-1.264a1.283 1.283 0 0 0-1.28-1.28zm0 0" transform="translate(-282.653 -93.214)" style="fill:#eda93b;fill-rule:evenodd"/>
            <path data-name="Path 23211" d="M134.559 110.52a3.631 3.631 0 0 0 3.388 3.246l2.567-3.161-2.765-2.629h-1.909a1.283 1.283 0 0 0-1.28 1.28zm0 0" transform="translate(-116.23 -93.214)" style="fill:#eda93b;fill-rule:evenodd"/>
            <path data-name="Path 23212" d="m375.763 363.1-.4 3.921h1.139c4.279 0 8.094-.521 9.943-2.12 1.163-1.009 1.547-2.443.775-4.449a3.924 3.924 0 0 1-.509.529c-1.849 1.6-5.664 2.119-9.943 2.119zm0 0" transform="translate(-324.116 -311.172)" style="fill:#fcc368;fill-rule:evenodd"/>
            <path data-name="Path 23213" d="M42.6 360.9c-.743 1.974-.355 3.391.8 4.388 1.845 1.6 5.664 2.12 9.939 2.12h1.142l-.4-4h-1.146c-4.275 0-8.094-.521-9.939-2.12a4.038 4.038 0 0 1-.396-.388zm0 0" transform="translate(-36.516 -311.557)" style="fill:#fcc368;fill-rule:evenodd"/>
            <path data-name="Path 23214" d="M320.473 237.687a11.065 11.065 0 0 0 2.62.4c5.01.267 6.9 3.032 9.313 7.586l2.33 4.4a9.458 9.458 0 0 1 4.623 1.211l-4.239-8c-2.41-4.554-4.3-7.319-9.31-7.59a10.345 10.345 0 0 1-2.947-.5 7.888 7.888 0 0 1-2.39 2.493zm0 0" transform="translate(-276.726 -203.036)" style="fill:#4a83c9;fill-rule:evenodd"/>
            <path data-name="Path 23215" d="M169.153 186.257c4.324 6.548 19.2 5.967 22.862-.367a7.26 7.26 0 0 1-3.125-2.265c-.359-.408-1.344-1.377-1.4-1.449l-6.455-4.094-7.941 4.494c-.327.331-.787.8-1.009 1.049a7.226 7.226 0 0 1-3.181 2.281c.067.121.172.234.249.351zm0 0" transform="translate(-145.879 -153.735)" style="fill:#fcc368;fill-rule:evenodd"/>
            <path data-name="Path 23216" d="M158.085 75.785a15.4 15.4 0 0 0 5.5 8.289 14.613 14.613 0 0 0 3.23 1.95c.19.081.383.158.573.23a8.123 8.123 0 0 0 6.322-.008 14.343 14.343 0 0 0 4.271-2.572 15.189 15.189 0 0 0 5.014-7.889A8.322 8.322 0 0 0 183.2 74v-6.871l-11.676-3.149-13.638 3.149V74a8.557 8.557 0 0 0 .199 1.785zm0 0" transform="translate(-136.369 -55.233)" style="fill:#ffdda6;fill-rule:evenodd"/>
            <path data-name="Path 23217" d="M265.775 88.182v6.875a8.559 8.559 0 0 1-.2 1.781 15.879 15.879 0 0 1-7.941 9.867 10.12 10.12 0 0 0 2.184-.577 12.134 12.134 0 0 0 1.2-.521 14.959 14.959 0 0 0 3.068-2.051 15.189 15.189 0 0 0 5.014-7.889 8.322 8.322 0 0 0 .2-1.781v-6.874a39.75 39.75 0 0 1-3.525 1.17zm0 0" transform="translate(-222.481 -75.116)" style="fill:#fcc368;fill-rule:evenodd"/>
            <path data-name="Path 23218" d="M157.887 11.9c11.05-2.98 10.154 5.761 25.309 0 7-5.095.137-14.958-7.36-10.969-3.7 1.97-8.324-.9-12.2.8-3.799 1.669-5.749 5.24-5.749 10.169zm0 0" transform="translate(-136.369)" style="fill:gray;fill-rule:evenodd"/>
            <path data-name="Path 23219" d="M284.922 1.193c6.14-.525 10.476 7.461 4.408 11.873 1.074-.3 2.245-.682 3.533-1.171 7-5.095.137-14.958-7.36-10.969a6.308 6.308 0 0 1-.581.267zm0 0" transform="translate(-246.036)" style="fill:#666;fill-rule:evenodd"/>
            <path data-name="Path 23220" d="M204.408 212.323a6.887 6.887 0 0 0 2.709 1.8c.109.036.214.073.327.105a7.876 7.876 0 0 0 2.39-2.5l-.06-.024a7.317 7.317 0 0 1-3.068-2.237c-.356-.412-1.34-1.381-1.4-1.454a14.347 14.347 0 0 1-4.271 2.572 8.124 8.124 0 0 1-6.322.008c-.19-.073-.383-.15-.574-.23a14.608 14.608 0 0 1-3.229-1.95c-.327.331-.787.8-1.009 1.049-.121.142-.238.27-.359.4q.521.466 1.078.892a15.253 15.253 0 0 0 3.371 1.95c.2.081.4.158.6.226a8.782 8.782 0 0 0 6.592 0 13.348 13.348 0 0 0 1.99-.9c.234-.13.593-.369 1.235.293zm0 0" transform="translate(-163.697 -179.583)" style="fill:#eda93b;fill-rule:evenodd"/>
            <path data-name="Path 23221" d="m43.014 398.462-1.736-3.346h-1.142c-4.276 0-8.095-.521-9.94-2.12-.076 0-.532 0-.605.008a3.535 3.535 0 0 0-2.148 1.187l-.036.036a8.863 8.863 0 0 0-.481.553c1.32 3.52 12.527 3.682 16.088 3.682zm0 0" transform="translate(-23.313 -339.266)" style="fill-rule:evenodd;fill:#91561a"/>
            <path data-name="Path 23222" d="m362.668 398.462 1.736-3.346h1.139c4.279 0 8.094-.517 9.943-2.12h.053c.214 0 .969 0 1.025.008a3.572 3.572 0 0 1 2.273 1.284h-.009a.068.068 0 0 1 .02.016l.02.02c.049.052-.024.267-.113.46-1.323 3.516-12.53 3.678-16.087 3.678zm0 0" transform="translate(-313.153 -339.266)" style="fill-rule:evenodd;fill:#91561a"/>
            <path data-name="Path 23223" d="m122.082 302.055.807 7.994.182 1.792a1.617 1.617 0 0 0 1.55 1.55h29.819a1.618 1.618 0 0 0 1.554-1.55l.182-1.792.807-7.994.61-6.044a1.508 1.508 0 0 0-1.555-1.554h-33.016a1.51 1.51 0 0 0-1.554 1.554zm0 0" transform="translate(-104.924 -254.199)" style="fill:#e6e6e6;fill-rule:evenodd"/>
            <path data-name="Path 23224" d="M230 346.036a3.266 3.266 0 1 0 3.23-2.8 3.039 3.039 0 0 0-3.23 2.8zm0 0" transform="translate(-198.62 -296.311)" style="fill:#fcc368;fill-rule:evenodd"/>
            <path data-name="Path 23225" d="m131.9 408.5.182 1.792a1.977 1.977 0 0 0 .1.46 1.544 1.544 0 0 0 1.449 1.09h29.819a1.541 1.541 0 0 0 1.449-1.09 1.955 1.955 0 0 0 .1-.46l.182-1.792zm0 0" transform="translate(-113.937 -352.65)" style="fill:#c2c7cc;fill-rule:evenodd"/>
        </g>
        <path data-name="Path 23226" d="M208.127 133.543a1.064 1.064 0 0 1-1.064-1.064v-1.191a1.065 1.065 0 1 1 2.129 0v1.191a1.065 1.065 0 0 1-1.065 1.064zm0 0" transform="translate(-178.821 -112.419)" style="fill:#666"/>
        <path data-name="Path 23227" d="M280.353 133.543a1.064 1.064 0 0 1-1.064-1.064v-1.191a1.065 1.065 0 1 1 2.129 0v1.191a1.065 1.065 0 0 1-1.065 1.064zm0 0" transform="translate(-241.173 -112.419)" style="fill:#666"/>
    </g>
</svg>
