<svg xmlns="http://www.w3.org/2000/svg" width="84.049" height="61.003" viewBox="0 0 84.049 61.003">
    <g data-name="Group 25726">
        <path data-name="Path 23255" d="M371.613 206.388v.951a10.845 10.845 0 0 0 .557 3.429l2.155 6.464h4.067v-14.911h-2.712a4.067 4.067 0 0 0-4.067 4.067z" transform="translate(-310.61 -180.631)" style="fill:#5a4146"/>
        <path data-name="Path 23256" d="m403.979 202.3-2.294 8.029-10.845-9.489a2.711 2.711 0 0 1-2.711-2.711 4.067 4.067 0 0 1 4.067-4.067h9.489a2.711 2.711 0 0 1 2.711 2.711v2.548a10.841 10.841 0 0 1-.417 2.979z" transform="translate(-324.415 -173.73)" style="fill:#694b4b"/>
        <path data-name="Rectangle 6561" transform="translate(66.425 40.67)" style="fill:#e6af78" d="M0 0h8.134v6H0z"/>
        <path data-name="Path 23257" d="M404.645 320.425a10.757 10.757 0 0 0 8.134 0v-2.49h-8.134v2.49z" transform="translate(-338.219 -277.266)" style="fill:#d29b6e"/>
        <path data-name="Path 23258" d="m371 339.837-6.54-1.868-4.066 2.7-4.067-2.7-6.54 1.869a4.067 4.067 0 0 0-2.95 3.91v9.911a1.356 1.356 0 0 0 1.356 1.356h24.4a1.356 1.356 0 0 0 1.356-1.356v-9.911a4.067 4.067 0 0 0-2.949-3.911z" transform="translate(-289.903 -294.011)" style="fill:#d5dced"/>
        <path data-name="Path 23259" d="M423.872 368.818h-2.711l.678-14.334h1.356z" transform="translate(-352.024 -307.815)" style="fill:#afb9d2"/>
        <path data-name="Path 23260" d="M388 250.351a8.134 8.134 0 0 1-8.134-8.134v-1.588a2.712 2.712 0 0 1 .794-1.917l2.458-2.458a2.68 2.68 0 0 1 1.968-.8c4.333.137 8.169 1.065 10.266 3.113a2.676 2.676 0 0 1 .781 1.92v1.727a8.134 8.134 0 0 1-8.133 8.137z" transform="translate(-317.512 -208.326)" style="fill:#f0c087"/>
        <path data-name="Path 23261" d="M383.938 240.964a2.706 2.706 0 0 1 2.874-2.707c2.737.175 6.8.632 9.289 1.83a2.62 2.62 0 0 0-.743-1.519c-2.1-2.048-5.932-2.976-10.266-3.113a2.68 2.68 0 0 0-1.968.8l-2.458 2.458a2.711 2.711 0 0 0-.794 1.917v1.588a8.132 8.132 0 0 0 5.88 7.81 8.067 8.067 0 0 1-1.813-5.1v-3.963z" transform="translate(-317.512 -208.325)" style="fill:#e6af78"/>
        <path data-name="Path 23262" d="M478.968 365.369a4.067 4.067 0 0 1 1.191-2.876l3.489-3.49a4.051 4.051 0 0 1 .742 2.326v9.911a1.356 1.356 0 0 1-1.356 1.356h-4.067v-7.228z" transform="translate(-400.342 -311.593)" style="fill:#c7cfe2"/>
        <path data-name="Path 23263" d="M423.194 357.2h-1.356a.678.678 0 0 1-.678-.678v-2.033h2.711v2.033a.678.678 0 0 1-.677.678z" transform="translate(-352.024 -307.815)" style="fill:#959cb5"/>
        <g data-name="Group 25724">
            <path data-name="Path 23264" d="m401.078 335.186-2.3 1.755a.813.813 0 0 1-1.207-.256l-2.061-3.764.83-1.266a.542.542 0 0 1 .822-.1z" transform="translate(-330.586 -288.529)" style="fill:#c7cfe2"/>
            <path data-name="Path 23265" d="m429.419 335.187 2.3 1.755a.813.813 0 0 0 1.207-.256l2.061-3.764-.83-1.266a.542.542 0 0 0-.822-.1z" transform="translate(-358.927 -288.53)" style="fill:#c7cfe2"/>
        </g>
        <path data-name="Path 23266" d="M25.986 217.945a48.925 48.925 0 0 1-2.276-11.093c-.378-5.228-4.317-9.489-9.643-9.489s-9.265 4.262-9.643 9.489a48.926 48.926 0 0 1-2.276 11.093 1.35 1.35 0 0 0 .706 1.725 25.892 25.892 0 0 0 7.08 2.094H18.2a26.12 26.12 0 0 0 7.08-2.094 1.35 1.35 0 0 0 .706-1.725z" transform="translate(-1.72 -176.487)" style="fill:#5a4146"/>
        <path data-name="Path 23267" d="M65.85 219.671a1.35 1.35 0 0 0 .706-1.725 48.924 48.924 0 0 1-2.276-11.093c-.377-5.228-4.317-9.489-9.643-9.489H54.6c-4.086.017-5.53 5.59-2.013 7.669a3.744 3.744 0 0 0 .347.185l3.081 16.547h2.755a26.139 26.139 0 0 0 7.08-2.094z" transform="translate(-42.289 -176.488)" style="fill:#694b4b"/>
        <path data-name="Path 23268" d="m22.153 318.364-4.387-2.193a2.711 2.711 0 0 1-1.5-2.425v-4.067H8.134v4.067a2.711 2.711 0 0 1-1.5 2.425l-4.387 2.193A4.066 4.066 0 0 0 0 322v8.011a1.356 1.356 0 0 0 1.356 1.356h21.69a1.356 1.356 0 0 0 1.356-1.356V322a4.067 4.067 0 0 0-2.249-3.636z" transform="translate(0 -270.365)" style="fill:#e6af78"/>
        <path data-name="Path 23269" d="M53.242 315.1a10.715 10.715 0 0 0 4.14-.837 2.673 2.673 0 0 1-.073-.519v-4.067h-8.134v4.067a2.669 2.669 0 0 1-.073.521 10.769 10.769 0 0 0 4.14.835z" transform="translate(-41.042 -270.364)" style="fill:#d29b6e"/>
        <path data-name="Path 23270" d="m22.153 354.631-3.125-1.563a8.122 8.122 0 0 1-13.654 0l-3.125 1.563A4.067 4.067 0 0 0 0 358.268v8.011a1.356 1.356 0 0 0 1.356 1.356h21.69a1.356 1.356 0 0 0 1.356-1.356v-8.011a4.067 4.067 0 0 0-2.249-3.637z" transform="translate(0 -306.632)" style="fill:#d5dced"/>
        <path data-name="Path 23271" d="M33.191 258.3a8.135 8.135 0 0 1-8.066-7.081 1.367 1.367 0 0 1 .724-1.409 11.316 11.316 0 0 0 2.4-1.621 7.828 7.828 0 0 0 1.851-2.439 1.342 1.342 0 0 1 1.528-.743 23.355 23.355 0 0 1 9.2 4.714 1.311 1.311 0 0 1 .466 1.09 8.135 8.135 0 0 1-8.103 7.489z" transform="translate(-20.99 -216.277)" style="fill:#f0c087"/>
        <path data-name="Path 23272" d="M40.833 249.72a23.355 23.355 0 0 0-9.2-4.714 1.342 1.342 0 0 0-1.528.743 7.76 7.76 0 0 1-1.239 1.808 7.272 7.272 0 0 1-.615.628 11.309 11.309 0 0 1-2.4 1.621 1.368 1.368 0 0 0-.724 1.409 8.146 8.146 0 0 0 6.833 6.988 5.935 5.935 0 0 1-2.834-5.33v-1.933c.308-.227.618-.454.93-.732a10.793 10.793 0 0 0 1.939-2.287 20.472 20.472 0 0 1 7.065 3.844c.257.225.894.813 1.64 1.513a8.071 8.071 0 0 0 .6-2.472 1.311 1.311 0 0 0-.467-1.086z" transform="translate(-20.99 -216.276)" style="fill:#e6af78"/>
        <path data-name="Path 23273" d="M.826 369.859A4.058 4.058 0 0 0 0 372.3v8.011a1.356 1.356 0 0 0 1.356 1.356h4.066v-6.831a2.711 2.711 0 0 0-1.022-2.114z" transform="translate(0 -320.666)" style="fill:#c7cfe2"/>
        <path data-name="Path 23274" d="m158.135 330.317-11.342-4.125-8.134 2.711-8.134-2.711-11.342 4.125a5.422 5.422 0 0 0-3.569 5.1v8.4a1.356 1.356 0 0 0 1.356 1.356h43.38a1.356 1.356 0 0 0 1.356-1.356v-8.4a5.422 5.422 0 0 0-3.571-5.1z" transform="translate(-96.634 -284.168)" style="fill:#ff507d"/>
        <path data-name="Path 23275" d="m240.775 359.226-1.291 13.556h5.422l-1.291-13.556z" transform="translate(-200.171 -311.779)" style="fill:#707487"/>
        <path data-name="Path 23276" d="M245.344 347.283H242.5a.949.949 0 0 1-.949-.949v-3.625h4.744v3.625a.949.949 0 0 1-.951.949z" transform="translate(-201.897 -297.973)" style="fill:#5b5d6e"/>
        <path data-name="Path 23277" d="M353.513 359.855a5.416 5.416 0 0 1 1.459 3.695v8.4a1.356 1.356 0 0 1-1.356 1.356h-6.778v-4.532a5.422 5.422 0 0 1 1.588-3.834z" transform="translate(-289.903 -312.305)" style="fill:#d23c69"/>
        <path data-name="Path 23278" d="M194.985 84.261V72.9a2.711 2.711 0 0 0-2.711-2.711h-16.268a10.845 10.845 0 0 0-10.845 10.845v3.223a13.554 13.554 0 0 0 .7 4.287l.451 1.354a4.066 4.066 0 0 1 .209 1.286v.7h27.112v-.7a4.067 4.067 0 0 1 .209-1.286l.451-1.354a13.552 13.552 0 0 0 .692-4.283z" transform="translate(-138.049 -70.193)" style="fill:#5a4146"/>
        <path data-name="Path 23279" d="M206.452 75.7a5.507 5.507 0 0 0 5.507 5.507h.762l.368 10.676h15.052v-.7a4.067 4.067 0 0 1 .209-1.286l.451-1.354a13.554 13.554 0 0 0 .7-4.287V72.9a2.711 2.711 0 0 0-2.711-2.711h-14.831a5.507 5.507 0 0 0-5.507 5.511z" transform="translate(-172.561 -70.193)" style="fill:#694b4b"/>
        <path data-name="Rectangle 6562" transform="translate(33.89 32.536)" style="fill:#e6af78" d="M0 0h16.268v12.2H0z"/>
        <path data-name="Path 23280" d="M206.451 272.97a16.173 16.173 0 0 0 16.267 0v-4.584h-16.267v4.584z" transform="translate(-172.56 -235.851)" style="fill:#d29b6e"/>
        <g data-name="Group 25725">
            <path data-name="Path 23281" d="m200.781 317.411-4.324 4.324a1.356 1.356 0 0 1-2.038-.139l-4.483-5.907 1.173-2.471a1.355 1.355 0 0 1 1.936-.573z" transform="translate(-158.757 -272.676)" style="fill:#d23c69"/>
            <path data-name="Path 23282" d="m256 317.411 4.324 4.324a1.356 1.356 0 0 0 2.038-.139l4.483-5.907-1.173-2.471a1.355 1.355 0 0 0-1.936-.573z" transform="translate(-213.976 -272.676)" style="fill:#d23c69"/>
        </g>
        <path data-name="Path 23283" d="M186.975 162.756a13.556 13.556 0 0 1-13.556-13.556v-1.588a2.712 2.712 0 0 1 .794-1.917l1.123-1.123a2.711 2.711 0 0 0 .794-1.917V139.4a1.345 1.345 0 0 1 1.032-1.317c3.206-.757 13.183-2.551 19.973 2.443a1.739 1.739 0 0 1 .685 1.4v.72a2.712 2.712 0 0 0 .794 1.917l1.123 1.123a2.711 2.711 0 0 1 .794 1.917v1.597a13.556 13.556 0 0 1-13.556 13.556z" transform="translate(-144.951 -126.154)" style="fill:#f0c087"/>
        <path data-name="Path 23284" d="M197.136 140.542c-4.775-3.512-11.119-3.664-15.583-3.183a36.569 36.569 0 0 0-4.39.741 1.345 1.345 0 0 0-1.032 1.317v3.249a2.711 2.711 0 0 1-.794 1.917l-1.123 1.123a2.711 2.711 0 0 0-.794 1.917v1.588a13.551 13.551 0 0 0 11.918 13.448 13.5 13.5 0 0 1-3.784-9.381v-9.908a2.713 2.713 0 0 1 2.385-2.693c3.253-.408 9.212-.653 13.883 1.989v-.72a1.739 1.739 0 0 0-.686-1.404z" transform="translate(-144.951 -126.166)" style="fill:#e6af78"/>
        <path data-name="Path 23285" d="M117.072 359.855a5.416 5.416 0 0 0-1.459 3.695v8.4a1.356 1.356 0 0 0 1.356 1.356h6.778v-4.532a5.422 5.422 0 0 0-1.588-3.834z" transform="translate(-96.634 -312.305)" style="fill:#d23c69"/>
    </g>
</svg>
