<svg xmlns="http://www.w3.org/2000/svg" width="70" height="76" viewBox="0 0 70 76">
    <g data-name="Group 26622">
        <path data-name="Rectangle 6844" style="fill:none" d="M0 0h70v76H0z"/>
        <g data-name="find (1)">
            <g data-name="Group 26713">
                <path data-name="Path 24253" d="M73.231 66.291H27.96a2.156 2.156 0 0 1-2.16-2.156V14.59a2.7 2.7 0 0 1 .789-1.905l11.9-11.9A2.7 2.7 0 0 1 40.394 0h32.837a2.156 2.156 0 0 1 2.156 2.156v61.979a2.156 2.156 0 0 1-2.156 2.156z" transform="translate(-20.608 4.855)" style="fill:#ecf4ff"/>
            </g>
            <g data-name="Group 26714">
                <path data-name="Path 24254" d="M370.205 0h-3.258a2.156 2.156 0 0 1 2.153 2.156v61.979a2.156 2.156 0 0 1-2.156 2.156h3.258a2.156 2.156 0 0 0 2.156-2.156V2.156A2.156 2.156 0 0 0 370.205 0z" transform="translate(-317.582 4.855)" style="fill:#ddeafb"/>
            </g>
            <g data-name="Group 26715">
                <path data-name="Path 24255" d="M40.394 0a2.7 2.7 0 0 0-1.905.789l-11.9 11.9a2.7 2.7 0 0 0-.789 1.901v1.579h12.13a4.047 4.047 0 0 0 4.042-4.042V0z" transform="translate(-20.608 4.855)" style="fill:#ddeafb"/>
            </g>
            <g data-name="Group 26716">
                <path data-name="Path 24256" d="M40.926 13.775V1.894a2.687 2.687 0 0 0-.789.544l-11.9 11.9a2.692 2.692 0 0 0-.544.789h11.886a1.347 1.347 0 0 0 1.347-1.347z" transform="translate(-22.257 3.206)" style="fill:#4a80aa"/>
            </g>
            <g data-name="Group 26717">
                <path data-name="Path 24257" d="M153.146 196.162H135.63a1 1 0 1 1 0-2h17.516a1 1 0 1 1 0 2z" transform="translate(-115.344 -164.167)" style="fill:#78d090"/>
            </g>
            <g data-name="Group 26718">
                <path data-name="Path 24258" d="M157.188 154.536H135.63a1 1 0 1 1 0-2h21.558a1 1 0 1 1 0 2z" transform="translate(-115.344 -127.931)" style="fill:#78d090"/>
            </g>
            <g data-name="Group 26719">
                <path data-name="Path 24259" d="M143.375 229.462h-7.745a1 1 0 1 1 0-2h7.745a1 1 0 1 1 0 2z" transform="translate(-115.344 -193.156)" style="fill:#78d090"/>
            </g>
            <g data-name="Group 26724">
                <g data-name="Group 26720">
                    <path data-name="Path 24260" d="M57.769 152.534h-5.39a1 1 0 0 0-1 1v5.389a1 1 0 0 0 1 1h5.389a1 1 0 0 0 1-1v-5.389a1 1 0 0 0-.999-1z" transform="translate(-42.872 -127.93)" style="fill:#df75a5"/>
                </g>
                <g data-name="Group 26721">
                    <path data-name="Path 24261" d="M57.769 227.461h-5.39a1 1 0 0 0-1 1v5.389a1 1 0 0 0 1 1h5.389a1 1 0 0 0 1-1v-5.389a1 1 0 0 0-1-1z" transform="translate(-42.872 -193.156)" style="fill:#df75a5"/>
                </g>
                <g data-name="Group 26722">
                    <path data-name="Path 24262" d="M57.769 302.387h-5.39a1 1 0 0 0-1 1v5.389a1 1 0 0 0 1 1h5.389a1 1 0 0 0 1-1v-5.389a1 1 0 0 0-.999-1z" transform="translate(-42.872 -258.381)" style="fill:#df75a5"/>
                </g>
                <g data-name="Group 26723">
                    <path data-name="Path 24263" d="M57.769 377.314h-5.39a1 1 0 0 0-1 1v5.39a1 1 0 0 0 1 1h5.389a1 1 0 0 0 1-1v-5.39a1 1 0 0 0-.999-1z" transform="translate(-42.872 -323.607)" style="fill:#df75a5"/>
                </g>
            </g>
            <g data-name="Group 26725">
                <path data-name="Path 24264" d="M143.976 420.942h-8.346a1 1 0 1 1 0-2h8.345a1 1 0 0 1 0 2z" transform="translate(-115.344 -359.844)" style="fill:#78d090"/>
            </g>
            <g data-name="Group 26735">
                <g data-name="Group 26727">
                    <g data-name="Group 26726">
                        <path data-name="Path 24265" d="M0 0h4.573v4.383H0z" transform="rotate(-45 103.704 -29.543)" style="fill:#f4dd45"/>
                    </g>
                </g>
                <g data-name="Group 26729">
                    <g data-name="Group 26728">
                        <path data-name="Path 24266" d="m357.871 409.788-3.449 3.449a.8.8 0 0 1-1.132 0l-2.8-2.8 4.581-4.581 2.8 2.8a.8.8 0 0 1 0 1.132z" transform="translate(-303.254 -348.452)" style="fill:#2b4d66"/>
                    </g>
                </g>
                <g data-name="Group 26731">
                    <g data-name="Group 26730">
                        <path data-name="Path 24267" d="M413.236 465.31H405.8a1.067 1.067 0 0 1-.755-.313l-1.816-1.816a.8.8 0 0 1 0-1.132l3.449-3.449a.8.8 0 0 1 1.132 0l5.8 5.8a.534.534 0 0 1-.374.91z" transform="translate(-348.966 -394.164)" style="fill:#4a80aa"/>
                    </g>
                </g>
                <g data-name="Group 26732" transform="translate(20.825 30.994)">
                    <circle data-name="Ellipse 1106" cx="16.977" cy="16.977" r="16.977" style="fill:#4a80aa"/>
                </g>
                <g data-name="Group 26733">
                    <path data-name="Path 24268" d="M200.591 232.053a16.977 16.977 0 0 1-23.9 23.9 16.977 16.977 0 1 0 23.9-23.9z" transform="translate(-151.956 -197.153)" style="fill:#407093"/>
                </g>
                <g data-name="Group 26734" transform="translate(25.764 35.933)">
                    <circle data-name="Ellipse 1107" cx="12.038" cy="12.038" r="12.038" style="fill:#90d8f9"/>
                </g>
            </g>
            <g data-name="Group 26741">
                <g data-name="Group 26737">
                    <g data-name="Group 26736" transform="translate(36.725 53.649)">
                        <circle data-name="Ellipse 1108" cx=".899" cy=".899" r=".899" transform="rotate(-13.3 1.771 .206)" style="fill:#ecf4ff"/>
                    </g>
                </g>
                <g data-name="Group 26740">
                    <g data-name="Group 26739">
                        <g data-name="Group 26738">
                            <path data-name="Path 24269" d="M245.506 279.476a1 1 0 0 1-1-1v-3.952a1 1 0 0 1 1-1 2.78 2.78 0 0 0 2.775-2.928 2.785 2.785 0 0 0-2.717-2.629h-.057a2.778 2.778 0 0 0-2.753 2.39 2.814 2.814 0 0 0-.027.389 1 1 0 0 1-2 0 4.776 4.776 0 0 1 4.78-4.78h.1a4.793 4.793 0 0 1 4.675 4.526 4.741 4.741 0 0 1-1.307 3.543 4.8 4.8 0 0 1-2.466 1.382v3.059a1 1 0 0 1-1.003 1z" transform="translate(-207.703 -226.675)" style="fill:#ecf4ff"/>
                        </g>
                    </g>
                </g>
            </g>
        </g>
    </g>
</svg>
