<svg width="40" height="41" viewBox="0 0 40 41" fill="none" xmlns="http://www.w3.org/2000/svg">
<path d="M5.15698 26.6491C4.8718 26.6491 4.5983 26.7625 4.39664 26.9645C4.19499 27.1664 4.08171 27.4403 4.08171 27.7259C4.08171 28.0115 4.19499 28.2854 4.39664 28.4873C4.5983 28.6893 4.8718 28.8027 5.15698 28.8027H7.14084V29.0515C7.13517 29.6945 7.25748 30.3323 7.50061 30.9275C7.74374 31.5228 8.10283 32.0635 8.55693 32.5183C9.01102 32.973 9.55101 33.3326 10.1454 33.5761C10.7398 33.8196 11.3766 33.9421 12.0188 33.9364H12.3456V35.9231C12.3456 36.2087 12.4589 36.4826 12.6606 36.6845C12.8622 36.8865 13.1357 36.9999 13.4209 36.9999C13.7061 36.9999 13.9796 36.8865 14.1812 36.6845C14.3829 36.4826 14.4962 36.2087 14.4962 35.9231V33.9364H18.9607V35.9231C18.9607 36.2087 19.074 36.4826 19.2756 36.6845C19.4773 36.8865 19.7508 36.9999 20.0359 36.9999C20.3211 36.9999 20.5946 36.8865 20.7963 36.6845C20.9979 36.4826 21.1112 36.2087 21.1112 35.9231V33.9364H25.6591V35.9231C25.6591 36.2087 25.7724 36.4826 25.974 36.6845C26.1757 36.8865 26.4492 36.9999 26.7343 36.9999C27.0195 36.9999 27.293 36.8865 27.4947 36.6845C27.6963 36.4826 27.8096 36.2087 27.8096 35.9231V33.9364H28.058C29.3509 33.9338 30.5901 33.4183 31.5044 32.5028C32.4186 31.5872 32.9334 30.3462 32.936 29.0515V28.8027H34.9198C35.205 28.8027 35.4785 28.6893 35.6802 28.4873C35.8818 28.2854 35.9951 28.0115 35.9951 27.7259C35.9951 27.4403 35.8818 27.1664 35.6802 26.9645C35.4785 26.7625 35.205 26.6491 34.9198 26.6491H32.8575V22.0931H34.8414C35.1266 22.0931 35.4001 21.9796 35.6017 21.7777C35.8034 21.5758 35.9167 21.3019 35.9167 21.0163C35.9167 20.7307 35.8034 20.4568 35.6017 20.2549C35.4001 20.0529 35.1266 19.9395 34.8414 19.9395H32.8575V15.3835H34.8414C35.1266 15.3835 35.4001 15.27 35.6017 15.0681C35.8034 14.8661 35.9167 14.5922 35.9167 14.3067C35.9167 14.0211 35.8034 13.7472 35.6017 13.5452C35.4001 13.3433 35.1266 13.2298 34.8414 13.2298H32.8575V12.9811C32.8632 12.338 32.7409 11.7002 32.4977 11.105C32.2546 10.5098 31.8955 9.96902 31.4414 9.51428C30.9873 9.05954 30.4473 8.69993 29.853 8.45644C29.2586 8.21296 28.6217 8.09049 27.9796 8.09616H27.7312V6.27966C27.7312 5.99407 27.6179 5.72018 27.4162 5.51823C27.2146 5.31629 26.9411 5.20284 26.6559 5.20284C26.3707 5.20284 26.0972 5.31629 25.8956 5.51823C25.6939 5.72018 25.5806 5.99407 25.5806 6.27966V8.26636H21.0328V6.27966C21.0328 5.99407 20.9195 5.72018 20.7178 5.51823C20.5162 5.31629 20.2427 5.20284 19.9575 5.20284C19.6723 5.20284 19.3988 5.31629 19.1972 5.51823C18.9955 5.72018 18.8822 5.99407 18.8822 6.27966V8.26636H14.336V6.27966C14.3799 6.00637 14.3191 5.72656 14.1658 5.49625C14.0124 5.26594 13.7779 5.10211 13.5091 5.03756C13.3732 5.00713 13.2325 5.0046 13.0955 5.03014C12.9585 5.05567 12.8282 5.10874 12.7123 5.18613C12.5963 5.26351 12.4973 5.36362 12.4211 5.48041C12.3449 5.5972 12.2931 5.72824 12.2688 5.86562V8.1829H12.0204C11.3783 8.17722 10.7414 8.2997 10.147 8.54318C9.55265 8.78666 9.01265 9.14627 8.55856 9.60101C8.10447 10.0558 7.74538 10.5965 7.50224 11.1918C7.25911 11.787 7.13681 12.4248 7.14248 13.0678V13.3166H5.07527C4.79009 13.3166 4.51659 13.43 4.31494 13.632C4.11329 13.8339 4 14.1078 4 14.3934C4 14.679 4.11329 14.9529 4.31494 15.1548C4.51659 15.3568 4.79009 15.4702 5.07527 15.4702H7.05913V20.0246H5.07527C4.79009 20.0246 4.51659 20.138 4.31494 20.34C4.11329 20.5419 4 20.8158 4 21.1014C4 21.387 4.11329 21.6609 4.31494 21.8628C4.51659 22.0647 4.79009 22.1782 5.07527 22.1782H7.05913V26.7326H5.15698V26.6491ZM9.20805 13.1513C9.205 12.7808 9.27562 12.4134 9.41579 12.0705C9.55596 11.7276 9.76288 11.4161 10.0245 11.1541C10.2861 10.8922 10.5972 10.6849 10.9396 10.5446C11.282 10.4042 11.6488 10.3335 12.0188 10.3365H27.8113C28.1812 10.3335 28.5481 10.4042 28.8905 10.5446C29.2329 10.6849 29.5439 10.8922 29.8055 11.1541C30.0672 11.4161 30.2741 11.7276 30.4143 12.0705C30.5544 12.4134 30.625 12.7808 30.622 13.1513V28.9664C30.625 29.3369 30.5544 29.7043 30.4143 30.0471C30.2741 30.39 30.0672 30.7015 29.8055 30.9635C29.5439 31.2255 29.2329 31.4327 28.8905 31.5731C28.5481 31.7135 28.1812 31.7842 27.8113 31.7811H12.0204C11.6505 31.7842 11.2836 31.7135 10.9412 31.5731C10.5988 31.4327 10.2877 31.2255 10.0261 30.9635C9.76452 30.7015 9.5576 30.39 9.41742 30.0471C9.27725 29.7043 9.20663 29.3369 9.20968 28.9664L9.20805 13.1513Z" fill="#191A4E"/>
</svg>
