<svg width="40" height="35" viewBox="0 0 40 35" fill="none" xmlns="http://www.w3.org/2000/svg">
<path d="M36.0932 27.3797C35.1176 27.3783 34.177 27.7343 33.4578 28.3772L30.6091 26.7634V16.1175L21.1717 10.8014V7.4492C22.0628 7.17602 22.8242 6.60068 23.3179 5.82733C23.8117 5.05398 24.0053 4.13375 23.8636 3.23323C23.7219 2.33272 23.2544 1.51144 22.5456 0.91809C21.8368 0.32474 20.9336 -0.00146484 19.9996 -0.00146484C19.0655 -0.00146484 18.1623 0.32474 17.4535 0.91809C16.7447 1.51144 16.2772 2.33272 16.1355 3.23323C15.9938 4.13375 16.1874 5.05398 16.6812 5.82733C17.1749 6.60068 17.9363 7.17602 18.8274 7.4492V10.8014L9.39003 16.1175V26.7653L6.54129 28.3772C5.85191 27.7625 4.95964 27.4088 4.02603 27.3802C3.09241 27.3517 2.17917 27.6501 1.45164 28.2215C0.724105 28.7929 0.230379 29.5995 0.0598496 30.4953C-0.11068 31.3911 0.0532587 32.3168 0.521984 33.1048C0.990709 33.8929 1.73324 34.4912 2.61513 34.7915C3.49703 35.0917 4.45999 35.074 5.32969 34.7416C6.19938 34.4093 6.9183 33.7841 7.3563 32.9794C7.7943 32.1747 7.92243 31.2436 7.71747 30.3548L10.5762 28.737L19.9976 34.0434L29.4189 28.737L32.2796 30.3567C32.1024 31.1272 32.175 31.9324 32.4873 32.6609C32.7996 33.3895 33.3361 34.0054 34.0229 34.4236C34.7096 34.8418 35.5125 35.0416 36.3207 34.9954C37.1289 34.9493 37.9025 34.6593 38.5344 34.1658C39.1664 33.6722 39.6256 32.9994 39.8485 32.2402C40.0714 31.4811 40.047 30.6732 39.7788 29.9281C39.5106 29.1831 39.0117 28.5377 38.3511 28.0812C37.6905 27.6247 36.9028 27.3796 36.0932 27.3797ZM3.90785 32.7153C3.59834 32.7153 3.29578 32.6258 3.03843 32.4581C2.78108 32.2903 2.5805 32.052 2.46206 31.773C2.34361 31.4941 2.31262 31.1872 2.37301 30.8911C2.43339 30.595 2.58243 30.3231 2.80129 30.1096C3.02015 29.8961 3.29899 29.7508 3.60255 29.6919C3.90612 29.633 4.22077 29.6632 4.50672 29.7787C4.79267 29.8942 5.03707 30.0899 5.20903 30.3409C5.38098 30.5919 5.47276 30.887 5.47276 31.1889C5.47276 31.5937 5.30789 31.982 5.01441 32.2682C4.72093 32.5545 4.32289 32.7153 3.90785 32.7153ZM18.4346 3.81309C18.4346 3.51119 18.5264 3.21608 18.6984 2.96507C18.8703 2.71406 19.1147 2.51842 19.4007 2.40289C19.6866 2.28736 20.0013 2.25713 20.3049 2.31603C20.6084 2.37492 20.8873 2.5203 21.1061 2.73377C21.325 2.94724 21.474 3.21921 21.5344 3.5153C21.5948 3.81139 21.5638 4.1183 21.4453 4.39721C21.3269 4.67612 21.1263 4.91451 20.869 5.08223C20.6116 5.24995 20.3091 5.33947 19.9996 5.33947C19.5847 5.33896 19.1869 5.17798 18.8936 4.89184C18.6002 4.6057 18.4352 4.21775 18.4346 3.81309ZM18.8333 30.7417L11.7344 26.7459V18.7581L18.8274 22.752L18.8333 30.7417ZM12.9126 16.7786L20.0055 12.7847L27.0985 16.7786L20.0055 20.7725L12.9126 16.7786ZM28.2627 26.7478L21.1717 30.7417V22.752L28.2647 18.7581L28.2627 26.7478ZM36.0913 32.7173C35.7817 32.7173 35.4792 32.6277 35.2218 32.46C34.9645 32.2923 34.7639 32.0539 34.6455 31.775C34.527 31.4961 34.496 31.1892 34.5564 30.8931C34.6168 30.597 34.7658 30.325 34.9847 30.1115C35.2036 29.8981 35.4824 29.7527 35.786 29.6938C36.0895 29.6349 36.4042 29.6651 36.6901 29.7807C36.9761 29.8962 37.2205 30.0918 37.3924 30.3428C37.5644 30.5939 37.6562 30.889 37.6562 31.1909C37.6556 31.595 37.4908 31.9825 37.1978 32.2682C36.9048 32.554 36.5076 32.7148 36.0932 32.7153L36.0913 32.7173Z" fill="#191A4E"/>
</svg>
