<svg width="40" height="40" viewBox="0 0 40 40" fill="none" xmlns="http://www.w3.org/2000/svg">
<path d="M18.2932 11.0253C17.8787 11.4295 17.8787 12.0834 18.2938 12.487C18.7088 12.8896 19.3817 12.8902 19.7967 12.4865C19.9176 12.3684 20.065 12.3508 20.1417 12.3508C20.2185 12.3508 20.3659 12.3684 20.4867 12.4865C20.6943 12.6883 20.9666 12.7892 21.2385 12.7892C21.5103 12.7892 21.7822 12.6883 21.9897 12.487C22.4047 12.0834 22.4047 11.4295 21.9897 11.0253C21.0081 10.0697 19.2759 10.0697 18.2932 11.0253Z" fill="#191A4E"/>
<path d="M23.1528 10.9275C23.4247 10.9275 23.6965 10.8266 23.904 10.6248C24.3191 10.2211 24.3191 9.56671 23.904 9.16359C21.8288 7.14534 18.4514 7.14534 16.3757 9.16359C15.9607 9.56723 15.9607 10.2211 16.3757 10.6248C16.7908 11.0284 17.4631 11.0284 17.8782 10.6248C19.1254 9.41182 21.1544 9.41283 22.4016 10.6248C22.6091 10.8266 22.881 10.9275 23.1528 10.9275Z" fill="#191A4E"/>
<path d="M15.9583 8.75339C17.0763 7.66558 18.5626 7.06666 20.1429 7.06666C21.7232 7.06666 23.209 7.66558 24.3275 8.75339C24.535 8.95522 24.8068 9.05613 25.0787 9.05613C25.3506 9.05613 25.6224 8.95522 25.83 8.75339C26.2449 8.35026 26.2449 7.69585 25.83 7.29219C24.3109 5.81436 22.2907 5 20.1429 5C17.9951 5 15.9754 5.81436 14.4558 7.29219C14.0408 7.69585 14.0408 8.35026 14.4558 8.75339C14.8709 9.15705 15.5432 9.15705 15.9583 8.75339Z" fill="#191A4E"/>
<path d="M30.9283 14.6519H9.35871C7.50659 14.6519 6 16.1171 6 17.9184V29.8027C6 31.604 7.50659 33.0692 9.35871 33.0692H30.9283C32.7804 33.0692 34.287 31.604 34.287 29.8027V17.9184C34.287 16.1171 32.7804 14.6519 30.9283 14.6519ZM9.35871 16.7185H30.9283C31.6089 16.7185 32.1621 17.2569 32.1621 17.9184V23.4171H29.0419C28.7409 23.4171 28.4546 23.5411 28.2534 23.7581L26.5434 25.5997L23.0332 18.3598C22.8599 18.0021 22.4905 17.7715 22.0838 17.7675C21.6656 17.7786 21.3035 17.9855 21.1214 18.3402L16.9871 26.4171L14.72 21.0436C14.5783 20.7086 14.2665 20.4699 13.8987 20.4149C13.5241 20.3589 13.1589 20.4966 12.9208 20.7746L10.6557 23.4171H8.12499V17.9184C8.12499 17.2569 8.67855 16.7185 9.35871 16.7185ZM30.9283 31.0026H9.35871C8.67855 31.0026 8.12499 30.4646 8.12499 29.8027V25.4837H11.1532C11.4687 25.4837 11.7675 25.3475 11.9693 25.1124L13.4235 23.4151L15.9111 29.3102C16.0699 29.6856 16.4393 29.9358 16.8559 29.95C16.8689 29.951 16.8818 29.951 16.8943 29.951C17.2963 29.951 17.6652 29.7301 17.8452 29.3778L22.0465 21.1702L25.3024 27.8844C25.4539 28.1973 25.7559 28.4152 26.1077 28.4657C26.4572 28.5111 26.8132 28.3929 27.0518 28.1356L29.514 25.4837H32.1621V29.8027C32.1621 30.4646 31.6089 31.0026 30.9283 31.0026Z" fill="#191A4E"/>
<path d="M25.8825 33.9324H14.4004C13.8136 33.9324 13.3379 34.3946 13.3379 34.9658C13.3379 35.5369 13.8136 35.999 14.4004 35.999H25.8825C26.4697 35.999 26.945 35.5369 26.945 34.9658C26.945 34.3946 26.4697 33.9324 25.8825 33.9324Z" fill="#191A4E"/>
</svg>
