<svg xmlns="http://www.w3.org/2000/svg" width="76.774" height="70" viewBox="0 0 76.774 70">
    <g data-name="070---User">
        <path d="m47.433 36.765-6.527 9.852a109.706 109.706 0 0 1-17.06 1.213 120.886 120.886 0 0 1-12.946-.655 99.587 99.587 0 0 1-2.725-.354C3.161 46.071 0 44.968 0 43.741v-3.406A23.846 23.846 0 0 1 14.457 18.41h18.777a23.884 23.884 0 0 1 14.2 18.355z" transform="translate(0 6.676)" style="fill-rule:evenodd;fill:#f29c1f"/>
        <path data-name="Path" d="M35.615 14.308a14.238 14.238 0 1 1-4.17-10.138 14.308 14.308 0 0 1 4.17 10.138z" transform="translate(2.538)" style="fill:#fdd7ad;fill-rule:evenodd"/>
        <path data-name="Path" d="M8.725 32.363V42.61A99.463 99.463 0 0 1 6 42.255v-9.892a1.363 1.363 0 1 1 2.725 0z" transform="translate(2.176 11.242)" style="fill:#e57e25;fill-rule:evenodd"/>
        <path data-name="Path" d="M70.329 45.012v4.306a1.374 1.374 0 0 1-.613 1.131L67.25 52.07l-2.412 5.83.6 2.889a1.394 1.394 0 0 1-.382 1.24l-3.025 3.025a1.394 1.394 0 0 1-1.24.382l-2.889-.6-5.832 2.414-1.622 2.466a1.374 1.374 0 0 1-1.131.613h-4.305a1.374 1.374 0 0 1-1.131-.613l-1.622-2.466-5.832-2.412-2.889.6a1.394 1.394 0 0 1-1.24-.382l-3.025-3.025a1.394 1.394 0 0 1-.382-1.24l.6-2.889-2.411-5.832-2.466-1.622a1.374 1.374 0 0 1-.614-1.13v-4.306a1.374 1.374 0 0 1 .613-1.131l2.466-1.622 2.412-5.832-.6-2.889a1.394 1.394 0 0 1 .382-1.24l3.027-3.025a1.394 1.394 0 0 1 1.24-.382l2.889.6.749-.313 5.083-2.1 1.622-2.466A1.374 1.374 0 0 1 45.012 24h4.306a1.374 1.374 0 0 1 1.131.613l1.621 2.467 5.83 2.411 2.889-.6a1.394 1.394 0 0 1 1.24.382l3.027 3.027a1.394 1.394 0 0 1 .382 1.24l-.6 2.889 2.412 5.832 2.466 1.622a1.374 1.374 0 0 1 .613 1.131z" transform="translate(6.445 -.329)" style="fill:#bdc3c7;fill-rule:evenodd"/>
        <circle cx="14" cy="14" r="14" transform="translate(40 33)" style="fill:#7f8c8d"/>
    </g>
</svg>
