<svg data-name="Group 25792" xmlns="http://www.w3.org/2000/svg" width="69.877" height="70" viewBox="0 0 69.877 70">
    <path data-name="Path 23367" d="M41.181 421.16a10.366 10.366 0 0 0-10.236 10.372v2.047h16.378l3.887-4.231a10.252 10.252 0 0 0-10.029-8.188zm0 0" transform="translate(-26.715 -363.58)" style="fill:#f27281"/>
    <path data-name="Path 23368" d="M54.107 317.749a8.189 8.189 0 1 1 8.193-8.189 8.2 8.2 0 0 1-8.193 8.189zm0 0" transform="translate(-39.64 -260.168)" style="fill:#f27281"/>
    <path data-name="Path 23369" d="M341.962 421.16a10.252 10.252 0 0 0-10.029 8.189l3.887 4.231h16.38v-2.047a10.366 10.366 0 0 0-10.238-10.373zm0 0" transform="translate(-286.552 -363.58)" style="fill:#e63950"/>
    <path data-name="Path 23370" d="M353.579 317.749a8.189 8.189 0 1 1 8.189-8.189 8.2 8.2 0 0 1-8.189 8.189zm0 0" transform="translate(-298.169 -260.168)" style="fill:#e63950"/>
    <path data-name="Path 23371" d="m189.405 9.185-8.6-1.269L176.958 0l-3.849 7.916-8.6 1.269 6.223 6.059-1.474 8.517 7.7-4.012 7.7 4.012-1.474-8.517zm0 0" transform="translate(-142.02)" style="fill:#fdbf00"/>
    <path data-name="Path 23372" d="m346.479 126.466-7.685-4.038-7.681 4.038 1.468-8.555-6.214-6.057 8.587-1.248 3.841-7.783 3.84 7.783 8.989 1.248-6.616 6.057zm0 0" transform="translate(-281.747 -88.766)" style="fill:#ff9100"/>
    <path data-name="Path 23373" d="m20.51 126.466-7.681-4.038-7.685 4.038 1.471-8.555L0 111.855l8.989-1.248 3.84-7.783 3.841 7.783 8.587 1.248-6.214 6.057zm0 0" transform="translate(0 -88.766)" style="fill:#fdbf00"/>
    <path data-name="Path 23374" d="M190.919 211.527a10.236 10.236 0 1 0 10.236 10.236 10.24 10.24 0 0 0-10.236-10.236zm0 0" transform="translate(-155.981 -182.608)" style="fill:#979fef"/>
    <path data-name="Path 23375" d="M165.065 361.266a14.346 14.346 0 0 0-14.33 14.33v6.278H179.4V375.6a14.346 14.346 0 0 0-14.335-14.334zm0 0" transform="translate(-130.126 -311.874)" style="fill:#979fef"/>
    <path data-name="Path 23376" d="M255.551 232v-20.473a10.236 10.236 0 0 1 0 20.472zm0 0" transform="translate(-220.612 -182.608)" style="fill:#737ee6"/>
    <path data-name="Path 23377" d="m263.248 23.761-7.7-4.013V0l3.852 7.916 8.6 1.269-6.223 6.059zm0 0" transform="translate(-220.612)" style="fill:#ff9100"/>
    <path data-name="Path 23378" d="M269.881 375.6v6.278h-14.33v-20.612a14.346 14.346 0 0 1 14.33 14.334zm0 0" transform="translate(-220.612 -311.874)" style="fill:#737ee6"/>
</svg>
