<svg xmlns="http://www.w3.org/2000/svg" width="71.348" height="70" viewBox="0 0 71.348 70">
    <g data-name="Group 25791">
        <g data-name="Group 25789">
            <g data-name="Group 25785" transform="translate(3.859 17.964)">
                <path data-name="Path 23349" d="M37.5 139.005h63.631v47.044H37.5z" transform="translate(-37.5 -139.005)" style="fill:#ffcec0"/>
                <path data-name="Path 23350" d="M440.682 139.005h4.924v47.044h-4.924z" transform="translate(-381.975 -139.005)" style="fill:#fdb0a0"/>
                <rect data-name="Rectangle 6572" width="49.079" height="27.194" rx="13.597" transform="translate(7.276 13.982)" style="fill:#fff"/>
            </g>
            <g data-name="Group 25788">
                <g data-name="Group 25786">
                    <path data-name="Path 23351" d="m356.8 15.63 6.462 17.97h14.095l-9.1-15.766a4.3 4.3 0 0 0-3.812-2.2z" transform="translate(-306.446 -15.63)" style="fill-rule:evenodd;fill:#ff5471"/>
                    <path data-name="Path 23352" d="M401.2 139.024v5.43a7.673 7.673 0 0 0 8.5 4.5 6.849 6.849 0 0 0 5.595-6.776v-3.158H401.2z" transform="translate(-344.383 -121.057)" style="fill:#e80941;fill-rule:evenodd"/>
                    <path data-name="Path 23353" d="M318.495 144.454v-5.43H304.4v5.43a7.671 7.671 0 0 0 14.095 0z" transform="translate(-261.678 -121.057)" style="fill:#f9ac00;fill-rule:evenodd"/>
                    <path data-name="Path 23354" d="M221.695 144.454v-5.43H207.6v5.43a7.671 7.671 0 0 0 14.095 0z" transform="translate(-178.973 -121.057)" style="fill:#e80941;fill-rule:evenodd"/>
                    <path data-name="Path 23355" d="M124.895 144.454v-5.43H110.8v5.43a7.671 7.671 0 0 0 14.095 0z" transform="translate(-96.268 -121.057)" style="fill:#f9ac00;fill-rule:evenodd"/>
                    <path data-name="Path 23356" d="M28.095 144.454v-5.43H14v3.158a6.849 6.849 0 0 0 5.595 6.776 7.673 7.673 0 0 0 8.5-4.5z" transform="translate(-13.563 -121.057)" style="fill:#e80941;fill-rule:evenodd"/>
                    <path data-name="Path 23357" d="M14 33.6h14.095l6.465-17.97h-7.645a4.3 4.3 0 0 0-3.812 2.2z" transform="translate(-13.563 -15.63)" style="fill-rule:evenodd;fill:#ff5471"/>
                    <path data-name="Path 23358" d="M117.265 15.63 110.8 33.6h14.095l2.229-17.967z" transform="translate(-96.268 -15.63)" style="fill:#fcdb35;fill-rule:evenodd"/>
                    <path data-name="Path 23359" d="M209.829 15.63 207.6 33.6h14.095l-2.23-17.967z" transform="translate(-178.973 -15.63)" style="fill-rule:evenodd;fill:#ff5471"/>
                    <path data-name="Path 23360" d="m289.088 15.63 2.23 17.967h14.095l-6.466-17.967z" transform="translate(-248.596 -15.63)" style="fill:#fcdb35;fill-rule:evenodd"/>
                </g>
                <g data-name="Group 25787">
                    <path data-name="Path 23361" d="M13.5 462.058h66.35a2.505 2.505 0 0 1 2.5 2.5v2.5H11v-2.5a2.505 2.505 0 0 1 2.5-2.5z" transform="translate(-11 -397.054)" style="fill:#ea806f;fill-rule:evenodd"/>
                    <path data-name="Path 23362" d="M13.5 462.058h62.141a2.505 2.505 0 0 1 2.5 2.5v2.5H11v-2.5a2.505 2.505 0 0 1 2.5-2.5z" transform="translate(-11 -397.054)" style="fill:#f29988;fill-rule:evenodd"/>
                </g>
            </g>
        </g>
        <g data-name="Group 25790">
            <path data-name="Path 23363" d="M193.2 338.971a10.747 10.747 0 0 1 10.7 9.77v2.289h-21.4v-2.289a10.747 10.747 0 0 1 10.7-9.77z" transform="translate(-157.528 -291.89)" style="fill:#4eb1fc;fill-rule:evenodd"/>
            <path data-name="Path 23364" d="M201.039 351.591H182.5V349.3a10.75 10.75 0 0 1 9.269-9.675 10.751 10.751 0 0 1 9.269 9.675z" transform="translate(-157.528 -292.451)" style="fill:#85caff;fill-rule:evenodd"/>
            <path data-name="Path 23365" d="M224.383 275.5a5.388 5.388 0 1 0-5.388-5.388 5.4 5.4 0 0 0 5.388 5.388z" transform="translate(-188.709 -228.455)" style="fill:#d9c5bf;fill-rule:evenodd"/>
            <path data-name="Path 23366" d="M223.118 276.231a5.389 5.389 0 0 1 0-10.476 5.389 5.389 0 0 1 0 10.476z" transform="translate(-188.71 -229.335)" style="fill:#e6d6d1;fill-rule:evenodd"/>
        </g>
    </g>
</svg>
