<svg xmlns="http://www.w3.org/2000/svg" width="70" height="70" viewBox="0 0 70 70">
    <g data-name="Group 25883">
        <g data-name="Group 29298">
            <g data-name="Group 29268">
                <path data-name="Path 27497" d="M62.089 16H46.45a11.171 11.171 0 1 1-22.342 0H8.468A4.469 4.469 0 0 0 4 20.468v35.748a4.469 4.469 0 0 0 4.468 4.468h53.621a4.469 4.469 0 0 0 4.468-4.468V20.468A4.469 4.469 0 0 0 62.089 16z" transform="translate(-.279 1.221)" style="fill:#64c8f0"/>
            </g>
            <g data-name="Group 29269">
                <path data-name="Path 27498" d="M32.55 26.077a11.115 11.115 0 0 1-4.538-1.819 13.449 13.449 0 1 0 4.538 1.819z" transform="translate(.658 2.158)" style="fill:#288cb4"/>
            </g>
            <g data-name="Group 29270">
                <path data-name="Path 27499" d="M8.468 56.216V20.468A4.469 4.469 0 0 1 12.937 16H8.468A4.469 4.469 0 0 0 4 20.468v35.748a4.469 4.469 0 0 0 4.468 4.468h4.468a4.469 4.469 0 0 1-4.468-4.468z" transform="translate(-.279 1.221)" style="fill:#46aad2"/>
            </g>
            <g data-name="Group 29272">
                <g data-name="Group 29271">
                    <path data-name="Path 27500" d="M31.405 46.7A6.7 6.7 0 0 0 18 46.7v.427a13.331 13.331 0 0 0 13.405 0z" transform="translate(1.36 4.031)" style="fill:#fa6450"/>
                </g>
            </g>
            <g data-name="Group 29274">
                <g data-name="Group 29273">
                    <path data-name="Path 27501" d="M24.7 40a6.7 6.7 0 0 0-6.7 6.7v.427a13.3 13.3 0 0 0 4.468 1.608V46.7a6.7 6.7 0 0 1 4.468-6.313A6.67 6.67 0 0 0 24.7 40z" transform="translate(1.36 4.031)" style="fill:#dc4632"/>
                </g>
            </g>
            <g data-name="Group 29276">
                <g data-name="Group 29275">
                    <path data-name="Path 27502" d="M24.7 41.405a6.7 6.7 0 1 1 6.7-6.7 6.7 6.7 0 0 1-6.7 6.7z" transform="translate(1.36 2.626)" style="fill:#f0c8a0"/>
                </g>
            </g>
            <g data-name="Group 29278">
                <g data-name="Group 29277">
                    <path data-name="Path 27503" d="M18 34.7a6.7 6.7 0 0 1 13.405 0z" transform="translate(1.36 2.626)" style="fill:#fab400"/>
                </g>
            </g>
            <g data-name="Group 29280">
                <g data-name="Group 29279">
                    <path data-name="Path 27504" d="M22.468 34.7a6.7 6.7 0 0 1 4.468-6.313 6.7 6.7 0 1 0 0 12.625 6.7 6.7 0 0 1-4.468-6.312z" transform="translate(1.36 2.626)" style="fill:#d2aa82"/>
                </g>
            </g>
            <g data-name="Group 29282">
                <g data-name="Group 29281">
                    <path data-name="Path 27505" d="M26.937 28.39A6.687 6.687 0 0 0 18 34.7h4.468a6.7 6.7 0 0 1 4.468-6.313z" transform="translate(1.36 2.626)" style="fill:#dc9600"/>
                </g>
            </g>
            <g data-name="Group 29284">
                <g data-name="Group 29283">
                    <path data-name="Path 27506" d="M40 26h15.639v2.234H40z" transform="translate(3.937 2.392)" style="fill:#46aad2"/>
                </g>
            </g>
            <g data-name="Group 29286">
                <g data-name="Group 29285">
                    <path data-name="Path 27507" d="M0 0h15.639v2.234H0z" transform="rotate(180 29.788 18.664)" style="fill:#46aad2"/>
                </g>
            </g>
            <g data-name="Group 29288">
                <g data-name="Group 29287">
                    <path data-name="Path 27508" d="M0 0h15.639v2.234H0z" transform="rotate(180 29.788 22.015)" style="fill:#46aad2"/>
                </g>
            </g>
            <g data-name="Group 29290">
                <g data-name="Group 29289">
                    <path data-name="Path 27509" d="M0 0h15.639v2.234H0z" transform="rotate(180 29.788 25.367)" style="fill:#46aad2"/>
                </g>
            </g>
            <g data-name="Group 29291">
                <path data-name="Path 27510" d="M52 50h2.234v2.234H52z" transform="translate(5.342 5.202)" style="fill:#46aad2"/>
            </g>
            <g data-name="Group 29292">
                <path data-name="Path 27511" d="M48 50h2.234v2.234H48z" transform="translate(4.873 5.202)" style="fill:#46aad2"/>
            </g>
            <g data-name="Group 29293">
                <path data-name="Path 27512" d="M44 50h2.234v2.234H44z" transform="translate(4.405 5.202)" style="fill:#46aad2"/>
            </g>
            <g data-name="Group 29294">
                <path data-name="Path 27513" d="M14 50h24.576v2.234H14z" transform="translate(.892 5.202)" style="fill:#f0f0f0"/>
            </g>
            <g data-name="Group 29295" transform="translate(26.063 8.284)">
                <circle data-name="Ellipse 1177" cx="9" cy="9" r="9" transform="translate(-.063 -.19)" style="fill:#3cc8b4"/>
            </g>
            <g data-name="Group 29296">
                <path data-name="Path 27514" d="M26.234 16.937a8.933 8.933 0 0 1 7.82-8.86 8.937 8.937 0 1 0 0 17.719 8.933 8.933 0 0 1-7.82-8.859z" transform="translate(2.063 .284)" style="fill:#1eaa96"/>
            </g>
            <g data-name="Group 29297">
                <path data-name="Path 27515" d="m38.171 14.234-6.7 6.7L27 16.468l2.234-2.234 2.234 2.234L35.937 12z" transform="translate(2.414 .752)" style="fill:#f0f0f0"/>
            </g>
        </g>
    </g>
</svg>
