<svg xmlns="http://www.w3.org/2000/svg" width="70" height="70" viewBox="0 0 70 70">
    <g transform="translate(5.958 5.958)" data-name="Group 25883">
        <path data-name="Path 27516" d="M195.185 3.9a13.331 13.331 0 0 0-18.853 0l-11 11a13.27 13.27 0 0 0-3.452 5.974c-.251.94-2.79 2.487-2.832 3.452-.063 1.435 2.5 2.293 2.9 3.684a13.335 13.335 0 0 0 22.241 5.742l11-11a13.331 13.331 0 0 0-.004-18.852zm-15.711 25.142a6.666 6.666 0 0 1-9.426 0c-.98-.98-1.866-6.685-1.029-8.1a6.676 6.676 0 0 1 1.029-1.325l11-11a6.666 6.666 0 0 1 9.426 9.426z" transform="translate(-141.006)" style="fill:#ffc344"/>
        <path data-name="Path 27517" d="M33.756 187.476a13.271 13.271 0 0 0-5.742-3.388 6.668 6.668 0 0 0 1.029 8.1 6.666 6.666 0 0 1 0 9.426l-11 11a6.666 6.666 0 0 1-9.426-9.426l11-11a6.679 6.679 0 0 1 1.325-1.029 13.4 13.4 0 0 1-.064-7.136 13.27 13.27 0 0 0-5.974 3.452l-11 11a13.331 13.331 0 0 0 18.853 18.853l11-11a13.331 13.331 0 0 0-.001-18.852z" transform="translate(-.001 -163.148)" style="fill:#fd6930"/>
        <circle data-name="Ellipse 1178" cx="13" cy="13" r="13" transform="translate(32 32)" style="fill:#01c0fa"/>
        <path data-name="Path 27518" d="M341.534 291.625a12.71 12.71 0 0 1-11.112 22.252 12.707 12.707 0 1 0 11.112-22.252z" transform="translate(-292.937 -258.542)" style="fill:#08a9f1"/>
        <g data-name="Group 29299">
            <path data-name="Path 27519" d="M58.978 58.978a1.815 1.815 0 0 1-2.567 0l-5.134-5.134a1.815 1.815 0 0 1 2.567-2.567l5.134 5.134a1.815 1.815 0 0 1 0 2.567z" transform="translate(-44.988 -44.989)" style="fill:#68ca44"/>
            <path data-name="Path 27520" d="M161.815 10.891A1.815 1.815 0 0 1 160 9.076V1.815a1.815 1.815 0 0 1 3.63 0v7.26a1.815 1.815 0 0 1-1.815 1.816z" transform="translate(-141.849)" style="fill:#68ca44"/>
            <path data-name="Path 27521" d="M10.891 161.815A1.815 1.815 0 0 0 9.076 160H1.815a1.815 1.815 0 0 0 0 3.63h7.26a1.815 1.815 0 0 0 1.816-1.815z" transform="translate(0 -141.849)" style="fill:#68ca44"/>
        </g>
        <path data-name="Path 27522" d="M319.245 305.3h-5.908a29.934 29.934 0 0 0 0-9.189h5.908a12.657 12.657 0 0 0-.811-1.7H313a18.4 18.4 0 0 0-.974-3.023 9.1 9.1 0 0 0-2.054-3.124 12.825 12.825 0 0 0-5.157 0 9.1 9.1 0 0 0-2.054 3.124 18.4 18.4 0 0 0-.974 3.023h-5.432a12.657 12.657 0 0 0-.811 1.7h5.908a29.929 29.929 0 0 0 0 9.189h-5.908a12.646 12.646 0 0 0 .811 1.7h5.432a18.4 18.4 0 0 0 .974 3.023 9.1 9.1 0 0 0 2.054 3.124 12.824 12.824 0 0 0 5.157 0 9.1 9.1 0 0 0 2.054-3.124A18.409 18.409 0 0 0 313 307h5.432a12.668 12.668 0 0 0 .813-1.7zm-11.85-16.45c1.432 0 2.973 2.116 3.856 5.559h-7.713c.885-3.443 2.425-5.558 3.862-5.558zm0 23.71c-1.432 0-2.973-2.116-3.856-5.559h7.713c-.883 3.444-2.424 5.56-3.852 5.56zm4.218-7.26h-8.437a28.254 28.254 0 0 1 0-9.189h8.437a28.252 28.252 0 0 1 0 9.189z" transform="translate(-262.018 -255.328)" style="fill:#0290cf"/>
    </g>
</svg>
