<svg xmlns="http://www.w3.org/2000/svg" width="70" height="70" viewBox="0 0 70 70">
    <g transform="translate(0 -24.172)" data-name="Group 25883">
        <path data-name="Path 27439" d="M272.5 37.23v2.94l1.025 1.3h3.281a1.094 1.094 0 0 0 1.094-1.094v-3.282A1.094 1.094 0 0 0 276.807 36h-3.281z" transform="translate(-235.244 -6.906)" style="fill:#ff8086"/>
        <path data-name="Path 27440" d="M256 36h3.281v5.469H256z" transform="translate(-221 -6.906)" style="fill:#e5646e"/>
        <path data-name="Path 27441" d="M250.188 41.125H248V29.094a1.094 1.094 0 1 1 2.188 0z" transform="translate(-214.094)" style="fill:#ffc269"/>
        <path data-name="Path 27442" d="M76.865 180h-57.64a1.094 1.094 0 0 0-1 .65l-3.114 7.007 2.788.889h60.566l2.514-.889-3.114-7.007a1.094 1.094 0 0 0-1-.65z" transform="translate(-13.045 -131.219)" style="fill:#ff8086"/>
        <path data-name="Path 27443" d="m78.842 236.65-.289-.65H12.685l-.289.65a1.094 1.094 0 0 0 1 1.538h.5l.718 1.025h61.858l.866-1.025h.5a1.094 1.094 0 0 0 1.004-1.538z" transform="translate(-10.619 -179.563)" style="fill:#e5646e"/>
        <path data-name="Path 27444" d="M95.783 189.1H33.667v-29.528h12.9l17.5-15.9 17.5 15.9 14.219 1.094z" transform="translate(-29.064 -99.853)" style="fill:#ffc269"/>
        <path data-name="Path 27445" d="M208 373.094v10.938h13.125v-10.938a1.094 1.094 0 0 0-1.094-1.094h-4.375l-1.048 1.185-1.139-1.185h-4.375a1.094 1.094 0 0 0-1.094 1.094z" transform="translate(-179.563 -296.969)" style="fill:#c38c66"/>
        <path data-name="Path 27446" d="M248 372h2.188v10.938H248z" transform="translate(-214.094 -296.969)" style="fill:#b57f5f"/>
        <ellipse data-name="Ellipse 1171" cx="7.5" cy="6.25" rx="7.5" ry="6.25" transform="translate(27.5 54.173)" style="fill:#fff0af"/>
        <ellipse data-name="Ellipse 1172" cx="5" cy="3.75" rx="5" ry="3.75" transform="translate(30 56.673)" style="fill:#fff"/>
        <path data-name="Path 27447" d="M252.26 252.608a1.1 1.1 0 0 0-1.468-.489l-2.188 1.094-.6.978v2.187a1.094 1.094 0 1 0 2.188 0v-1.511l1.583-.792a1.094 1.094 0 0 0 .485-1.467z" transform="translate(-214.094 -193.379)" style="fill:#857e87"/>
        <path data-name="Path 27448" d="M192 445.094v3.281h17.5v-3.281a1.094 1.094 0 0 0-1.094-1.094h-15.312a1.094 1.094 0 0 0-1.094 1.094z" transform="translate(-165.75 -359.125)" style="fill:#c8c5c9"/>
        <path data-name="Path 27449" d="m73.219 141.5-17.5-17.5-17.5 17.5H24v30.625h2.188v-26.25a2.187 2.187 0 0 1 2.188-2.188h10.936a3.282 3.282 0 0 0 2.321-.961l14.086-14.086 14.086 14.086a3.282 3.282 0 0 0 2.321.961h15.311V141.5H73.219z" transform="translate(-20.719 -82.875)" style="fill:#ffa95f"/>
        <path data-name="Path 27450" d="M156.093 135.687a1.09 1.09 0 0 1-.773-.32l-16.727-16.727-16.727 16.727a1.094 1.094 0 0 1-1.547-1.547l17.5-17.5a1.093 1.093 0 0 1 1.547 0l17.5 17.5a1.094 1.094 0 0 1-.773 1.867z" transform="translate(-103.593 -75.968)" style="fill:#db4655"/>
        <path data-name="Path 27451" d="M68.906 470.188H1.094a1.094 1.094 0 1 1 0-2.187h67.812a1.094 1.094 0 1 1 0 2.187z" transform="translate(0 -379.844)" style="fill:#dad8db"/>
        <path data-name="Path 27452" d="M65.094 377.469h12.031a1.094 1.094 0 0 0 1.094-1.094v-3.281A1.094 1.094 0 0 0 77.125 372h-5.469l-1.139.775-1.048-.775h-4.375A1.094 1.094 0 0 0 64 373.094v3.281a1.094 1.094 0 0 0 1.094 1.094z" transform="translate(-55.25 -296.969)" style="fill:#edf4ff"/>
        <path data-name="Path 27453" d="M58.188 374.188V372h-1.094A1.094 1.094 0 0 0 56 373.094v4.375a1.094 1.094 0 0 0 1.094 1.094h5.469l1.094-.632 1.094.632h5.469a1.094 1.094 0 0 0 1.094-1.094v-1.094H60.375a2.187 2.187 0 0 1-2.187-2.187z" transform="translate(-48.344 -296.969)" style="fill:#dbeaff"/>
        <path data-name="Path 27454" d="m105.042 377.025-1.042-.65V372h2.188v4.375z" transform="translate(-89.781 -296.969)" style="fill:#ffe09f"/>
        <path data-name="Path 27455" d="M104 404h2.188v2.188H104z" transform="translate(-89.781 -324.594)" style="fill:#ffc269"/>
        <ellipse data-name="Ellipse 1173" cy="1.25" ry="1.25" transform="translate(35 59.173)" style="fill:#4b3f4e"/>
        <path data-name="Path 27456" d="M65.094 297.469h12.031a1.094 1.094 0 0 0 1.094-1.094v-3.281A1.094 1.094 0 0 0 77.125 292h-5.469l-1.139.775-1.048-.775h-4.375A1.094 1.094 0 0 0 64 293.094v3.281a1.094 1.094 0 0 0 1.094 1.094z" transform="translate(-55.25 -227.906)" style="fill:#edf4ff"/>
        <path data-name="Path 27457" d="M58.188 294.188V292h-1.094A1.094 1.094 0 0 0 56 293.094v4.375a1.094 1.094 0 0 0 1.094 1.094h5.469l1.094-.632 1.094.632h5.469a1.094 1.094 0 0 0 1.094-1.094v-1.094H60.375a2.187 2.187 0 0 1-2.187-2.187z" transform="translate(-48.344 -227.906)" style="fill:#dbeaff"/>
        <path data-name="Path 27458" d="m105.042 297.024-1.042-.649V292h2.188v4.375z" transform="translate(-89.781 -227.906)" style="fill:#ffe09f"/>
        <path data-name="Path 27459" d="M104 324h2.188v2.188H104z" transform="translate(-89.781 -255.531)" style="fill:#ffc269"/>
        <path data-name="Path 27460" d="M353.094 377.469h12.031a1.094 1.094 0 0 0 1.094-1.094v-3.281a1.094 1.094 0 0 0-1.094-1.094h-5.469l-1.139.775-1.048-.775h-4.375a1.094 1.094 0 0 0-1.094 1.094v3.281a1.094 1.094 0 0 0 1.094 1.094z" transform="translate(-303.875 -296.969)" style="fill:#edf4ff"/>
        <path data-name="Path 27461" d="M346.188 374.188V372h-1.094a1.094 1.094 0 0 0-1.094 1.094v4.375a1.094 1.094 0 0 0 1.094 1.094h5.469l1.094-.632 1.094.632h5.469a1.094 1.094 0 0 0 1.094-1.094v-1.094h-10.939a2.187 2.187 0 0 1-2.187-2.187z" transform="translate(-296.969 -296.969)" style="fill:#dbeaff"/>
        <path data-name="Path 27462" d="m393.043 377.025-1.043-.65V372h2.187v4.375z" transform="translate(-338.406 -296.969)" style="fill:#ffe09f"/>
        <path data-name="Path 27463" d="M392 404h2.187v2.188H392z" transform="translate(-338.406 -324.594)" style="fill:#ffc269"/>
        <path data-name="Path 27464" d="M353.094 297.469h12.031a1.094 1.094 0 0 0 1.094-1.094v-3.281a1.094 1.094 0 0 0-1.094-1.094h-5.469l-1.139.775-1.048-.775h-4.375a1.094 1.094 0 0 0-1.094 1.094v3.281a1.094 1.094 0 0 0 1.094 1.094z" transform="translate(-303.875 -227.906)" style="fill:#edf4ff"/>
        <path data-name="Path 27465" d="M346.188 294.188V292h-1.094a1.094 1.094 0 0 0-1.094 1.094v4.375a1.094 1.094 0 0 0 1.094 1.094h5.469l1.094-.632 1.094.632h5.469a1.094 1.094 0 0 0 1.094-1.094v-1.094h-10.939a2.187 2.187 0 0 1-2.187-2.187z" transform="translate(-296.969 -227.906)" style="fill:#dbeaff"/>
        <path data-name="Path 27466" d="m393.043 297.024-1.043-.649V292h2.187v4.375z" transform="translate(-338.406 -227.906)" style="fill:#ffe09f"/>
        <path data-name="Path 27467" d="M392 324h2.187v2.188H392z" transform="translate(-338.406 -255.531)" style="fill:#ffc269"/>
    </g>
</svg>
