<svg xmlns="http://www.w3.org/2000/svg" width="70" height="70" viewBox="0 0 70 70">
    <g data-name="Group 28975" transform="translate(-334 -4034)">
        <circle data-name="Ellipse 691" cx="35" cy="35" r="35" transform="translate(334 4034)" style="fill:#f2f4f7"/>
        <path data-name="Path 26157" d="M202.314 195.6a2.724 2.724 0 0 1-2.514 2.42l-.324.022a1.525 1.525 0 0 0-1.422 1.521v3.037a1.232 1.232 0 0 1-1.979.981 22.589 22.589 0 0 1-4.658-4.544 1.52 1.52 0 0 0-1.26-.649q-5.581.028-11.162-.362a2.72 2.72 0 0 1-2.31-1.641 2.678 2.678 0 0 1-.2-.773 69.189 69.189 0 0 1 0-15.1 2.719 2.719 0 0 1 2.513-2.414 148.322 148.322 0 0 1 16.626-.234q2.089.087 4.179.234a2.72 2.72 0 0 1 2.514 2.414 69.165 69.165 0 0 1-.003 15.088z" transform="translate(186.905 3884.953)" style="fill:#78d0b1"/>
        <path data-name="Path 26158" d="M177.9 184.007a70.807 70.807 0 0 0 0 15.461 2.745 2.745 0 0 0 .209.792 2.785 2.785 0 0 0 1.406 1.437l-.52-.035a2.719 2.719 0 0 1-2.31-1.641 2.66 2.66 0 0 1-.2-.773 69.14 69.14 0 0 1 0-15.1 2.719 2.719 0 0 1 2.512-2.414l.768-.052a2.785 2.785 0 0 0-1.865 2.325z" transform="translate(186.909 3881.315)" style="fill:#66b49d"/>
        <g data-name="Group 28983">
            <path data-name="Path 26159" d="M305.554 226.729c0 .82 1.078 1.484 1.9 1.484h6.346a1.2 1.2 0 1 0 0-2.391h.429a1.2 1.2 0 1 0 0-2.391h.43a1.2 1.2 0 0 0 1.195-1.172 1.216 1.216 0 0 0-1.222-1.22h-.4a1.2 1.2 0 1 0 0-2.391h-3.363l-.011-.017 1.311-2.794a1.584 1.584 0 1 0-2.868-1.346l-.561 1.195a3.863 3.863 0 0 1-1.534 1.7 2.538 2.538 0 0 0-1.255 2.233z" transform="translate(67.695 3851.947)" style="fill:#ffddce"/>
            <g data-name="Group 28982">
                <path data-name="Path 26160" d="M316.5 214.087a1.511 1.511 0 0 0-.162-.008 1.585 1.585 0 0 0-1.436.911l-.561 1.195a3.863 3.863 0 0 1-1.534 1.7c-.443.26-2.039.664-2.1 3.685a2.619 2.619 0 0 1-.152.671v-2.624a2.538 2.538 0 0 1 1.255-2.233 3.863 3.863 0 0 0 1.534-1.7l.561-1.195a1.585 1.585 0 0 1 2.6-.4z" transform="translate(63.09 3851.948)" style="fill:#ffcbbe"/>
                <path data-name="Path 26161" d="M315.1 377.808a1.2 1.2 0 0 1-1.2 1.2h-6.515a2.128 2.128 0 0 1-1.724-.881h8.239a1.2 1.2 0 0 0 1.112-.755 1.2 1.2 0 0 1 .088.436z" transform="translate(67.594 3701.156)" style="fill:#ffcbbe"/>
                <path data-name="Path 26162" d="M405.58 347.233a1.2 1.2 0 0 1-1.111 1.636h-.458a.44.44 0 1 1 0-.881h.458a1.2 1.2 0 0 0 1.111-.755z" transform="translate(-22.543 3728.9)" style="fill:#ffcbbe"/>
                <path data-name="Path 26163" d="M410.993 317.1a1.2 1.2 0 0 1-1.111 1.636h-.458a.44.44 0 1 1 0-.881h.458a1.2 1.2 0 0 0 1.111-.755z" transform="translate(-27.527 3756.641)" style="fill:#ffcbbe"/>
                <path data-name="Path 26164" d="M405.587 286.966a1.2 1.2 0 0 1-1.111 1.636h-.458a.44.44 0 0 1 0-.881h.458a1.2 1.2 0 0 0 1.112-.755z" transform="translate(-22.55 3784.384)" style="fill:#ffcbbe"/>
            </g>
            <path data-name="Path 26165" d="M263.7 278.755v7.456a.936.936 0 0 0 .936.936h1.846a.936.936 0 0 0 .936-.936v-7.456a.936.936 0 0 0-.936-.936h-1.846a.936.936 0 0 0-.936.936z" transform="translate(106.228 3792.805)" style="fill:#f1f4f6"/>
            <path data-name="Path 26166" d="M263.7 353.981v2.349a.936.936 0 0 0 .937.936h1.846a.936.936 0 0 0 .936-.936v-2.349a.936.936 0 0 1-.936.937h-1.846a.937.937 0 0 1-.937-.937z" transform="translate(106.231 3722.687)" style="fill:#d0e2e7"/>
        </g>
        <path data-name="Path 26167" d="M.4 22.518a2.619 2.619 0 0 0 2.418 2.327l.312.021a1.466 1.466 0 0 1 1.37 1.463v2.915a1.185 1.185 0 0 0 1.9.943 21.725 21.725 0 0 0 4.479-4.37 1.462 1.462 0 0 1 1.211-.624q5.366.027 10.733-.349a2.615 2.615 0 0 0 2.222-1.578 2.578 2.578 0 0 0 .2-.743A66.534 66.534 0 0 0 25.241 8a2.615 2.615 0 0 0-2.416-2.321 142.661 142.661 0 0 0-15.988-.222q-2.009.083-4.018.225A2.616 2.616 0 0 0 .4 8a66.517 66.517 0 0 0 0 14.515z" transform="translate(348.997 4043.669)" style="fill:#f9da41"/>
        <path data-name="Path 26168" d="M1.763 11.367a68.094 68.094 0 0 0 0 14.867 2.642 2.642 0 0 0 .2.761 2.678 2.678 0 0 0 1.352 1.382l-.5-.034a2.614 2.614 0 0 1-2.221-1.579 2.56 2.56 0 0 1-.2-.743A66.483 66.483 0 0 1 .4 11.5a2.615 2.615 0 0 1 2.414-2.321l.739-.05a2.678 2.678 0 0 0-1.79 2.238z" transform="translate(349 4040.173)" style="fill:#edc932"/>
        <g data-name="Group 28984">
            <path data-name="Path 26169" d="M199.862 73.2c.752 0 1.365-1.017 1.365-2.267s-.612-2.267-1.365-2.267-1.364 1.017-1.364 2.267.612 2.267 1.364 2.267z" transform="translate(166.255 3985.359)" style="fill:#21386b"/>
            <path data-name="Path 26170" d="M91.509 73.2c.752 0 1.365-1.017 1.365-2.267s-.612-2.267-1.365-2.267-1.364 1.017-1.364 2.267.612 2.267 1.364 2.267z" transform="translate(266.009 3985.359)" style="fill:#21386b"/>
            <path data-name="Path 26171" d="M107.338 146.256a.613.613 0 0 0-.8.327 4.228 4.228 0 0 1-7.793 0 .613.613 0 0 0-1.13.476 5.454 5.454 0 0 0 10.053 0 .613.613 0 0 0-.33-.803z" transform="translate(259.18 3913.973)" style="fill:#21386b"/>
        </g>
    </g>
</svg>
