<svg xmlns="http://www.w3.org/2000/svg" width="365.824" height="365.824" viewBox="0 0 365.824 365.824">
    <path d="M342.96 160.048a22.868 22.868 0 0 0-19.792 11.432h-20.763a119.446 119.446 0 0 0-26.956-64.938l14.727-14.727a22.867 22.867 0 1 0-16.167-16.167l-14.727 14.727a119.446 119.446 0 0 0-64.938-26.956V42.656a22.864 22.864 0 1 0-22.864 0v20.763a119.446 119.446 0 0 0-64.938 26.956L91.815 75.648a22.867 22.867 0 1 0-16.167 16.167l14.727 14.727a119.446 119.446 0 0 0-26.956 64.938H42.656a22.864 22.864 0 1 0 0 22.864h20.763a119.446 119.446 0 0 0 26.956 64.938l-14.727 14.727a22.867 22.867 0 1 0 16.167 16.167l14.727-14.727a119.446 119.446 0 0 0 64.938 26.956v20.763a22.864 22.864 0 1 0 22.864 0v-20.763a119.446 119.446 0 0 0 64.938-26.956l14.727 14.727a22.867 22.867 0 1 0 16.167-16.167l-14.727-14.727a119.446 119.446 0 0 0 26.956-64.938h20.763a22.861 22.861 0 1 0 19.792-34.3zM145.044 177.2a20.006 20.006 0 1 1 20.006-20.01 20.028 20.028 0 0 1-20.006 20.01zm49.3 68.592a22.864 22.864 0 1 1 22.864-22.864 22.885 22.885 0 0 1-22.864 22.86zm40.012-80.024a17.148 17.148 0 1 1 17.144-17.152 17.171 17.171 0 0 1-17.144 17.148z" style="fill:#fff;opacity:.1"/>
</svg>
