<svg xmlns="http://www.w3.org/2000/svg" width="172.704" height="172.147" viewBox="0 0 172.704 172.147">
    <g data-name="#989898ff">
        <path data-name="Path 4499" d="M572.353 545.26a24.7 24.7 0 0 1 10.288 9.515 25.056 25.056 0 0 1-39.911 29.866 5.357 5.357 0 0 0 1.882-.688 22.638 22.638 0 0 0 13.758 6.455 23.034 23.034 0 0 0 24.664-28.608 23.2 23.2 0 0 0-10.587-14.144 15.1 15.1 0 0 0-.094-2.396z" transform="translate(-456.397 -463.962)" style="fill:#989898"/>
    </g>
    <g data-name="#d6ad79ff">
        <path data-name="Path 4501" d="M297.844 40.869a3.115 3.115 0 0 1 2.489-.42 5.314 5.314 0 0 1 3.681 2.8 6.624 6.624 0 0 1 .406 4.462 17.648 17.648 0 0 1-3.525 6.686 55.224 55.224 0 0 1-5.932 6.188 2.136 2.136 0 0 0 .807 2 3.953 3.953 0 0 0 2.887.01 27.909 27.909 0 0 0 5.112-2.262c2.287-1.2 4.484-2.56 6.641-3.977q8.1-5.2 16.2-10.389a16.941 16.941 0 0 1 5.625-2.984 4.767 4.767 0 0 1 3.9.828 5.984 5.984 0 0 1 2.4 3.177 5.489 5.489 0 0 1-.756 4.012 18.273 18.273 0 0 1-4.75 5.1 27.521 27.521 0 0 0-2.456 2.043c-1.507 1.333-3.026 2.654-4.518 4l-.211.024a1.546 1.546 0 0 0 .3.274c.082-.248.362-.3.546-.452q6.611-4.253 13.228-8.5c1.94-1.209 3.744-2.752 5.99-3.372a4.873 4.873 0 0 1 4.188.642 5.853 5.853 0 0 1 2.565 3.53 5.852 5.852 0 0 1-.982 4.045 19.477 19.477 0 0 1-5.444 5.457c-3.309 2.913-6.6 5.847-9.913 8.755a.769.769 0 0 0-.971.04q-4.983 4.1-10.254 7.843c-.087.591-.027 1.2-.068 1.8 3.857-2.647 7.57-5.505 11.188-8.468a.807.807 0 0 0 .195-1.15c1.328-.8 2.662-1.584 3.993-2.378a42.611 42.611 0 0 1 4.947-2.832 6.132 6.132 0 0 1 3.679-.472 6.217 6.217 0 0 1 3.522 2.618 4.6 4.6 0 0 1 .338 4.464 14.277 14.277 0 0 1-4.338 5.169c-.672.543-1.386 1.026-2.09 1.523q-3.927 3.2-7.831 6.428c-1.035.837-2.056 1.692-3.09 2.53-.581-.282-1.01.269-1.414.589a15.221 15.221 0 0 0-9.328-6.45 15.326 15.326 0 0 0-.826-8.339 15.011 15.011 0 0 0-4.948-6.447c2.375-1.739 4.692-3.563 6.9-5.505.535-.472-.023-1.319-.641-1.227a2.1 2.1 0 0 0-.721.5 111.585 111.585 0 0 1-6.826 5.378 15.039 15.039 0 0 0-15.656.155 16.1 16.1 0 0 0-4.053-2.514 15.017 15.017 0 0 0-9.929-.622 15.335 15.335 0 0 0-5.76 3.079 10.862 10.862 0 0 0-6.154-2.95 11.028 11.028 0 0 0-8.175 2.256 12.369 12.369 0 0 0-2.557 2.815 12.028 12.028 0 0 0-2.868-.589 37.178 37.178 0 0 1 10.175-10.2c8.364-6.24 16.689-12.528 25.083-18.721z" transform="translate(-221.365 -40.371)" style="fill:#d6ad79"/>
        <path data-name="Path 4502" d="M716.887 328.482a9.081 9.081 0 0 1 3.663-1.114 4.159 4.159 0 0 1 3 1.108 4.953 4.953 0 0 1 1.868 3.723 7.233 7.233 0 0 1-2.584 4.475 21.452 21.452 0 0 1-3.934 2.826c-2.211 1.538-4.381 3.135-6.6 4.66a15.124 15.124 0 0 0-.857-11.859c.438-.423 1.264-.792 1-1.541a224.214 224.214 0 0 0 4.444-2.278z" transform="translate(-597.941 -281.149)" style="fill:#d6ad79"/>
        <path data-name="Path 4503" d="M6.79 541.86q6.06.106 12.12.269a4.424 4.424 0 0 1 2.609 1 28.579 28.579 0 0 1 5.095 5.364A14.614 14.614 0 0 0 25.9 551l-.19.109c-6.364 1.564-12.631 3.483-18.875 5.459-.08-4.905.053-9.806-.045-14.708z" transform="translate(-6.755 -461.11)" style="fill:#d6ad79"/>
    </g>
    <g data-name="#ffd06eff">
        <path data-name="Path 4504" d="M199.481 126.82a12.862 12.862 0 0 0 2.164 3.095 10.2 10.2 0 0 0 3.9 2.435 10.312 10.312 0 0 0-5.633 5.98 10.27 10.27 0 0 0-5.488-5.372c-.169-.087-.385-.1-.517-.248a9.915 9.915 0 0 0 5.574-5.89z" transform="translate(-163.745 -112.9)" style="fill:#ffd06e"/>
    </g>
    <g data-name="#604828ff">
        <path data-name="Path 4505" d="M611.926 176.893a2.1 2.1 0 0 1 .721-.5c.618-.092 1.175.755.641 1.227-2.211 1.942-4.528 3.766-6.9 5.505a14.822 14.822 0 0 0-1.285-.855 111.958 111.958 0 0 0 6.823-5.377z" transform="translate(-508.723 -154.486)" style="fill:#604828"/>
        <path data-name="Path 4506" d="M660.662 239.494a.769.769 0 0 1 .971-.04l.09.066a.807.807 0 0 1-.195 1.15c-3.618 2.963-7.331 5.821-11.188 8.468.04-.6-.019-1.209.068-1.8q5.26-3.738 10.254-7.844z" transform="translate(-546.679 -207.269)" style="fill:#604828"/>
        <path data-name="Path 4507" d="M706.85 346.724c.4-.32.832-.871 1.414-.589.108.1.216.208.322.316.267.749-.559 1.117-1 1.541a20.489 20.489 0 0 0-.736-1.268z" transform="translate(-594.089 -296.835)" style="fill:#604828"/>
        <path data-name="Path 4508" d="M6.57 532.9c4.051.053 8.1.156 12.151.261a5.049 5.049 0 0 1 2.567.725 18.4 18.4 0 0 1 4.212 3.684 53.145 53.145 0 0 1 3.9 5.009c-.04.57-.554 1.117-1.148.831a5.966 5.966 0 0 1-.779-1.013 29.992 29.992 0 0 0-1.04-1.419 28.581 28.581 0 0 0-5.095-5.364 4.425 4.425 0 0 0-2.609-1q-6.06-.169-12.12-.269a5.215 5.215 0 0 0-.039-1.445z" transform="translate(-6.57 -453.592)" style="fill:#604828"/>
    </g>
    <g data-name="#ffffffff">
        <path data-name="Path 4509" d="M234.309 191.486a15.017 15.017 0 0 1 9.929.622 16.1 16.1 0 0 1 4.053 2.514 15.04 15.04 0 0 1 15.656-.155 14.83 14.83 0 0 1 1.285.855 15.011 15.011 0 0 1 4.948 6.447 15.327 15.327 0 0 1 .826 8.339 15.221 15.221 0 0 1 9.325 6.462c.259.414.507.836.739 1.267a15.123 15.123 0 0 1 .857 11.859c-.2.512-.4 1.027-.649 1.52a5.025 5.025 0 0 0-.333.778c1.81.812 3.62 1.633 5.364 2.583a47.282 47.282 0 0 1 6.868 4.712 5.155 5.155 0 0 1 .631.654 1.043 1.043 0 0 0-.425 1.9 1.073 1.073 0 0 0 1.62-.82l.126-.047a47.635 47.635 0 0 1 5.224 5.748 1.026 1.026 0 0 0-.655 1.354 1.047 1.047 0 0 0 1.774.253 40.975 40.975 0 0 1 6.019 12.862 37.225 37.225 0 0 1-.742 21.83c-.349 1.2-.958 2.3-1.3 3.5a5.161 5.161 0 0 0-3.916 3.768.8.8 0 0 0 1.225.726 15.292 15.292 0 0 1-1.8 2.652c-.816 1.066-1.754 2.029-2.609 3.061-.436.126-1.01-.013-1.295.423a.955.955 0 0 0-.061.855 39.86 39.86 0 0 1-17.5 9.418 13.477 13.477 0 0 0-3.306-3.4c.485-.734 1-1.451 1.469-2.19a1.517 1.517 0 0 0 1.441-.419 1.416 1.416 0 0 0-1.259-2.388l-.127-.139a30.181 30.181 0 0 0 18.92-14.4 28.058 28.058 0 0 0 3.444-13.054 30.47 30.47 0 0 0-3.79-14.965 36.141 36.141 0 0 0-14.948-14.671 14.866 14.866 0 0 1 2.19 6.182 14.913 14.913 0 0 1-8.125 15.11c-.3.166-.708.258-.828.628a16.409 16.409 0 0 1-2.047 3.386 17.916 17.916 0 0 1-2.05 2.071 27.293 27.293 0 0 0-3.158-2.549q-5.633-4.444-11.262-8.895a.978.978 0 0 1-.324-.391 48.392 48.392 0 0 0 9.009 4.763c2.224.8 4.749 1.5 7.053.612.541-.19 1.269-.609.958-1.3a6.416 6.416 0 0 0 1.541-5.04 6.254 6.254 0 0 0-1.989-3.278 51.164 51.164 0 0 0-4.418-3.332l-15.589-11.45c-1.99-1.423-3.882-2.982-5.728-4.588a25.646 25.646 0 0 1-3.327-3.428 3.83 3.83 0 0 1-1.019-2.963 2.484 2.484 0 0 1 2.562-.364 32.073 32.073 0 0 0 5.745 2.625 20.086 20.086 0 0 0 8.491 1.391 6.71 6.71 0 0 0 4.476-2.153 7.855 7.855 0 0 0 1.646-4.729.757.757 0 0 0-.591-.686c-.264-.116-.317-.417-.44-.646a2.378 2.378 0 0 0-.886-1.035c-7.719-4.9-15.471-9.756-23.2-14.637a26.867 26.867 0 0 0-5.623-3.323 8.434 8.434 0 0 1 1.1-1.992 15.293 15.293 0 0 1 7.5-5.676c.51-.175 1.039-.3 1.539-.5a7.826 7.826 0 0 0-2.293-.889 15.049 15.049 0 0 0-11.114 1.4 21.9 21.9 0 0 0-2.451 1.617 10.435 10.435 0 0 0-5.971-2.852 9.906 9.906 0 0 0-9.713 4.871h-.1a9.878 9.878 0 0 0-10.188.659 2.621 2.621 0 0 0-.37.407c-1.287.3-2.584.543-3.881.8a10.943 10.943 0 0 1 10.325-5.533 12.028 12.028 0 0 1 2.868.589 12.371 12.371 0 0 1 2.557-2.815 11.028 11.028 0 0 1 8.175-2.256 10.862 10.862 0 0 1 6.154 2.95 15.335 15.335 0 0 1 5.76-3.079m19.775 5.114.187.137a15.176 15.176 0 0 1 6.053 5.214 14.913 14.913 0 0 1 2.517 8.938 15.381 15.381 0 0 1-1.3 5.586c.364.137.744.233 1.116.356a18.126 18.126 0 0 1 11.27 10.97 18.727 18.727 0 0 1 1.1 6.956 2.022 2.022 0 0 0 .559-.438 12.687 12.687 0 0 0-8.866-21.242c-.364 0-.208-.415-.126-.613a12.053 12.053 0 0 0-12.51-15.864m20.727 40.064c-.066.63-.275 1.238-.348 1.865a19.32 19.32 0 0 1-3.056 6.252 14.4 14.4 0 0 0-1.016 1.348 15.437 15.437 0 0 1 3.7 4.541 14.88 14.88 0 0 1 1.61 9.178 3.622 3.622 0 0 0 .56-.388 13.14 13.14 0 0 0 .4-19.241 10.228 10.228 0 0 0-1.842-3.551z" transform="translate(-167.57 -166.681)" style="fill:#fff"/>
        <path data-name="Path 4510" d="m856.384 216.01.108.064a7.383 7.383 0 0 0 4.066 4.058l.118.163a7.274 7.274 0 0 0-4 3.673c-.1.143-.079.44-.32.406a7.427 7.427 0 0 0-4.245-4.1 7.991 7.991 0 0 0 4.273-4.264z" transform="translate(-715.959 -187.728)" style="fill:#fff"/>
        <path data-name="Path 4511" d="M352.078 297.338q3.913-3.217 7.831-6.428c1.517.736 3.1 1.332 4.6 2.1a73.022 73.022 0 0 1 32.8 31.779 65.253 65.253 0 0 1 6.347 17.973 62.722 62.722 0 0 1-15.808 55.078 64.9 64.9 0 0 1-56.414 20.2 66.444 66.444 0 0 1-19.371-5.768 65.648 65.648 0 0 1-17.473-12.151 57.9 57.9 0 0 1-14.234-22.316 40.631 40.631 0 0 1-1.739-6.929 15.339 15.339 0 0 0 8.8-.092 42.765 42.765 0 0 0 3.146 9.062 34.859 34.859 0 0 0 2.572 4.588 31.438 31.438 0 0 0 2.483 3.707 55.7 55.7 0 0 0 31.609 20.279c.253.219.518.422.781.63-.507.741-1 1.49-1.509 2.229a1.573 1.573 0 0 0-1.464.56 1.425 1.425 0 1 0 2.441 1.438 1.523 1.523 0 0 0-.159-1.493c.507-.717.989-1.451 1.478-2.18a13.18 13.18 0 0 0 8.956 1.907l.507 2.612a1.44 1.44 0 0 0 0 2.232 1.4 1.4 0 0 0 2.2-.654 1.424 1.424 0 0 0-1.182-1.85l-.113-.177c-.147-.783-.3-1.562-.454-2.34a13.754 13.754 0 0 0 3.691-1.434 55.569 55.569 0 0 0 6.909-.7 1.6 1.6 0 0 0 1.77-.335 56.13 56.13 0 0 0 21.4-9.077c.779.013 1.188-.733 1.644-1.241a41.21 41.21 0 0 0 4.407-3.642 20.079 20.079 0 0 1 1.1 1.831c.277.676-.18 1.327-.449 1.921a.731.731 0 0 0 .8 1c.44-.053.633-.5.81-.842a3.275 3.275 0 0 0 .385-2.182c-.242-1.058-1.058-1.844-1.486-2.818a70.614 70.614 0 0 0 2.789-2.952 24.676 24.676 0 0 0 1.56 2.583c.366.747-.211 1.457-.415 2.151a.76.76 0 0 0 1.3.584 3.867 3.867 0 0 0 .734-2.518c-.166-1.193-1.1-2.045-1.633-3.072a1.88 1.88 0 0 1 .05-1.715 32.857 32.857 0 0 0 2.881-3.813 3.883 3.883 0 0 1-.245 3.449.745.745 0 0 0 1.245.72 5.1 5.1 0 0 0-.066-5.631c.742-1.145 1.382-2.351 2.06-3.534a11.071 11.071 0 0 1-.359 1.84.761.761 0 0 0 1.435.25 5.349 5.349 0 0 0-.018-4.322 53.621 53.621 0 0 0 5.129-21.05 55.916 55.916 0 0 0-4.544-23.851 62.031 62.031 0 0 0-9.888-15.867c.515-.216 1.04-.407 1.549-.639.4.127.834.417 1.238.138a1.037 1.037 0 0 0 .053-1.844 1.092 1.092 0 0 0-1.559.8c-.61.229-1.209.48-1.811.725a9.787 9.787 0 0 0-4.464-4.454c.267-.633.551-1.259.8-1.9.364-.209.783-.461.831-.927a1.015 1.015 0 0 0-1.478-1.026 1.061 1.061 0 0 0-.256 1.644c-.229.509-.436 1.027-.662 1.539a44.56 44.56 0 0 0-4.336-3.51 9.169 9.169 0 0 0-1.409-1.106 67.132 67.132 0 0 0-7.887-4.89 4.953 4.953 0 0 0-1.868-3.723 4.16 4.16 0 0 0-3-1.108 9.081 9.081 0 0 0-3.663 1.114c-.583-.19-1.138-.391-1.705-.562z" transform="translate(-234.814 -250.568)" style="fill:#fff"/>
        <path data-name="Path 4512" d="m85.2 345.98.1.029a16.543 16.543 0 0 0 9.682 8.908l-.064.15a16.5 16.5 0 0 0-8.99 9.621 2.443 2.443 0 0 1-.345-.609 16.5 16.5 0 0 0-9.384-8.36c0-.04-.008-.119-.011-.159a16.592 16.592 0 0 0 9.012-9.58z" transform="translate(-64.98 -296.77)" style="fill:#fff"/>
        <path data-name="Path 4513" d="M133.474 591.88a5.965 5.965 0 0 0 .779 1.013 84.215 84.215 0 0 0 11.357 10.8c5.214 3.868 10.355 7.835 15.666 11.573 2.4 1.691 4.836 3.343 7.352 4.861a27.634 27.634 0 0 0 5.858 2.776 4.768 4.768 0 0 0 3.594-.034c.469-.285 1.071-.766.849-1.388a6.05 6.05 0 0 0 1.489-3.823 5.63 5.63 0 0 0-1.605-3.38 4.255 4.255 0 0 1-.733-.882c1.641 1.013 3.114 2.261 4.686 3.373a66.342 66.342 0 0 0 5.892 3.829 13.559 13.559 0 0 1-17.782 4.233 15.15 15.15 0 0 1-4.269-3.62 15.478 15.478 0 0 1-4.356 1.242 13.562 13.562 0 0 1-14.674-9.948 22.484 22.484 0 0 1-.515-3.158 19.837 19.837 0 0 1-3.534-.361 13.572 13.572 0 0 1-10.054-17.11z" transform="translate(-112.575 -503.075)" style="fill:#fff"/>
        <path data-name="Path 4514" d="M489.09 669.32a3.082 3.082 0 0 1-.71-.75 165.842 165.842 0 0 0 14.639 8.479 13.221 13.221 0 0 1-4.235 1.124 29.523 29.523 0 0 0-2.7-2.5q-3.508-3.163-6.994-6.353z" transform="translate(-410.798 -567.416)" style="fill:#fff"/>
        <path data-name="Path 4515" d="M154.1 752.6a7.613 7.613 0 0 0 3.742 4c.19.1.427.145.565.327a7.29 7.29 0 0 0-4.272 4.238 7.684 7.684 0 0 0-4.306-4.241 1.289 1.289 0 0 1 .467-.275 7.489 7.489 0 0 0 3.804-4.049z" transform="translate(-126.762 -637.915)" style="fill:#fff"/>
        <path data-name="Path 4516" d="M461.98 778.637a15.642 15.642 0 0 0 4.02-4.077 28.179 28.179 0 0 0 4.541 1.932 22.5 22.5 0 0 0 14.511 11.9 1.748 1.748 0 0 0 1.034.531c.156.908.353 1.81.515 2.718a13.068 13.068 0 0 0-6.856 4.166 25.866 25.866 0 0 1-3.1-1.378 1.471 1.471 0 0 0-1.855-.955 33.7 33.7 0 0 1-6.1-4.786 29.632 29.632 0 0 1-6.71-10.051z" transform="translate(-388.649 -656.339)" style="fill:#fff"/>
        <path data-name="Path 4517" d="M617.72 861.8a28.1 28.1 0 0 0 11.734-.332l-.006.192a1.479 1.479 0 0 0-.836 2.219c-.506.723-1 1.457-1.488 2.19a12.976 12.976 0 0 0-8.766-1.728 12.76 12.76 0 0 1-.176-.113c-.142-.81-.314-1.616-.462-2.428z" transform="translate(-519.311 -729.255)" style="fill:#fff"/>
    </g>
    <g data-name="#deedefff">
        <path data-name="Path 4518" d="M306.894 213.4a15.049 15.049 0 0 1 11.114-1.4 7.826 7.826 0 0 1 2.293.889c-.5.2-1.029.322-1.539.5a15.293 15.293 0 0 0-7.5 5.676 8.433 8.433 0 0 0-1.1 1.992 36.48 36.48 0 0 0-9.608-2.621 70.625 70.625 0 0 0-11.785-1.4 9.906 9.906 0 0 1 9.713-4.871 10.435 10.435 0 0 1 5.971 2.852 21.9 21.9 0 0 1 2.441-1.617z" transform="translate(-243.322 -183.951)" style="fill:#deedef"/>
        <path data-name="Path 4519" d="M543.85 225.8a12.053 12.053 0 0 1 12.51 15.864c-.082.2-.238.617.126.614a12.676 12.676 0 0 1 8.866 21.242 2.022 2.022 0 0 1-.559.438 18.727 18.727 0 0 0-1.1-6.956 18.126 18.126 0 0 0-11.27-10.97c-.372-.122-.752-.219-1.116-.356a15.383 15.383 0 0 0 1.3-5.586 14.913 14.913 0 0 0-2.517-8.938 15.176 15.176 0 0 0-6.053-5.214z" transform="translate(-457.337 -195.877)" style="fill:#deedef"/>
        <path data-name="Path 4520" d="M222.94 240.673a9.878 9.878 0 0 1 10.188-.659 40.332 40.332 0 0 0-6.442.5c-.411-.261-.876-.072-1.311.008-.934.188-1.865.4-2.805.559a2.621 2.621 0 0 1 .37-.408z" transform="translate(-187.79 -206.935)" style="fill:#deedef"/>
        <path data-name="Path 4521" d="M346.687 282.973c.7-.5 1.419-.981 2.09-1.523a77.723 77.723 0 0 1 13.083 7.222 76.418 76.418 0 0 1 19.714 19.577 74.844 74.844 0 0 1 9.6 19.551 68.535 68.535 0 0 1 3.069 22.986 65.923 65.923 0 0 1-4.99 22.513 67.236 67.236 0 0 1-104.544 26.332 62.717 62.717 0 0 1-17.4-22.112c-.746-1.787-1.522-3.568-2.122-5.414a51.527 51.527 0 0 1-2.325-10.178 17.286 17.286 0 0 0 2.538 1.019 40.636 40.636 0 0 0 1.739 6.929 57.9 57.9 0 0 0 14.234 22.316 65.649 65.649 0 0 0 17.473 12.151 66.447 66.447 0 0 0 19.371 5.768 64.9 64.9 0 0 0 56.414-20.2 62.722 62.722 0 0 0 15.808-55.078 65.256 65.256 0 0 0-6.347-17.973 73.023 73.023 0 0 0-32.8-31.779c-1.504-.78-3.092-1.371-4.605-2.107z" transform="translate(-221.592 -242.632)" style="fill:#deedef"/>
        <path data-name="Path 4522" d="M710.66 441.938a5.028 5.028 0 0 1 .333-.778 47.4 47.4 0 0 1 13.994 8.657l-.517.208c-.325.063-.622-.156-.948-.139a5.166 5.166 0 0 0-.631-.654 47.286 47.286 0 0 0-6.868-4.712c-1.743-.95-3.553-1.771-5.363-2.582z" transform="translate(-597.287 -376.625)" style="fill:#deedef"/>
        <path data-name="Path 4523" d="M649.192 486.57a11.254 11.254 0 0 1 2.2 1.691 13.14 13.14 0 0 1-.4 19.241 3.623 3.623 0 0 1-.56.388 14.881 14.881 0 0 0-1.61-9.178 15.438 15.438 0 0 0-3.7-4.541 14.4 14.4 0 0 1 1.016-1.348 19.321 19.321 0 0 0 3.054-6.253z" transform="translate(-542.3 -414.723)" style="fill:#deedef"/>
        <path data-name="Path 4524" d="M798.74 499.828c.316-.126.633-.254.952-.378a46.124 46.124 0 0 1 4.749 5.138c-.13.312-.272.62-.38.942l-.1.047a47.637 47.637 0 0 0-5.221-5.749z" transform="translate(-671.184 -425.529)" style="fill:#deedef"/>
        <path data-name="Path 4525" d="m837.56 537.088.134-.3a45.191 45.191 0 0 1 6.864 13.241 41.185 41.185 0 0 1 1.919 13.172 10.548 10.548 0 0 0-.308 3.087c-.039.729-.09 1.46-.176 2.187a71.89 71.89 0 0 1-.95 4.264c.031.076.09.226.121.3-.293 1-.406 2.195-1.277 2.892a5.418 5.418 0 0 1-2.259.768c.341-1.2.95-2.3 1.3-3.5a37.225 37.225 0 0 0 .742-21.83 40.975 40.975 0 0 0-6.019-12.862 1.354 1.354 0 0 0-.091-1.419z" transform="translate(-703.753 -456.856)" style="fill:#deedef"/>
        <path data-name="Path 4526" d="M824.4 793.2c.812-.876 2.074-.919 3.153-1.219a28.227 28.227 0 0 1-2.163 3.724 6.5 6.5 0 0 0-1.813.752c-1.153.707-1.633 2.035-2.381 3.093a3.814 3.814 0 0 1-2.454 1.456c.855-1.032 1.792-2 2.609-3.061a15.291 15.291 0 0 0 1.8-2.652c.127-.237.246-.475.361-.717a1.909 1.909 0 0 0 .888-1.376z" transform="translate(-687.963 -670.955)" style="fill:#deedef"/>
        <path data-name="Path 4527" d="M454.08 800.664c.427-.256.855-.51 1.272-.784a29.63 29.63 0 0 0 6.708 10.053 33.694 33.694 0 0 0 6.1 4.786 1.536 1.536 0 0 0-.916 1.277 1.81 1.81 0 0 0 .444 1.142 31.7 31.7 0 0 1-13.608-16.474z" transform="translate(-382.022 -677.583)" style="fill:#deedef"/>
        <path data-name="Path 4528" d="M719.75 853.6a7.565 7.565 0 0 0 3.106-.836 25.728 25.728 0 0 1-2.625 2.758 6.107 6.107 0 0 0-1.035 1.074 6.579 6.579 0 0 0-1.127.968 7.093 7.093 0 0 0-1.428.979 40.237 40.237 0 0 1-13.7 6.592 15.409 15.409 0 0 0-1.267-2.436 39.86 39.86 0 0 0 17.5-9.418 1.5 1.5 0 0 0 .576.319z" transform="translate(-589.744 -721.948)" style="fill:#deedef"/>
        <path data-name="Path 4529" d="M553.06 897.96a25.864 25.864 0 0 0 3.1 1.378c-.261.237-.378.662-.715.784q-1.152-.792-2.32-1.562a21.52 21.52 0 0 1-.065-.6z" transform="translate(-465.064 -759.87)" style="fill:#deedef"/>
        <path data-name="Path 4530" d="M542.15 907.283a2.364 2.364 0 0 0 1.39-.353c.76.53 1.535 1.04 2.3 1.56-.1.161-.2.32-.3.485a27.907 27.907 0 0 1-3.39-1.692z" transform="translate(-455.911 -767.395)" style="fill:#deedef"/>
    </g>
    <g data-name="#f4c993ff">
        <path data-name="Path 4531" d="M45.467 246.3a40.329 40.329 0 0 1 6.443-.5h.1a70.624 70.624 0 0 1 11.785 1.4 36.479 36.479 0 0 1 9.608 2.621 26.864 26.864 0 0 1 5.623 3.324c7.734 4.881 15.486 9.734 23.2 14.637a2.378 2.378 0 0 1 .886 1.035c.122.229.176.53.44.646a.736.736 0 0 0-.85.71 6.154 6.154 0 0 1-1.7 4.151 6.24 6.24 0 0 1-4.341 1.33 24.645 24.645 0 0 1-8.439-2.074 22.479 22.479 0 0 1-3.578-1.745 3.575 3.575 0 0 0-4.058.3.747.747 0 0 0 .638 1.245 3.83 3.83 0 0 0 1.019 2.963 25.644 25.644 0 0 0 3.327 3.428c1.845 1.605 3.737 3.164 5.728 4.588q7.8 5.72 15.589 11.45a51.151 51.151 0 0 1 4.418 3.332 6.254 6.254 0 0 1 1.989 3.278 6.416 6.416 0 0 1-1.541 5.04c-.225-.282-.622-.538-.973-.308a4.9 4.9 0 0 1-3.177.531 19.771 19.771 0 0 1-5.584-1.832 70.362 70.362 0 0 1-9.106-5.388c-2.81-1.9-5.691-3.694-8.607-5.425a52.006 52.006 0 0 1-5.768-3.683.729.729 0 0 0-.923 1.032 11.115 11.115 0 0 0 2.715 1.966c4.235 2.5 8.447 5.038 12.519 7.8.609.436 1.27.8 1.882 1.229a.977.977 0 0 0 .324.391q5.64 4.437 11.262 8.895a27.289 27.289 0 0 1 3.158 2.549 5.915 5.915 0 0 1 2.1 4.525 6.49 6.49 0 0 1-2.185 4.245c-.254-.232-.6-.556-.969-.345-.984.527-2.121.118-3.122-.14a47.617 47.617 0 0 1-7.834-3.459c-5.808-3.069-11.363-6.587-16.857-10.18-3.848-2.568-7.715-5.124-11.386-7.943a.719.719 0 0 0-1.193.451c-.074.525.461.778.8 1.06 4.951 3.705 10.109 7.127 15.323 10.447a3.08 3.08 0 0 0 .71.75q3.495 3.181 7 6.354a29.519 29.519 0 0 1 2.7 2.5c.39.42.68.923 1.068 1.343l.043.042a7.845 7.845 0 0 1 .715 2.129 5.185 5.185 0 0 1-.564 3c-.768-.069-.937.783-1.425 1.18a4.377 4.377 0 0 1-3.689.749 22.817 22.817 0 0 1-7.03-2.76 72.369 72.369 0 0 1-8.544-5.765c-.725-.586-1.53-1.056-2.3-1.583a83.085 83.085 0 0 1-7.819-5.871c-1.979-1.668-3.858-3.459-5.958-4.979a.806.806 0 0 0-1.039-.074.724.724 0 0 0 .092 1.172c2.135 1.544 4.043 3.365 6.056 5.058a81.445 81.445 0 0 0 7.909 5.929 4.256 4.256 0 0 0 .733.882 5.63 5.63 0 0 1 1.605 3.38 6.05 6.05 0 0 1-1.489 3.823.789.789 0 0 0-.91-.412c-.409.274-.754.718-1.3.707a9.093 9.093 0 0 1-3.856-1.047 62.2 62.2 0 0 1-8.372-4.985c-6.5-4.457-12.716-9.305-19.057-13.983-2.538-2.175-5.021-4.418-7.388-6.779-.94-.923-1.792-1.926-2.649-2.923a53.144 53.144 0 0 0-3.9-5.009 18.393 18.393 0 0 0-4.214-3.684 5.048 5.048 0 0 0-2.567-.725c-4.05-.1-8.1-.208-12.151-.261.081-2.4.014-4.818.04-7.223q0-11.275-.006-22.551c.031-4.017-.037-8.038.032-12.056 7.383-.224 14.764-.5 22.144-.766 2.9-.564 5.8-1.164 8.69-1.763 1.3-.259 2.594-.506 3.881-.8.94-.158 1.871-.37 2.805-.559.435-.08.9-.269 1.311-.008M26.79 261.932a16.592 16.592 0 0 1-9.009 9.579c0 .04.008.119.011.159a16.5 16.5 0 0 1 9.384 8.36 2.442 2.442 0 0 0 .345.609 16.5 16.5 0 0 1 8.99-9.621l.064-.15a16.543 16.543 0 0 1-9.682-8.908z" transform="translate(-6.57 -212.723)" style="fill:#f4c993"/>
    </g>
    <g data-name="#22b3c6ff">
        <path data-name="Path 4532" d="M715.63 333.36c1.034-.837 2.055-1.692 3.09-2.53.567.171 1.122.372 1.683.564a221.805 221.805 0 0 1-4.451 2.282 11.939 11.939 0 0 0-.322-.316z" transform="translate(-601.456 -284.06)" style="fill:#22b3c6"/>
        <path data-name="Path 4533" d="M726.5 357.41a67.145 67.145 0 0 1 7.887 4.89 9.17 9.17 0 0 1 1.409 1.106c.713 1.169 1.647 2.192 2.34 3.375a9.657 9.657 0 0 0-4.376.411c-.271-.665-.525-1.337-.815-1.993a1.058 1.058 0 0 0-.427-1.494 1.021 1.021 0 0 0-1.443.886 1.081 1.081 0 0 0 1.031 1.076c.253.633.5 1.267.77 1.894a9.515 9.515 0 0 0-4.483 4.362c-.654-.267-1.288-.575-1.945-.831a1.262 1.262 0 0 0-.7-.754 1.01 1.01 0 0 0-1.287 1.272 1.069 1.069 0 0 0 1.713.415l1.842.781a9.58 9.58 0 0 0-.118 6.281c-.391.155-.781.312-1.172.465a47.4 47.4 0 0 0-13.996-8.652c.25-.493.446-1.008.649-1.52 2.22-1.525 4.391-3.122 6.6-4.66a21.454 21.454 0 0 0 3.937-2.831 7.234 7.234 0 0 0 2.584-4.479z" transform="translate(-599.023 -306.36)" style="fill:#22b3c6"/>
        <path data-name="Path 4534" d="M804.65 497.923c.24-.1.482-.2.726-.293a9.592 9.592 0 0 0 4.394 4.56c-.127.288-.246.581-.372.871a46.121 46.121 0 0 0-4.748-5.138z" transform="translate(-676.142 -424.001)" style="fill:#22b3c6"/>
        <path data-name="Path 4535" d="M850.278 504.35a53.385 53.385 0 0 1 .94 27.128 7.314 7.314 0 0 0-4.045 4.509 41.184 41.184 0 0 0-1.919-13.172 45.19 45.19 0 0 0-6.864-13.241c.19-.46.386-.916.581-1.373a9.289 9.289 0 0 0 6.372.085c.245.6.483 1.206.733 1.807a1.056 1.056 0 0 0 .628 1.557 1.009 1.009 0 0 0 1.192-1.33 1.188 1.188 0 0 0-.976-.689 52.026 52.026 0 0 0-.681-1.694 9.546 9.546 0 0 0 4.039-3.587z" transform="translate(-704.449 -429.639)" style="fill:#22b3c6"/>
        <path data-name="Path 4536" d="M547.024 506.87a36.141 36.141 0 0 1 14.951 14.679 30.469 30.469 0 0 1 3.79 14.965 28.056 28.056 0 0 1-3.444 13.054 30.181 30.181 0 0 1-18.92 14.4 28.1 28.1 0 0 1-11.734.332l-.06-.254a1.447 1.447 0 0 0 .06-2.2 1.4 1.4 0 0 0-2.19.475 1.443 1.443 0 0 0 .185 1.488 22.5 22.5 0 0 1-14.511-11.9 10.79 10.79 0 0 0 4.441.527 25.056 25.056 0 0 0 39.908-29.87 24.7 24.7 0 0 0-10.288-9.515 14.867 14.867 0 0 0-2.188-6.181z" transform="translate(-433.258 -431.754)" style="fill:#22b3c6"/>
        <path data-name="Path 4537" d="M884.04 737.834a71.89 71.89 0 0 0 .95-4.264 29.418 29.418 0 0 1-.829 4.563l-.121-.299z" transform="translate(-742.748 -621.95)" style="fill:#22b3c6"/>
        <path data-name="Path 4538" d="M333.28 785.59c.417-.085.973-.533 1.3-.05a15.021 15.021 0 0 0 18.152 2.908 31.7 31.7 0 0 0 13.611 16.473c.185.114.378.222.57.333a27.923 27.923 0 0 0 3.388 1.692 13.831 13.831 0 0 0-.953 2.121 49.994 49.994 0 0 1-14.859-2.061 48.529 48.529 0 0 1-14.837-7.383 2.867 2.867 0 0 0-.654-.383 34.87 34.87 0 0 1-2.572-4.588 42.763 42.763 0 0 1-3.146-9.062z" transform="translate(-280.673 -665.366)" style="fill:#22b3c6"/>
    </g>
    <g data-name="#a88960ff">
        <path data-name="Path 4539" d="M487.261 393.419a.736.736 0 0 1 .85-.71.757.757 0 0 1 .591.686 7.855 7.855 0 0 1-1.646 4.729 6.709 6.709 0 0 1-4.477 2.153 20.085 20.085 0 0 1-8.491-1.391 32.076 32.076 0 0 1-5.745-2.625 2.484 2.484 0 0 0-2.562.364.747.747 0 0 1-.638-1.245 3.575 3.575 0 0 1 4.058-.3 22.478 22.478 0 0 0 3.578 1.745 24.644 24.644 0 0 0 8.439 2.074 6.24 6.24 0 0 0 4.341-1.33 6.154 6.154 0 0 0 1.702-4.15z" transform="translate(-391.127 -335.969)" style="fill:#a88960"/>
        <path data-name="Path 4540" d="M447.225 529.323a.729.729 0 0 1 .923-1.032 52 52 0 0 0 5.768 3.683c2.916 1.731 5.8 3.525 8.607 5.425a70.367 70.367 0 0 0 9.106 5.388 19.771 19.771 0 0 0 5.584 1.832 4.9 4.9 0 0 0 3.177-.531c.351-.23.747.026.973.308.311.689-.417 1.108-.958 1.3-2.3.892-4.829.19-7.053-.612a48.4 48.4 0 0 1-9.009-4.763c-.612-.433-1.274-.792-1.882-1.229-4.072-2.762-8.285-5.3-12.52-7.8a11.114 11.114 0 0 1-2.716-1.969z" transform="translate(-376.178 -449.659)" style="fill:#a88960"/>
        <path data-name="Path 4541" d="M142.348 593.01c.857 1 1.708 2 2.649 2.922 2.367 2.361 4.85 4.6 7.388 6.779 6.341 4.678 12.558 9.526 19.057 13.983a62.2 62.2 0 0 0 8.372 4.985 9.093 9.093 0 0 0 3.857 1.047c.543.011.887-.433 1.3-.707a.789.789 0 0 1 .91.412c.222.622-.38 1.1-.849 1.388a4.768 4.768 0 0 1-3.594.034 27.636 27.636 0 0 1-5.858-2.776c-2.517-1.518-4.95-3.17-7.352-4.861-5.311-3.737-10.452-7.7-15.666-11.573a84.215 84.215 0 0 1-11.357-10.8c.589.285 1.103-.263 1.143-.833z" transform="translate(-119.522 -504.023)" style="fill:#a88960"/>
        <path data-name="Path 4542" d="M388.234 593.784a.719.719 0 0 1 1.193-.451c3.671 2.82 7.537 5.375 11.386 7.943 5.494 3.592 11.049 7.111 16.857 10.18a47.614 47.614 0 0 0 7.834 3.459c1 .258 2.138.667 3.122.14.367-.211.715.113.969.345.2 1.006-1.014 1.314-1.778 1.34-2.335-.018-4.5-1.026-6.616-1.915a24.163 24.163 0 0 0-.572-.267c-.546-.266-1.095-.522-1.638-.787a165.851 165.851 0 0 1-14.639-8.479c-5.214-3.32-10.371-6.742-15.323-10.447-.335-.283-.869-.536-.795-1.061z" transform="translate(-326.772 -504.137)" style="fill:#a88960"/>
        <path data-name="Path 4543" d="M324.738 649.174a.806.806 0 0 1 1.039.074c2.1 1.52 3.979 3.311 5.958 4.979a83.1 83.1 0 0 0 7.819 5.871c.766.527 1.572 1 2.3 1.583a72.371 72.371 0 0 0 8.544 5.765 22.815 22.815 0 0 0 7.03 2.76 4.377 4.377 0 0 0 3.689-.749c.488-.4.657-1.25 1.425-1.18.354.192.7.589.494 1.016a4.611 4.611 0 0 1-1.53 1.707 5.359 5.359 0 0 1-1.882.688 10.79 10.79 0 0 1-4.441-.527 28.173 28.173 0 0 1-4.541-1.932q-.64-.341-1.269-.694a66.3 66.3 0 0 1-5.892-3.829c-1.572-1.113-3.045-2.361-4.686-3.373a81.456 81.456 0 0 1-7.909-5.929c-2.013-1.692-3.921-3.513-6.056-5.058a.724.724 0 0 1-.092-1.172z" transform="translate(-273.291 -551.009)" style="fill:#a88960"/>
    </g>
    <g data-name="#80e0ebff">
        <path data-name="Path 4544" d="M855.99 394.65a44.561 44.561 0 0 1 4.336 3.51l-.129.322a10.072 10.072 0 0 0-1.868-.457c-.692-1.183-1.629-2.206-2.339-3.375z" transform="translate(-719.215 -337.604)" style="fill:#80e0eb"/>
        <path data-name="Path 4545" d="m913.08 453.4.182-.064a62.029 62.029 0 0 1 9.888 15.867 55.916 55.916 0 0 1 4.544 23.851 53.622 53.622 0 0 1-5.129 21.05c-.506-.942-1.314-1.689-1.754-2.667a4 4 0 0 1 .327-2.824 56.2 56.2 0 0 1 3.166-6.492 16.506 16.506 0 0 0 1.791-3.58 7.81 7.81 0 0 0-1.638-7.14 9.559 9.559 0 0 0-5.037-3.019 9.942 9.942 0 0 0-6.261.295 53.383 53.383 0 0 0-.94-27.127c.176-.3.343-.6.506-.91.594.246 1.179.523 1.786.739a1.069 1.069 0 0 0 1.494.725 1.012 1.012 0 0 0 .081-1.766 1.153 1.153 0 0 0-1.3.145c-.557-.259-1.129-.486-1.692-.726a9.563 9.563 0 0 0-.014-6.357z" transform="translate(-766.391 -386.844)" style="fill:#80e0eb"/>
        <path data-name="Path 4546" d="M952.589 821.94c.744 1.122 1.963 2.162 1.784 3.647-.678 1.184-1.317 2.39-2.059 3.534a3.759 3.759 0 0 1-.892-2.494 40.849 40.849 0 0 1 1.167-4.687z" transform="translate(-799.256 -696.091)" style="fill:#80e0eb"/>
        <path data-name="Path 4547" d="M814.17 845.52a9.088 9.088 0 0 0 1.446-1.39 5.9 5.9 0 0 1-1.138 3.212c-.953 1.259-2.67 1.293-3.968 2.01a6.107 6.107 0 0 1 1.035-1.074 25.74 25.74 0 0 0 2.625-2.758z" transform="translate(-681.058 -714.708)" style="fill:#80e0eb"/>
        <path data-name="Path 4548" d="M935.7 870.17c.337.111.407.6.6.878a32.867 32.867 0 0 1-2.881 3.813c.258-.609.755-1.071 1.06-1.655a8.566 8.566 0 0 0 1.221-3.036z" transform="translate(-784.177 -736.555)" style="fill:#80e0eb"/>
        <path data-name="Path 4549" d="M368.79 871.77a2.865 2.865 0 0 1 .654.383 48.53 48.53 0 0 0 14.837 7.383 49.992 49.992 0 0 0 14.859 2.061 13.045 13.045 0 0 0-.6 6.2l-.209.077c-.868.167-1.736.333-2.6.506a1.522 1.522 0 0 0-1.151-.546 1.4 1.4 0 1 0 .435 2.733 1.5 1.5 0 0 0 1.013-1.269c.9-.172 1.8-.362 2.7-.536a13.08 13.08 0 0 0 4.153 7 55.7 55.7 0 0 1-31.609-20.279 31.464 31.464 0 0 1-2.482-3.713z" transform="translate(-310.465 -737.897)" style="fill:#80e0eb"/>
        <path data-name="Path 4550" d="M725.132 872.07a10.361 10.361 0 0 0 .91 2.391 4.471 4.471 0 0 1-.911 2.055c-.7.868-1.831 1.172-2.749 1.745a4.322 4.322 0 0 0-2.167 2.971.76.76 0 0 0 1.38.435 3.911 3.911 0 0 1 1.085-1.8c.8-.583 1.758-.892 2.578-1.446a5.3 5.3 0 0 0 1.964-2.5 12.863 12.863 0 0 0 3.24 2.043 4.839 4.839 0 0 0-1.71 2.781c-.192 1.254.39 2.457.391 3.7-.036.742-.654 1.225-1.084 1.758a.828.828 0 0 0 .417 1.166 56.13 56.13 0 0 1-21.4 9.077 1.454 1.454 0 0 0-.148-1.964 1.478 1.478 0 0 0-1.91-.024c-.694-.461-1.378-.934-2.071-1.393a13.077 13.077 0 0 0 1.8-9.037c.865-.171 1.733-.322 2.594-.509a1.455 1.455 0 0 0 2.453-.328 1.414 1.414 0 0 0-1.369-1.934 1.493 1.493 0 0 0-1.374 1.354c-.729.122-1.451.277-2.177.411-.08.006-.24.023-.319.031a15.511 15.511 0 0 0-.546-1.723 40.236 40.236 0 0 0 13.7-6.592 7.092 7.092 0 0 1 1.428-.979 3.835 3.835 0 0 0-.823 1.531.749.749 0 0 0 1.277.517 4.814 4.814 0 0 1 1.282-1.61c1.398-.752 3.169-.866 4.259-2.127z" transform="translate(-590.818 -738.149)" style="fill:#80e0eb"/>
        <path data-name="Path 4551" d="M906.309 908.548c.633-.19 1.216-.572 1.824-.768l.135.622a73.312 73.312 0 0 1-2.789 2.952 2.816 2.816 0 0 1 .83-2.806z" transform="translate(-760.618 -768.109)" style="fill:#80e0eb"/>
        <path data-name="Path 4552" d="M871.793 915.006a3.642 3.642 0 0 1 2.024-2.686 11.233 11.233 0 0 0 2.261.275 3.656 3.656 0 0 0 .019 3.662 41.212 41.212 0 0 1-4.407 3.642 3.841 3.841 0 0 0 .522-1.493c.096-1.156-.39-2.255-.419-3.4z" transform="translate(-732.387 -771.918)" style="fill:#80e0eb"/>
        <path data-name="Path 4553" d="M674.69 1011.052a13.389 13.389 0 0 0 4.013-3.612c.715.485 1.428.973 2.15 1.451a1.722 1.722 0 0 0 .747 1.465 55.579 55.579 0 0 1-6.91.696z" transform="translate(-567.108 -851.721)" style="fill:#80e0eb"/>
    </g>
    <g data-name="#ffb948ff">
        <path data-name="Path 4554" d="M826.66 396.859a1.021 1.021 0 0 1 1.443-.886 1.058 1.058 0 0 1 .427 1.494 2.341 2.341 0 0 1-.839.467 1.081 1.081 0 0 1-1.031-1.075z" transform="translate(-694.607 -338.629)" style="fill:#ffb948"/>
        <path data-name="Path 4555" d="M885.85 395.986a1.015 1.015 0 0 1 1.478 1.026c-.048.467-.467.718-.831.928a4.861 4.861 0 0 1-.9-.309 1.061 1.061 0 0 1 .253-1.645z" transform="translate(-743.821 -338.613)" style="fill:#ffb948"/>
        <path data-name="Path 4556" d="M810.323 415.543a9.658 9.658 0 0 1 4.377-.411 10.066 10.066 0 0 1 1.868.457c.3.1.6.219.9.348a9.786 9.786 0 0 1 4.464 4.454q.181.435.348.881a9.562 9.562 0 0 1 .016 6.356c-.116.3-.238.593-.37.884-.163.306-.33.61-.506.91a9.546 9.546 0 0 1-4.04 3.586c-.3.122-.6.24-.9.349a9.29 9.29 0 0 1-6.372-.085c-.3-.118-.6-.235-.894-.372a9.592 9.592 0 0 1-4.394-4.56q-.2-.444-.361-.9a9.58 9.58 0 0 1 .118-6.281c.118-.3.238-.6.38-.884a9.515 9.515 0 0 1 4.483-4.362q.437-.193.884-.367m.006 1.489c-.319.217-.676.654-.325 1.011a2.075 2.075 0 0 0 2-.628c.193-.187.306-.6-.013-.725a1.953 1.953 0 0 0-1.665.341m4.172.963c-.708.2-1.449.966-1.055 1.736a1.926 1.926 0 0 0 3.312-.678c-.016-1.111-1.407-1.386-2.258-1.058m-5.65 1.763a2.424 2.424 0 0 0-1.676 2.836 2.012 2.012 0 0 0 2.652 1.187 2.406 2.406 0 0 0 1.636-3.021 2.05 2.05 0 0 0-2.612-1m10.473 7.734a1.444 1.444 0 0 0-1.106 1.494.786.786 0 0 0 .8.626 1.508 1.508 0 0 0 1.448-1.541c-.069-.527-.694-.707-1.138-.58m-3.718 2.56a1.686 1.686 0 0 0-1.221 1.4 1.146 1.146 0 0 0 1.2 1.056c.974.084 2.225-.607 2.142-1.7-.2-.915-1.382-1.051-2.121-.757m-4.842 1.377a1.981 1.981 0 0 0 1.725-.172c-.047-.423-.628-.308-.927-.325-.284.033-.986.046-.799.495z" transform="translate(-675.585 -354.711)" style="fill:#ffb948"/>
        <path data-name="Path 4557" d="M785.23 438.589a1.009 1.009 0 0 1 1.287-1.272 1.262 1.262 0 0 1 .7.754 2.546 2.546 0 0 1-.277.934 1.069 1.069 0 0 1-1.71-.416z" transform="translate(-659.795 -373.34)" style="fill:#ffb948"/>
        <path data-name="Path 4558" d="M926.65 438.891a1.092 1.092 0 0 1 1.559-.8 1.037 1.037 0 0 1-.053 1.844c-.4.279-.842-.011-1.238-.138a7.409 7.409 0 0 1-.268-.906z" transform="translate(-778.497 -373.935)" style="fill:#ffb948"/>
        <path data-name="Path 4559" d="M785.427 497.25a1.043 1.043 0 0 1 .425-1.9c.327-.018.623.2.948.138a4.247 4.247 0 0 0 .246.947 1.073 1.073 0 0 1-1.619.815z" transform="translate(-659.617 -422.083)" style="fill:#ffb948"/>
        <path data-name="Path 4560" d="M926.727 496.2a1.153 1.153 0 0 1 1.3-.145 1.012 1.012 0 0 1-.081 1.766 1.069 1.069 0 0 1-1.494-.725 3.784 3.784 0 0 1 .275-.896z" transform="translate(-778.33 -422.561)" style="fill:#ffb948"/>
        <path data-name="Path 4561" d="m827.353 537.257.1-.047a7.21 7.21 0 0 1 .931.23 1.354 1.354 0 0 1 .092 1.423 1.047 1.047 0 0 1-1.774-.253 1.026 1.026 0 0 1 .651-1.353z" transform="translate(-694.574 -457.208)" style="fill:#ffb948"/>
        <path data-name="Path 4562" d="M886.25 537.14a1.187 1.187 0 0 1 .976.689 1.009 1.009 0 0 1-1.192 1.33 1.055 1.055 0 0 1-.628-1.557 2.266 2.266 0 0 1 .844-.462z" transform="translate(-743.78 -457.15)" style="fill:#ffb948"/>
        <path data-name="Path 4563" d="M603.436 846.948a1.4 1.4 0 0 1 2.19-.475 1.447 1.447 0 0 1-.06 2.2 5.1 5.1 0 0 1-.911.293 1.749 1.749 0 0 1-1.034-.531 1.443 1.443 0 0 1-.185-1.487z" transform="translate(-507.218 -716.382)" style="fill:#ffb948"/>
        <path data-name="Path 4564" d="m685.091 861.47.127.138a1.416 1.416 0 0 1 1.261 2.392 1.517 1.517 0 0 1-1.441.419 8.584 8.584 0 0 1-.789-.535 1.479 1.479 0 0 1 .836-2.219z" transform="translate(-574.95 -729.255)" style="fill:#ffb948"/>
        <path data-name="Path 4565" d="M563.271 878.348c.043.029.132.085.175.113a12.975 12.975 0 0 1 8.766 1.728c.272.169.544.346.808.535a13.473 13.473 0 0 1 3.306 3.4 13.191 13.191 0 0 1 1.813 4.159l.319-.031-.246.2a6.637 6.637 0 0 0 .119.807 13.076 13.076 0 0 1-1.8 9.036c-.171.271-.349.539-.538.8a13.392 13.392 0 0 1-4.013 3.612 13.75 13.75 0 0 1-3.691 1.441q-.473.1-.95.177a13.182 13.182 0 0 1-8.956-1.907 17.05 17.05 0 0 1-.787-.554c-.262-.208-.528-.411-.781-.63a13.08 13.08 0 0 1-4.153-7c-.056-.264-.1-.531-.176-.787l-.219-.1.209-.077a13.044 13.044 0 0 1 .6-6.2 13.84 13.84 0 0 1 .953-2.121c.1-.164.2-.324.3-.485a4.042 4.042 0 0 0 .451-.842c.337-.122.454-.547.715-.784a13.068 13.068 0 0 1 6.856-4.166 2.187 2.187 0 0 0 .918-.328m-.2 3.681a3.129 3.129 0 0 0-1.953 2.332 1.415 1.415 0 0 0 .932 1.641 2.733 2.733 0 0 0 2.885-1.473 1.933 1.933 0 0 0 .052-2.111 1.705 1.705 0 0 0-1.916-.388m-5.639 1.6a3.185 3.185 0 0 0-1.446 2.2c-.048.338.171.855.588.744a2.511 2.511 0 0 0 1.554-1.462c.184-.467.423-1.1.031-1.522a.863.863 0 0 0-.726.035m.808 4.673a3.613 3.613 0 0 0-2.361 4.281 2.819 2.819 0 0 0 1.34 1.776 2.7 2.7 0 0 0 2.807-.261 3.539 3.539 0 0 0 .892-4.908 2.513 2.513 0 0 0-2.678-.889m17.378 1.448c-.942.027-1.485 1.019-1.541 1.86a1.363 1.363 0 0 0 1.024 1.564c1.047.024 1.68-1.116 1.644-2.05a1.248 1.248 0 0 0-1.127-1.374m-1.944 5.283a2.977 2.977 0 0 0-1.9 3.127 1.313 1.313 0 0 0 1.388 1.109 2.869 2.869 0 0 0 2.491-3.37 1.444 1.444 0 0 0-1.979-.866m-5.629 5.468c-.23.246-.523.53-.5.9.549.158 1.032-.283 1.444-.584.29-.287.76-.659.576-1.114a2.579 2.579 0 0 0-1.52.806z" transform="translate(-464.401 -743.373)" style="fill:#ffb948"/>
        <path data-name="Path 4566" d="M536.741 891.657a1.471 1.471 0 0 1 1.855.955c.019.2.042.4.064.6a7.712 7.712 0 0 1-.432.844 2.365 2.365 0 0 1-1.39.353c-.192-.111-.385-.219-.57-.333a1.809 1.809 0 0 1-.444-1.142 1.536 1.536 0 0 1 .917-1.277z" transform="translate(-450.6 -754.521)" style="fill:#ffb948"/>
        <path data-name="Path 4567" d="M728.43 930.465a1.493 1.493 0 0 1 1.374-1.354 1.414 1.414 0 0 1 1.369 1.934 1.455 1.455 0 0 1-2.452.328 6.547 6.547 0 0 1-.291-.908z" transform="translate(-612.195 -786)" style="fill:#ffb948"/>
        <path data-name="Path 4568" d="M520.333 973.026a1.4 1.4 0 0 1 1.382-1.535 1.522 1.522 0 0 1 1.151.546 3.777 3.777 0 0 1 .3.918 1.5 1.5 0 0 1-1.013 1.269 1.391 1.391 0 0 1-1.82-1.198z" transform="translate(-437.599 -821.558)" style="fill:#ffb948"/>
        <path data-name="Path 4569" d="M713.419 1009.36a1.478 1.478 0 0 1 1.91.024 1.454 1.454 0 0 1 .148 1.964 1.6 1.6 0 0 1-1.77.335 1.722 1.722 0 0 1-.747-1.465 5.552 5.552 0 0 1 .459-.858z" transform="translate(-599.216 -853.048)" style="fill:#ffb948"/>
        <path data-name="Path 4570" d="M565.4 1038.99a1.572 1.572 0 0 1 1.464-.56 3.857 3.857 0 0 1 .818.505 1.523 1.523 0 0 1 .159 1.493 1.425 1.425 0 1 1-2.441-1.438z" transform="translate(-475.175 -877.712)" style="fill:#ffb948"/>
        <path data-name="Path 4571" d="m647.141 1053.35.113.177a1.424 1.424 0 0 1 1.182 1.85 1.4 1.4 0 0 1-2.2.654 1.439 1.439 0 0 1 0-2.232 2.933 2.933 0 0 0 .905-.449z" transform="translate(-542.796 -890.238)" style="fill:#ffb948"/>
    </g>
    <g data-name="#ff971bff">
        <path data-name="Path 4572" d="M833.07 406.247a2.342 2.342 0 0 0 .839-.467c.29.657.544 1.328.815 1.993q-.447.174-.884.367c-.269-.626-.517-1.26-.77-1.893z" transform="translate(-699.986 -346.941)" style="fill:#ff971b"/>
        <path data-name="Path 4573" d="M882.911 406.89a4.867 4.867 0 0 0 .9.309c-.248.641-.531 1.267-.8 1.9a11.783 11.783 0 0 0-.9-.348l.129-.322c.234-.512.442-1.029.671-1.539z" transform="translate(-741.138 -347.872)" style="fill:#ff971b"/>
        <path data-name="Path 4574" d="M796.487 442.37c.657.256 1.291.564 1.945.831-.142.288-.262.585-.38.884q-.922-.389-1.842-.781a2.544 2.544 0 0 0 .277-.934z" transform="translate(-669.061 -377.639)" style="fill:#ff971b"/>
        <path data-name="Path 4575" d="M915.4 444.495c.6-.245 1.2-.5 1.811-.725a7.419 7.419 0 0 0 .267.9c-.509.232-1.034.423-1.549.639l-.182.064q-.166-.445-.347-.878z" transform="translate(-769.059 -378.814)" style="fill:#ff971b"/>
        <path data-name="Path 4576" d="M796.947 492.5c.391-.153.781-.311 1.172-.465q.162.456.361.9c-.245.1-.486.193-.726.293-.319.124-.636.253-.952.378l-.126.047a4.251 4.251 0 0 1-.246-.947z" transform="translate(-669.246 -419.303)" style="fill:#ff971b"/>
        <path data-name="Path 4577" d="M915.36 494.094c.132-.291.254-.586.37-.884.564.24 1.135.467 1.692.726a3.786 3.786 0 0 0-.277.9c-.606-.219-1.191-.496-1.785-.742z" transform="translate(-769.025 -420.293)" style="fill:#ff971b"/>
        <path data-name="Path 4578" d="M832.532 525.95c.292.137.591.254.894.372-.195.457-.391.913-.581 1.373l-.134.3a7.211 7.211 0 0 0-.931-.23c.108-.322.25-.63.38-.942.126-.292.24-.585.372-.873z" transform="translate(-698.904 -447.761)" style="fill:#ff971b"/>
        <path data-name="Path 4579" d="M881.57 526.969c.3-.109.6-.227.9-.349.235.56.465 1.124.681 1.694a2.266 2.266 0 0 0-.844.462c-.254-.601-.492-1.204-.737-1.807z" transform="translate(-740.676 -448.323)" style="fill:#ff971b"/>
        <path data-name="Path 4580" d="M611.69 862.243a5.1 5.1 0 0 0 .911-.293c.014.064.045.192.06.254.148.81.32 1.617.462 2.428a2.185 2.185 0 0 1-.918.328c-.162-.907-.359-1.809-.515-2.717z" transform="translate(-514.253 -729.658)" style="fill:#ff971b"/>
        <path data-name="Path 4581" d="M677.608 876.44a8.568 8.568 0 0 0 .789.535c-.473.739-.984 1.456-1.469 2.19a15.455 15.455 0 0 0-.808-.535c.493-.73.98-1.467 1.488-2.19z" transform="translate(-568.308 -741.814)" style="fill:#ff971b"/>
        <path data-name="Path 4582" d="M551.212 901.69q1.169.768 2.32 1.562a4.041 4.041 0 0 1-.451.842c-.767-.52-1.541-1.031-2.3-1.56a7.7 7.7 0 0 0 .431-.844z" transform="translate(-463.151 -762.998)" style="fill:#ff971b"/>
        <path data-name="Path 4583" d="M713.626 937.961c.726-.134 1.448-.288 2.177-.411a6.544 6.544 0 0 0 .29.908c-.861.187-1.729.338-2.594.509a6.634 6.634 0 0 1-.119-.807z" transform="translate(-599.569 -793.084)" style="fill:#ff971b"/>
        <path data-name="Path 4584" d="M536.11 972.266c.866-.172 1.734-.338 2.6-.506l.219.1c.076.256.119.523.176.787-.9.174-1.8.364-2.7.536a3.773 3.773 0 0 0-.295-.917z" transform="translate(-450.843 -821.786)" style="fill:#ff971b"/>
        <path data-name="Path 4585" d="M699.61 1003.27a16.2 16.2 0 0 0 .538-.8c.692.459 1.377.932 2.071 1.393a5.56 5.56 0 0 0-.459.858c-.722-.478-1.435-.966-2.15-1.451z" transform="translate(-588.016 -847.551)" style="fill:#ff971b"/>
        <path data-name="Path 4586" d="M577.5 1024.64c.256.19.518.377.787.554-.49.729-.971 1.464-1.478 2.18a3.863 3.863 0 0 0-.818-.505c.509-.739 1.001-1.488 1.509-2.229z" transform="translate(-484.301 -866.151)" style="fill:#ff971b"/>
        <path data-name="Path 4587" d="M645.87 1039q.476-.08.95-.177c.155.778.308 1.557.454 2.34a2.93 2.93 0 0 1-.9.449l-.504-2.612z" transform="translate(-542.929 -878.047)" style="fill:#ff971b"/>
    </g>
    <g data-name="#ffd829ff">
        <path data-name="Path 4588" d="M840.93 425.241a1.953 1.953 0 0 1 1.665-.341c.319.122.206.538.013.725a2.075 2.075 0 0 1-2 .628c-.354-.358.004-.795.322-1.012z" transform="translate(-706.185 -362.92)" style="fill:#ffd829"/>
        <path data-name="Path 4589" d="M893.408 492.166c.444-.127 1.069.053 1.138.58a1.508 1.508 0 0 1-1.448 1.541.786.786 0 0 1-.8-.626 1.444 1.444 0 0 1 1.11-1.495z" transform="translate(-749.668 -419.385)" style="fill:#ffd829"/>
        <path data-name="Path 4590" d="M845.918 514.217c-.187-.449.515-.462.8-.5.3.018.881-.1.928.325a1.981 1.981 0 0 1-1.728.175z" transform="translate(-710.738 -437.499)" style="fill:#ffd829"/>
        <path data-name="Path 4591" d="M576.752 910.9a.863.863 0 0 1 .726-.036c.393.423.153 1.055-.031 1.522a2.51 2.51 0 0 1-1.554 1.462c-.417.111-.636-.406-.588-.744a3.185 3.185 0 0 1 1.447-2.204z" transform="translate(-483.721 -770.638)" style="fill:#ffd829"/>
        <path data-name="Path 4592" d="M689.192 949.439a1.248 1.248 0 0 1 1.127 1.374c.035.934-.6 2.074-1.644 2.05a1.363 1.363 0 0 1-1.024-1.564c.056-.841.599-1.833 1.541-1.86z" transform="translate(-577.975 -803.059)" style="fill:#ffd829"/>
        <path data-name="Path 4593" d="M647.629 1012.04a2.58 2.58 0 0 1 1.523-.8c.184.456-.287.828-.576 1.114-.412.3-.9.742-1.444.585-.026-.369.268-.652.497-.899z" transform="translate(-543.986 -854.909)" style="fill:#ffd829"/>
    </g>
    <g data-name="#ff8615ff">
        <path data-name="Path 4594" d="M863.222 432.714c.85-.328 2.241-.053 2.258 1.058a1.926 1.926 0 0 1-3.312.678c-.395-.77.345-1.534 1.054-1.736z" transform="translate(-724.305 -369.43)" style="fill:#ff8615"/>
        <path data-name="Path 4595" d="M825.054 443.61a2.05 2.05 0 0 1 2.612 1 2.406 2.406 0 0 1-1.636 3.021 2.012 2.012 0 0 1-2.652-1.187 2.424 2.424 0 0 1 1.676-2.834z" transform="translate(-691.788 -378.562)" style="fill:#ff8615"/>
        <path data-name="Path 4596" d="M869.786 507.544c.739-.295 1.921-.158 2.121.757.084 1.1-1.167 1.787-2.142 1.7a1.146 1.146 0 0 1-1.2-1.056 1.686 1.686 0 0 1 1.221-1.401z" transform="translate(-729.765 -432.202)" style="fill:#ff8615"/>
        <path data-name="Path 4597" d="M609.036 900.788a1.7 1.7 0 0 1 1.916.388 1.933 1.933 0 0 1-.052 2.111 2.733 2.733 0 0 1-2.885 1.473 1.414 1.414 0 0 1-.932-1.641 3.129 3.129 0 0 1 1.953-2.331z" transform="translate(-510.368 -762.132)" style="fill:#ff8615"/>
        <path data-name="Path 4598" d="M576.491 939.971a2.512 2.512 0 0 1 2.678.889 3.539 3.539 0 0 1-.892 4.908 2.7 2.7 0 0 1-2.807.261 2.819 2.819 0 0 1-1.34-1.776 3.613 3.613 0 0 1 2.361-4.282z" transform="translate(-482.653 -795.038)" style="fill:#ff8615"/>
        <path data-name="Path 4599" d="M675.106 981.622a1.444 1.444 0 0 1 1.979.866 2.869 2.869 0 0 1-2.491 3.37 1.314 1.314 0 0 1-1.388-1.109 2.977 2.977 0 0 1 1.9-3.127z" transform="translate(-565.834 -829.959)" style="fill:#ff8615"/>
    </g>
    <g data-name="#40b4c3ff">
        <path data-name="Path 4600" d="M670.758 474.99a10.229 10.229 0 0 1 1.85 3.555 11.255 11.255 0 0 0-2.2-1.691c.074-.626.284-1.234.35-1.864z" transform="translate(-563.517 -405.007)" style="fill:#40b4c3"/>
        <path data-name="Path 4601" d="M124.875 583.07c.356.465.712.932 1.04 1.419A13.572 13.572 0 0 0 135.97 601.6a19.843 19.843 0 0 0 3.534.361 22.488 22.488 0 0 0 .515 3.158 13.562 13.562 0 0 0 14.674 9.948 15.48 15.48 0 0 0 4.356-1.241 15.152 15.152 0 0 0 4.269 3.62 13.559 13.559 0 0 0 17.782-4.236q.628.353 1.269.694a15.639 15.639 0 0 1-4.021 4.077c-.417.274-.845.528-1.272.784a15.022 15.022 0 0 1-18.152-2.908c-.327-.483-.882-.035-1.3.05a15.338 15.338 0 0 1-8.8.092 17.288 17.288 0 0 1-2.538-1.019 51.523 51.523 0 0 0 2.325 10.178c.6 1.845 1.377 3.626 2.122 5.414a4.214 4.214 0 0 1-.841-1.48 56.382 56.382 0 0 1-4.179-14.373 17.066 17.066 0 0 1-4.314-3.734 15.133 15.133 0 0 1-3.193-7.612 16.416 16.416 0 0 1-6.177-1.691 14.853 14.853 0 0 1-6.769-7.083 15.114 15.114 0 0 1-1.208-8.315.844.844 0 0 0-.076-.6l.19-.109a14.614 14.614 0 0 1 .709-2.505z" transform="translate(-105.017 -495.684)" style="fill:#40b4c3"/>
        <path data-name="Path 4602" d="M557.225 721.23c.543.266 1.092.522 1.638.787a15.721 15.721 0 0 1-4.8 1.68c-.388-.42-.678-.923-1.068-1.343a13.22 13.22 0 0 0 4.23-1.124z" transform="translate(-465.005 -611.597)" style="fill:#40b4c3"/>
    </g>
    <g data-name="#dbdbdbff">
        <path data-name="Path 4603" d="M582.254 560.15a23.057 23.057 0 0 1-1 40.228 22.917 22.917 0 0 1-13.078 2.523 22.638 22.638 0 0 1-13.758-6.455 4.61 4.61 0 0 0 1.526-1.708c.208-.427-.14-.824-.494-1.016a5.186 5.186 0 0 0 .564-3 7.843 7.843 0 0 0-.715-2.129 3.276 3.276 0 0 0 3.069 1.1 2.947 2.947 0 0 0 2.264-2.554c2.113.889 4.282 1.9 6.616 1.915.763-.026 1.977-.333 1.778-1.34a6.49 6.49 0 0 0 2.185-4.245 3.427 3.427 0 0 0 2.742-2.71 3.359 3.359 0 0 0-2.794-3.885 16.409 16.409 0 0 0 2.047-3.386c.119-.37.525-.462.828-.628a14.964 14.964 0 0 0 8.219-12.713m1.108 10.322a3.3 3.3 0 1 0 3.531 4.167 3.243 3.243 0 0 0-.411-2.665 3.307 3.307 0 0 0-3.121-1.5m.153 11.283a3.2 3.2 0 0 0-2.169 2.441 3.164 3.164 0 0 0 .784 2.742 3.175 3.175 0 1 0 1.385-5.183m-7.347 8.087a3.308 3.308 0 1 0 4.17 2.662 3.306 3.306 0 0 0-4.17-2.662m-11.138.956a3.186 3.186 0 0 0-2.3 3.465 3.225 3.225 0 0 0 2.427 2.694 3.3 3.3 0 0 0 2.425-.409 3.178 3.178 0 0 0-2.552-5.75z" transform="translate(-466.204 -476.454)" style="fill:#dbdbdb"/>
    </g>
    <g data-name="#696969ff">
        <path data-name="Path 4604" d="M718.732 624.153a3.307 3.307 0 0 1 3.121 1.5 3.243 3.243 0 0 1 .411 2.665 3.336 3.336 0 0 1-2.744 2.393 3.3 3.3 0 1 1-.787-6.56z" transform="translate(-601.574 -530.135)" style="fill:#696969"/>
        <path data-name="Path 4605" d="M645.66 666.1a17.921 17.921 0 0 0 2.05-2.071 3.359 3.359 0 0 1 2.794 3.885 3.427 3.427 0 0 1-2.742 2.71 5.914 5.914 0 0 0-2.102-4.524z" transform="translate(-542.753 -563.607)" style="fill:#696969"/>
        <path data-name="Path 4606" d="M723.513 693.506a3.187 3.187 0 1 1-1.385 5.183 3.164 3.164 0 0 1-.784-2.742 3.2 3.2 0 0 1 2.169-2.441z" transform="translate(-606.202 -588.206)" style="fill:#696969"/>
        <path data-name="Path 4607" d="M564.425 726.12c.19.085.38.176.572.267a2.947 2.947 0 0 1-2.264 2.554 3.277 3.277 0 0 1-3.069-1.1l-.043-.042a15.717 15.717 0 0 0 4.804-1.679z" transform="translate(-470.567 -615.699)" style="fill:#696969"/>
        <path data-name="Path 4608" d="M676.981 743.841a3.309 3.309 0 1 1-2.39 2.987 3.327 3.327 0 0 1 2.39-2.987z" transform="translate(-567.017 -630.454)" style="fill:#696969"/>
        <path data-name="Path 4609" d="M608.156 749.881a3.223 3.223 0 0 1 2.858.585 3.2 3.2 0 0 1-.306 5.166 3.3 3.3 0 0 1-2.425.409 3.225 3.225 0 0 1-2.427-2.694 3.186 3.186 0 0 1 2.3-3.466z" transform="translate(-509.331 -635.538)" style="fill:#696969"/>
    </g>
    <g data-name="#ff83caff">
        <path data-name="Path 4610" d="M817.665 669.383a9.942 9.942 0 0 1 6.261-.295 9.557 9.557 0 0 1 5.037 3.019 7.81 7.81 0 0 1 1.638 7.14 16.5 16.5 0 0 1-1.791 3.58 56.213 56.213 0 0 0-3.166 6.492 4 4 0 0 0-.327 2.824c.44.977 1.248 1.725 1.754 2.667a5.349 5.349 0 0 1 .018 4.322.761.761 0 0 1-1.435-.25 11.071 11.071 0 0 0 .359-1.841c.179-1.485-1.04-2.525-1.784-3.647a40.847 40.847 0 0 0-1.167 4.687 3.758 3.758 0 0 0 .892 2.494 5.1 5.1 0 0 1 .066 5.631.745.745 0 0 1-1.245-.72 3.882 3.882 0 0 0 .245-3.449c-.195-.282-.266-.766-.6-.878a8.568 8.568 0 0 1-1.22 3.041c-.3.584-.8 1.047-1.06 1.655a1.88 1.88 0 0 0-.05 1.715c.533 1.027 1.467 1.879 1.633 3.072a3.867 3.867 0 0 1-.734 2.518.76.76 0 0 1-1.3-.585c.2-.694.781-1.4.415-2.151a24.663 24.663 0 0 1-1.56-2.583 44.12 44.12 0 0 1-.135-.622c-.609.2-1.192.578-1.824.768a2.816 2.816 0 0 0-.829 2.8c.428.974 1.245 1.76 1.486 2.818a3.275 3.275 0 0 1-.385 2.182c-.177.346-.37.789-.81.842a.731.731 0 0 1-.8-1c.269-.594.726-1.245.449-1.921a20.063 20.063 0 0 0-1.1-1.831 3.655 3.655 0 0 1-.019-3.662 11.234 11.234 0 0 1-2.261-.275 3.642 3.642 0 0 0-2.024 2.686c.029 1.145.515 2.245.419 3.4a3.84 3.84 0 0 1-.522 1.493c-.456.509-.865 1.254-1.644 1.241a.828.828 0 0 1-.417-1.166c.43-.533 1.048-1.016 1.084-1.758 0-1.246-.583-2.449-.391-3.7a4.839 4.839 0 0 1 1.71-2.781 12.865 12.865 0 0 1-3.24-2.043 5.3 5.3 0 0 1-1.964 2.5c-.82.554-1.778.863-2.578 1.446a3.911 3.911 0 0 0-1.085 1.8.76.76 0 0 1-1.38-.435 4.322 4.322 0 0 1 2.167-2.971c.918-.573 2.045-.878 2.749-1.745a4.472 4.472 0 0 0 .911-2.055 10.357 10.357 0 0 1-.91-2.391c-1.09 1.261-2.861 1.375-4.254 2.129a4.814 4.814 0 0 0-1.282 1.61.749.749 0 0 1-1.277-.517 3.836 3.836 0 0 1 .823-1.531 6.581 6.581 0 0 1 1.127-.968c1.3-.716 3.014-.75 3.968-2.01a5.9 5.9 0 0 0 1.138-3.212 9.081 9.081 0 0 1-1.446 1.39 7.565 7.565 0 0 1-3.106.836 1.5 1.5 0 0 1-.585-.319.955.955 0 0 1 .061-.855c.285-.436.858-.3 1.295-.423a3.815 3.815 0 0 0 2.454-1.456c.749-1.058 1.229-2.386 2.382-3.093a6.5 6.5 0 0 1 1.813-.752 28.234 28.234 0 0 0 2.162-3.724c-1.079.3-2.341.343-3.153 1.219a3.9 3.9 0 0 0-.889 1.377c-.114.242-.233.48-.361.717a.8.8 0 0 1-1.225-.726 5.162 5.162 0 0 1 3.916-3.768 5.42 5.42 0 0 0 2.259-.768c.871-.7.984-1.892 1.277-2.892a29.41 29.41 0 0 0 .829-4.563c.085-.726.137-1.457.176-2.187a10.555 10.555 0 0 1 .307-3.087 7.314 7.314 0 0 1 4.045-4.509m2.465.929a5.7 5.7 0 0 0-5.254 4.9 31.376 31.376 0 0 1-2.8 13.579 39.527 39.527 0 0 1-4.74 7.488 3.433 3.433 0 0 0-.475 1.478 7.451 7.451 0 0 0 .559 5.251 7.894 7.894 0 0 0 4.137 3.068 7.092 7.092 0 0 0 4.505.4 5.251 5.251 0 0 0 3.351-2.462 6.7 6.7 0 0 0 1.56-3.377 54.211 54.211 0 0 1 7.315-19.947 6.152 6.152 0 0 0 1.071-3.56 6.751 6.751 0 0 0-3.586-5.7 9.7 9.7 0 0 0-5.632-1.114z" transform="translate(-670.896 -567.546)" style="fill:#ff83ca"/>
        <path data-name="Path 4611" d="M938.9 697.965a1.1 1.1 0 0 1 1.472 1.275 1.083 1.083 0 0 1-1.874.436 1.1 1.1 0 0 1 .402-1.711z" transform="translate(-788.219 -591.997)" style="fill:#ff83ca"/>
        <path data-name="Path 4612" d="M910.6 720.661a1.09 1.09 0 1 1 .153 1.95 1.1 1.1 0 0 1-.153-1.95z" transform="translate(-764.591 -610.988)" style="fill:#ff83ca"/>
        <path data-name="Path 4613" d="M961.969 724.989a1.08 1.08 0 1 1-.14 1.919 1.078 1.078 0 0 1 .14-1.919z" transform="translate(-807.575 -614.673)" style="fill:#ff83ca"/>
        <path data-name="Path 4614" d="M898.027 749.466a3.214 3.214 0 0 1 3.876 1.676 3.107 3.107 0 0 1 .111 2.449 45.063 45.063 0 0 0-1.976 5.121c-.423 1.171-.536 2.567-1.549 3.418a3.193 3.193 0 0 1-4.6-.407 3.121 3.121 0 0 1-.34-3.388 25.117 25.117 0 0 0 2.38-6.52 3.076 3.076 0 0 1 2.098-2.349z" transform="translate(-750.432 -635.151)" style="fill:#ff83ca"/>
        <path data-name="Path 4615" d="M864.829 835.077a1.087 1.087 0 0 1 1.488 1.039 1.072 1.072 0 0 1-1.535.952 1.087 1.087 0 0 1 .047-1.991z" transform="translate(-726.065 -707.039)" style="fill:#ff83ca"/>
        <path data-name="Path 4616" d="M917.536 854.472a1.084 1.084 0 0 1 1.6.6 1.09 1.09 0 1 1-1.6-.6z" transform="translate(-770.412 -723.253)" style="fill:#ff83ca"/>
        <path data-name="Path 4617" d="M883.881 869.017a1.084 1.084 0 1 1-.617 1.676 1.085 1.085 0 0 1 .617-1.676z" transform="translate(-741.926 -735.545)" style="fill:#ff83ca"/>
    </g>
    <g data-name="#f43ea0ff">
        <path data-name="Path 4618" d="M863.064 678.283a9.7 9.7 0 0 1 5.636 1.117 6.751 6.751 0 0 1 3.586 5.705 6.152 6.152 0 0 1-1.071 3.56 54.211 54.211 0 0 0-7.315 19.947 6.7 6.7 0 0 1-1.56 3.377 5.251 5.251 0 0 1-3.351 2.462 7.092 7.092 0 0 1-4.505-.4 7.893 7.893 0 0 1-4.137-3.067 7.451 7.451 0 0 1-.559-5.251 3.432 3.432 0 0 1 .475-1.478 39.533 39.533 0 0 0 4.74-7.488 31.377 31.377 0 0 0 2.805-13.579 5.7 5.7 0 0 1 5.254-4.9m1.448 3.2a1.1 1.1 0 0 0-.4 1.712 1.083 1.083 0 0 0 1.874-.436 1.1 1.1 0 0 0-1.472-1.275m-4.67 3.705a1.094 1.094 0 0 0 .153 1.95 1.09 1.09 0 1 0-.153-1.95m8.381.643a1.08 1.08 0 1 0 1.5.908 1.08 1.08 0 0 0-1.5-.908m-6.8 4a3.075 3.075 0 0 0-2.1 2.349 25.116 25.116 0 0 1-2.38 6.52 3.121 3.121 0 0 0 .34 3.388 3.193 3.193 0 0 0 4.6.407c1.013-.852 1.125-2.248 1.549-3.419a45.015 45.015 0 0 1 1.976-5.12 3.107 3.107 0 0 0-.111-2.449 3.214 3.214 0 0 0-3.876-1.676m-8.832 13.722a1.087 1.087 0 0 0-.047 1.99 1.072 1.072 0 0 0 1.535-.952 1.087 1.087 0 0 0-1.488-1.039m8.36 3.182a1.09 1.09 0 1 0 1.6.6 1.084 1.084 0 0 0-1.6-.6m-5.169 2.253a1.084 1.084 0 1 0 1.243 1.523 1.093 1.093 0 0 0-1.239-1.527z" transform="translate(-713.829 -575.516)" style="fill:#f43ea0"/>
    </g>
    <g data-name="#fbf2f9ff">
        <path data-name="Path 4619" d="M848.36 800.927a3.9 3.9 0 0 1 .889-1.377 1.909 1.909 0 0 1-.889 1.377z" transform="translate(-712.813 -677.306)" style="fill:#fbf2f9"/>
    </g>
</svg>
