<svg xmlns="http://www.w3.org/2000/svg" width="70" height="70" viewBox="0 0 70 70">
    <g data-name="Group 28977" transform="translate(-964 -3666)">
        <circle data-name="Ellipse 685" cx="35" cy="35" r="35" transform="translate(964 3666)" style="fill:#f2f4f7"/>
        <g data-name="016---Certificate" transform="translate(979 3683)">
            <path d="M40.426.415A1.377 1.377 0 0 0 39.433 0H1.408a1.377 1.377 0 0 0-.993.415A1.377 1.377 0 0 0 0 1.408v29.575a1.377 1.377 0 0 0 .415.993 1.377 1.377 0 0 0 .993.415h37.321a2.112 2.112 0 0 0 2.112-2.112V1.408a1.377 1.377 0 0 0-.415-.993z" style="fill:#f3d55b"/>
            <path data-name="Shape" d="M56.521 1.583v28.871a2.108 2.108 0 0 1-.62 1.493l-2.9-2.9V3.7L56.105.59a1.377 1.377 0 0 1 .416.993z" transform="translate(-15.679 -.175)" style="fill:#f0c419"/>
            <path data-name="Shape" d="M3.521 3.7v25.35L.415 32.151A1.377 1.377 0 0 1 0 31.158V1.583A1.377 1.377 0 0 1 .415.59z" transform="translate(0 -.175)" style="fill:#f0c419"/>
            <path data-name="Shape" d="M40.4 43.9a2.108 2.108 0 0 1-1.493.62H1.583a1.377 1.377 0 0 1-.993-.415L3.7 41h33.8z" transform="translate(-.175 -12.129)" style="fill:#f29c1f"/>
            <path d="M5 5h33.8v25.35H5z" transform="translate(-1.479 -1.479)" style="fill:#ecf0f1"/>
            <path data-name="Shape" d="M38.8 5S5 5 5 30.35V5z" transform="translate(-1.479 -1.479)" style="fill:#fff"/>
            <path data-name="Shape" d="M31.562 11.408H21.7a.7.7 0 1 1 0-1.408h9.858a.7.7 0 1 1 0 1.408z" transform="translate(-6.213 -2.958)" style="fill:#bdc3c7"/>
            <path data-name="Shape" d="M21.562 33.408H11.7a.7.7 0 0 1 0-1.408h9.858a.7.7 0 0 1 0 1.408z" transform="translate(-3.254 -9.467)" style="fill:#95a5a5"/>
            <path data-name="Shape" d="M32.787 16.408H18.7a.7.7 0 1 1 0-1.408h14.087a.7.7 0 0 1 0 1.408z" transform="translate(-5.325 -4.438)" style="fill:#bdc3c7"/>
            <path data-name="Shape" d="M35 37.4v9.14a.7.7 0 0 0 1.021.634l1.831-.922a.716.716 0 0 1 .634 0l1.831.922a.7.7 0 0 0 1.021-.634V37.4z" transform="translate(-10.354 -11.064)" style="fill:#ff5364"/>
            <path data-name="Shape" d="M21.562 27.337a10.022 10.022 0 0 1-4.921-1.291 9.9 9.9 0 0 1-4.941 1.291.7.7 0 0 1 0-1.408 8.535 8.535 0 0 0 3.653-.8 3.344 3.344 0 0 1-1.292-2.313c0-.422.185-1.813 2.568-1.813s2.571 1.384 2.571 1.81a3.351 3.351 0 0 1-1.29 2.317 8.563 8.563 0 0 0 3.652.8.7.7 0 0 1 0 1.408zm-4.929-4.929c-.535 0-1.16.106-1.16.4s.316.9 1.154 1.545c.749-.573 1.165-1.172 1.165-1.545.001-.294-.624-.4-1.159-.4z" transform="translate(-3.254 -6.213)" style="fill:#95a5a5"/>
            <path data-name="Shape" d="M43.379 27.69c0 .812-1.516 1.315-1.809 2.022-.3.732.4 2.158-.151 2.709s-1.977-.153-2.708.15c-.706.293-1.21 1.809-2.022 1.809s-1.315-1.516-2.022-1.809c-.732-.3-2.158.4-2.709-.151s.153-1.977-.15-2.708C31.516 29 30 28.5 30 27.69s1.516-1.315 1.809-2.022c.3-.732-.4-2.158.151-2.709s1.977.153 2.708-.15c.7-.293 1.21-1.809 2.022-1.809s1.31 1.516 2.021 1.809c.732.3 2.158-.4 2.709.151s-.153 1.977.15 2.708c.293.706 1.809 1.21 1.809 2.022z" transform="translate(-8.875 -6.213)" style="fill:#fb7b76"/>
            <circle cx="2.5" cy="2.5" r="2.5" transform="translate(25.421 19.399)" style="fill:#df4d60"/>
        </g>
    </g>
</svg>
