<svg xmlns="http://www.w3.org/2000/svg" width="70" height="70" viewBox="0 0 70 70">
    <g data-name="Group 28976" transform="translate(-964 -4402)">
        <circle data-name="Ellipse 693" cx="35" cy="35" r="35" transform="translate(964 4402)" style="fill:#f2f4f7"/>
        <g data-name="Group 28985">
            <path data-name="Path 26172" d="M256.365 208.518h19.585a.776.776 0 0 0 .659-.372v-23.625a.776.776 0 0 0-.659-.372h-2.523z" transform="translate(742.937 4246.84)" style="fill-rule:evenodd;fill:#025f80"/>
        </g>
        <g data-name="Group 28986">
            <path data-name="Path 26173" d="M20.3 208.519 3.24 184.15H.768a.77.77 0 0 0-.768.768v22.833a.77.77 0 0 0 .768.768z" transform="translate(979 4246.839)" style="fill-rule:evenodd;fill:#025f80"/>
        </g>
        <g data-name="Group 28987">
            <path data-name="Path 26174" d="m47.059 24.205 1.071 1.932a.245.245 0 0 0 .429 0l1.071-1.932 1.637-.782a.245.245 0 0 0 0-.443l-1.636-.78-1.071-1.934a.245.245 0 0 0-.429 0L47.059 22.2l-1.635.782a.245.245 0 0 0 0 .443z" transform="translate(937.301 4397.861)" style="fill:#fec165;fill-rule:evenodd"/>
        </g>
        <g data-name="Group 28988">
            <path data-name="Path 26175" d="M57.974 432.916c-4.059-8.319-17.062-1.908-17.062-5.069v2.453a1.184 1.184 0 0 0 1.179 1.179H45.9c4.8 0 7.472.527 9.239 1.434h2.838z" transform="translate(941.328 4022.441)" style="fill:#024c67;fill-rule:evenodd"/>
        </g>
        <g data-name="Group 28989">
            <path data-name="Path 26176" d="M256.365 433.052h2.835c1.769-.907 4.44-1.434 9.239-1.434h3.807a1.183 1.183 0 0 0 1.179-1.179v-2.444c-.007 1.042-11.917-1.354-17.06 5.057z" transform="translate(742.937 4022.306)" style="fill:#024c67;fill-rule:evenodd"/>
        </g>
        <g data-name="Group 28990">
            <path data-name="Path 26177" d="M57.974 141.927c1.887-2.354 3.86-3.918 12.083-3.918h3.8a1.183 1.183 0 0 1 1.179 1.182v21.771a1.183 1.183 0 0 1-1.179 1.182h-3.806c-8.205 0-10.194 1.54-12.076 3.888-1.882-2.347-3.869-3.888-12.076-3.888h-3.808a1.185 1.185 0 0 1-1.179-1.182v-21.771a1.185 1.185 0 0 1 1.179-1.182h3.8c8.224 0 10.199 1.563 12.083 3.918z" transform="translate(941.328 4289.326)" style="fill:#99e6fc;fill-rule:evenodd"/>
        </g>
        <g data-name="Group 28991">
            <path data-name="Path 26178" d="M420.827 150.9v10.86a1.367 1.367 0 0 1-.055.379h2.676a1.183 1.183 0 0 0 1.179-1.182v-21.766a1.183 1.183 0 0 0-1.179-1.182h-2.879a1.286 1.286 0 0 1 .259.777V150.9z" transform="translate(591.738 4289.326)" style="fill:#62dbfb;fill-rule:evenodd"/>
        </g>
        <g data-name="Group 28992">
            <path data-name="Path 26179" d="M173.911 220.215c-3.723 0-8.161 3.906-7.266 7.865a2.173 2.173 0 0 1 .155.321 1.517 1.517 0 0 1 2.266.985 1.148 1.148 0 0 1 .12-.06 4.863 4.863 0 0 1-.088-.925 4.811 4.811 0 0 1 9.616-.238c.717-.06 2.056.634 2.34-1.1-.643-3.363-3.42-6.848-7.143-6.848z" transform="translate(825.66 4213.63)" style="fill:#9be69d;fill-rule:evenodd"/>
        </g>
        <g data-name="Group 28993">
            <path data-name="Path 26180" d="M136.577 201.593a7.4 7.4 0 0 1 7.266-6.924 7.143 7.143 0 0 1 7.144 5.907 2.154 2.154 0 0 1 1.575 1.339 1.507 1.507 0 0 1 .784-.217 1.541 1.541 0 0 1 .488.079 9.736 9.736 0 0 0-9.993-10.326c-5.287 0-10.536 3.895-9.916 9.232a2.152 2.152 0 0 1 2.652.911z" transform="translate(855.727 4240.117)" style="fill:#fec165;fill-rule:evenodd"/>
        </g>
        <g data-name="Group 28994">
            <path data-name="Path 26181" d="M102.534 175.057a9.993 9.993 0 0 1 19.909 1.094 1.519 1.519 0 0 1 .994 1.124 1.111 1.111 0 0 1 .55-.146 1.123 1.123 0 0 1 1.038.694 12.442 12.442 0 0 0 .092-1.533 12.667 12.667 0 1 0-25.335 0c0 .3.009.6.03.9a2.043 2.043 0 0 1 1.364-.518h.035a2.158 2.158 0 0 1 1.323-1.615z" transform="translate(887.118 4265.742)" style="fill:#eb5569;fill-rule:evenodd"/>
        </g>
        <g data-name="Group 28995">
            <path data-name="Path 26182" d="M84 285.133a2.366 2.366 0 0 1 1.771.791 1.959 1.959 0 0 1 1.152-.375 1.923 1.923 0 0 1 1.933 1.878 2.1 2.1 0 0 1-.291 4.177H82.58a2.1 2.1 0 0 1-.93-3.98v-.169a2.339 2.339 0 0 1 2.35-2.322z" transform="translate(904.892 4153.853)" style="fill:#faf7f7;fill-rule:evenodd"/>
        </g>
        <g data-name="Group 28996">
            <path data-name="Path 26183" d="M148.317 290.709a1.537 1.537 0 0 1 .886 2.068 2.224 2.224 0 0 1 1.808 2.241 2.361 2.361 0 0 1-.474 1.427h.49a2.1 2.1 0 0 0 1.311-3.733 2.1 2.1 0 0 0-1.02-.442 1.9 1.9 0 0 0-1.02-1.651 1.951 1.951 0 0 0-1.982.092z" transform="translate(842.429 4149.012)" style="fill:#dedbee;fill-rule:evenodd"/>
        </g>
        <g data-name="Group 28997">
            <path data-name="Path 26184" d="M290.5 243.046a4.812 4.812 0 0 1 2.364 3.821c1.348.571 2.243-1.265 2.047-2.116a4.581 4.581 0 0 0-3.7-4.124 7.8 7.8 0 0 1-.711 2.419z" transform="translate(711.504 4194.834)" style="fill:#6fd7a3;fill-rule:evenodd"/>
        </g>
        <g data-name="Group 28998">
            <path data-name="Path 26185" d="M297.311 206.02a7.119 7.119 0 0 1 3.7 4.124c1.471 1.785 3.21.463 2.74-.377-.259-3.744-2.456-6.519-6.626-6.723a8.124 8.124 0 0 1 .18 2.976z" transform="translate(705.4 4229.441)" style="fill:#fdb441;fill-rule:evenodd"/>
        </g>
        <g data-name="Group 28999">
            <path data-name="Path 26186" d="M279.034 167.631a10.006 10.006 0 0 1 6.626 6.723c1.318.939 2.024.946 2.854.43a12.673 12.673 0 0 0-10.932-10.184l-.1-.014c.014.019.03.037.046.056a7.5 7.5 0 0 1 1.506 2.989z" transform="translate(723.496 4264.854)" style="fill:#e53950;fill-rule:evenodd"/>
        </g>
        <g data-name="Group 29000">
            <path data-name="Path 26187" d="M317.81 284.228a2.359 2.359 0 0 0-1.771.793 1.938 1.938 0 0 0-3.083 1.5 2.1 2.1 0 0 0 .291 4.177h5.983a2.1 2.1 0 0 0 .93-3.978v-.171a2.339 2.339 0 0 0-2.35-2.321z" transform="translate(692.494 4154.686)" style="fill:#faf7f7;fill-rule:evenodd"/>
        </g>
        <g data-name="Group 29001">
            <path data-name="Path 26188" d="M375.8 285.03a2.316 2.316 0 0 1 1.316 2.084v.169a2.128 2.128 0 0 1 .976 1.008 2.087 2.087 0 0 1-.479 2.407h.622a2.058 2.058 0 0 0 .842-.178 2.1 2.1 0 0 0 .088-3.8v-.171a2.352 2.352 0 0 0-.092-.652 2.311 2.311 0 0 0-.553-.946 2.379 2.379 0 0 0-2.854-.43 2.392 2.392 0 0 0-.442.315 2.337 2.337 0 0 1 .576.194z" transform="translate(633.497 4154.687)" style="fill:#dedbee;fill-rule:evenodd"/>
        </g>
        <g data-name="Group 29002">
            <path data-name="Path 26189" d="m389.013 68.833-1.481 2.67a.245.245 0 0 1-.429 0l-1.48-2.67-2.3-1.1a.245.245 0 0 1 0-.443l2.3-1.1 1.48-2.67a.245.245 0 0 1 .429 0l1.481 2.67 2.3 1.1a.245.245 0 0 1 0 .443z" transform="translate(626.166 4358.037)" style="fill:#fec165;fill-rule:evenodd"/>
        </g>
    </g>
</svg>
