<svg xmlns="http://www.w3.org/2000/svg" width="70" height="70" viewBox="0 0 70 70">
    <g data-name="Group 28971" transform="translate(-334 -3298)">
        <circle data-name="Ellipse 685" cx="35" cy="35" r="35" transform="translate(334 3298)" style="fill:#f2f4f7"/>
        <g data-name="06-Wash hands" transform="translate(347 3311)">
            <path data-name="Path 26237" d="M55.432 49.663v7.989l-15.072-7.21.426-.113L44.115 47z" transform="translate(-13.157 -15.376)" style="fill:#f2b59d"/>
            <path data-name="Path 26238" d="M3 34.888a2.715 2.715 0 0 1-1.221-.688A2.68 2.68 0 0 1 1 32.312a2 2 0 0 1 2-2h2.66l.02-.027L8.7 32.6a1.864 1.864 0 0 0 2.423-.146 1.807 1.807 0 0 0 .533-1.278v-.313a1.331 1.331 0 0 0-.666-1.212l-2.656-2.1.02-.027 4.76 3.7a1.981 1.981 0 0 0 3.2-1.564v-.353a1.968 1.968 0 0 0-.766-1.564l.766.573a2.678 2.678 0 0 0 1.345.666A1.977 1.977 0 0 0 19.64 27v-.353a1.974 1.974 0 0 0-.792-1.584l-1.871-1.4h.666v-.666a1.335 1.335 0 0 0-1.331-1.331h-5.679a1.644 1.644 0 0 1-.733-3.121l1.831-.639L14.315 17l2 .22 3.994.446 2.556 2.13 9.427 7.856h9.986v11.983l-11.32-2.663-3.329 3.328-.426.113-11.963 3.15a2.035 2.035 0 0 1-.526.067h-1.531a2.092 2.092 0 0 1-1.478-.612l-1.385-1.386h-.859a2.673 2.673 0 0 1-2.477-1.671L6.326 38.3H5.68a1.988 1.988 0 0 1-1.851-1.258L3 34.975z" transform="translate(0 -5.348)" style="fill:#f2c4b2"/>
            <path data-name="Path 26239" d="m29.992 14.329.666 3.329-.107.133-2.556-2.13L24 15.214V13.25a2.246 2.246 0 0 1 4-1.4z" transform="translate(-7.688 -3.343)" style="fill:#f2b59d"/>
            <path data-name="Path 26240" d="M24.028 25.331V26h-.666l-2.184-1.638A1.8 1.8 0 0 0 20.1 24h2.6a1.335 1.335 0 0 1 1.328 1.331z" transform="translate(-6.385 -7.688)" style="fill:#ed9776"/>
            <path data-name="Path 26241" d="M22.191 27.4 20.32 26l-2.184-1.638A1.8 1.8 0 0 0 17.058 24h-.939a1.787 1.787 0 0 0-1.791 1.791 1.922 1.922 0 0 0 .533 1.272l-.053-.04a1.8 1.8 0 0 0-1.078-.359h-.939a1.789 1.789 0 0 0-1.1 3.2l4.76 3.7A1.981 1.981 0 0 0 19.654 32v-.353a1.968 1.968 0 0 0-.766-1.564l.766.573a2.678 2.678 0 0 0 1.346.667 1.977 1.977 0 0 0 1.984-1.984v-.353a1.974 1.974 0 0 0-.792-1.584z" transform="translate(-3.343 -7.688)" style="fill:#f2b59d"/>
            <path data-name="Path 26242" d="M12.317 1v5.326H6.326V4.994H1V1z" style="fill:#d4d4d4"/>
            <g data-name="Group 29010">
                <path data-name="Path 26243" d="M12.989 35.54v.313a1.807 1.807 0 0 1-.533 1.278 1.864 1.864 0 0 1-2.423.146l-3.016-2.31L5.632 33.9a1.617 1.617 0 0 1-.593-.912A1.668 1.668 0 0 1 5 32.624 1.636 1.636 0 0 1 6.651 31h.872a1.656 1.656 0 0 1 .992.326l1.152.905 2.656 2.1a1.331 1.331 0 0 1 .666 1.212z" transform="translate(-1.337 -10.028)" style="fill:#f2b59d"/>
                <path data-name="Path 26244" d="m24.192 31.906-.539-.406v.345a1.977 1.977 0 0 1-1.984 1.985 2.678 2.678 0 0 1-1.345-.666l-.766-.573a1.968 1.968 0 0 1 .766 1.564v.007l.539.4-.539-.4v.342a1.983 1.983 0 0 1-3.2 1.564l-4.114-3.2a.189.189 0 0 1 0 .047L15 34.5a1.331 1.331 0 0 1 .666 1.212v.188l2.789 2.169a1.981 1.981 0 0 0 3.2-1.564v-.353a1.968 1.968 0 0 0-.766-1.564l.766.573a2.678 2.678 0 0 0 1.345.666 1.977 1.977 0 0 0 1.984-1.984v-.353a1.974 1.974 0 0 0-.792-1.584z" transform="translate(-4.012 -10.195)" style="fill:#f2b59d"/>
                <path data-name="Path 26245" d="m14.344 38.318-.666-.525v.053a1.807 1.807 0 0 1-.533 1.278 1.864 1.864 0 0 1-2.423.146l-3.015-2.31-.02.027h-.624a1.619 1.619 0 0 0 .591.905l1.385 1.065 3.016 2.31a1.864 1.864 0 0 0 2.423-.146 1.807 1.807 0 0 0 .533-1.278v-.313a1.331 1.331 0 0 0-.666-1.212z" transform="translate(-2.027 -12.02)" style="fill:#f2b59d"/>
            </g>
            <path data-name="Path 26246" d="M11.663 59.5c0 1.105-.6 1.5-1.331 1.5S9 60.6 9 59.5a4.9 4.9 0 0 1 1.331-2.5 4.9 4.9 0 0 1 1.332 2.5z" transform="translate(-2.674 -18.719)" style="fill:#96e0ff"/>
            <path data-name="Path 26247" d="M9.666 58.831a3.4 3.4 0 0 1 .732-1.756L10.331 57A4.9 4.9 0 0 0 9 59.5c0 1.105.6 1.5 1.331 1.5a1.189 1.189 0 0 0 1.206-.755 1.588 1.588 0 0 1-.541.089c-.731-.005-1.33-.398-1.33-1.503z" transform="translate(-2.674 -18.719)" style="fill:#81d2f5"/>
            <path data-name="Path 26248" d="m5.68 35.967-.02.027H3a2 2 0 0 0-2 2V36.66A2.663 2.663 0 0 1 3.663 34l.04-.007a1.617 1.617 0 0 0 .597.907z" transform="translate(0 -11.027)" style="fill:#ed9776"/>
            <path data-name="Path 26249" d="M5.988 54.329a1.8 1.8 0 0 1-2 2 1.8 1.8 0 0 1-2-2c0-1.471 2-3.329 2-3.329s2 1.857 2 3.329z" transform="translate(-.328 -16.713)" style="fill:#96e0ff"/>
            <path data-name="Path 26250" d="M2.659 53.733a2.073 2.073 0 0 1 .079-.533 3.583 3.583 0 0 0-.744 1.864 1.8 1.8 0 0 0 2 2 1.765 1.765 0 0 0 1.974-1.706 2.182 2.182 0 0 1-1.308.375 1.8 1.8 0 0 1-2-2z" transform="translate(-.328 -17.449)" style="fill:#81d2f5"/>
            <path data-name="Path 26251" d="M21.819 53.457a.666.666 0 0 0 .5-.646V52l-5.765 1.245a1.232 1.232 0 0 1-.466.087H15l1.11 1.11.887.222z" transform="translate(-4.68 -17.048)" style="fill:#f2b59d"/>
            <path data-name="Path 26252" d="M17.893 48.531a1.331 1.331 0 0 0 1.093-1.311V47l-7.323 1.331H9l.533 1.331h2.13z" transform="translate(-2.674 -15.376)" style="fill:#f2b59d"/>
            <path data-name="Path 26253" d="M14 43.55A1.572 1.572 0 0 0 15.317 42l-8.654 1.331h-2A2.435 2.435 0 0 1 4 43.245v.087l.533 1.331h2.8z" transform="translate(-1.003 -13.705)" style="fill:#f2b59d"/>
            <path data-name="Path 26254" d="m46.487 49.5 8.945 2.631v-2.468L44.115 47l-3.329 3.329-.426.113 4.42 2.114v-1.779a1.331 1.331 0 0 1 1.707-1.277z" transform="translate(-13.157 -15.376)" style="fill:#ed9776"/>
            <path data-name="Path 26255" d="m22.933 29.918-5.042-3.528a1.314 1.314 0 0 1 .752-2.39h-.852A1.787 1.787 0 0 0 16 25.791a1.922 1.922 0 0 0 .533 1.272l.007.007 3.994 3c.007.007.02.013.027.02l.766.573a2.678 2.678 0 0 0 1.345.666 1.959 1.959 0 0 0 1.921-1.511 1.331 1.331 0 0 1-1.66.1z" transform="translate(-5.014 -7.688)" style="fill:#f2a283"/>
            <path data-name="Path 26256" d="m11.267 36.395-5.042-3.529a1.284 1.284 0 0 1-.5-1.441A1.614 1.614 0 0 0 5 32.766a1.668 1.668 0 0 0 .04.366 1.617 1.617 0 0 0 .593.912l1.384 1.066 3.016 2.31a1.864 1.864 0 0 0 2.423-.146 1.811 1.811 0 0 0 .507-1.025 1.331 1.331 0 0 1-1.7.146z" transform="translate(-1.337 -10.17)" style="fill:#f2a283"/>
            <path data-name="Path 26257" d="m17.933 34.115-5.708-4.194a1.31 1.31 0 0 1-.533-1.333 1.772 1.772 0 0 0-.385.4 1.791 1.791 0 0 0 .386 2.417l4.76 3.7a1.971 1.971 0 0 0 3.14-1.092 1.331 1.331 0 0 1-1.659.1z" transform="translate(-3.343 -9.222)" style="fill:#f2a283"/>
            <path data-name="Path 26258" d="M57.317 33h-2.662v5.218a2 2 0 0 1-2.629 1.895l-1.518-.506A3.462 3.462 0 0 0 46 42.32l11.317 2.663z" transform="translate(-15.042 -10.697)" style="fill:#f2b59d"/>
            <path data-name="Path 26259" d="M20.323 21.578h-5.992a1.331 1.331 0 0 1-1.235-.84 1.608 1.608 0 0 0-.1.527 1.648 1.648 0 0 0 1.644 1.644h5.679a1.335 1.335 0 0 1 1.331 1.331v-1.33a1.331 1.331 0 0 0-1.327-1.332z" transform="translate(-4.011 -6.598)" style="fill:#f2b59d"/>
            <path data-name="Path 26260" d="M18.125 24H17v.406A1.774 1.774 0 0 1 18.125 24z" transform="translate(-5.348 -7.688)" style="fill:#81d2f5"/>
            <path data-name="Path 26261" d="m11.338 24.878.02-.027a1.788 1.788 0 0 1 1.1-3.2h.942a1.8 1.8 0 0 1 1.078.359l.053.04a1.922 1.922 0 0 1-.533-1.272 1.778 1.778 0 0 1 .666-1.385v-.406h-1.022a1.644 1.644 0 0 1-.732-3.116l1.751-.612V9H10v14.856a1.644 1.644 0 0 1 .186.117z" transform="translate(-3.008 -2.674)" style="fill:#96e0ff"/>
            <path data-name="Path 26262" d="M2.331 1v1.331a1.331 1.331 0 0 0 1.332 1.332h2.663v1.331H1V1z" style="fill:#bfbfbf"/>
            <path data-name="Path 26263" d="M9 8h5.992v.666H9z" transform="translate(-2.674 -2.34)" style="fill:#bfbfbf"/>
            <path data-name="Path 26264" d="M12.663 10.331h2V9H10v14.856a1.643 1.643 0 0 1 .186.117l1.152.905.02-.027a1.76 1.76 0 0 1-.027-2.8V11.663a1.331 1.331 0 0 1 1.331-1.331z" transform="translate(-3.008 -2.674)" style="fill:#81d2f5"/>
            <rect data-name="Rectangle 7217" width="1" height="4" rx=".5" transform="translate(9.638 8.636)" style="fill:#b3f5ff"/>
            <rect data-name="Rectangle 7218" width="1" height="2" rx=".5" transform="translate(9.638 16.636)" style="fill:#b3f5ff"/>
            <rect data-name="Rectangle 7219" width="1" height="2" rx=".5" transform="translate(8.638 11.636)" style="fill:#b3f5ff"/>
            <path data-name="Path 26265" d="M5.81 55.324c.238.055.369-.286.36-.5a.79.79 0 0 0-.427-.737.946.946 0 0 0-.6-.067.443.443 0 0 0-.23.1.258.258 0 0 0-.071.256.357.357 0 0 0 .093.128l.678.686a.424.424 0 0 0 .2.133z" transform="translate(-1.282 -17.715)" style="fill:#fff"/>
            <path data-name="Path 26266" d="M11.823 61.167c.119.027.184-.143.18-.252a.4.4 0 0 0-.211-.368.477.477 0 0 0-.3-.033.222.222 0 0 0-.115.051.128.128 0 0 0-.036.128.173.173 0 0 0 .047.067l.339.343a.213.213 0 0 0 .095.065z" transform="translate(-3.456 -19.89)" style="fill:#fff"/>
        </g>
    </g>
</svg>
